<svg xmlns="http://www.w3.org/2000/svg" xmlns:xlink="http://www.w3.org/1999/xlink" width="2250" zoomAndPan="magnify" viewBox="0 0 1687.5 1124.99995" height="1500" preserveAspectRatio="xMidYMid meet" version="1.0"><defs><clipPath id="41dc9a9db7"><path d="M 28.28125 79.480469 L 1659.046875 79.480469 L 1659.046875 442 L 28.28125 442 Z M 28.28125 79.480469 " clip-rule="nonzero"/></clipPath><clipPath id="e27addda3b"><path d="M 42 709 L 1646 709 L 1646 1045.195312 L 42 1045.195312 Z M 42 709 " clip-rule="nonzero"/></clipPath></defs><g clip-path="url(#41dc9a9db7)"><path fill="#f47253" d="M 102.410156 364.488281 C 141.605469 364.488281 161.164062 344.9375 161.164062 305.761719 L 161.164062 108.824219 C 161.164062 96.878906 165.425781 87.675781 176.539062 82.65625 L 108.574219 82.65625 C 119.6875 87.675781 124.328125 97.261719 124.328125 108.824219 L 124.328125 336.492188 C 124.328125 351.097656 117.023438 358.402344 102.410156 358.402344 C 87.796875 358.402344 80.945312 351.097656 80.945312 336.492188 L 80.945312 108.824219 C 80.945312 96.878906 84.753906 87.675781 96.246094 82.65625 L 28.28125 82.65625 C 39.390625 87.675781 43.652344 97.261719 43.652344 108.824219 L 43.652344 305.761719 C 43.652344 344.9375 63.214844 364.488281 102.410156 364.488281 Z M 365.210938 334.972656 L 365.210938 82.65625 L 312.542969 82.65625 C 321.371094 86.535156 327.917969 93.835938 327.917969 108.824219 L 327.917969 334.972656 C 327.917969 345.699219 322.894531 356.804688 312.542969 361.0625 L 380.585938 361.0625 C 370.539062 356.804688 365.210938 345.699219 365.210938 334.972656 Z M 436.296875 334.972656 L 436.296875 160.246094 L 383.628906 160.246094 C 392.457031 163.667969 399.003906 171.351562 399.003906 185.957031 L 399.003906 334.972656 C 399.003906 345.699219 393.980469 356.804688 383.628906 361.0625 L 451.59375 361.0625 C 441.625 356.804688 436.296875 345.699219 436.296875 334.972656 Z M 393.980469 103.421875 C 393.980469 117.648438 403.570312 127.613281 417.800781 127.613281 C 432.035156 127.613281 441.625 117.648438 441.625 103.421875 C 441.625 89.199219 432.035156 79.613281 417.800781 79.613281 C 403.570312 79.613281 393.980469 89.199219 393.980469 103.421875 Z M 706.328125 334.972656 L 706.328125 160.246094 L 653.660156 160.246094 C 662.566406 163.667969 669.035156 171.351562 669.035156 185.957031 L 669.035156 334.972656 C 669.035156 345.699219 664.085938 356.804688 653.660156 361.0625 L 721.699219 361.0625 C 711.730469 356.804688 706.328125 345.699219 706.328125 334.972656 Z M 664.085938 103.421875 C 664.085938 117.648438 673.675781 127.613281 687.910156 127.613281 C 702.066406 127.613281 711.730469 117.648438 711.730469 103.421875 C 711.730469 89.199219 702.066406 79.613281 687.910156 79.613281 C 673.675781 79.613281 664.085938 89.199219 664.085938 103.421875 Z M 779.3125 104.5625 C 779.3125 140.316406 766.222656 160.246094 748.566406 160.246094 L 720.941406 160.246094 L 720.941406 166.40625 L 748.566406 166.40625 L 748.566406 279.289062 C 748.566406 331.09375 755.113281 364.105469 789.285156 364.105469 C 805.800781 364.105469 820.792969 356.421875 831.523438 341.058594 L 812.34375 242.398438 C 817.75 311.164062 812.726562 357.945312 797.351562 357.945312 C 783.5 357.945312 785.480469 320.746094 785.480469 271.609375 L 785.480469 166.40625 L 788.902344 166.40625 C 809.679688 166.40625 814.628906 185.574219 813.867188 228.171875 L 826.195312 129.132812 C 816.605469 151.421875 815.390625 160.246094 788.144531 160.246094 L 785.480469 160.246094 L 785.480469 104.5625 Z M 880.765625 236.996094 C 881.90625 194.398438 889.214844 163.289062 903.371094 163.289062 C 912.199219 163.289062 917.984375 174.851562 917.984375 190.597656 C 917.984375 202.84375 914.558594 233.953125 880.765625 236.996094 Z M 947.589844 249.320312 C 942.945312 306.523438 929.550781 339.535156 909.914062 339.535156 C 888.832031 339.535156 880.765625 301.121094 880.765625 249.699219 C 880.765625 246.65625 880.765625 243.539062 880.765625 240.496094 L 944.847656 240.496094 C 944.847656 175.230469 919.503906 157.203125 896.902344 157.203125 C 864.175781 157.203125 840.429688 194.78125 840.429688 263.542969 C 840.429688 323.789062 858.464844 364.105469 898.421875 364.105469 C 924.527344 364.105469 952.535156 347.21875 947.589844 249.320312 Z M 1045.160156 336.875 C 1040.136719 344.558594 1034.046875 348.742188 1027.121094 348.742188 C 1007.105469 348.742188 999.800781 311.164062 999.800781 255.863281 C 999.800781 200.5625 1007.105469 163.289062 1025.144531 163.289062 C 1045.539062 163.289062 1045.160156 211.285156 1045.160156 278.910156 Z M 1082.375 334.972656 L 1082.375 82.65625 L 1029.785156 82.65625 C 1038.234375 86.535156 1045.160156 93.835938 1045.160156 108.824219 L 1045.160156 160.246094 C 1038.234375 157.960938 1030.925781 157.203125 1023.621094 157.203125 C 980.621094 157.203125 959.460938 195.160156 959.460938 261.1875 C 959.460938 324.929688 979.097656 364.105469 1010.988281 364.105469 C 1024.761719 364.105469 1036.332031 357.183594 1045.160156 345.699219 L 1045.160156 361.0625 L 1097.75 361.0625 C 1087.398438 356.804688 1082.375 345.699219 1082.375 334.972656 Z M 1223.40625 197.136719 C 1244.105469 197.136719 1242.964844 215.925781 1241.824219 258.90625 L 1263.742188 159.863281 C 1255.675781 178.652344 1248.367188 190.597656 1225.6875 190.597656 L 1217.238281 190.597656 L 1217.238281 89.199219 L 1226.449219 89.199219 C 1271.046875 89.199219 1277.972656 138.71875 1288.324219 181.773438 L 1282.160156 82.65625 L 1164.574219 82.65625 C 1173.476562 86.535156 1179.945312 93.835938 1179.945312 108.824219 L 1179.945312 334.972656 C 1179.945312 345.699219 1175 356.804688 1164.574219 361.0625 L 1232.613281 361.0625 C 1222.644531 356.804688 1217.238281 345.699219 1217.238281 334.972656 L 1217.238281 197.136719 Z M 1350.125 364.105469 C 1387.035156 364.105469 1412 323.410156 1412 258.523438 C 1412 192.117188 1386.277344 157.203125 1349.363281 157.203125 C 1311.386719 157.203125 1287.5625 194.78125 1287.5625 257.765625 C 1287.5625 321.507812 1312.148438 364.105469 1350.125 364.105469 Z M 1327.902344 257.765625 C 1327.902344 200.5625 1335.207031 163.289062 1350.125 163.289062 C 1364.355469 163.289062 1372.042969 199.039062 1372.042969 258.90625 C 1372.042969 315.726562 1365.117188 357.945312 1350.125 357.945312 C 1335.589844 357.945312 1327.902344 316.109375 1327.902344 257.765625 Z M 1606.761719 104.5625 C 1606.761719 140.316406 1593.746094 160.246094 1576.011719 160.246094 L 1548.386719 160.246094 L 1548.386719 166.40625 L 1576.011719 166.40625 L 1576.011719 279.289062 C 1576.011719 331.09375 1582.558594 364.105469 1616.730469 364.105469 C 1633.246094 364.105469 1648.238281 356.421875 1659.046875 341.058594 L 1639.792969 242.398438 C 1645.195312 311.164062 1640.171875 357.945312 1624.796875 357.945312 C 1611.023438 357.945312 1612.925781 320.746094 1612.925781 271.609375 L 1612.925781 166.40625 L 1616.351562 166.40625 C 1637.128906 166.40625 1642.152344 185.574219 1641.3125 228.171875 L 1653.644531 129.132812 C 1644.054688 151.421875 1642.914062 160.246094 1615.589844 160.246094 L 1612.925781 160.246094 L 1612.925781 104.5625 Z M 301.433594 202.460938 C 301.433594 173.707031 290.246094 157.203125 267.257812 157.203125 C 247.242188 157.203125 232.25 169.070312 224.183594 188.695312 L 224.183594 160.246094 L 171.589844 160.246094 C 180.421875 163.667969 186.964844 171.351562 186.964844 185.957031 L 186.964844 334.972656 C 186.964844 345.699219 181.941406 356.804688 171.589844 361.0625 L 239.554688 361.0625 C 229.585938 356.804688 224.183594 345.699219 224.183594 334.972656 L 224.183594 223.988281 C 224.183594 195.539062 234.988281 175.230469 248.765625 175.230469 C 258.355469 175.230469 264.519531 185.195312 264.519531 200.179688 L 264.519531 356.421875 C 264.519531 411.726562 289.484375 441.316406 322.894531 441.316406 C 340.628906 441.316406 355.164062 433.253906 365.972656 418.265625 L 348.695312 368.746094 C 348.316406 409.441406 341.769531 434.773438 326.777344 434.773438 C 308.738281 434.773438 301.433594 397.878906 301.433594 348.742188 Z M 1542.980469 202.460938 C 1542.980469 173.707031 1531.871094 157.203125 1508.808594 157.203125 C 1488.871094 157.203125 1473.875 169.070312 1465.808594 188.695312 L 1465.808594 160.246094 L 1413.140625 160.246094 C 1421.96875 163.667969 1428.515625 171.351562 1428.515625 185.957031 L 1428.515625 334.972656 C 1428.515625 345.699219 1423.570312 356.804688 1413.140625 361.0625 L 1481.183594 361.0625 C 1471.136719 356.804688 1465.808594 345.699219 1465.808594 334.972656 L 1465.808594 223.988281 C 1465.808594 195.539062 1476.539062 175.230469 1490.390625 175.230469 C 1499.980469 175.230469 1506.144531 185.195312 1506.144531 200.179688 L 1506.144531 356.421875 C 1506.144531 411.726562 1531.109375 441.316406 1564.519531 441.316406 C 1582.179688 441.316406 1596.789062 433.253906 1607.523438 418.265625 L 1590.246094 368.746094 C 1589.863281 409.441406 1583.320312 434.773438 1568.328125 434.773438 C 1550.289062 434.773438 1542.980469 397.878906 1542.980469 348.742188 Z M 641.789062 196.300781 C 641.789062 167.546875 630.675781 157.203125 612.5625 157.203125 C 594.144531 157.203125 580.671875 168.308594 573.367188 187.855469 C 571.464844 165.644531 560.730469 157.203125 544.597656 157.203125 C 526.558594 157.203125 513.089844 167.925781 505.78125 186.714844 L 505.78125 160.246094 L 453.191406 160.246094 C 462.019531 163.667969 468.566406 171.351562 468.566406 185.957031 L 468.566406 334.972656 C 468.566406 345.699219 463.542969 356.804688 453.191406 361.0625 L 521.15625 361.0625 C 511.1875 356.804688 505.78125 345.699219 505.78125 334.972656 L 505.78125 223.988281 C 505.78125 197.136719 514.609375 175.230469 525.417969 175.230469 C 533.484375 175.230469 536.53125 185.957031 536.53125 200.179688 L 536.53125 334.972656 C 536.53125 345.699219 531.507812 356.804688 521.15625 361.0625 L 589.121094 361.0625 C 579.148438 356.804688 573.824219 345.699219 573.824219 334.972656 L 573.824219 223.988281 C 573.824219 197.136719 582.652344 175.230469 593.382812 175.230469 C 601.449219 175.230469 604.496094 185.957031 604.496094 200.179688 L 604.496094 356.421875 C 604.496094 411.726562 629.839844 441.316406 663.324219 441.316406 C 680.984375 441.316406 695.59375 433.253906 706.328125 418.265625 L 689.050781 368.746094 C 688.667969 409.441406 682.125 434.773438 667.132812 434.773438 C 649.09375 434.773438 641.789062 397.878906 641.789062 348.742188 Z M 641.789062 196.300781 " fill-opacity="1" fill-rule="evenodd"/></g><path fill="#ffffff" d="M 117.785156 642.820312 C 129.65625 665.867188 146.628906 678.875 174.253906 678.875 C 212.308594 678.875 236.132812 655.066406 236.132812 617.488281 C 236.132812 548.34375 156.21875 506.886719 156.21875 438.5 C 156.21875 415.910156 164.664062 400.921875 179.277344 400.921875 C 200.359375 400.921875 218.398438 433.175781 213.832031 543.324219 L 236.132812 430.816406 C 224.945312 409.367188 203.863281 394.382812 177.300781 394.382812 C 142.367188 394.382812 117.785156 419.710938 117.785156 453.105469 C 117.785156 513.046875 197.695312 554.503906 197.695312 630.117188 C 197.695312 655.445312 188.488281 672.714844 175.777344 672.714844 C 153.476562 672.714844 129.277344 619.007812 132.394531 507.265625 Z M 254.550781 633.613281 C 254.550781 662.367188 265.660156 678.875 286.4375 678.875 C 303.714844 678.875 317.949219 667.007812 325.632812 647.761719 L 325.632812 675.832031 L 378.226562 675.832031 C 369.777344 671.953125 362.851562 664.652344 362.851562 649.742188 L 362.851562 475.011719 L 310.261719 475.011719 C 320.609375 479.195312 325.632812 490.378906 325.632812 500.722656 L 325.632812 612.085938 C 325.632812 640.460938 314.828125 660.847656 304.855469 660.847656 C 297.550781 660.847656 291.84375 650.882812 291.84375 635.898438 L 291.84375 475.011719 L 239.175781 475.011719 C 249.527344 479.195312 254.550781 490.378906 254.550781 500.722656 Z M 430.511719 499.203125 C 435.457031 491.519531 441.625 487.261719 448.550781 487.261719 C 468.488281 487.261719 475.796875 524.535156 475.796875 579.835938 C 475.796875 635.515625 468.488281 672.714844 450.453125 672.714844 C 431.273438 672.714844 430.511719 629.355469 430.511719 567.132812 Z M 430.128906 675.832031 C 437.4375 677.734375 444.667969 678.875 451.972656 678.875 C 495.050781 678.875 516.132812 640.839844 516.132812 574.8125 C 516.132812 511.070312 496.574219 471.96875 464.304688 471.96875 C 450.832031 471.96875 439.339844 478.816406 430.511719 490.378906 L 430.511719 397.425781 L 377.84375 397.425781 C 386.671875 401.304688 393.21875 408.605469 393.21875 423.589844 L 393.21875 649.742188 C 393.21875 660.464844 388.195312 671.574219 377.84375 675.832031 Z M 528.460938 652.785156 C 539.195312 668.148438 554.1875 675.832031 574.582031 675.832031 C 606.855469 675.832031 628.316406 656.207031 628.316406 624.335938 C 628.316406 569.871094 565.296875 540.28125 565.296875 501.105469 C 565.296875 488.097656 572.605469 478.054688 583.03125 478.054688 C 603.351562 478.054688 610.277344 514.1875 610.277344 557.167969 L 622.152344 494.5625 C 611.421875 479.578125 596.425781 471.96875 577.246094 471.96875 C 548.402344 471.96875 528.460938 489.238281 528.460938 514.1875 C 528.460938 559.449219 591.480469 582.496094 591.480469 636.277344 C 591.480469 655.445312 583.414062 669.671875 570.320312 669.671875 C 547.261719 669.671875 539.195312 622.8125 535.386719 554.125 Z M 796.589844 649.742188 L 796.589844 564.46875 C 796.589844 513.425781 803.136719 490.378906 819.269531 490.378906 C 839.210938 490.378906 841.191406 524.914062 835.785156 593.679688 L 862.273438 490.378906 C 855.726562 481.175781 843.855469 471.96875 830.003906 471.96875 C 813.488281 471.96875 802.753906 484.597656 796.589844 506.886719 L 796.589844 475.011719 L 743.925781 475.011719 C 752.828125 478.4375 759.296875 486.121094 759.296875 500.722656 L 759.296875 649.742188 C 759.296875 660.464844 754.351562 671.574219 743.925781 675.832031 L 811.964844 675.832031 C 801.996094 671.574219 796.589844 660.464844 796.589844 649.742188 Z M 916.082031 649.742188 L 916.082031 475.011719 L 863.414062 475.011719 C 872.242188 478.4375 878.789062 486.121094 878.789062 500.722656 L 878.789062 649.742188 C 878.789062 660.464844 873.839844 671.574219 863.414062 675.832031 L 931.453125 675.832031 C 921.40625 671.574219 916.082031 660.464844 916.082031 649.742188 Z M 873.839844 418.191406 C 873.839844 432.414062 883.429688 442.378906 897.664062 442.378906 C 911.820312 442.378906 921.40625 432.414062 921.40625 418.191406 C 921.40625 403.964844 911.820312 394.382812 897.664062 394.382812 C 883.429688 394.382812 873.839844 403.964844 873.839844 418.191406 Z M 985.1875 499.203125 C 990.210938 491.519531 996.375 487.261719 1003.300781 487.261719 C 1023.242188 487.261719 1030.546875 524.535156 1030.546875 579.835938 C 1030.546875 635.515625 1023.242188 672.714844 1005.203125 672.714844 C 984.804688 672.714844 985.1875 624.335938 985.1875 557.167969 Z M 985.1875 727.253906 L 985.1875 675.832031 C 992.113281 677.734375 999.417969 678.875 1006.726562 678.875 C 1049.726562 678.875 1070.882812 640.839844 1070.882812 574.8125 C 1070.882812 511.070312 1051.324219 471.96875 1019.054688 471.96875 C 1005.582031 471.96875 994.015625 478.816406 985.1875 490.378906 L 985.1875 475.011719 L 932.597656 475.011719 C 941.425781 478.4375 947.96875 486.121094 947.96875 500.722656 L 947.96875 727.253906 C 947.96875 737.597656 942.945312 748.78125 932.597656 752.964844 L 1000.558594 752.964844 C 990.589844 748.78125 985.1875 737.597656 985.1875 727.253906 Z M 1121.191406 419.332031 C 1121.191406 455.007812 1108.175781 475.011719 1090.445312 475.011719 L 1062.816406 475.011719 L 1062.816406 481.175781 L 1090.445312 481.175781 L 1090.445312 594.058594 C 1090.445312 645.863281 1096.988281 678.875 1131.160156 678.875 C 1147.675781 678.875 1162.671875 671.191406 1173.476562 655.828125 L 1154.222656 557.167969 C 1159.625 625.933594 1154.601562 672.714844 1139.230469 672.714844 C 1125.453125 672.714844 1127.355469 635.515625 1127.355469 586.375 L 1127.355469 481.175781 L 1130.78125 481.175781 C 1151.558594 481.175781 1156.582031 500.34375 1155.746094 542.941406 L 1168.074219 443.902344 C 1158.484375 466.191406 1157.34375 475.011719 1130.019531 475.011719 L 1127.355469 475.011719 L 1127.355469 419.332031 Z M 1228.808594 649.742188 L 1228.808594 475.011719 L 1176.140625 475.011719 C 1184.96875 478.4375 1191.515625 486.121094 1191.515625 500.722656 L 1191.515625 649.742188 C 1191.515625 660.464844 1186.492188 671.574219 1176.140625 675.832031 L 1244.105469 675.832031 C 1234.136719 671.574219 1228.808594 660.464844 1228.808594 649.742188 Z M 1186.492188 418.191406 C 1186.492188 432.414062 1196.082031 442.378906 1210.3125 442.378906 C 1224.546875 442.378906 1234.136719 432.414062 1234.136719 418.191406 C 1234.136719 403.964844 1224.546875 394.382812 1210.3125 394.382812 C 1196.082031 394.382812 1186.492188 403.964844 1186.492188 418.191406 Z M 1309.484375 678.875 C 1346.320312 678.875 1371.28125 638.179688 1371.28125 573.292969 C 1371.28125 506.886719 1345.558594 471.96875 1308.644531 471.96875 C 1270.667969 471.96875 1246.847656 509.546875 1246.847656 572.53125 C 1246.847656 636.277344 1271.429688 678.875 1309.484375 678.875 Z M 1287.183594 572.53125 C 1287.183594 515.328125 1294.488281 478.054688 1309.484375 478.054688 C 1323.640625 478.054688 1331.324219 513.808594 1331.324219 573.671875 C 1331.324219 630.496094 1324.398438 672.714844 1309.484375 672.714844 C 1294.871094 672.714844 1287.183594 630.875 1287.183594 572.53125 Z M 1503.863281 517.230469 C 1503.863281 488.476562 1492.675781 471.96875 1469.613281 471.96875 C 1449.675781 471.96875 1434.679688 483.835938 1426.613281 503.386719 L 1426.613281 475.011719 L 1373.945312 475.011719 C 1382.851562 478.4375 1389.320312 486.121094 1389.320312 500.722656 L 1389.320312 649.742188 C 1389.320312 660.464844 1384.375 671.574219 1373.945312 675.832031 L 1441.988281 675.832031 C 1432.015625 671.574219 1426.613281 660.464844 1426.613281 649.742188 L 1426.613281 538.757812 C 1426.613281 510.308594 1437.34375 490 1451.195312 490 C 1460.785156 490 1466.949219 499.964844 1466.949219 514.949219 L 1466.949219 649.742188 C 1466.949219 660.464844 1461.546875 671.574219 1451.195312 675.832031 L 1519.160156 675.832031 C 1509.191406 671.574219 1503.863281 660.464844 1503.863281 649.742188 Z M 1527.683594 657.425781 C 1527.683594 670.429688 1536.511719 678.875 1549.527344 678.875 C 1553.027344 678.875 1556.074219 678.113281 1558.738281 676.972656 C 1555.3125 685.796875 1551.429688 692.339844 1543.820312 701.921875 C 1561.097656 692.339844 1571.445312 676.972656 1571.445312 660.085938 C 1571.445312 644.339844 1562.238281 635.898438 1549.527344 635.898438 C 1536.511719 635.898438 1527.683594 644.339844 1527.683594 657.425781 Z M 817.75 708.085938 C 804.660156 711.128906 792.328125 712.648438 781.21875 712.648438 C 710.132812 712.648438 679.003906 649.742188 679.003906 559.449219 C 679.003906 512.667969 687.070312 478.054688 704.425781 478.054688 C 724.746094 478.054688 729.769531 524.914062 724.363281 593.679688 L 743.542969 494.5625 C 732.8125 479.578125 717.820312 471.96875 700.542969 471.96875 C 662.867188 471.96875 639.125 509.167969 638.667969 577.171875 C 638.667969 577.554688 638.667969 577.933594 638.667969 578.3125 C 639.125 689.601562 693.234375 730.371094 747.804688 730.371094 C 772.769531 730.371094 797.734375 722.308594 817.75 708.085938 Z M 817.75 708.085938 " fill-opacity="1" fill-rule="evenodd"/><g clip-path="url(#e27addda3b)"><path fill="#ffffff" d="M 111.238281 848.507812 C 91.679688 848.507812 80.945312 821.65625 80.945312 781.339844 C 80.945312 741.78125 90.917969 715.691406 108.574219 715.691406 C 128.589844 715.691406 141.605469 749.464844 141.605469 788.261719 C 141.605469 826.980469 128.589844 848.507812 111.238281 848.507812 Z M 140.464844 832.378906 C 133.539062 938.722656 89.394531 978.660156 70.140625 993.644531 C 116.261719 975.234375 181.941406 916.054688 181.941406 817.394531 C 181.941406 753.648438 154.695312 709.148438 108.195312 709.148438 C 67.855469 709.148438 42.511719 742.164062 42.511719 786.28125 C 42.511719 826.980469 64.050781 858.089844 99.367188 858.089844 C 119.6875 858.089844 133.15625 848.125 140.464844 832.378906 Z M 261.09375 848.507812 C 241.457031 848.507812 230.726562 821.65625 230.726562 781.339844 C 230.726562 741.78125 240.699219 715.691406 258.429688 715.691406 C 278.371094 715.691406 291.460938 749.464844 291.460938 788.261719 C 291.460938 826.980469 278.371094 848.507812 261.09375 848.507812 Z M 290.320312 832.378906 C 283.394531 938.722656 239.175781 978.660156 219.996094 993.644531 C 266.117188 975.234375 331.800781 916.054688 331.800781 817.394531 C 331.800781 753.648438 304.476562 709.148438 258.050781 709.148438 C 217.714844 709.148438 192.292969 742.164062 192.292969 786.28125 C 192.292969 826.980469 213.832031 858.089844 249.144531 858.089844 C 269.542969 858.089844 283.015625 848.125 290.320312 832.378906 Z M 364.828125 990.601562 L 378.226562 990.601562 L 471.230469 712.191406 L 457.757812 712.191406 Z M 455.855469 993.644531 C 475.414062 993.644531 487.746094 964.890625 487.746094 919.171875 C 487.746094 875.738281 476.632812 847.367188 456.234375 847.367188 C 435.078125 847.367188 424.347656 878.097656 424.347656 920.695312 C 424.347656 965.652344 436.296875 993.644531 455.855469 993.644531 Z M 455.476562 990.601562 C 448.167969 990.601562 445.125 962.152344 445.125 916.890625 C 445.125 878.855469 447.40625 850.789062 455.476562 850.789062 C 463.542969 850.789062 466.96875 876.195312 466.96875 918.414062 C 466.96875 963.671875 463.160156 990.601562 455.476562 990.601562 Z M 379.824219 855.429688 C 399.382812 855.429688 411.710938 826.597656 411.710938 780.957031 C 411.710938 737.523438 400.523438 709.148438 380.203125 709.148438 C 359.046875 709.148438 348.316406 739.882812 348.316406 782.480469 C 348.316406 827.433594 360.1875 855.429688 379.824219 855.429688 Z M 379.441406 852.386719 C 372.136719 852.386719 369.015625 823.9375 369.015625 779.054688 C 369.015625 741.023438 371.375 712.574219 379.441406 712.574219 C 387.511719 712.574219 390.933594 737.902344 390.933594 780.199219 C 390.933594 825.457031 387.128906 852.386719 379.441406 852.386719 Z M 629.839844 712.191406 L 561.875 712.191406 C 572.222656 716.832031 577.246094 727.9375 577.246094 738.285156 L 577.246094 964.433594 C 577.246094 979.417969 570.703125 986.722656 561.875 990.601562 L 685.550781 990.601562 L 691.714844 829.71875 C 678.242188 895.363281 674.4375 984.441406 629.839844 984.441406 L 614.464844 984.441406 L 614.464844 738.285156 C 614.464844 727.9375 619.867188 716.832031 629.839844 712.191406 Z M 812.726562 967.550781 C 823.457031 982.917969 838.449219 990.601562 858.847656 990.601562 C 891.117188 990.601562 912.578125 970.976562 912.578125 939.101562 C 912.578125 884.636719 849.636719 855.046875 849.636719 815.875 C 849.636719 802.789062 856.867188 792.824219 867.296875 792.824219 C 887.617188 792.824219 894.542969 828.957031 894.542969 871.933594 L 906.492188 809.332031 C 895.683594 794.347656 880.691406 786.664062 861.511719 786.664062 C 832.667969 786.664062 812.726562 804.007812 812.726562 828.957031 C 812.726562 874.21875 875.742188 897.265625 875.742188 951.046875 C 875.742188 970.214844 867.675781 984.441406 854.585938 984.441406 C 831.523438 984.441406 823.457031 937.582031 819.652344 868.890625 Z M 924.148438 967.550781 C 934.878906 982.917969 949.871094 990.601562 970.269531 990.601562 C 1002.539062 990.601562 1024 970.976562 1024 939.101562 C 1024 884.636719 960.984375 855.046875 960.984375 815.875 C 960.984375 802.789062 968.289062 792.824219 978.71875 792.824219 C 999.039062 792.824219 1005.964844 828.957031 1005.964844 871.933594 L 1017.835938 809.332031 C 1007.105469 794.347656 992.113281 786.664062 972.933594 786.664062 C 944.089844 786.664062 924.148438 804.007812 924.148438 828.957031 C 924.148438 874.21875 987.164062 897.265625 987.164062 951.046875 C 987.164062 970.214844 979.097656 984.441406 966.007812 984.441406 C 942.945312 984.441406 934.878906 937.582031 931.074219 868.890625 Z M 1221.046875 820.511719 C 1214.195312 929.519531 1199.582031 959.488281 1176.902344 959.488281 C 1151.179688 959.488281 1138.085938 920.695312 1138.085938 832.378906 C 1138.085938 770.535156 1144.632812 715.691406 1166.171875 715.691406 C 1182.6875 715.691406 1200.34375 747.945312 1196.082031 858.089844 L 1218 745.585938 C 1206.507812 722.15625 1189.15625 709.148438 1167.695312 709.148438 C 1121.191406 709.148438 1097.75 768.253906 1097.75 854.289062 C 1097.75 939.863281 1120.8125 993.644531 1163.429688 993.644531 C 1209.554688 993.644531 1222.644531 928.378906 1221.046875 820.511719 Z M 1295.25 993.644531 C 1332.085938 993.644531 1357.050781 952.949219 1357.050781 888.0625 C 1357.050781 821.65625 1331.324219 786.664062 1294.414062 786.664062 C 1256.4375 786.664062 1232.613281 824.316406 1232.613281 887.300781 C 1232.613281 951.046875 1257.195312 993.644531 1295.25 993.644531 Z M 1272.949219 887.300781 C 1272.949219 830.097656 1280.257812 792.824219 1295.25 792.824219 C 1309.40625 792.824219 1317.09375 828.578125 1317.09375 888.441406 C 1317.09375 945.265625 1310.167969 987.480469 1295.25 987.480469 C 1280.636719 987.480469 1272.949219 945.644531 1272.949219 887.300781 Z M 1523.042969 734.101562 C 1523.042969 769.777344 1509.953125 789.78125 1492.292969 789.78125 L 1464.667969 789.78125 L 1464.667969 795.945312 L 1492.292969 795.945312 L 1492.292969 908.828125 C 1492.292969 960.628906 1498.839844 993.644531 1533.011719 993.644531 C 1549.527344 993.644531 1564.519531 985.960938 1575.253906 970.59375 L 1556.074219 871.933594 C 1561.476562 940.699219 1556.453125 987.480469 1541.078125 987.480469 C 1527.226562 987.480469 1529.207031 950.285156 1529.207031 901.144531 L 1529.207031 795.945312 L 1532.632812 795.945312 C 1553.410156 795.945312 1558.355469 815.113281 1557.59375 857.710938 L 1569.925781 758.671875 C 1560.257812 780.957031 1559.117188 789.78125 1531.871094 789.78125 L 1529.207031 789.78125 L 1529.207031 734.101562 Z M 1611.402344 993.644531 C 1624.039062 993.644531 1632.867188 985.199219 1632.867188 972.117188 C 1632.867188 959.109375 1624.039062 950.285156 1611.402344 950.285156 C 1598.3125 950.285156 1589.484375 959.109375 1589.484375 972.117188 C 1589.484375 985.199219 1598.3125 993.644531 1611.402344 993.644531 Z M 1645.195312 712.191406 L 1577.15625 712.191406 C 1586.058594 716.074219 1591.007812 725.65625 1592.148438 734.859375 C 1596.410156 763.691406 1597.171875 807.429688 1600.597656 836.257812 L 1611.785156 928.757812 L 1622.515625 836.257812 C 1625.558594 807.429688 1625.941406 763.691406 1630.203125 734.859375 C 1631.34375 725.65625 1636.367188 716.074219 1645.195312 712.191406 Z M 741.261719 866.535156 C 742.402344 823.9375 749.707031 792.824219 763.941406 792.824219 C 772.769531 792.824219 778.554688 804.386719 778.554688 820.132812 C 778.554688 832.761719 775.050781 863.113281 741.261719 866.535156 Z M 879.929688 1022.855469 C 866.914062 1025.894531 854.585938 1027.796875 843.472656 1027.796875 C 772.769531 1027.796875 741.640625 965.269531 741.261719 875.738281 C 741.261719 874.21875 741.261719 871.933594 741.261719 870.035156 L 805.417969 870.035156 C 805.417969 804.765625 780.074219 786.664062 757.394531 786.664062 C 724.746094 786.664062 700.921875 825.078125 700.921875 893.082031 C 700.921875 1004.371094 755.113281 1045.066406 810.0625 1045.066406 C 835.027344 1045.066406 859.988281 1037.003906 879.929688 1022.855469 Z M 1455.761719 809.332031 C 1445.03125 794.347656 1430.417969 786.664062 1411.238281 786.664062 C 1382.015625 786.664062 1362.074219 804.007812 1362.074219 828.957031 C 1362.074219 874.21875 1425.472656 897.265625 1425.472656 955.230469 C 1425.472656 1000.183594 1387.417969 1027.796875 1335.96875 1027.796875 C 1323.257812 1027.796875 1310.167969 1026.277344 1296.390625 1022.855469 C 1313.667969 1035.101562 1335.589844 1040.882812 1357.429688 1040.882812 C 1408.957031 1040.882812 1461.925781 1008.25 1461.925781 949.144531 C 1461.925781 884.636719 1398.910156 855.046875 1398.910156 815.875 C 1398.910156 802.789062 1406.597656 792.824219 1417.023438 792.824219 C 1436.964844 792.824219 1444.269531 828.957031 1443.890625 871.933594 Z M 1455.761719 809.332031 " fill-opacity="1" fill-rule="evenodd"/></g></svg>