<?xml version="1.0" encoding="utf-8"?>
<!-- Generator: Adobe Illustrator 25.4.1, SVG Export Plug-In . SVG Version: 6.00 Build 0)  -->
<svg version="1.0" id="Layer_1" xmlns="http://www.w3.org/2000/svg" xmlns:xlink="http://www.w3.org/1999/xlink" x="0px" y="0px"
	 viewBox="0 0 2250 1500" style="enable-background:new 0 0 2250 1500;" xml:space="preserve">
<style type="text/css">
	.st0{fill:#FFFFFF;}
	.st1{fill:#F47253;}
</style>
<g>
	<path class="st0" d="M1149.8,654.1c-8.7-12.3-24.6-24.5-43-24.5c-22,0-36.3,16.8-44.6,46.6v-42.5H992c11.9,4.6,20.5,14.8,20.5,34.3
		v198.7c0,14.3-6.6,29.1-20.5,34.8h90.7c-13.3-5.7-20.5-20.5-20.5-34.8V752.8c0-68.1,8.7-98.8,30.2-98.8c26.6,0,29.2,46,22,137.7
		L1149.8,654.1z"/>
	<path class="st0" d="M483.9,866.5v-233h-70.1c13.8,5.6,20.5,20.5,20.5,34.3v148.5c0,37.8-14.4,65-27.7,65
		c-9.7,0-17.3-13.3-17.3-33.3V633.6H319c13.8,5.6,20.5,20.5,20.5,34.3V845c0,38.3,14.8,60.3,42.5,60.3c23,0,42-15.8,52.3-41.5v37.4
		h69.6c0.1,0,0.2-0.1,0.3-0.1C493,896,483.9,886.3,483.9,866.5z"/>
	<path class="st0" d="M1358.9,629.5c-18,0-33.4,9.1-45.2,24.5v-20.5h-70.1c11.8,4.6,20.5,14.8,20.5,34.3v302
		c0,13.8-6.7,28.7-20.5,34.3h90.6c-13.3-5.6-20.5-20.5-20.5-34.3v-68.6c9.2,2.5,19,4.1,28.7,4.1c57.3,0,85.5-50.7,85.5-138.8
		C1428,681.6,1401.9,629.5,1358.9,629.5z M1340.4,897.2c-27.2,0-26.7-64.5-26.7-154.1v-77.3c6.7-10.2,14.9-15.9,24.2-15.9
		c26.6,0,36.3,49.7,36.3,123.4C1374.2,847.6,1364.4,897.2,1340.4,897.2z"/>
	<path class="st0" d="M1935,901.3h90.6c-13.3-5.7-20.4-20.5-20.4-34.8V689.9c0-38.3-14.9-60.3-45.7-60.3
		c-26.6,0-46.6,15.8-57.3,41.9v-37.8H1832c11.9,4.6,20.5,14.8,20.5,34.3v198.7c0,14.3-6.6,29.1-20.5,34.8h90.7
		c-13.3-5.7-20.5-20.5-20.5-34.8v-148c0-37.9,14.3-65,32.8-65c12.8,0,21,13.3,21,33.3v179.7C1956,880.8,1948.8,895.6,1935,901.3z"/>
	<path class="st0" d="M2095.4,880.3c0-21-12.3-32.2-29.2-32.2c-17.4,0-29.1,11.3-29.1,28.7c0,17.3,11.8,28.6,29.1,28.6
		c4.7,0,8.7-1,12.3-2.5c-4.6,11.8-9.7,20.5-19.9,33.3C2081.6,923.3,2095.4,902.8,2095.4,880.3z"/>
	<path class="st0" d="M991.5,659.6c-14.3-20-34.3-30.1-57.3-30.1c-50.2,0-81.9,49.6-82.5,140.3c0,0.5,0,1,0,1.5
		C852.3,919.7,924.4,974,997.2,974c33.3,0,66.6-10.8,93.3-29.7c-17.5,4.1-33.9,6.1-48.7,6.1c-94.8,0-136.3-83.9-136.3-204.3
		c0-62.4,10.8-108.5,33.9-108.5c27.1,0,33.8,62.5,26.6,154.2L991.5,659.6z"/>
	<path class="st0" d="M315,574.6c-14.9-28.6-43-48.6-78.4-48.6c-46.6,0-79.4,33.8-79.4,78.3c0,79.9,106.5,135.2,106.5,236
		c0,33.8-12.3,56.8-29.2,56.8c-29.7,0-62-71.6-57.8-220.6l-19.5,180.7c15.8,30.7,38.5,48.1,75.3,48.1c50.7,0,82.5-31.7,82.5-81.8
		c0-92.2-106.6-147.5-106.6-238.7c0-30.1,11.3-50.1,30.7-50.1c28.1,0,52.2,43,46.1,189.9L315,574.6z"/>
	<path class="st0" d="M1568.3,901.3h90.6c-13.3-5.7-20.4-20.5-20.4-34.8v-233h-70.2c11.8,4.6,20.5,14.8,20.5,34.3v198.7
		C1588.8,880.8,1582.1,895.6,1568.3,901.3z"/>
	<path class="st1" d="M1645.6,557.8c0-19-12.8-31.7-31.8-31.7c-19,0-31.8,12.8-31.8,31.7c0,19,12.8,32.2,31.8,32.2
		C1632.8,590.1,1645.6,576.8,1645.6,557.8z"/>
	<path class="st0" d="M1151.3,901.3h90.7c-13.4-5.7-20.5-20.5-20.5-34.8v-233h-70.2c11.8,4.6,20.5,14.8,20.5,34.3v198.7
		C1171.8,880.8,1165.2,895.6,1151.3,901.3z"/>
	<path class="st0" d="M1508.3,905.4c22,0,42-10.2,56.4-30.7l-25.7-131.5c7.2,91.7,0.5,154.1-20,154.1c-18.4,0-15.8-49.6-15.8-115.1
		V641.8h4.6c27.7,0,34.4,25.6,33.3,82.4l16.4-132.1c-12.8,29.7-14.3,41.5-50.7,41.5h-3.6v-74.2h-8.2c0,47.6-17.4,74.2-41,74.2h-36.8
		v8.2h36.8v150.5C1454,861.4,1462.8,905.4,1508.3,905.4z"/>
	<path class="st0" d="M619.2,629.5c-18,0-33.3,9.1-45.1,24.5V530.1h-70.2c11.8,5.2,20.5,14.9,20.5,34.9v301.5
		c0,14.2-6.6,28.9-20.2,34.7c0.1,0,0.2,0.1,0.3,0.1h69.2c9.7,2.5,19.4,4.1,29.1,4.1c57.4,0,85.5-50.7,85.5-138.8
		C688.3,681.6,662.2,629.5,619.2,629.5z M600.7,897.2c-25.6,0-26.6-57.8-26.6-140.8v-90.6c6.6-10.2,14.8-15.9,24.1-15.9
		c26.6,0,36.3,49.7,36.3,123.4C634.5,847.6,624.8,897.2,600.7,897.2z"/>
	<path class="st0" d="M1745,629.5c-50.6,0-82.4,50.1-82.4,134.1c0,85,32.8,141.8,83.5,141.8c49.1,0,82.4-54.3,82.4-140.8
		C1828.5,676.1,1794.2,629.5,1745,629.5z M1746.1,897.2c-19.5,0-29.7-55.8-29.7-133.6c0-76.3,9.7-126,29.7-126
		c18.9,0,29.1,47.7,29.1,127.5C1775.2,840.9,1766,897.2,1746.1,897.2z"/>
	<path class="st0" d="M837.9,832.7c0-72.6-84-112.1-84-164.3c0-17.3,9.7-30.7,23.6-30.7c27.1,0,36.3,48.2,36.3,105.5l15.8-83.5
		c-14.3-20-34.3-30.1-59.9-30.1c-38.5,0-65,23-65,56.3c0,60.3,84,91.1,84,162.8c0,25.6-10.8,44.5-28.2,44.5
		c-30.7,0-41.5-62.5-46.6-154.1l-9.2,131.5c14.3,20.5,34.3,30.7,61.5,30.7C809.3,901.3,837.9,875.2,837.9,832.7z"/>
	<path class="st1" d="M1228.7,557.8c0-19-12.8-31.7-31.7-31.7c-19,0-31.8,12.8-31.8,31.7c0,19,12.8,32.2,31.8,32.2
		C1215.9,590.1,1228.7,576.8,1228.7,557.8z"/>
	<path class="st0" d="M144.4,945.7c-53.8,0-87.6,44-87.6,102.8c0,54.3,28.7,95.7,75.8,95.7c27.1,0,45.1-13.3,54.8-34.3
		c-9.2,141.8-68.1,195-93.8,215c61.5-24.5,149.1-103.5,149.1-235C242.7,1005.1,206.4,945.7,144.4,945.7z M148.4,1131.6
		c-26.1,0-40.4-35.8-40.4-89.6c0-52.7,13.3-87.5,36.8-87.5c26.7,0,44,45,44,96.8C188.9,1102.9,171.6,1131.6,148.4,1131.6z"/>
	<path class="st0" d="M839.9,1312.8h-20.5V984.6c0-13.8,7.2-28.6,20.5-34.8h-90.6c13.8,6.2,20.5,21,20.5,34.8v301.5
		c0,20-8.7,29.7-20.5,34.9h164.9l8.2-214.5C904.4,1194,899.4,1312.8,839.9,1312.8z"/>
	<path class="st0" d="M1305.1,1057.3c27.1,0,36.3,48.2,36.3,105.5l15.8-83.5c-14.3-20-34.3-30.2-59.9-30.2c-38.5,0-65,23.1-65,56.4
		c0,60.3,84,91.1,84,162.8c0,25.6-10.8,44.5-28.2,44.5c-30.7,0-41.5-62.5-46.6-154.1l-9.2,131.5c14.3,20.5,34.3,30.7,61.5,30.7
		c43,0,71.6-26.2,71.6-68.7c0-72.6-84-112.1-84-164.3C1281.4,1070.6,1291.2,1057.3,1305.1,1057.3z"/>
	<path class="st0" d="M1569.3,1279.5c-34.3,0-51.8-51.7-51.8-169.5c0-82.5,8.7-155.6,37.4-155.6c22,0,45.6,43,39.9,189.9l29.2-150
		c-15.3-31.2-38.5-48.6-67.1-48.6c-62,0-93.3,78.8-93.3,193.5c0,114.1,30.8,185.8,87.6,185.8c61.5,0,79-87,76.8-230.8
		C1619,1239.6,1599.6,1279.5,1569.3,1279.5z"/>
	<path class="st0" d="M1809.5,1184.3c0-88.5-34.3-135.2-83.5-135.2c-50.6,0-82.4,50.2-82.4,134.2c0,85,32.8,141.8,83.5,141.8
		C1776.2,1325.1,1809.5,1270.8,1809.5,1184.3z M1727.1,1316.9c-19.5,0-29.7-55.8-29.7-133.6c0-76.3,9.7-126,29.7-126
		c18.9,0,29.1,47.7,29.1,127.5C1756.2,1260.6,1747,1316.9,1727.1,1316.9z"/>
	<path class="st0" d="M988.5,1167.9c0-2,0-5.1,0-7.6h85.5c0-87-33.8-111.2-64-111.2c-43.5,0-75.3,51.2-75.3,141.9
		c0,148.4,72.3,202.6,145.5,202.6c33.3,0,66.6-10.8,93.2-29.6c-17.4,4.1-33.8,6.6-48.6,6.6C1030.5,1370.6,989,1287.2,988.5,1167.9z
		 M1018.7,1057.3c11.8,0,19.5,15.4,19.5,36.4c0,16.8-4.7,57.3-49.7,61.9C990,1098.8,999.7,1057.3,1018.7,1057.3z"/>
	<path class="st0" d="M1156.5,1057.3c27.1,0,36.3,48.2,36.3,105.5l15.9-83.5c-14.4-20-34.4-30.2-60-30.2c-38.5,0-65,23.1-65,56.4
		c0,60.3,84,91.1,84,162.8c0,25.6-10.8,44.5-28.2,44.5c-30.8,0-41.5-62.5-46.6-154.1l-9.2,131.5c14.3,20.5,34.3,30.7,61.5,30.7
		c43,0,71.6-26.2,71.6-68.7c0-72.6-83.9-112.1-83.9-164.3C1133,1070.6,1142.6,1057.3,1156.5,1057.3z"/>
	<path class="st0" d="M2148.7,1267.3c-17.5,0-29.2,11.8-29.2,29.1c0,17.4,11.8,28.7,29.2,28.7c16.8,0,28.6-11.3,28.6-28.7
		C2177.3,1279,2165.5,1267.3,2148.7,1267.3z"/>
	<path class="st0" d="M608.4,1130c-28.2,0-42.5,41-42.5,97.8c0,59.9,15.9,97.3,42,97.3s42.5-38.3,42.5-99.3
		C650.4,1167.9,635.6,1130,608.4,1130z M607.4,1321c-9.7,0-13.8-37.9-13.8-98.3c0-50.7,3-88.1,13.8-88.1c10.8,0,15.3,33.9,15.3,90.2
		C622.7,1285.1,617.7,1321,607.4,1321z"/>
	<path class="st0" d="M2123,980c5.7,38.4,6.7,96.8,11.3,135.2l14.9,123.3l14.3-123.3c4.1-38.4,4.6-96.8,10.2-135.2
		c1.5-12.3,8.2-25,20-30.2H2103C2114.9,955,2121.5,967.8,2123,980z"/>
	<path class="st0" d="M1889.5,1057.3c26.6,0,36.3,48.2,35.8,105.5l15.8-83.5c-14.3-20-33.8-30.2-59.4-30.2
		c-39,0-65.6,23.1-65.6,56.4c0,60.3,84.5,91.1,84.5,168.4c0,59.9-50.7,96.8-119.3,96.8c-16.9,0-34.4-2-52.8-6.6
		c23,16.3,52.3,24,81.4,24c68.7,0,139.3-43.5,139.3-122.3c0-86-84-125.5-84-177.7C1865.3,1070.6,1875.6,1057.3,1889.5,1057.3z"/>
	<path class="st0" d="M2054.9,1316.9c-18.5,0-15.8-49.6-15.8-115.1v-140.3h4.6c27.7,0,34.3,25.6,33.3,82.4l16.4-132.1
		c-12.9,29.7-14.4,41.5-50.7,41.5h-3.6V979h-8.2c0,47.6-17.5,74.2-41,74.2H1953v8.2h36.8V1212c0,69.1,8.7,113.1,54.3,113.1
		c22,0,42-10.2,56.3-30.7l-25.6-131.5C2082.1,1254.5,2075.4,1316.9,2054.9,1316.9z"/>
	<path class="st0" d="M506.5,1140.8c26.1,0,42.5-38.4,42.5-99.3c0-57.9-14.9-95.7-42-95.7c-28.2,0-42.5,41-42.5,97.8
		C464.5,1103.5,480.4,1140.8,506.5,1140.8z M506,950.3c10.8,0,15.3,33.8,15.3,90.2c0,60.3-5.1,96.2-15.3,96.2
		c-9.7,0-13.9-37.9-13.9-97.8C492.1,988.2,495.3,950.3,506,950.3z"/>
	<polygon class="st0" points="610.5,949.8 486.6,1321 504.4,1321 628.4,949.8 	"/>
	<path class="st0" d="M344.2,945.7c-53.8,0-87.7,44-87.7,102.8c0,54.3,28.7,95.7,75.8,95.7c27.2,0,45.2-13.3,54.9-34.3
		c-9.2,141.8-68.2,195-93.8,215c61.5-24.5,149.1-103.5,149.1-235C442.5,1005.1,406.1,945.7,344.2,945.7z M348.2,1131.6
		c-26.2,0-40.5-35.8-40.5-89.6c0-52.7,13.3-87.5,36.9-87.5c26.6,0,44,45,44,96.8C388.7,1102.9,371.3,1131.6,348.2,1131.6z"/>
	<path class="st1" d="M2186.5,323.4c7.2,91.7,0.5,154.1-20,154.1c-18.4,0-15.8-49.6-15.8-115.1V222.1h4.6
		c27.7,0,34.4,25.6,33.3,82.4l16.4-132.1c-12.8,29.7-14.3,41.5-50.7,41.5h-3.6v-74.2h-8.2c0,47.7-17.4,74.2-41,74.2h-36.8v8.2h36.8
		v150.5c0,69.1,8.7,113.1,54.3,113.1c22,0,42-10.2,56.4-30.7L2186.5,323.4z"/>
	<path class="st1" d="M228.9,213.9c11.8,4.6,20.5,14.8,20.5,34.3v198.7c0,14.3-6.7,29.1-20.5,34.8h90.6
		c-13.3-5.7-20.5-20.5-20.5-34.8v-148c0-37.9,14.4-65,32.8-65c12.8,0,21,13.3,21,33.3v208.3c0,73.7,33.3,113.2,77.8,113.2
		c23.6,0,43-10.8,57.4-30.7l-23-66c-0.5,54.3-9.2,88-29.2,88c-24.1,0-33.8-49.2-33.8-114.7v-195c0-38.3-14.9-60.3-45.6-60.3
		c-26.7,0-46.7,15.8-57.4,42v-37.9H228.9z"/>
	<path class="st1" d="M416.8,481.6h90.7c-13.4-5.7-20.5-20.5-20.5-34.8V110.4h-70.2c11.8,5.2,20.5,14.9,20.5,34.9v301.5
		C437.3,461.1,430.6,476,416.8,481.6z"/>
	<path class="st1" d="M1800.3,485.7c49.2,0,82.5-54.3,82.5-140.8c0-88.5-34.3-135.1-83.5-135.1c-50.6,0-82.4,50.1-82.4,134.1
		C1716.9,428.9,1749.6,485.7,1800.3,485.7z M1800.3,217.9c19,0,29.2,47.7,29.2,127.5c0,75.8-9.2,132.1-29.2,132.1
		c-19.4,0-29.6-55.8-29.6-133.6C1770.7,267.6,1780.4,217.9,1800.3,217.9z"/>
	<path class="st1" d="M1884.3,481.6h90.7c-13.4-5.7-20.5-20.5-20.5-34.8v-148c0-37.9,14.3-65,32.8-65c12.8,0,21,13.3,21,33.3v208.3
		c0,73.7,33.3,113.2,77.8,113.2c23.5,0,43-10.8,57.3-30.7l-23-66c-0.5,54.3-9.2,88-29.2,88c-24.1,0-33.8-49.2-33.8-114.7v-195
		c0-38.3-14.8-60.3-45.6-60.3c-26.6,0-46.6,15.8-57.3,42v-37.9h-70.2c11.8,4.6,20.5,14.8,20.5,34.3v198.7
		C1904.8,461.1,1898.2,476,1884.3,481.6z"/>
	<path class="st1" d="M1552.9,481.6h90.7c-13.3-5.7-20.5-20.5-20.5-34.8V263.1h8.2c27.6,0,26.1,25.1,24.6,82.4l29.2-132.1
		c-10.8,25.1-20.5,41-50.7,41h-11.3V119.1h12.3c59.5,0,68.7,66,82.5,123.4l-8.2-132.2h-156.8c11.9,5.2,20.5,14.9,20.5,34.9v301.5
		C1573.4,461.1,1566.8,476,1552.9,481.6z"/>
	<path class="st1" d="M58.3,407.9c0,52.2,26.1,78.3,78.3,78.3c52.3,0,78.3-26.1,78.3-78.3V145.3c0-15.9,5.7-28.2,20.5-34.9h-90.6
		c14.8,6.7,21,19.5,21,34.9v303.6c0,19.5-9.7,29.2-29.2,29.2s-28.6-9.7-28.6-29.2V145.3c0-15.9,5.1-28.2,20.4-34.9H37.8
		c14.8,6.7,20.5,19.5,20.5,34.9V407.9z"/>
	<path class="st1" d="M1198,485.7c34.8,0,72.2-22.5,65.6-153c-6.2,76.3-24.1,120.3-50.2,120.3c-28.1,0-38.9-51.2-38.9-119.8
		c0-4.1,0-8.2,0-12.3h85.4c0-87-33.8-111.1-63.9-111.1c-43.6,0-75.3,50.1-75.3,141.8C1120.7,431.9,1144.7,485.7,1198,485.7z
		 M1204.6,217.9c11.8,0,19.5,15.4,19.5,36.4c0,16.3-4.6,57.8-49.6,61.9C1176,259.4,1185.7,217.9,1204.6,217.9z"/>
	<path class="st1" d="M998.2,372.6c0,69.1,8.7,113.1,54.3,113.1c22,0,42-10.2,56.3-30.7l-25.6-131.5c7.2,91.7,0.5,154.1-20,154.1
		c-18.5,0-15.8-49.6-15.8-115.1V222.1h4.6c27.7,0,34.3,25.6,33.3,82.4l16.4-132.1c-12.8,29.7-14.4,41.5-50.7,41.5h-3.6v-74.2h-8.2
		c0,47.7-17.5,74.2-41,74.2h-36.8v8.2h36.8V372.6z"/>
	<path class="st1" d="M765.2,446.8v-148c0-35.8,11.8-65,26.1-65c10.8,0,14.8,14.3,14.8,33.3v208.3c0,73.7,33.8,113.2,78.4,113.2
		c23.5,0,43-10.8,57.3-30.7l-23-66c-0.5,54.3-9.2,88-29.2,88c-24.1,0-33.8-49.2-33.8-114.7V261.9c0-38.3-14.8-52.1-39-52.1
		c-24.6,0-42.5,14.8-52.3,40.9c-2.5-29.6-16.8-40.9-38.4-40.9c-24.1,0-42,14.3-51.8,39.3v-35.3h-70.1c11.8,4.6,20.5,14.8,20.5,34.3
		v198.7c0,14.3-6.7,29.1-20.5,34.8H695c-13.3-5.7-20.5-20.5-20.5-34.8v-148c0-35.8,11.8-65,26.2-65c10.8,0,14.8,14.3,14.8,33.3
		v179.7c0,14.3-6.7,29.1-20.5,34.8h90.6C772.3,476,765.2,461.1,765.2,446.8z"/>
	<path class="st1" d="M511.6,481.6h90.6c-13.3-5.7-20.4-20.5-20.4-34.8v-233h-70.2c11.8,4.6,20.5,14.8,20.5,34.3v198.7
		C532.1,461.1,525.4,476,511.6,481.6z"/>
	<path class="st1" d="M917.3,170.4c18.9,0,31.8-13.3,31.8-32.3c0-19-12.9-31.7-31.8-31.7c-19,0-31.8,12.8-31.8,31.7
		C885.6,157.1,898.3,170.4,917.3,170.4z"/>
	<path class="st1" d="M557.2,170.4c19,0,31.8-13.3,31.8-32.3c0-19-12.8-31.7-31.8-31.7c-19,0-31.8,12.8-31.8,31.7
		C525.4,157.1,538.2,170.4,557.2,170.4z"/>
	<path class="st1" d="M871.7,481.6h90.7c-13.3-5.7-20.5-20.5-20.5-34.8v-233h-70.2c11.9,4.6,20.5,14.8,20.5,34.3v198.7
		C892.2,461.1,885.6,476,871.7,481.6z"/>
	<path class="st1" d="M1348.1,485.7c18.4,0,33.8-9.2,45.6-24.5v20.5h70.1c-13.8-5.7-20.5-20.5-20.5-34.8V110.4h-70.1
		c11.3,5.2,20.5,14.9,20.5,34.9v68.6c-9.2-3-19-4.1-28.7-4.1c-57.3,0-85.5,50.6-85.5,138.6C1279.4,433.5,1305.6,485.7,1348.1,485.7z
		 M1367,217.9c27.2,0,26.7,64,26.7,154.2v77.3c-6.7,10.2-14.8,15.8-24.1,15.8c-26.7,0-36.4-50.1-36.4-123.8S1342.9,217.9,1367,217.9
		z"/>
</g>
</svg>
