<svg width="29" height="17" viewBox="0 0 29 17" fill="none" xmlns="http://www.w3.org/2000/svg">
<path d="M11.7038 7.60017C11.7038 7.60017 14.4482 7.41159 14.4482 4.4328C14.4482 1.45381 12.2029 0 9.35882 0H0V16.6471H9.35882C9.35882 16.6471 15.072 16.8141 15.072 11.7336C15.072 11.7337 15.3211 7.60017 11.7038 7.60017ZM8.68518 2.95883H9.35882C9.35882 2.95883 10.631 2.95883 10.631 4.69088C10.631 6.42273 9.8828 6.67382 9.0342 6.67382H4.12361V2.95883H8.68518ZM9.09435 13.6883H4.12361V9.23962H9.35882C9.35882 9.23962 11.2549 9.21661 11.2549 11.5258C11.2549 13.473 9.83871 13.6736 9.09435 13.6883ZM22.6916 4.2355C15.7751 4.2355 15.7813 10.6318 15.7813 10.6318C15.7813 10.6318 15.3067 16.9953 22.6916 16.9953C22.6916 16.9953 28.8456 17.3207 28.8456 12.5686H25.6807C25.6807 12.5686 25.7862 14.3581 22.7972 14.3581C22.7972 14.3581 19.6317 14.5545 19.6317 11.4619H28.9512C28.9512 11.4619 29.9709 4.2355 22.6916 4.2355ZM19.5969 9.23962C19.5969 9.23962 19.9834 6.67376 22.7619 6.67376C25.5398 6.67376 25.505 9.23962 25.505 9.23962H19.5969ZM26.2423 3.03069H18.8221V0.980725H26.2423V3.03069Z" fill="#A8A8A8"/>
</svg>
