<svg width="24" height="23" viewBox="0 0 24 23" fill="none" xmlns="http://www.w3.org/2000/svg">
<path d="M11.4319 8.27625C9.66052 5.25875 7.7652 2.7975 7.62694 2.61625C6.19641 3.26473 4.94156 4.22113 3.96025 5.41085C2.97894 6.60057 2.2977 7.99145 1.96967 9.475C2.23838 9.48 6.51166 9.52875 11.4319 8.27625ZM12.7076 11.5762C12.8414 11.5352 12.9758 11.496 13.1107 11.4587C12.8502 10.8947 12.5731 10.3378 12.2798 9.78875C7.00212 11.3037 1.93837 11.1937 1.75966 11.1887C1.75575 11.2937 1.75053 11.3962 1.75053 11.5012C1.75053 14.025 2.7458 16.3275 4.38024 18.0662L4.37372 18.0587C4.37372 18.0587 7.17822 13.2912 12.7076 11.5762ZM5.70031 19.2425V19.2375C5.62465 19.1812 5.54378 19.13 5.46812 19.0687C5.60639 19.175 5.70031 19.2425 5.70031 19.2425ZM9.54443 1.965C9.53794 1.96676 9.53141 1.96842 9.52487 1.97C9.53269 1.9675 9.54313 1.9675 9.54313 1.9675L9.54443 1.965ZM18.768 4.13C16.8995 2.54877 14.4921 1.67693 11.9993 1.67875C11.1658 1.67875 10.3584 1.77625 9.58356 1.955C9.74009 2.155 11.6641 4.60375 13.4159 7.685C17.2796 6.29875 18.7393 4.17 18.768 4.13ZM11.9993 23C8.81703 22.9997 5.76515 21.7881 3.51491 19.6317C1.26467 17.4754 0.000346169 14.5508 2.83626e-07 11.5012C-0.000342362 9.991 0.309777 8.49548 0.912647 7.1001C1.51552 5.70472 2.39933 4.43681 3.51361 3.36879C4.62788 2.30077 5.9508 1.45355 7.40679 0.875529C8.86279 0.297507 10.4234 -3.56941e-08 11.9993 0C13.5754 -8.92195e-09 15.136 0.297498 16.5921 0.875505C18.0482 1.45351 19.3712 2.30071 20.4855 3.36871C21.5999 4.43672 22.4839 5.70462 23.0869 7.10001C23.6899 8.49539 24.0002 9.99094 24 11.5012C23.9997 14.551 22.7352 17.4758 20.4846 19.6322C18.2341 21.7886 15.1819 23 11.9993 23ZM13.7421 13.1075C7.72738 15.1162 5.74075 19.155 5.70031 19.2375C7.49707 20.5877 9.71471 21.321 11.998 21.32C13.3725 21.3218 14.7332 21.0578 15.9987 20.5437C15.8474 19.6825 15.2513 16.6737 13.8086 13.085C13.7865 13.0929 13.7644 13.1004 13.7421 13.1075ZM14.2038 9.15C14.4438 9.61625 14.6708 10.0925 14.886 10.5737C14.963 10.7425 15.0347 10.9137 15.1078 11.0812C18.6467 10.6537 22.1321 11.3787 22.2469 11.4012C22.2257 9.15932 21.4029 6.99214 19.9159 5.26125C19.8924 5.29 18.2475 7.565 14.2038 9.15ZM15.7313 12.6312C17.0761 16.1762 17.6214 19.0587 17.7257 19.645C18.8894 18.8935 19.8796 17.9211 20.635 16.788C21.3905 15.6548 21.8952 14.3851 22.1177 13.0575C21.9142 12.995 19.0445 12.1237 15.7313 12.6312Z" fill="#A8A8A8"/>
</svg>
