<svg width="24" height="23" viewBox="0 0 24 23" fill="none" xmlns="http://www.w3.org/2000/svg">
<path d="M18.408 3.979C18.1232 3.979 17.8448 4.05994 17.608 4.21157C17.3712 4.36321 17.1866 4.57873 17.0776 4.8309C16.9686 5.08306 16.9401 5.36053 16.9957 5.62822C17.0512 5.89592 17.1884 6.14181 17.3898 6.33481C17.5912 6.5278 17.8477 6.65924 18.1271 6.71248C18.4064 6.76573 18.6959 6.7384 18.9591 6.63395C19.2222 6.5295 19.4471 6.35263 19.6053 6.12569C19.7635 5.89875 19.848 5.63194 19.848 5.359C19.848 4.993 19.6963 4.64199 19.4262 4.38319C19.1562 4.12439 18.7899 3.979 18.408 3.979ZM23.928 6.762C23.9047 5.80784 23.7182 4.86381 23.376 3.9675C23.0709 3.2006 22.596 2.50617 21.984 1.932C21.3898 1.34254 20.6635 0.890303 19.86 0.6095C18.9272 0.271585 17.941 0.0887915 16.944 0.0689999C15.672 -6.42613e-08 15.264 0 12 0C8.736 0 8.328 -6.42613e-08 7.056 0.0689999C6.05898 0.0887915 5.07281 0.271585 4.14 0.6095C3.33801 0.893146 2.61232 1.34499 2.016 1.932C1.40091 2.50145 0.929012 3.19751 0.636 3.9675C0.283393 4.86144 0.092652 5.80653 0.0719999 6.762C-6.70552e-08 7.981 0 8.372 0 11.5C0 14.628 -6.70552e-08 15.019 0.0719999 16.238C0.092652 17.1935 0.283393 18.1386 0.636 19.0325C0.929012 19.8025 1.40091 20.4985 2.016 21.068C2.61232 21.655 3.33801 22.1069 4.14 22.3905C5.07281 22.7284 6.05898 22.9112 7.056 22.931C8.328 23 8.736 23 12 23C15.264 23 15.672 23 16.944 22.931C17.941 22.9112 18.9272 22.7284 19.86 22.3905C20.6635 22.1097 21.3898 21.6575 21.984 21.068C22.5987 20.496 23.074 19.8009 23.376 19.0325C23.7182 18.1362 23.9047 17.1922 23.928 16.238C23.928 15.019 24 14.628 24 11.5C24 8.372 24 7.981 23.928 6.762ZM21.768 16.1C21.7593 16.83 21.6213 17.5533 21.36 18.239C21.1684 18.7395 20.8607 19.1917 20.46 19.5615C20.0708 19.9416 19.5999 20.2359 19.08 20.424C18.3644 20.6744 17.6097 20.8066 16.848 20.815C15.648 20.8725 15.204 20.884 12.048 20.884C8.892 20.884 8.448 20.884 7.248 20.815C6.45707 20.8292 5.66951 20.7125 4.92 20.47C4.42294 20.2723 3.97363 19.9787 3.6 19.6075C3.20171 19.2381 2.89781 18.7855 2.712 18.285C2.41903 17.5894 2.25653 16.8497 2.232 16.1C2.232 14.95 2.16 14.5245 2.16 11.5C2.16 8.4755 2.16 8.05 2.232 6.9C2.23738 6.15371 2.37954 5.41414 2.652 4.715C2.86326 4.2296 3.18752 3.79691 3.6 3.45C3.96458 3.05459 4.41515 2.74056 4.92 2.53C5.65146 2.27705 6.4224 2.14484 7.2 2.139C8.4 2.139 8.844 2.07 12 2.07C15.156 2.07 15.6 2.07 16.8 2.139C17.5617 2.14737 18.3164 2.27958 19.032 2.53C19.5773 2.72395 20.0668 3.03927 20.46 3.45C20.8532 3.80326 21.1605 4.23514 21.36 4.715C21.6267 5.41527 21.7647 6.15455 21.768 6.9C21.828 8.05 21.84 8.4755 21.84 11.5C21.84 14.5245 21.828 14.95 21.768 16.1ZM12 5.6005C10.783 5.60277 9.59396 5.9507 8.58319 6.60033C7.57242 7.24996 6.78525 8.17213 6.32116 9.25032C5.85707 10.3285 5.73687 11.5143 5.97575 12.658C6.21464 13.8016 6.80188 14.8517 7.66329 15.6756C8.5247 16.4995 9.62161 17.0603 10.8154 17.287C12.0092 17.5137 13.2464 17.3962 14.3706 16.9493C15.4947 16.5025 16.4555 15.7463 17.1314 14.7764C17.8073 13.8065 18.168 12.6663 18.168 11.5C18.1696 10.7239 18.011 9.9551 17.7015 9.2379C17.3919 8.5207 16.9375 7.86923 16.3642 7.32096C15.791 6.77269 15.1103 6.33843 14.3614 6.04317C13.6124 5.74791 12.8099 5.59747 12 5.6005ZM12 15.3295C11.2097 15.3295 10.4371 15.1049 9.77994 14.6841C9.1228 14.2633 8.61063 13.6652 8.30818 12.9655C8.00573 12.2657 7.9266 11.4958 8.08078 10.7529C8.23497 10.0101 8.61555 9.3277 9.1744 8.79213C9.73325 8.25657 10.4453 7.89184 11.2204 7.74408C11.9956 7.59632 12.799 7.67216 13.5292 7.962C14.2594 8.25185 14.8835 8.74269 15.3226 9.37244C15.7616 10.0022 15.996 10.7426 15.996 11.5C15.996 12.0029 15.8926 12.5009 15.6918 12.9655C15.491 13.4301 15.1967 13.8523 14.8256 14.2079C14.4545 14.5635 14.014 14.8455 13.5292 15.038C13.0444 15.2304 12.5248 15.3295 12 15.3295Z" fill="#A8A8A8"/>
</svg>
