<svg width="26" height="23" viewBox="0 0 26 23" fill="none" xmlns="http://www.w3.org/2000/svg">
<path d="M0 2.67172C0 1.89729 0.292801 1.2584 0.878378 0.755051C1.46396 0.251676 2.22523 0 3.16216 0C4.08238 0 4.82689 0.247796 5.39575 0.743434C5.98133 1.25455 6.27413 1.92052 6.27413 2.74141C6.27413 3.48485 5.98971 4.10436 5.42085 4.6C4.83527 5.11111 4.06564 5.36667 3.11197 5.36667H3.08687C2.16666 5.36667 1.42214 5.11111 0.853282 4.6C0.284419 4.08889 0 3.44612 0 2.67172ZM0.326255 23V7.48081H5.89768V23H0.326255ZM8.98456 23H14.556V14.3343C14.556 13.7922 14.6229 13.3741 14.7568 13.0798C14.991 12.5532 15.3465 12.1079 15.8234 11.7439C16.3002 11.38 16.8983 11.198 17.6178 11.198C19.4916 11.198 20.4286 12.3673 20.4286 14.7061V23H26V14.102C26 11.8098 25.4144 10.0712 24.2432 8.88636C23.0721 7.70152 21.5245 7.10909 19.6004 7.10909C17.4421 7.10909 15.7606 7.96869 14.556 9.68788V9.73434H14.5309L14.556 9.68788V7.48081H8.98456C9.01801 7.97642 9.03475 9.51749 9.03475 12.104C9.03475 14.6906 9.01801 18.3225 8.98456 23Z" fill="#A8A8A8"/>
</svg>
