<svg width="202" height="52" viewBox="0 0 202 52" fill="none" xmlns="http://www.w3.org/2000/svg">
<path d="M36.9688 3.863C34.5963 1.15889 30.3078 -0.000419683 24.8216 -0.000419683H8.89882C8.35572 -0.000708776 7.83036 0.192847 7.41726 0.54541C7.00416 0.897973 6.73045 1.38639 6.6454 1.92278L0.01835 43.9739C-0.0123786 44.169 -0.000451747 44.3684 0.0533096 44.5584C0.107071 44.7485 0.201389 44.9246 0.329764 45.0746C0.45814 45.2247 0.617521 45.3452 0.796929 45.4277C0.976336 45.5102 1.1715 45.5529 1.36899 45.5527H11.199L13.6679 29.8936L13.5913 30.3839C13.6748 29.8486 13.9466 29.3607 14.358 29.0081C14.7693 28.6555 15.293 28.4614 15.8348 28.4607H20.5061C29.6827 28.4607 36.8682 24.7334 38.9671 13.951C39.0295 13.6321 39.0833 13.3217 39.1301 13.0184C39.7537 9.03312 39.1259 6.32051 36.9702 3.86442" fill="#2F2F2F"/>
<path d="M157.31 23.874C156.709 27.8196 153.696 27.8196 150.782 27.8196H149.124L150.288 20.4528C150.358 20.0078 150.741 19.6804 151.192 19.6804H151.953C153.937 19.6804 155.811 19.6804 156.777 20.8099C157.354 21.486 157.528 22.4894 157.31 23.874ZM156.042 13.5791H145.049C144.685 13.5793 144.333 13.7093 144.056 13.9456C143.779 14.182 143.596 14.5093 143.539 14.8688L139.097 43.0536C139.077 43.1843 139.085 43.3178 139.121 43.4451C139.157 43.5723 139.22 43.6903 139.306 43.7909C139.392 43.8914 139.498 43.9722 139.618 44.0277C139.738 44.0832 139.869 44.1121 140.001 44.1123H145.642C146.168 44.1123 146.615 43.7296 146.698 43.2109L147.959 35.2177C148.075 34.4764 148.716 33.928 149.467 33.928H152.945C160.187 33.928 164.365 30.426 165.456 23.48C165.948 20.4443 165.476 18.0576 164.055 16.3867C162.491 14.55 159.721 13.5777 156.043 13.5777" fill="#525252"/>
<path d="M78.9079 23.8739C78.307 27.8195 75.2939 27.8195 72.3786 27.8195H70.7205L71.884 20.4526C71.9549 20.0076 72.3375 19.6803 72.7882 19.6803H73.5493C75.5334 19.6803 77.407 19.6803 78.3736 20.8098C78.9518 21.4858 79.1262 22.4892 78.9079 23.8739ZM77.6395 13.579H66.6473C65.8961 13.579 65.2556 14.1261 65.1379 14.8687L60.6949 43.0535C60.6742 43.1842 60.6821 43.3178 60.718 43.4452C60.7539 43.5725 60.817 43.6906 60.903 43.7912C60.9889 43.8919 61.0956 43.9727 61.2158 44.0281C61.336 44.0835 61.4667 44.1122 61.5991 44.1122H66.8485C67.5997 44.1122 68.2389 43.5651 68.3565 42.8225L69.5569 35.2189C69.6731 34.4763 70.3137 33.9293 71.0649 33.9293H74.5428C81.7849 33.9293 85.963 30.4258 87.0542 23.4799C87.546 20.4441 87.0741 18.0575 85.6526 16.3866C84.0893 14.5498 81.3186 13.5776 77.6409 13.5776M103.16 33.993C102.65 37.0004 100.264 39.02 97.2187 39.02C95.6924 39.02 94.4693 38.5282 93.6841 37.5985C92.9046 36.6773 92.6127 35.3635 92.8593 33.9023C93.3326 30.9204 95.759 28.8371 98.7579 28.8371C100.253 28.8371 101.465 29.3331 102.267 30.2713C103.073 31.2166 103.391 32.5375 103.16 33.993ZM110.495 23.7463H105.232C105.013 23.7461 104.801 23.8241 104.635 23.9662C104.469 24.1084 104.359 24.3054 104.325 24.5216L104.095 25.9927L103.727 25.4598C102.587 23.8059 100.046 23.2517 97.5093 23.2517C91.6943 23.2517 86.7268 27.6594 85.7603 33.8385C85.2572 36.9239 85.9714 39.8704 87.7203 41.9268C89.3261 43.816 91.6178 44.6025 94.3488 44.6025C99.0371 44.6025 101.636 41.5923 101.636 41.5923L101.401 43.0549C101.38 43.1857 101.388 43.3195 101.424 43.4469C101.46 43.5744 101.523 43.6925 101.61 43.7932C101.696 43.8938 101.803 43.9746 101.923 44.0299C102.043 44.0852 102.174 44.1138 102.307 44.1136H107.046C107.797 44.1136 108.438 43.5679 108.555 42.8239L111.401 24.8064C111.422 24.6755 111.413 24.5417 111.377 24.4143C111.341 24.2868 111.278 24.1687 111.192 24.0681C111.105 23.9675 110.998 23.8868 110.878 23.8315C110.758 23.7761 110.627 23.7476 110.494 23.7478" fill="#353535"/>
<path d="M181.562 33.993C181.052 37.0004 178.666 39.02 175.621 39.02C174.094 39.02 172.871 38.5282 172.086 37.5985C171.307 36.6773 171.015 35.3635 171.261 33.9023C171.735 30.9204 174.16 28.8371 177.16 28.8371C178.655 28.8371 179.867 29.3331 180.669 30.2713C181.475 31.2166 181.793 32.5375 181.562 33.993ZM188.898 23.7463H183.634C183.415 23.7461 183.203 23.8241 183.037 23.9662C182.871 24.1084 182.761 24.3054 182.727 24.5216L182.497 25.9927L182.129 25.4598C180.989 23.8059 178.448 23.2517 175.911 23.2517C170.098 23.2517 165.13 27.6593 164.162 33.8385C163.659 36.9239 164.375 39.8704 166.124 41.9268C167.73 43.816 170.021 44.6025 172.752 44.6025C177.442 44.6025 180.041 41.5923 180.041 41.5923L179.806 43.0549C179.785 43.1856 179.792 43.3193 179.828 43.4467C179.864 43.5742 179.926 43.6924 180.012 43.7931C180.098 43.8938 180.205 43.9746 180.325 44.03C180.445 44.0853 180.576 44.1139 180.709 44.1136H185.447C186.198 44.1136 186.838 43.5679 186.957 42.8239L189.803 24.8064C189.824 24.6755 189.815 24.5417 189.779 24.4143C189.743 24.2868 189.68 24.1687 189.594 24.0681C189.507 23.9675 189.4 23.8868 189.28 23.8315C189.16 23.7761 189.029 23.7476 188.896 23.7477" fill="#525252"/>
<path d="M138.53 23.7474H133.238C132.732 23.7474 132.26 23.9983 131.977 24.4178L124.678 35.1662L121.584 24.8373C121.49 24.5222 121.296 24.246 121.033 24.0494C120.769 23.8529 120.449 23.7465 120.12 23.746H114.92C114.774 23.7461 114.631 23.7809 114.501 23.8476C114.371 23.9144 114.26 24.011 114.175 24.1296C114.09 24.2483 114.035 24.3854 114.013 24.5297C113.992 24.6739 114.006 24.8212 114.053 24.9592L119.878 42.0597L114.399 49.7907C114.302 49.928 114.245 50.0892 114.233 50.2567C114.222 50.4243 114.256 50.5918 114.334 50.7409C114.411 50.8901 114.527 51.0151 114.671 51.1025C114.814 51.1899 114.979 51.2362 115.147 51.2363H120.433C120.932 51.2363 121.401 50.9911 121.688 50.5801L139.281 25.1859C139.377 25.0486 139.433 24.8878 139.443 24.7209C139.454 24.554 139.419 24.3874 139.341 24.2392C139.264 24.0909 139.147 23.9667 139.004 23.88C138.861 23.7933 138.697 23.7475 138.53 23.7474Z" fill="#353535"/>
<path d="M195.101 14.3539L190.588 43.0546C190.568 43.1854 190.576 43.319 190.612 43.4464C190.648 43.5738 190.712 43.6918 190.798 43.7924C190.884 43.893 190.99 43.9737 191.111 44.0291C191.231 44.0845 191.362 44.1132 191.494 44.1133H196.031C196.782 44.1133 197.422 43.5662 197.54 42.8236L201.989 14.6374C202.009 14.5066 202.002 14.3728 201.966 14.2453C201.93 14.1179 201.866 13.9998 201.78 13.8991C201.694 13.7985 201.587 13.7177 201.467 13.6624C201.346 13.6071 201.216 13.5785 201.083 13.5787H196.007C195.788 13.5781 195.577 13.6559 195.41 13.7978C195.244 13.9398 195.134 14.138 195.101 14.3539Z" fill="#525252"/>
<path d="M36.9688 3.863C34.5963 1.15889 30.3078 -0.000419683 24.8216 -0.000419683H8.89882C8.35572 -0.000708776 7.83036 0.192847 7.41726 0.54541C7.00416 0.897973 6.73045 1.38639 6.6454 1.92278L0.01835 43.9739C-0.0123786 44.169 -0.000451747 44.3684 0.0533096 44.5584C0.107071 44.7485 0.201389 44.9246 0.329764 45.0746C0.45814 45.2247 0.617521 45.3452 0.796929 45.4277C0.976336 45.5102 1.1715 45.5529 1.36899 45.5527H11.199L13.6679 29.8936L13.5913 30.3839C13.6748 29.8486 13.9466 29.3607 14.358 29.0081C14.7693 28.6555 15.293 28.4614 15.8348 28.4607H20.5061C29.6827 28.4607 36.8682 24.7334 38.9671 13.951C39.0295 13.6321 39.0833 13.3217 39.1301 13.0184C39.7537 9.03312 39.1259 6.32051 36.9702 3.86442" fill="#2F2F2F"/>
<path d="M16.3195 13.0713C16.3939 12.6026 16.633 12.1758 16.9938 11.8675C17.3546 11.5592 17.8134 11.3895 18.288 11.389H30.7711C32.2493 11.389 33.6283 11.4854 34.8882 11.6866C35.5771 11.7975 36.2586 11.9499 36.9291 12.143C37.6905 12.3571 38.4272 12.6506 39.1272 13.0189C39.7536 9.03214 39.1244 6.32095 36.9687 3.86344C34.5949 1.16075 30.3077 0.0014421 24.8215 0.0014421H8.89733C8.35473 0.00182774 7.83004 0.195685 7.41753 0.548188C7.00502 0.900691 6.73173 1.38874 6.64675 1.92465L0.016865 43.9715C-0.0140716 44.1666 -0.00234854 44.366 0.0512272 44.5561C0.104803 44.7462 0.198957 44.9225 0.327201 45.0727C0.455446 45.2229 0.614731 45.3435 0.794081 45.4262C0.973431 45.5089 1.16858 45.5517 1.36608 45.5518H11.1975L13.6664 29.8912L16.3195 13.0713Z" fill="#353535"/>
<path d="M39.1285 13.0174C39.0799 13.3292 39.0256 13.6401 38.9656 13.95C36.8666 24.731 29.6812 28.4598 20.5045 28.4598H15.8318C15.2901 28.4601 14.7664 28.6542 14.3553 29.0069C13.9441 29.3596 13.6726 29.8476 13.5898 30.383L11.1974 45.5503L10.5172 49.8531C10.4901 50.0239 10.5004 50.1986 10.5474 50.365C10.5944 50.5315 10.6769 50.6858 10.7892 50.8172C10.9016 50.9487 11.0411 51.0543 11.1982 51.1266C11.3553 51.199 11.5262 51.2364 11.6991 51.2363H19.9858C20.9665 51.2363 21.7999 50.522 21.9543 49.5541L22.0351 49.1317L23.5969 39.2337L23.6961 38.6866C23.7704 38.2176 24.0096 37.7904 24.3707 37.482C24.7319 37.1736 25.1912 37.0042 25.6661 37.0043H26.9062C34.9335 37.0043 41.219 33.7447 43.0557 24.3115C43.8211 20.3715 43.4242 17.0793 41.3976 14.7677C40.754 14.0511 39.9851 13.4579 39.1285 13.0174Z" fill="#525252"/>
<path d="M36.9305 12.1428C36.6102 12.0479 36.28 11.9629 35.9398 11.8877C35.5997 11.8126 35.2482 11.746 34.8882 11.6893C33.6269 11.4838 32.2493 11.3875 30.7697 11.3875H18.288C17.8129 11.3869 17.3533 11.5563 16.9922 11.8651C16.6312 12.1739 16.3926 12.6017 16.3195 13.0711L13.6664 29.8939L13.5898 30.3828C13.6727 29.8475 13.9442 29.3594 14.3554 29.0067C14.7665 28.6541 15.2902 28.46 15.8319 28.4596H20.5046C29.6813 28.4596 36.8667 24.7322 38.9656 13.9498C39.028 13.631 39.0804 13.322 39.1286 13.0173C38.5743 12.7272 37.9969 12.4836 37.4024 12.2888C37.2479 12.2378 37.0906 12.191 36.9305 12.1428Z" fill="#2F2F2F"/>
</svg>
