<?xml version="1.0" encoding="utf-8"?>
<!-- Generator: Adobe Illustrator 25.4.1, SVG Export Plug-In . SVG Version: 6.00 Build 0)  -->
<svg version="1.0" id="Layer_1" xmlns="http://www.w3.org/2000/svg" xmlns:xlink="http://www.w3.org/1999/xlink" x="0px" y="0px"
	 viewBox="0 0 3104 3104" style="enable-background:new 0 0 3104 3104;" xml:space="preserve">
<g>
	<path d="M2975.6,1460.5c0-0.7-0.1-1.3-0.1-2c-0.4-7-0.9-14-1.5-21c-0.1-0.9-0.2-1.9-0.2-2.8c-19.5-164.9-43.5-264.1-77.4-360.7
		c-0.3-0.9-0.6-1.7-0.9-2.5c-11.6-33.2-24.8-65.9-39.2-98c-0.9-2-1.8-4-2.7-6.1c-7.1-15.8-14.2-31.6-22.1-47.1
		c-1.3-2.5-2.6-5.1-3.9-7.6c-25.5-50.3-53.4-99.5-84.8-146.4c-1.7-2.6-3.4-5.1-5.1-7.7c-7.8-11.8-15.6-23.5-24-34.9
		c-1.6-2.2-3.2-4.3-4.8-6.5c-6.9-9.6-13.9-19.1-21.1-28.5c-1.7-2.1-3.3-4.3-4.9-6.4c-5.4-7.1-10.7-14.2-16.5-21
		c-3-3.6-6-7.2-8.8-10.9c-4.4-5.7-8.9-11.2-13.7-16.6c-3-3.4-6-6.8-8.9-10.4c-3.6-4.5-7.3-8.9-11.1-13.1c-2-2.2-4-4.4-5.9-6.6
		c-4.4-5-8.9-9.9-13.5-14.7c-0.7-0.7-1.4-1.4-2-2.1c-0.7-0.7-1.4-1.4-2-2.1c-1.8-1.9-3.6-3.9-5.4-5.9c-4.7-5.5-9.8-10.7-14.9-15.8
		c-1-1-2-2-3.1-3.1c-2.2-2.2-4.3-4.3-6.5-6.5c-2.8-2.8-5.6-5.5-8.3-8.3c-14.1-14.1-28.2-28-43-41.4c-3.1-2.8-6.2-5.6-9.3-8.4
		c-3.8-3.5-7.6-7-11.5-10.4c-2.2-1.9-4.3-3.8-6.5-5.8c-4.5-4.2-9.1-8.2-13.8-12.1c-3.4-2.8-6.8-5.5-10.2-8.4
		c-21.2-18-43-35.1-65.2-51.8c-1.1-0.8-2.2-1.6-3.2-2.4c-11.9-8.9-24-17.6-36.2-26c-1.9-1.3-3.9-2.7-5.8-4
		c-19.4-13.4-39-26.3-59.2-38.4c-3.7-2.2-7.3-4.3-10.9-6.6c-15-9.2-30.1-18.2-45.5-26.6c-3-1.7-6.1-3.3-9.1-5
		c-27.7-15.5-56.4-29.2-85.3-42.6c-1-0.5-1-0.5-2-0.9c-47.4-21.8-95.9-40.8-145.4-57.1c-0.9-0.3-1.7-0.6-2.6-0.9
		c-125-38.9-227.7-58.2-331.5-66.5c-3.2-0.3-6.4-0.5-9.5-0.8c-32.7-2.8-65.4-3-98.2-3.1c-3.6,0-7.1,0-10.7,0
		c-29.1,0-58.1,0.3-87.1,2.2c-0.7,0-1.3,0.1-2,0.1c-7,0.4-14,0.9-21,1.5c-0.9,0.1-1.9,0.2-2.8,0.2
		c-164.9,19.5-264.1,43.5-360.7,77.4c-0.9,0.3-1.7,0.6-2.5,0.9c-33.2,11.6-65.9,24.8-98,39.2c-2,0.9-4,1.8-6.1,2.7
		c-15.8,7.1-31.6,14.2-47.1,22.1c-2.5,1.3-5.1,2.6-7.6,3.9c-50.3,25.5-99.5,53.4-146.4,84.8c-2.6,1.7-5.1,3.4-7.7,5.1
		c-11.8,7.8-23.5,15.6-34.9,24c-2.2,1.6-4.3,3.2-6.5,4.8c-9.6,6.9-19.1,13.9-28.5,21.1c-2.1,1.7-4.3,3.3-6.4,4.9
		c-7.1,5.4-14.2,10.7-21,16.5c-3.6,3-7.2,6-10.9,8.8c-5.7,4.4-11.2,8.9-16.6,13.7c-3.4,3-6.8,6-10.4,8.9c-4.5,3.6-8.9,7.3-13.1,11.1
		c-2.2,2-4.4,4-6.6,5.9c-5,4.4-9.9,8.9-14.7,13.5c-0.7,0.7-1.4,1.4-2.1,2c-0.7,0.7-1.4,1.4-2.1,2c-1.9,1.8-3.9,3.6-5.9,5.4
		c-5.5,4.7-10.7,9.8-15.8,14.9c-1,1-2,2-3.1,3.1c-2.2,2.2-4.3,4.3-6.5,6.5c-2.8,2.8-5.5,5.6-8.3,8.3c-14.1,14.1-28,28.2-41.4,43
		c-2.8,3.1-5.6,6.2-8.4,9.3c-3.5,3.8-7,7.6-10.4,11.5c-1.9,2.2-3.8,4.3-5.8,6.5c-4.2,4.5-8.2,9.1-12.1,13.8
		c-2.8,3.4-5.5,6.8-8.4,10.2c-18,21.2-35.1,43-51.8,65.2c-0.8,1.1-1.6,2.2-2.4,3.2c-8.9,11.9-17.6,24-26,36.2
		c-1.3,1.9-2.7,3.9-4,5.8c-13.4,19.4-26.3,39-38.4,59.2c-2.2,3.7-4.3,7.3-6.6,10.9c-9.2,15-18.2,30.1-26.6,45.5
		c-1.7,3-3.3,6.1-5,9.1C159.6,1221.4,138.7,1329.1,130,1438c-0.3,3.2-0.5,6.4-0.8,9.5c-2.8,32.7-3,65.4-3.1,98.2c0,3.6,0,7.1,0,10.7
		c0,29.1,0.3,58.1,2.2,87.1c0,0.7,0.1,1.3,0.1,2c0.4,7,0.9,14,1.5,21c0.1,0.9,0.2,1.9,0.2,2.8c19.5,164.9,43.5,264.1,77.4,360.7
		c0.3,0.9,0.6,1.7,0.9,2.5c11.7,33.2,24.8,65.9,39.2,98c0.9,2,1.8,4,2.7,6c7.8,17.5,15.8,34.9,24.5,51.9c0.8,1.5,0.8,1.5,1.5,3
		c24.4,47.6,50.5,94.2,79.9,138.9c0.7,1.1,1.4,2.1,2.1,3.1c10.4,15.8,20.8,31.7,32.1,47c1.5,2.1,3,4.1,4.5,6.2
		c6.9,9.6,13.9,19.2,21.2,28.6c1.7,2.1,3.3,4.3,4.9,6.4c5.4,7.1,10.7,14.2,16.5,21c3,3.6,6,7.2,8.8,10.9c4.4,5.7,8.9,11.2,13.7,16.6
		c3,3.4,6,6.8,8.9,10.4c3.6,4.5,7.3,8.9,11.1,13.1c2,2.2,4,4.4,5.9,6.6c4.4,5,8.9,9.9,13.5,14.7c0.7,0.7,1.4,1.4,2,2.1
		c1,1.1,1,1.1,2,2.1c1.8,1.9,3.6,3.9,5.4,5.9c4.7,5.5,9.8,10.7,14.9,15.8c1,1,2,2,3.1,3.1c2.2,2.2,4.3,4.3,6.5,6.5
		c2.8,2.8,5.6,5.5,8.3,8.3c14.1,14.1,28.2,28,43,41.4c3.1,2.8,6.2,5.6,9.3,8.4c3.8,3.5,7.6,7,11.5,10.4c2.2,1.9,4.3,3.8,6.5,5.8
		c4.5,4.2,9.1,8.2,13.8,12.1c3.4,2.8,6.8,5.5,10.2,8.4c21.2,18,43,35.1,65.2,51.8c1.1,0.8,2.2,1.6,3.2,2.4c11.9,8.9,24,17.6,36.2,26
		c1.9,1.3,3.9,2.7,5.8,4c19.4,13.4,39,26.3,59.2,38.4c3.7,2.2,7.3,4.3,10.9,6.6c15,9.2,30.1,18.2,45.5,26.6c3,1.7,6.1,3.3,9.1,5
		c27.7,15.5,56.4,29.2,85.3,42.6c1,0.5,1,0.5,2,0.9c47.4,21.8,95.9,40.8,145.4,57.1c0.9,0.3,1.7,0.6,2.6,0.9
		c125.1,38.9,227.7,58.2,331.5,66.5c3.2,0.3,6.4,0.5,9.5,0.8c32.7,2.8,65.4,3,98.2,3.1c3.6,0,7.1,0,10.7,0c29.1,0,58.1-0.3,87.1-2.2
		c0.7,0,1.3-0.1,2-0.1c7-0.4,14-0.9,21-1.5c0.9-0.1,1.9-0.2,2.8-0.2c164.9-19.5,264.1-43.5,360.7-77.4c0.9-0.3,1.7-0.6,2.5-0.9
		c33.2-11.6,65.9-24.8,98.1-39.1c0.6-0.3,1.3-0.6,1.9-0.9c17.1-7.6,34.1-15.3,50.7-23.8c2.7-1.4,5.4-2.8,8.1-4.1
		c37.9-19.2,74.9-39.9,111.1-62.2c1-0.6,2.1-1.3,3.1-1.9c24.8-15.2,49.1-31.5,72.8-48.4c0.7-0.5,1.5-1,2.2-1.6
		c16.2-11.5,32-23.4,47.7-35.6c2.1-1.6,4.1-3.2,6.2-4.8c7.8-6,15.4-12.2,23-18.5c2.6-2.1,5.2-4.3,7.8-6.4c5.1-4.1,10-8.2,14.9-12.7
		c2.7-2.5,5.4-4.9,8.2-7.2c5.5-4.4,10.8-9,16-13.8c2.2-2,4.3-4,6.6-6c3.2-2.7,6.3-5.5,9.2-8.5c1.7-1.7,3.4-3.4,5.2-5
		c5.8-4.9,11.2-10.3,16.6-15.7c1.1-1.1,2.2-2.2,3.3-3.3c2.3-2.3,4.7-4.7,7-7c3-3,6-6,9.1-9.1c2.4-2.4,4.7-4.7,7.1-7.1
		c1.1-1.1,2.3-2.3,3.4-3.4c5.4-5.4,10.8-10.7,15.8-16.4c1.6-1.8,3.1-3.6,4.8-5.3c2.9-2.9,5.7-5.7,8.4-8.8c2.6-3,5.2-5.9,7.8-8.7
		c3.5-3.8,7.1-7.7,10.5-11.6c1.9-2.2,3.8-4.3,5.8-6.5c4.2-4.5,8.2-9.1,12.1-13.8c2.8-3.4,5.5-6.8,8.4-10.2
		c18.4-21.6,35.9-43.9,52.9-66.7c0.4-0.6,0.9-1.1,1.3-1.7c8.9-12,17.6-24,26.1-36.3c0.6-0.9,1.3-1.8,1.9-2.7
		c14.1-20.4,27.7-40.9,40.4-62.2c2.2-3.7,4.3-7.3,6.6-10.9c9.2-15,18.2-30.1,26.6-45.5c1.6-3,3.3-6,5-9
		c15.2-27.1,28.9-55.2,41.7-83.5c0.9-2,1.8-3.9,2.7-5.9c94-260.9,114.9-368.6,123.6-477.5c0.3-3.2,0.5-6.4,0.8-9.5
		c2.8-32.7,3-65.4,3.1-98.2c0-3.6,0-7.1,0-10.7C2977.9,1518.5,2977.5,1489.5,2975.6,1460.5z M2348.5,1211.3
		c-21.1,5.5-42.2,11-63.2,16.7c-3.6,1-7.2,1.9-10.7,2.9c-1.2,0.3-2.4,0.6-3.6,1c-2.4,0.6-4.8,1.3-7.2,1.9c-6.2,1.7-12.3,3.3-18.5,5
		c-6.1,1.6-12.2,3.3-18.3,4.9c-2.3,0.6-4.6,1.2-6.9,1.9c-3.2,0.9-6.3,1.7-9.5,2.5c-1.4,0.4-1.4,0.4-2.8,0.8c-4.5,1.2-8.5,2-13.2,1.7
		c-0.2-0.8-0.5-1.7-0.7-2.6c-12.1-42.4-26.8-83.3-45.3-123.4c-0.5-1.1-1-2.1-1.5-3.2c-6.7-14.5-14.1-28.4-22.1-42.2
		c-1.3-2.3-2.6-4.5-3.8-6.8c-6-10.9-12.7-21.3-19.6-31.7c-0.5-0.7-0.9-1.4-1.4-2.1c-10.6-15.9-22.2-31.3-34.6-45.9
		c-0.4-0.5-0.9-1-1.3-1.6c-11.2-13.4-23.2-26-35.6-38.4c-0.9-0.9-1.8-1.8-2.7-2.7c-5-5-10.1-9.7-15.5-14.3c-1.2-1-2.3-2-3.5-3.1
		c-9.2-8.1-18.7-15.6-28.5-22.9c-0.6-0.5-1.3-1-1.9-1.4c-41.9-31.5-88.4-55.7-137.1-74.6c-1.1-0.4-2.2-0.8-3.3-1.3
		c-70.4-27-146.6-39.7-221.7-43.7c-1-0.1-1.9-0.1-2.9-0.2c-37.3-2.2-74.9-1.3-112.1,1.2c-0.9,0.1-1.8,0.1-2.7,0.2
		c-6.4,0.4-12.8,0.9-19.2,1.4c-0.9,0.1-1.7,0.1-2.6,0.2c-2.4,0.2-4.8,0.4-7.2,0.6c-0.7,0.1-1.4,0.1-2.2,0.2c-3.3,0-3.3,0-6,1.5
		c-1.8,0.3-3.6,0.6-5.4,0.8c-1.1,0.2-2.3,0.3-3.4,0.5c-1.2,0.2-2.5,0.3-3.7,0.5c-84.3,11.8-168.2,36-304.4,126.2
		c-0.8,0.7-0.8,0.7-1.6,1.3c-17.2,14.4-34.4,29.7-48.8,46.8c-1.9,2.2-3.9,4.3-5.8,6.5c-4.5,5-8.7,10.3-12.9,15.7
		c-1.9,2.4-3.8,4.9-5.8,7.2c-7.4,9-14.1,18.5-20.6,28.2c-1.4,2-2.7,4.1-4.1,6.1c-10.8,15.8-20.3,32.3-29.4,49.2
		c-0.8,1.4-0.8,1.4-1.6,2.9c-29.4,54.9-50.4,113.7-65.4,174.1c-0.2,0.8-0.4,1.5-0.6,2.3c-15.5,62.5-24.8,126.5-29.4,190.7
		c-0.1,1.5-0.2,3-0.3,4.5c-0.6,8.1-1.1,16.3-1.6,24.4c-0.1,1.5-0.2,2.9-0.2,4.4c-1.1,20.6-1.1,41.2-1.1,61.8c0,0.9,0,1.8,0,2.8
		c0,27.9,0.2,55.8,2,83.6c0.2,2.5,0.3,5,0.4,7.4c1.7,29.5,5,58.7,8.7,88c0.1,0.9,0.2,1.8,0.3,2.7c7.5,58.4,20.5,116.3,38.7,172.3
		c0.2,0.7,0.4,1.3,0.7,2c24.1,74.5,59.7,146.7,109.9,207.2c2,2.5,4.1,5,6.1,7.5c4,4.9,8.3,9.6,12.6,14.2c2.1,2.2,4,4.5,6,6.8
		c4.4,5,9,9.7,13.7,14.3c1.3,1.3,1.3,1.3,2.6,2.6c5,5,10.1,9.7,15.5,14.3c1.2,1,2.3,2,3.5,3.1c9.2,8.1,18.7,15.6,28.5,22.9
		c1,0.7,1,0.7,2,1.5c69.2,51.8,150.6,83.7,254,104.5c1,0.2,2,0.4,3,0.5c18.6,3.2,37.3,5.4,56,7.5c1.5,0.2,1.5,0.2,3.1,0.3
		c6.3,0.7,12.6,1.2,18.9,1.7c1.1,0.1,2.3,0.2,3.5,0.3c87.6,6.7,177.1,0.3,262.5-20.3c1.2-0.3,2.3-0.6,3.5-0.8
		c37.4-9.2,73.1-23,107.5-40.2c1-0.5,2-1,3-1.5c20-10,38.9-21.5,57-34.5c0.7-0.5,1.5-1.1,2.3-1.6c14.4-10.3,28.3-21.2,41.4-33.2
		c2-1.8,4.1-3.7,6.1-5.4c33.9-29.6,62.3-64.4,84.2-103.7c0.4-0.7,0.8-1.4,1.2-2.2c42.1-75.2,51.9-166.8,29-249.5
		c-11.7-40.5-31.7-77.8-60.6-108.5c-2.4-2.6-4.7-5.2-7-7.8c-18.9-21-43.6-39.9-68.6-53c-0.1,0.7-0.1,1.5-0.2,2.3
		c-4.9,64-26.4,128.7-54.8,185.7c-0.4,0.8-0.8,1.6-1.2,2.4c-9.5,18.9-21,36.7-33.8,53.6c-0.7,0.9-0.7,0.9-1.4,1.9
		c-3.1,4.1-6.3,8.1-9.6,12.1c-0.4,0.6-0.9,1.1-1.4,1.7c-7.4,9.1-15.5,17.4-23.8,25.7c-0.5,0.5-1,1-1.5,1.5
		c-6.8,6.8-13.8,13.1-21.3,19.1c-0.8,0.6-1.5,1.2-2.3,1.8c-10.5,8.4-21.2,16.2-32.7,23.2c-0.7,0.4-1.5,0.9-2.2,1.4
		c-53.6,32.3-114.6,49.7-176.8,54.6c-0.9,0.1-1.7,0.1-2.6,0.2c-82.7,6.2-167.9-8.9-286.4-82.2c-1-0.9-2.1-1.7-3.1-2.5
		c-14.2-11.7-27.8-24.8-38.9-39.5c-1-1.3-2-2.5-3-3.8c-25.7-32.6-43-70-53-110.2c-0.2-0.8-0.4-1.7-0.6-2.5
		c-5.3-21.6-6.9-43.6-6.8-65.8c0-3.3,0-6.7,0-10c0-18.8,1.6-37.4,5.7-55.7c0.2-1,0.4-2,0.6-3c5.5-24.5,14.3-47.9,26.1-70
		c0.4-0.7,0.8-1.4,1.1-2.2c10.5-19.8,23.3-37.9,38.6-54.4c2-2.1,3.9-4.3,5.8-6.5c6.6-7.6,13.8-14.5,21.5-20.9
		c0.8-0.7,0.8-0.7,1.6-1.4c73.3-61.4,166.8-89,260.9-95.8c1.1-0.1,2.1-0.2,3.2-0.2c22.5-1.5,45.1-1.8,67.7-1.8c2.2,0,4.4,0,6.6,0
		c23.4,0,46.6,0.5,69.9,2.2c1.1,0.1,2.3,0.1,3.5,0.2c66.2,4.3,66.2,4.3,85.5,10.8c-12.1-63.3-34.1-127.2-89.3-165.6
		c-35.7-24.2-76.1-34-118.5-38.1c-2.2-0.3-2.2-0.3-4.2-1.3c-1.5-0.1-3.1-0.1-4.6-0.1c-1,0-1.9,0-2.9,0c-1.6,0-1.6,0-3.1,0
		c-1.1,0-2.1,0-3.2,0c-2.3,0-4.6,0-6.8,0c-3.4,0-6.9,0-10.3,0c-11.5,0-22.6,0.2-34,2.2c-2,0.3-3.9,0.6-5.9,0.9
		c-37.4,5.8-74.1,17.8-105.1,40.1c-0.6,0.4-1.2,0.8-1.8,1.3c-8.3,6-15.9,12.7-23.2,19.7c-0.6,0.5-1.1,1-1.7,1.6
		c-11.3,10.7-20.8,22.4-29.3,35.4c-3.7-1.4-6.8-3.1-10.1-5.3c-1.6-1.1-1.6-1.1-3.2-2.2c-1.2-0.8-2.5-1.7-3.7-2.5c-1.5-1-3-2-4.4-3
		c-8.2-5.6-16.3-11.2-24.5-16.8c-5.2-3.6-10.4-7.1-15.6-10.7c-6.5-4.4-13-8.9-19.4-13.3c-6-4.1-12-8.2-18-12.3
		c-4.5-3.1-9-6.2-13.5-9.3c-7.2-4.9-14.3-9.8-21.6-14.6c1.7-5.2,4.9-9.3,8.1-13.6c0.6-0.8,1.2-1.6,1.8-2.4
		c4.5-6.2,9.2-12.1,14.2-17.9c0.9-1,1.7-2.1,2.6-3.1c11.7-14.1,24.2-28.1,38.2-40c1.7-1.5,3.5-3,5.2-4.5c9.2-8.1,18.9-15.4,29-22.4
		c0.7-0.5,1.5-1,2.2-1.5c48.1-33.4,104.1-55.1,161.9-64.3c1.2-0.2,2.3-0.4,3.5-0.6c4.1-0.6,8.3-1.1,12.4-1.6c1-0.1,2.1-0.3,3.1-0.4
		c19.1-2.2,37.9-3.1,57-3c1.3,0,2.7,0,4,0c20.7,0.1,41.2,0.7,61.8,3.4c1.2,0.1,2.3,0.3,3.5,0.4c72.7,9.4,144.2,36.4,199.5,85.6
		c0.7,0.7,1.5,1.3,2.2,2c13.2,11.7,26,24,36.8,38c0.9,1.1,1.7,2.1,2.6,3.1c14,16.8,25.6,35.4,36.1,54.5c1.2,2.2,2.4,4.3,3.6,6.5
		c37.4,67.1,52.7,149,55.7,224.9c0.7,0.2,1.4,0.4,2.1,0.6c8.6,2.7,16.6,6.3,24.7,10.3c0.7,0.3,1.3,0.7,2,1
		c12.7,6.2,25,12.9,37.1,20.1c1.7,1,3.4,2,5.1,2.9c23.2,13.5,45.8,28.9,66,46.6c2.7,2.3,5.4,4.5,8.1,6.7
		c15.2,12.4,30.3,26.6,42.9,41.6c1.5,1.8,3,3.5,4.6,5.3c9,10.2,17.2,20.9,25.2,31.9c0.5,0.7,1.1,1.4,1.6,2.2
		c8.7,11.8,16.2,24.1,23.4,36.8c0.5,0.9,1,1.8,1.5,2.7c18.7,32.7,32,67.9,41.5,104.3c0.3,1,0.5,2.1,0.8,3.2
		c17.4,68.2,19.6,140.6,7.2,209.8c-0.2,1-0.3,2-0.5,3c-15.6,87.6-56.2,169.2-113.5,237c-1,1.2-2,2.4-3,3.6
		c-11.5,13.6-23.9,26.4-36.4,39c-0.5,0.5-1,1-1.6,1.6c-5.3,5.3-10.6,10.5-16.3,15.4c-2.6,2.2-5.1,4.5-7.5,6.9
		c-4.6,4.3-9.4,8.4-14.4,12.3c-2.5,2-5,4.1-7.4,6.2c-7.9,6.8-16.1,12.9-24.4,19.1c-0.7,0.5-1.4,1.1-2.2,1.6
		c-25.5,18.7-52.1,35.3-79.8,50.4c-0.9,0.5-1.8,1-2.7,1.5c-77.4,42.4-165.1,64.5-348,83c-3.1,0-6.1,0-9.2,0c-7.3,0-14.6,0-21.8,0
		c-6.5,0-13.1,0-19.6,0c-35,0.1-69.6,0.2-104.4-4.2c-5.1-0.6-10.2-1.2-15.4-1.8c-84.5-9.6-168.7-31.5-245.9-67.5
		c-1.1-0.5-2.1-1-3.2-1.5c-43.8-20.5-85.5-45-123.8-74.5c-0.6-0.5-1.3-1-2-1.5c-4-3.1-8.1-6.3-12-9.5c-0.9-0.7-1.9-1.5-2.8-2.3
		c-12.2-9.9-23.9-20.2-35.4-31c-2.3-2.2-4.7-4.4-7.1-6.6c-7.4-6.7-14.4-13.6-20.9-21.2c-1.9-2.1-3.8-4-5.8-6c-3.9-3.8-7.5-7.9-11-12
		c-0.9-1-1.7-2-2.6-3c-11.8-13.6-23.3-27.4-33.9-42c-1.5-2-3-4-4.5-6c-24.7-33.3-45.6-69.3-64.6-106.1c-0.9-1.8-1.9-3.7-2.9-5.5
		c-40.6-78.2-65.8-164.8-107.5-467.6c-0.1-2.5-0.2-4.9-0.3-7.4c-3.5-75.8,0.6-152.1,9.2-227.4c0.1-0.7,0.2-1.5,0.3-2.3
		c5.3-46,13.4-91.6,23.7-136.7c0.2-0.9,0.4-1.7,0.6-2.6c16.7-72,41.1-141.9,73.8-208.2c1.4-2.9,2.8-5.8,4.2-8.7
		c6.3-12.8,13.2-25.2,20.4-37.5c0.4-0.8,0.9-1.6,1.4-2.4c14.4-25.2,31-49.6,48.6-72.6c0.9-1.2,1.8-2.4,2.7-3.6
		c5.3-6.9,10.7-13.7,16.3-20.4c0.4-0.5,0.9-1,1.3-1.6c5.7-6.8,11.4-13.4,17.4-19.9c2-2.2,4-4.4,5.9-6.7c3-3.4,6.2-6.6,9.4-9.8
		c1.9-1.9,3.7-3.9,5.5-6c5.4-6.2,11.2-11.8,17.5-17.2c2.1-1.9,4-3.8,6-5.8c3.8-3.9,7.9-7.5,12-11c1-0.9,2-1.8,3.1-2.6
		c14.8-12.8,30.1-24.9,45.9-36.4c0.7-0.5,1.4-1,2.2-1.6c56.8-41,119.8-71.6,185.8-94.4c1.8-0.6,1.8-0.6,3.7-1.3
		c46.8-16,95.4-26.6,144.3-33.7c0.8-0.1,1.5-0.2,2.3-0.3c21-3.1,41.9-5.6,63-7.3c3.3-0.3,6.7-0.6,10-0.9c15.4-1.4,30.7-1.8,46.2-1.8
		c2.5,0,4.9,0,7.4,0c5.1,0,10.2,0,15.4,0c6.5,0,13,0,19.5,0c5.1,0,10.2,0,15.2,0c2.4,0,4.8,0,7.2,0c14.6,0,28.9,0.6,43.4,2
		c3.6,0.4,7.3,0.7,10.9,1c31.7,2.7,63.1,6.6,94.5,12.3c0.7,0.1,1.4,0.2,2.1,0.4c87.7,15.7,174.6,44.6,267.9,99.6
		c0.9,0.5,1.8,1.1,2.7,1.7c27.5,16.9,53.7,35.8,78.2,56.7c2.7,2.3,5.6,4.6,8.4,6.9c6.9,5.6,13.3,11.8,19.7,17.9
		c2.3,2.2,4.6,4.3,7,6.5c9.4,8.6,18.8,17.4,27,27.1c2.3,2.6,4.6,5.1,7,7.6c5.5,5.8,10.8,11.7,15.8,17.9c2,2.5,4,4.9,6.1,7.2
		c6.3,7.4,12.3,15.1,18.1,22.8c1.5,2,3.1,4,4.6,6.1c7.3,9.5,14.1,19.3,20.7,29.3c1.6,2.5,3.3,4.9,4.9,7.4
		c7.6,11.4,14.8,23,21.7,34.8c0.5,0.9,1,1.7,1.5,2.6c9.1,15.5,17.4,31.4,25.5,47.4c0.3,0.6,0.6,1.2,0.9,1.8
		c63.1,125.7,63.1,125.7,63.1,170.2C2350.5,1210.8,2349.6,1211,2348.5,1211.3z"/>
	<path d="M1734.2,1580.5c-0.8-0.1-1.5-0.2-2.2-0.2c-28.9-3.3-58.1-4.1-87.2-4.1c-2.4,0-4.9,0-7.3,0c-24.7,0-49.4,0.3-74,2.9
		c-1.3,0.1-2.6,0.3-3.9,0.4c-50.7,5.1-113,19.6-149.4,58.3c-0.5,0.6-1,1.1-1.6,1.7c-16.4,15.9-29.4,34.4-36,56.4
		c-0.3,1.2-0.7,2.4-1,3.6c-5.7,15.4-5.5,33.3-3.6,49.5c0.2,1.2,0.4,2.4,0.6,3.5c4.2,26.5,15.8,50.8,35.3,69.5
		c0.9,0.9,1.8,1.7,2.7,2.5c10.4,9.9,21.5,18.2,34.2,25c0.6,0.3,1.2,0.7,1.8,1c35.3,19.3,76.1,27.4,116.2,27.2c2.7,0,5.4,0,8.2,0
		c8.8,0,17.6,0.1,26.3-0.9c0.8-0.1,1.6-0.2,2.4-0.3c21.5-2.2,42.8-6.1,63.3-13.1c49.3-17.8,88.2-54.6,110.7-101.7
		c0.7-1.4,1.3-2.8,2-4.2c20.5-42.4,30.8-89.4,36.2-136c0.1-0.8,0.2-1.5,0.3-2.3c1-8.6,1.9-17.1,1.6-25.8
		C1797.7,1587.6,1797.7,1587.6,1734.2,1580.5z"/>
</g>
</svg>
