<?xml version="1.0" encoding="UTF-8"?>
<svg version="1.1" xmlns="http://www.w3.org/2000/svg" width="3104" height="3104">
<path d="M0 0 C3.5554598 0.00564368 7.11091483 0.00846198 10.66637802 0.0110817 C43.47731766 0.04622835 76.16453736 0.27639803 108.87673569 3.06482315 C112.05361744 3.33301071 115.23144736 3.58661324 118.40969467 3.83807755 C222.1466105 12.12077571 324.83245272 31.44887715 449.87649155 70.31805801 C450.73269089 70.60016129 451.58889023 70.88226456 452.471035 71.17291641 C502.01096141 87.51255953 550.49868223 106.47409793 597.87649155 128.31805801 C598.85431595 128.76861557 598.85431595 128.76861557 599.85189438 129.2282753 C628.69168174 142.53207277 657.37709597 156.27632925 685.1094017 171.77850723 C688.14152644 173.46551787 691.18592864 175.12895249 694.2319603 176.79071426 C709.66833798 185.24273789 724.73447244 194.18336433 739.72610092 203.39325333 C743.3566604 205.61142838 747.00971787 207.78921025 750.66921616 209.9591713 C770.90918016 221.97232966 790.52401592 234.93176897 809.87649155 248.31805801 C811.81527715 249.65271737 813.75407951 250.98735238 815.6928978 252.32196426 C827.92423566 260.76434022 839.9714529 269.42217799 851.87649155 278.31805801 C852.95840693 279.12290129 854.04042623 279.92760491 855.1225853 280.73212051 C877.38380105 297.34496809 899.18923257 314.47664901 920.34109116 332.4838295 C923.69028766 335.33114735 927.08216068 338.11804776 930.50149155 340.88055801 C935.26456372 344.75618734 939.81013404 348.8304009 944.32961655 352.98602676 C946.46590903 354.94211053 948.62429812 356.85993499 950.81399155 358.75555801 C954.71518835 362.14616873 958.51991219 365.639034 962.32253647 369.13910294 C965.40291643 371.97293693 968.50326148 374.78133759 971.62649155 377.56805801 C986.4230374 390.89649105 1000.57112337 404.85280569 1014.63405991 418.94525528 C1017.40729172 421.72424026 1020.18506989 424.49863111 1022.96414661 427.27176952 C1025.13742001 429.44141049 1027.30828326 431.61345045 1029.47844887 433.78619957 C1030.5018316 434.81024122 1031.52593486 435.8335634 1032.55082512 436.85609627 C1037.69033899 441.98635442 1042.72534766 447.14534263 1047.45338058 452.65913773 C1049.18265503 454.67495275 1050.98379473 456.61249823 1052.81399155 458.53680801 C1053.48172592 459.2419252 1054.1494603 459.94704239 1054.83742905 460.67352676 C1055.51031967 461.38122208 1056.1832103 462.08891739 1056.87649155 462.81805801 C1061.46234381 467.64110953 1065.96639614 472.50778049 1070.32668686 477.53631973 C1072.26673995 479.76670844 1074.25699457 481.94883815 1076.25149155 484.13055801 C1080.1067154 488.40115953 1083.7523167 492.8057947 1087.36867905 497.27899551 C1090.26480485 500.78863084 1093.2531448 504.20838415 1096.25149155 507.63055801 C1100.98666977 513.0476955 1105.52135578 518.57802961 1109.9272728 524.26532364 C1112.79098492 527.95734784 1115.73280457 531.56257695 1118.75149155 535.13055801 C1124.4731086 541.94588069 1129.83109969 549.02484186 1135.2031517 556.11688614 C1136.83926072 558.26908323 1138.48639384 560.41227504 1140.1382103 562.55243301 C1147.36960277 571.92981068 1154.37183302 581.44985368 1161.26467514 591.07831192 C1162.83821171 593.26486516 1164.42662724 595.43964969 1166.0210228 597.61102676 C1174.36778901 609.00471769 1182.21906506 620.69791462 1190.0000267 632.48358536 C1191.70310607 635.05615256 1193.41689289 637.62095292 1195.1382103 640.18133926 C1226.62209788 687.01679071 1254.42396464 736.25491543 1279.97213364 786.54187393 C1281.26259643 789.07637873 1282.5643973 791.60503432 1283.8647728 794.13446426 C1291.75653107 809.58390021 1298.86796645 825.39279132 1305.94228745 841.2282753 C1306.84452319 843.24654588 1307.74937557 845.26362396 1308.65481186 847.28046036 C1323.05511462 879.39993112 1336.22655268 912.09976971 1347.87649155 945.31805801 C1348.16632919 946.14374283 1348.45616684 946.96942764 1348.75478745 947.82013321 C1382.60689562 1044.41709069 1406.61224955 1143.64076289 1426.12649155 1308.50555801 C1426.20371445 1309.4210643 1426.28093735 1310.33657059 1426.36050034 1311.27981949 C1426.94293797 1318.28787735 1427.42967777 1325.30012047 1427.87649155 1332.31805801 C1427.91908978 1332.97620499 1427.961688 1333.63435196 1428.00557709 1334.31244278 C1429.87428411 1363.35358331 1430.24146632 1392.34609115 1430.19454956 1421.44156647 C1430.18890588 1424.99702627 1430.18608758 1428.55248129 1430.18346786 1432.10794449 C1430.14832121 1464.91888413 1429.91815153 1497.60610382 1427.12972641 1530.31830215 C1426.86153885 1533.49518391 1426.60793633 1536.67301383 1426.35647202 1539.85126114 C1417.66229623 1648.73853162 1396.8261394 1756.39262734 1302.79525375 2017.30340958 C1301.90505756 2019.25541888 1301.01735112 2021.2085452 1300.12990952 2023.16180801 C1287.25389036 2051.45073142 1273.58852262 2079.50096802 1258.38381577 2106.6154213 C1256.70819447 2109.61981517 1255.05908965 2112.63796793 1253.4116478 2115.65790176 C1244.9579478 2131.10006856 1236.01425217 2146.17104662 1226.80129623 2161.16766739 C1224.58327371 2164.79797722 1222.40561913 2168.45076827 1220.23586655 2172.1100502 C1207.60904281 2193.38312618 1193.92804624 2213.96529656 1179.87649155 2234.31805801 C1179.25500229 2235.21927383 1178.63351303 2236.12048965 1177.99319077 2237.04901505 C1169.51941849 2249.31230039 1160.78404748 2261.36680054 1151.87649155 2273.31805801 C1151.45561264 2273.88427872 1151.03473373 2274.45049942 1150.60110092 2275.03387833 C1133.64926462 2297.83366498 1116.12885624 2320.14807623 1097.71072006 2341.78265762 C1094.86340221 2345.13185413 1092.0765018 2348.52372714 1089.31399155 2351.94305801 C1085.43836222 2356.70613019 1081.36414866 2361.25170051 1077.2085228 2365.77118301 C1075.25243903 2367.9074755 1073.33461457 2370.06586459 1071.43899155 2372.25555801 C1068.01189073 2376.20117999 1064.47383236 2380.04236345 1060.93239975 2383.88495255 C1058.28498313 2386.76299628 1055.67985483 2389.66888664 1053.12649155 2392.63055801 C1050.44977108 2395.72153284 1047.62085966 2398.59780525 1044.70255661 2401.45955276 C1043.01134178 2403.18081216 1041.4515924 2404.95082471 1039.89382553 2406.79242325 C1034.89875951 2412.53282527 1029.48228694 2417.85642706 1024.0991478 2423.22821426 C1022.96231909 2424.36571834 1021.82563871 2425.50337069 1020.68909836 2426.64116287 C1018.31804234 2429.01368488 1015.94520882 2431.38441042 1013.57107162 2433.75384903 C1010.54750693 2436.77171714 1007.52845522 2439.79405377 1004.5107317 2442.81776142 C1002.16779321 2445.16433534 999.82245115 2447.50849536 997.47640419 2449.85196114 C996.36304671 2450.96465758 995.25041474 2452.07808052 994.13856316 2453.19228172 C988.7540215 2458.5857066 983.37336346 2463.93284386 977.54957199 2468.85905838 C975.73990118 2470.43717081 974.057295 2472.10403753 972.37649155 2473.81805801 C969.4304894 2476.81040177 966.34666147 2479.57129974 963.16555405 2482.31024551 C960.94084683 2484.26160986 958.76495889 2486.25974258 956.59572983 2488.27240372 C951.41175073 2493.08043278 946.10199029 2497.63655902 940.5913353 2502.07196426 C937.7697566 2504.40636391 935.07058443 2506.837964 932.37649155 2509.31805801 C927.56862251 2513.73317155 922.6023983 2517.88460283 917.52248764 2521.98114395 C914.91950269 2524.09534531 912.34081513 2526.23877131 909.75808334 2528.37762833 C902.17757387 2534.64987362 894.5276125 2540.81654381 886.75881577 2546.85370255 C884.69204959 2548.46154477 882.62987501 2550.07517313 880.5678978 2551.68915176 C864.92353635 2563.91884831 849.03898138 2575.78176321 832.87649155 2587.31805801 C832.16202866 2587.82965469 831.44756577 2588.34125137 830.71145248 2588.86835098 C807.01766488 2605.79325183 782.70360578 2622.10034317 757.87649155 2637.31805801 C756.86312729 2637.941642 755.84976303 2638.56522598 754.80569077 2639.20770645 C718.59442887 2661.46008556 681.59886338 2682.14161234 643.70992661 2701.38507462 C641.00821859 2702.75989764 638.31204169 2704.14548826 635.6147728 2705.52899551 C618.95909154 2714.02009966 601.9516468 2721.71693649 584.87649155 2729.31805801 C584.24656296 2729.59907364 583.61663437 2729.88008926 582.96761703 2730.16962051 C550.82155817 2744.50346166 518.09142948 2757.66929415 484.87649155 2769.31805801 C484.05080673 2769.60789566 483.22512192 2769.89773331 482.37441635 2770.19635391 C385.77745887 2804.04846209 286.55378667 2828.05381602 121.68899155 2847.56805801 C120.77348526 2847.64528091 119.85797897 2847.72250381 118.91473007 2847.8020668 C111.90667221 2848.38450444 104.89442909 2848.87124424 97.87649155 2849.31805801 C97.21834457 2849.36065624 96.5601976 2849.40325447 95.88210678 2849.44714355 C66.84096625 2851.31585057 37.84845841 2851.68303278 8.75298309 2851.63611603 C5.19752329 2851.63047235 1.64206827 2851.62765405 -1.91339493 2851.62503433 C-34.72433457 2851.58988768 -67.41155426 2851.359718 -100.12375259 2848.57129288 C-103.30063435 2848.30310531 -106.47846427 2848.04950279 -109.65671158 2847.79803848 C-213.42812447 2839.51234171 -316.04783177 2820.19698139 -441.12350845 2781.31805801 C-441.97970779 2781.03595474 -442.83590714 2780.75385147 -443.71805191 2780.46319962 C-493.25797832 2764.1235565 -541.74569914 2745.1620181 -589.12350845 2723.31805801 C-590.10133286 2722.86750046 -590.10133286 2722.86750046 -591.09891129 2722.40784073 C-619.93869865 2709.10404326 -648.62411288 2695.35978678 -676.35641861 2679.8576088 C-679.38854335 2678.17059815 -682.43294555 2676.50716354 -685.4789772 2674.84540176 C-700.91535489 2666.39337814 -715.98148935 2657.4527517 -730.97311783 2648.2428627 C-734.6036773 2646.02468765 -738.25673478 2643.84690577 -741.91623306 2641.67694473 C-762.15619706 2629.66378637 -781.77103283 2616.70434706 -801.12350845 2603.31805801 C-803.06229406 2601.98339866 -805.00109642 2600.64876365 -806.9399147 2599.31415176 C-819.17125256 2590.8717758 -831.21846981 2582.21393803 -843.12350845 2573.31805801 C-844.20542384 2572.51321474 -845.28744314 2571.70851111 -846.3696022 2570.90399551 C-868.63081796 2554.29114794 -890.43624948 2537.15946701 -911.58810806 2519.15228653 C-914.93730457 2516.30496868 -918.32917758 2513.51806826 -921.74850845 2510.75555801 C-926.51158063 2506.87992869 -931.05715095 2502.80571513 -935.57663345 2498.65008926 C-937.71292594 2496.6940055 -939.87131503 2494.77618104 -942.06100845 2492.88055801 C-945.96220526 2489.4899473 -949.7669291 2485.99708203 -953.56955338 2482.49701309 C-956.64993334 2479.6631791 -959.75027839 2476.85477844 -962.87350845 2474.06805801 C-977.67005431 2460.73962498 -991.81814028 2446.78331034 -1005.88107681 2432.69086075 C-1008.65430863 2429.91187577 -1011.4320868 2427.13748492 -1014.21116352 2424.3643465 C-1016.38443692 2422.19470553 -1018.55530017 2420.02266557 -1020.72546577 2417.84991646 C-1021.7488485 2416.82587481 -1022.77295177 2415.80255263 -1023.79784203 2414.78001976 C-1028.9373559 2409.64976161 -1033.97236457 2404.49077339 -1038.70039749 2398.9769783 C-1040.42967194 2396.96116327 -1042.23081164 2395.0236178 -1044.06100845 2393.09930801 C-1045.06261002 2392.04163223 -1045.06261002 2392.04163223 -1046.08444595 2390.96258926 C-1046.75733658 2390.25489395 -1047.4302272 2389.54719864 -1048.12350845 2388.81805801 C-1052.70936072 2383.99500649 -1057.21341305 2379.12833553 -1061.57370377 2374.0997963 C-1063.51375686 2371.86940759 -1065.50401148 2369.68727788 -1067.49850845 2367.50555801 C-1071.35373231 2363.2349565 -1074.99933361 2358.83032132 -1078.61569595 2354.35712051 C-1081.51182176 2350.84748519 -1084.5001617 2347.42773188 -1087.49850845 2344.00555801 C-1092.23368668 2338.58842053 -1096.76837269 2333.05808642 -1101.1742897 2327.37079239 C-1104.03800182 2323.67876819 -1106.97982148 2320.07353908 -1109.99850845 2316.50555801 C-1115.7201255 2309.69023533 -1121.0781166 2302.61127417 -1126.45016861 2295.51922989 C-1128.08627763 2293.36703279 -1129.73341075 2291.22384099 -1131.3852272 2289.08368301 C-1138.62637079 2279.6936605 -1145.63653737 2270.16011576 -1152.53805923 2260.51825333 C-1154.0298096 2258.4480879 -1155.53905033 2256.39242083 -1157.0571022 2254.34149551 C-1168.32007951 2239.06423008 -1178.67858732 2223.15946031 -1189.12350845 2207.31805801 C-1189.8004274 2206.29228653 -1190.47734634 2205.26651505 -1191.17477798 2204.20965958 C-1220.5932047 2159.54226854 -1246.75295099 2112.90274931 -1271.12350845 2065.31805801 C-1271.88679459 2063.83450821 -1271.88679459 2063.83450821 -1272.66550064 2062.3209877 C-1281.41876108 2045.2703057 -1289.38753521 2027.89106824 -1297.19644547 2010.3935585 C-1298.0945654 2008.38285547 -1298.99561661 2006.37349156 -1299.89743423 2004.36444473 C-1314.29892767 1972.2417933 -1327.47243307 1939.53958693 -1339.12350845 1906.31805801 C-1339.4133461 1905.4923732 -1339.70318375 1904.66668839 -1340.00180435 1903.81598282 C-1373.85391253 1807.21902534 -1397.85926646 1707.99535314 -1417.37350845 1543.13055801 C-1417.45073135 1542.21505173 -1417.52795425 1541.29954544 -1417.60751724 1540.35629654 C-1418.18995488 1533.34823867 -1418.67669468 1526.33599556 -1419.12350845 1519.31805801 C-1419.16610668 1518.65991104 -1419.20870491 1518.00176407 -1419.25259399 1517.32367325 C-1421.12130101 1488.28253271 -1421.48848322 1459.29002487 -1421.44156647 1430.19454956 C-1421.43592279 1426.63908976 -1421.43310449 1423.08363473 -1421.43048477 1419.52817154 C-1421.39533812 1386.7172319 -1421.16516844 1354.0300122 -1418.37674332 1321.31781387 C-1418.10855575 1318.14093212 -1417.85495323 1314.9631022 -1417.60348892 1311.78485489 C-1408.90931314 1202.89758441 -1388.07315631 1095.24348869 -1249.66305923 745.08514786 C-1247.97604859 742.05302312 -1246.31261397 739.00862092 -1244.6508522 735.96258926 C-1236.19882857 720.52621158 -1227.25820214 705.46007712 -1218.04831314 690.46844864 C-1215.83013809 686.83788916 -1213.65235621 683.18483169 -1211.48239517 679.5253334 C-1199.46923681 659.2853694 -1186.5097975 639.67053364 -1173.12350845 620.31805801 C-1171.7888491 618.37927241 -1170.45421409 616.44047005 -1169.1196022 614.50165176 C-1160.67722624 602.27031391 -1152.01938847 590.22309666 -1143.12350845 578.31805801 C-1142.31866518 577.23614263 -1141.51396155 576.15412333 -1140.70944595 575.07196426 C-1124.09659838 552.81074851 -1106.96491745 531.00531699 -1088.95773697 509.8534584 C-1086.11041912 506.5042619 -1083.3235187 503.11238888 -1080.56100845 499.69305801 C-1076.68537913 494.92998584 -1072.61116557 490.38441552 -1068.4555397 485.86493301 C-1066.49945594 483.72864053 -1064.58163148 481.57025144 -1062.68600845 479.38055801 C-1059.29539773 475.47936121 -1055.80253247 471.67463737 -1052.30246353 467.87201309 C-1049.46862954 464.79163313 -1046.66022888 461.69128808 -1043.87350845 458.56805801 C-1030.54507542 443.77151216 -1016.58876078 429.62342619 -1002.49631119 415.56048965 C-999.71732621 412.78725784 -996.94293536 410.00947967 -994.16979694 407.23040295 C-992.00015597 405.05712955 -989.82811601 402.8862663 -987.6553669 400.71610069 C-986.63132525 399.69271796 -985.60800307 398.6686147 -984.5854702 397.64372444 C-979.45521204 392.50421057 -974.29622383 387.4692019 -968.78242874 382.74116898 C-966.76661371 381.01189453 -964.82906823 379.21075483 -962.90475845 377.38055801 C-962.19964127 376.71282364 -961.49452408 376.04508926 -960.7680397 375.35712051 C-960.06034439 374.68422989 -959.35264908 374.01133926 -958.62350845 373.31805801 C-953.80045693 368.73220575 -948.93378597 364.22815342 -943.90524673 359.8678627 C-941.67485803 357.92780961 -939.49272832 355.93755499 -937.31100845 353.94305801 C-933.04040694 350.08783416 -928.63577176 346.44223286 -924.16257095 342.82587051 C-920.65293563 339.92974471 -917.23318232 336.94140476 -913.81100845 333.94305801 C-908.39387097 329.20787979 -902.86353686 324.67319378 -897.17624283 320.26727676 C-893.48421863 317.40356464 -889.87898952 314.46174499 -886.31100845 311.44305801 C-879.49568577 305.72144096 -872.41672461 300.36344987 -865.32468033 294.99139786 C-863.17248323 293.35528884 -861.02929143 291.70815572 -858.88913345 290.05633926 C-849.51175579 282.8249468 -839.99171278 275.82271654 -830.36325455 268.92987442 C-828.17670131 267.35633785 -826.00191678 265.76792232 -823.8305397 264.17352676 C-812.43684877 255.82676055 -800.74365185 247.9754845 -788.95798111 240.19452286 C-786.38541391 238.49144349 -783.82061355 236.77765667 -781.2602272 235.05633926 C-734.42477575 203.57245168 -685.18665103 175.77058492 -634.89969254 150.22241592 C-632.36518773 148.93195313 -629.83653215 147.63015226 -627.3071022 146.32977676 C-611.85766626 138.43801849 -596.04877515 131.32658311 -580.21329117 124.25226212 C-578.19502059 123.35002637 -576.1779425 122.44517399 -574.16110611 121.5397377 C-542.04163535 107.13943494 -509.34179675 93.96799688 -476.12350845 82.31805801 C-475.29782364 82.02822037 -474.47213882 81.73838272 -473.62143326 81.43976212 C-377.02447578 47.58765394 -277.80080358 23.58230001 -112.93600845 4.06805801 C-112.02050217 3.99083511 -111.10499588 3.91361221 -110.16174698 3.83404922 C-103.15368911 3.25161159 -96.141446 2.76487179 -89.12350845 2.31805801 C-88.46536148 2.27545979 -87.80721451 2.23286156 -87.12912369 2.18897247 C-58.08798315 0.32026545 -29.09547531 -0.04691675 0 0 Z " fill="#000000" transform="translate(1569.1235084533691,73.68194198608398)"/>
<path d="M0 0 C2.4650781 -0.00135337 4.93015595 -0.00329942 7.39523315 -0.00579834 C12.51628201 -0.00871699 17.63726025 -0.00455781 22.75830078 0.00488281 C29.25382662 0.0162874 35.74918726 0.00969033 42.24470711 -0.00226212 C47.32055867 -0.00955936 52.39637236 -0.0071573 57.47222519 -0.00200653 C59.86471451 -0.0006923 62.25720752 -0.00223751 64.64969254 -0.00696564 C79.20258073 -0.0294346 93.52909493 0.54742005 108.00920677 2.02501774 C111.65381474 2.38730905 115.30248545 2.68152149 118.953125 2.9765625 C150.69936291 5.63629666 182.07391983 9.60904381 213.4296875 15.265625 C214.12308228 15.3896167 214.81647705 15.5136084 215.53088379 15.64135742 C303.18186881 31.34703175 390.09263932 60.19760916 483.4296875 115.265625 C484.32397461 115.81347656 485.21826172 116.36132812 486.13964844 116.92578125 C513.59317018 133.82351388 539.86023705 152.70472395 564.359375 173.6640625 C567.10702795 176.00820201 569.91768978 178.26445816 572.7421875 180.515625 C579.64715134 186.13407447 586.0269613 192.31040332 592.48242188 198.43164062 C594.7906934 200.60562956 597.12766546 202.74620696 599.47070312 204.88256836 C608.88215389 213.4715326 618.23413848 222.28402387 626.46875 232.0234375 C628.73189801 234.61118044 631.08285556 237.10428401 633.44213867 239.60424805 C638.9325928 245.42287717 644.24288304 251.2911277 649.23828125 257.546875 C651.21717028 260.00196727 653.24841671 262.40223951 655.30566406 264.79174805 C661.65425255 272.179258 667.60114673 279.84811524 673.44873047 287.63623047 C674.97570946 289.66304385 676.51233144 291.68112268 678.05517578 293.69580078 C685.33099012 303.24047084 692.15123183 313.03596441 698.78417969 323.03662109 C700.42218387 325.50432057 702.06993552 327.96529546 703.71875 330.42578125 C711.32507124 341.82539469 718.49129958 353.44885407 725.4296875 365.265625 C725.93533737 366.12659286 726.44098724 366.98756073 726.96195984 367.87461853 C736.04177712 383.36592923 744.36585186 399.22758118 752.4296875 415.265625 C752.73001892 415.86286377 753.03035034 416.46010254 753.33978271 417.07543945 C816.4296875 542.81691578 816.4296875 542.81691578 816.4296875 587.265625 C815.45457214 587.51931351 814.47945679 587.77300201 813.47479248 588.03437805 C792.38582111 593.52466283 771.31569952 599.08213192 750.26728821 604.72600937 C746.68472282 605.68643266 743.1018713 606.64578094 739.5189209 607.60476685 C738.32715996 607.92376513 737.13539902 608.2427634 735.90752411 608.5714283 C733.49161969 609.21808551 731.07571088 609.86472628 728.65979767 610.51135063 C722.4872576 612.16397351 716.31549616 613.8194245 710.14501953 615.47973633 C704.04885309 617.11983837 697.95079129 618.75271009 691.85137177 620.38067055 C689.55575221 620.99480411 687.2608419 621.61159552 684.96668243 622.23116112 C681.79631677 623.0870211 678.62361506 623.93362252 675.45019531 624.77807617 C674.05268288 625.15891106 674.05268288 625.15891106 672.62693787 625.54743958 C668.11623136 626.73740263 664.14164343 627.57424473 659.4296875 627.265625 C659.18959961 626.41895264 658.94951172 625.57228027 658.70214844 624.69995117 C646.60970861 582.2825617 631.8858831 541.36552109 613.4296875 501.265625 C612.94000488 500.19973145 612.45032227 499.13383789 611.94580078 498.03564453 C605.24965148 483.55050258 597.88874084 469.59038595 589.88134766 455.79003906 C588.58299474 453.53222386 587.31523856 451.26202847 586.06640625 448.9765625 C580.08340247 438.03447826 573.34860754 427.63652861 566.4296875 417.265625 C565.96836426 416.56969238 565.50704102 415.87375977 565.03173828 415.15673828 C554.43421296 399.21526248 542.7900706 383.88139106 530.4296875 369.265625 C529.9980127 368.7504834 529.56633789 368.2353418 529.12158203 367.70458984 C517.87324571 354.29326208 505.90726808 341.66349658 493.5546875 329.265625 C492.67498291 328.38124756 491.79527832 327.49687012 490.88891602 326.58569336 C485.89530153 321.60438191 480.78746326 316.85034623 475.4296875 312.265625 C474.27294726 311.24421371 473.1179585 310.220815 471.96484375 309.1953125 C462.78287763 301.09280521 453.24418469 293.58400333 443.4296875 286.265625 C442.79562988 285.78883301 442.16157227 285.31204102 441.50830078 284.82080078 C399.64541925 253.35480432 353.15181578 229.16202762 304.4296875 210.265625 C303.33688477 209.84152344 302.24408203 209.41742187 301.11816406 208.98046875 C230.69697188 181.97936627 154.48456391 169.30627919 79.4296875 165.265625 C78.4691748 165.20777832 77.50866211 165.14993164 76.51904297 165.09033203 C39.25771774 162.86034329 1.6504932 163.74394869 -35.5703125 166.265625 C-36.46194092 166.32596924 -37.35356934 166.38631348 -38.2722168 166.44848633 C-44.68573896 166.88655154 -51.09726472 167.34857808 -57.5078125 167.828125 C-58.36998383 167.89206451 -59.23215515 167.95600403 -60.12045288 168.0218811 C-62.53000463 168.20291178 -64.93888283 168.39095268 -67.34765625 168.58203125 C-68.06842346 168.63615173 -68.78919067 168.69027222 -69.53179932 168.74603271 C-72.83875934 168.76313502 -72.83875934 168.76313502 -75.5703125 170.265625 C-77.35554262 170.58905957 -79.15120133 170.85519005 -80.94921875 171.09765625 C-82.08480225 171.25395508 -83.22038574 171.41025391 -84.39038086 171.57128906 C-85.6253833 171.73854492 -86.86038574 171.90580078 -88.1328125 172.078125 C-172.46694206 183.90290663 -256.34832373 208.04863438 -392.5703125 298.265625 C-393.35245117 298.91821289 -393.35245117 298.91821289 -394.15039062 299.58398438 C-411.30336236 313.94225706 -428.53636128 329.27741378 -442.984375 346.40234375 C-444.87222657 348.62033685 -446.84734042 350.74804655 -448.8203125 352.890625 C-453.36834015 357.93116326 -457.53723345 363.21440966 -461.69140625 368.578125 C-463.58807482 371.02343807 -465.51578525 373.43713605 -467.48046875 375.828125 C-474.89554937 384.87219272 -481.57297321 394.29612688 -488.06689453 404.02001953 C-489.43035366 406.05657313 -490.80735982 408.08287726 -492.19140625 410.10546875 C-502.94255435 425.89183006 -512.5353632 442.44652403 -521.5703125 459.265625 C-522.34713379 460.70856934 -522.34713379 460.70856934 -523.13964844 462.18066406 C-552.53154134 517.06955221 -573.54841778 575.90663343 -588.5703125 636.265625 C-588.76240295 637.03741089 -588.95449341 637.80919678 -589.15240479 638.60437012 C-604.62496784 701.07312652 -613.9773251 765.09493357 -618.5703125 829.265625 C-618.68018434 830.76465975 -618.79020671 832.26368347 -618.90039062 833.76269531 C-619.49311982 841.89856352 -620.04929086 850.0365571 -620.46316528 858.18371582 C-620.53846706 859.64685655 -620.61729277 861.1098181 -620.69869995 862.57263184 C-621.82608896 883.16751011 -621.76968816 903.77201714 -621.7578125 924.390625 C-621.75769291 925.30974419 -621.75757332 926.22886337 -621.7574501 927.17583466 C-621.75285535 955.09623497 -621.51748839 982.94447941 -619.72528076 1010.81738281 C-619.56815452 1013.29971746 -619.42167085 1015.78248727 -619.27783203 1018.265625 C-617.55390486 1047.72174144 -614.31013474 1077.00256649 -610.5703125 1106.265625 C-610.45514282 1107.16756592 -610.33997314 1108.06950684 -610.22131348 1108.9987793 C-602.70019568 1167.36793713 -589.76279991 1225.30051647 -571.5703125 1281.265625 C-571.35286377 1281.93881775 -571.13541504 1282.6120105 -570.91137695 1283.30560303 C-546.82140245 1357.84326955 -511.21622098 1430.03765592 -461.01464844 1490.51708984 C-458.96657733 1492.99651602 -456.96037559 1495.50934546 -454.9453125 1498.015625 C-450.92297 1502.93264295 -446.67192178 1507.5994829 -442.34375 1512.24609375 C-440.29268179 1514.45313673 -438.31854713 1516.71447531 -436.35546875 1519 C-432.00147293 1523.99536925 -427.3272355 1528.65483219 -422.6328125 1533.328125 C-421.34987305 1534.61686523 -421.34987305 1534.61686523 -420.04101562 1535.93164062 C-415.04542232 1540.91961288 -409.93217675 1545.67648964 -404.5703125 1550.265625 C-403.41358161 1551.28704688 -402.25859254 1552.31044516 -401.10546875 1553.3359375 C-391.92381552 1561.43816868 -382.3869659 1568.95057517 -372.5703125 1576.265625 C-371.59529785 1576.99676514 -371.59529785 1576.99676514 -370.60058594 1577.74267578 C-301.44103234 1629.55055986 -220.04291706 1661.44802783 -116.5703125 1682.265625 C-115.57854004 1682.4419043 -114.58676758 1682.61818359 -113.56494141 1682.79980469 C-94.99583068 1686.04856097 -76.3044467 1688.23383759 -57.5703125 1690.265625 C-56.04591553 1690.43191406 -56.04591553 1690.43191406 -54.49072266 1690.6015625 C-48.19141638 1691.2726421 -41.88761715 1691.79677833 -35.5703125 1692.265625 C-34.42884766 1692.35585937 -33.28738281 1692.44609375 -32.11132812 1692.5390625 C55.51666024 1699.24829286 144.97087397 1692.83746906 230.4296875 1672.265625 C231.59081055 1671.98638184 232.75193359 1671.70713867 233.94824219 1671.41943359 C271.35368202 1662.24483201 307.00392477 1648.43187386 341.4296875 1631.265625 C342.41888184 1630.77304199 343.40807617 1630.28045898 344.42724609 1629.77294922 C364.37946004 1619.76878702 383.28013296 1608.24990162 401.4296875 1595.265625 C402.17428223 1594.73356445 402.91887695 1594.20150391 403.68603516 1593.65332031 C418.07699168 1583.31997552 432.01631058 1572.43257123 445.05859375 1560.42578125 C447.08444649 1558.58015265 449.13530608 1556.77465495 451.203125 1554.9765625 C485.1271242 1525.34973461 513.46383503 1490.61165177 535.4296875 1451.265625 C535.83106934 1450.55325684 536.23245117 1449.84088867 536.64599609 1449.10693359 C578.69841612 1373.91221027 588.51574055 1282.34199095 565.6171875 1199.6015625 C553.94252158 1159.10048714 533.94917191 1121.84808255 505.0390625 1091.0625 C502.65491021 1088.50703138 500.35226644 1085.89861692 498.0546875 1083.265625 C479.18262486 1062.27045531 454.43789253 1043.35210008 429.4296875 1030.265625 C429.37562744 1031.01150879 429.32156738 1031.75739258 429.26586914 1032.52587891 C424.32846952 1096.51498225 402.88596303 1161.18261704 374.4296875 1218.265625 C374.03426758 1219.06049316 373.63884766 1219.85536133 373.23144531 1220.67431641 C363.72135272 1239.62315492 352.19953235 1257.36412008 339.4296875 1274.265625 C338.72247559 1275.20245117 338.72247559 1275.20245117 338.00097656 1276.15820312 C334.88613928 1280.25678959 331.6872627 1284.27979103 328.4296875 1288.265625 C327.98318848 1288.81653809 327.53668945 1289.36745117 327.07666016 1289.93505859 C319.67187747 1298.99876459 311.55185156 1307.34982851 303.3046875 1315.640625 C302.79966705 1316.15091248 302.29464661 1316.66119995 301.77432251 1317.18695068 C295.0084676 1324.00732353 287.98201895 1330.31308386 280.4296875 1336.265625 C279.67896973 1336.87035645 278.92825195 1337.47508789 278.15478516 1338.09814453 C267.6732367 1346.53649683 256.92741081 1354.27383578 245.4296875 1361.265625 C244.69169922 1361.71502441 243.95371094 1362.16442383 243.19335938 1362.62744141 C189.64112323 1394.96757716 128.61588622 1412.31815643 66.4296875 1417.265625 C65.56875488 1417.33475098 64.70782227 1417.40387695 63.82080078 1417.47509766 C-18.91063575 1423.64616919 -104.10685304 1408.59611727 -222.5703125 1335.265625 C-223.60288738 1334.41511115 -224.63682041 1333.56624436 -225.671875 1332.71875 C-239.85868906 1320.98515455 -253.42568959 1307.94982869 -264.5703125 1293.265625 C-265.56740295 1292.00653785 -266.5662467 1290.74883808 -267.56640625 1289.4921875 C-293.31554406 1256.87225542 -310.55298231 1219.50213349 -320.5703125 1179.265625 C-320.77881836 1178.43546875 -320.98732422 1177.6053125 -321.20214844 1176.75 C-326.49219147 1155.19731204 -328.08784396 1133.11142205 -327.96142578 1110.97851562 C-327.94527908 1107.63370241 -327.9614366 1104.2900908 -327.98046875 1100.9453125 C-327.99901051 1082.16774744 -326.33221494 1063.57542089 -322.3203125 1045.203125 C-322.11051758 1044.22746582 -321.90072266 1043.25180664 -321.68457031 1042.24658203 C-316.2305319 1017.75063028 -307.37063812 994.39529157 -295.5703125 972.265625 C-295.19293945 971.54955078 -294.81556641 970.83347656 -294.42675781 970.09570312 C-283.92843687 950.2684074 -271.10363442 932.1588255 -255.8359375 915.71484375 C-253.86273733 913.58174633 -251.95736547 911.41203513 -250.0703125 909.203125 C-243.48775367 901.64479862 -236.26322003 894.68257525 -228.5703125 888.265625 C-227.76279541 887.58741699 -227.76279541 887.58741699 -226.93896484 886.89550781 C-153.6262154 825.52377586 -60.15616878 797.85147573 33.9921875 791.140625 C35.0531665 791.06497314 36.11414551 790.98932129 37.20727539 790.91137695 C59.74747439 789.43056067 82.30385479 789.06235259 104.88587189 789.07674408 C107.08885276 789.07814675 109.29183075 789.07803984 111.49481201 789.07794189 C134.85647433 789.08565961 158.12055187 789.61958264 181.4296875 791.265625 C182.57598633 791.34039063 183.72228516 791.41515625 184.90332031 791.4921875 C251.11485348 795.82734699 251.11485348 795.82734699 270.4296875 802.265625 C258.30906449 738.97095117 236.2799196 675.10568827 181.12158203 636.68237305 C145.44742624 612.48417722 105.05121796 602.69149687 62.63085938 598.57519531 C60.4296875 598.265625 60.4296875 598.265625 58.4296875 597.265625 C56.9059107 597.16563881 55.37786799 597.1273027 53.85083008 597.12036133 C52.89835892 597.11398148 51.94588776 597.10760162 50.96455383 597.10102844 C49.41008797 597.09935921 49.41008797 597.09935921 47.82421875 597.09765625 C46.7528215 597.09432785 45.68142426 597.09099945 44.57756042 597.08757019 C42.29853749 597.08249552 40.01950709 597.08016203 37.74047852 597.08032227 C34.30146412 597.07816223 30.86278457 597.06008654 27.42382812 597.04101562 C15.89237861 597.01088438 4.8133168 597.29020193 -6.5703125 599.265625 C-8.53871339 599.5544725 -10.50745108 599.84103673 -12.4765625 600.125 C-49.89636478 605.95909334 -86.58901921 617.92439882 -117.5703125 640.265625 C-118.15409668 640.68408691 -118.73788086 641.10254883 -119.33935547 641.53369141 C-127.60562669 647.5236414 -135.20079367 654.21155084 -142.5703125 661.265625 C-143.12332031 661.78608398 -143.67632813 662.30654297 -144.24609375 662.84277344 C-155.52965154 673.4959293 -165.08598448 685.2752663 -173.5703125 698.265625 C-177.31931495 696.90174059 -180.40101772 695.19574258 -183.6953125 692.953125 C-185.26925781 691.88578125 -185.26925781 691.88578125 -186.875 690.796875 C-188.10693442 689.95336386 -189.33869182 689.10959416 -190.5703125 688.265625 C-192.0519536 687.2550181 -193.53373228 686.2446129 -195.015625 685.234375 C-203.19408892 679.65263655 -211.35363551 674.04330573 -219.51074219 668.43041992 C-224.69127522 664.86671246 -229.87982688 661.31481741 -235.0703125 657.765625 C-241.55737696 653.32984737 -248.03777809 648.88459234 -254.51171875 644.4296875 C-260.49645495 640.31295047 -266.49183699 636.2118499 -272.48852539 632.11254883 C-276.99415615 629.03158356 -281.4941139 625.94263046 -285.98828125 622.8449707 C-293.13829261 617.91723681 -300.32607648 613.05395525 -307.5703125 608.265625 C-305.91761969 603.04768922 -302.70875479 598.99824462 -299.5078125 594.640625 C-298.9214502 593.83665283 -298.33508789 593.03268066 -297.73095703 592.2043457 C-293.20854491 586.04412387 -288.5151572 580.09378697 -283.5703125 574.265625 C-282.71145443 573.2337259 -281.85342017 572.20114073 -280.99609375 571.16796875 C-269.24750225 557.06711826 -256.80912846 543.04250985 -242.7890625 531.1484375 C-241.04108349 529.66511728 -239.31675891 528.1539209 -237.6015625 526.6328125 C-228.38893097 518.50162845 -218.65839343 511.27141513 -208.5703125 504.265625 C-207.83796387 503.75499512 -207.10561523 503.24436523 -206.35107422 502.71826172 C-158.22551942 469.35106739 -102.25192122 447.56823715 -44.4453125 438.453125 C-43.29450195 438.27040039 -42.14369141 438.08767578 -40.95800781 437.89941406 C-36.83557706 437.29155496 -32.70740512 436.7611799 -28.5703125 436.265625 C-27.53446014 436.14034424 -26.49860779 436.01506348 -25.43136597 435.88598633 C-6.36622581 433.63693447 12.42166546 432.77201115 31.6171875 432.890625 C32.95211657 432.89507769 34.28704714 432.89910077 35.62197876 432.90270996 C56.35723582 432.9681217 76.8530444 433.62158844 97.4296875 436.265625 C98.58146484 436.41016113 99.73324219 436.55469727 100.91992188 436.70361328 C173.651915 446.13454232 245.16147436 473.13832443 300.4296875 522.265625 C301.16872314 522.91853516 301.90775879 523.57144531 302.66918945 524.24414062 C315.82347975 535.95737464 328.68218551 548.27943239 339.4296875 562.265625 C340.30203194 563.31839613 341.17863768 564.3676452 342.05859375 565.4140625 C356.04218557 582.17966809 367.6640727 600.79066371 378.13623047 619.90917969 C379.32316482 622.0715599 380.53174205 624.22013383 381.74609375 626.3671875 C419.1052668 693.44143768 434.40860479 775.32185608 437.4296875 851.265625 C438.12408936 851.47388916 438.81849121 851.68215332 439.53393555 851.89672852 C448.13812102 854.60635733 456.16367781 858.23701134 464.2421875 862.203125 C464.91577301 862.53132233 465.58935852 862.85951965 466.28335571 863.19766235 C478.96288933 869.3837803 491.27321558 876.10418413 503.4296875 883.265625 C505.12486471 884.24893119 506.82017523 885.23200759 508.515625 886.21484375 C531.67315768 899.75695629 554.27083578 915.1605784 574.5390625 932.7734375 C577.20386949 935.07093326 579.92382467 937.26658712 582.6796875 939.453125 C597.90232127 951.86576678 612.93222537 966.05417252 625.59375 981.09375 C627.10484115 982.88133868 628.64238697 984.63119329 630.203125 986.375 C639.25058936 996.54374931 647.40731797 1007.27765066 655.4296875 1018.265625 C655.96480957 1018.99007812 656.49993164 1019.71453125 657.05126953 1020.4609375 C665.72786172 1032.22431478 673.2043997 1044.56783844 680.4296875 1057.265625 C680.94031738 1058.15378906 681.45094727 1059.04195312 681.97705078 1059.95703125 C700.68223893 1092.6174562 713.995652 1127.8916449 723.4296875 1164.265625 C723.70119629 1165.31041016 723.97270508 1166.35519531 724.25244141 1167.43164062 C741.64257959 1235.61730907 743.83259326 1308.0375036 731.4296875 1377.265625 C731.25743652 1378.25014648 731.08518555 1379.23466797 730.90771484 1380.24902344 C715.34269409 1467.8902945 674.67756254 1549.46896967 617.4296875 1617.265625 C616.42315592 1618.46873229 615.41664471 1619.67185663 614.41015625 1620.875 C602.94415381 1634.49973695 590.55831179 1647.22509508 577.9921875 1659.828125 C577.47781128 1660.34518005 576.96343506 1660.86223511 576.43347168 1661.3949585 C571.15600838 1666.69328883 565.85162353 1671.9081867 560.16625977 1676.77416992 C557.58278444 1678.99298768 555.10911059 1681.31947706 552.6171875 1683.640625 C547.97064622 1687.93313708 543.1886951 1691.99900531 538.2578125 1695.96484375 C535.75152174 1698.00380128 533.29374432 1700.089376 530.84667969 1702.19873047 C522.99414052 1708.94962005 514.78082252 1715.14795528 506.4296875 1721.265625 C505.71119629 1721.79446289 504.99270508 1722.32330078 504.25244141 1722.86816406 C478.78907904 1741.58443881 452.15999455 1758.12096141 424.4296875 1773.265625 C423.5540918 1773.74741211 422.67849609 1774.22919922 421.77636719 1774.72558594 C344.3424181 1817.16216091 256.69481558 1839.26607597 73.81530952 1857.70153308 C70.74572459 1857.69834652 67.67618188 1857.70463485 64.60660315 1857.71057183 C57.32884231 1857.72441861 50.05119926 1857.72322806 42.7734375 1857.71166992 C36.22514915 1857.70149625 29.67715916 1857.70855712 23.12890625 1857.73217773 C-11.83220728 1857.85531228 -46.51951503 1857.89310394 -81.27473831 1853.54697418 C-86.39025092 1852.92000891 -91.51355983 1852.35786569 -96.63484669 1851.78034782 C-181.17162263 1842.15907832 -265.36269121 1820.23587812 -342.5703125 1784.265625 C-343.63040527 1783.7720752 -344.69049805 1783.27852539 -345.78271484 1782.77001953 C-389.57425124 1762.27171163 -431.23283775 1737.80921923 -469.5703125 1708.265625 C-470.21436035 1707.77030273 -470.8584082 1707.27498047 -471.52197266 1706.76464844 C-475.57113046 1703.63909163 -479.5833167 1700.47000717 -483.5703125 1697.265625 C-484.4984375 1696.52054688 -485.4265625 1695.77546875 -486.3828125 1695.0078125 C-498.59201936 1685.10557787 -510.30883288 1674.76284405 -521.74316406 1663.97949219 C-524.09255173 1661.77576405 -526.46463894 1659.59752631 -528.83911133 1657.42089844 C-536.19798274 1650.67248498 -543.27806838 1643.84205453 -549.7890625 1636.265625 C-551.6445646 1634.18225422 -553.58254351 1632.22281293 -555.5703125 1630.265625 C-559.45041783 1626.42994836 -563.02716467 1622.41186182 -566.5703125 1618.265625 C-567.43269531 1617.26917969 -568.29507813 1616.27273438 -569.18359375 1615.24609375 C-580.9564765 1601.62398365 -592.43999299 1587.8132205 -603.0859375 1573.28710938 C-604.56110599 1571.27816281 -606.04956878 1569.27958909 -607.5390625 1567.28125 C-632.20033396 1533.93476795 -653.14795644 1497.97393169 -672.09423828 1461.13427734 C-673.04233948 1459.29170555 -673.99357283 1457.45074017 -674.94873047 1455.61181641 C-715.53050362 1377.36920884 -740.75333938 1290.85823449 -782.45178223 988.02862549 C-782.55728009 985.56941708 -782.66881537 983.11061716 -782.78417969 980.65185547 C-786.30617065 904.89651137 -782.17154847 828.56044466 -773.5703125 753.265625 C-773.48499268 752.51776733 -773.39967285 751.76990967 -773.31176758 750.99938965 C-768.01992936 705.02623344 -759.95966037 659.35201528 -749.5703125 614.265625 C-749.37242126 613.40594116 -749.17453003 612.54625732 -748.97064209 611.66052246 C-732.3142713 539.64423786 -707.84575106 469.76893421 -675.15136719 403.47460938 C-673.73117941 400.59212818 -672.32432478 397.70363782 -670.921875 394.8125 C-664.66318854 381.9953696 -657.71696204 369.6058162 -650.5703125 357.265625 C-650.12059082 356.47881348 -649.67086914 355.69200195 -649.20751953 354.88134766 C-634.79027407 329.69893444 -618.2314943 305.27794468 -600.5703125 282.265625 C-599.65435775 281.0564364 -598.73897541 279.84681396 -597.82421875 278.63671875 C-592.56828584 271.71304735 -587.13493835 264.94317603 -581.5703125 258.265625 C-581.14105469 257.75 -580.71179688 257.234375 -580.26953125 256.703125 C-574.60654026 249.91406375 -568.82598409 243.26844581 -562.84375 236.7578125 C-560.83946407 234.56067432 -558.88417834 232.33282419 -556.9453125 230.078125 C-553.96318597 226.64097916 -550.78032054 223.45701753 -547.5390625 220.265625 C-545.63044795 218.32671498 -543.84320698 216.32862949 -542.0703125 214.265625 C-536.68132941 208.02124777 -530.82028227 202.41794277 -524.5703125 197.046875 C-522.48694172 195.1913729 -520.52750043 193.25339399 -518.5703125 191.265625 C-514.73458562 187.38546885 -510.7160824 183.80936891 -506.5703125 180.265625 C-505.55168669 179.3832702 -504.53349113 178.50041855 -503.515625 177.6171875 C-488.70341754 164.7958335 -473.46240877 152.72395996 -457.5703125 141.265625 C-456.85230469 140.74613281 -456.13429688 140.22664062 -455.39453125 139.69140625 C-398.59831056 98.7011839 -335.63201987 68.07264302 -269.5703125 45.265625 C-267.76046875 44.63962402 -267.76046875 44.63962402 -265.9140625 44.00097656 C-219.08959397 27.98561218 -170.48403705 17.41460412 -121.5703125 10.265625 C-120.80309875 10.15261047 -120.03588501 10.03959595 -119.24542236 9.92315674 C-98.29442356 6.84172613 -77.34225427 4.32154371 -56.22958374 2.64813232 C-52.89032974 2.38011899 -49.55494766 2.08133352 -46.21932983 1.77146912 C-30.78606943 0.38038121 -15.48953548 -0.03067165 0 0 Z " fill="#FDFDFD" transform="translate(1556.5703125,570.734375)"/>
<path d="M0 0 C2.43614502 -0.00194085 4.87226763 -0.00704157 7.30840683 -0.01256943 C36.4189209 -0.06143134 65.60432503 0.72771688 94.54757309 4.06052017 C95.28071732 4.14189224 96.01386154 4.22326431 96.76922226 4.3071022 C160.26561399 11.38829062 160.26561399 11.38829062 172.11007309 17.31052017 C172.40112073 25.96692377 171.53542834 34.47482619 170.54757309 43.06052017 C170.46148788 43.81362473 170.37540268 44.56672928 170.28670883 45.34265518 C164.87241913 91.95657193 154.64697676 138.89920548 134.11007309 181.31052017 C133.44706491 182.71535118 132.7842985 184.12029633 132.12179184 185.52536392 C109.57382254 232.63521921 70.65076688 269.47486084 21.39083481 287.25973892 C0.92946683 294.23942223 -20.43423512 298.06857402 -41.88992691 300.31052017 C-42.67504654 300.40550797 -43.46016617 300.50049576 -44.2690773 300.59836197 C-53.01242796 301.55902898 -61.78047527 301.49660123 -70.56546402 301.49582291 C-73.29031835 301.49799065 -76.0147542 301.51614753 -78.73953629 301.53512955 C-118.76015 301.66312387 -159.56178281 293.57097093 -194.88992691 274.31052017 C-195.49771988 273.98583755 -196.10551285 273.66115494 -196.73172379 273.32663345 C-209.40227992 266.53497196 -220.4624285 258.18319081 -230.88992691 248.31052017 C-231.78582535 247.47907486 -232.68172379 246.64762955 -233.60477066 245.79098892 C-253.09041368 227.12521868 -264.73250477 202.84025715 -268.88992691 176.31052017 C-269.07297379 175.1477858 -269.25602066 173.98505142 -269.44461441 172.78708267 C-271.37239065 156.62521235 -271.55713891 138.6662332 -265.88992691 123.31052017 C-265.55090347 122.13876236 -265.21188004 120.96700455 -264.86258316 119.75973892 C-258.31661339 97.69912194 -245.24314715 79.24442708 -228.88992691 63.31052017 C-228.3781691 62.75364517 -227.86641129 62.19677017 -227.33914566 61.62302017 C-190.87540934 22.89494048 -128.55560438 8.44898412 -77.88992691 3.31052017 C-76.61053238 3.17371841 -75.33113785 3.03691666 -74.01297379 2.89596939 C-49.38233494 0.32808771 -24.73898004 0.01505706 0 0 Z " fill="#000000" transform="translate(1658.8899269104004,1523.6894798278809)"/>
<path d="M0 0 C0.66 0.33 1.32 0.66 2 1 C-13.18 16.18 -28.36 31.36 -44 47 C-44 44 -44 44 -41.40234375 41.14453125 C-40.25396761 40.02706066 -39.09858784 38.9167569 -37.9375 37.8125 C-36.73249773 36.63994697 -35.52935769 35.46547701 -34.328125 34.2890625 C-33.74869141 33.72219727 -33.16925781 33.15533203 -32.57226562 32.57128906 C-30.68441105 30.68460707 -28.91887352 28.71822315 -27.1875 26.6875 C-21.94173662 20.53729466 -16.1556937 15.0702686 -10.03125 9.80859375 C-6.53428909 6.69495355 -3.27032265 3.34860165 0 0 Z " fill="#AEAEAE" transform="translate(1042,758)"/>
<path d="M0 0 C0.66 0.33 1.32 0.66 2 1 C-10.87 13.87 -23.74 26.74 -37 40 C-37 36.34028724 -36.34713642 35.94273692 -33.88671875 33.375 C-33.22091797 32.67358887 -32.55511719 31.97217773 -31.86914062 31.24951172 C-31.14919922 30.50717285 -30.42925781 29.76483398 -29.6875 29 C-28.95853516 28.2383252 -28.22957031 27.47665039 -27.47851562 26.69189453 C-25.32824115 24.45210423 -23.16674016 22.22385442 -21 20 C-20.43619629 19.41959961 -19.87239258 18.83919922 -19.29150391 18.24121094 C-14.23312205 13.05137931 -9.08087717 8.03550679 -3.55859375 3.33984375 C-2.32496821 2.27935864 -1.15031749 1.15031749 0 0 Z " fill="#B1B1B1" transform="translate(1318,1098)"/>
<path d="M0 0 C0.66 0.33 1.32 0.66 2 1 C-9.22 12.22 -20.44 23.44 -32 35 C-32 31.28950571 -31.25199751 30.84513504 -28.74609375 28.234375 C-28.05580078 27.50863281 -27.36550781 26.78289062 -26.65429688 26.03515625 C-25.92275391 25.28105469 -25.19121094 24.52695313 -24.4375 23.75 C-23.73302734 23.01136719 -23.02855469 22.27273438 -22.30273438 21.51171875 C-10.43637877 9.10946321 -10.43637877 9.10946321 -4.625 4.125 C-2.26003218 2.11909405 -2.26003218 2.11909405 0 0 Z " fill="#B0B0B0" transform="translate(1329,1458)"/>
</svg>
