<?xml version="1.0" encoding="utf-8"?>
<!-- Generator: Adobe Illustrator 25.4.1, SVG Export Plug-In . SVG Version: 6.00 Build 0)  -->
<svg version="1.1" id="Layer_1" xmlns="http://www.w3.org/2000/svg" xmlns:xlink="http://www.w3.org/1999/xlink" x="0px" y="0px"
	 viewBox="0 0 512 512" style="enable-background:new 0 0 512 512;" xml:space="preserve">
<style type="text/css">
	.st0{fill:#262626;}
</style>
<g>
	<path class="st0" d="M256.6,145c-60.7,0-109.9,49.2-109.9,109.8c0,20.7,5.8,40.9,16.8,58.4l2.6,4.2L155,358l41.6-10.9l4,2.4
		c16.9,10,36.2,15.3,55.9,15.3h0c60.5,0,109.8-49.3,109.9-109.9C366.4,194.2,317.2,145,256.6,145z M321.3,302
		c-2.7,7.7-15.9,14.8-22.3,15.7c-6.9,1.2-14.1,0.7-20.8-1.3c-6.4-2-12.7-4.3-18.8-7c-33.1-14.3-54.8-47.7-56.4-49.9
		c-1.7-2.2-13.5-17.9-13.5-34.2s8.5-24.2,11.6-27.6c2.2-2.5,5.4-4,8.8-4.1c2.2,0,4.3,0,6.3,0.1c2,0.1,4.7-0.8,7.4,5.7
		c2.8,6.6,9.4,22.9,10.2,24.5c1.1,1.8,1.2,3.9,0.3,5.8c-0.8,2-1.9,3.9-3.3,5.6c-1.6,1.9-3.5,4.3-5,5.8c-1.6,1.6-3.4,3.4-1.4,6.7
		c1.9,3.3,8.5,14.1,18.4,22.9c12.6,11.3,23.2,14.7,26.6,16.4s5.2,1.4,7.2-0.8c1.9-2.2,8.3-9.6,10.5-13c2.2-3.3,4.4-2.7,7.4-1.7
		c3,1.1,19.3,9.1,22.6,10.7c3.3,1.7,5.5,2.5,6.3,3.9C324,287.7,324,294.2,321.3,302z"/>
	<path class="st0" d="M256,19C125.1,19,19,125.1,19,256s106.1,237,237,237s237-106.1,237-237S386.9,19,256,19z M388.7,254.9
		c0,72.9-59.3,132.2-132.2,132.2h-0.1c-22.1,0-43.8-5.5-63.2-16.1l-70.1,18.4l18.7-68.5c-11.6-20.1-17.7-42.9-17.6-66.1
		c0-72.9,59.3-132.2,132.2-132.2C329.6,122.6,388.7,181.8,388.7,254.9C388.7,254.9,388.7,254.9,388.7,254.9z"/>
</g>
</svg>
