<svg width="42" height="46" viewBox="0 0 42 46" fill="none" xmlns="http://www.w3.org/2000/svg">
<path fill-rule="evenodd" clip-rule="evenodd" d="M35.8367 1.05957H38.3832L38.3032 1.50988H37.8258C37.5872 1.50988 37.4282 1.45716 37.4282 1.45716V2.27854C37.4282 2.56968 37.3485 2.8615 37.3485 3.15263C37.3485 3.44411 37.2688 3.73559 37.2688 3.89476H36.6325V3.15263C36.6325 2.8615 36.7121 2.56968 36.7121 2.27854C36.7121 1.96053 36.7911 1.58981 36.7911 1.45716H36.4731H36.1544C35.9954 1.45716 35.8364 1.50988 35.8364 1.50988L35.8367 1.05957ZM38.7009 1.05957H39.5759C39.5759 1.2184 39.6556 1.37758 39.6556 1.45682C39.6556 1.58947 39.8146 1.82755 39.8943 2.11903C39.8943 2.19861 39.9739 2.4105 39.9739 2.56934C40.0529 2.86082 40.2126 3.15229 40.2126 3.15229C40.2126 2.99346 40.3716 2.78157 40.4513 2.49009C40.5303 2.2782 40.69 1.96019 40.7693 1.7483C40.849 1.50954 41.008 1.2184 41.008 1.05957H41.963V1.96019C41.963 2.2782 41.8834 2.70198 41.8834 2.99346V3.89442H41.247V3.31147V2.56934C41.247 2.33092 41.3267 2.11903 41.3267 1.95985V1.66906L40.4516 3.89476H39.8146C39.8146 3.73559 39.6556 3.44445 39.6556 3.23222C39.5759 2.8615 39.4169 2.56968 39.4169 2.49043C39.4169 2.3316 39.2579 2.04012 39.1782 1.74864V2.49043C39.1782 2.70232 39.0986 2.9938 39.0986 3.23222V3.89476H38.4622C38.4622 3.60329 38.5419 3.23222 38.5419 2.91455C38.5419 2.64961 38.6209 2.27854 38.6209 1.96053C38.6212 1.66906 38.7009 1.37758 38.7009 1.05957ZM8.09297 46.1802H6.39533L5.73241 43.796H2.60236L1.93945 46.1802H0.294922L3.18595 35.6353H5.04259L8.09297 46.1802ZM5.25471 42.0736L4.141 38.0997L3.10628 42.0736H5.25471ZM14.1934 46.1802H12.761V45.0942C12.5223 45.571 12.2039 45.8894 11.9121 46.0217C11.6207 46.1805 11.302 46.3666 10.9837 46.3666C10.4001 46.3666 9.81682 45.9686 9.39224 45.3064C8.91489 44.6973 8.70277 43.6378 8.70277 42.3923C8.70277 41.121 8.91523 40.0074 9.31291 39.3452C9.73715 38.7096 10.3473 38.3123 11.0637 38.3123C11.6207 38.3123 12.2043 38.7096 12.7079 39.4248V35.6356H14.1934V46.1802ZM10.1617 42.2066C10.1617 43.0011 10.268 43.7164 10.4004 44.0347C10.6394 44.5116 10.984 44.8292 11.382 44.8292C11.7531 44.8292 12.0449 44.5908 12.2836 44.2997C12.5223 43.9017 12.7079 43.2395 12.7079 42.445C12.7079 41.5968 12.5754 40.8819 12.3367 40.4839C12.1243 40.0867 11.7531 39.8217 11.382 39.8217C11.0637 39.8217 10.7719 40.0867 10.5066 40.405C10.2676 40.8023 10.1617 41.4114 10.1617 42.2066ZM15.4133 42.2066C15.4133 41.5968 15.4926 40.9346 15.7317 40.3254C15.9969 39.6898 16.3418 39.2129 16.766 38.8946C17.2168 38.5504 17.7739 38.312 18.3047 38.312C19.1269 38.312 19.8961 38.7092 20.4 39.4245C20.957 40.219 21.2488 41.2791 21.2488 42.392C21.2488 43.5048 20.957 44.5116 20.4 45.2272C19.8164 45.9686 19.1269 46.3666 18.3047 46.3666C17.8008 46.3666 17.2969 46.1805 16.8195 45.8897C16.3421 45.5714 15.9972 45.0945 15.732 44.5119C15.4933 43.9021 15.4137 43.1076 15.4137 42.3124L15.4133 42.2066ZM16.8985 42.392C16.8985 43.1872 16.9782 43.7963 17.2168 44.1936C17.4821 44.5908 17.8801 44.8292 18.2516 44.8292C18.5961 44.8292 18.9942 44.5908 19.2328 44.1936C19.4981 43.7963 19.6571 43.1872 19.6571 42.392C19.6571 41.5968 19.4981 40.9346 19.2328 40.5373C18.9942 40.087 18.5961 39.8217 18.2516 39.8217C17.8801 39.8217 17.509 40.0867 17.2965 40.4839C17.0578 40.9342 16.8985 41.5968 16.8985 42.392ZM22.4157 46.1802V35.6353H23.9005V39.4245C24.3254 38.7089 24.9352 38.312 25.5185 38.312C26.2079 38.312 26.7919 38.7092 27.2427 39.3449C27.6935 40.0071 27.959 41.0142 27.959 42.3124C27.959 43.5844 27.6938 44.6973 27.2427 45.3064C26.7653 45.9686 26.1821 46.3666 25.5981 46.3666C25.2801 46.3666 24.9352 46.1805 24.6431 46.0217C24.3251 45.8894 24.0333 45.4921 23.8736 45.0942V46.1802H22.4157ZM23.9005 42.2066C23.9005 43.0011 24.0336 43.7164 24.1657 44.0347C24.4044 44.5116 24.8028 44.8292 25.227 44.8292C25.5981 44.8292 25.8899 44.5908 26.102 44.2997C26.3407 43.9813 26.4732 43.2395 26.4732 42.445C26.4732 41.5968 26.3407 40.8819 26.102 40.4839C25.8899 40.0867 25.5181 39.8217 25.147 39.8217C24.8024 39.8217 24.5106 40.0867 24.272 40.405C24.0336 40.8023 23.9005 41.4114 23.9005 42.2066ZM32.4677 43.7963L33.9532 44.0347C33.7935 44.8292 33.4224 45.4921 33.0516 45.7833C32.6274 46.1016 32.0434 46.3666 31.4336 46.3666C30.532 46.3666 29.736 45.8897 29.2849 45.0945C28.9137 44.4323 28.7541 43.5048 28.7541 42.4454C28.7541 41.1999 28.9662 40.1404 29.4435 39.4248C29.9209 38.7092 30.6107 38.3123 31.3533 38.3123C32.1752 38.3123 32.8388 38.7096 33.2899 39.4248C33.7935 40.2193 34.0853 41.4118 34.0853 42.9222H30.2403C30.2403 43.5844 30.3199 44.0347 30.5855 44.3789C30.8235 44.6973 31.1156 44.8292 31.434 44.8292C31.6992 44.8292 31.9379 44.7769 32.0438 44.5908C32.1759 44.432 32.3356 44.1143 32.4677 43.7963ZM32.6008 41.6764C32.6008 41.1203 32.3887 40.6169 32.229 40.3251C32.0169 40.0068 31.6989 39.8217 31.4071 39.8217C31.0618 39.8217 30.7442 40.0867 30.5852 40.405C30.3199 40.7227 30.2399 41.1995 30.2399 41.6764H32.6008Z" fill="#1E1E1E"/>
<path fill-rule="evenodd" clip-rule="evenodd" d="M0.0292969 0H12.7606L0.0292969 30.9729V0ZM21.4337 0H34.3239V30.5749L21.4337 0ZM17.243 11.8431L24.2719 30.4164H19.9219L16.9247 24.5348H12.1504L17.243 11.8431Z" fill="#1E1E1E"/>
</svg>
