<svg width="169" height="46" viewBox="0 0 169 46" fill="none" xmlns="http://www.w3.org/2000/svg">
<path fill-rule="evenodd" clip-rule="evenodd" d="M159.264 2.85108H158.466V4.37472H159.264C159.715 4.37472 160.032 4.31815 160.213 4.20651C160.394 4.09336 160.486 3.90264 160.486 3.63526C160.486 3.35724 160.389 3.15648 160.198 3.0345C160.006 2.91253 159.694 2.85108 159.264 2.85108ZM15.3511 43.6283V35.083H16.8439V38.1488C17.541 37.5818 18.4217 37.2971 19.4841 37.2971C20.1356 37.2971 20.7024 37.3886 21.1839 37.5696C21.6654 37.7488 22.0112 37.9991 22.2182 38.3176C22.4248 38.6361 22.5294 39.0997 22.5294 39.7044V43.628H21.0338V39.7044C21.0338 39.1815 20.8721 38.7991 20.5493 38.5607C20.2264 38.3219 19.7672 38.2005 19.1754 38.2005C18.7469 38.1981 18.3222 38.2806 17.9262 38.4432C17.5352 38.6042 17.2576 38.8232 17.0934 39.0997C16.9265 39.3743 16.8442 39.7561 16.8442 40.2419V43.628L15.3511 43.6283ZM28.0651 42.6893L28.2806 43.6164C27.8608 43.6779 27.4842 43.7101 27.1531 43.7101C26.6092 43.7101 26.1898 43.6505 25.8896 43.5288C25.5918 43.4093 25.3827 43.2502 25.2607 43.0537C25.1387 42.8581 25.0767 42.4447 25.0767 41.816V38.2547H23.9803V37.4388H25.0767V35.9049L26.5637 35.2761V37.4388H28.0651V38.2547H26.5637V41.8738C26.5637 42.174 26.5891 42.365 26.6401 42.4505C26.6939 42.536 26.7786 42.6035 26.8981 42.6555C27.0171 42.7054 27.1864 42.731 27.4075 42.731C27.575 42.731 27.7933 42.7173 28.0651 42.6893ZM32.7878 42.6893L33.0034 43.6164C32.5836 43.6779 32.207 43.7101 31.8756 43.7101C31.332 43.7101 30.9122 43.6505 30.612 43.5288C30.3146 43.4093 30.1054 43.2502 29.9832 43.0537C29.8612 42.8581 29.7991 42.4447 29.7991 41.816V38.2547H28.7025V37.4388H29.7991V35.9049L31.2861 35.2761V37.4388H32.7875V38.2547H31.2861V41.8738C31.2861 42.174 31.3115 42.365 31.3626 42.4505C31.4164 42.536 31.5011 42.6035 31.6203 42.6555C31.7392 42.7054 31.9089 42.731 32.1299 42.731C32.2978 42.731 32.516 42.7173 32.7878 42.6893ZM34.2498 46V37.4385H35.6093V38.2425C35.9191 37.9344 36.2895 37.6933 36.6974 37.5344C37.0994 37.3768 37.5895 37.2974 38.1648 37.2974C38.9184 37.2974 39.5809 37.4349 40.156 37.7056C40.7341 37.9782 41.1676 38.362 41.4593 38.8575C41.7543 39.3531 41.9016 39.896 41.9016 40.4867C41.9016 41.1194 41.7399 41.6907 41.414 42.1981C41.0912 42.7054 40.6207 43.0933 40.0037 43.3637C39.3903 43.6318 38.7273 43.7694 38.0572 43.7676C37.5586 43.7676 37.1141 43.694 36.7172 43.5465C36.321 43.3996 35.9979 43.2125 35.7426 42.9874V45.9997L34.2498 46ZM35.6011 40.5682C35.6011 41.3637 35.8303 41.9529 36.2895 42.3349C36.7481 42.7149 37.3064 42.9062 37.9578 42.9062C38.621 42.9062 39.1902 42.7091 39.6632 42.313C40.1364 41.9194 40.3743 41.3083 40.3743 40.4809C40.3743 39.691 40.1419 39.1021 39.6803 38.7085C39.2183 38.3164 38.6659 38.1193 38.0257 38.1193C37.3886 38.1193 36.8245 38.3283 36.3342 38.7462C35.8447 39.1632 35.6011 39.7725 35.6011 40.5682ZM44.1169 38.6324V37.4385H45.8188V38.6324H44.1169ZM44.1169 43.6283V42.4326H45.8188V43.6283H44.1169ZM47.3037 43.7731L50.8305 34.9376H52.0265L48.5076 43.7731H47.3037ZM52.0265 43.7731L55.5535 34.9376H56.7492L53.2304 43.7731H52.0265ZM59.497 43.6283L56.8 37.4385H58.3442L59.7465 41.0121L60.2674 42.341C60.2904 42.2729 60.4435 41.8473 60.7236 41.0638L62.1259 37.4385H63.6609L64.9816 41.0276L65.4234 42.2117L65.9272 41.0157L67.4369 37.4385H68.8906L66.1336 43.6283H64.5842L63.1819 39.9216L62.8395 38.8648L61.0577 43.628L59.497 43.6283ZM71.772 43.6283L69.0746 37.4385H70.6188L72.0211 41.0121L72.5421 42.341C72.5647 42.2729 72.7182 41.8473 72.9982 41.0638L74.4006 37.4385H75.9356L77.2563 41.0276L77.698 42.2117L78.2022 41.0157L79.7118 37.4385H81.1655L78.4085 43.6283H76.8592L75.4568 39.9216L75.1144 38.8648L73.3324 43.628L71.772 43.6283ZM84.0463 43.6283L81.3493 37.4385H82.8934L84.2958 41.0121L84.817 42.341C84.8397 42.2729 84.9928 41.8473 85.2729 41.0638L86.6755 37.4385H88.2105L89.5312 41.0276L89.973 42.2117L90.4768 41.0157L91.9865 37.4385H93.4402L90.6832 43.6283H89.1338L87.7315 39.9216L87.389 38.8648L85.6073 43.628L84.0463 43.6283ZM94.1797 43.6283V42.4326H95.8826V43.6283H94.1797ZM104.231 42.8639C103.676 43.1942 103.143 43.4275 102.633 43.5644C102.12 43.6998 101.571 43.7676 100.984 43.7676C100.015 43.7676 99.2733 43.6025 98.752 43.27C98.2332 42.9378 97.9728 42.5123 97.9728 41.9967C97.9728 41.6922 98.0694 41.4157 98.2675 41.1651C98.4631 40.9144 98.7209 40.7133 99.0382 40.5625C99.3586 40.4113 99.7151 40.296 100.115 40.2181C100.406 40.1643 100.848 40.1105 101.44 40.0609C102.647 39.9596 103.537 39.8397 104.106 39.6986C104.112 39.5553 104.115 39.4641 104.115 39.4261C104.115 38.9984 103.973 38.6957 103.689 38.5226C103.31 38.2842 102.74 38.1667 101.99 38.1667C101.287 38.1667 100.769 38.2519 100.432 38.4253C100.097 38.5984 99.8511 38.9047 99.6891 39.3442L98.2302 39.2034C98.3638 38.7654 98.5815 38.4095 98.8847 38.1406C99.1877 37.8702 99.6298 37.6612 100.205 37.5161C100.78 37.3704 101.446 37.2968 102.205 37.2968C102.958 37.2968 103.567 37.3604 104.038 37.4839C104.508 37.6089 104.854 37.7646 105.077 37.9535C105.298 38.1424 105.451 38.3791 105.542 38.6677C105.59 38.8469 105.616 39.1687 105.616 39.635V41.0333C105.616 42.0107 105.647 42.6275 105.712 42.884C105.774 43.1428 105.901 43.3913 106.088 43.628H104.527C104.375 43.4117 104.274 43.1565 104.231 42.8639ZM104.106 40.5202C103.562 40.6778 102.749 40.8089 101.667 40.9187C101.052 40.9801 100.616 41.0498 100.364 41.1273C100.109 41.2055 99.9104 41.3187 99.7744 41.4695C99.6356 41.6192 99.5646 41.7844 99.5646 41.9675C99.5646 42.2479 99.7178 42.4806 100.018 42.6677C100.318 42.8523 100.76 42.9463 101.341 42.9463C101.916 42.9463 102.429 42.8584 102.876 42.6814C103.323 42.5047 103.655 42.2619 103.865 41.9556C104.026 41.719 104.105 41.3682 104.105 40.9068L104.106 40.5202ZM107.336 41.7801L108.812 41.6168C108.894 42.0329 109.126 42.3507 109.506 42.574C109.882 42.7949 110.412 42.9062 111.095 42.9062C111.781 42.9062 112.291 42.8067 112.622 42.6117C112.953 42.4146 113.121 42.1838 113.121 41.9209C113.121 41.6822 112.974 41.4972 112.678 41.36C112.475 41.2663 111.965 41.1489 111.152 41.0057C110.058 40.8107 109.296 40.6437 108.874 40.5004C108.452 40.359 108.129 40.1622 107.911 39.9115C107.693 39.6606 107.582 39.3841 107.582 39.0814C107.582 38.8049 107.674 38.5503 107.855 38.3155C108.033 38.0788 108.28 37.8836 108.588 37.7284C108.821 37.6086 109.138 37.5058 109.537 37.4221C109.962 37.336 110.395 37.2939 110.829 37.2965C111.52 37.2965 112.127 37.3683 112.651 37.5073C113.174 37.6466 113.56 37.8358 113.809 38.0743C114.059 38.3152 114.228 38.6334 114.322 39.0334L112.863 39.1745C112.795 38.8563 112.603 38.6078 112.285 38.4286C111.968 38.2495 111.517 38.1597 110.937 38.1597C110.251 38.1597 109.761 38.2397 109.469 38.3985C109.175 38.5579 109.027 38.745 109.027 38.9576C109.027 39.0948 109.09 39.2165 109.212 39.3257C109.333 39.4391 109.523 39.5307 109.784 39.6064C109.934 39.6441 110.373 39.7339 111.104 39.8729C112.161 40.0718 112.897 40.233 113.314 40.3608C113.733 40.4858 114.062 40.6711 114.3 40.9117C114.538 41.1526 114.656 41.4507 114.656 41.809C114.656 42.1591 114.509 42.4873 114.221 42.7979C113.928 43.1063 113.509 43.3451 112.963 43.5139C112.416 43.6831 111.796 43.7667 111.105 43.7667C109.957 43.7667 109.084 43.5994 108.484 43.2654C107.882 42.932 107.5 42.4365 107.336 41.7801ZM122.209 43.6283V42.7191C121.52 43.4196 120.588 43.7676 119.41 43.7676C118.891 43.7676 118.404 43.698 117.954 43.5583C117.503 43.4193 117.169 43.2423 116.951 43.0315C116.73 42.818 116.57 42.5493 116.489 42.2534C116.43 42.0463 116.398 41.7202 116.398 41.2724V37.4385H117.891V40.8706C117.891 41.4197 117.923 41.7877 117.982 41.979C118.078 42.2555 118.277 42.4703 118.579 42.6297C118.886 42.7866 119.262 42.8642 119.71 42.8642C120.157 42.8642 120.577 42.7848 120.971 42.6239C121.364 42.463 121.642 42.2415 121.803 41.965C121.968 41.6867 122.05 41.2831 122.05 40.7556V37.4385H123.543V43.6283H122.209ZM125.288 41.7801L126.764 41.6168C126.846 42.0329 127.078 42.3507 127.458 42.574C127.834 42.7949 128.365 42.9062 129.047 42.9062C129.732 42.9062 130.242 42.8067 130.574 42.6117C130.905 42.4146 131.073 42.1838 131.073 41.9209C131.073 41.6822 130.925 41.4972 130.631 41.36C130.426 41.2663 129.917 41.1489 129.104 41.0057C128.011 40.8107 127.248 40.6437 126.826 40.5004C126.404 40.359 126.081 40.1622 125.863 39.9115C125.645 39.6606 125.535 39.3841 125.535 39.0814C125.535 38.8049 125.625 38.5503 125.807 38.3155C125.985 38.0788 126.232 37.8836 126.54 37.7284C126.773 37.6086 127.09 37.5058 127.489 37.4221C127.914 37.336 128.347 37.2939 128.781 37.2965C129.473 37.2965 130.079 37.3683 130.603 37.5073C131.127 37.6466 131.512 37.8358 131.761 38.0743C132.01 38.3152 132.181 38.6334 132.274 39.0334L130.815 39.1745C130.747 38.8563 130.555 38.6078 130.237 38.4286C129.92 38.2495 129.469 38.1597 128.889 38.1597C128.203 38.1597 127.713 38.2397 127.421 38.3985C127.126 38.5579 126.979 38.745 126.979 38.9576C126.979 39.0948 127.042 39.2165 127.164 39.3257C127.285 39.4391 127.475 39.5307 127.736 39.6064C127.886 39.6441 128.326 39.7339 129.056 39.8729C130.112 40.0718 130.849 40.233 131.266 40.3608C131.685 40.4858 132.013 40.6711 132.252 40.9117C132.489 41.1526 132.609 41.4507 132.609 41.809C132.609 42.1591 132.461 42.4873 132.172 42.7979C131.88 43.1063 131.461 43.3451 130.914 43.5139C130.368 43.6831 129.748 43.7667 129.057 43.7667C127.909 43.7667 127.036 43.5994 126.436 43.2654C125.835 42.932 125.452 42.4365 125.288 41.7801ZM134.807 43.6283V42.4326H136.509V43.6283H134.807ZM144.858 41.3603L146.325 41.4954C146.167 42.2057 145.756 42.7629 145.093 43.1644C144.433 43.5666 143.62 43.7673 142.657 43.7673C141.453 43.7673 140.481 43.4908 139.75 42.9375C139.017 42.3842 138.648 41.5906 138.648 40.5561C138.648 39.8878 138.807 39.3026 139.122 38.8013C139.439 38.3 139.918 37.9234 140.563 37.6728C141.206 37.4224 141.909 37.2968 142.666 37.2968C143.623 37.2968 144.408 37.468 145.014 37.8084C145.623 38.1485 146.014 38.63 146.187 39.2569L144.734 39.4142C144.595 38.9984 144.351 38.686 144 38.4749C143.649 38.2662 143.224 38.1607 142.726 38.1607C141.972 38.1607 141.36 38.3499 140.889 38.7298C140.419 39.1076 140.184 39.7068 140.184 40.526C140.184 41.3576 140.411 41.9629 140.866 42.341C141.32 42.717 141.912 42.9059 142.643 42.9059C143.229 42.9059 143.717 42.7784 144.11 42.5257C144.504 42.2732 144.753 41.8854 144.858 41.3603ZM147.048 40.5327C147.048 39.3865 147.501 38.5369 148.41 37.9858C149.167 37.5283 150.09 37.2971 151.181 37.2971C152.394 37.2971 153.385 37.5757 154.153 38.1348C154.923 38.6921 155.306 39.4616 155.306 40.4451C155.306 41.2426 155.136 41.8695 154.796 42.3252C154.456 42.783 153.96 43.1371 153.312 43.3898C152.66 43.6423 151.952 43.7676 151.181 43.7676C149.949 43.7676 148.952 43.4911 148.19 42.9339C147.428 42.3784 147.048 41.5787 147.048 40.5327ZM148.583 40.5327C148.583 41.3263 148.83 41.9194 149.323 42.313C149.815 42.7091 150.436 42.9062 151.181 42.9062C151.924 42.9062 152.541 42.7072 153.034 42.3112C153.524 41.9152 153.771 41.3105 153.771 40.4986C153.771 39.7324 153.524 39.1517 153.029 38.7578C152.532 38.3635 151.918 38.167 151.181 38.167C150.436 38.167 149.815 38.3636 149.323 38.7559C148.83 39.1474 148.583 39.7406 148.583 40.5327ZM157.059 43.6283V37.4385H158.394V38.3064C158.671 38.0037 159.039 37.7591 159.499 37.576C159.957 37.3914 160.481 37.2974 161.067 37.2974C161.719 37.2974 162.255 37.3929 162.671 37.5839C163.09 37.775 163.385 38.0393 163.555 38.3815C164.255 37.6594 165.161 37.2974 166.277 37.2974C167.153 37.2974 167.824 37.4687 168.294 37.809C168.765 38.1491 169 38.6723 169 39.3786V43.6286H167.516V39.7293C167.516 39.3092 167.468 39.0069 167.371 38.8219C167.272 38.6388 167.096 38.4898 166.844 38.376C166.589 38.2647 166.289 38.2072 165.946 38.2072C165.326 38.2072 164.813 38.3523 164.402 38.6428C163.994 38.9312 163.787 39.395 163.787 40.0317V43.6286H162.294V39.6073C162.294 39.1398 162.172 38.7894 161.929 38.5567C161.685 38.3237 161.289 38.2069 160.733 38.2069C160.314 38.2069 159.926 38.2845 159.569 38.4414C159.212 38.5969 158.951 38.8238 158.793 39.1222C158.631 39.4224 158.552 39.854 158.552 40.4174V43.6286L157.059 43.6283ZM148.04 13.2769C157.502 16.0553 157.314 31.7233 144.586 31.6904L115.421 31.6159L115.45 23.1089L145.206 23.3021C147.356 23.3157 147.111 20.0704 145.206 19.8825C137.249 19.0955 131.178 18.7749 123.222 17.9871C119.31 17.6002 116.493 14.5058 115.787 11.2769L148.04 13.2769ZM77.8714 0H86.4156V8.25029H77.8714V0ZM86.4156 9.45576V20.6374C86.4156 22.1881 87.345 23.4617 88.4823 23.4617H104.29C105.427 23.4617 106.357 22.1906 106.357 20.6374V10.6922L114.822 11.2173V23.3638C114.822 27.3431 110.895 31.6913 106.686 31.6913H86.0063C81.7962 31.6913 77.8714 27.587 77.8714 23.6011V8.92587L86.4156 9.45576ZM106.357 8.25029V0H114.822V8.25029H106.357ZM10.7164 31.4945L25.1577 9.68937L20.9186 9.33682L15.0417 8.84831L0 31.49L10.7164 31.4945ZM26.1106 8.25029H38.3238L38.3712 0L24.0858 0.00547525C21.8911 0.00608361 20.3169 0.906458 19.1319 2.69108L15.4388 8.25029H26.1106ZM29.4564 10.0474V31.6913H38.1896L38.3094 10.7838L35.9129 10.5846L29.4564 10.0474ZM77.0031 18.4215C79.4391 23.9837 76.6882 31.7136 67.7453 31.6907L38.58 31.6162L38.6087 23.1092L68.365 23.3024C70.5152 23.316 70.2703 20.0707 68.365 19.8828C60.4084 19.0958 54.3377 18.7752 46.3807 17.9874C42.2893 17.5825 39.3941 14.2156 38.8619 10.83L70.712 13.4795C70.7594 13.4834 70.8068 13.4871 70.8539 13.4922C70.8826 13.4947 70.9117 13.4986 70.9404 13.502C70.9682 13.505 70.9964 13.5084 71.0239 13.5123L71.0404 13.5141C71.07 13.5184 71.1 13.5217 71.1297 13.5266L71.1474 13.529C71.1838 13.5345 71.2208 13.5406 71.2568 13.5467L71.2651 13.5476L71.3596 13.564L71.3663 13.5649C71.4014 13.5713 71.4357 13.5783 71.4702 13.585C71.4855 13.5877 71.5008 13.5902 71.5161 13.5935L71.5314 13.5969C71.5751 13.606 71.6188 13.6157 71.6619 13.6258L71.6693 13.6276C71.7102 13.6367 71.7503 13.6468 71.7903 13.6571L71.7915 13.6577C71.8114 13.6629 71.8322 13.6677 71.8521 13.6732C71.9303 13.6939 72.0077 13.7158 72.0841 13.7392C72.1028 13.7453 72.1217 13.7505 72.1404 13.7563C72.1642 13.7636 72.1884 13.7718 72.2119 13.7797C72.5606 13.8941 72.8981 14.0397 73.2205 14.2147C73.3185 14.2681 73.4159 14.3242 73.5112 14.3823C73.5338 14.396 73.5562 14.4106 73.5791 14.4242L73.6017 14.4382L73.6522 14.4708C73.7577 14.5383 73.8612 14.609 73.9625 14.6828C74.0181 14.7232 74.0731 14.7649 74.1275 14.8069L74.1765 14.8446C74.3015 14.9426 74.4235 15.0451 74.5424 15.1512L74.5491 15.1573C74.5809 15.1856 74.6115 15.2142 74.643 15.2428C74.6457 15.2461 74.6494 15.2489 74.6531 15.2516L74.7356 15.3292L74.743 15.3362C74.8445 15.4333 74.9437 15.5329 75.0404 15.6349C75.1092 15.707 75.1768 15.7806 75.2437 15.8554L77.0031 18.4215ZM75.8145 16.5541C75.85 16.601 75.8851 16.6481 75.92 16.6959C75.92 16.6959 75.9224 16.6986 75.9233 16.7004C75.9719 16.767 76.02 16.8337 76.0673 16.9018L75.8145 16.5541ZM76.6702 17.8384C76.7115 17.9083 76.7534 17.9789 76.7943 18.0504C76.7963 18.0538 76.7983 18.0571 76.8005 18.0604L76.8108 18.0787C76.876 18.1924 76.9399 18.3065 77.0031 18.4215L76.6702 17.8384ZM46.3129 0.000608361H76.5033V8.25029H38.8013V7.13699C38.8013 4.7078 43.1988 0.000608361 46.3129 0.000608361ZM123.154 0.000608361H153.345V8.25029H115.642V7.13699C115.642 4.7078 120.04 0.000608361 123.154 0.000608361ZM159.385 2.41884C159.984 2.41884 160.429 2.51496 160.717 2.70538C161.004 2.8958 161.147 3.19116 161.147 3.59085C161.147 3.88925 161.056 4.13807 160.875 4.33883C160.692 4.54111 160.449 4.66309 160.142 4.70598L161.092 6.66186H160.359L159.461 4.79693H158.466V6.66155H157.825V2.41884H159.385ZM162.573 4.61472C162.573 4.16697 162.492 3.74325 162.33 3.34507C162.172 2.95065 161.935 2.59228 161.634 2.2917C161.325 1.98457 160.958 1.7414 160.554 1.57626C160.149 1.40946 159.714 1.32487 159.275 1.32744C158.837 1.32744 158.421 1.40836 158.028 1.56775C157.634 1.731 157.276 1.96998 156.975 2.27101C156.656 2.59527 156.411 2.95724 156.24 3.35694C156.07 3.75663 155.985 4.17366 155.985 4.60438C155.985 5.03662 156.067 5.45031 156.235 5.84483C156.403 6.24242 156.648 6.60366 156.955 6.90855C157.262 7.21464 157.625 7.45774 158.026 7.62398C158.423 7.79037 158.84 7.8728 159.275 7.8728C159.709 7.87306 160.139 7.78788 160.54 7.62216C160.948 7.45286 161.319 7.20707 161.634 6.89821C161.941 6.60133 162.174 6.25821 162.334 5.8722C162.494 5.4862 162.573 5.06795 162.573 4.61472ZM159.275 0.915887C159.785 0.915887 160.266 1.00866 160.717 1.19208C161.166 1.37655 161.572 1.65045 161.911 1.99695C162.252 2.33448 162.521 2.7372 162.701 3.18082C162.886 3.62887 162.977 4.10035 162.977 4.59951C162.977 5.10232 162.887 5.57441 162.706 6.01334C162.525 6.45386 162.255 6.85224 161.911 7.18322C161.561 7.53203 161.145 7.80946 160.688 7.99995C160.241 8.18852 159.76 8.28535 159.274 8.28466C158.778 8.28466 158.309 8.19219 157.862 8.00512C157.413 7.81784 157.006 7.54186 156.667 7.19387C156.32 6.8548 156.045 6.44984 155.858 6.003C155.674 5.55677 155.581 5.09046 155.581 4.59951C155.581 4.11769 155.676 3.64925 155.867 3.19633C156.058 2.74029 156.337 2.3259 156.688 1.97657C157.02 1.63675 157.419 1.36812 157.859 1.18722C158.308 1.00513 158.789 0.912935 159.275 0.915887Z" fill="#1E1E1E"/>
</svg>
