<svg width="81" height="35" viewBox="0 0 81 35" fill="none" xmlns="http://www.w3.org/2000/svg">
<path d="M54.5819 27.7467C52.3366 30.2796 49.1931 31.5461 47.7337 31.5461C46.0497 31.5461 45.1516 30.5099 44.9271 28.898C44.8148 28.3224 44.9271 27.6316 45.0393 27.0559C45.6007 23.4868 46.8356 21.1842 46.8356 20.6086C46.8356 20.3783 46.7233 20.2632 46.6111 20.2632C45.4884 20.2632 41.6714 24.2928 41.1101 26.9408L40.661 29.1283C40.3242 30.625 38.977 31.5461 37.9666 31.5461C37.5176 31.5461 37.1808 31.3158 37.0685 30.7401C37.0685 30.5099 37.0685 30.2796 37.0685 30.0493L37.293 28.898C35.2723 30.5099 33.027 31.5461 32.0166 31.5461C30.5571 31.5461 29.7713 30.7401 29.5467 29.5888C28.6486 30.8553 27.4137 31.5461 26.0665 31.5461C24.3825 31.5461 22.8108 30.3947 22.025 28.6678C20.9023 29.9342 19.5551 31.2007 17.9834 32.2368C15.6259 33.7336 13.0438 35 10.0126 35C7.20597 35 4.73614 33.5033 3.50122 32.2368C1.48045 30.3947 0.470063 27.5164 0.133268 24.9836C-0.877119 16.9243 3.95028 6.21711 11.472 1.61184C13.156 0.57566 15.0645 0 16.8608 0C20.4533 0 23.1476 2.64803 23.4844 5.75658C23.8212 8.63487 22.6986 11.0526 19.6674 12.5493C18.0957 13.3553 17.3098 13.3553 17.0853 12.8947C16.973 12.6645 16.973 12.2039 17.3098 11.9737C20.2287 9.55592 20.2287 7.48355 19.8919 4.60526C19.6674 2.76316 18.5448 1.61184 17.1976 1.61184C11.3598 1.61184 3.27669 14.6217 4.39934 24.0625C4.84841 27.7467 7.09371 32.0066 11.5843 32.0066C13.0438 32.0066 14.7277 31.5461 16.0749 30.8553C18.5448 29.5888 20.0042 28.5526 21.3514 26.8257C21.0146 22.4507 24.7193 16.9243 30.1081 16.9243C32.4656 16.9243 34.3741 17.8454 34.5987 19.8026C34.9355 22.2204 32.9147 22.6809 32.1288 22.6809C31.4553 22.6809 30.4449 22.4507 30.3326 21.875C30.2203 21.1842 31.7921 21.5296 31.5675 20.0329C31.4553 19.1118 30.4449 18.7664 29.5467 18.7664C26.1788 18.7664 24.2703 23.602 24.6071 26.5954C24.7193 27.977 25.5052 29.3586 26.6279 29.3586C27.6382 29.3586 29.0977 27.8618 29.5467 25.7895C29.8835 24.2928 31.2307 23.3717 32.2411 23.3717C32.8024 23.3717 33.1392 23.602 33.1392 24.1776C33.1392 24.4079 33.1392 24.6382 33.1392 24.8684C33.027 25.4441 32.5779 27.6316 32.5779 27.977C32.5779 28.3224 32.8024 28.898 33.476 28.898C34.0374 28.898 35.8336 27.8618 37.6298 26.25C38.1912 23.3717 38.8648 19.8026 38.8648 19.5724C39.0893 18.4211 39.5383 17.1546 41.7836 17.1546C42.2327 17.1546 42.5695 17.3849 42.6818 17.9605C42.6818 18.1908 42.6818 18.4211 42.6818 18.6513L42.1204 21.7599C44.1412 18.9967 47.2846 16.9243 49.1932 16.9243C49.979 16.9243 50.6526 17.3849 50.7649 18.1908C50.8771 18.6513 50.6526 19.4572 50.4281 20.3783C49.7545 22.2204 48.9686 25.0987 48.5196 27.5164C48.4073 28.0921 48.6318 28.7829 49.5299 28.7829C50.3158 28.7829 52.6734 27.8618 54.5819 25.2138C54.5819 24.8684 54.5819 24.523 54.5819 24.0625C54.5819 21.9901 54.6941 20.3783 55.1432 19.1118C55.48 17.8454 57.0517 16.6941 58.0621 16.6941C58.6234 16.6941 58.9602 17.0395 58.9602 17.6151C58.9602 17.8454 58.9602 18.0757 58.848 18.3059C58.1744 20.4934 57.7253 22.4507 57.7253 24.4079C57.7253 25.5592 57.9498 27.2862 58.1744 28.2072C58.1744 28.4375 58.2866 28.5526 58.5112 28.5526C58.848 28.5526 61.0933 26.3651 62.665 23.602C61.2055 22.6809 60.4197 20.9539 60.4197 18.8816C60.4197 15.4276 62.4404 13.5855 64.4612 13.5855C66.0329 13.5855 67.3801 14.7368 67.3801 17.0395C67.3801 18.5362 66.8188 20.148 66.0329 21.7599C66.0329 21.7599 66.3697 21.7599 66.482 21.7599C67.7169 21.7599 68.615 21.1842 69.1764 20.4934C69.4009 20.2632 69.6254 20.0329 69.85 19.9178C71.4217 17.9605 73.7792 16.5789 76.4736 16.5789C78.8312 16.5789 80.7397 17.5 80.9642 19.4572C81.301 21.875 79.168 22.4507 78.4944 22.4507C77.8208 22.4507 76.6981 22.2204 76.6981 21.6447C76.5859 21.0691 78.1576 21.2993 78.0453 19.8026C77.933 18.8816 76.9227 18.4211 76.0245 18.4211C72.8811 18.4211 70.7481 22.6809 71.0849 26.25C71.1971 27.6316 71.8707 29.0132 73.1056 29.0132C74.116 29.0132 75.5755 27.5164 76.1368 25.4441C76.4736 24.0625 77.8208 23.0263 78.8312 23.0263C79.2802 23.0263 79.7293 23.2566 79.7293 23.8322C79.7293 24.1776 79.617 24.7533 79.168 27.0559C78.9434 27.977 78.9434 28.898 78.9434 29.4737C79.168 30.8553 79.7293 31.7763 80.2906 32.352C80.5151 32.5822 80.6274 32.8125 80.6274 32.9276C80.6274 33.273 80.4029 33.6184 79.9538 33.6184C79.8416 33.6184 79.617 33.6184 79.5048 33.5033C77.0349 32.4671 76.0245 30.7401 75.8 29.2434C74.9019 30.5099 73.667 31.0855 72.3198 31.0855C70.1867 31.0855 68.0537 29.1283 67.7169 26.5954C67.6046 25.5592 67.7169 24.4079 68.0537 23.3717C67.1556 23.9474 66.2575 24.2928 65.3593 24.2928C65.0225 24.2928 64.798 24.2928 64.5735 24.2928C62.4404 27.4013 60.1951 29.5888 58.5112 30.625C57.8376 30.9704 57.164 31.2007 56.7149 31.2007C56.3781 31.2007 55.9291 31.0855 55.7045 30.7401C55.0309 30.2796 54.6941 29.1283 54.5819 27.7467ZM62.2159 17.3849C62.2159 18.7664 62.8895 20.148 63.6754 21.0691C64.0122 20.148 64.2367 19.227 64.2367 18.3059C64.2367 16.5789 63.5631 15.773 63.114 15.773C62.4404 15.773 62.2159 16.6941 62.2159 17.3849Z" fill="#1E1E1E"/>
</svg>
