<svg width="172" height="46" viewBox="0 0 172 46" fill="none" xmlns="http://www.w3.org/2000/svg">
<path d="M146.088 43.4199C148.471 43.6507 150.852 43.8985 153.228 44.1548L158.474 31.2157L163.46 45.3484C166.019 45.6685 168.576 46.0047 171.125 46.3556L162.384 21.573L171.128 0.00170911H163.722L163.645 0.107674L158.921 11.761L154.774 0.00341822H147.461L155.01 21.4043L146.088 43.4199H146.088ZM140.557 42.9129V0.00170911H133.248V42.3107C135.686 42.4987 138.125 42.701 140.557 42.9129ZM85.6473 40.5133C87.6206 40.5133 89.5916 40.5281 91.5592 40.5441V24.7792H100.34V18.0659H91.5597V6.72307H101.673V0.00170911H84.2215V40.519C84.6954 40.519 85.1716 40.5116 85.6473 40.5133ZM62.952 40.9235C65.3873 40.8369 67.8248 40.764 70.2658 40.7047V6.72421H77.0982V0.00341822H56.1196V6.72421H62.9532V40.9235H62.952ZM7.04721 45.4481V19.8826L15.7024 44.4158C18.364 44.1172 21.0297 43.8364 23.7028 43.5709V0.00227881H16.689V26.4838L7.34948 0.00227881H0.0351562V46.367H0.0790707C2.39627 46.0468 4.72146 45.7426 7.04721 45.4481ZM49.0711 6.7225V0.00227881H31.6176V42.8445C37.4246 42.3438 43.2382 41.9239 49.0568 41.5849V34.8584C45.6828 35.0544 42.3157 35.28 38.9565 35.5312V24.7821H47.7377V18.0647H38.9565V6.7225H49.0711ZM116.16 34.5371V0H108.818V40.948C114.658 41.1622 120.475 41.4607 126.273 41.8367V35.1063C122.908 34.8892 119.538 34.7012 116.16 34.5371Z" fill="#1E1E1E"/>
</svg>
