<svg width="154" height="46" viewBox="0 0 154 46" fill="none" xmlns="http://www.w3.org/2000/svg">
<path d="M23.0942 0C10.3399 0 0 10.2974 0 22.9996C0 35.7032 10.3399 46 23.0942 46C35.8491 46 46.1885 35.7032 46.1885 22.9996C46.1885 10.2982 35.8497 0.00109775 23.0939 0.00109775L23.0942 0ZM33.6851 33.172C33.2703 33.8496 32.384 34.0619 31.7058 33.6491C26.2827 30.3481 19.4567 29.6024 11.4179 31.4313C10.6433 31.6082 9.87108 31.1245 9.6946 30.3533C9.51727 29.5818 10.0007 28.8128 10.7773 28.637C19.5745 26.634 27.1205 27.4961 33.2077 31.2006C33.8861 31.6153 34.1012 32.4969 33.6848 33.1726L33.6851 33.172ZM36.5118 26.9103C35.9895 27.7543 34.8814 28.0191 34.0351 27.5008C27.8287 23.7013 18.3649 22.6008 11.0224 24.8205C10.0702 25.107 9.06444 24.5725 8.77543 23.6258C8.48862 22.6774 9.02557 21.6777 9.97616 21.3893C18.3633 18.8549 28.7898 20.0825 35.9186 24.4453C36.7652 24.9644 37.0327 26.0685 36.5115 26.9106L36.5118 26.9103ZM36.7545 20.3891C29.3102 15.9862 17.031 15.5813 9.92456 17.7294C8.78342 18.074 7.57663 17.4325 7.2308 16.296C6.88498 15.1589 7.52864 13.9579 8.67062 13.6124C16.8283 11.146 30.3896 11.6226 38.959 16.689C39.9854 17.2957 40.3222 18.6159 39.7138 19.6368C39.1071 20.659 37.7778 20.996 36.7547 20.3891H36.7545ZM62.8318 21.2328C58.8443 20.2858 58.1345 19.6212 58.1345 18.2245C58.1345 16.9051 59.3818 16.0172 61.2367 16.0172C63.0347 16.0172 64.8176 16.6915 66.6868 18.0795C66.7434 18.1216 66.8142 18.1383 66.884 18.1273C66.9538 18.1169 67.0155 18.0787 67.0564 18.0213L69.0033 15.288C69.0833 15.1754 69.0615 15.0202 68.9537 14.9343C66.729 13.1565 64.2239 12.2921 61.2957 12.2921C56.9903 12.2921 53.983 14.8653 53.983 18.547C53.983 22.4951 56.5772 23.893 61.0602 24.9721C64.8758 25.8474 65.5198 26.5807 65.5198 27.8916C65.5198 29.3442 64.2175 30.2473 62.1219 30.2473C59.7944 30.2473 57.896 29.4665 55.7722 27.6348C55.7195 27.5895 55.6473 27.5689 55.5806 27.5728C55.5102 27.5785 55.446 27.6109 55.4013 27.6645L53.2183 30.252C53.1267 30.3593 53.1383 30.5197 53.2442 30.6126C55.7151 32.8095 58.7542 33.9699 62.0337 33.9699C66.6731 33.9699 69.671 31.4453 69.671 27.5379C69.6793 24.2394 67.6965 22.413 62.8401 21.2364L62.8318 21.2328ZM80.167 17.3163C78.156 17.3163 76.5066 18.1051 75.1465 19.7214V17.9021C75.1465 17.7585 75.0296 17.6415 74.8856 17.6415H71.3152C71.1709 17.6415 71.0543 17.7585 71.0543 17.9021V38.1168C71.0543 38.2604 71.1709 38.3774 71.3152 38.3774H74.8856C75.0296 38.3774 75.1465 38.2604 75.1465 38.1168V31.7359C76.5069 33.2563 78.1566 33.9992 80.167 33.9992C83.9035 33.9992 87.686 31.1347 87.686 25.6587C87.6915 20.1814 83.9079 17.316 80.1711 17.316L80.167 17.3163ZM83.5342 25.6587C83.5342 28.4472 81.8095 30.3931 79.3399 30.3931C76.8985 30.3931 75.0569 28.3588 75.0569 25.6587C75.0569 22.959 76.8985 20.9244 79.3399 20.9244C81.7695 20.9241 83.5345 22.9147 83.5345 25.6584L83.5342 25.6587ZM97.3809 17.3163C92.5689 17.3163 88.799 21.0065 88.799 25.7183C88.799 30.3788 92.543 34.0303 97.3219 34.0303C102.151 34.0303 105.932 30.3525 105.932 25.6587C105.932 20.9812 102.176 17.3168 97.3806 17.3168L97.3809 17.3163ZM97.3809 30.4209C94.8214 30.4209 92.8918 28.3728 92.8918 25.6574C92.8918 22.9304 94.7547 20.9515 97.3218 20.9515C99.8979 20.9515 101.84 22.9996 101.84 25.7169C101.84 28.4434 99.9652 30.4209 97.3811 30.4209H97.3809ZM116.208 17.6415H112.279V13.641C112.279 13.4976 112.163 13.3806 112.018 13.3806H108.449C108.304 13.3806 108.187 13.4976 108.187 13.641V17.6415H106.47C106.326 17.6415 106.21 17.7585 106.21 17.9021V20.9581C106.21 21.1015 106.326 21.2188 106.47 21.2188H108.187V29.1262C108.187 32.3217 109.784 33.9419 112.933 33.9419C114.214 33.9419 115.277 33.6785 116.278 33.113C116.359 33.0676 116.41 32.9803 116.41 32.8875V29.9773C116.41 29.8875 116.363 29.8026 116.286 29.7557C116.208 29.7071 116.111 29.7046 116.032 29.7439C115.344 30.0885 114.679 30.2476 113.936 30.2476C112.79 30.2476 112.279 29.7296 112.279 28.5686V21.2202H116.208C116.352 21.2202 116.468 21.1032 116.468 20.9595V17.9038C116.474 17.7602 116.358 17.6431 116.212 17.6431L116.208 17.6415ZM129.898 17.6571V17.1658C129.898 15.7203 130.454 15.0757 131.702 15.0757C132.447 15.0757 133.044 15.2229 133.714 15.4454C133.796 15.4712 133.882 15.4583 133.949 15.4091C134.018 15.36 134.057 15.2811 134.057 15.1976V12.2012C134.057 12.0867 133.983 11.9854 133.873 11.9516C133.165 11.742 132.26 11.527 130.905 11.527C127.607 11.527 125.864 13.3764 125.864 16.8735V17.6261H124.149C124.005 17.6261 123.887 17.7431 123.887 17.8864V20.9581C123.887 21.1015 124.005 21.2187 124.149 21.2187H125.864V33.4156C125.864 33.5592 125.98 33.6762 126.124 33.6762H129.695C129.839 33.6762 129.957 33.5592 129.957 33.4156V21.2196H133.29L138.397 33.4134C137.817 34.6947 137.247 34.9495 136.469 34.9495C135.84 34.9495 135.177 34.7625 134.5 34.3934C134.436 34.3585 134.361 34.3527 134.292 34.3739C134.224 34.3978 134.167 34.4483 134.138 34.5142L132.927 37.1582C132.87 37.2832 132.919 37.4299 133.04 37.4947C134.303 38.1761 135.444 38.4669 136.853 38.4669C139.49 38.4669 140.947 37.2439 142.231 33.9536L148.425 18.0131C148.457 17.9329 148.447 17.8422 148.398 17.7711C148.349 17.7005 148.27 17.6579 148.183 17.6579H144.466C144.355 17.6579 144.255 17.7285 144.219 17.8326L140.411 28.6642L136.241 17.8255C136.203 17.7247 136.105 17.6579 135.997 17.6579H129.897L129.898 17.6571ZM121.961 17.6415H118.39C118.246 17.6415 118.129 17.7585 118.129 17.9021V33.4156C118.129 33.5592 118.246 33.6762 118.39 33.6762H121.961C122.105 33.6762 122.222 33.5592 122.222 33.4156V17.9032C122.222 17.8689 122.216 17.835 122.203 17.8033C122.189 17.7716 122.17 17.7429 122.146 17.7186C122.121 17.6944 122.093 17.6752 122.061 17.6622C122.029 17.6491 121.995 17.6425 121.96 17.6426L121.961 17.6415ZM120.196 10.5778C118.781 10.5778 117.634 11.7181 117.634 13.1268C117.634 14.5363 118.782 15.678 120.196 15.678C121.61 15.678 122.756 14.5363 122.756 13.1268C122.756 11.7184 121.609 10.5778 120.197 10.5778H120.196ZM151.474 22.6294C150.061 22.6294 148.962 21.4992 148.962 20.1268C148.962 18.7543 150.075 17.6113 151.487 17.6113C152.9 17.6113 154 18.7412 154 20.1125C154 21.4849 152.886 22.6294 151.474 22.6294H151.474ZM151.488 17.8601C150.201 17.8601 149.227 18.879 149.227 20.1268C149.227 21.3739 150.194 22.3792 151.475 22.3792C152.762 22.3792 153.737 21.361 153.737 20.1125C153.737 18.8653 152.769 17.8601 151.489 17.8601H151.488ZM152.045 20.3698L152.756 21.3608H152.156L151.517 20.4517H150.967V21.3608H150.465V18.734H151.641C152.254 18.734 152.657 19.0463 152.657 19.572C152.659 20.0026 152.409 20.2657 152.047 20.3698L152.045 20.3698ZM151.62 19.1847H150.966V20.0155H151.62C151.947 20.0155 152.142 19.8565 152.142 19.5997C152.142 19.3295 151.946 19.1847 151.621 19.1847L151.62 19.1847Z" fill="#1E1E1E"/>
</svg>
