<svg width="239" height="46" viewBox="0 0 239 46" fill="none" xmlns="http://www.w3.org/2000/svg">
<path d="M14.2908 7.1656C8.25707 11.142 1.93968 13.8313 0.7649 14.3183L30.5569 35.1615C30.572 35.172 30.5843 35.1861 30.5927 35.2025C30.601 35.2189 30.6053 35.2371 30.6049 35.2555V35.2568C30.6048 35.2755 30.6001 35.2939 30.5911 35.3103C30.5821 35.3267 30.5692 35.3407 30.5535 35.3509L29.2237 36.2254C29.2047 36.2377 29.1824 36.2442 29.1598 36.2439C29.1372 36.2437 29.1151 36.2368 29.0964 36.2241L18.2166 28.7433C14.0653 25.9418 9.48602 26.5363 6.37675 27.5292C3.39207 28.4809 1.19283 29.9385 0.648438 30.3186C0.909123 30.5012 23.1534 46.0302 23.303 46.1357C23.7831 45.6852 27.042 42.7125 33.8916 38.4913C41.1143 34.0468 45.3726 32.4932 46.3578 32.1645L16.511 11.2861C16.4959 11.2756 16.4836 11.2616 16.4751 11.2454C16.4667 11.2291 16.4622 11.2111 16.4622 11.1927V11.1914C16.4625 11.1728 16.4672 11.1545 16.476 11.1381C16.4849 11.1218 16.4976 11.1078 16.513 11.0974L17.7833 10.256C17.8019 10.2437 17.8236 10.2372 17.8459 10.2372C17.8682 10.2372 17.89 10.2437 17.9085 10.256C17.9485 10.2817 21.9502 12.906 29.1438 17.9653C35.8884 22.7053 45.2954 17.0211 46.5887 16.1959C46.3152 16.0072 23.7181 0.280768 23.5752 0.180664C23.0099 0.662244 18.8416 4.17534 14.2908 7.1656Z" fill="#1E1E1E"/>
<path d="M125.932 10.6519V17.2932H140.766C140.797 17.2935 140.825 17.3056 140.847 17.3269C140.868 17.3481 140.88 17.3768 140.88 17.4068C140.88 17.4379 140.867 17.4677 140.844 17.49L125.41 31.8846V37.4817H156.59V30.8119H141.067C141.044 30.8118 141.022 30.8048 141.003 30.7919C140.984 30.7791 140.969 30.7608 140.961 30.7395C140.953 30.7182 140.951 30.6948 140.956 30.6725C140.961 30.6502 140.973 30.63 140.99 30.6144C140.99 30.6144 156.571 16.326 156.645 16.2577V10.6505C156.42 10.6519 126.157 10.6519 125.932 10.6519ZM113.439 10.6519V27.6958C113.439 30.1863 111.251 31.6729 107.585 31.6729C103.866 31.6729 101.733 30.1991 101.733 27.6289V10.6525H92.1591V28.174C92.1591 31.9002 93.1097 34.2364 95.2419 35.7468C97.5752 37.4018 101.497 38.1722 107.584 38.1722C113.672 38.1722 117.595 37.4018 119.928 35.7468C122.061 34.2364 123.011 31.8995 123.011 28.174V10.6525L113.439 10.6519ZM180.715 10.6519V27.6269C180.715 30.1606 178.529 31.6723 174.864 31.6723C171.141 31.6723 169.007 30.1984 169.007 27.6282V10.6519H159.436V28.1734C159.436 31.8995 160.388 34.2357 162.521 35.7461C164.854 37.4012 168.776 38.1716 174.864 38.1716C180.949 38.1716 184.871 37.4012 187.207 35.7461C189.339 34.2351 190.291 31.8988 190.291 28.1734V10.6519H180.715ZM229 10.6519V37.483H239V10.6519H229ZM214.119 10.6519C214.054 10.706 203.278 19.9642 203.278 19.9642C203.262 19.9785 203.241 19.9877 203.22 19.9907C203.198 19.9937 203.176 19.9903 203.156 19.9811C203.136 19.9723 203.119 19.9578 203.107 19.9394C203.095 19.921 203.089 19.8995 203.089 19.8776V10.6519H193.091V37.483H203.089V28.0016C203.089 27.9569 203.116 27.9143 203.159 27.8974C203.18 27.8888 203.202 27.8863 203.224 27.8902C203.246 27.894 203.266 27.904 203.282 27.9191C203.282 27.9191 213.284 37.4201 213.349 37.483H226.747L212.016 23.7999C212.004 23.7894 211.995 23.7766 211.988 23.7622C211.982 23.7479 211.979 23.7324 211.979 23.7167V23.714C211.979 23.6822 211.993 23.6511 212.02 23.6295L227.222 10.6512L214.119 10.6519ZM57.6395 18.7339C57.6395 21.6511 58.769 23.6302 61.1937 24.9599C63.4241 26.1835 66.7757 26.9457 72.4011 27.5098L73.4642 27.6012C75.9024 27.7953 78.6657 28.0144 78.6657 30.0104C78.6657 31.3774 77.1808 32.1322 74.4846 32.1322C73.1676 32.1322 71.2345 31.7994 69.6148 28.9654H57.0674C57.0958 32.0727 58.2483 34.2053 60.6973 35.6615C63.4606 37.3058 67.9634 38.1039 74.4643 38.1039C88.9624 38.1039 90.0892 31.3584 90.0892 29.2914C90.0892 24.4973 85.8126 21.6186 77.0136 20.4931L75.6316 20.3186C71.6164 19.8201 68.4448 19.4265 68.4448 18.0189C68.4448 17.4745 68.6249 17.0186 68.9797 16.6648C69.9073 15.7389 71.8202 15.7416 72.6367 15.7423H72.7133C73.4649 15.7423 76.0385 15.9668 77.797 18.7981H89.1683C89.0877 13.1321 83.1184 9.88281 72.7512 9.88281C59.1122 9.88214 57.6395 16.0717 57.6395 18.7339Z" fill="#1E1E1E"/>
</svg>
