<svg width="638" height="638" viewBox="0 0 638 638" fill="none" xmlns="http://www.w3.org/2000/svg">
<path fill-rule="evenodd" clip-rule="evenodd" d="M237.262 42.24C277.143 -13.5947 360.126 -13.5947 400.009 42.24L406.359 51.129C413.376 60.9557 425.163 66.2173 437.163 64.884L465.463 61.7393C529.156 54.6627 582.973 108.48 575.896 172.171L572.753 200.472C571.419 212.473 576.679 224.258 586.506 231.277L595.396 237.626C651.229 277.507 651.229 360.49 595.396 400.373L586.506 406.723C576.679 413.74 571.419 425.527 572.753 437.527L575.896 465.827C582.973 529.52 529.156 583.337 465.463 576.26L437.163 573.117C425.163 571.783 413.376 577.043 406.359 586.87L400.009 595.76C360.126 651.593 277.146 651.593 237.262 595.76L230.913 586.87C223.894 577.043 212.109 571.783 200.107 573.117L171.807 576.26C108.116 583.337 54.2987 529.52 61.3753 465.827L64.52 437.527C65.8533 425.527 60.5917 413.74 50.765 406.723L41.876 400.373C-13.9587 360.49 -13.9587 277.51 41.876 237.626L50.765 231.277C60.5917 224.258 65.8533 212.473 64.52 200.471L61.3753 172.171C54.2987 108.48 108.116 54.6627 171.807 61.7393L200.108 64.884C212.109 66.2173 223.894 60.9557 230.913 51.129L237.262 42.24ZM442.206 228.763C455.223 241.781 455.223 262.887 442.206 275.903L314.909 403.2C298.559 419.553 272.046 419.553 255.696 403.2L195.066 342.57C182.048 329.553 182.048 308.447 195.066 295.43C208.083 282.413 229.189 282.413 242.206 295.43L285.303 338.527L395.066 228.763C408.083 215.746 429.189 215.746 442.206 228.763Z" fill="#121212"/>
</svg>
