<?xml version="1.0" encoding="UTF-8"?>
<!DOCTYPE svg PUBLIC "-//W3C//DTD SVG 1.1//EN" "http://www.w3.org/Graphics/SVG/1.1/DTD/svg11.dtd">
<!-- Creator: CorelDRAW X7 -->
<svg xmlns="http://www.w3.org/2000/svg" xml:space="preserve" width="549.961mm" height="166.47mm" version="1.1" style="shape-rendering:geometricPrecision; text-rendering:geometricPrecision; image-rendering:optimizeQuality; fill-rule:evenodd; clip-rule:evenodd"
viewBox="0 0 18253 5525"
 xmlns:xlink="http://www.w3.org/1999/xlink">
 <defs>
  <style type="text/css">
   <![CDATA[
    .fil0 {fill:#CD9A51}
    .fil1 {fill:white}
   ]]>
  </style>
 </defs>
 <g id="Layer_x0020_1">
  <metadata id="CorelCorpID_0Corel-Layer"/>
  <path class="fil0" d="M3653 1069c21,-46 43,-85 64,-127 22,-46 32,-88 31,-126 -2,-60 -34,-116 -99,-167 -43,-33 -93,-54 -146,-68 -11,-3 -23,-7 -34,-6 -23,0 -45,16 -60,43 -43,80 -109,143 -183,202 -203,164 -407,325 -610,489 -19,12 -34,28 -56,36 -15,4 -26,8 -38,9 -38,1 -65,-25 -66,-74l0 -8c-2,-49 16,-99 37,-145 93,-203 213,-387 355,-558 37,-42 74,-85 106,-128 26,-31 37,-54 36,-76 0,-23 -12,-45 -32,-75 -59,-89 -148,-143 -251,-163 -15,-4 -26,-3 -41,-3 -34,1 -64,13 -90,44 -62,66 -113,143 -160,220 -15,20 -26,31 -41,32 -11,0 -23,-3 -38,-14 -50,-37 -103,-50 -156,-49 -46,1 -91,14 -136,30 -97,41 -190,93 -279,148 -353,222 -687,469 -993,754 -107,97 -206,206 -289,325 -40,58 -58,115 -56,176 1,57 22,113 58,169 102,163 256,250 439,286 110,20 216,36 326,59 27,3 57,6 81,36 -100,89 -196,175 -295,265 -270,246 -531,503 -773,778 -88,101 -179,205 -240,332 -18,38 -25,69 -24,99 1,49 25,86 79,130 85,66 181,97 287,94 26,-1 52,-5 79,-10 116,-18 229,-51 337,-96 281,-114 534,-272 763,-464 144,-113 273,-242 363,-407 50,-96 78,-195 75,-289 -3,-95 -32,-185 -91,-278 -63,-93 -141,-174 -237,-239 -23,-18 -50,-25 -66,-62 7,-8 18,-12 26,-20 269,-231 547,-446 829,-655 29,-23 63,-28 101,-29 23,-1 42,3 64,2 76,-2 155,-16 230,-29 15,-4 26,-8 42,-9 7,0 15,0 26,7 -6,49 -35,92 -60,134 -215,426 -438,844 -627,1284 -70,176 -141,352 -170,546 -3,23 -6,46 -5,68 5,201 154,367 362,395 19,-1 38,3 57,2 19,-1 38,-5 57,-9 15,-4 30,-9 41,-20 22,-12 41,-28 40,-58 -5,-26 -28,-37 -51,-48 -15,-7 -34,-10 -49,-10l-19 1c-42,1 -61,-21 -62,-59 2,-53 1,-102 11,-155 32,-190 95,-374 177,-550 231,-521 516,-1016 798,-1508 93,-166 97,-162 282,-175 136,-11 268,-30 404,-41 37,-5 72,-6 109,-7 34,-1 72,-2 106,1 68,2 137,7 187,63 8,11 27,18 39,25 15,7 30,14 46,14 15,0 26,-4 37,-16 22,-16 25,-39 25,-61l-1 -19c-13,-49 -33,-94 -60,-131 -87,-115 -191,-195 -335,-191 -15,0 -30,5 -45,5 -158,23 -316,62 -466,115 -15,4 -33,16 -56,17 -7,0 -15,0 -26,-3zm4633 2228c-4,0 -11,-3 -15,-7 21,-65 41,-133 66,-198 282,-731 672,-1399 1177,-1996 74,-89 147,-178 267,-215 49,-13 74,-51 73,-93 -1,-27 -9,-53 -25,-79 -35,-48 -74,-88 -128,-121 -62,-32 -111,-50 -160,-49 -57,2 -109,26 -172,77 -89,74 -155,163 -224,252 -270,352 -498,729 -702,1120 -195,365 -369,740 -498,1137 -39,115 -69,233 -70,354l0 11c2,72 34,120 95,153 73,35 131,53 180,51 79,-2 131,-49 189,-122 15,-16 29,-31 40,-50l196 -289c244,-367 510,-718 819,-1033 59,-58 118,-117 188,-164 -31,84 -71,161 -110,241 -161,330 -299,667 -365,1032 -20,110 -35,220 -32,329 1,50 10,102 19,151 26,117 71,229 163,306 155,124 331,187 524,182l45 -1c121,-11 206,-74 260,-178 7,-15 10,-27 10,-38 0,-19 -12,-34 -39,-48 -23,-11 -46,-14 -68,-13 -31,1 -61,9 -87,29 -22,15 -44,35 -70,55 -26,19 -52,31 -79,32 -26,1 -53,-6 -80,-20 -84,-47 -143,-114 -175,-204 -29,-67 -42,-138 -44,-210 -1,-19 3,-42 2,-65 17,-212 64,-414 134,-612 92,-245 214,-475 336,-705 65,-116 130,-231 164,-360 14,-46 20,-84 19,-122 -2,-87 -46,-154 -130,-216 -55,-44 -116,-61 -172,-59 -57,1 -113,22 -165,69 -52,43 -99,89 -147,140 -155,159 -293,333 -428,515 -190,251 -372,506 -562,757 -69,92 -138,189 -219,274zm-2090 144c-8,-15 -8,-22 -9,-34 0,-11 0,-19 3,-30 23,-129 65,-251 118,-370 128,-299 298,-576 495,-835 81,-104 169,-205 249,-309 26,-31 36,-54 36,-80 -1,-23 -13,-46 -33,-79 -63,-85 -147,-132 -246,-152 -15,-3 -31,-7 -42,-6 -34,1 -68,17 -89,47 -30,35 -59,70 -84,109 -211,308 -399,635 -556,980 -89,191 -167,386 -198,603 -3,26 -6,53 -6,75 4,140 83,244 247,296 30,11 61,17 91,16 57,-1 113,-25 161,-72 47,-47 95,-97 135,-151 150,-201 280,-420 425,-625 22,-34 44,-73 81,-108 47,78 80,160 142,219 23,30 35,56 36,82 1,23 -6,50 -21,73 -10,23 -25,46 -39,69 -106,139 -235,249 -392,332 -33,16 -67,29 -105,30 -38,1 -53,9 -52,31 0,12 4,23 16,42 55,81 136,117 230,114l15 0c65,-6 132,-19 196,-36 184,-47 348,-134 465,-289 44,-54 61,-111 59,-172 -1,-45 -14,-94 -45,-142 -36,-60 -79,-115 -130,-163 -35,-37 -51,-74 -52,-120 0,-15 -1,-26 3,-41 9,-84 33,-160 65,-233 75,-168 180,-319 282,-469 11,-15 22,-35 48,-50 -7,34 -10,60 -17,87 -13,76 -26,156 -24,235 1,19 5,34 6,53 10,98 95,160 182,157 26,0 56,-9 82,-25 26,-15 41,-31 41,-46 -1,-11 -12,-26 -35,-41 -4,-3 -8,-7 -16,-7 -23,-7 -31,-18 -31,-33 0,-7 3,-19 7,-30 17,-50 39,-96 64,-142 144,-250 300,-493 490,-717 22,-27 33,-46 33,-65 -1,-19 -9,-38 -29,-64 -59,-81 -139,-128 -242,-141 -7,1 -19,-3 -26,-3 -42,1 -75,21 -109,49 -22,23 -43,61 -73,70l-8 0c-30,1 -54,-40 -85,-54 -38,-22 -72,-36 -103,-35 -34,1 -67,21 -108,59 -40,43 -80,90 -113,136 -58,89 -120,177 -178,270 -141,219 -290,435 -378,683 -46,126 -111,234 -191,342 -11,12 -18,23 -29,39 -135,185 -285,363 -447,527 -51,50 -99,105 -162,144zm1345 -2496c-6,-60 -33,-105 -84,-141 -46,-29 -92,-50 -145,-68 -23,-7 -46,-10 -69,-9 -41,1 -78,17 -115,52 -96,90 -169,194 -218,316 -15,35 -21,69 -20,103 1,57 25,105 76,153 23,22 50,40 77,58 46,29 92,47 134,46 53,-2 105,-33 148,-91 81,-101 146,-212 196,-331 10,-27 21,-57 20,-88zm-2539 2677l0 19c1,30 10,67 19,113 25,78 121,148 200,145l8 0c34,-5 52,-16 52,-39 0,-8 -1,-15 -5,-23 -12,-22 -16,-41 -16,-64 -1,-15 2,-30 2,-45 9,-87 29,-171 57,-255 156,-515 358,-1012 609,-1488 176,-338 371,-668 601,-974 29,-34 59,-69 104,-86 59,-28 88,-74 87,-127 -1,-30 -9,-56 -29,-86 -71,-104 -171,-154 -292,-170 -8,1 -15,-3 -23,-3 -42,1 -75,21 -104,52 -52,58 -95,120 -135,182 -153,238 -286,488 -411,741 -222,441 -429,893 -590,1359 -80,237 -134,476 -134,749zm-1548 -298c-8,-14 -12,-29 -12,-45 -1,-18 6,-34 10,-53 30,-137 79,-267 140,-393 147,-296 336,-562 560,-802 26,-28 37,-47 36,-66 0,-19 -8,-34 -20,-56 -44,-78 -106,-137 -190,-165 -46,-17 -84,-28 -111,-27 -49,1 -82,29 -137,91l-33 46c-182,247 -337,516 -465,800 -75,176 -138,355 -163,545 -3,30 -6,61 -5,91 4,136 67,229 209,300 19,7 38,18 57,25 50,22 99,32 145,30 72,-2 139,-30 202,-81 88,-74 158,-163 223,-252 190,-247 349,-509 524,-767 47,-73 98,-147 149,-220 7,8 11,11 11,15l-20 69c-87,289 -192,576 -321,852 -111,237 -229,468 -378,684 -25,42 -62,66 -115,75 -173,31 -346,81 -510,146 -173,65 -333,149 -469,274 -52,47 -92,94 -117,155 -14,27 -21,57 -20,83 1,38 17,72 48,105 113,125 255,186 413,181 31,0 61,-5 95,-10 124,-26 236,-82 336,-153 208,-138 384,-309 538,-506 36,-47 77,-67 134,-68l76 -3c121,-3 242,1 359,9 110,5 216,17 319,44 69,21 137,38 166,113 8,26 28,45 50,44 8,0 12,0 19,-4 34,-16 44,-36 43,-70l0 -11c-1,-41 -17,-75 -44,-108 -55,-71 -129,-122 -209,-165 -146,-79 -309,-97 -472,-111 -65,-6 -129,-1 -186,-18l0 -11c-1,-12 3,-23 10,-31 242,-396 420,-817 578,-1253 67,-183 122,-370 154,-564 4,-22 7,-41 6,-64 -4,-159 -133,-291 -274,-329 -23,-7 -42,-10 -60,-10 -46,2 -79,21 -108,68 -51,77 -106,158 -152,238 -127,219 -257,439 -398,651 -113,169 -233,331 -377,475 -73,74 -151,144 -244,207zm64 1054c-100,101 -207,191 -326,270 -55,39 -115,67 -179,92 -7,4 -15,4 -18,4 -8,0 -15,0 -19,-7 -4,-4 -4,-7 -4,-11 -1,-8 3,-15 6,-23 15,-35 37,-62 62,-85 92,-93 208,-149 324,-202 48,-24 93,-37 142,-57 4,8 8,11 12,19zm-1125 -2911c-14,34 -40,46 -63,62 -247,200 -495,396 -739,595 -30,20 -52,32 -79,33 -15,0 -34,-3 -57,-14 -188,-89 -386,-133 -587,-176 -69,-17 -99,-24 -100,-47 0,-18 18,-45 47,-88 83,-123 190,-228 305,-322 314,-266 655,-495 1021,-683 15,-12 29,-20 48,-20l12 0c1,34 -17,64 -24,99 -21,72 -41,144 -39,220 7,109 54,195 139,261 39,29 77,51 116,80zm-719 1086l1 12c-2,68 -23,133 -48,194 -53,122 -133,227 -221,324 -250,279 -546,503 -878,671 -90,44 -179,84 -281,102 -11,4 -23,5 -30,5 -23,0 -31,-11 -31,-41l-1 -19c-1,-49 16,-95 38,-137 60,-142 151,-261 246,-378 271,-325 577,-617 891,-894 22,-23 44,-32 67,-32 15,-1 30,3 49,10 47,25 100,42 142,75 35,26 55,63 56,108zm1430 -1484c1,38 -14,46 -17,61 -52,183 -199,191 -350,195 115,-94 237,-173 367,-256z"/>
  <path class="fil1" d="M8547 4369c0,7 -7,14 -7,14 -27,14 -54,29 -82,37 -364,177 -749,320 -1135,449 -55,22 -117,45 -179,67 -35,8 -48,37 -47,71 8,42 30,69 71,68 7,0 21,-8 35,-8 332,-65 664,-137 1003,-195 201,-33 402,-67 603,-93 159,-25 312,-44 471,-62 180,-26 368,-52 548,-71 180,-19 354,-31 534,-50 236,-27 479,-48 722,-54 236,-14 473,-27 709,-34 50,-1 99,-2 149,-3 4,2 9,5 14,7 69,32 138,49 206,47 64,-2 128,-19 187,-53 125,2 250,6 376,11 251,14 509,27 761,69 223,43 447,85 659,184 35,13 70,32 106,52 21,14 28,27 29,41 0,7 0,21 -7,28 -20,36 -26,64 -25,98l1 28c1,28 8,56 37,69 7,6 14,6 21,6 21,-1 34,-15 48,-29 95,-65 127,-164 124,-275l-1 -56c-32,-138 -104,-240 -245,-299 -141,-59 -281,-89 -428,-113 -32,-6 -64,-12 -97,-18 -2,-17 -4,-35 -4,-54 -1,-23 -1,-45 2,-68 11,-133 49,-255 95,-381 158,-443 362,-869 592,-1280 40,-65 68,-138 123,-196 118,-128 239,-256 372,-370 163,-140 329,-277 527,-370 18,-12 37,-23 60,-24l11 0c4,7 4,15 4,22 1,23 -13,46 -20,65 -124,298 -302,568 -488,830 -47,66 -103,113 -177,149 -161,84 -325,172 -473,274 -78,52 -144,114 -191,195 -18,34 -29,61 -28,91 1,30 17,64 48,97 82,85 185,127 295,124 56,-1 117,-14 173,-42 41,-24 81,-48 122,-79 96,-79 189,-164 277,-258 157,-178 307,-367 442,-564 29,-46 66,-74 114,-94 122,-50 241,-98 362,-142 -12,20 -23,40 -35,61 -69,115 -122,242 -152,371 -10,53 -16,103 -15,152 4,147 68,270 188,376 159,140 342,203 520,202 253,-7 455,-89 645,-196 443,-251 777,-608 1018,-1053 65,-123 111,-253 130,-390 6,-38 9,-72 8,-110 -6,-222 -144,-400 -372,-466 -31,-10 -61,-13 -91,-12 -19,0 -42,1 -61,5 -19,1 -37,9 -41,32 1,22 16,33 32,44 15,11 30,11 46,10l26 -1c155,15 233,92 238,251 1,38 -2,72 -9,110 -19,114 -58,221 -112,321 -118,222 -268,419 -452,595 -232,225 -503,403 -806,518 -116,48 -240,78 -365,81l-45 2c-103,-5 -137,-38 -152,-140l-1 -38c-1,-64 4,-128 25,-193 38,-137 107,-256 183,-376 21,-34 36,-50 47,-50 15,-1 27,22 51,47 15,19 35,37 58,56 93,84 200,123 310,120 83,-3 169,-32 251,-87 92,-67 173,-148 239,-237 106,-143 196,-289 229,-468 7,-27 6,-53 5,-80 -1,-60 -14,-116 -46,-168 -48,-82 -114,-145 -194,-192 -77,-43 -157,-71 -241,-69 -60,2 -124,19 -187,59 -60,35 -119,71 -175,114 -257,200 -470,439 -643,711 -135,15 -260,92 -396,124 47,-85 90,-158 130,-227 54,-100 93,-199 120,-310 6,-30 10,-57 9,-87 -5,-170 -134,-333 -298,-370 -23,-3 -42,-6 -64,-6 -23,1 -49,5 -76,17 -67,33 -126,76 -182,123 -166,140 -317,296 -467,455 -15,16 -26,39 -59,47 31,-99 66,-183 79,-278 3,-19 3,-34 2,-53 -5,-181 -167,-294 -292,-310 -11,1 -23,-3 -34,-2 -46,1 -90,17 -131,49 -107,86 -207,179 -306,273 -67,62 -133,125 -211,195 9,-84 15,-148 13,-216 -5,-38 -9,-76 -33,-109 -75,-96 -174,-146 -299,-147 -42,1 -68,21 -82,63 -10,50 -23,95 -41,141 -78,199 -186,387 -294,572 -162,292 -336,576 -548,836 -99,127 -213,240 -350,331 -11,8 -22,23 -37,24 -8,0 -12,-4 -19,-7 -8,-8 -12,-15 -12,-26 -1,-12 3,-23 2,-35 10,-64 19,-132 37,-197 47,-198 129,-386 226,-566 144,-265 307,-519 528,-730 18,-19 25,-34 25,-53 -1,-19 -5,-34 -20,-53 -44,-55 -98,-95 -166,-116 -65,-17 -115,-31 -156,-30 -72,2 -124,41 -197,130 -33,39 -66,78 -95,120 -218,316 -379,661 -501,1028 -31,91 -55,183 -64,281 -3,31 -2,61 -1,87 5,182 87,274 240,338 50,21 99,31 144,30 61,-2 121,-22 176,-65 41,-32 74,-63 107,-98 118,-121 209,-255 299,-394 178,-274 336,-562 510,-839 18,-30 40,-61 65,-104l2 38c-52,183 -115,359 -186,535 -11,23 -25,46 -40,69 -95,112 -186,228 -278,344 -281,356 -539,726 -770,1115 -28,47 -55,95 -78,144 -383,16 -761,52 -1138,93 -250,21 -493,49 -742,83 -347,52 -687,96 -1033,154 -7,1 -14,8 -27,8 -7,0 -15,-6 -29,-13 60,-92 60,-106 57,-217 -18,-146 -126,-268 -266,-299 -77,-12 -160,-23 -237,-21 -104,3 -216,-1 -320,2 -236,6 -472,27 -715,54 -305,37 -610,80 -914,137 -644,115 -1280,272 -1901,463 -296,92 -586,191 -860,324 -69,29 -131,66 -192,109 -48,36 -68,79 -66,134l1 28c16,76 39,145 89,206 29,27 57,54 99,60l42 -1c125,-4 263,-56 315,-190 19,-42 46,-71 88,-86 357,-142 723,-263 1095,-371 518,-154 1050,-280 1590,-378 298,-50 596,-93 894,-122 104,-10 208,-13 313,-16 139,-4 285,-8 424,-5l21 0c14,-1 21,-1 28,13zm8549 -2708c1,38 -13,61 -24,84 -89,188 -217,347 -380,472 -41,35 -89,63 -138,80 -15,4 -26,8 -37,8 -27,1 -46,-14 -70,-51 -8,-11 -12,-22 -12,-30 -1,-19 10,-34 25,-53 150,-182 327,-338 532,-461 29,-20 59,-44 104,-49zm-3835 2585c-206,-18 -412,-27 -619,-30 144,-181 268,-375 379,-577 296,-526 542,-1070 738,-1639 14,-38 28,-73 61,-100 144,-129 292,-254 459,-353 23,-16 45,-32 75,-33l11 0c-14,35 -21,61 -31,88 -82,203 -174,402 -271,597 -247,507 -494,1020 -683,1555 -45,130 -91,260 -118,393 -3,22 -6,41 -5,60 0,14 2,26 4,39zm-274 -1427c-213,494 -442,969 -797,1380l0 -11c-2,-38 9,-72 19,-103 77,-236 200,-452 330,-663 127,-200 265,-397 415,-583 3,-11 11,-19 33,-20zm1418 256c39,-84 157,-186 277,-246 -62,92 -202,217 -277,246zm-2254 -2596l0 8c1,30 -14,41 -25,61 -116,188 -224,384 -336,576 -309,557 -608,1122 -844,1714 -89,222 -170,447 -204,687 -10,64 -23,133 -21,201 0,15 4,30 5,45 10,90 64,142 144,170 19,7 38,10 57,10 46,-2 83,-22 116,-56 26,-31 40,-55 40,-73 -1,-23 -24,-41 -66,-59 -27,-11 -39,-26 -39,-48 -1,-12 3,-23 6,-34 21,-69 42,-138 66,-206 134,-352 291,-689 460,-1023 222,-441 467,-864 739,-1276 135,-204 277,-405 426,-598 22,-31 44,-62 43,-96 0,-19 -8,-34 -17,-52 -8,-19 -12,-30 -12,-42 0,-15 15,-19 56,-24 113,-11 226,-21 343,-25 72,-2 148,0 220,6 170,10 341,32 505,80 76,17 145,45 207,89 38,25 65,47 66,81 1,19 -6,38 -20,65 -15,27 -22,54 -21,84l1 19c0,19 8,41 31,52 4,0 8,3 12,3 11,0 26,-15 37,-23 30,-24 51,-55 66,-93 21,-53 30,-114 29,-175 -5,-162 -93,-326 -246,-394 -57,-25 -118,-49 -179,-67 -160,-41 -323,-59 -486,-62 -106,-4 -212,-5 -318,-2 -151,4 -298,16 -449,39 -365,51 -722,137 -1066,271 -304,115 -587,259 -839,459 -114,94 -217,195 -293,322 -54,84 -82,176 -79,274 0,15 4,34 5,49 42,298 279,541 572,593 30,3 57,6 87,5 30,-1 61,-5 91,-10 30,-4 45,-20 44,-43 0,-11 -5,-22 -12,-33 -20,-30 -51,-37 -85,-43 -145,-38 -272,-118 -384,-217 -31,-25 -43,-55 -44,-89 0,-15 3,-38 10,-57 14,-42 35,-81 57,-123 87,-142 204,-255 334,-357 237,-192 509,-324 790,-430 134,-53 273,-99 420,-133z"/>
 </g>
</svg>
