<?xml version="1.0" encoding="UTF-8"?>
<!DOCTYPE svg PUBLIC "-//W3C//DTD SVG 1.1//EN" "http://www.w3.org/Graphics/SVG/1.1/DTD/svg11.dtd">
<!-- Creator: CorelDRAW X7 -->
<svg xmlns="http://www.w3.org/2000/svg" xml:space="preserve" width="8237.48mm" height="1395.53mm" version="1.1" style="shape-rendering:geometricPrecision; text-rendering:geometricPrecision; image-rendering:optimizeQuality; fill-rule:evenodd; clip-rule:evenodd"
viewBox="0 0 595582 100899"
 xmlns:xlink="http://www.w3.org/1999/xlink">
 <defs>
  <style type="text/css">
   <![CDATA[
    .fil0 {fill:#F47253}
    .fil1 {fill:white}
   ]]>
  </style>
 </defs>
 <g id="Layer_x0020_1">
  <metadata id="CorelCorpID_0Corel-Layer"/>
  <g id="_326366104">
   <path class="fil0" d="M0 21400c4794,-599 9758,-1113 14124,-1369l0 16092c0,9330 -599,19003 -1798,28162l21486 0c-1198,-9159 -1798,-18832 -1798,-28162l0 -16092c4280,256 9159,770 13953,1369l0 -19688 -45967 0 0 19688z"/>
   <path class="fil0" d="M50322 8560c0,3938 2911,8560 10444,8560 7533,0 10357,-4622 10357,-8560 0,-3938 -2824,-8560 -10357,-8560 -7533,0 -10444,4622 -10444,8560zm19346 34582l0 -23539 -19688 1797c1455,11470 1798,16606 1798,22941 0,5564 -257,10785 -1798,19944l21400 0c-1455,-9159 -1712,-14380 -1712,-21143z"/>
   <path class="fil0" d="M140963 32271c0,-8217 -2140,-13524 -9588,-13524 -6419,0 -10785,3937 -12839,10614 -514,-6506 -2911,-10614 -9502,-10614 -6334,0 -10614,3766 -12669,10272l0 -9416 -19688 1797c1455,11470 1798,16606 1798,22941 0,5564 -257,10785 -1798,19944l21400 0c-1455,-9159 -1712,-14380 -1712,-21143l0 -3081c0,-4794 1113,-8132 2568,-8132 1113,0 1883,2311 1883,5478l0 514c0,9330 0,17205 -1797,26364l21400 0c-1284,-8132 -1712,-16692 -1712,-24995 85,-4365 1198,-7361 2568,-7361 1113,0 1883,2311 1883,5478l0 514c0,9330 0,17205 -1798,26364l21400 0c-1455,-9159 -1797,-18832 -1797,-28162l0 -3852z"/>
   <path class="fil0" d="M170998 18747c-14124,0 -23625,8816 -23625,23026 0,14808 10357,23368 24652,23368 5907,0 13953,-1369 18747,-4793l0 -16863c-3767,3252 -8817,4879 -13525,4879 -4537,0 -9416,-1370 -10187,-6249 7619,0 21829,599 21829,-10529 0,-8303 -7876,-12839 -17891,-12839zm-4023 21571c85,-2140 1113,-4794 3766,-4794 1627,0 2654,941 2654,2311 0,1969 -1969,2483 -3338,2483l-3082 0z"/>
   <path class="fil0" d="M223290 62411c-1541,1370 -3425,2226 -5051,2226 -2910,0 -3595,-2739 -3595,-6677l0 -56248 -19688 1798c1198,9244 1797,18917 1797,28162l0 26716c0,14381 1456,23027 14039,23027 4965,0 9673,-1285 12412,-2140l86 -16864z"/>
   <path class="fil0" d="M242854 18747c-14124,0 -23626,8816 -23626,23026 0,14808 10358,23368 24653,23368 5907,0 13953,-1369 18746,-4793l0 -16863c-3766,3252 -8816,4879 -13524,4879 -4537,0 -9416,-1370 -10187,-6249 7619,0 21828,599 21828,-10529 0,-8303 -7875,-12839 -17890,-12839zm-4023 21571c85,-2140 1113,-4794 3766,-4794 1626,0 2654,941 2654,2311 0,1969 -1969,2483 -3339,2483l-3081 0z"/>
   <path class="fil0" d="M293690 46823c0,942 -3424,1541 -8217,1541 -8988,0 -14467,-2311 -17292,-4879l0 16863c1969,1455 6934,4793 18490,4793 14894,0 24909,-5563 24909,-15236 0,-15408 -25508,-9502 -25508,-12840 0,-1199 3081,-1541 6334,-1541 8218,0 13696,2311 16521,4879l0 -16863c-1969,-1455 -6934,-4793 -17377,-4793 -13439,0 -23369,5735 -23369,15579 0,15921 25509,10015 25509,12497z"/>
   <path class="fil0" d="M328765 46823c0,942 -3424,1541 -8217,1541 -1478,0 -2860,-63 -4152,-179 52,554 79,1127 79,1720 0,2643 -558,5213 -1726,7588 -1209,2456 -2912,4462 -4942,6091 2860,879 6730,1557 11939,1557 14894,0 24909,-5563 24909,-15236 0,-15408 -25508,-9502 -25508,-12840 0,-1199 3081,-1541 6334,-1541 8218,0 13696,2311 16521,4879l0 -16863c-1969,-1455 -6934,-4793 -17377,-4793 -4892,0 -9318,760 -12970,2202l166 123 0 20074c946,1284 1671,2763 2122,4459 6400,838 12822,-28 12822,1218z"/>
   <path class="fil1" d="M541357 60228c2477,0 4315,-1358 4835,-3516 559,-2198 -640,-3636 -3037,-3636 -2318,0 -4435,1398 -4995,3676 -559,2198 839,3476 3197,3476z"/>
   <path class="fil1" d="M570025 50119c-2318,1678 -5155,2278 -7113,2278 -2517,0 -4315,-1039 -3796,-3117 520,-2078 2837,-2877 5195,-2877 2757,0 5034,1079 6073,2278l1958 -7872c-759,-679 -2677,-2238 -7272,-2238 -7472,0 -13466,4156 -15144,10909 -1718,6832 2438,10748 9710,10748 4635,0 7312,-1558 8391,-2237l1998 -7872z"/>
   <path class="fil1" d="M572281 49400c-1758,7032 2397,10828 8751,10828 6353,0 12386,-3796 14144,-10828 1758,-7033 -2397,-10829 -8750,-10829 -6353,0 -12387,3796 -14145,10829zm8751 0c719,-2877 2117,-3756 3636,-3756 1518,0 2477,879 1758,3756 -720,2877 -2118,3756 -3636,3756 -1519,0 -2478,-879 -1758,-3756z"/>
   <path class="fil1" d="M352323 26801l3766 0 -3338 13525c-3681,14637 1626,23026 12155,23026 4879,0 11213,-1798 15921,-4794l4366 -16863c-3681,2568 -7533,4879 -10957,4879 -3167,0 -4622,-2140 -3509,-6677l3252 -13096 10101 0 2226 -8988 -10101 0 3937 -15750 -7275 0c-2568,10186 -8304,15750 -14552,15750l-3767 0 -2225 8988z"/>
   <path class="fil1" d="M388400 49827c-942,3681 -1798,13525 8816,13525 7020,0 13354,-4280 17548,-11642l-684 2996c-2654,10444 -13183,13696 -25766,9759l-4109 16520c25937,2825 42372,-4793 47166,-24053l9758 -39119 -20116 1798c-941,7361 -2225,14979 -3852,22427 -1626,6248 -4365,8132 -6933,8132 -2654,0 -3596,-1798 -2654,-5479l6677 -26878 -20373 2653c-770,9245 -2225,16179 -4537,25509l-941 3852z"/>
   <path class="fil1" d="M460343 40154c1199,-4622 4280,-8046 7704,-8046 3339,0 4965,3167 3767,8218 -1284,4879 -4280,7875 -7704,7875 -3510,0 -4965,-3339 -3767,-8047zm-2996 12070l172 -685c256,7618 3766,11813 10357,11813 9844,0 19260,-9502 22855,-23883 3424,-13781 -941,-22512 -10785,-22512 -7191,0 -12926,4708 -16863,12326l2824 -11470 -20116 1797c-1112,9245 -2910,18832 -5221,28163l-1113 4451c-2311,9330 -5307,18917 -8817,28162l21400 0c1199,-9245 2996,-18832 5307,-28162z"/>
   <path class="fil1" d="M523470 16957c-14124,0 -25851,8817 -29361,23026 -3766,14809 4537,23369 18832,23369 5907,0 14210,-1370 19860,-4794l4279 -16863c-4622,3253 -10100,4879 -14808,4879 -4537,0 -9074,-1369 -8560,-6248 7618,0 21657,599 24396,-10529 2054,-8303 -4623,-12840 -14638,-12840zm-9416 21571c599,-2140 2311,-4794 4965,-4794 1626,0 2397,942 2054,2312 -513,1968 -2568,2482 -3937,2482l-3082 0z"/>
   <path class="fil1" d="M15523 86447l0 2789 -3786 0 0 11500 -3481 0 0 -11500 -3786 0 0 -2789 11053 0zm7173 0l0 14289 -3480 0 0 -14289 3480 0zm20648 0l0 14289 -3480 0 0 -8569 -3196 8569 -2809 0 -3216 -8590 0 8590 -3480 0 0 -14289 4111 0 4010 9892 3969 -9892 4091 0zm7927 2789l0 2890 4661 0 0 2687 -4661 0 0 3134 5272 0 0 2789 -8752 0 0 -14289 8752 0 0 2789 -5272 0zm12954 8813l4560 0 0 2687 -8040 0 0 -14289 3480 0 0 11602zm11652 -8813l0 2890 4661 0 0 2687 -4661 0 0 3134 5272 0 0 2789 -8753 0 0 -14289 8753 0 0 2789 -5272 0zm14644 11642c-1045,0 -1982,-169 -2809,-509 -828,-339 -1490,-841 -1985,-1506 -495,-665 -756,-1465 -784,-2402l3705 0c54,530 237,933 550,1212 312,278 719,417 1221,417 515,0 923,-119 1221,-356 299,-238 448,-567 448,-988 0,-352 -119,-644 -356,-875 -238,-231 -529,-420 -876,-570 -346,-149 -837,-319 -1475,-509 -923,-285 -1676,-570 -2260,-855 -583,-284 -1085,-705 -1506,-1261 -420,-557 -631,-1283 -631,-2178 0,-1330 482,-2372 1445,-3125 964,-753 2219,-1130 3766,-1130 1574,0 2843,377 3806,1130 964,753 1479,1802 1547,3145l-3765 0c-28,-461 -197,-824 -509,-1089 -312,-265 -713,-397 -1201,-397 -421,0 -760,112 -1018,336 -258,224 -387,546 -387,967 0,461 217,821 652,1079 434,257 1112,536 2035,834 923,312 1673,611 2249,896 577,285 1076,698 1496,1241 421,543 631,1242 631,2097 0,814 -207,1553 -620,2218 -414,665 -1015,1195 -1802,1588 -787,394 -1716,590 -2788,590zm14460 0c-1045,0 -1981,-169 -2809,-509 -828,-339 -1489,-841 -1984,-1506 -496,-665 -757,-1465 -784,-2402l3705 0c54,530 237,933 549,1212 312,278 719,417 1221,417 516,0 923,-119 1222,-356 298,-238 447,-567 447,-988 0,-352 -118,-644 -356,-875 -237,-231 -529,-420 -875,-570 -346,-149 -838,-319 -1476,-509 -922,-285 -1676,-570 -2259,-855 -584,-284 -1086,-705 -1506,-1261 -421,-557 -631,-1283 -631,-2178 0,-1330 481,-2372 1445,-3125 963,-753 2219,-1130 3765,-1130 1574,0 2843,377 3807,1130 963,753 1479,1802 1547,3145l-3766 0c-27,-461 -197,-824 -509,-1089 -312,-265 -712,-397 -1201,-397 -420,0 -760,112 -1017,336 -258,224 -387,546 -387,967 0,461 217,821 651,1079 434,257 1113,536 2036,834 922,312 1672,611 2249,896 577,285 1075,698 1496,1241 421,543 631,1242 631,2097 0,814 -207,1553 -621,2218 -414,665 -1014,1195 -1801,1588 -787,394 -1717,590 -2789,590zm29221 -14431l0 2789 -3786 0 0 11500 -3480 0 0 -11500 -3786 0 0 -2789 11052 0zm15947 0l-4947 9567 0 4722 -3480 0 0 -4722 -4946 -9567 3948 0 2769 5984 2747 -5984 3909 0zm14236 4600c0,828 -190,1584 -570,2270 -380,685 -963,1238 -1750,1659 -787,420 -1764,631 -2931,631l-2158 0 0 5129 -3481 0 0 -14289 5639 0c1139,0 2103,197 2890,590 787,394 1377,937 1771,1629 393,692 590,1486 590,2381zm-5516 1791c665,0 1160,-156 1486,-468 326,-312 488,-753 488,-1323 0,-570 -162,-1011 -488,-1323 -326,-312 -821,-468 -1486,-468l-1893 0 0 3582 1893 0zm16028 8040c-1344,0 -2575,-312 -3694,-936 -1120,-624 -2009,-1496 -2667,-2615 -658,-1120 -987,-2379 -987,-3776 0,-1398 329,-2653 987,-3766 658,-1112 1547,-1981 2667,-2605 1119,-624 2350,-937 3694,-937 1343,0 2575,313 3694,937 1120,624 2002,1493 2646,2605 645,1113 967,2368 967,3766 0,1397 -326,2656 -977,3776 -651,1119 -1533,1991 -2646,2615 -1113,624 -2341,936 -3684,936zm0 -3175c1140,0 2052,-380 2738,-1140 685,-760 1027,-1764 1027,-3012 0,-1262 -342,-2270 -1027,-3023 -686,-753 -1598,-1130 -2738,-1130 -1154,0 -2073,374 -2758,1120 -685,746 -1028,1757 -1028,3033 0,1262 343,2269 1028,3022 685,754 1604,1130 2758,1130zm20668 -6737c-257,-475 -627,-838 -1109,-1089 -482,-251 -1048,-377 -1700,-377 -1126,0 -2028,370 -2707,1110 -678,739 -1017,1726 -1017,2961 0,1316 356,2344 1068,3084 713,739 1693,1109 2941,1109 855,0 1578,-217 2168,-651 590,-434 1021,-1059 1293,-1873l-4417 0 0 -2564 7572 0 0 3236c-258,868 -696,1676 -1313,2422 -618,746 -1401,1350 -2351,1812 -950,461 -2022,692 -3216,692 -1411,0 -2670,-309 -3776,-926 -1106,-618 -1968,-1476 -2585,-2575 -617,-1099 -926,-2355 -926,-3766 0,-1411 309,-2670 926,-3776 617,-1106 1476,-1967 2575,-2585 1099,-617 2354,-926 3765,-926 1710,0 3152,414 4326,1242 1174,828 1950,1974 2330,3440l-3847 0zm15255 9770l-2972 -5394 -835 0 0 5394 -3480 0 0 -14289 5842 0c1126,0 2086,197 2880,590 794,394 1387,933 1781,1618 393,686 590,1449 590,2290 0,950 -268,1798 -804,2545 -536,746 -1326,1275 -2371,1587l3297 5659 -3928 0zm-3807 -7857l2158 0c638,0 1116,-156 1435,-468 319,-312 478,-753 478,-1323 0,-543 -159,-970 -478,-1282 -319,-313 -797,-469 -1435,-469l-2158 0 0 3542zm20628 5333l-5333 0 -854 2524 -3644 0 5170 -14289 4030 0 5170 14289 -3684 0 -855 -2524zm-895 -2687l-1771 -5231 -1751 5231 3522 0zm19834 -4478c0,828 -190,1584 -570,2270 -380,685 -964,1238 -1751,1659 -787,420 -1764,631 -2931,631l-2157 0 0 5129 -3481 0 0 -14289 5638 0c1140,0 2104,197 2891,590 787,394 1377,937 1770,1629 394,692 591,1486 591,2381zm-5516 1791c665,0 1160,-156 1486,-468 325,-312 488,-753 488,-1323 0,-570 -163,-1011 -488,-1323 -326,-312 -821,-468 -1486,-468l-1893 0 0 3582 1893 0zm21645 -6391l0 14289 -3480 0 0 -5883 -5415 0 0 5883 -3480 0 0 -14289 3480 0 0 5598 5415 0 0 -5598 3480 0zm16700 0l-4946 9567 0 4722 -3481 0 0 -4722 -4946 -9567 3949 0 2768 5984 2748 -5984 3908 0zm22300 0l0 2789 -5821 0 0 3012 4356 0 0 2707 -4356 0 0 5781 -3481 0 0 -14289 9302 0zm10532 14431c-1343,0 -2574,-312 -3694,-936 -1119,-624 -2008,-1496 -2666,-2615 -658,-1120 -988,-2379 -988,-3776 0,-1398 330,-2653 988,-3766 658,-1112 1547,-1981 2666,-2605 1120,-624 2351,-937 3694,-937 1344,0 2575,313 3695,937 1119,624 2001,1493 2646,2605 644,1113 967,2368 967,3766 0,1397 -326,2656 -977,3776 -652,1119 -1534,1991 -2646,2615 -1113,624 -2341,936 -3685,936zm0 -3175c1140,0 2053,-380 2738,-1140 685,-760 1028,-1764 1028,-3012 0,-1262 -343,-2270 -1028,-3023 -685,-753 -1598,-1130 -2738,-1130 -1153,0 -2072,374 -2758,1120 -685,746 -1028,1757 -1028,3033 0,1262 343,2269 1028,3022 686,754 1605,1130 2758,1130zm18471 3033l-2972 -5394 -835 0 0 5394 -3480 0 0 -14289 5842 0c1126,0 2086,197 2880,590 794,394 1387,933 1781,1618 393,686 590,1449 590,2290 0,950 -268,1798 -804,2545 -536,746 -1326,1275 -2371,1587l3297 5659 -3928 0zm-3807 -7857l2158 0c638,0 1116,-156 1435,-468 319,-312 478,-753 478,-1323 0,-543 -159,-970 -478,-1282 -319,-313 -797,-469 -1435,-469l-2158 0 0 3542zm31664 -6432l0 2789 -3786 0 0 11500 -3480 0 0 -11500 -3786 0 0 -2789 11052 0zm7174 0l0 14289 -3481 0 0 -14289 3481 0zm20648 0l0 14289 -3481 0 0 -8569 -3195 8569 -2809 0 -3216 -8590 0 8590 -3481 0 0 -14289 4112 0 4010 9892 3969 -9892 4091 0zm7927 2789l0 2890 4661 0 0 2687 -4661 0 0 3134 5271 0 0 2789 -8752 0 0 -14289 8752 0 0 2789 -5271 0zm12954 8813l4559 0 0 2687 -8040 0 0 -14289 3481 0 0 11602zm11651 -8813l0 2890 4662 0 0 2687 -4662 0 0 3134 5272 0 0 2789 -8752 0 0 -14289 8752 0 0 2789 -5272 0zm14644 11642c-1045,0 -1981,-169 -2809,-509 -828,-339 -1489,-841 -1984,-1506 -496,-665 -757,-1465 -784,-2402l3704 0c55,530 238,933 550,1212 312,278 719,417 1221,417 516,0 923,-119 1222,-356 298,-238 447,-567 447,-988 0,-352 -118,-644 -356,-875 -237,-231 -529,-420 -875,-570 -346,-149 -838,-319 -1476,-509 -923,-285 -1676,-570 -2259,-855 -584,-284 -1086,-705 -1506,-1261 -421,-557 -631,-1283 -631,-2178 0,-1330 481,-2372 1445,-3125 963,-753 2218,-1130 3765,-1130 1574,0 2843,377 3807,1130 963,753 1479,1802 1547,3145l-3766 0c-27,-461 -197,-824 -509,-1089 -312,-265 -712,-397 -1201,-397 -420,0 -760,112 -1017,336 -258,224 -387,546 -387,967 0,461 217,821 651,1079 434,257 1113,536 2036,834 922,312 1672,611 2249,896 576,285 1075,698 1496,1241 420,543 631,1242 631,2097 0,814 -207,1553 -621,2218 -414,665 -1014,1195 -1801,1588 -787,394 -1717,590 -2789,590zm14461 0c-1045,0 -1982,-169 -2809,-509 -828,-339 -1490,-841 -1985,-1506 -495,-665 -756,-1465 -784,-2402l3705 0c54,530 237,933 550,1212 312,278 719,417 1221,417 515,0 922,-119 1221,-356 299,-238 448,-567 448,-988 0,-352 -119,-644 -356,-875 -238,-231 -530,-420 -876,-570 -346,-149 -838,-319 -1475,-509 -923,-285 -1676,-570 -2260,-855 -583,-284 -1085,-705 -1506,-1261 -421,-557 -631,-1283 -631,-2178 0,-1330 482,-2372 1445,-3125 964,-753 2219,-1130 3766,-1130 1574,0 2843,377 3806,1130 964,753 1479,1802 1547,3145l-3765 0c-28,-461 -197,-824 -509,-1089 -312,-265 -713,-397 -1201,-397 -421,0 -760,112 -1018,336 -258,224 -387,546 -387,967 0,461 217,821 652,1079 434,257 1112,536 2035,834 923,312 1673,611 2249,896 577,285 1076,698 1496,1241 421,543 631,1242 631,2097 0,814 -207,1553 -621,2218 -413,665 -1014,1195 -1801,1588 -787,394 -1716,590 -2788,590zm18351 -7307c0,-1411 306,-2670 916,-3776 611,-1106 1462,-1967 2555,-2585 1092,-617 2330,-926 3714,-926 1697,0 3149,448 4356,1344 1208,895 2015,2116 2422,3663l-3826 0c-285,-597 -689,-1051 -1211,-1363 -523,-312 -1116,-469 -1781,-469 -1072,0 -1941,374 -2606,1120 -664,746 -997,1744 -997,2992 0,1248 333,2246 997,2992 665,747 1534,1120 2606,1120 665,0 1258,-156 1781,-468 522,-313 926,-767 1211,-1364l3826 0c-407,1547 -1214,2765 -2422,3653 -1207,889 -2659,1334 -4356,1334 -1384,0 -2622,-309 -3714,-926 -1093,-618 -1944,-1476 -2555,-2575 -610,-1099 -916,-2355 -916,-3766zm24801 7307c-1344,0 -2575,-312 -3694,-936 -1120,-624 -2009,-1496 -2667,-2615 -658,-1120 -987,-2379 -987,-3776 0,-1398 329,-2653 987,-3766 658,-1112 1547,-1981 2667,-2605 1119,-624 2350,-937 3694,-937 1343,0 2575,313 3694,937 1120,624 2002,1493 2646,2605 645,1113 967,2368 967,3766 0,1397 -326,2656 -977,3776 -651,1119 -1533,1991 -2646,2615 -1113,624 -2341,936 -3684,936zm0 -3175c1140,0 2052,-380 2738,-1140 685,-760 1027,-1764 1027,-3012 0,-1262 -342,-2270 -1027,-3023 -686,-753 -1598,-1130 -2738,-1130 -1154,0 -2073,374 -2758,1120 -685,746 -1028,1757 -1028,3033 0,1262 343,2269 1028,3022 685,754 1604,1130 2758,1130zm27365 -11256l0 14289 -3481 0 0 -8569 -3195 8569 -2809 0 -3216 -8590 0 8590 -3481 0 0 -14289 4112 0 4010 9892 3969 -9892 4091 0zm15336 4600c0,828 -190,1584 -570,2270 -380,685 -964,1238 -1751,1659 -787,420 -1764,631 -2931,631l-2157 0 0 5129 -3481 0 0 -14289 5638 0c1140,0 2104,197 2891,590 787,394 1377,937 1771,1629 393,692 590,1486 590,2381zm-5516 1791c665,0 1160,-156 1486,-468 325,-312 488,-753 488,-1323 0,-570 -163,-1011 -488,-1323 -326,-312 -821,-468 -1486,-468l-1893 0 0 3582 1893 0zm18165 5374l-5333 0 -855 2524 -3643 0 5170 -14289 4030 0 5170 14289 -3684 0 -855 -2524zm-896 -2687l-1771 -5231 -1750 5231 3521 0zm21727 5211l-3480 0 -5822 -8814 0 8814 -3480 0 0 -14289 3480 0 5822 8854 0 -8854 3480 0 0 14289zm16720 -14289l-4946 9567 0 4722 -3481 0 0 -4722 -4946 -9567 3949 0 2768 5984 2748 -5984 3908 0zm4975 14452c-610,0 -1109,-180 -1496,-540 -387,-359 -580,-804 -580,-1333 0,-543 193,-997 580,-1364 387,-366 886,-549 1496,-549 597,0 1089,183 1476,549 387,367 580,821 580,1364 0,529 -193,974 -580,1333 -387,360 -879,540 -1476,540z"/>
  </g>
 </g>
</svg>
