<svg xmlns="http://www.w3.org/2000/svg" xmlns:xlink="http://www.w3.org/1999/xlink" width="500" zoomAndPan="magnify" viewBox="0 0 375 374.999991" height="500" preserveAspectRatio="xMidYMid meet" version="1.0"><defs><g/><clipPath id="fc835e4538"><rect x="0" width="245" y="0" height="104"/></clipPath><clipPath id="59c22dc94d"><path d="M 141.375 66.0625 L 233.625 66.0625 L 233.625 198 L 141.375 198 Z M 141.375 66.0625 " clip-rule="nonzero"/></clipPath></defs><g transform="matrix(1, 0, 0, 1, 64, 195)"><g clip-path="url(#fc835e4538)"><g fill="#ffffff" fill-opacity="1"><g transform="translate(0.722143, 82.616541)"><g><path d="M 34.21875 -64.65625 L 59.203125 -64.65625 C 59.472656 -64.65625 59.539062 -64.445312 59.40625 -64.03125 C 59.34375 -63.757812 59.085938 -62.832031 58.640625 -61.25 C 58.191406 -59.675781 57.660156 -57.722656 57.046875 -55.390625 C 56.429688 -53.066406 55.757812 -50.6875 55.03125 -48.25 C 54.3125 -45.820312 53.613281 -43.648438 52.9375 -41.734375 C 51.90625 -38.785156 50.820312 -36.023438 49.6875 -33.453125 C 48.5625 -30.878906 47.601562 -28.753906 46.8125 -27.078125 C 46.03125 -25.398438 45.601562 -24.359375 45.53125 -23.953125 C 45.320312 -22.847656 45.203125 -21.898438 45.171875 -21.109375 C 45.140625 -20.328125 45.125 -19.390625 45.125 -18.296875 C 45.125 -16.992188 45.085938 -15.671875 45.015625 -14.328125 C 44.953125 -12.992188 44.882812 -11.675781 44.8125 -10.375 C 44.738281 -8.738281 44.6875 -7.078125 44.65625 -5.390625 C 44.625 -3.710938 44.675781 -2.050781 44.8125 -0.40625 C 44.8125 -0.132812 44.707031 0 44.5 0 L 15 0 C 14.863281 0 14.796875 -0.132812 14.796875 -0.40625 C 14.796875 -0.539062 14.796875 -1.257812 14.796875 -2.5625 C 14.796875 -3.863281 14.8125 -5.441406 14.84375 -7.296875 C 14.882812 -9.148438 14.921875 -11.035156 14.953125 -12.953125 C 14.984375 -14.867188 15.015625 -16.5625 15.046875 -18.03125 C 15.085938 -19.507812 15.109375 -20.488281 15.109375 -20.96875 C 15.109375 -22.195312 15.039062 -23 14.90625 -23.375 C 14.769531 -23.757812 14.53125 -24.5 14.1875 -25.59375 C 14.050781 -26.070312 13.484375 -27.425781 12.484375 -29.65625 C 11.492188 -31.882812 10.378906 -34.847656 9.140625 -38.546875 C 8.390625 -41.078125 7.601562 -43.710938 6.78125 -46.453125 C 5.957031 -49.191406 5.21875 -51.8125 4.5625 -54.3125 C 3.914062 -56.820312 3.351562 -58.96875 2.875 -60.75 C 2.394531 -62.53125 2.085938 -63.660156 1.953125 -64.140625 C 1.878906 -64.484375 1.984375 -64.65625 2.265625 -64.65625 L 26.921875 -64.65625 C 27.128906 -64.65625 27.234375 -64.515625 27.234375 -64.234375 C 27.367188 -61.566406 27.570312 -58.894531 27.84375 -56.21875 C 28.125 -53.550781 28.4375 -50.878906 28.78125 -48.203125 C 28.914062 -47.316406 29.394531 -46.875 30.21875 -46.875 C 30.832031 -46.875 31.273438 -47.316406 31.546875 -48.203125 C 31.828125 -49.160156 32.085938 -50.460938 32.328125 -52.109375 C 32.566406 -53.753906 32.785156 -55.445312 32.984375 -57.1875 C 33.191406 -58.9375 33.378906 -60.476562 33.546875 -61.8125 C 33.722656 -63.15625 33.847656 -64 33.921875 -64.34375 C 33.984375 -64.550781 34.082031 -64.65625 34.21875 -64.65625 Z M 34.21875 -64.65625 "/></g></g></g><g fill="#ffffff" fill-opacity="1"><g transform="translate(59.924359, 82.616541)"><g><path d="M 62.078125 0 L 28.578125 0 C 28.296875 0 28.15625 -0.171875 28.15625 -0.515625 C 28.226562 -1.816406 28.363281 -3.578125 28.5625 -5.796875 C 28.769531 -8.023438 28.992188 -10.269531 29.234375 -12.53125 C 29.472656 -14.800781 29.664062 -16.550781 29.8125 -17.78125 C 29.875 -17.914062 30.007812 -18.015625 30.21875 -18.078125 C 30.425781 -18.148438 30.597656 -18.1875 30.734375 -18.1875 C 30.867188 -18.125 31.28125 -18.09375 31.96875 -18.09375 C 32.65625 -18.09375 33.359375 -18.09375 34.078125 -18.09375 C 34.796875 -18.09375 35.253906 -18.09375 35.453125 -18.09375 C 35.453125 -18.09375 35.742188 -18.226562 36.328125 -18.5 C 36.910156 -18.769531 37.203125 -19.25 37.203125 -19.9375 C 37.140625 -20.28125 36.988281 -21.289062 36.75 -22.96875 C 36.507812 -24.644531 36.234375 -26.5625 35.921875 -28.71875 C 35.609375 -30.882812 35.332031 -32.957031 35.09375 -34.9375 C 34.851562 -36.925781 34.703125 -38.398438 34.640625 -39.359375 C 34.566406 -40.867188 34.359375 -42.132812 34.015625 -43.15625 C 33.671875 -44.1875 33.160156 -44.703125 32.484375 -44.703125 C 31.523438 -44.773438 30.851562 -44.3125 30.46875 -43.3125 C 30.09375 -42.320312 29.875 -41.554688 29.8125 -41.015625 C 29.601562 -39.503906 29.257812 -37.378906 28.78125 -34.640625 C 28.300781 -31.898438 27.75 -28.882812 27.125 -25.59375 C 26.507812 -22.300781 25.925781 -19.007812 25.375 -15.71875 C 24.832031 -12.4375 24.375 -9.441406 24 -6.734375 C 23.625 -4.023438 23.398438 -1.953125 23.328125 -0.515625 C 23.328125 -0.171875 23.222656 0 23.015625 0 L 2.265625 0 C 1.984375 0 1.878906 -0.203125 1.953125 -0.609375 C 2.023438 -0.890625 2.078125 -1.179688 2.109375 -1.484375 C 2.140625 -1.796875 2.191406 -2.085938 2.265625 -2.359375 C 2.398438 -2.972656 2.671875 -4.289062 3.078125 -6.3125 C 3.492188 -8.34375 3.957031 -10.625 4.46875 -13.15625 C 4.976562 -15.6875 5.472656 -18.132812 5.953125 -20.5 C 6.441406 -22.863281 6.851562 -24.695312 7.1875 -26 C 7.332031 -26.894531 7.59375 -28.40625 7.96875 -30.53125 C 8.34375 -32.65625 8.75 -35.101562 9.1875 -37.875 C 9.632812 -40.644531 10.097656 -43.488281 10.578125 -46.40625 C 11.066406 -49.320312 11.5 -52.078125 11.875 -54.671875 C 12.25 -57.273438 12.570312 -59.429688 12.84375 -61.140625 C 13.125 -62.859375 13.265625 -63.890625 13.265625 -64.234375 C 13.328125 -64.515625 13.460938 -64.65625 13.671875 -64.65625 L 51.078125 -64.65625 C 51.210938 -64.65625 51.316406 -64.515625 51.390625 -64.234375 C 51.523438 -63.546875 51.78125 -62.125 52.15625 -59.96875 C 52.539062 -57.8125 52.953125 -55.394531 53.390625 -52.71875 C 53.835938 -50.050781 54.265625 -47.5 54.671875 -45.0625 C 55.085938 -42.632812 55.429688 -40.734375 55.703125 -39.359375 C 56.179688 -36.617188 56.625 -33.878906 57.03125 -31.140625 C 57.445312 -28.398438 57.863281 -25.660156 58.28125 -22.921875 C 58.414062 -22.367188 58.601562 -21.320312 58.84375 -19.78125 C 59.082031 -18.238281 59.390625 -16.488281 59.765625 -14.53125 C 60.140625 -12.582031 60.5 -10.613281 60.84375 -8.625 C 61.1875 -6.644531 61.507812 -4.9375 61.8125 -3.5 C 62.125 -2.0625 62.316406 -1.097656 62.390625 -0.609375 C 62.523438 -0.203125 62.421875 0 62.078125 0 Z M 62.078125 0 "/></g></g></g><g fill="#ffffff" fill-opacity="1"><g transform="translate(122.107265, 82.616541)"><g><path d="M 59.921875 -17.0625 C 59.921875 -16.164062 59.921875 -15.1875 59.921875 -14.125 C 59.921875 -13.070312 59.921875 -12.164062 59.921875 -11.40625 C 59.921875 -10.863281 59.9375 -10.039062 59.96875 -8.9375 C 60.007812 -7.84375 60.0625 -6.660156 60.125 -5.390625 C 60.195312 -4.128906 60.25 -3.050781 60.28125 -2.15625 C 60.3125 -1.269531 60.328125 -0.828125 60.328125 -0.828125 C 60.328125 -0.273438 60.054688 0 59.515625 0 L 3.90625 0 C 2.945312 0 2.5 -0.476562 2.5625 -1.4375 C 2.769531 -6.570312 2.890625 -11.726562 2.921875 -16.90625 C 2.960938 -22.082031 3.015625 -27.273438 3.078125 -32.484375 C 3.148438 -37.546875 3.335938 -42.644531 3.640625 -47.78125 C 3.953125 -52.925781 3.734375 -58.035156 2.984375 -63.109375 C 2.910156 -63.515625 3.007812 -63.875 3.28125 -64.1875 C 3.5625 -64.5 3.90625 -64.65625 4.3125 -64.65625 L 59.09375 -64.65625 C 59.507812 -64.65625 59.785156 -64.445312 59.921875 -64.03125 C 59.921875 -63.96875 59.898438 -63.660156 59.859375 -63.109375 C 59.828125 -62.554688 59.78125 -62.007812 59.71875 -61.46875 C 59.71875 -61.125 59.679688 -60.332031 59.609375 -59.09375 C 59.546875 -57.863281 59.492188 -56.578125 59.453125 -55.234375 C 59.421875 -53.898438 59.40625 -52.894531 59.40625 -52.21875 C 59.40625 -51.53125 59.4375 -50.6875 59.5 -49.6875 C 59.570312 -48.695312 59.660156 -47.804688 59.765625 -47.015625 C 59.867188 -46.234375 59.921875 -45.84375 59.921875 -45.84375 C 59.921875 -45.289062 59.613281 -45.015625 59 -45.015625 C 59 -45.015625 58.328125 -45.03125 56.984375 -45.0625 C 55.648438 -45.101562 53.957031 -45.125 51.90625 -45.125 C 49.851562 -45.125 47.675781 -45.125 45.375 -45.125 C 43.082031 -45.125 40.957031 -45.085938 39 -45.015625 C 37.050781 -44.953125 35.53125 -44.847656 34.4375 -44.703125 C 33.40625 -44.566406 32.359375 -44.257812 31.296875 -43.78125 C 30.234375 -43.300781 29.632812 -42.445312 29.5 -41.21875 C 29.425781 -40.457031 29.664062 -39.820312 30.21875 -39.3125 C 30.769531 -38.800781 31.351562 -38.40625 31.96875 -38.125 C 32.3125 -38.0625 33.390625 -37.992188 35.203125 -37.921875 C 37.015625 -37.859375 39.1875 -37.828125 41.71875 -37.828125 C 44.257812 -37.828125 46.8125 -37.84375 49.375 -37.875 C 51.945312 -37.90625 54.125 -37.921875 55.90625 -37.921875 C 57.6875 -37.921875 58.71875 -37.921875 59 -37.921875 C 59.613281 -37.921875 59.921875 -37.648438 59.921875 -37.109375 L 59.921875 -28.578125 C 59.921875 -27.816406 59.921875 -27.160156 59.921875 -26.609375 C 59.921875 -26.066406 59.921875 -25.488281 59.921875 -24.875 C 59.921875 -24.320312 59.613281 -24.046875 59 -24.046875 C 57.832031 -24.046875 56.203125 -24.0625 54.109375 -24.09375 C 52.023438 -24.132812 49.867188 -24.1875 47.640625 -24.25 C 45.410156 -24.320312 43.40625 -24.375 41.625 -24.40625 C 39.84375 -24.445312 38.644531 -24.46875 38.03125 -24.46875 C 37.34375 -24.394531 36.5 -24.359375 35.5 -24.359375 C 34.507812 -24.359375 33.566406 -24.21875 32.671875 -23.9375 C 31.785156 -23.664062 31.140625 -23.117188 30.734375 -22.296875 C 30.046875 -20.992188 30.144531 -19.914062 31.03125 -19.0625 C 31.925781 -18.207031 32.921875 -17.644531 34.015625 -17.375 C 34.703125 -17.238281 36.109375 -17.171875 38.234375 -17.171875 C 40.359375 -17.171875 42.773438 -17.21875 45.484375 -17.3125 C 48.191406 -17.414062 50.796875 -17.519531 53.296875 -17.625 C 55.796875 -17.726562 57.695312 -17.816406 59 -17.890625 C 59.613281 -17.890625 59.921875 -17.613281 59.921875 -17.0625 Z M 59.921875 -17.0625 "/></g></g></g><g fill="#ffffff" fill-opacity="1"><g transform="translate(182.851214, 82.616541)"><g><path d="M 60.328125 -10.375 C 60.328125 -9.894531 60.34375 -9.140625 60.375 -8.109375 C 60.414062 -7.085938 60.453125 -6.007812 60.484375 -4.875 C 60.515625 -3.75 60.546875 -2.773438 60.578125 -1.953125 C 60.617188 -1.128906 60.640625 -0.71875 60.640625 -0.71875 C 60.640625 -0.238281 60.4375 0 60.03125 0 L 3.390625 0 C 3.046875 0 2.875 -0.238281 2.875 -0.71875 L 2.875 -2.359375 C 2.875 -2.429688 2.875 -2.46875 2.875 -2.46875 C 2.875 -2.601562 2.875 -2.738281 2.875 -2.875 L 2.875 -34.953125 C 2.875 -37.617188 2.875 -40.285156 2.875 -42.953125 C 2.875 -45.628906 2.941406 -48.304688 3.078125 -50.984375 C 3.078125 -53.378906 3.046875 -55.742188 2.984375 -58.078125 C 2.984375 -59.097656 2.960938 -60.085938 2.921875 -61.046875 C 2.890625 -62.003906 2.910156 -63 2.984375 -64.03125 C 3.046875 -64.445312 3.25 -64.65625 3.59375 -64.65625 L 32.484375 -64.65625 C 32.828125 -64.65625 33 -64.414062 33 -63.9375 C 33 -61.738281 33.066406 -59.5625 33.203125 -57.40625 C 33.335938 -55.25 33.4375 -53.070312 33.5 -50.875 C 33.570312 -49.4375 33.609375 -48.015625 33.609375 -46.609375 C 33.609375 -45.203125 33.609375 -43.816406 33.609375 -42.453125 C 33.679688 -41.492188 33.679688 -40.101562 33.609375 -38.28125 C 33.535156 -36.46875 33.460938 -34.703125 33.390625 -32.984375 C 33.328125 -31.273438 33.332031 -30.144531 33.40625 -29.59375 C 33.40625 -28.707031 33.40625 -27.785156 33.40625 -26.828125 C 33.40625 -25.867188 33.644531 -25.082031 34.125 -24.46875 C 34.394531 -24.050781 35.179688 -23.773438 36.484375 -23.640625 C 37.785156 -23.503906 39.15625 -23.4375 40.59375 -23.4375 C 42.03125 -23.4375 43.09375 -23.4375 43.78125 -23.4375 C 44.46875 -23.4375 45.53125 -23.453125 46.96875 -23.484375 C 48.40625 -23.515625 49.960938 -23.566406 51.640625 -23.640625 C 53.328125 -23.710938 54.941406 -23.78125 56.484375 -23.84375 C 58.023438 -23.914062 59.238281 -23.953125 60.125 -23.953125 C 60.46875 -23.878906 60.601562 -23.671875 60.53125 -23.328125 C 60.53125 -23.191406 60.53125 -22.675781 60.53125 -21.78125 C 60.53125 -20.894531 60.515625 -19.972656 60.484375 -19.015625 C 60.453125 -18.054688 60.4375 -17.335938 60.4375 -16.859375 C 60.363281 -15.765625 60.328125 -14.664062 60.328125 -13.5625 C 60.328125 -12.46875 60.328125 -11.40625 60.328125 -10.375 Z M 60.328125 -10.375 "/></g></g></g></g></g><g clip-path="url(#59c22dc94d)"><path fill="#ffffff" d="M 233.617188 120.75 L 156.523438 197.839844 L 141.378906 182.695312 L 184.339844 139.738281 C 168.699219 138.984375 153.292969 132.65625 141.378906 120.75 L 156.523438 105.601562 C 173.601562 122.679688 201.394531 122.679688 218.476562 105.601562 Z M 151.949219 82.335938 C 151.949219 73.359375 159.25 66.0625 168.222656 66.0625 C 177.203125 66.0625 184.503906 73.359375 184.503906 82.335938 C 184.503906 91.308594 177.203125 98.609375 168.222656 98.609375 C 159.25 98.609375 151.949219 91.308594 151.949219 82.335938 Z M 190.496094 82.335938 C 190.496094 73.359375 197.796875 66.0625 206.773438 66.0625 C 215.753906 66.0625 223.046875 73.359375 223.046875 82.335938 C 223.046875 91.308594 215.746094 98.609375 206.773438 98.609375 C 197.800781 98.609375 190.496094 91.308594 190.496094 82.335938 Z M 190.496094 82.335938 " fill-opacity="1" fill-rule="nonzero"/></g></svg>