<svg xmlns="http://www.w3.org/2000/svg" xmlns:xlink="http://www.w3.org/1999/xlink" width="500" zoomAndPan="magnify" viewBox="0 0 375 374.999991" height="500" preserveAspectRatio="xMidYMid meet" version="1.0"><defs><g/><clipPath id="3105f00066"><path d="M 292 153 L 324 153 L 324 186 L 292 186 Z M 292 153 " clip-rule="nonzero"/></clipPath><clipPath id="561d1b30b8"><path d="M 285.617188 158.859375 L 307.648438 138.5 L 338.703125 172.09375 L 316.671875 192.457031 Z M 285.617188 158.859375 " clip-rule="nonzero"/></clipPath><clipPath id="0fb9779db2"><path d="M 285.617188 158.859375 L 307.648438 138.5 L 338.703125 172.09375 L 316.671875 192.457031 Z M 285.617188 158.859375 " clip-rule="nonzero"/></clipPath><clipPath id="dee8d2a101"><path d="M 308 139 L 340 139 L 340 171 L 308 171 Z M 308 139 " clip-rule="nonzero"/></clipPath><clipPath id="13c5f9f53a"><path d="M 301.664062 144.03125 L 323.695312 123.667969 L 354.75 157.265625 L 332.71875 177.628906 Z M 301.664062 144.03125 " clip-rule="nonzero"/></clipPath><clipPath id="8b4b3e6868"><path d="M 301.664062 144.03125 L 323.695312 123.667969 L 354.75 157.265625 L 332.71875 177.628906 Z M 301.664062 144.03125 " clip-rule="nonzero"/></clipPath><clipPath id="a988575799"><rect x="0" width="272" y="0" height="98"/></clipPath><clipPath id="c660a952c3"><rect x="0" width="270" y="0" height="38"/></clipPath></defs><g clip-path="url(#3105f00066)"><g clip-path="url(#561d1b30b8)"><g clip-path="url(#0fb9779db2)"><path fill="#ffffff" d="M 323.527344 155.160156 L 296.417969 153.953125 C 291.183594 153.722656 290.296875 163.921875 296.5 164.089844 L 313.371094 164.546875 L 312.082031 181.519531 C 311.691406 186.691406 321.769531 187.234375 322.058594 181.984375 Z M 323.527344 155.160156 " fill-opacity="1" fill-rule="nonzero"/></g></g></g><g clip-path="url(#dee8d2a101)"><g clip-path="url(#13c5f9f53a)"><g clip-path="url(#8b4b3e6868)"><path fill="#ffffff" d="M 339.574219 140.328125 L 312.464844 139.125 C 307.226562 138.890625 306.34375 149.089844 312.546875 149.261719 L 329.414062 149.714844 L 328.128906 166.691406 C 327.734375 171.859375 337.816406 172.40625 338.101562 167.152344 Z M 339.574219 140.328125 " fill-opacity="1" fill-rule="nonzero"/></g></g></g><g transform="matrix(1, 0, 0, 1, 34, 137)"><g clip-path="url(#a988575799)"><g fill="#ffffff" fill-opacity="1"><g transform="translate(0.670521, 76.582634)"><g><path d="M 23.078125 -7.1875 C 24.640625 -7.1875 26.171875 -7.398438 27.671875 -7.828125 C 29.179688 -8.253906 30.582031 -8.976562 31.875 -10 C 33.113281 -11.132812 34.320312 -11.660156 35.5 -11.578125 C 36.6875 -11.492188 37.671875 -11.0625 38.453125 -10.28125 C 39.234375 -9.507812 39.625 -8.539062 39.625 -7.375 C 39.625 -6.21875 39.054688 -5.101562 37.921875 -4.03125 C 36.035156 -2.207031 33.800781 -0.929688 31.21875 -0.203125 C 28.644531 0.523438 26.007812 0.863281 23.3125 0.8125 C 19.125 0.8125 15.425781 -0.046875 12.21875 -1.765625 C 9.019531 -3.492188 6.519531 -5.890625 4.71875 -8.953125 C 2.914062 -12.023438 2.015625 -15.578125 2.015625 -19.609375 C 2.015625 -24.015625 2.875 -27.882812 4.59375 -31.21875 C 6.320312 -34.5625 8.757812 -37.171875 11.90625 -39.046875 C 15.050781 -40.929688 18.773438 -41.875 23.078125 -41.875 C 27.378906 -41.875 31.035156 -41 34.046875 -39.25 C 37.054688 -37.5 39.351562 -35.050781 40.9375 -31.90625 C 42.53125 -28.757812 43.328125 -25.085938 43.328125 -20.890625 C 43.328125 -19.546875 43.054688 -18.40625 42.515625 -17.46875 C 41.984375 -16.53125 40.5625 -16.0625 38.25 -16.0625 L 11.375 -16.0625 C 12.125 -13.425781 13.546875 -11.285156 15.640625 -9.640625 C 17.742188 -8.003906 20.222656 -7.1875 23.078125 -7.1875 Z M 23.15625 -33.890625 C 20.039062 -33.890625 17.429688 -32.90625 15.328125 -30.9375 C 13.234375 -28.976562 11.890625 -26.410156 11.296875 -23.234375 L 34.78125 -23.234375 C 34.507812 -26.410156 33.457031 -28.976562 31.625 -30.9375 C 29.800781 -32.90625 26.976562 -33.890625 23.15625 -33.890625 Z M 23.15625 -33.890625 "/></g></g></g><g fill="#ffffff" fill-opacity="1"><g transform="translate(47.54189, 76.582634)"><g><path d="M 12.015625 -4.03125 C 12.015625 -2.957031 11.570312 -2.015625 10.6875 -1.203125 C 9.800781 -0.398438 8.710938 0 7.421875 0 C 6.078125 0 4.972656 -0.398438 4.109375 -1.203125 C 3.253906 -2.015625 2.828125 -2.957031 2.828125 -4.03125 L 2.828125 -48.171875 C 2.828125 -49.242188 3.253906 -50.179688 4.109375 -50.984375 C 4.972656 -51.796875 6.078125 -52.203125 7.421875 -52.203125 C 8.710938 -52.203125 9.800781 -51.796875 10.6875 -50.984375 C 11.570312 -50.179688 12.015625 -49.242188 12.015625 -48.171875 Z M 12.015625 -4.03125 "/></g></g></g><g fill="#ffffff" fill-opacity="1"><g transform="translate(60.771858, 76.582634)"><g><path d="M 23.078125 -7.1875 C 24.640625 -7.1875 26.171875 -7.398438 27.671875 -7.828125 C 29.179688 -8.253906 30.582031 -8.976562 31.875 -10 C 33.113281 -11.132812 34.320312 -11.660156 35.5 -11.578125 C 36.6875 -11.492188 37.671875 -11.0625 38.453125 -10.28125 C 39.234375 -9.507812 39.625 -8.539062 39.625 -7.375 C 39.625 -6.21875 39.054688 -5.101562 37.921875 -4.03125 C 36.035156 -2.207031 33.800781 -0.929688 31.21875 -0.203125 C 28.644531 0.523438 26.007812 0.863281 23.3125 0.8125 C 19.125 0.8125 15.425781 -0.046875 12.21875 -1.765625 C 9.019531 -3.492188 6.519531 -5.890625 4.71875 -8.953125 C 2.914062 -12.023438 2.015625 -15.578125 2.015625 -19.609375 C 2.015625 -24.015625 2.875 -27.882812 4.59375 -31.21875 C 6.320312 -34.5625 8.757812 -37.171875 11.90625 -39.046875 C 15.050781 -40.929688 18.773438 -41.875 23.078125 -41.875 C 27.378906 -41.875 31.035156 -41 34.046875 -39.25 C 37.054688 -37.5 39.351562 -35.050781 40.9375 -31.90625 C 42.53125 -28.757812 43.328125 -25.085938 43.328125 -20.890625 C 43.328125 -19.546875 43.054688 -18.40625 42.515625 -17.46875 C 41.984375 -16.53125 40.5625 -16.0625 38.25 -16.0625 L 11.375 -16.0625 C 12.125 -13.425781 13.546875 -11.285156 15.640625 -9.640625 C 17.742188 -8.003906 20.222656 -7.1875 23.078125 -7.1875 Z M 23.15625 -33.890625 C 20.039062 -33.890625 17.429688 -32.90625 15.328125 -30.9375 C 13.234375 -28.976562 11.890625 -26.410156 11.296875 -23.234375 L 34.78125 -23.234375 C 34.507812 -26.410156 33.457031 -28.976562 31.625 -30.9375 C 29.800781 -32.90625 26.976562 -33.890625 23.15625 -33.890625 Z M 23.15625 -33.890625 "/></g></g></g><g fill="#ffffff" fill-opacity="1"><g transform="translate(107.643228, 76.582634)"><g><path d="M 0.078125 -35.015625 C -0.296875 -36.085938 -0.3125 -37.082031 0.03125 -38 C 0.382812 -38.914062 0.976562 -39.65625 1.8125 -40.21875 C 2.644531 -40.78125 3.519531 -41.0625 4.4375 -41.0625 C 5.40625 -41.0625 6.25 -40.804688 6.96875 -40.296875 C 7.695312 -39.785156 8.253906 -39.101562 8.640625 -38.25 L 20.984375 -13.234375 L 33.328125 -38.328125 C 33.804688 -39.296875 34.4375 -39.992188 35.21875 -40.421875 C 36 -40.847656 36.820312 -41.0625 37.6875 -41.0625 C 38.65625 -41.0625 39.523438 -40.804688 40.296875 -40.296875 C 41.078125 -39.785156 41.613281 -39.085938 41.90625 -38.203125 C 42.207031 -37.316406 42.0625 -36.28125 41.46875 -35.09375 L 25.015625 -1.6875 C 24.640625 -0.988281 24.070312 -0.398438 23.3125 0.078125 C 22.5625 0.566406 21.726562 0.8125 20.8125 0.8125 C 19.039062 0.8125 17.695312 0.03125 16.78125 -1.53125 Z M 0.078125 -35.015625 "/></g></g></g><g fill="#ffffff" fill-opacity="1"><g transform="translate(149.351409, 76.582634)"><g><path d="M 37.515625 -41.0625 C 38.921875 -41.0625 40.039062 -40.671875 40.875 -39.890625 C 41.707031 -39.117188 42.125 -38.113281 42.125 -36.875 L 42.125 -4.203125 C 42.125 -2.960938 41.707031 -1.953125 40.875 -1.171875 C 40.039062 -0.390625 38.921875 0 37.515625 0 C 36.171875 0 35.125 -0.304688 34.375 -0.921875 C 33.625 -1.546875 33.164062 -2.367188 33 -3.390625 C 31.175781 -1.929688 29.132812 -0.863281 26.875 -0.1875 C 24.613281 0.476562 22.457031 0.8125 20.40625 0.8125 C 16.539062 0.8125 13.191406 -0.0703125 10.359375 -1.84375 C 7.535156 -3.625 5.367188 -6.128906 3.859375 -9.359375 C 2.359375 -12.585938 1.609375 -16.351562 1.609375 -20.65625 C 1.609375 -24.851562 2.441406 -28.535156 4.109375 -31.703125 C 5.773438 -34.878906 8.101562 -37.367188 11.09375 -39.171875 C 14.082031 -40.972656 17.539062 -41.875 21.46875 -41.875 C 23.1875 -41.875 25.09375 -41.550781 27.1875 -40.90625 C 29.289062 -40.257812 31.226562 -39.238281 33 -37.84375 C 33.21875 -38.8125 33.703125 -39.585938 34.453125 -40.171875 C 35.203125 -40.765625 36.222656 -41.0625 37.515625 -41.0625 Z M 21.375 -7.34375 C 23.75 -7.34375 26.035156 -7.863281 28.234375 -8.90625 C 30.441406 -9.957031 32.003906 -11.507812 32.921875 -13.5625 L 32.921875 -27.515625 C 31.898438 -29.503906 30.363281 -31.035156 28.3125 -32.109375 C 26.269531 -33.191406 24.203125 -33.734375 22.109375 -33.734375 C 18.722656 -33.734375 15.992188 -32.492188 13.921875 -30.015625 C 11.847656 -27.535156 10.8125 -24.390625 10.8125 -20.578125 C 10.8125 -16.597656 11.78125 -13.394531 13.71875 -10.96875 C 15.65625 -8.550781 18.207031 -7.34375 21.375 -7.34375 Z M 21.375 -7.34375 "/></g></g></g><g fill="#ffffff" fill-opacity="1"><g transform="translate(195.980749, 76.582634)"><g><path d="M 22.1875 -7.671875 C 23.425781 -8.367188 24.539062 -8.609375 25.53125 -8.390625 C 26.53125 -8.171875 27.335938 -7.695312 27.953125 -6.96875 C 28.578125 -6.25 28.890625 -5.40625 28.890625 -4.4375 C 28.890625 -3.738281 28.671875 -3.039062 28.234375 -2.34375 C 27.804688 -1.644531 27.132812 -1.050781 26.21875 -0.5625 C 25.039062 0.0820312 23.96875 0.472656 23 0.609375 C 22.03125 0.742188 20.898438 0.8125 19.609375 0.8125 C 16.109375 0.8125 13.414062 0.0859375 11.53125 -1.359375 C 9.65625 -2.816406 8.363281 -4.703125 7.65625 -7.015625 C 6.957031 -9.328125 6.609375 -11.773438 6.609375 -14.359375 L 6.609375 -33.40625 L 3.546875 -33.40625 C 2.046875 -33.40625 0.929688 -33.804688 0.203125 -34.609375 C -0.523438 -35.421875 -0.890625 -36.285156 -0.890625 -37.203125 C -0.890625 -38.171875 -0.515625 -39.054688 0.234375 -39.859375 C 0.992188 -40.660156 2.097656 -41.0625 3.546875 -41.0625 L 6.609375 -41.0625 L 6.609375 -48.015625 C 6.609375 -49.410156 7.066406 -50.457031 7.984375 -51.15625 C 8.898438 -51.851562 9.953125 -52.203125 11.140625 -52.203125 C 12.265625 -52.203125 13.3125 -51.851562 14.28125 -51.15625 C 15.25 -50.457031 15.734375 -49.410156 15.734375 -48.015625 L 15.734375 -41.0625 L 22.03125 -41.0625 C 23.425781 -41.0625 24.5 -40.660156 25.25 -39.859375 C 26.007812 -39.054688 26.390625 -38.171875 26.390625 -37.203125 C 26.390625 -36.234375 26.007812 -35.359375 25.25 -34.578125 C 24.5 -33.796875 23.425781 -33.40625 22.03125 -33.40625 L 15.734375 -33.40625 L 15.734375 -14.359375 C 15.734375 -13.179688 15.8125 -12.039062 15.96875 -10.9375 C 16.132812 -9.832031 16.5 -8.914062 17.0625 -8.1875 C 17.625 -7.457031 18.472656 -7.09375 19.609375 -7.09375 C 20.035156 -7.09375 20.503906 -7.160156 21.015625 -7.296875 C 21.523438 -7.429688 21.914062 -7.554688 22.1875 -7.671875 Z M 22.1875 -7.671875 "/></g></g></g><g fill="#ffffff" fill-opacity="1"><g transform="translate(223.974214, 76.582634)"><g><path d="M 23.078125 -7.1875 C 24.640625 -7.1875 26.171875 -7.398438 27.671875 -7.828125 C 29.179688 -8.253906 30.582031 -8.976562 31.875 -10 C 33.113281 -11.132812 34.320312 -11.660156 35.5 -11.578125 C 36.6875 -11.492188 37.671875 -11.0625 38.453125 -10.28125 C 39.234375 -9.507812 39.625 -8.539062 39.625 -7.375 C 39.625 -6.21875 39.054688 -5.101562 37.921875 -4.03125 C 36.035156 -2.207031 33.800781 -0.929688 31.21875 -0.203125 C 28.644531 0.523438 26.007812 0.863281 23.3125 0.8125 C 19.125 0.8125 15.425781 -0.046875 12.21875 -1.765625 C 9.019531 -3.492188 6.519531 -5.890625 4.71875 -8.953125 C 2.914062 -12.023438 2.015625 -15.578125 2.015625 -19.609375 C 2.015625 -24.015625 2.875 -27.882812 4.59375 -31.21875 C 6.320312 -34.5625 8.757812 -37.171875 11.90625 -39.046875 C 15.050781 -40.929688 18.773438 -41.875 23.078125 -41.875 C 27.378906 -41.875 31.035156 -41 34.046875 -39.25 C 37.054688 -37.5 39.351562 -35.050781 40.9375 -31.90625 C 42.53125 -28.757812 43.328125 -25.085938 43.328125 -20.890625 C 43.328125 -19.546875 43.054688 -18.40625 42.515625 -17.46875 C 41.984375 -16.53125 40.5625 -16.0625 38.25 -16.0625 L 11.375 -16.0625 C 12.125 -13.425781 13.546875 -11.285156 15.640625 -9.640625 C 17.742188 -8.003906 20.222656 -7.1875 23.078125 -7.1875 Z M 23.15625 -33.890625 C 20.039062 -33.890625 17.429688 -32.90625 15.328125 -30.9375 C 13.234375 -28.976562 11.890625 -26.410156 11.296875 -23.234375 L 34.78125 -23.234375 C 34.507812 -26.410156 33.457031 -28.976562 31.625 -30.9375 C 29.800781 -32.90625 26.976562 -33.890625 23.15625 -33.890625 Z M 23.15625 -33.890625 "/></g></g></g></g></g><g transform="matrix(1, 0, 0, 1, 36, 217)"><g clip-path="url(#c660a952c3)"><g fill="#ffffff" fill-opacity="1"><g transform="translate(1.293979, 28.045541)"><g><path d="M 18.375 -14.0625 C 19.945312 -14.0625 21.226562 -13.554688 22.21875 -12.546875 C 23.21875 -11.535156 23.71875 -10.039062 23.71875 -8.0625 L 23.71875 0 L 22.609375 0 L 22.609375 -8 C 22.609375 -9.632812 22.210938 -10.882812 21.421875 -11.75 C 20.640625 -12.625 19.5625 -13.0625 18.1875 -13.0625 C 16.769531 -13.0625 15.628906 -12.570312 14.765625 -11.59375 C 13.898438 -10.613281 13.46875 -9.191406 13.46875 -7.328125 L 13.46875 0 L 12.359375 0 L 12.359375 -8 C 12.359375 -9.632812 11.960938 -10.882812 11.171875 -11.75 C 10.390625 -12.625 9.3125 -13.0625 7.9375 -13.0625 C 6.519531 -13.0625 5.378906 -12.570312 4.515625 -11.59375 C 3.648438 -10.613281 3.21875 -9.191406 3.21875 -7.328125 L 3.21875 0 L 2.078125 0 L 2.078125 -13.78125 L 3.21875 -13.78125 L 3.21875 -10.78125 C 3.613281 -11.863281 4.242188 -12.679688 5.109375 -13.234375 C 5.984375 -13.785156 6.988281 -14.0625 8.125 -14.0625 C 9.375 -14.0625 10.453125 -13.734375 11.359375 -13.078125 C 12.265625 -12.429688 12.882812 -11.472656 13.21875 -10.203125 C 13.539062 -11.472656 14.164062 -12.429688 15.09375 -13.078125 C 16.03125 -13.734375 17.125 -14.0625 18.375 -14.0625 Z M 18.375 -14.0625 "/></g></g></g><g fill="#ffffff" fill-opacity="1"><g transform="translate(26.038608, 28.045541)"><g><path d="M 1.375 -6.90625 C 1.375 -8.320312 1.65625 -9.5625 2.21875 -10.625 C 2.789062 -11.695312 3.578125 -12.519531 4.578125 -13.09375 C 5.585938 -13.664062 6.734375 -13.953125 8.015625 -13.953125 C 9.472656 -13.953125 10.707031 -13.597656 11.71875 -12.890625 C 12.738281 -12.179688 13.453125 -11.273438 13.859375 -10.171875 L 13.859375 -13.78125 L 15 -13.78125 L 15 0 L 13.859375 0 L 13.859375 -3.625 C 13.453125 -2.507812 12.734375 -1.59375 11.703125 -0.875 C 10.679688 -0.15625 9.453125 0.203125 8.015625 0.203125 C 6.734375 0.203125 5.585938 -0.0859375 4.578125 -0.671875 C 3.578125 -1.253906 2.789062 -2.082031 2.21875 -3.15625 C 1.65625 -4.226562 1.375 -5.476562 1.375 -6.90625 Z M 13.859375 -6.90625 C 13.859375 -8.101562 13.609375 -9.160156 13.109375 -10.078125 C 12.609375 -11.003906 11.925781 -11.71875 11.0625 -12.21875 C 10.195312 -12.71875 9.234375 -12.96875 8.171875 -12.96875 C 7.054688 -12.96875 6.070312 -12.722656 5.21875 -12.234375 C 4.375 -11.753906 3.710938 -11.054688 3.234375 -10.140625 C 2.765625 -9.234375 2.53125 -8.15625 2.53125 -6.90625 C 2.53125 -5.65625 2.765625 -4.570312 3.234375 -3.65625 C 3.710938 -2.738281 4.378906 -2.035156 5.234375 -1.546875 C 6.085938 -1.054688 7.066406 -0.8125 8.171875 -0.8125 C 9.234375 -0.8125 10.203125 -1.0625 11.078125 -1.5625 C 11.953125 -2.0625 12.632812 -2.769531 13.125 -3.6875 C 13.613281 -4.613281 13.859375 -5.6875 13.859375 -6.90625 Z M 13.859375 -6.90625 "/></g></g></g><g fill="#ffffff" fill-opacity="1"><g transform="translate(42.154268, 28.045541)"><g><path d="M 3.21875 -10.9375 C 3.5625 -11.945312 4.160156 -12.71875 5.015625 -13.25 C 5.878906 -13.789062 6.984375 -14.0625 8.328125 -14.0625 L 8.328125 -12.859375 L 7.9375 -12.859375 C 6.582031 -12.859375 5.457031 -12.472656 4.5625 -11.703125 C 3.664062 -10.941406 3.21875 -9.6875 3.21875 -7.9375 L 3.21875 0 L 2.078125 0 L 2.078125 -13.78125 L 3.21875 -13.78125 Z M 3.21875 -10.9375 "/></g></g></g><g fill="#ffffff" fill-opacity="1"><g transform="translate(50.072382, 28.045541)"><g><path d="M 9.234375 0 L 3.21875 -6.3125 L 3.21875 0 L 2.078125 0 L 2.078125 -18.78125 L 3.21875 -18.78125 L 3.21875 -7.53125 L 9.140625 -13.78125 L 10.734375 -13.78125 L 4.0625 -6.921875 L 10.8125 0 Z M 9.234375 0 "/></g></g></g><g fill="#ffffff" fill-opacity="1"><g transform="translate(60.198504, 28.045541)"><g><path d="M 14.484375 -7.8125 C 14.484375 -7.207031 14.46875 -6.75 14.4375 -6.4375 L 2.53125 -6.4375 C 2.570312 -5.207031 2.84375 -4.171875 3.34375 -3.328125 C 3.851562 -2.484375 4.519531 -1.847656 5.34375 -1.421875 C 6.175781 -0.992188 7.082031 -0.78125 8.0625 -0.78125 C 9.414062 -0.78125 10.550781 -1.113281 11.46875 -1.78125 C 12.382812 -2.457031 12.957031 -3.367188 13.1875 -4.515625 L 14.390625 -4.515625 C 14.117188 -3.109375 13.421875 -1.96875 12.296875 -1.09375 C 11.179688 -0.226562 9.769531 0.203125 8.0625 0.203125 C 6.78125 0.203125 5.628906 -0.0820312 4.609375 -0.65625 C 3.597656 -1.226562 2.804688 -2.050781 2.234375 -3.125 C 1.660156 -4.207031 1.375 -5.46875 1.375 -6.90625 C 1.375 -8.34375 1.65625 -9.59375 2.21875 -10.65625 C 2.789062 -11.71875 3.582031 -12.53125 4.59375 -13.09375 C 5.601562 -13.664062 6.757812 -13.953125 8.0625 -13.953125 C 9.382812 -13.953125 10.53125 -13.664062 11.5 -13.09375 C 12.476562 -12.53125 13.21875 -11.78125 13.71875 -10.84375 C 14.226562 -9.90625 14.484375 -8.894531 14.484375 -7.8125 Z M 13.34375 -7.390625 C 13.394531 -8.609375 13.179688 -9.640625 12.703125 -10.484375 C 12.222656 -11.328125 11.566406 -11.953125 10.734375 -12.359375 C 9.898438 -12.773438 9.003906 -12.984375 8.046875 -12.984375 C 7.078125 -12.984375 6.179688 -12.773438 5.359375 -12.359375 C 4.546875 -11.953125 3.878906 -11.328125 3.359375 -10.484375 C 2.847656 -9.640625 2.570312 -8.609375 2.53125 -7.390625 Z M 13.34375 -7.390625 "/></g></g></g><g fill="#ffffff" fill-opacity="1"><g transform="translate(75.09595, 28.045541)"><g><path d="M 3.78125 -12.78125 L 3.78125 -3.671875 C 3.78125 -2.660156 3.960938 -1.960938 4.328125 -1.578125 C 4.703125 -1.203125 5.363281 -1.015625 6.3125 -1.015625 L 7.859375 -1.015625 L 7.859375 0 L 6.140625 0 C 4.941406 0 4.054688 -0.28125 3.484375 -0.84375 C 2.921875 -1.414062 2.640625 -2.359375 2.640625 -3.671875 L 2.640625 -12.78125 L 0.5625 -12.78125 L 0.5625 -13.78125 L 2.640625 -13.78125 L 2.640625 -17.28125 L 3.78125 -17.28125 L 3.78125 -13.78125 L 7.859375 -13.78125 L 7.859375 -12.78125 Z M 3.78125 -12.78125 "/></g></g></g><g fill="#ffffff" fill-opacity="1"><g transform="translate(82.93793, 28.045541)"><g><path d="M 2.671875 -16.84375 C 2.398438 -16.84375 2.171875 -16.929688 1.984375 -17.109375 C 1.796875 -17.285156 1.703125 -17.53125 1.703125 -17.84375 C 1.703125 -18.125 1.796875 -18.359375 1.984375 -18.546875 C 2.171875 -18.734375 2.398438 -18.828125 2.671875 -18.828125 C 2.941406 -18.828125 3.164062 -18.734375 3.34375 -18.546875 C 3.53125 -18.359375 3.625 -18.125 3.625 -17.84375 C 3.625 -17.53125 3.53125 -17.285156 3.34375 -17.109375 C 3.164062 -16.929688 2.941406 -16.84375 2.671875 -16.84375 Z M 3.21875 -13.78125 L 3.21875 0 L 2.078125 0 L 2.078125 -13.78125 Z M 3.21875 -13.78125 "/></g></g></g><g fill="#ffffff" fill-opacity="1"><g transform="translate(87.302933, 28.045541)"><g><path d="M 8.296875 -14.0625 C 9.941406 -14.0625 11.28125 -13.554688 12.3125 -12.546875 C 13.34375 -11.535156 13.859375 -10.039062 13.859375 -8.0625 L 13.859375 0 L 12.734375 0 L 12.734375 -8 C 12.734375 -9.632812 12.316406 -10.882812 11.484375 -11.75 C 10.660156 -12.625 9.539062 -13.0625 8.125 -13.0625 C 6.632812 -13.0625 5.441406 -12.585938 4.546875 -11.640625 C 3.660156 -10.691406 3.21875 -9.289062 3.21875 -7.4375 L 3.21875 0 L 2.078125 0 L 2.078125 -13.78125 L 3.21875 -13.78125 L 3.21875 -10.859375 C 3.613281 -11.890625 4.257812 -12.679688 5.15625 -13.234375 C 6.0625 -13.785156 7.109375 -14.0625 8.296875 -14.0625 Z M 8.296875 -14.0625 "/></g></g></g><g fill="#ffffff" fill-opacity="1"><g transform="translate(102.149624, 28.045541)"><g><path d="M 8.015625 -13.953125 C 9.472656 -13.953125 10.707031 -13.597656 11.71875 -12.890625 C 12.738281 -12.191406 13.453125 -11.296875 13.859375 -10.203125 L 13.859375 -13.78125 L 15 -13.78125 L 15 0.4375 C 15 1.695312 14.71875 2.804688 14.15625 3.765625 C 13.601562 4.722656 12.851562 5.457031 11.90625 5.96875 C 10.957031 6.488281 9.898438 6.75 8.734375 6.75 C 7.003906 6.75 5.570312 6.332031 4.4375 5.5 C 3.300781 4.675781 2.554688 3.5625 2.203125 2.15625 L 3.34375 2.15625 C 3.6875 3.257812 4.320312 4.132812 5.25 4.78125 C 6.175781 5.4375 7.335938 5.765625 8.734375 5.765625 C 9.691406 5.765625 10.5625 5.546875 11.34375 5.109375 C 12.125 4.679688 12.738281 4.066406 13.1875 3.265625 C 13.632812 2.460938 13.859375 1.519531 13.859375 0.4375 L 13.859375 -3.609375 C 13.453125 -2.503906 12.734375 -1.59375 11.703125 -0.875 C 10.679688 -0.15625 9.453125 0.203125 8.015625 0.203125 C 6.734375 0.203125 5.585938 -0.0859375 4.578125 -0.671875 C 3.578125 -1.253906 2.789062 -2.082031 2.21875 -3.15625 C 1.65625 -4.226562 1.375 -5.476562 1.375 -6.90625 C 1.375 -8.320312 1.65625 -9.5625 2.21875 -10.625 C 2.789062 -11.695312 3.578125 -12.519531 4.578125 -13.09375 C 5.585938 -13.664062 6.734375 -13.953125 8.015625 -13.953125 Z M 13.859375 -6.90625 C 13.859375 -8.101562 13.609375 -9.160156 13.109375 -10.078125 C 12.609375 -11.003906 11.925781 -11.71875 11.0625 -12.21875 C 10.195312 -12.71875 9.234375 -12.96875 8.171875 -12.96875 C 7.054688 -12.96875 6.070312 -12.722656 5.21875 -12.234375 C 4.375 -11.753906 3.710938 -11.054688 3.234375 -10.140625 C 2.765625 -9.234375 2.53125 -8.15625 2.53125 -6.90625 C 2.53125 -5.65625 2.765625 -4.570312 3.234375 -3.65625 C 3.710938 -2.738281 4.378906 -2.035156 5.234375 -1.546875 C 6.085938 -1.054688 7.066406 -0.8125 8.171875 -0.8125 C 9.234375 -0.8125 10.203125 -1.0625 11.078125 -1.5625 C 11.953125 -2.0625 12.632812 -2.769531 13.125 -3.6875 C 13.613281 -4.613281 13.859375 -5.6875 13.859375 -6.90625 Z M 13.859375 -6.90625 "/></g></g></g><g fill="#ffffff" fill-opacity="1"><g transform="translate(118.265284, 28.045541)"><g/></g></g><g fill="#ffffff" fill-opacity="1"><g transform="translate(124.457608, 28.045541)"><g><path d="M 3.78125 -12.78125 L 3.78125 -3.671875 C 3.78125 -2.660156 3.960938 -1.960938 4.328125 -1.578125 C 4.703125 -1.203125 5.363281 -1.015625 6.3125 -1.015625 L 7.859375 -1.015625 L 7.859375 0 L 6.140625 0 C 4.941406 0 4.054688 -0.28125 3.484375 -0.84375 C 2.921875 -1.414062 2.640625 -2.359375 2.640625 -3.671875 L 2.640625 -12.78125 L 0.5625 -12.78125 L 0.5625 -13.78125 L 2.640625 -13.78125 L 2.640625 -17.28125 L 3.78125 -17.28125 L 3.78125 -13.78125 L 7.859375 -13.78125 L 7.859375 -12.78125 Z M 3.78125 -12.78125 "/></g></g></g><g fill="#ffffff" fill-opacity="1"><g transform="translate(132.299589, 28.045541)"><g><path d="M 8.328125 -14.0625 C 9.953125 -14.0625 11.28125 -13.554688 12.3125 -12.546875 C 13.34375 -11.535156 13.859375 -10.039062 13.859375 -8.0625 L 13.859375 0 L 12.734375 0 L 12.734375 -8 C 12.734375 -9.632812 12.316406 -10.882812 11.484375 -11.75 C 10.660156 -12.625 9.539062 -13.0625 8.125 -13.0625 C 6.632812 -13.0625 5.441406 -12.585938 4.546875 -11.640625 C 3.660156 -10.691406 3.21875 -9.289062 3.21875 -7.4375 L 3.21875 0 L 2.078125 0 L 2.078125 -18.78125 L 3.21875 -18.78125 L 3.21875 -10.859375 C 3.613281 -11.890625 4.265625 -12.679688 5.171875 -13.234375 C 6.085938 -13.785156 7.140625 -14.0625 8.328125 -14.0625 Z M 8.328125 -14.0625 "/></g></g></g><g fill="#ffffff" fill-opacity="1"><g transform="translate(147.146279, 28.045541)"><g><path d="M 1.375 -6.90625 C 1.375 -8.320312 1.65625 -9.5625 2.21875 -10.625 C 2.789062 -11.695312 3.578125 -12.519531 4.578125 -13.09375 C 5.585938 -13.664062 6.734375 -13.953125 8.015625 -13.953125 C 9.472656 -13.953125 10.707031 -13.597656 11.71875 -12.890625 C 12.738281 -12.179688 13.453125 -11.273438 13.859375 -10.171875 L 13.859375 -13.78125 L 15 -13.78125 L 15 0 L 13.859375 0 L 13.859375 -3.625 C 13.453125 -2.507812 12.734375 -1.59375 11.703125 -0.875 C 10.679688 -0.15625 9.453125 0.203125 8.015625 0.203125 C 6.734375 0.203125 5.585938 -0.0859375 4.578125 -0.671875 C 3.578125 -1.253906 2.789062 -2.082031 2.21875 -3.15625 C 1.65625 -4.226562 1.375 -5.476562 1.375 -6.90625 Z M 13.859375 -6.90625 C 13.859375 -8.101562 13.609375 -9.160156 13.109375 -10.078125 C 12.609375 -11.003906 11.925781 -11.71875 11.0625 -12.21875 C 10.195312 -12.71875 9.234375 -12.96875 8.171875 -12.96875 C 7.054688 -12.96875 6.070312 -12.722656 5.21875 -12.234375 C 4.375 -11.753906 3.710938 -11.054688 3.234375 -10.140625 C 2.765625 -9.234375 2.53125 -8.15625 2.53125 -6.90625 C 2.53125 -5.65625 2.765625 -4.570312 3.234375 -3.65625 C 3.710938 -2.738281 4.378906 -2.035156 5.234375 -1.546875 C 6.085938 -1.054688 7.066406 -0.8125 8.171875 -0.8125 C 9.234375 -0.8125 10.203125 -1.0625 11.078125 -1.5625 C 11.953125 -2.0625 12.632812 -2.769531 13.125 -3.6875 C 13.613281 -4.613281 13.859375 -5.6875 13.859375 -6.90625 Z M 13.859375 -6.90625 "/></g></g></g><g fill="#ffffff" fill-opacity="1"><g transform="translate(163.26194, 28.045541)"><g><path d="M 3.78125 -12.78125 L 3.78125 -3.671875 C 3.78125 -2.660156 3.960938 -1.960938 4.328125 -1.578125 C 4.703125 -1.203125 5.363281 -1.015625 6.3125 -1.015625 L 7.859375 -1.015625 L 7.859375 0 L 6.140625 0 C 4.941406 0 4.054688 -0.28125 3.484375 -0.84375 C 2.921875 -1.414062 2.640625 -2.359375 2.640625 -3.671875 L 2.640625 -12.78125 L 0.5625 -12.78125 L 0.5625 -13.78125 L 2.640625 -13.78125 L 2.640625 -17.28125 L 3.78125 -17.28125 L 3.78125 -13.78125 L 7.859375 -13.78125 L 7.859375 -12.78125 Z M 3.78125 -12.78125 "/></g></g></g><g fill="#ffffff" fill-opacity="1"><g transform="translate(171.10392, 28.045541)"><g/></g></g><g fill="#ffffff" fill-opacity="1"><g transform="translate(177.296244, 28.045541)"><g><path d="M 18.375 -14.0625 C 19.945312 -14.0625 21.226562 -13.554688 22.21875 -12.546875 C 23.21875 -11.535156 23.71875 -10.039062 23.71875 -8.0625 L 23.71875 0 L 22.609375 0 L 22.609375 -8 C 22.609375 -9.632812 22.210938 -10.882812 21.421875 -11.75 C 20.640625 -12.625 19.5625 -13.0625 18.1875 -13.0625 C 16.769531 -13.0625 15.628906 -12.570312 14.765625 -11.59375 C 13.898438 -10.613281 13.46875 -9.191406 13.46875 -7.328125 L 13.46875 0 L 12.359375 0 L 12.359375 -8 C 12.359375 -9.632812 11.960938 -10.882812 11.171875 -11.75 C 10.390625 -12.625 9.3125 -13.0625 7.9375 -13.0625 C 6.519531 -13.0625 5.378906 -12.570312 4.515625 -11.59375 C 3.648438 -10.613281 3.21875 -9.191406 3.21875 -7.328125 L 3.21875 0 L 2.078125 0 L 2.078125 -13.78125 L 3.21875 -13.78125 L 3.21875 -10.78125 C 3.613281 -11.863281 4.242188 -12.679688 5.109375 -13.234375 C 5.984375 -13.785156 6.988281 -14.0625 8.125 -14.0625 C 9.375 -14.0625 10.453125 -13.734375 11.359375 -13.078125 C 12.265625 -12.429688 12.882812 -11.472656 13.21875 -10.203125 C 13.539062 -11.472656 14.164062 -12.429688 15.09375 -13.078125 C 16.03125 -13.734375 17.125 -14.0625 18.375 -14.0625 Z M 18.375 -14.0625 "/></g></g></g><g fill="#ffffff" fill-opacity="1"><g transform="translate(202.040873, 28.045541)"><g><path d="M 1.375 -6.90625 C 1.375 -8.320312 1.65625 -9.5625 2.21875 -10.625 C 2.789062 -11.695312 3.578125 -12.519531 4.578125 -13.09375 C 5.585938 -13.664062 6.734375 -13.953125 8.015625 -13.953125 C 9.472656 -13.953125 10.707031 -13.597656 11.71875 -12.890625 C 12.738281 -12.179688 13.453125 -11.273438 13.859375 -10.171875 L 13.859375 -13.78125 L 15 -13.78125 L 15 0 L 13.859375 0 L 13.859375 -3.625 C 13.453125 -2.507812 12.734375 -1.59375 11.703125 -0.875 C 10.679688 -0.15625 9.453125 0.203125 8.015625 0.203125 C 6.734375 0.203125 5.585938 -0.0859375 4.578125 -0.671875 C 3.578125 -1.253906 2.789062 -2.082031 2.21875 -3.15625 C 1.65625 -4.226562 1.375 -5.476562 1.375 -6.90625 Z M 13.859375 -6.90625 C 13.859375 -8.101562 13.609375 -9.160156 13.109375 -10.078125 C 12.609375 -11.003906 11.925781 -11.71875 11.0625 -12.21875 C 10.195312 -12.71875 9.234375 -12.96875 8.171875 -12.96875 C 7.054688 -12.96875 6.070312 -12.722656 5.21875 -12.234375 C 4.375 -11.753906 3.710938 -11.054688 3.234375 -10.140625 C 2.765625 -9.234375 2.53125 -8.15625 2.53125 -6.90625 C 2.53125 -5.65625 2.765625 -4.570312 3.234375 -3.65625 C 3.710938 -2.738281 4.378906 -2.035156 5.234375 -1.546875 C 6.085938 -1.054688 7.066406 -0.8125 8.171875 -0.8125 C 9.234375 -0.8125 10.203125 -1.0625 11.078125 -1.5625 C 11.953125 -2.0625 12.632812 -2.769531 13.125 -3.6875 C 13.613281 -4.613281 13.859375 -5.6875 13.859375 -6.90625 Z M 13.859375 -6.90625 "/></g></g></g><g fill="#ffffff" fill-opacity="1"><g transform="translate(218.156534, 28.045541)"><g><path d="M 3.78125 -12.78125 L 3.78125 -3.671875 C 3.78125 -2.660156 3.960938 -1.960938 4.328125 -1.578125 C 4.703125 -1.203125 5.363281 -1.015625 6.3125 -1.015625 L 7.859375 -1.015625 L 7.859375 0 L 6.140625 0 C 4.941406 0 4.054688 -0.28125 3.484375 -0.84375 C 2.921875 -1.414062 2.640625 -2.359375 2.640625 -3.671875 L 2.640625 -12.78125 L 0.5625 -12.78125 L 0.5625 -13.78125 L 2.640625 -13.78125 L 2.640625 -17.28125 L 3.78125 -17.28125 L 3.78125 -13.78125 L 7.859375 -13.78125 L 7.859375 -12.78125 Z M 3.78125 -12.78125 "/></g></g></g><g fill="#ffffff" fill-opacity="1"><g transform="translate(225.998514, 28.045541)"><g><path d="M 3.78125 -12.78125 L 3.78125 -3.671875 C 3.78125 -2.660156 3.960938 -1.960938 4.328125 -1.578125 C 4.703125 -1.203125 5.363281 -1.015625 6.3125 -1.015625 L 7.859375 -1.015625 L 7.859375 0 L 6.140625 0 C 4.941406 0 4.054688 -0.28125 3.484375 -0.84375 C 2.921875 -1.414062 2.640625 -2.359375 2.640625 -3.671875 L 2.640625 -12.78125 L 0.5625 -12.78125 L 0.5625 -13.78125 L 2.640625 -13.78125 L 2.640625 -17.28125 L 3.78125 -17.28125 L 3.78125 -13.78125 L 7.859375 -13.78125 L 7.859375 -12.78125 Z M 3.78125 -12.78125 "/></g></g></g><g fill="#ffffff" fill-opacity="1"><g transform="translate(233.840494, 28.045541)"><g><path d="M 14.484375 -7.8125 C 14.484375 -7.207031 14.46875 -6.75 14.4375 -6.4375 L 2.53125 -6.4375 C 2.570312 -5.207031 2.84375 -4.171875 3.34375 -3.328125 C 3.851562 -2.484375 4.519531 -1.847656 5.34375 -1.421875 C 6.175781 -0.992188 7.082031 -0.78125 8.0625 -0.78125 C 9.414062 -0.78125 10.550781 -1.113281 11.46875 -1.78125 C 12.382812 -2.457031 12.957031 -3.367188 13.1875 -4.515625 L 14.390625 -4.515625 C 14.117188 -3.109375 13.421875 -1.96875 12.296875 -1.09375 C 11.179688 -0.226562 9.769531 0.203125 8.0625 0.203125 C 6.78125 0.203125 5.628906 -0.0820312 4.609375 -0.65625 C 3.597656 -1.226562 2.804688 -2.050781 2.234375 -3.125 C 1.660156 -4.207031 1.375 -5.46875 1.375 -6.90625 C 1.375 -8.34375 1.65625 -9.59375 2.21875 -10.65625 C 2.789062 -11.71875 3.582031 -12.53125 4.59375 -13.09375 C 5.601562 -13.664062 6.757812 -13.953125 8.0625 -13.953125 C 9.382812 -13.953125 10.53125 -13.664062 11.5 -13.09375 C 12.476562 -12.53125 13.21875 -11.78125 13.71875 -10.84375 C 14.226562 -9.90625 14.484375 -8.894531 14.484375 -7.8125 Z M 13.34375 -7.390625 C 13.394531 -8.609375 13.179688 -9.640625 12.703125 -10.484375 C 12.222656 -11.328125 11.566406 -11.953125 10.734375 -12.359375 C 9.898438 -12.773438 9.003906 -12.984375 8.046875 -12.984375 C 7.078125 -12.984375 6.179688 -12.773438 5.359375 -12.359375 C 4.546875 -11.953125 3.878906 -11.328125 3.359375 -10.484375 C 2.847656 -9.640625 2.570312 -8.609375 2.53125 -7.390625 Z M 13.34375 -7.390625 "/></g></g></g><g fill="#ffffff" fill-opacity="1"><g transform="translate(248.737941, 28.045541)"><g><path d="M 3.21875 -10.9375 C 3.5625 -11.945312 4.160156 -12.71875 5.015625 -13.25 C 5.878906 -13.789062 6.984375 -14.0625 8.328125 -14.0625 L 8.328125 -12.859375 L 7.9375 -12.859375 C 6.582031 -12.859375 5.457031 -12.472656 4.5625 -11.703125 C 3.664062 -10.941406 3.21875 -9.6875 3.21875 -7.9375 L 3.21875 0 L 2.078125 0 L 2.078125 -13.78125 L 3.21875 -13.78125 Z M 3.21875 -10.9375 "/></g></g></g><g fill="#ffffff" fill-opacity="1"><g transform="translate(256.656055, 28.045541)"><g><path d="M 6.671875 0.203125 C 5.128906 0.203125 3.875 -0.132812 2.90625 -0.8125 C 1.9375 -1.488281 1.390625 -2.453125 1.265625 -3.703125 L 2.4375 -3.703125 C 2.519531 -2.804688 2.925781 -2.09375 3.65625 -1.5625 C 4.394531 -1.039062 5.398438 -0.78125 6.671875 -0.78125 C 7.722656 -0.78125 8.554688 -1.046875 9.171875 -1.578125 C 9.785156 -2.117188 10.09375 -2.773438 10.09375 -3.546875 C 10.09375 -4.085938 9.925781 -4.53125 9.59375 -4.875 C 9.269531 -5.226562 8.863281 -5.5 8.375 -5.6875 C 7.882812 -5.875 7.21875 -6.078125 6.375 -6.296875 C 5.351562 -6.566406 4.53125 -6.832031 3.90625 -7.09375 C 3.28125 -7.351562 2.75 -7.742188 2.3125 -8.265625 C 1.875 -8.796875 1.65625 -9.5 1.65625 -10.375 C 1.65625 -11.019531 1.847656 -11.613281 2.234375 -12.15625 C 2.617188 -12.707031 3.15625 -13.144531 3.84375 -13.46875 C 4.539062 -13.789062 5.332031 -13.953125 6.21875 -13.953125 C 7.65625 -13.953125 8.816406 -13.59375 9.703125 -12.875 C 10.585938 -12.15625 11.066406 -11.160156 11.140625 -9.890625 L 10 -9.890625 C 9.945312 -10.804688 9.585938 -11.550781 8.921875 -12.125 C 8.265625 -12.695312 7.351562 -12.984375 6.1875 -12.984375 C 5.207031 -12.984375 4.394531 -12.726562 3.75 -12.21875 C 3.113281 -11.71875 2.796875 -11.101562 2.796875 -10.375 C 2.796875 -9.738281 2.972656 -9.21875 3.328125 -8.8125 C 3.691406 -8.414062 4.140625 -8.113281 4.671875 -7.90625 C 5.210938 -7.695312 5.921875 -7.472656 6.796875 -7.234375 C 7.765625 -6.972656 8.539062 -6.71875 9.125 -6.46875 C 9.707031 -6.226562 10.203125 -5.875 10.609375 -5.40625 C 11.015625 -4.945312 11.21875 -4.328125 11.21875 -3.546875 C 11.21875 -2.835938 11.019531 -2.195312 10.625 -1.625 C 10.238281 -1.050781 9.695312 -0.601562 9 -0.28125 C 8.3125 0.0390625 7.535156 0.203125 6.671875 0.203125 Z M 6.671875 0.203125 "/></g></g></g></g></g></svg>