<svg xmlns="http://www.w3.org/2000/svg" xmlns:xlink="http://www.w3.org/1999/xlink" width="500" zoomAndPan="magnify" viewBox="0 0 375 374.999991" height="500" preserveAspectRatio="xMidYMid meet" version="1.0"><defs><clipPath id="7b2de0aff6"><path d="M 42.859375 24.605469 L 321.109375 24.605469 L 321.109375 337.355469 L 42.859375 337.355469 Z M 42.859375 24.605469 " clip-rule="nonzero"/></clipPath><clipPath id="0e41fc2b8d"><path d="M 188.867188 148.570312 L 251.117188 148.570312 L 251.117188 223.570312 L 188.867188 223.570312 Z M 188.867188 148.570312 " clip-rule="nonzero"/></clipPath></defs><g clip-path="url(#7b2de0aff6)"><path fill="#ffffff" d="M 166.601562 66.695312 C 166.601562 87.238281 182.425781 104.613281 217.898438 123.46875 L 217.898438 97.730469 C 217.898438 75.511719 212.121094 66.519531 197.066406 66.273438 C 196.714844 66.269531 196.421875 65.984375 196.421875 65.632812 C 196.421875 65.28125 196.707031 64.992188 197.058594 64.992188 L 243.765625 64.992188 C 244.117188 64.992188 244.402344 65.28125 244.402344 65.632812 C 244.402344 65.984375 244.109375 66.269531 243.757812 66.273438 C 228.6875 66.519531 222.46875 75.511719 222.46875 97.730469 L 222.46875 125.851562 C 226.8125 128.070312 231.429688 130.316406 236.324219 132.59375 C 298.820312 161.503906 321.355469 188.285156 321.355469 232.925781 C 321.355469 295 277.988281 337.511719 215.492188 337.511719 C 152.144531 337.511719 103.679688 294.148438 103.679688 239.304688 C 103.679688 211.445312 116.355469 186.164062 136.433594 172.917969 L 68.929688 83.699219 L 68.929688 244.832031 C 68.929688 267.050781 75.148438 276.039062 90.21875 276.285156 C 90.570312 276.292969 90.863281 276.578125 90.863281 276.929688 C 90.863281 277.28125 90.578125 277.566406 90.226562 277.566406 L 43.519531 277.566406 C 43.167969 277.566406 42.882812 277.28125 42.882812 276.929688 C 42.882812 276.578125 43.175781 276.292969 43.527344 276.285156 C 58.582031 276.039062 64.359375 267.050781 64.359375 244.832031 L 64.359375 97.730469 C 64.359375 75.511719 58.582031 66.519531 43.527344 66.273438 C 43.175781 66.269531 42.882812 65.984375 42.882812 65.632812 C 42.882812 65.28125 43.167969 64.992188 43.519531 64.992188 L 85.613281 64.992188 C 87.480469 64.992188 89.238281 65.871094 90.363281 67.359375 L 217.898438 236.328125 L 217.898438 154.929688 C 214.910156 153.550781 211.839844 152.199219 208.691406 150.875 C 170.425781 135.144531 143.21875 114.734375 143.21875 83.699219 C 143.21875 51.390625 173.402344 24.605469 215.492188 24.605469 C 240.152344 24.605469 262.257812 33.957031 275.011719 48.839844 C 278.414062 53.089844 280.539062 54.363281 282.242188 54.363281 C 284.15625 54.363281 285.035156 51.601562 285.191406 46.074219 C 285.21875 45.019531 286.074219 44.160156 287.128906 44.160156 C 288.1875 44.160156 289.042969 45.019531 289.042969 46.074219 L 289.042969 85.613281 C 289.042969 86.671875 288.1875 87.527344 287.128906 87.527344 C 286.074219 87.527344 285.21875 86.65625 285.191406 85.601562 C 284.1875 47.730469 253.574219 27.582031 217.617188 27.582031 C 185.304688 27.582031 166.601562 44.160156 166.601562 66.695312 Z M 110.480469 236.328125 C 110.480469 211.382812 121.0625 188.140625 138.324219 175.417969 L 214.679688 276.332031 C 215.164062 276.972656 216.109375 277.011719 216.648438 276.414062 L 221.707031 270.761719 C 222.199219 270.214844 222.46875 269.507812 222.46875 268.777344 L 222.46875 157.09375 C 272.144531 181.191406 297.96875 213.363281 297.96875 251.632812 C 297.96875 295.421875 264.382812 326.460938 212.941406 326.460938 C 155.546875 326.460938 110.480469 287.769531 110.480469 236.328125 Z M 110.480469 236.328125 " fill-opacity="1" fill-rule="evenodd"/></g><g clip-path="url(#0e41fc2b8d)"><path fill="#ffffff" d="M 188.953125 186.035156 C 217.261719 187.960938 218.558594 189.515625 220.164062 223.511719 C 221.761719 189.515625 223.0625 187.960938 251.371094 186.035156 C 223.0625 184.109375 221.761719 182.550781 220.164062 148.554688 C 218.558594 182.550781 217.261719 184.109375 188.953125 186.035156 Z M 188.953125 186.035156 " fill-opacity="1" fill-rule="nonzero"/></g></svg>