<svg xmlns="http://www.w3.org/2000/svg" xmlns:xlink="http://www.w3.org/1999/xlink" width="500" zoomAndPan="magnify" viewBox="0 0 375 374.999991" height="500" preserveAspectRatio="xMidYMid meet" version="1.0"><defs><g/><clipPath id="8bc6f0bee7"><path d="M 22 151 L 150 151 L 150 172 L 22 172 Z M 22 151 " clip-rule="nonzero"/></clipPath><clipPath id="9d3ac836c6"><path d="M 42.875 113.300781 L 149.964844 154.519531 L 128.144531 211.214844 L 21.050781 169.996094 Z M 42.875 113.300781 " clip-rule="nonzero"/></clipPath><clipPath id="6371fc9437"><path d="M 42.875 113.300781 L 149.964844 154.519531 L 128.144531 211.214844 L 21.050781 169.996094 Z M 42.875 113.300781 " clip-rule="nonzero"/></clipPath><clipPath id="490203b102"><path d="M 42.867188 113.316406 L 150.097656 154.585938 L 128.339844 211.121094 L 21.109375 169.847656 Z M 42.867188 113.316406 " clip-rule="nonzero"/></clipPath><clipPath id="88d8b73546"><rect x="0" width="83" y="0" height="154"/></clipPath><clipPath id="9dfd027f0f"><rect x="0" width="274" y="0" height="40"/></clipPath><clipPath id="daac5fb035"><rect x="0" width="85" y="0" height="17"/></clipPath><clipPath id="d68b4dffa5"><path d="M 224 152 L 353 152 L 353 172 L 224 172 Z M 224 152 " clip-rule="nonzero"/></clipPath><clipPath id="9fd32f47ff"><path d="M 330.453125 209.9375 L 224.632812 165.550781 L 248.128906 109.53125 L 353.949219 153.914062 Z M 330.453125 209.9375 " clip-rule="nonzero"/></clipPath><clipPath id="c7ef9ee77b"><path d="M 330.453125 209.9375 L 224.632812 165.550781 L 248.128906 109.53125 L 353.949219 153.914062 Z M 330.453125 209.9375 " clip-rule="nonzero"/></clipPath><clipPath id="846b269e35"><path d="M 330.457031 209.921875 L 224.5 165.480469 L 247.933594 109.617188 L 353.886719 154.058594 Z M 330.457031 209.921875 " clip-rule="nonzero"/></clipPath></defs><g clip-path="url(#8bc6f0bee7)"><g clip-path="url(#9d3ac836c6)"><g clip-path="url(#6371fc9437)"><g clip-path="url(#490203b102)"><path fill="#ffffff" d="M 147.398438 155.59375 C 131.734375 162.132812 113.335938 159.042969 96.582031 155.964844 C 77.984375 152.546875 51.9375 147.769531 34.332031 155.195312 C 29.484375 157.242188 24.832031 160.363281 22.878906 165.25 C 22.066406 167.285156 22.019531 168.601562 22.710938 169.855469 C 23.449219 171.191406 25.617188 171.640625 26.035156 170.542969 C 26.171875 170.175781 26.058594 169.976562 25.402344 169.460938 C 24.40625 168.667969 24.203125 167.9375 24.511719 166.261719 C 24.992188 163.652344 27.203125 160.699219 30.335938 158.488281 C 37.890625 153.152344 50.4375 150.96875 66.628906 152.171875 C 89.101562 153.839844 107.464844 160.308594 127.277344 159.988281 C 135.035156 159.863281 140.820312 158.867188 145.796875 156.808594 C 147.878906 155.945312 150.171875 154.761719 150.089844 154.585938 C 150.042969 154.488281 147.417969 155.601562 147.398438 155.59375 " fill-opacity="1" fill-rule="nonzero"/></g></g></g></g><g transform="matrix(1, 0, 0, 1, 144, 89)"><g clip-path="url(#88d8b73546)"><g fill="#ffffff" fill-opacity="1"><g transform="translate(1.855498, 96.170798)"><g><path d="M 0.703125 -28.359375 C 0.992188 -29.585938 1.519531 -30.507812 2.28125 -31.125 C 3.050781 -31.75 3.859375 -32.078125 4.703125 -32.109375 C 5.554688 -32.140625 6.234375 -31.890625 6.734375 -31.359375 C 7.234375 -30.828125 7.335938 -30.035156 7.046875 -28.984375 C 6.335938 -25.921875 5.75 -22.71875 5.28125 -19.375 C 4.8125 -16.03125 4.503906 -12.769531 4.359375 -9.59375 C 4.210938 -6.425781 4.238281 -3.578125 4.4375 -1.046875 C 4.644531 1.472656 5.03125 3.453125 5.59375 4.890625 C 6.15625 6.328125 6.90625 6.957031 7.84375 6.78125 C 8.71875 6.601562 9.875 5.894531 11.3125 4.65625 C 12.75 3.425781 14.316406 1.695312 16.015625 -0.53125 C 17.722656 -2.757812 19.34375 -5.375 20.875 -8.375 C 18.519531 -9.601562 16.738281 -11.316406 15.53125 -13.515625 C 14.332031 -15.722656 13.644531 -18.101562 13.46875 -20.65625 C 13.300781 -23.207031 13.582031 -25.597656 14.3125 -27.828125 C 15.039062 -30.054688 16.171875 -31.859375 17.703125 -33.234375 C 19.234375 -34.617188 21.082031 -35.195312 23.25 -34.96875 C 26.1875 -34.382812 27.742188 -31.769531 27.921875 -27.125 C 28.097656 -22.488281 26.453125 -16.472656 22.984375 -9.078125 C 24.691406 -8.609375 26.523438 -8.617188 28.484375 -9.109375 C 30.453125 -9.609375 32.390625 -10.457031 34.296875 -11.65625 C 36.210938 -12.863281 38.003906 -14.242188 39.671875 -15.796875 C 41.347656 -17.359375 42.773438 -18.929688 43.953125 -20.515625 C 44.128906 -20.753906 44.46875 -20.890625 44.96875 -20.921875 C 45.46875 -20.953125 45.71875 -20.847656 45.71875 -20.609375 C 43.476562 -17.671875 41.050781 -15.128906 38.4375 -12.984375 C 35.832031 -10.847656 33.148438 -9.296875 30.390625 -8.328125 C 27.628906 -7.359375 24.957031 -7.164062 22.375 -7.75 C 21.019531 -5.164062 19.429688 -2.679688 17.609375 -0.296875 C 15.796875 2.078125 14.019531 4.054688 12.28125 5.640625 C 10.550781 7.222656 9.070312 8.101562 7.84375 8.28125 C 5.84375 8.570312 4.222656 7.910156 2.984375 6.296875 C 1.753906 4.679688 0.816406 2.46875 0.171875 -0.34375 C -0.472656 -3.164062 -0.851562 -6.265625 -0.96875 -9.640625 C -1.082031 -13.015625 -0.976562 -16.347656 -0.65625 -19.640625 C -0.332031 -22.929688 0.117188 -25.835938 0.703125 -28.359375 Z M 21.484375 -9.6875 C 23.546875 -13.800781 24.988281 -17.617188 25.8125 -21.140625 C 26.632812 -24.660156 26.796875 -27.566406 26.296875 -29.859375 C 25.796875 -32.148438 24.601562 -33.472656 22.71875 -33.828125 C 21.132812 -33.941406 19.738281 -33.378906 18.53125 -32.140625 C 17.332031 -30.910156 16.410156 -29.28125 15.765625 -27.25 C 15.117188 -25.226562 14.851562 -23.085938 14.96875 -20.828125 C 15.09375 -18.566406 15.664062 -16.4375 16.6875 -14.4375 C 17.71875 -12.445312 19.316406 -10.863281 21.484375 -9.6875 Z M 21.484375 -9.6875 "/></g></g></g><g fill="#ffffff" fill-opacity="1"><g transform="translate(45.453869, 96.170798)"><g><path d="M 12.15625 11.28125 C 9.863281 12.976562 7.835938 13.828125 6.078125 13.828125 C 4.671875 13.828125 3.523438 13.34375 2.640625 12.375 C 1.765625 11.40625 1.078125 10.15625 0.578125 8.625 C 0.078125 7.101562 -0.285156 5.488281 -0.515625 3.78125 C -0.753906 2.082031 -0.90625 0.484375 -0.96875 -1.015625 C -1.03125 -2.515625 -1.0625 -3.703125 -1.0625 -4.578125 C -1.113281 -8.398438 -0.992188 -12.507812 -0.703125 -16.90625 C -0.410156 -21.3125 0.0859375 -25.742188 0.796875 -30.203125 C 1.671875 -35.722656 2.8125 -41.082031 4.21875 -46.28125 C 5.632812 -51.476562 7.296875 -56.160156 9.203125 -60.328125 C 11.109375 -64.503906 13.234375 -67.804688 15.578125 -70.234375 C 17.929688 -72.671875 20.460938 -73.890625 23.171875 -73.890625 C 24.929688 -73.890625 26.394531 -73.210938 27.5625 -71.859375 C 28.738281 -70.515625 29.367188 -68.503906 29.453125 -65.828125 C 29.546875 -63.160156 28.882812 -59.832031 27.46875 -55.84375 C 26.0625 -51.851562 23.6875 -47.242188 20.34375 -42.015625 C 17 -36.785156 12.445312 -30.941406 6.6875 -24.484375 C 6.28125 -22.660156 5.769531 -20.046875 5.15625 -16.640625 C 4.539062 -13.234375 4.054688 -9.710938 3.703125 -6.078125 C 3.578125 -5.078125 3.441406 -3.679688 3.296875 -1.890625 C 3.148438 -0.0976562 3.109375 1.773438 3.171875 3.734375 C 3.234375 5.703125 3.484375 7.4375 3.921875 8.9375 C 4.359375 10.4375 5.101562 11.4375 6.15625 11.9375 C 7.21875 12.4375 8.6875 12.066406 10.5625 10.828125 C 12.09375 9.835938 13.765625 8.269531 15.578125 6.125 C 17.398438 3.976562 19.265625 1.585938 21.171875 -1.046875 C 23.085938 -3.691406 24.925781 -6.347656 26.6875 -9.015625 C 28.445312 -11.691406 30.015625 -14.085938 31.390625 -16.203125 C 32.773438 -18.316406 33.847656 -19.84375 34.609375 -20.78125 C 34.785156 -20.957031 35.078125 -21.046875 35.484375 -21.046875 C 35.898438 -21.046875 36.109375 -20.929688 36.109375 -20.703125 C 35.109375 -19.410156 33.90625 -17.691406 32.5 -15.546875 C 31.09375 -13.398438 29.550781 -11.035156 27.875 -8.453125 C 26.195312 -5.867188 24.445312 -3.285156 22.625 -0.703125 C 20.8125 1.878906 19.007812 4.226562 17.21875 6.34375 C 15.425781 8.457031 13.738281 10.101562 12.15625 11.28125 Z M 6.953125 -26.78125 C 12.242188 -33.0625 16.429688 -38.695312 19.515625 -43.6875 C 22.597656 -48.675781 24.796875 -53.003906 26.109375 -56.671875 C 27.429688 -60.347656 28.0625 -63.390625 28 -65.796875 C 27.945312 -68.203125 27.4375 -69.960938 26.46875 -71.078125 C 25.5 -72.191406 24.25 -72.691406 22.71875 -72.578125 C 21.425781 -72.398438 20.132812 -71.34375 18.84375 -69.40625 C 17.550781 -67.46875 16.289062 -64.941406 15.0625 -61.828125 C 13.832031 -58.710938 12.6875 -55.203125 11.625 -51.296875 C 10.570312 -47.398438 9.644531 -43.335938 8.84375 -39.109375 C 8.050781 -34.878906 7.421875 -30.769531 6.953125 -26.78125 Z M 6.953125 -26.78125 "/></g></g></g></g></g><g transform="matrix(1, 0, 0, 1, 52, 203)"><g clip-path="url(#9dfd027f0f)"><g fill="#ffffff" fill-opacity="1"><g transform="translate(1.353067, 29.960498)"><g><path d="M 17.1875 -21.03125 L 21.390625 -21.03125 L 21.390625 -20.53125 C 20.898438 -20.53125 20.488281 -20.390625 20.15625 -20.109375 C 19.820312 -19.828125 19.523438 -19.390625 19.265625 -18.796875 L 11.53125 0 L 11.0625 0 L 3.015625 -18.65625 C 2.753906 -19.25 2.453125 -19.707031 2.109375 -20.03125 C 1.773438 -20.363281 1.363281 -20.53125 0.875 -20.53125 L 0.875 -21.03125 L 5.828125 -21.03125 L 5.828125 -20.53125 L 5.515625 -20.53125 C 5.171875 -20.53125 4.898438 -20.441406 4.703125 -20.265625 C 4.515625 -20.085938 4.421875 -19.84375 4.421875 -19.53125 C 4.421875 -19.269531 4.488281 -18.972656 4.625 -18.640625 L 11.828125 -1.859375 L 18.53125 -18.21875 C 18.6875 -18.582031 18.765625 -18.929688 18.765625 -19.265625 C 18.765625 -19.671875 18.65625 -19.984375 18.4375 -20.203125 C 18.21875 -20.421875 17.90625 -20.53125 17.5 -20.53125 L 17.1875 -20.53125 Z M 17.1875 -21.03125 "/></g></g></g><g fill="#ffffff" fill-opacity="1"><g transform="translate(26.956909, 29.960498)"><g><path d="M 6.15625 0 L 1.421875 0 L 1.421875 -0.5 C 1.929688 -0.5 2.320312 -0.644531 2.59375 -0.9375 C 2.863281 -1.238281 3 -1.722656 3 -2.390625 L 3 -18.640625 C 3 -19.210938 2.878906 -19.671875 2.640625 -20.015625 C 2.398438 -20.359375 2.082031 -20.53125 1.6875 -20.53125 L 1.421875 -20.53125 L 1.421875 -21.03125 L 6.15625 -21.03125 L 6.15625 -20.53125 C 5.644531 -20.53125 5.253906 -20.378906 4.984375 -20.078125 C 4.722656 -19.773438 4.59375 -19.296875 4.59375 -18.640625 L 4.59375 -2.390625 C 4.59375 -1.816406 4.710938 -1.359375 4.953125 -1.015625 C 5.191406 -0.671875 5.507812 -0.5 5.90625 -0.5 L 6.15625 -0.5 Z M 6.15625 0 "/></g></g></g><g fill="#ffffff" fill-opacity="1"><g transform="translate(37.998137, 29.960498)"><g><path d="M 21.96875 -10.59375 C 21.96875 -9.15625 21.742188 -7.785156 21.296875 -6.484375 C 20.847656 -5.191406 20.1875 -4.054688 19.3125 -3.078125 C 18.4375 -2.109375 17.347656 -1.335938 16.046875 -0.765625 C 14.742188 -0.203125 13.234375 0.078125 11.515625 0.078125 C 9.773438 0.078125 8.253906 -0.203125 6.953125 -0.765625 C 5.648438 -1.335938 4.554688 -2.109375 3.671875 -3.078125 C 2.796875 -4.054688 2.132812 -5.191406 1.6875 -6.484375 C 1.25 -7.785156 1.03125 -9.15625 1.03125 -10.59375 C 1.03125 -12.03125 1.25 -13.390625 1.6875 -14.671875 C 2.132812 -15.960938 2.796875 -17.09375 3.671875 -18.0625 C 4.554688 -19.039062 5.648438 -19.8125 6.953125 -20.375 C 8.253906 -20.945312 9.773438 -21.234375 11.515625 -21.234375 C 13.234375 -21.234375 14.742188 -20.945312 16.046875 -20.375 C 17.347656 -19.8125 18.4375 -19.039062 19.3125 -18.0625 C 20.1875 -17.09375 20.847656 -15.960938 21.296875 -14.671875 C 21.742188 -13.390625 21.96875 -12.03125 21.96875 -10.59375 Z M 11.515625 -0.3125 C 12.953125 -0.3125 14.207031 -0.585938 15.28125 -1.140625 C 16.363281 -1.691406 17.265625 -2.4375 17.984375 -3.375 C 18.710938 -4.3125 19.257812 -5.398438 19.625 -6.640625 C 20 -7.890625 20.1875 -9.207031 20.1875 -10.59375 C 20.1875 -11.976562 20 -13.285156 19.625 -14.515625 C 19.257812 -15.753906 18.710938 -16.84375 17.984375 -17.78125 C 17.265625 -18.71875 16.363281 -19.460938 15.28125 -20.015625 C 14.207031 -20.566406 12.953125 -20.84375 11.515625 -20.84375 C 10.078125 -20.84375 8.8125 -20.566406 7.71875 -20.015625 C 6.632812 -19.460938 5.722656 -18.71875 4.984375 -17.78125 C 4.253906 -16.84375 3.703125 -15.753906 3.328125 -14.515625 C 2.960938 -13.285156 2.78125 -11.976562 2.78125 -10.59375 C 2.78125 -9.207031 2.960938 -7.890625 3.328125 -6.640625 C 3.703125 -5.398438 4.253906 -4.3125 4.984375 -3.375 C 5.722656 -2.4375 6.632812 -1.691406 7.71875 -1.140625 C 8.8125 -0.585938 10.078125 -0.3125 11.515625 -0.3125 Z M 11.515625 -0.3125 "/></g></g></g><g fill="#ffffff" fill-opacity="1"><g transform="translate(64.364288, 29.960498)"><g><path d="M 6.125 -20.53125 C 5.613281 -20.53125 5.226562 -20.378906 4.96875 -20.078125 C 4.707031 -19.773438 4.578125 -19.296875 4.578125 -18.640625 L 4.578125 -0.390625 L 12.515625 -0.390625 C 12.703125 -0.390625 12.976562 -0.421875 13.34375 -0.484375 C 13.71875 -0.546875 14.113281 -0.6875 14.53125 -0.90625 C 14.957031 -1.125 15.375 -1.4375 15.78125 -1.84375 C 16.195312 -2.257812 16.539062 -2.816406 16.8125 -3.515625 L 17.078125 -3.46875 C 17.148438 -3.445312 17.21875 -3.425781 17.28125 -3.40625 C 17.351562 -3.394531 17.425781 -3.378906 17.5 -3.359375 C 17.375 -2.835938 17.269531 -2.347656 17.1875 -1.890625 C 17.101562 -1.503906 17.023438 -1.125 16.953125 -0.75 C 16.878906 -0.382812 16.828125 -0.132812 16.796875 0 L 1.390625 0 L 1.390625 -0.46875 C 1.898438 -0.46875 2.289062 -0.617188 2.5625 -0.921875 C 2.832031 -1.234375 2.96875 -1.722656 2.96875 -2.390625 L 2.96875 -18.640625 C 2.96875 -19.210938 2.847656 -19.671875 2.609375 -20.015625 C 2.378906 -20.359375 2.0625 -20.53125 1.65625 -20.53125 L 1.390625 -20.53125 L 1.390625 -21.03125 L 6.125 -21.03125 Z M 6.125 -20.53125 "/></g></g></g><g fill="#ffffff" fill-opacity="1"><g transform="translate(86.156624, 29.960498)"><g><path d="M 4.921875 0 L 0.703125 0 L 0.703125 -0.5 C 1.203125 -0.5 1.613281 -0.640625 1.9375 -0.921875 C 2.269531 -1.203125 2.570312 -1.640625 2.84375 -2.234375 L 10.5625 -21.046875 L 11.0625 -21.046875 L 11.03125 -21.046875 L 19.078125 -2.359375 C 19.335938 -1.765625 19.640625 -1.304688 19.984375 -0.984375 C 20.328125 -0.660156 20.742188 -0.5 21.234375 -0.5 L 21.234375 0 L 16.265625 0 L 16.265625 -0.5 L 16.578125 -0.5 C 16.929688 -0.5 17.203125 -0.585938 17.390625 -0.765625 C 17.585938 -0.953125 17.6875 -1.207031 17.6875 -1.53125 C 17.6875 -1.644531 17.671875 -1.765625 17.640625 -1.890625 C 17.617188 -2.015625 17.578125 -2.160156 17.515625 -2.328125 C 17.453125 -2.492188 17.363281 -2.695312 17.25 -2.9375 C 17.132812 -3.1875 17 -3.503906 16.84375 -3.890625 C 15.832031 -3.910156 14.875 -4.0625 13.96875 -4.34375 C 13.0625 -4.632812 12.191406 -4.941406 11.359375 -5.265625 C 10.535156 -5.585938 9.734375 -5.882812 8.953125 -6.15625 C 8.171875 -6.4375 7.394531 -6.578125 6.625 -6.578125 C 6.039062 -6.578125 5.5 -6.488281 5 -6.3125 C 4.613281 -5.382812 4.3125 -4.648438 4.09375 -4.109375 C 3.875 -3.578125 3.707031 -3.164062 3.59375 -2.875 C 3.476562 -2.582031 3.40625 -2.367188 3.375 -2.234375 C 3.351562 -2.097656 3.34375 -1.945312 3.34375 -1.78125 C 3.34375 -1.382812 3.453125 -1.070312 3.671875 -0.84375 C 3.890625 -0.613281 4.195312 -0.5 4.59375 -0.5 L 4.921875 -0.5 Z M 10.28125 -19.15625 L 5.203125 -6.8125 C 5.640625 -6.925781 6.113281 -6.984375 6.625 -6.984375 C 7.414062 -6.984375 8.195312 -6.851562 8.96875 -6.59375 C 9.75 -6.332031 10.546875 -6.039062 11.359375 -5.71875 C 12.179688 -5.394531 13.03125 -5.09375 13.90625 -4.8125 C 14.78125 -4.53125 15.695312 -4.375 16.65625 -4.34375 Z M 10.28125 -19.15625 "/></g></g></g><g fill="#ffffff" fill-opacity="1"><g transform="translate(111.655328, 29.960498)"><g/></g></g><g fill="#ffffff" fill-opacity="1"><g transform="translate(124.641739, 29.960498)"><g><path d="M 14.828125 -1.84375 C 14.609375 -1.6875 14.316406 -1.5 13.953125 -1.28125 C 13.585938 -1.0625 13.117188 -0.84375 12.546875 -0.625 C 11.972656 -0.414062 11.296875 -0.238281 10.515625 -0.09375 C 9.742188 0.0390625 8.847656 0.109375 7.828125 0.109375 C 6.828125 0.109375 5.921875 -0.015625 5.109375 -0.265625 C 4.296875 -0.523438 3.597656 -0.882812 3.015625 -1.34375 C 2.441406 -1.800781 1.992188 -2.347656 1.671875 -2.984375 C 1.347656 -3.617188 1.1875 -4.320312 1.1875 -5.09375 C 1.1875 -5.726562 1.316406 -6.347656 1.578125 -6.953125 C 1.835938 -7.554688 2.203125 -8.128906 2.671875 -8.671875 C 3.148438 -9.210938 3.722656 -9.710938 4.390625 -10.171875 C 5.066406 -10.640625 5.820312 -11.039062 6.65625 -11.375 C 6.09375 -12.269531 5.644531 -13.113281 5.3125 -13.90625 C 4.976562 -14.707031 4.8125 -15.453125 4.8125 -16.140625 C 4.8125 -16.910156 4.921875 -17.601562 5.140625 -18.21875 C 5.359375 -18.84375 5.664062 -19.378906 6.0625 -19.828125 C 6.46875 -20.273438 6.957031 -20.617188 7.53125 -20.859375 C 8.101562 -21.109375 8.738281 -21.234375 9.4375 -21.234375 C 10.832031 -21.234375 11.957031 -20.890625 12.8125 -20.203125 C 13.664062 -19.523438 14.09375 -18.609375 14.09375 -17.453125 C 14.09375 -16.765625 13.945312 -16.109375 13.65625 -15.484375 C 13.363281 -14.867188 12.945312 -14.3125 12.40625 -13.8125 C 11.875 -13.3125 11.234375 -12.878906 10.484375 -12.515625 C 9.742188 -12.160156 8.921875 -11.90625 8.015625 -11.75 C 8.503906 -11.03125 9.09375 -10.226562 9.78125 -9.34375 C 10.476562 -8.457031 11.203125 -7.566406 11.953125 -6.671875 C 12.429688 -6.179688 12.96875 -5.625 13.5625 -5 C 14.15625 -4.382812 14.820312 -3.707031 15.5625 -2.96875 C 16.175781 -3.550781 16.691406 -4.210938 17.109375 -4.953125 C 17.523438 -5.703125 17.734375 -6.570312 17.734375 -7.5625 C 17.734375 -8.582031 17.453125 -9.488281 16.890625 -10.28125 C 16.335938 -11.082031 15.488281 -11.664062 14.34375 -12.03125 L 14.453125 -12.40625 C 15.191406 -12.175781 15.816406 -11.875 16.328125 -11.5 C 16.847656 -11.132812 17.273438 -10.726562 17.609375 -10.28125 C 17.941406 -9.84375 18.1875 -9.378906 18.34375 -8.890625 C 18.5 -8.410156 18.578125 -7.960938 18.578125 -7.546875 C 18.578125 -6.960938 18.472656 -6.40625 18.265625 -5.875 C 18.054688 -5.351562 17.800781 -4.882812 17.5 -4.46875 C 17.207031 -4.050781 16.90625 -3.6875 16.59375 -3.375 C 16.289062 -3.070312 16.050781 -2.84375 15.875 -2.6875 C 16.132812 -2.40625 16.375 -2.15625 16.59375 -1.9375 C 16.8125 -1.726562 17 -1.546875 17.15625 -1.390625 C 17.351562 -1.203125 17.519531 -1.046875 17.65625 -0.921875 C 18.195312 -0.410156 18.703125 0.015625 19.171875 0.359375 C 19.648438 0.703125 20.097656 0.972656 20.515625 1.171875 C 20.941406 1.367188 21.34375 1.503906 21.71875 1.578125 C 22.09375 1.660156 22.46875 1.703125 22.84375 1.703125 C 23.132812 1.703125 23.441406 1.675781 23.765625 1.625 L 23.765625 1.859375 C 23.484375 1.898438 23.207031 1.929688 22.9375 1.953125 C 22.675781 1.984375 22.414062 2 22.15625 2 C 21.3125 2 20.457031 1.84375 19.59375 1.53125 C 18.726562 1.226562 17.785156 0.664062 16.765625 -0.15625 Z M 5.90625 -16.796875 C 5.90625 -16.097656 6.082031 -15.34375 6.4375 -14.53125 C 6.800781 -13.726562 7.289062 -12.863281 7.90625 -11.9375 C 8.664062 -12.070312 9.351562 -12.304688 9.96875 -12.640625 C 10.59375 -12.972656 11.125 -13.375 11.5625 -13.84375 C 12 -14.320312 12.335938 -14.859375 12.578125 -15.453125 C 12.816406 -16.046875 12.9375 -16.6875 12.9375 -17.375 C 12.9375 -18.457031 12.609375 -19.320312 11.953125 -19.96875 C 11.304688 -20.625 10.441406 -20.953125 9.359375 -20.953125 C 8.304688 -20.953125 7.46875 -20.566406 6.84375 -19.796875 C 6.21875 -19.035156 5.90625 -18.035156 5.90625 -16.796875 Z M 14.53125 -2.109375 C 13.675781 -2.890625 12.921875 -3.617188 12.265625 -4.296875 C 11.609375 -4.984375 11.050781 -5.609375 10.59375 -6.171875 C 9.851562 -7.046875 9.144531 -7.914062 8.46875 -8.78125 C 7.800781 -9.65625 7.238281 -10.453125 6.78125 -11.171875 C 5.476562 -10.585938 4.453125 -9.804688 3.703125 -8.828125 C 2.953125 -7.847656 2.578125 -6.789062 2.578125 -5.65625 C 2.578125 -4.882812 2.71875 -4.1875 3 -3.5625 C 3.289062 -2.9375 3.703125 -2.398438 4.234375 -1.953125 C 4.773438 -1.503906 5.414062 -1.15625 6.15625 -0.90625 C 6.90625 -0.664062 7.734375 -0.546875 8.640625 -0.546875 C 9.847656 -0.546875 10.945312 -0.675781 11.9375 -0.9375 C 12.9375 -1.207031 13.789062 -1.585938 14.5 -2.078125 Z M 14.53125 -2.109375 "/></g></g></g><g fill="#ffffff" fill-opacity="1"><g transform="translate(148.326689, 29.960498)"><g/></g></g><g fill="#ffffff" fill-opacity="1"><g transform="translate(161.3131, 29.960498)"><g><path d="M 6.125 -20.53125 C 5.613281 -20.53125 5.226562 -20.378906 4.96875 -20.078125 C 4.707031 -19.773438 4.578125 -19.296875 4.578125 -18.640625 L 4.578125 -0.390625 L 12.515625 -0.390625 C 12.703125 -0.390625 12.976562 -0.421875 13.34375 -0.484375 C 13.71875 -0.546875 14.113281 -0.6875 14.53125 -0.90625 C 14.957031 -1.125 15.375 -1.4375 15.78125 -1.84375 C 16.195312 -2.257812 16.539062 -2.816406 16.8125 -3.515625 L 17.078125 -3.46875 C 17.148438 -3.445312 17.21875 -3.425781 17.28125 -3.40625 C 17.351562 -3.394531 17.425781 -3.378906 17.5 -3.359375 C 17.375 -2.835938 17.269531 -2.347656 17.1875 -1.890625 C 17.101562 -1.503906 17.023438 -1.125 16.953125 -0.75 C 16.878906 -0.382812 16.828125 -0.132812 16.796875 0 L 1.390625 0 L 1.390625 -0.46875 C 1.898438 -0.46875 2.289062 -0.617188 2.5625 -0.921875 C 2.832031 -1.234375 2.96875 -1.722656 2.96875 -2.390625 L 2.96875 -18.640625 C 2.96875 -19.210938 2.847656 -19.671875 2.609375 -20.015625 C 2.378906 -20.359375 2.0625 -20.53125 1.65625 -20.53125 L 1.390625 -20.53125 L 1.390625 -21.03125 L 6.125 -21.03125 Z M 6.125 -20.53125 "/></g></g></g><g fill="#ffffff" fill-opacity="1"><g transform="translate(183.105437, 29.960498)"><g><path d="M 17.453125 -3.203125 C 17.273438 -2.328125 17.125 -1.59375 17 -1 C 16.875 -0.40625 16.804688 -0.0703125 16.796875 0 L 1.390625 0 L 1.390625 -0.5 C 1.898438 -0.5 2.289062 -0.644531 2.5625 -0.9375 C 2.832031 -1.238281 2.96875 -1.722656 2.96875 -2.390625 L 2.96875 -18.640625 C 2.96875 -19.210938 2.84375 -19.671875 2.59375 -20.015625 C 2.351562 -20.359375 2.03125 -20.53125 1.625 -20.53125 L 1.390625 -20.53125 L 1.390625 -21.03125 L 16.609375 -21.03125 C 16.609375 -20.519531 16.625 -19.976562 16.65625 -19.40625 C 16.695312 -18.832031 16.722656 -18.296875 16.734375 -17.796875 L 16.328125 -17.796875 L 16.140625 -18.234375 C 15.785156 -18.972656 15.226562 -19.554688 14.46875 -19.984375 C 13.71875 -20.410156 12.898438 -20.625 12.015625 -20.625 L 4.546875 -20.625 L 4.546875 -12.671875 L 11.109375 -12.671875 C 11.898438 -12.671875 12.578125 -12.785156 13.140625 -13.015625 C 13.703125 -13.253906 14.050781 -13.578125 14.1875 -13.984375 L 14.296875 -14.21875 L 14.71875 -14.21875 L 14.71875 -10.484375 L 14.296875 -10.484375 L 14.1875 -10.75 C 14.007812 -11.207031 13.644531 -11.570312 13.09375 -11.84375 C 12.539062 -12.125 11.878906 -12.265625 11.109375 -12.265625 L 4.546875 -12.265625 L 4.546875 -0.390625 L 12.25 -0.390625 C 13.144531 -0.390625 14 -0.601562 14.8125 -1.03125 C 15.625 -1.46875 16.265625 -2.050781 16.734375 -2.78125 L 17.0625 -3.203125 Z M 17.453125 -3.203125 "/></g></g></g><g fill="#ffffff" fill-opacity="1"><g transform="translate(205.186921, 29.960498)"><g><path d="M 26.703125 -21.03125 L 30.90625 -21.03125 L 30.90625 -20.546875 C 30.4375 -20.546875 30.035156 -20.398438 29.703125 -20.109375 C 29.367188 -19.828125 29.066406 -19.390625 28.796875 -18.796875 L 21.078125 0 L 20.578125 0 L 15.921875 -10.859375 L 11.453125 0 L 10.953125 0 L 2.9375 -18.6875 C 2.675781 -19.257812 2.367188 -19.710938 2.015625 -20.046875 C 1.671875 -20.378906 1.257812 -20.546875 0.78125 -20.546875 L 0.78125 -21.03125 L 5.75 -21.03125 L 5.75 -20.546875 L 5.4375 -20.546875 C 5.09375 -20.546875 4.820312 -20.453125 4.625 -20.265625 C 4.4375 -20.085938 4.34375 -19.84375 4.34375 -19.53125 C 4.34375 -19.226562 4.410156 -18.929688 4.546875 -18.640625 L 11.75 -1.890625 L 15.65625 -11.4375 L 12.5625 -18.6875 C 12.300781 -19.257812 11.992188 -19.710938 11.640625 -20.046875 C 11.285156 -20.378906 10.875 -20.546875 10.40625 -20.546875 L 10.40625 -21.03125 L 15.375 -21.03125 L 15.375 -20.546875 L 15.0625 -20.546875 C 14.707031 -20.546875 14.429688 -20.453125 14.234375 -20.265625 C 14.046875 -20.085938 13.953125 -19.84375 13.953125 -19.53125 C 13.953125 -19.300781 14.023438 -19.003906 14.171875 -18.640625 L 16.453125 -13.328125 L 18.453125 -18.21875 C 18.609375 -18.601562 18.6875 -18.953125 18.6875 -19.265625 C 18.6875 -19.671875 18.570312 -19.984375 18.34375 -20.203125 C 18.113281 -20.429688 17.804688 -20.546875 17.421875 -20.546875 L 17.078125 -20.546875 L 17.078125 -21.03125 L 21.28125 -21.03125 L 21.28125 -20.546875 C 20.8125 -20.546875 20.410156 -20.398438 20.078125 -20.109375 C 19.742188 -19.828125 19.445312 -19.390625 19.1875 -18.796875 L 16.6875 -12.75 L 21.359375 -1.890625 L 28.0625 -18.21875 C 28.226562 -18.601562 28.3125 -18.953125 28.3125 -19.265625 C 28.3125 -19.671875 28.195312 -19.984375 27.96875 -20.203125 C 27.738281 -20.429688 27.429688 -20.546875 27.046875 -20.546875 L 26.703125 -20.546875 Z M 26.703125 -21.03125 "/></g></g></g><g fill="#ffffff" fill-opacity="1"><g transform="translate(240.358984, 29.960498)"><g><path d="M 6.15625 0 L 1.421875 0 L 1.421875 -0.5 C 1.929688 -0.5 2.320312 -0.644531 2.59375 -0.9375 C 2.863281 -1.238281 3 -1.722656 3 -2.390625 L 3 -18.640625 C 3 -19.210938 2.878906 -19.671875 2.640625 -20.015625 C 2.398438 -20.359375 2.082031 -20.53125 1.6875 -20.53125 L 1.421875 -20.53125 L 1.421875 -21.03125 L 6.15625 -21.03125 L 6.15625 -20.53125 C 5.644531 -20.53125 5.253906 -20.378906 4.984375 -20.078125 C 4.722656 -19.773438 4.59375 -19.296875 4.59375 -18.640625 L 4.59375 -2.390625 C 4.59375 -1.816406 4.710938 -1.359375 4.953125 -1.015625 C 5.191406 -0.671875 5.507812 -0.5 5.90625 -0.5 L 6.15625 -0.5 Z M 6.15625 0 "/></g></g></g><g fill="#ffffff" fill-opacity="1"><g transform="translate(251.400226, 29.960498)"><g><path d="M 3 -17.296875 C 3 -16.765625 3.195312 -16.3125 3.59375 -15.9375 C 4 -15.5625 4.535156 -15.210938 5.203125 -14.890625 C 5.867188 -14.578125 6.625 -14.285156 7.46875 -14.015625 C 8.320312 -13.742188 9.195312 -13.453125 10.09375 -13.140625 C 10.988281 -12.828125 11.859375 -12.472656 12.703125 -12.078125 C 13.554688 -11.679688 14.316406 -11.210938 14.984375 -10.671875 C 15.648438 -10.128906 16.179688 -9.492188 16.578125 -8.765625 C 16.984375 -8.035156 17.1875 -7.171875 17.1875 -6.171875 C 17.1875 -5.390625 16.992188 -4.617188 16.609375 -3.859375 C 16.222656 -3.109375 15.695312 -2.4375 15.03125 -1.84375 C 14.363281 -1.25 13.582031 -0.769531 12.6875 -0.40625 C 11.800781 -0.0507812 10.847656 0.125 9.828125 0.125 C 8.929688 0.125 8.054688 0.0859375 7.203125 0.015625 C 6.359375 -0.046875 5.554688 -0.140625 4.796875 -0.265625 C 4.046875 -0.398438 3.363281 -0.5625 2.75 -0.75 C 2.144531 -0.945312 1.625 -1.171875 1.1875 -1.421875 L 1.078125 -4.5 L 1.609375 -4.5 L 2 -3.703125 C 2.40625 -2.878906 2.976562 -2.191406 3.71875 -1.640625 C 4.457031 -1.085938 5.273438 -0.71875 6.171875 -0.53125 C 6.785156 -0.4375 7.390625 -0.367188 7.984375 -0.328125 C 8.585938 -0.285156 9.203125 -0.265625 9.828125 -0.265625 C 10.671875 -0.265625 11.472656 -0.410156 12.234375 -0.703125 C 12.992188 -1.003906 13.660156 -1.40625 14.234375 -1.90625 C 14.816406 -2.40625 15.273438 -2.96875 15.609375 -3.59375 C 15.941406 -4.226562 16.109375 -4.890625 16.109375 -5.578125 C 16.109375 -6.429688 15.90625 -7.171875 15.5 -7.796875 C 15.101562 -8.429688 14.566406 -8.988281 13.890625 -9.46875 C 13.210938 -9.957031 12.445312 -10.382812 11.59375 -10.75 C 10.75 -11.113281 9.882812 -11.453125 9 -11.765625 C 8.113281 -12.085938 7.242188 -12.40625 6.390625 -12.71875 C 5.546875 -13.03125 4.785156 -13.367188 4.109375 -13.734375 C 3.429688 -14.109375 2.890625 -14.53125 2.484375 -15 C 2.085938 -15.476562 1.890625 -16.03125 1.890625 -16.65625 C 1.890625 -17.5 2.078125 -18.207031 2.453125 -18.78125 C 2.828125 -19.363281 3.328125 -19.828125 3.953125 -20.171875 C 4.578125 -20.523438 5.28125 -20.78125 6.0625 -20.9375 C 6.84375 -21.101562 7.632812 -21.1875 8.4375 -21.1875 C 9.0625 -21.1875 9.691406 -21.144531 10.328125 -21.0625 C 10.972656 -20.988281 11.59375 -20.878906 12.1875 -20.734375 C 12.789062 -20.597656 13.347656 -20.429688 13.859375 -20.234375 C 14.378906 -20.046875 14.832031 -19.84375 15.21875 -19.625 C 15.125 -19.488281 15.078125 -19.40625 15.078125 -19.375 L 15.21875 -19.609375 L 15.328125 -16.5 L 14.796875 -16.5 C 14.660156 -16.75 14.535156 -17.023438 14.421875 -17.328125 C 14.304688 -17.640625 14.175781 -17.925781 14.03125 -18.1875 C 13.875 -18.519531 13.660156 -18.835938 13.390625 -19.140625 C 13.117188 -19.453125 12.765625 -19.726562 12.328125 -19.96875 C 11.890625 -20.21875 11.34375 -20.414062 10.6875 -20.5625 C 10.039062 -20.707031 9.273438 -20.78125 8.390625 -20.78125 C 7.722656 -20.78125 7.0625 -20.726562 6.40625 -20.625 C 5.757812 -20.519531 5.179688 -20.335938 4.671875 -20.078125 C 4.171875 -19.816406 3.765625 -19.457031 3.453125 -19 C 3.148438 -18.539062 3 -17.972656 3 -17.296875 Z M 3 -17.296875 "/></g></g></g></g></g><g transform="matrix(1, 0, 0, 1, 146, 249)"><g clip-path="url(#daac5fb035)"><g fill="#ffffff" fill-opacity="1"><g transform="translate(0.436188, 12.590928)"><g><path d="M 4.59375 -3.125 C 4.59375 -1.832031 4.644531 -1.066406 4.75 -0.828125 C 4.8125 -0.710938 4.875 -0.597656 4.9375 -0.484375 C 5.007812 -0.378906 5.109375 -0.3125 5.234375 -0.28125 C 5.492188 -0.207031 5.820312 -0.171875 6.21875 -0.171875 L 6.25 0 L 1.96875 0 L 1.984375 -0.171875 C 2.265625 -0.171875 2.484375 -0.175781 2.640625 -0.1875 C 2.804688 -0.207031 2.957031 -0.257812 3.09375 -0.34375 C 3.226562 -0.425781 3.320312 -0.519531 3.375 -0.625 C 3.4375 -0.726562 3.492188 -0.910156 3.546875 -1.171875 C 3.597656 -1.546875 3.625 -2.195312 3.625 -3.125 L 3.625 -6.78125 C 3.625 -7.40625 3.421875 -7.71875 3.015625 -7.71875 C 2.722656 -7.71875 2.203125 -7.550781 1.453125 -7.21875 L 1.34375 -7.484375 C 2.9375 -8.203125 3.96875 -8.722656 4.4375 -9.046875 L 4.59375 -8.96875 Z M 4.59375 -3.125 "/></g></g></g><g fill="#ffffff" fill-opacity="1"><g transform="translate(9.871078, 12.590928)"><g><path d="M 6.40625 -1.984375 L 6.5625 -1.984375 L 6.5625 0 L 1.015625 0 L 1.015625 -0.1875 C 2.335938 -1.476562 3.382812 -2.722656 4.15625 -3.921875 C 4.9375 -5.117188 5.328125 -6.117188 5.328125 -6.921875 C 5.328125 -7.441406 5.191406 -7.863281 4.921875 -8.1875 C 4.648438 -8.507812 4.269531 -8.671875 3.78125 -8.671875 C 3.46875 -8.671875 3.191406 -8.597656 2.953125 -8.453125 C 2.722656 -8.304688 2.550781 -8.144531 2.4375 -7.96875 C 2.332031 -7.789062 2.210938 -7.628906 2.078125 -7.484375 C 1.941406 -7.335938 1.804688 -7.265625 1.671875 -7.265625 C 1.535156 -7.265625 1.421875 -7.304688 1.328125 -7.390625 C 1.242188 -7.472656 1.203125 -7.582031 1.203125 -7.71875 C 1.203125 -8.0625 1.453125 -8.363281 1.953125 -8.625 C 2.460938 -8.894531 3.070312 -9.03125 3.78125 -9.03125 C 4.5 -9.03125 5.101562 -8.859375 5.59375 -8.515625 C 6.09375 -8.171875 6.34375 -7.625 6.34375 -6.875 C 6.34375 -6.007812 5.90625 -5.023438 5.03125 -3.921875 C 4.5625 -3.347656 4.113281 -2.832031 3.6875 -2.375 C 3.269531 -1.914062 2.679688 -1.304688 1.921875 -0.546875 C 3.410156 -0.546875 4.53125 -0.644531 5.28125 -0.84375 C 6.03125 -1.039062 6.40625 -1.421875 6.40625 -1.984375 Z M 6.40625 -1.984375 "/></g></g></g><g fill="#ffffff" fill-opacity="1"><g transform="translate(19.305968, 12.590928)"><g><path d="M 0.46875 -0.59375 C 0.46875 -0.800781 0.539062 -0.972656 0.6875 -1.109375 C 0.832031 -1.253906 1.003906 -1.328125 1.203125 -1.328125 C 1.398438 -1.328125 1.566406 -1.253906 1.703125 -1.109375 C 1.847656 -0.972656 1.921875 -0.800781 1.921875 -0.59375 C 1.921875 -0.382812 1.847656 -0.207031 1.703125 -0.0625 C 1.566406 0.0703125 1.398438 0.140625 1.203125 0.140625 C 1.003906 0.140625 0.832031 0.0703125 0.6875 -0.0625 C 0.539062 -0.207031 0.46875 -0.382812 0.46875 -0.59375 Z M 0.46875 -0.59375 "/></g></g></g><g fill="#ffffff" fill-opacity="1"><g transform="translate(23.525846, 12.590928)"><g><path d="M 4.59375 -3.125 C 4.59375 -1.832031 4.644531 -1.066406 4.75 -0.828125 C 4.8125 -0.710938 4.875 -0.597656 4.9375 -0.484375 C 5.007812 -0.378906 5.109375 -0.3125 5.234375 -0.28125 C 5.492188 -0.207031 5.820312 -0.171875 6.21875 -0.171875 L 6.25 0 L 1.96875 0 L 1.984375 -0.171875 C 2.265625 -0.171875 2.484375 -0.175781 2.640625 -0.1875 C 2.804688 -0.207031 2.957031 -0.257812 3.09375 -0.34375 C 3.226562 -0.425781 3.320312 -0.519531 3.375 -0.625 C 3.4375 -0.726562 3.492188 -0.910156 3.546875 -1.171875 C 3.597656 -1.546875 3.625 -2.195312 3.625 -3.125 L 3.625 -6.78125 C 3.625 -7.40625 3.421875 -7.71875 3.015625 -7.71875 C 2.722656 -7.71875 2.203125 -7.550781 1.453125 -7.21875 L 1.34375 -7.484375 C 2.9375 -8.203125 3.96875 -8.722656 4.4375 -9.046875 L 4.59375 -8.96875 Z M 4.59375 -3.125 "/></g></g></g><g fill="#ffffff" fill-opacity="1"><g transform="translate(32.960736, 12.590928)"><g><path d="M 0.640625 -4.40625 C 0.640625 -5.84375 0.9375 -6.972656 1.53125 -7.796875 C 2.125 -8.617188 2.882812 -9.03125 3.8125 -9.03125 C 4.75 -9.03125 5.507812 -8.617188 6.09375 -7.796875 C 6.675781 -6.972656 6.96875 -5.84375 6.96875 -4.40625 C 6.96875 -2.976562 6.675781 -1.863281 6.09375 -1.0625 C 5.519531 -0.257812 4.765625 0.140625 3.828125 0.140625 C 2.890625 0.140625 2.125 -0.257812 1.53125 -1.0625 C 0.9375 -1.863281 0.640625 -2.976562 0.640625 -4.40625 Z M 1.625 -4.421875 C 1.625 -3.191406 1.832031 -2.191406 2.25 -1.421875 C 2.675781 -0.648438 3.195312 -0.265625 3.8125 -0.265625 C 4.4375 -0.265625 4.953125 -0.644531 5.359375 -1.40625 C 5.765625 -2.175781 5.96875 -3.179688 5.96875 -4.421875 C 5.96875 -5.660156 5.765625 -6.675781 5.359375 -7.46875 C 4.953125 -8.269531 4.4375 -8.671875 3.8125 -8.671875 C 3.195312 -8.671875 2.675781 -8.269531 2.25 -7.46875 C 1.832031 -6.675781 1.625 -5.660156 1.625 -4.421875 Z M 1.625 -4.421875 "/></g></g></g><g fill="#ffffff" fill-opacity="1"><g transform="translate(42.395626, 12.590928)"><g><path d="M 0.46875 -0.59375 C 0.46875 -0.800781 0.539062 -0.972656 0.6875 -1.109375 C 0.832031 -1.253906 1.003906 -1.328125 1.203125 -1.328125 C 1.398438 -1.328125 1.566406 -1.253906 1.703125 -1.109375 C 1.847656 -0.972656 1.921875 -0.800781 1.921875 -0.59375 C 1.921875 -0.382812 1.847656 -0.207031 1.703125 -0.0625 C 1.566406 0.0703125 1.398438 0.140625 1.203125 0.140625 C 1.003906 0.140625 0.832031 0.0703125 0.6875 -0.0625 C 0.539062 -0.207031 0.46875 -0.382812 0.46875 -0.59375 Z M 0.46875 -0.59375 "/></g></g></g><g fill="#ffffff" fill-opacity="1"><g transform="translate(46.615504, 12.590928)"><g><path d="M 6.40625 -1.984375 L 6.5625 -1.984375 L 6.5625 0 L 1.015625 0 L 1.015625 -0.1875 C 2.335938 -1.476562 3.382812 -2.722656 4.15625 -3.921875 C 4.9375 -5.117188 5.328125 -6.117188 5.328125 -6.921875 C 5.328125 -7.441406 5.191406 -7.863281 4.921875 -8.1875 C 4.648438 -8.507812 4.269531 -8.671875 3.78125 -8.671875 C 3.46875 -8.671875 3.191406 -8.597656 2.953125 -8.453125 C 2.722656 -8.304688 2.550781 -8.144531 2.4375 -7.96875 C 2.332031 -7.789062 2.210938 -7.628906 2.078125 -7.484375 C 1.941406 -7.335938 1.804688 -7.265625 1.671875 -7.265625 C 1.535156 -7.265625 1.421875 -7.304688 1.328125 -7.390625 C 1.242188 -7.472656 1.203125 -7.582031 1.203125 -7.71875 C 1.203125 -8.0625 1.453125 -8.363281 1.953125 -8.625 C 2.460938 -8.894531 3.070312 -9.03125 3.78125 -9.03125 C 4.5 -9.03125 5.101562 -8.859375 5.59375 -8.515625 C 6.09375 -8.171875 6.34375 -7.625 6.34375 -6.875 C 6.34375 -6.007812 5.90625 -5.023438 5.03125 -3.921875 C 4.5625 -3.347656 4.113281 -2.832031 3.6875 -2.375 C 3.269531 -1.914062 2.679688 -1.304688 1.921875 -0.546875 C 3.410156 -0.546875 4.53125 -0.644531 5.28125 -0.84375 C 6.03125 -1.039062 6.40625 -1.421875 6.40625 -1.984375 Z M 6.40625 -1.984375 "/></g></g></g><g fill="#ffffff" fill-opacity="1"><g transform="translate(56.050394, 12.590928)"><g><path d="M 0.640625 -4.40625 C 0.640625 -5.84375 0.9375 -6.972656 1.53125 -7.796875 C 2.125 -8.617188 2.882812 -9.03125 3.8125 -9.03125 C 4.75 -9.03125 5.507812 -8.617188 6.09375 -7.796875 C 6.675781 -6.972656 6.96875 -5.84375 6.96875 -4.40625 C 6.96875 -2.976562 6.675781 -1.863281 6.09375 -1.0625 C 5.519531 -0.257812 4.765625 0.140625 3.828125 0.140625 C 2.890625 0.140625 2.125 -0.257812 1.53125 -1.0625 C 0.9375 -1.863281 0.640625 -2.976562 0.640625 -4.40625 Z M 1.625 -4.421875 C 1.625 -3.191406 1.832031 -2.191406 2.25 -1.421875 C 2.675781 -0.648438 3.195312 -0.265625 3.8125 -0.265625 C 4.4375 -0.265625 4.953125 -0.644531 5.359375 -1.40625 C 5.765625 -2.175781 5.96875 -3.179688 5.96875 -4.421875 C 5.96875 -5.660156 5.765625 -6.675781 5.359375 -7.46875 C 4.953125 -8.269531 4.4375 -8.671875 3.8125 -8.671875 C 3.195312 -8.671875 2.675781 -8.269531 2.25 -7.46875 C 1.832031 -6.675781 1.625 -5.660156 1.625 -4.421875 Z M 1.625 -4.421875 "/></g></g></g><g fill="#ffffff" fill-opacity="1"><g transform="translate(65.485284, 12.590928)"><g><path d="M 4.59375 -3.125 C 4.59375 -1.832031 4.644531 -1.066406 4.75 -0.828125 C 4.8125 -0.710938 4.875 -0.597656 4.9375 -0.484375 C 5.007812 -0.378906 5.109375 -0.3125 5.234375 -0.28125 C 5.492188 -0.207031 5.820312 -0.171875 6.21875 -0.171875 L 6.25 0 L 1.96875 0 L 1.984375 -0.171875 C 2.265625 -0.171875 2.484375 -0.175781 2.640625 -0.1875 C 2.804688 -0.207031 2.957031 -0.257812 3.09375 -0.34375 C 3.226562 -0.425781 3.320312 -0.519531 3.375 -0.625 C 3.4375 -0.726562 3.492188 -0.910156 3.546875 -1.171875 C 3.597656 -1.546875 3.625 -2.195312 3.625 -3.125 L 3.625 -6.78125 C 3.625 -7.40625 3.421875 -7.71875 3.015625 -7.71875 C 2.722656 -7.71875 2.203125 -7.550781 1.453125 -7.21875 L 1.34375 -7.484375 C 2.9375 -8.203125 3.96875 -8.722656 4.4375 -9.046875 L 4.59375 -8.96875 Z M 4.59375 -3.125 "/></g></g></g><g fill="#ffffff" fill-opacity="1"><g transform="translate(74.920174, 12.590928)"><g><path d="M 6.40625 -1.984375 L 6.5625 -1.984375 L 6.5625 0 L 1.015625 0 L 1.015625 -0.1875 C 2.335938 -1.476562 3.382812 -2.722656 4.15625 -3.921875 C 4.9375 -5.117188 5.328125 -6.117188 5.328125 -6.921875 C 5.328125 -7.441406 5.191406 -7.863281 4.921875 -8.1875 C 4.648438 -8.507812 4.269531 -8.671875 3.78125 -8.671875 C 3.46875 -8.671875 3.191406 -8.597656 2.953125 -8.453125 C 2.722656 -8.304688 2.550781 -8.144531 2.4375 -7.96875 C 2.332031 -7.789062 2.210938 -7.628906 2.078125 -7.484375 C 1.941406 -7.335938 1.804688 -7.265625 1.671875 -7.265625 C 1.535156 -7.265625 1.421875 -7.304688 1.328125 -7.390625 C 1.242188 -7.472656 1.203125 -7.582031 1.203125 -7.71875 C 1.203125 -8.0625 1.453125 -8.363281 1.953125 -8.625 C 2.460938 -8.894531 3.070312 -9.03125 3.78125 -9.03125 C 4.5 -9.03125 5.101562 -8.859375 5.59375 -8.515625 C 6.09375 -8.171875 6.34375 -7.625 6.34375 -6.875 C 6.34375 -6.007812 5.90625 -5.023438 5.03125 -3.921875 C 4.5625 -3.347656 4.113281 -2.832031 3.6875 -2.375 C 3.269531 -1.914062 2.679688 -1.304688 1.921875 -0.546875 C 3.410156 -0.546875 4.53125 -0.644531 5.28125 -0.84375 C 6.03125 -1.039062 6.40625 -1.421875 6.40625 -1.984375 Z M 6.40625 -1.984375 "/></g></g></g></g></g><g clip-path="url(#d68b4dffa5)"><g clip-path="url(#9fd32f47ff)"><g clip-path="url(#c7ef9ee77b)"><g clip-path="url(#846b269e35)"><path fill="#ffffff" d="M 227.230469 164.554688 C 243.082031 158.484375 261.378906 162.117188 278.035156 165.695312 C 296.523438 169.664062 322.417969 175.210938 340.238281 168.3125 C 345.144531 166.414062 349.882812 163.429688 351.980469 158.605469 C 352.855469 156.59375 352.941406 155.28125 352.289062 154.003906 C 351.589844 152.644531 349.433594 152.132812 348.984375 153.21875 C 348.835938 153.582031 348.945312 153.78125 349.585938 154.320312 C 350.554688 155.140625 350.738281 155.878906 350.382812 157.542969 C 349.824219 160.136719 347.523438 163.023438 344.328125 165.140625 C 336.617188 170.25 324.011719 172.058594 307.863281 170.375 C 285.449219 168.039062 267.285156 161.027344 247.472656 160.761719 C 239.714844 160.65625 233.902344 161.476562 228.867188 163.386719 C 226.757812 164.1875 224.433594 165.304688 224.511719 165.480469 C 224.554688 165.582031 227.214844 164.546875 227.230469 164.554688 " fill-opacity="1" fill-rule="nonzero"/></g></g></g></g></svg>