<svg xmlns="http://www.w3.org/2000/svg" xmlns:xlink="http://www.w3.org/1999/xlink" width="500" zoomAndPan="magnify" viewBox="0 0 375 374.999991" height="500" preserveAspectRatio="xMidYMid meet" version="1.0"><defs><g/><clipPath id="d7550dd8f4"><path d="M 0.71875 28 L 58 28 L 58 102 L 0.71875 102 Z M 0.71875 28 " clip-rule="nonzero"/></clipPath><clipPath id="0f35c8c032"><rect x="0" width="87" y="0" height="149"/></clipPath><clipPath id="897386aff4"><rect x="0" width="258" y="0" height="124"/></clipPath><clipPath id="23ff2cd55b"><path d="M 0.800781 7 L 77 7 L 77 96 L 0.800781 96 Z M 0.800781 7 " clip-rule="nonzero"/></clipPath><clipPath id="2a91fd6047"><rect x="0" width="249" y="0" height="129"/></clipPath></defs><g transform="matrix(1, 0, 0, 1, 18, 19)"><g clip-path="url(#0f35c8c032)"><g clip-path="url(#d7550dd8f4)"><g fill="#ffffff" fill-opacity="1"><g transform="translate(25.362907, 86.326245)"><g><path d="M -24.375 -38.6875 C -24.375 -39.4375 -23.675781 -40.226562 -22.28125 -41.0625 C -20.894531 -41.90625 -19.144531 -42.726562 -17.03125 -43.53125 C -14.925781 -44.34375 -12.703125 -45.109375 -10.359375 -45.828125 C -8.023438 -46.554688 -5.875 -47.179688 -3.90625 -47.703125 C -1.9375 -48.222656 -0.460938 -48.628906 0.515625 -48.921875 C 1.734375 -49.265625 2.585938 -49.460938 3.078125 -49.515625 C 3.566406 -49.578125 3.882812 -49.765625 4.03125 -50.078125 C 4.175781 -50.398438 4.335938 -51.054688 4.515625 -52.046875 C 4.972656 -54.410156 5.503906 -56.039062 6.109375 -56.9375 C 6.722656 -57.832031 7.316406 -58.28125 7.890625 -58.28125 C 8.359375 -58.28125 8.75 -58.035156 9.0625 -57.546875 C 9.382812 -57.054688 9.546875 -56.460938 9.546875 -55.765625 C 9.546875 -55.242188 9.515625 -55.023438 9.453125 -55.109375 C 9.398438 -55.203125 9.398438 -55.019531 9.453125 -54.5625 C 9.453125 -54.4375 9.46875 -54.285156 9.5 -54.109375 C 9.53125 -53.941406 9.546875 -53.710938 9.546875 -53.421875 C 9.546875 -52.671875 9.398438 -52.296875 9.109375 -52.296875 C 8.816406 -52.296875 8.523438 -52.253906 8.234375 -52.171875 C 7.953125 -52.085938 7.8125 -51.582031 7.8125 -50.65625 C 8.5 -50.65625 9.257812 -50.753906 10.09375 -50.953125 C 10.9375 -51.160156 11.675781 -51.289062 12.3125 -51.34375 C 14.851562 -51.8125 17.394531 -52.234375 19.9375 -52.609375 C 22.488281 -52.984375 25.09375 -53.171875 27.75 -53.171875 C 29.144531 -53.171875 30.160156 -52.878906 30.796875 -52.296875 C 31.429688 -51.722656 31.660156 -51.144531 31.484375 -50.5625 C 31.304688 -49.988281 30.671875 -49.703125 29.578125 -49.703125 C 29.460938 -50.160156 29.390625 -50.375 29.359375 -50.34375 C 29.328125 -50.320312 29.050781 -50.367188 28.53125 -50.484375 C 28.300781 -50.535156 27.835938 -50.5625 27.140625 -50.5625 C 25.929688 -50.5625 24.328125 -50.429688 22.328125 -50.171875 C 20.335938 -49.910156 18.269531 -49.609375 16.125 -49.265625 C 13.988281 -48.921875 12.082031 -48.585938 10.40625 -48.265625 C 8.726562 -47.953125 7.628906 -47.734375 7.109375 -47.609375 L 5.375 -29.84375 C 5.320312 -29.4375 5.304688 -29 5.328125 -28.53125 C 5.359375 -28.070312 5.375 -27.609375 5.375 -27.140625 C 5.375 -26.566406 5.332031 -26.191406 5.25 -26.015625 C 5.164062 -25.847656 5.125 -25.445312 5.125 -24.8125 C 5.125 -23.53125 5.148438 -22.066406 5.203125 -20.421875 C 5.265625 -18.773438 5.238281 -17.488281 5.125 -16.5625 C 5.0625 -16.039062 5.015625 -15.015625 4.984375 -13.484375 C 4.953125 -11.953125 4.921875 -10.175781 4.890625 -8.15625 C 4.867188 -6.132812 4.859375 -4.09375 4.859375 -2.03125 C 4.859375 0.0195312 4.859375 1.882812 4.859375 3.5625 C 4.859375 5.238281 4.882812 6.453125 4.9375 7.203125 C 4.9375 7.835938 5.007812 8.804688 5.15625 10.109375 C 5.300781 11.410156 5.332031 12.578125 5.25 13.609375 C 5.164062 14.648438 4.742188 15.171875 3.984375 15.171875 C 2.890625 15.171875 2.222656 14.5625 1.984375 13.34375 C 1.753906 12.132812 1.640625 11.007812 1.640625 9.96875 C 1.472656 7.894531 1.375 5.46875 1.34375 2.6875 C 1.3125 -0.0820312 1.3125 -2.851562 1.34375 -5.625 C 1.375 -8.40625 1.390625 -10.835938 1.390625 -12.921875 L 1.640625 -17 C 1.640625 -17.8125 1.640625 -19.054688 1.640625 -20.734375 C 1.640625 -22.410156 1.671875 -24.1875 1.734375 -26.0625 C 1.796875 -27.9375 1.851562 -29.65625 1.90625 -31.21875 C 1.96875 -32.78125 2.054688 -33.878906 2.171875 -34.515625 C 2.285156 -35.097656 2.351562 -35.789062 2.375 -36.59375 C 2.40625 -37.40625 2.453125 -38.101562 2.515625 -38.6875 L 3.296875 -46.75 C 3.066406 -46.6875 2.5625 -46.566406 1.78125 -46.390625 C 1 -46.222656 0.375 -46.082031 -0.09375 -45.96875 C -2.925781 -45.269531 -5.628906 -44.53125 -8.203125 -43.75 C -10.773438 -42.976562 -13.414062 -42.070312 -16.125 -41.03125 C -16.644531 -40.789062 -17.125 -40.539062 -17.5625 -40.28125 C -18 -40.019531 -18.476562 -39.773438 -19 -39.546875 C -19.6875 -39.253906 -20.128906 -39.050781 -20.328125 -38.9375 C -20.535156 -38.820312 -20.640625 -38.675781 -20.640625 -38.5 C -20.640625 -38.332031 -20.785156 -37.957031 -21.078125 -37.375 C -21.304688 -37.320312 -21.535156 -37.28125 -21.765625 -37.25 C -22.003906 -37.21875 -22.265625 -37.203125 -22.546875 -37.203125 C -23.015625 -37.203125 -23.4375 -37.300781 -23.8125 -37.5 C -24.1875 -37.707031 -24.375 -38.101562 -24.375 -38.6875 Z M -24.375 -38.6875 "/></g></g></g></g><g fill="#ffffff" fill-opacity="1"><g transform="translate(35.424226, 86.326245)"><g><path d="M -0.515625 -7.203125 L 0 -17 C 0.0625 -17.632812 0.117188 -18.398438 0.171875 -19.296875 C 0.234375 -20.191406 0.289062 -20.957031 0.34375 -21.59375 C 0.457031 -24.488281 0.816406 -27.351562 1.421875 -30.1875 C 2.035156 -33.019531 2.6875 -35.820312 3.375 -38.59375 C 3.78125 -39.75 4.097656 -40.515625 4.328125 -40.890625 C 4.566406 -41.265625 4.890625 -41.453125 5.296875 -41.453125 C 5.460938 -41.453125 5.660156 -41.4375 5.890625 -41.40625 C 6.128906 -41.382812 6.390625 -41.34375 6.671875 -41.28125 C 6.960938 -39.957031 6.90625 -38.382812 6.5 -36.5625 C 6.09375 -34.738281 5.773438 -33.078125 5.546875 -31.578125 C 4.910156 -27.585938 4.390625 -23.191406 3.984375 -18.390625 C 3.578125 -13.585938 3.375 -9.019531 3.375 -4.6875 L 3.640625 5.03125 L 4.34375 3.375 C 5.144531 1.0625 5.820312 -0.882812 6.375 -2.46875 C 6.925781 -4.0625 7.5625 -5.640625 8.28125 -7.203125 C 9.007812 -8.765625 9.976562 -10.671875 11.1875 -12.921875 C 11.820312 -14.078125 12.441406 -15.0625 13.046875 -15.875 C 13.660156 -16.6875 14.601562 -17.09375 15.875 -17.09375 C 16.507812 -17.09375 16.957031 -16.628906 17.21875 -15.703125 C 17.476562 -14.773438 17.632812 -13.757812 17.6875 -12.65625 C 17.75 -11.5625 17.78125 -10.753906 17.78125 -10.234375 C 17.78125 -8.617188 17.820312 -7.242188 17.90625 -6.109375 C 18 -4.984375 18.332031 -3.875 18.90625 -2.78125 C 20.238281 -3.0625 21.363281 -3.910156 22.28125 -5.328125 C 23.207031 -6.742188 24.050781 -7.972656 24.8125 -9.015625 C 25.207031 -9.648438 25.578125 -10.285156 25.921875 -10.921875 C 26.273438 -11.554688 26.625 -12.222656 26.96875 -12.921875 C 27.488281 -13.847656 27.90625 -14.484375 28.21875 -14.828125 C 28.539062 -15.179688 28.878906 -15.359375 29.234375 -15.359375 C 29.398438 -15.359375 29.71875 -15.296875 30.1875 -15.171875 C 30.476562 -14.140625 30.421875 -13.300781 30.015625 -12.65625 C 29.609375 -12.019531 29.171875 -11.269531 28.703125 -10.40625 C 28.304688 -9.65625 27.757812 -8.6875 27.0625 -7.5 C 26.363281 -6.3125 25.582031 -5.15625 24.71875 -4.03125 C 23.851562 -2.90625 22.925781 -1.953125 21.9375 -1.171875 C 20.957031 -0.390625 19.945312 0 18.90625 0 C 17 0 15.753906 -1.707031 15.171875 -5.125 C 15.003906 -6.101562 14.890625 -7.414062 14.828125 -9.0625 C 14.773438 -10.707031 14.75 -12.140625 14.75 -13.359375 C 14.34375 -13.066406 13.847656 -12.398438 13.265625 -11.359375 C 12.691406 -10.316406 12.113281 -9.144531 11.53125 -7.84375 C 10.957031 -6.539062 10.421875 -5.28125 9.921875 -4.0625 C 9.429688 -2.851562 9.046875 -1.929688 8.765625 -1.296875 C 8.066406 0.492188 7.5 2.285156 7.0625 4.078125 C 6.632812 5.867188 6.160156 7.570312 5.640625 9.1875 C 5.347656 10.113281 5.015625 10.707031 4.640625 10.96875 C 4.265625 11.226562 3.671875 11.359375 2.859375 11.359375 C 2.222656 11.359375 1.703125 10.804688 1.296875 9.703125 C 0.890625 8.609375 0.554688 7.238281 0.296875 5.59375 C 0.0351562 3.945312 -0.148438 2.238281 -0.265625 0.46875 C -0.378906 -1.289062 -0.445312 -2.878906 -0.46875 -4.296875 C -0.5 -5.710938 -0.515625 -6.679688 -0.515625 -7.203125 Z M -0.515625 -7.203125 "/></g></g></g><g fill="#ffffff" fill-opacity="1"><g transform="translate(61.878573, 86.326245)"><g><path d="M 3.984375 -15.703125 C 5.085938 -16.273438 6.300781 -17.066406 7.625 -18.078125 C 8.957031 -19.097656 9.679688 -20.300781 9.796875 -21.6875 C 9.046875 -21.570312 8.25 -21.164062 7.40625 -20.46875 C 6.570312 -19.769531 5.851562 -18.988281 5.25 -18.125 C 4.644531 -17.257812 4.222656 -16.453125 3.984375 -15.703125 Z M 0.09375 -13.625 C 0.09375 -15.0625 0.566406 -16.617188 1.515625 -18.296875 C 2.472656 -19.972656 3.660156 -21.40625 5.078125 -22.59375 C 6.492188 -23.78125 7.894531 -24.375 9.28125 -24.375 C 11.1875 -24.375 12.179688 -23.648438 12.265625 -22.203125 C 12.359375 -20.753906 11.738281 -19.191406 10.40625 -17.515625 C 9.71875 -16.765625 8.675781 -15.894531 7.28125 -14.90625 C 5.894531 -13.925781 4.535156 -13.378906 3.203125 -13.265625 C 3.203125 -12.335938 3.226562 -11.515625 3.28125 -10.796875 C 3.34375 -10.078125 3.753906 -9.34375 4.515625 -8.59375 C 5.265625 -7.832031 6.21875 -7.453125 7.375 -7.453125 C 8.875 -7.453125 10.429688 -7.929688 12.046875 -8.890625 C 13.671875 -9.847656 14.914062 -10.644531 15.78125 -11.28125 C 16.132812 -11.5625 16.410156 -11.789062 16.609375 -11.96875 C 16.804688 -12.144531 17.050781 -12.347656 17.34375 -12.578125 C 18.5625 -13.503906 19.328125 -14.179688 19.640625 -14.609375 C 19.960938 -15.046875 20.238281 -15.335938 20.46875 -15.484375 C 20.695312 -15.628906 21.25 -15.703125 22.125 -15.703125 C 22.238281 -15.066406 22.28125 -14.628906 22.25 -14.390625 C 22.21875 -14.160156 22 -13.816406 21.59375 -13.359375 C 20.550781 -12.316406 19.234375 -11.128906 17.640625 -9.796875 C 16.054688 -8.472656 14.351562 -7.316406 12.53125 -6.328125 C 10.707031 -5.347656 8.898438 -4.859375 7.109375 -4.859375 C 6.179688 -4.859375 5.296875 -5.015625 4.453125 -5.328125 C 3.617188 -5.648438 2.828125 -6.1875 2.078125 -6.9375 C 1.035156 -7.976562 0.441406 -9.046875 0.296875 -10.140625 C 0.160156 -11.242188 0.09375 -12.40625 0.09375 -13.625 Z M 0.09375 -13.625 "/></g></g></g></g></g><g transform="matrix(1, 0, 0, 1, 54, 104)"><g clip-path="url(#897386aff4)"><g fill="#ffffff" fill-opacity="1"><g transform="translate(0.186179, 92.546824)"><g><path d="M 52 -5.21875 L 52 -28.4375 C 52 -31.507812 51.390625 -33.570312 50.171875 -34.625 C 48.960938 -35.675781 47.507812 -36.203125 45.8125 -36.203125 L 45.8125 -38.03125 L 79.09375 -38.03125 L 79.09375 -36.203125 C 77.550781 -36.203125 76.132812 -35.675781 74.84375 -34.625 C 73.550781 -33.570312 72.90625 -31.507812 72.90625 -28.4375 L 72.90625 -24.90625 C 71.039062 -19.476562 68.285156 -14.921875 64.640625 -11.234375 C 60.992188 -7.546875 56.859375 -4.75 52.234375 -2.84375 C 47.617188 -0.945312 42.84375 0 37.90625 0 C 32.71875 0 27.835938 -1.03125 23.265625 -3.09375 C 18.691406 -5.164062 14.660156 -8.082031 11.171875 -11.84375 C 7.691406 -15.613281 4.957031 -20.109375 2.96875 -25.328125 C 0.988281 -30.554688 0 -36.289062 0 -42.53125 C 0 -49.007812 1.09375 -54.859375 3.28125 -60.078125 C 5.46875 -65.304688 8.441406 -69.78125 12.203125 -73.5 C 15.972656 -77.226562 20.285156 -80.082031 25.140625 -82.0625 C 30.003906 -84.050781 35.109375 -85.046875 40.453125 -85.046875 C 43.617188 -85.046875 47.0625 -84.640625 50.78125 -83.828125 C 54.507812 -83.023438 58.050781 -81.648438 61.40625 -79.703125 C 64.769531 -77.753906 67.523438 -75.117188 69.671875 -71.796875 C 71.828125 -68.484375 72.90625 -64.316406 72.90625 -59.296875 C 72.90625 -55.734375 72.15625 -52.691406 70.65625 -50.171875 C 69.15625 -47.660156 67.207031 -45.773438 64.8125 -44.515625 C 62.425781 -43.265625 59.859375 -42.601562 57.109375 -42.53125 C 53.296875 -42.363281 50.132812 -43.3125 47.625 -45.375 C 45.113281 -47.445312 43.613281 -50.46875 43.125 -54.4375 C 46.9375 -54.351562 49.875 -55.644531 51.9375 -58.3125 C 54.007812 -60.988281 55.003906 -64.191406 54.921875 -67.921875 C 54.835938 -73.585938 53.296875 -77.613281 50.296875 -80 C 47.304688 -82.394531 43.945312 -83.347656 40.21875 -82.859375 C 36.082031 -82.378906 32.738281 -80.738281 30.1875 -77.9375 C 27.632812 -75.144531 25.691406 -71.703125 24.359375 -67.609375 C 23.023438 -63.523438 22.113281 -59.234375 21.625 -54.734375 C 21.132812 -50.242188 20.890625 -46.050781 20.890625 -42.15625 C 20.890625 -36.082031 21.640625 -30.453125 23.140625 -25.265625 C 24.640625 -20.085938 26.765625 -15.734375 29.515625 -12.203125 C 32.273438 -8.679688 35.554688 -6.253906 39.359375 -4.921875 C 43.171875 -3.585938 47.382812 -3.6875 52 -5.21875 Z M 52 -5.21875 "/></g></g></g><g fill="#ffffff" fill-opacity="1"><g transform="translate(78.781813, 92.546824)"><g><path d="M 15.1875 -79.09375 C 17.78125 -79.09375 19.945312 -78.203125 21.6875 -76.421875 C 23.425781 -74.640625 24.296875 -72.492188 24.296875 -69.984375 C 24.296875 -67.472656 23.425781 -65.328125 21.6875 -63.546875 C 19.945312 -61.765625 17.78125 -60.875 15.1875 -60.875 C 12.675781 -60.875 10.53125 -61.765625 8.75 -63.546875 C 6.96875 -65.328125 6.078125 -67.472656 6.078125 -69.984375 C 6.078125 -72.492188 6.96875 -74.640625 8.75 -76.421875 C 10.53125 -78.203125 12.675781 -79.09375 15.1875 -79.09375 Z M 0 0 L 0 -2.0625 C 1.625 -2.0625 3.039062 -2.566406 4.25 -3.578125 C 5.46875 -4.597656 6.078125 -6.644531 6.078125 -9.71875 L 6.078125 -45.3125 C 6.078125 -48.394531 5.46875 -50.441406 4.25 -51.453125 C 3.039062 -52.460938 1.625 -52.96875 0 -52.96875 L 0 -55.046875 C 4.050781 -55.203125 8.300781 -55.867188 12.75 -57.046875 C 17.207031 -58.222656 21.054688 -59.457031 24.296875 -60.75 L 24.296875 -9.71875 C 24.296875 -6.644531 24.921875 -4.597656 26.171875 -3.578125 C 27.429688 -2.566406 28.875 -2.0625 30.5 -2.0625 L 30.5 0 Z M 0 0 "/></g></g></g><g fill="#ffffff" fill-opacity="1"><g transform="translate(106.112777, 92.546824)"><g><path d="M 18.21875 0 L 0 0 L 0 -2.0625 C 1.625 -2.0625 3.039062 -2.566406 4.25 -3.578125 C 5.46875 -4.597656 6.078125 -6.644531 6.078125 -9.71875 L 6.078125 -45.3125 C 6.078125 -48.394531 5.46875 -50.441406 4.25 -51.453125 C 3.039062 -52.460938 1.625 -52.96875 0 -52.96875 L 0 -55.046875 C 4.050781 -55.203125 8.300781 -55.867188 12.75 -57.046875 C 17.207031 -58.222656 21.054688 -59.457031 24.296875 -60.75 L 24.296875 -48.84375 C 26.328125 -50.300781 28.3125 -51.65625 30.25 -52.90625 C 32.195312 -54.164062 34.101562 -55.320312 35.96875 -56.375 C 38.5625 -57.75 41.070312 -58.820312 43.5 -59.59375 C 45.925781 -60.363281 48.597656 -60.75 51.515625 -60.75 C 54.921875 -60.75 57.914062 -59.773438 60.5 -57.828125 C 63.09375 -55.890625 64.390625 -52.613281 64.390625 -48 C 64.390625 -44.425781 63.296875 -41.585938 61.109375 -39.484375 C 58.921875 -37.378906 56.25 -36.242188 53.09375 -36.078125 C 50.75 -36.003906 48.582031 -36.65625 46.59375 -38.03125 C 44.613281 -39.40625 43.296875 -41.304688 42.640625 -43.734375 C 44.023438 -43.898438 45.019531 -44.382812 45.625 -45.1875 C 46.226562 -46 46.570312 -46.894531 46.65625 -47.875 C 46.820312 -49.488281 46.359375 -50.660156 45.265625 -51.390625 C 44.171875 -52.117188 42.929688 -52.566406 41.546875 -52.734375 C 38.628906 -53.140625 35.671875 -52.632812 32.671875 -51.21875 C 29.679688 -49.800781 27.050781 -48.28125 24.78125 -46.65625 L 24.296875 -46.40625 L 24.296875 -7.65625 C 24.296875 -4.65625 23.6875 -2.628906 22.46875 -1.578125 C 21.257812 -0.523438 19.84375 0 18.21875 0 Z M 18.21875 0 "/></g></g></g><g fill="#ffffff" fill-opacity="1"><g transform="translate(167.215271, 92.546824)"><g><path d="M 0 0 L 0 -2.0625 C 1.625 -2.0625 3.039062 -2.566406 4.25 -3.578125 C 5.46875 -4.597656 6.078125 -6.644531 6.078125 -9.71875 L 6.078125 -75.328125 C 6.078125 -78.410156 5.46875 -80.457031 4.25 -81.46875 C 3.039062 -82.476562 1.625 -82.984375 0 -82.984375 L 0 -85.046875 C 4.050781 -85.210938 8.300781 -85.878906 12.75 -87.046875 C 17.207031 -88.222656 21.054688 -89.460938 24.296875 -90.765625 L 24.296875 -9.71875 C 24.296875 -6.644531 24.921875 -4.597656 26.171875 -3.578125 C 27.429688 -2.566406 28.875 -2.0625 30.5 -2.0625 L 30.5 0 Z M 0 0 "/></g></g></g><g fill="#ffffff" fill-opacity="1"><g transform="translate(194.546235, 92.546824)"><g><path d="M 60.75 -17.984375 C 60.75 -14.253906 59.753906 -11.210938 57.765625 -8.859375 C 55.785156 -6.515625 53.234375 -4.691406 50.109375 -3.390625 C 46.992188 -2.097656 43.710938 -1.207031 40.265625 -0.71875 C 36.828125 -0.238281 33.648438 0 30.734375 0 C 28.953125 0 26.785156 -0.078125 24.234375 -0.234375 C 21.679688 -0.398438 18.988281 -0.722656 16.15625 -1.203125 C 13.320312 -1.691406 10.6875 -2.398438 8.25 -3.328125 C 5.820312 -4.265625 3.835938 -5.539062 2.296875 -7.15625 C 0.765625 -8.78125 0 -10.769531 0 -13.125 C 0 -15.957031 1.070312 -18 3.21875 -19.25 C 5.363281 -20.507812 7.691406 -21.179688 10.203125 -21.265625 C 12.066406 -21.347656 14.234375 -20.984375 16.703125 -20.171875 C 19.171875 -19.359375 20.929688 -18.0625 21.984375 -16.28125 C 19.640625 -15.0625 18.242188 -13.359375 17.796875 -11.171875 C 17.347656 -8.984375 18.015625 -6.976562 19.796875 -5.15625 C 21.585938 -3.34375 24.546875 -2.3125 28.671875 -2.0625 C 31.753906 -1.90625 34.550781 -2.25 37.0625 -3.09375 C 39.570312 -3.945312 41.554688 -5.082031 43.015625 -6.5 C 44.472656 -7.914062 45.203125 -9.492188 45.203125 -11.234375 C 45.203125 -12.972656 44.226562 -14.65625 42.28125 -16.28125 C 40.332031 -17.90625 37.175781 -19.28125 32.8125 -20.40625 C 30.539062 -21.0625 27.945312 -21.734375 25.03125 -22.421875 C 22.113281 -23.109375 19.195312 -23.957031 16.28125 -24.96875 C 13.363281 -25.976562 10.671875 -27.253906 8.203125 -28.796875 C 5.734375 -30.335938 3.75 -32.238281 2.25 -34.5 C 0.75 -36.769531 0 -39.523438 0 -42.765625 C 0 -46.492188 0.988281 -49.53125 2.96875 -51.875 C 4.957031 -54.226562 7.507812 -56.050781 10.625 -57.34375 C 13.75 -58.644531 17.03125 -59.535156 20.46875 -60.015625 C 23.914062 -60.503906 27.097656 -60.75 30.015625 -60.75 C 31.796875 -60.75 33.960938 -60.664062 36.515625 -60.5 C 39.066406 -60.34375 41.757812 -60.019531 44.59375 -59.53125 C 47.425781 -59.050781 50.054688 -58.34375 52.484375 -57.40625 C 54.921875 -56.476562 56.90625 -55.203125 58.4375 -53.578125 C 59.976562 -51.960938 60.75 -49.976562 60.75 -47.625 C 60.75 -44.875 59.675781 -42.847656 57.53125 -41.546875 C 55.382812 -40.253906 53.054688 -39.566406 50.546875 -39.484375 C 48.679688 -39.398438 46.515625 -39.765625 44.046875 -40.578125 C 41.578125 -41.390625 39.816406 -42.6875 38.765625 -44.46875 C 41.191406 -45.757812 42.609375 -47.476562 43.015625 -49.625 C 43.421875 -51.78125 42.726562 -53.785156 40.9375 -55.640625 C 39.15625 -57.503906 36.203125 -58.519531 32.078125 -58.6875 C 28.992188 -58.84375 26.195312 -58.492188 23.6875 -57.640625 C 21.175781 -56.796875 19.191406 -55.664062 17.734375 -54.25 C 16.273438 -52.832031 15.546875 -51.253906 15.546875 -49.515625 C 15.546875 -47.773438 16.519531 -46.09375 18.46875 -44.46875 C 20.414062 -42.84375 23.570312 -41.46875 27.9375 -40.34375 C 30.207031 -39.769531 32.800781 -39.117188 35.71875 -38.390625 C 38.632812 -37.660156 41.550781 -36.789062 44.46875 -35.78125 C 47.382812 -34.769531 50.078125 -33.492188 52.546875 -31.953125 C 55.015625 -30.410156 57 -28.503906 58.5 -26.234375 C 60 -23.972656 60.75 -21.222656 60.75 -17.984375 Z M 60.75 -17.984375 "/></g></g></g></g></g><g transform="matrix(1, 0, 0, 1, 106, 193)"><g clip-path="url(#2a91fd6047)"><g clip-path="url(#23ff2cd55b)"><g fill="#ffffff" fill-opacity="1"><g transform="translate(0.96283, 95.812206)"><g><path d="M 75.375 -61.40625 C 75.375 -57.71875 74.597656 -54.59375 73.046875 -52.03125 C 71.492188 -49.476562 69.5 -47.53125 67.0625 -46.1875 C 64.632812 -44.84375 61.992188 -44.128906 59.140625 -44.046875 C 55.203125 -43.878906 51.929688 -44.863281 49.328125 -47 C 46.722656 -49.144531 45.171875 -52.269531 44.671875 -56.375 C 48.617188 -56.289062 51.660156 -57.65625 53.796875 -60.46875 C 55.929688 -63.28125 56.957031 -66.570312 56.875 -70.34375 C 56.789062 -74.207031 56.035156 -77.332031 54.609375 -79.71875 C 53.191406 -82.113281 51.328125 -83.8125 49.015625 -84.8125 C 46.710938 -85.820312 44.257812 -86.179688 41.65625 -85.890625 C 39.050781 -85.597656 36.578125 -84.695312 34.234375 -83.1875 C 30.117188 -80.5 27.007812 -76.550781 24.90625 -71.34375 C 22.8125 -66.144531 21.554688 -60.609375 21.140625 -54.734375 C 20.890625 -47.773438 21.832031 -41.316406 23.96875 -35.359375 C 26.113281 -29.398438 29.382812 -24.597656 33.78125 -20.953125 C 38.1875 -17.304688 43.535156 -15.398438 49.828125 -15.234375 C 54.273438 -15.140625 58.679688 -16.078125 63.046875 -18.046875 C 67.410156 -20.023438 71.0625 -23.03125 74 -27.0625 L 75.375 -25.796875 C 73.53125 -20.265625 70.71875 -15.566406 66.9375 -11.703125 C 63.164062 -7.847656 58.890625 -4.929688 54.109375 -2.953125 C 49.328125 -0.984375 44.378906 0 39.265625 0 C 33.890625 0 28.832031 -1.066406 24.09375 -3.203125 C 19.351562 -5.347656 15.179688 -8.390625 11.578125 -12.328125 C 7.972656 -16.273438 5.140625 -20.929688 3.078125 -26.296875 C 1.023438 -31.671875 0 -37.585938 0 -44.046875 C 0 -50.753906 1.128906 -56.8125 3.390625 -62.21875 C 5.660156 -67.632812 8.742188 -72.269531 12.640625 -76.125 C 16.546875 -79.988281 21.015625 -82.945312 26.046875 -85 C 31.078125 -87.0625 36.363281 -88.09375 41.90625 -88.09375 C 45.175781 -88.09375 48.738281 -87.671875 52.59375 -86.828125 C 56.457031 -85.992188 60.109375 -84.566406 63.546875 -82.546875 C 66.984375 -80.535156 69.8125 -77.8125 72.03125 -74.375 C 74.257812 -70.9375 75.375 -66.613281 75.375 -61.40625 Z M 75.375 -61.40625 "/></g></g></g></g><g fill="#ffffff" fill-opacity="1"><g transform="translate(75.704267, 95.812206)"><g><path d="M 0 0 L 0 -2.140625 C 1.675781 -2.140625 3.144531 -2.660156 4.40625 -3.703125 C 5.664062 -4.753906 6.296875 -6.875 6.296875 -10.0625 L 6.296875 -78.015625 C 6.296875 -81.210938 5.664062 -83.332031 4.40625 -84.375 C 3.144531 -85.425781 1.675781 -85.953125 0 -85.953125 L 0 -88.09375 C 4.195312 -88.257812 8.601562 -88.945312 13.21875 -90.15625 C 17.832031 -91.375 21.816406 -92.65625 25.171875 -94 L 25.171875 -10.0625 C 25.171875 -6.875 25.816406 -4.753906 27.109375 -3.703125 C 28.410156 -2.660156 29.90625 -2.140625 31.59375 -2.140625 L 31.59375 0 Z M 0 0 "/></g></g></g><g fill="#ffffff" fill-opacity="1"><g transform="translate(104.014529, 95.812206)"><g><path d="M 6.296875 -18.125 L 6.296875 -46.9375 C 6.296875 -50.125 5.664062 -52.242188 4.40625 -53.296875 C 3.144531 -54.347656 1.675781 -54.875 0 -54.875 L 0 -57 C 4.195312 -57.175781 8.601562 -57.867188 13.21875 -59.078125 C 17.832031 -60.296875 21.816406 -61.578125 25.171875 -62.921875 L 25.171875 -21.390625 C 25.171875 -16.691406 26.257812 -13.421875 28.4375 -11.578125 C 30.625 -9.734375 33.375 -9.082031 36.6875 -9.625 C 40 -10.164062 43.25 -11.570312 46.4375 -13.84375 C 47.101562 -14.34375 47.769531 -14.820312 48.4375 -15.28125 C 49.113281 -15.75 49.75 -16.234375 50.34375 -16.734375 L 50.34375 -46.9375 C 50.34375 -50.125 49.710938 -52.242188 48.453125 -53.296875 C 47.191406 -54.347656 45.722656 -54.875 44.046875 -54.875 L 44.046875 -57 C 48.242188 -57.175781 52.648438 -57.867188 57.265625 -59.078125 C 61.878906 -60.296875 65.863281 -61.578125 69.21875 -62.921875 L 69.21875 -10.0625 C 69.21875 -6.875 69.863281 -4.753906 71.15625 -3.703125 C 72.457031 -2.660156 73.945312 -2.140625 75.625 -2.140625 L 75.625 0 L 56.75 0 C 55.070312 0 53.582031 -0.539062 52.28125 -1.625 C 50.988281 -2.71875 50.34375 -4.816406 50.34375 -7.921875 L 50.34375 -14.21875 C 47.820312 -12.375 45.363281 -10.613281 42.96875 -8.9375 C 40.582031 -7.257812 38.210938 -5.789062 35.859375 -4.53125 C 33.265625 -3.1875 30.6875 -2.09375 28.125 -1.25 C 25.5625 -0.414062 22.984375 0 20.390625 0 C 16.273438 0 13.234375 -0.773438 11.265625 -2.328125 C 9.296875 -3.878906 7.972656 -6.039062 7.296875 -8.8125 C 6.628906 -11.582031 6.296875 -14.6875 6.296875 -18.125 Z M 6.296875 -18.125 "/></g></g></g><g fill="#ffffff" fill-opacity="1"><g transform="translate(176.616875, 95.812206)"><g><path d="M 18.75 0 L 0 0 L 0 -2.140625 C 1.675781 -2.140625 3.144531 -2.640625 4.40625 -3.640625 C 5.664062 -4.648438 6.296875 -6.789062 6.296875 -10.0625 L 6.296875 -77.890625 C 6.296875 -81.078125 5.664062 -83.238281 4.40625 -84.375 C 3.144531 -85.507812 1.675781 -86.078125 0 -86.078125 L 0 -88.09375 C 4.195312 -88.257812 8.601562 -88.945312 13.21875 -90.15625 C 17.832031 -91.375 21.816406 -92.65625 25.171875 -94 L 25.171875 -50.84375 C 26.429688 -52.6875 28.046875 -54.53125 30.015625 -56.375 C 31.984375 -58.21875 34.265625 -59.769531 36.859375 -61.03125 C 39.460938 -62.289062 42.316406 -62.921875 45.421875 -62.921875 C 50.796875 -62.921875 55.242188 -61.492188 58.765625 -58.640625 C 62.285156 -55.785156 64.925781 -51.988281 66.6875 -47.25 C 68.457031 -42.507812 69.34375 -37.203125 69.34375 -31.328125 C 69.34375 -24.535156 68.125 -18.8125 65.6875 -14.15625 C 63.257812 -9.5 60.113281 -5.972656 56.25 -3.578125 C 52.394531 -1.191406 48.328125 0 44.046875 0 C 37.503906 0 31.210938 -3.144531 25.171875 -9.4375 L 25.171875 -7.921875 C 25.171875 -4.734375 24.519531 -2.613281 23.21875 -1.5625 C 21.914062 -0.519531 20.425781 0 18.75 0 Z M 25.171875 -46.6875 L 25.171875 -12.578125 C 27.859375 -9.734375 30.984375 -8.015625 34.546875 -7.421875 C 38.109375 -6.835938 41.316406 -7.972656 44.171875 -10.828125 C 46.515625 -13.171875 48.128906 -16.332031 49.015625 -20.3125 C 49.898438 -24.300781 50.34375 -28.3125 50.34375 -32.34375 C 50.34375 -34.6875 50.085938 -37.367188 49.578125 -40.390625 C 49.078125 -43.410156 48.238281 -46.285156 47.0625 -49.015625 C 45.882812 -51.742188 44.25 -53.738281 42.15625 -55 C 39.300781 -56.757812 36.300781 -56.820312 33.15625 -55.1875 C 30.007812 -53.550781 27.347656 -50.71875 25.171875 -46.6875 Z M 25.171875 -46.6875 "/></g></g></g></g></g></svg>