<svg xmlns="http://www.w3.org/2000/svg" xmlns:xlink="http://www.w3.org/1999/xlink" width="500" zoomAndPan="magnify" viewBox="0 0 375 374.999991" height="500" preserveAspectRatio="xMidYMid meet" version="1.0"><defs><g/><clipPath id="73342fed7f"><rect x="0" width="213" y="0" height="154"/></clipPath><clipPath id="dc7ba77f29"><rect x="0" width="325" y="0" height="155"/></clipPath><clipPath id="3a8b7f4d80"><path d="M 42 0.078125 L 54 0.078125 L 54 21 L 42 21 Z M 42 0.078125 " clip-rule="nonzero"/></clipPath><clipPath id="757dbffaab"><path d="M 54 0.078125 L 66 0.078125 L 66 21 L 54 21 Z M 54 0.078125 " clip-rule="nonzero"/></clipPath><clipPath id="1687bdc1d7"><path d="M 63 0.078125 L 76 0.078125 L 76 21 L 63 21 Z M 63 0.078125 " clip-rule="nonzero"/></clipPath><clipPath id="bef7738cdd"><path d="M 75 0.078125 L 85 0.078125 L 85 21 L 75 21 Z M 75 0.078125 " clip-rule="nonzero"/></clipPath><clipPath id="844898dff9"><rect x="0" width="87" y="0" height="30"/></clipPath></defs><g transform="matrix(1, 0, 0, 1, 81, 152)"><g clip-path="url(#73342fed7f)"><g fill="#ffffff" fill-opacity="1"><g transform="translate(1.945463, 110.007923)"><g><path d="M 23.234375 -34.234375 L 23.53125 -33.9375 C 36.070312 -57.570312 46.671875 -69.390625 55.328125 -69.390625 C 57.566406 -69.390625 59.375 -68.570312 60.75 -66.9375 C 62.125 -65.3125 62.8125 -63.125 62.8125 -60.375 C 62.8125 -57.113281 61.894531 -51.5625 60.0625 -43.71875 L 55.171875 -22.78125 C 54.660156 -20.332031 54.203125 -18.394531 53.796875 -16.96875 C 52.773438 -12.476562 52.265625 -9.675781 52.265625 -8.5625 C 52.265625 -7.03125 52.773438 -6.265625 53.796875 -6.265625 C 54.710938 -6.265625 55.832031 -6.953125 57.15625 -8.328125 C 58.488281 -9.703125 60.375 -12.222656 62.8125 -15.890625 L 64.65625 -14.375 C 60.582031 -8.664062 57.140625 -4.535156 54.328125 -1.984375 C 51.523438 0.554688 48.800781 1.828125 46.15625 1.828125 C 44.21875 1.828125 42.738281 1.191406 41.71875 -0.078125 C 40.707031 -1.347656 40.203125 -2.898438 40.203125 -4.734375 C 40.203125 -6.566406 40.660156 -9.316406 41.578125 -12.984375 L 49.515625 -47.078125 C 49.921875 -48.398438 50.273438 -49.976562 50.578125 -51.8125 C 50.890625 -53.644531 51.046875 -54.96875 51.046875 -55.78125 C 51.046875 -57.007812 50.765625 -58.003906 50.203125 -58.765625 C 49.648438 -59.535156 48.960938 -59.921875 48.140625 -59.921875 C 46.304688 -59.921875 43.9375 -58.414062 41.03125 -55.40625 C 38.132812 -52.394531 35.003906 -48.191406 31.640625 -42.796875 C 28.078125 -36.984375 24.992188 -30.789062 22.390625 -24.21875 C 19.796875 -17.65625 17.476562 -9.582031 15.4375 0 L 4.125 0 L 16.046875 -51.8125 C 16.859375 -55.582031 17.265625 -57.925781 17.265625 -58.84375 C 17.265625 -60.675781 16.65625 -61.921875 15.4375 -62.578125 C 14.21875 -63.242188 12.535156 -63.578125 10.390625 -63.578125 L 11 -66.03125 L 28.890625 -69.390625 L 31.484375 -69.390625 Z M 23.234375 -34.234375 "/></g></g></g><g fill="#ffffff" fill-opacity="1"><g transform="translate(59.408625, 110.007923)"><g><path d="M 41.578125 -69.390625 C 45.035156 -69.390625 47.859375 -68.394531 50.046875 -66.40625 C 52.242188 -64.425781 53.34375 -61.851562 53.34375 -58.6875 C 53.34375 -55.425781 52.144531 -51.859375 49.75 -47.984375 C 47.351562 -44.117188 43.609375 -40.554688 38.515625 -37.296875 C 33.421875 -34.035156 27.15625 -31.691406 19.71875 -30.265625 C 19.414062 -26.285156 19.265625 -23.789062 19.265625 -22.78125 C 19.265625 -17.582031 20.078125 -13.425781 21.703125 -10.3125 C 23.335938 -7.207031 25.53125 -5.65625 28.28125 -5.65625 C 31.03125 -5.65625 33.703125 -6.570312 36.296875 -8.40625 C 38.898438 -10.238281 41.523438 -12.53125 44.171875 -15.28125 L 46.15625 -13.609375 C 40.550781 -7.796875 36.117188 -3.769531 32.859375 -1.53125 C 29.597656 0.707031 26.03125 1.828125 22.15625 1.828125 C 17.375 1.828125 13.628906 -0.078125 10.921875 -3.890625 C 8.222656 -7.710938 6.875 -12.882812 6.875 -19.40625 C 6.875 -25.925781 8.503906 -33.160156 11.765625 -41.109375 C 15.023438 -49.054688 19.304688 -55.753906 24.609375 -61.203125 C 29.910156 -66.660156 35.566406 -69.390625 41.578125 -69.390625 Z M 20.484375 -33.46875 C 25.273438 -34.382812 29.398438 -36.34375 32.859375 -39.34375 C 36.328125 -42.351562 38.898438 -45.742188 40.578125 -49.515625 C 42.265625 -53.285156 43.109375 -56.851562 43.109375 -60.21875 C 43.109375 -61.945312 42.75 -63.347656 42.03125 -64.421875 C 41.320312 -65.492188 40.203125 -66.03125 38.671875 -66.03125 C 34.691406 -66.03125 31.046875 -62.515625 27.734375 -55.484375 C 24.429688 -48.453125 22.015625 -41.113281 20.484375 -33.46875 Z M 20.484375 -33.46875 "/></g></g></g><g fill="#ffffff" fill-opacity="1"><g transform="translate(100.977476, 110.007923)"><g><path d="M 24.609375 -69.390625 C 26.335938 -69.390625 27.738281 -68.773438 28.8125 -67.546875 C 29.882812 -66.328125 30.421875 -64.90625 30.421875 -63.28125 C 30.421875 -61.644531 30.085938 -59.347656 29.421875 -56.390625 C 28.753906 -53.441406 28.320312 -51.609375 28.125 -50.890625 L 19.875 -15.28125 C 19.5625 -14.0625 19.40625 -12.835938 19.40625 -11.609375 C 19.40625 -9.066406 20.222656 -7.796875 21.859375 -7.796875 C 22.773438 -7.796875 23.742188 -8.097656 24.765625 -8.703125 C 25.785156 -9.316406 27.054688 -10.285156 28.578125 -11.609375 C 33.160156 -15.785156 37.71875 -21.875 42.25 -29.875 C 46.789062 -37.875 50.128906 -46.613281 52.265625 -56.09375 L 55.328125 -69.390625 L 66.640625 -69.390625 L 53.796875 -13.453125 C 53.390625 -11.816406 53.1875 -10.390625 53.1875 -9.171875 C 53.1875 -8.554688 53.3125 -8.019531 53.5625 -7.5625 C 53.820312 -7.101562 54.15625 -6.875 54.5625 -6.875 C 55.582031 -6.875 56.753906 -7.6875 58.078125 -9.3125 C 59.398438 -10.945312 61.03125 -13.34375 62.96875 -16.5 L 65.109375 -15.125 C 61.234375 -8.914062 57.945312 -4.535156 55.25 -1.984375 C 52.550781 0.554688 50.03125 1.828125 47.6875 1.828125 C 45.75 1.828125 44.191406 1.164062 43.015625 -0.15625 C 41.847656 -1.476562 41.265625 -3.3125 41.265625 -5.65625 C 41.265625 -6.875 41.414062 -8.320312 41.71875 -10 C 42.03125 -11.6875 42.285156 -12.9375 42.484375 -13.75 L 46.921875 -32.5625 L 46.625 -32.859375 C 33.988281 -9.734375 23.441406 1.828125 14.984375 1.828125 C 12.734375 1.828125 10.945312 1.039062 9.625 -0.53125 C 8.300781 -2.113281 7.640625 -4.28125 7.640625 -7.03125 C 7.640625 -10.289062 8.25 -14.367188 9.46875 -19.265625 L 17.734375 -54.40625 C 18.242188 -56.445312 18.5 -57.976562 18.5 -59 C 18.5 -59.613281 18.445312 -60.125 18.34375 -60.53125 C 18.238281 -60.9375 17.984375 -61.140625 17.578125 -61.140625 C 16.765625 -61.140625 15.671875 -60.222656 14.296875 -58.390625 C 12.921875 -56.554688 11.671875 -54.671875 10.546875 -52.734375 L 8.40625 -54.265625 C 14.3125 -64.347656 19.710938 -69.390625 24.609375 -69.390625 Z M 24.609375 -69.390625 "/></g></g></g><g fill="#ffffff" fill-opacity="1"><g transform="translate(158.440638, 110.007923)"><g><path d="M 41.578125 -69.390625 C 45.035156 -69.390625 47.859375 -68.394531 50.046875 -66.40625 C 52.242188 -64.425781 53.34375 -61.851562 53.34375 -58.6875 C 53.34375 -55.425781 52.144531 -51.859375 49.75 -47.984375 C 47.351562 -44.117188 43.609375 -40.554688 38.515625 -37.296875 C 33.421875 -34.035156 27.15625 -31.691406 19.71875 -30.265625 C 19.414062 -26.285156 19.265625 -23.789062 19.265625 -22.78125 C 19.265625 -17.582031 20.078125 -13.425781 21.703125 -10.3125 C 23.335938 -7.207031 25.53125 -5.65625 28.28125 -5.65625 C 31.03125 -5.65625 33.703125 -6.570312 36.296875 -8.40625 C 38.898438 -10.238281 41.523438 -12.53125 44.171875 -15.28125 L 46.15625 -13.609375 C 40.550781 -7.796875 36.117188 -3.769531 32.859375 -1.53125 C 29.597656 0.707031 26.03125 1.828125 22.15625 1.828125 C 17.375 1.828125 13.628906 -0.078125 10.921875 -3.890625 C 8.222656 -7.710938 6.875 -12.882812 6.875 -19.40625 C 6.875 -25.925781 8.503906 -33.160156 11.765625 -41.109375 C 15.023438 -49.054688 19.304688 -55.753906 24.609375 -61.203125 C 29.910156 -66.660156 35.566406 -69.390625 41.578125 -69.390625 Z M 20.484375 -33.46875 C 25.273438 -34.382812 29.398438 -36.34375 32.859375 -39.34375 C 36.328125 -42.351562 38.898438 -45.742188 40.578125 -49.515625 C 42.265625 -53.285156 43.109375 -56.851562 43.109375 -60.21875 C 43.109375 -61.945312 42.75 -63.347656 42.03125 -64.421875 C 41.320312 -65.492188 40.203125 -66.03125 38.671875 -66.03125 C 34.691406 -66.03125 31.046875 -62.515625 27.734375 -55.484375 C 24.429688 -48.453125 22.015625 -41.113281 20.484375 -33.46875 Z M 20.484375 -33.46875 "/></g></g></g></g></g><g transform="matrix(1, 0, 0, 1, 24, 60)"><g clip-path="url(#dc7ba77f29)"><g fill="#ffffff" fill-opacity="1"><g transform="translate(1.482417, 110.560371)"><g><path d="M 22.78125 -71.984375 L 22.78125 -57.625 L 23.078125 -57.625 C 25.523438 -62.101562 28.222656 -65.613281 31.171875 -68.15625 C 34.128906 -70.707031 37.644531 -71.984375 41.71875 -71.984375 C 45.90625 -71.984375 49.144531 -70.632812 51.4375 -67.9375 C 53.726562 -65.238281 55.078125 -61.492188 55.484375 -56.703125 L 55.78125 -56.703125 C 58.539062 -61.898438 61.394531 -65.742188 64.34375 -68.234375 C 67.300781 -70.734375 70.765625 -71.984375 74.734375 -71.984375 C 79.523438 -71.984375 83.164062 -70.148438 85.65625 -66.484375 C 88.15625 -62.816406 89.40625 -57.414062 89.40625 -50.28125 L 89.40625 -12.6875 C 89.40625 -9.9375 89.96875 -7.59375 91.09375 -5.65625 C 92.21875 -3.71875 93.953125 -2.695312 96.296875 -2.59375 L 96.296875 0 L 69.078125 0 L 69.078125 -2.59375 C 74.484375 -2.59375 77.1875 -6.3125 77.1875 -13.75 L 77.1875 -50.125 C 77.1875 -55.320312 76.394531 -58.757812 74.8125 -60.4375 C 73.238281 -62.125 71.28125 -62.96875 68.9375 -62.96875 C 66.59375 -62.96875 64.476562 -62.253906 62.59375 -60.828125 C 60.707031 -59.398438 58.539062 -56.851562 56.09375 -53.1875 L 56.09375 -13.609375 C 56.09375 -9.734375 56.804688 -6.953125 58.234375 -5.265625 C 59.660156 -3.585938 61.75 -2.695312 64.5 -2.59375 L 64.5 0 L 35.765625 0 L 35.765625 -2.59375 C 41.160156 -2.800781 43.859375 -6.519531 43.859375 -13.75 L 43.859375 -49.515625 C 43.859375 -58.484375 41.054688 -62.96875 35.453125 -62.96875 C 30.972656 -62.96875 26.75 -59.707031 22.78125 -53.1875 L 22.78125 -13.609375 C 22.78125 -9.523438 23.488281 -6.742188 24.90625 -5.265625 C 26.332031 -3.796875 28.375 -2.90625 31.03125 -2.59375 L 31.03125 0 L 3.0625 0 L 3.0625 -2.59375 C 8.050781 -3.3125 10.546875 -6.316406 10.546875 -11.609375 L 10.546875 -55.78125 C 10.546875 -59.65625 9.171875 -61.59375 6.421875 -61.59375 C 5.398438 -61.59375 4.28125 -61.390625 3.0625 -60.984375 L 2.296875 -63.28125 L 20.171875 -71.984375 Z M 22.78125 -71.984375 "/></g></g></g><g fill="#ffffff" fill-opacity="1"><g transform="translate(89.205909, 110.560371)"><g><path d="M 29.65625 -71.984375 C 36.070312 -71.984375 40.859375 -70.40625 44.015625 -67.25 C 47.171875 -64.09375 48.75 -60.269531 48.75 -55.78125 L 48.75 -13.609375 C 48.75 -9.117188 50.078125 -6.875 52.734375 -6.875 C 53.546875 -6.875 54.359375 -7.050781 55.171875 -7.40625 C 55.992188 -7.769531 57.015625 -8.457031 58.234375 -9.46875 L 58.234375 -6.875 C 56.296875 -3.925781 54.179688 -1.6875 51.890625 -0.15625 C 49.597656 1.375 47.332031 2.140625 45.09375 2.140625 C 42.4375 2.140625 40.367188 1.125 38.890625 -0.90625 C 37.421875 -2.945312 36.6875 -6.210938 36.6875 -10.703125 L 36.375 -10.546875 C 31.582031 -2.085938 25.878906 2.140625 19.265625 2.140625 C 14.773438 2.140625 11.078125 0.613281 8.171875 -2.4375 C 5.273438 -5.5 3.828125 -9.476562 3.828125 -14.375 C 3.828125 -18.75 5.097656 -22.875 7.640625 -26.75 C 10.191406 -30.625 15.285156 -34.546875 22.921875 -38.515625 L 36.53125 -45.546875 L 36.53125 -56.703125 C 36.53125 -60.171875 35.789062 -63.050781 34.3125 -65.34375 C 32.832031 -67.632812 30.460938 -68.78125 27.203125 -68.78125 C 24.554688 -68.78125 22.335938 -67.910156 20.546875 -66.171875 C 18.765625 -64.441406 17.875 -62.359375 17.875 -59.921875 C 17.875 -58.796875 18.128906 -57.570312 18.640625 -56.25 C 19.054688 -54.820312 19.265625 -53.703125 19.265625 -52.890625 C 19.265625 -51.359375 18.648438 -50.03125 17.421875 -48.90625 C 16.203125 -47.789062 14.722656 -47.234375 12.984375 -47.234375 C 10.953125 -47.234375 9.320312 -47.96875 8.09375 -49.4375 C 6.875 -50.914062 6.265625 -52.828125 6.265625 -55.171875 C 6.265625 -58.234375 7.304688 -61.0625 9.390625 -63.65625 C 11.484375 -66.257812 14.3125 -68.296875 17.875 -69.765625 C 21.445312 -71.242188 25.375 -71.984375 29.65625 -71.984375 Z M 16.5 -19.265625 C 16.5 -15.691406 17.3125 -12.734375 18.9375 -10.390625 C 20.570312 -8.046875 22.613281 -6.875 25.0625 -6.875 C 28.726562 -6.875 32.550781 -9.523438 36.53125 -14.828125 L 36.53125 -41.265625 C 29.289062 -37.597656 24.140625 -34.160156 21.078125 -30.953125 C 18.023438 -27.742188 16.5 -23.847656 16.5 -19.265625 Z M 16.5 -19.265625 "/></g></g></g><g fill="#ffffff" fill-opacity="1"><g transform="translate(138.721916, 110.560371)"><g><path d="M 19.265625 -108.984375 C 21.398438 -108.984375 23.207031 -108.242188 24.6875 -106.765625 C 26.164062 -105.285156 26.90625 -103.472656 26.90625 -101.328125 C 26.90625 -99.191406 26.164062 -97.382812 24.6875 -95.90625 C 23.207031 -94.425781 21.398438 -93.6875 19.265625 -93.6875 C 17.117188 -93.6875 15.304688 -94.425781 13.828125 -95.90625 C 12.347656 -97.382812 11.609375 -99.191406 11.609375 -101.328125 C 11.609375 -103.472656 12.347656 -105.285156 13.828125 -106.765625 C 15.304688 -108.242188 17.117188 -108.984375 19.265625 -108.984375 Z M 25.671875 -12.375 C 25.671875 -9.425781 26.410156 -7.054688 27.890625 -5.265625 C 29.367188 -3.484375 31.640625 -2.59375 34.703125 -2.59375 L 34.703125 0 L 3.828125 0 L 3.828125 -2.59375 L 4.890625 -2.59375 C 7.742188 -2.800781 9.882812 -3.796875 11.3125 -5.578125 C 12.738281 -7.359375 13.453125 -10.1875 13.453125 -14.0625 L 13.453125 -54.71875 C 13.453125 -56.25 13.066406 -57.75 12.296875 -59.21875 C 11.535156 -60.695312 10.238281 -61.4375 8.40625 -61.4375 C 7.28125 -61.4375 5.90625 -61.132812 4.28125 -60.53125 L 3.203125 -62.8125 L 23.078125 -71.984375 L 25.671875 -71.984375 Z M 25.671875 -12.375 "/></g></g></g><g fill="#ffffff" fill-opacity="1"><g transform="translate(165.924746, 110.560371)"><g><path d="M 19.875 -71.984375 C 22.007812 -71.984375 23.941406 -71.675781 25.671875 -71.0625 C 27.410156 -70.457031 28.429688 -70.101562 28.734375 -70 C 30.367188 -69.289062 31.488281 -68.9375 32.09375 -68.9375 C 33.113281 -68.9375 33.929688 -69.445312 34.546875 -70.46875 L 37.296875 -70.46875 L 37.296875 -48.609375 L 34.546875 -48.609375 C 33.316406 -54.617188 31.453125 -59.253906 28.953125 -62.515625 C 26.460938 -65.773438 23.585938 -67.40625 20.328125 -67.40625 C 18.085938 -67.40625 16.175781 -66.585938 14.59375 -64.953125 C 13.019531 -63.328125 12.234375 -61.394531 12.234375 -59.15625 C 12.234375 -57.519531 12.691406 -55.8125 13.609375 -54.03125 C 14.523438 -52.25 15.796875 -50.539062 17.421875 -48.90625 L 21.09375 -45.546875 C 26.488281 -40.859375 31.125 -36.425781 35 -32.25 C 37.445312 -29.5 39.050781 -27.15625 39.8125 -25.21875 C 40.582031 -23.28125 40.96875 -20.882812 40.96875 -18.03125 C 40.96875 -12.226562 39.15625 -7.414062 35.53125 -3.59375 C 31.914062 0.226562 27.507812 2.140625 22.3125 2.140625 C 19.5625 2.140625 16.203125 1.273438 12.234375 -0.453125 C 10.492188 -1.171875 9.320312 -1.53125 8.71875 -1.53125 C 8.207031 -1.53125 7.742188 -1.375 7.328125 -1.0625 C 6.921875 -0.757812 6.71875 -0.40625 6.71875 0 L 3.96875 0 L 3.96875 -23.53125 L 6.578125 -23.53125 C 7.179688 -17.113281 8.859375 -11.992188 11.609375 -8.171875 C 14.367188 -4.359375 17.734375 -2.453125 21.703125 -2.453125 C 24.148438 -2.453125 26.238281 -3.46875 27.96875 -5.5 C 29.695312 -7.539062 30.5625 -9.988281 30.5625 -12.84375 C 30.5625 -16.8125 28.726562 -20.53125 25.0625 -24 L 18.796875 -29.65625 L 11.609375 -36.21875 C 9.171875 -38.46875 7.265625 -40.941406 5.890625 -43.640625 C 4.515625 -46.335938 3.828125 -49.46875 3.828125 -53.03125 C 3.828125 -58.632812 5.328125 -63.191406 8.328125 -66.703125 C 11.335938 -70.222656 15.1875 -71.984375 19.875 -71.984375 Z M 19.875 -71.984375 "/></g></g></g><g fill="#ffffff" fill-opacity="1"><g transform="translate(199.546443, 110.560371)"><g><path d="M 34.703125 -71.984375 C 40.203125 -71.984375 45.113281 -70.429688 49.4375 -67.328125 C 53.769531 -64.222656 57.160156 -59.914062 59.609375 -54.40625 C 62.054688 -48.90625 63.28125 -42.585938 63.28125 -35.453125 C 63.28125 -28.222656 62.03125 -21.753906 59.53125 -16.046875 C 57.03125 -10.335938 53.539062 -5.878906 49.0625 -2.671875 C 44.582031 0.535156 39.488281 2.140625 33.78125 2.140625 C 28.175781 2.140625 23.207031 0.585938 18.875 -2.515625 C 14.539062 -5.628906 11.148438 -9.988281 8.703125 -15.59375 C 6.265625 -21.195312 5.046875 -27.613281 5.046875 -34.84375 C 5.046875 -42.082031 6.316406 -48.503906 8.859375 -54.109375 C 11.410156 -59.710938 14.925781 -64.09375 19.40625 -67.25 C 23.894531 -70.40625 28.992188 -71.984375 34.703125 -71.984375 Z M 19.265625 -39.28125 C 19.265625 -28.070312 20.535156 -19.207031 23.078125 -12.6875 C 25.628906 -6.164062 29.601562 -2.90625 35 -2.90625 C 40.195312 -2.90625 43.835938 -5.398438 45.921875 -10.390625 C 48.015625 -15.378906 49.0625 -22.257812 49.0625 -31.03125 C 49.0625 -43.757812 47.6875 -52.925781 44.9375 -58.53125 C 42.1875 -64.144531 38.265625 -66.953125 33.171875 -66.953125 C 28.273438 -66.953125 24.734375 -64.53125 22.546875 -59.6875 C 20.359375 -54.84375 19.265625 -48.039062 19.265625 -39.28125 Z M 19.265625 -39.28125 "/></g></g></g><g fill="#ffffff" fill-opacity="1"><g transform="translate(257.009604, 110.560371)"><g><path d="M 23.53125 -71.984375 L 23.53125 -57.921875 L 23.84375 -57.921875 C 27.101562 -62.816406 30.257812 -66.382812 33.3125 -68.625 C 36.375 -70.863281 39.640625 -71.984375 43.109375 -71.984375 C 48.296875 -71.984375 52.085938 -70.148438 54.484375 -66.484375 C 56.878906 -62.816406 58.078125 -58.128906 58.078125 -52.421875 L 58.078125 -11.921875 C 58.078125 -9.273438 58.738281 -7.054688 60.0625 -5.265625 C 61.382812 -3.484375 63.171875 -2.59375 65.421875 -2.59375 L 65.421875 0 L 36.984375 0 L 36.984375 -2.59375 C 42.898438 -2.59375 45.859375 -6.3125 45.859375 -13.75 L 45.859375 -52.265625 C 45.859375 -55.734375 45.117188 -58.382812 43.640625 -60.21875 C 42.160156 -62.050781 39.992188 -62.96875 37.140625 -62.96875 C 32.347656 -62.96875 27.8125 -59.859375 23.53125 -53.640625 L 23.53125 -13.609375 C 23.53125 -9.628906 24.269531 -6.796875 25.75 -5.109375 C 27.226562 -3.429688 29.445312 -2.59375 32.40625 -2.59375 L 32.40625 0 L 3.203125 0 L 3.203125 -2.59375 C 5.753906 -2.59375 7.742188 -3.507812 9.171875 -5.34375 C 10.597656 -7.175781 11.3125 -9.976562 11.3125 -13.75 L 11.3125 -57.015625 C 11.3125 -58.441406 10.953125 -59.5625 10.234375 -60.375 C 9.523438 -61.1875 8.507812 -61.59375 7.1875 -61.59375 C 6.164062 -61.59375 5.046875 -61.390625 3.828125 -60.984375 L 3.203125 -63.28125 L 21.09375 -71.984375 Z M 23.53125 -71.984375 "/></g></g></g></g></g><g transform="matrix(1, 0, 0, 1, 144, 274)"><g clip-path="url(#844898dff9)"><g fill="#ffffff" fill-opacity="1"><g transform="translate(0.429229, 20.040275)"><g><path d="M 5.765625 -12.765625 C 6.066406 -12.765625 6.359375 -12.71875 6.640625 -12.625 C 6.921875 -12.53125 7.238281 -12.40625 7.59375 -12.25 C 7.894531 -12.125 8.070312 -12.0625 8.125 -12.0625 C 8.269531 -12.0625 8.390625 -12.113281 8.484375 -12.21875 C 8.578125 -12.320312 8.703125 -12.503906 8.859375 -12.765625 L 9.421875 -12.765625 L 8.734375 -8.515625 L 8.265625 -8.515625 C 8.210938 -9.785156 7.988281 -10.707031 7.59375 -11.28125 C 7.195312 -11.851562 6.691406 -12.140625 6.078125 -12.140625 C 5.660156 -12.140625 5.320312 -12.007812 5.0625 -11.75 C 4.800781 -11.488281 4.671875 -11.160156 4.671875 -10.765625 C 4.671875 -10.441406 4.738281 -10.117188 4.875 -9.796875 C 5.019531 -9.484375 5.257812 -9.066406 5.59375 -8.546875 L 6.890625 -6.546875 C 7.222656 -6.046875 7.492188 -5.503906 7.703125 -4.921875 C 7.910156 -4.335938 8.015625 -3.800781 8.015625 -3.3125 C 8.015625 -2.695312 7.835938 -2.109375 7.484375 -1.546875 C 7.140625 -0.984375 6.679688 -0.523438 6.109375 -0.171875 C 5.535156 0.171875 4.929688 0.34375 4.296875 0.34375 C 3.941406 0.34375 3.640625 0.300781 3.390625 0.21875 C 3.148438 0.144531 2.890625 0.0351562 2.609375 -0.109375 C 2.578125 -0.128906 2.488281 -0.171875 2.34375 -0.234375 C 2.207031 -0.304688 2.082031 -0.34375 1.96875 -0.34375 C 1.78125 -0.34375 1.625 -0.289062 1.5 -0.1875 C 1.382812 -0.0820312 1.257812 0.09375 1.125 0.34375 L 0.640625 0.34375 L 1.34375 -4.109375 L 1.828125 -4.109375 L 1.828125 -3.796875 C 1.828125 -2.710938 2.066406 -1.851562 2.546875 -1.21875 C 3.023438 -0.59375 3.59375 -0.28125 4.25 -0.28125 C 4.75 -0.28125 5.179688 -0.476562 5.546875 -0.875 C 5.910156 -1.269531 6.09375 -1.753906 6.09375 -2.328125 C 6.09375 -2.722656 6.019531 -3.109375 5.875 -3.484375 C 5.738281 -3.859375 5.53125 -4.28125 5.25 -4.75 L 3.984375 -6.78125 C 3.316406 -7.863281 2.984375 -8.863281 2.984375 -9.78125 C 2.984375 -10.625 3.25 -11.332031 3.78125 -11.90625 C 4.3125 -12.476562 4.972656 -12.765625 5.765625 -12.765625 Z M 5.765625 -12.765625 "/></g></g></g><g fill="#ffffff" fill-opacity="1"><g transform="translate(8.072982, 20.040275)"><g><path d="M 5.953125 -18.328125 C 6.347656 -18.328125 6.679688 -18.191406 6.953125 -17.921875 C 7.222656 -17.648438 7.359375 -17.316406 7.359375 -16.921875 C 7.359375 -16.523438 7.222656 -16.191406 6.953125 -15.921875 C 6.679688 -15.648438 6.347656 -15.515625 5.953125 -15.515625 C 5.566406 -15.515625 5.234375 -15.648438 4.953125 -15.921875 C 4.679688 -16.191406 4.546875 -16.523438 4.546875 -16.921875 C 4.546875 -17.316406 4.679688 -17.648438 4.953125 -17.921875 C 5.234375 -18.191406 5.566406 -18.328125 5.953125 -18.328125 Z M 6.125 -12.765625 L 3.796875 -2.609375 C 3.660156 -2.085938 3.59375 -1.769531 3.59375 -1.65625 C 3.59375 -1.488281 3.625 -1.367188 3.6875 -1.296875 C 3.757812 -1.222656 3.832031 -1.1875 3.90625 -1.1875 C 4.070312 -1.1875 4.335938 -1.359375 4.703125 -1.703125 C 5.066406 -2.046875 5.4375 -2.476562 5.8125 -3 L 6.21875 -2.75 C 5.5625 -1.851562 4.90625 -1.113281 4.25 -0.53125 C 3.601562 0.0507812 3.03125 0.34375 2.53125 0.34375 C 2.195312 0.34375 1.9375 0.226562 1.75 0 C 1.5625 -0.226562 1.46875 -0.53125 1.46875 -0.90625 C 1.46875 -1.332031 1.539062 -1.851562 1.6875 -2.46875 C 1.832031 -3.09375 1.90625 -3.421875 1.90625 -3.453125 L 3.09375 -8.65625 C 3.21875 -9.164062 3.3125 -9.585938 3.375 -9.921875 C 3.445312 -10.253906 3.484375 -10.515625 3.484375 -10.703125 C 3.484375 -11.285156 3.191406 -11.578125 2.609375 -11.578125 C 2.515625 -11.578125 2.242188 -11.550781 1.796875 -11.5 L 1.90625 -11.953125 L 5.671875 -12.765625 Z M 6.125 -12.765625 "/></g></g></g><g fill="#ffffff" fill-opacity="1"><g transform="translate(13.074989, 20.040275)"><g><path d="M 4.265625 -6.296875 L 4.328125 -6.234375 C 6.628906 -10.585938 8.578125 -12.765625 10.171875 -12.765625 C 10.585938 -12.765625 10.921875 -12.613281 11.171875 -12.3125 C 11.421875 -12.007812 11.546875 -11.609375 11.546875 -11.109375 C 11.546875 -10.503906 11.378906 -9.484375 11.046875 -8.046875 L 10.140625 -4.1875 C 10.046875 -3.738281 9.960938 -3.382812 9.890625 -3.125 C 9.703125 -2.300781 9.609375 -1.785156 9.609375 -1.578125 C 9.609375 -1.296875 9.703125 -1.15625 9.890625 -1.15625 C 10.054688 -1.15625 10.257812 -1.28125 10.5 -1.53125 C 10.75 -1.78125 11.097656 -2.242188 11.546875 -2.921875 L 11.890625 -2.640625 C 11.140625 -1.585938 10.503906 -0.828125 9.984375 -0.359375 C 9.472656 0.109375 8.972656 0.34375 8.484375 0.34375 C 8.128906 0.34375 7.859375 0.226562 7.671875 0 C 7.484375 -0.238281 7.390625 -0.53125 7.390625 -0.875 C 7.390625 -1.207031 7.472656 -1.710938 7.640625 -2.390625 L 9.109375 -8.65625 C 9.179688 -8.894531 9.242188 -9.179688 9.296875 -9.515625 C 9.359375 -9.859375 9.390625 -10.109375 9.390625 -10.265625 C 9.390625 -10.484375 9.335938 -10.660156 9.234375 -10.796875 C 9.128906 -10.941406 9.003906 -11.015625 8.859375 -11.015625 C 8.515625 -11.015625 8.078125 -10.738281 7.546875 -10.1875 C 7.015625 -9.632812 6.4375 -8.863281 5.8125 -7.875 C 5.15625 -6.800781 4.585938 -5.660156 4.109375 -4.453125 C 3.640625 -3.242188 3.21875 -1.757812 2.84375 0 L 0.765625 0 L 2.953125 -9.53125 C 3.097656 -10.21875 3.171875 -10.648438 3.171875 -10.828125 C 3.171875 -11.160156 3.054688 -11.382812 2.828125 -11.5 C 2.609375 -11.625 2.300781 -11.6875 1.90625 -11.6875 L 2.03125 -12.140625 L 5.3125 -12.765625 L 5.796875 -12.765625 Z M 4.265625 -6.296875 "/></g></g></g><g fill="#ffffff" fill-opacity="1"><g transform="translate(23.641532, 20.040275)"><g><path d="M 7.28125 -12.765625 C 7.894531 -12.765625 8.40625 -12.566406 8.8125 -12.171875 C 9.21875 -11.773438 9.421875 -11.25 9.421875 -10.59375 C 9.421875 -10.050781 9.28125 -9.609375 9 -9.265625 C 8.726562 -8.929688 8.390625 -8.765625 7.984375 -8.765625 C 7.703125 -8.765625 7.46875 -8.851562 7.28125 -9.03125 C 7.09375 -9.207031 7 -9.4375 7 -9.71875 C 7 -9.96875 7.039062 -10.148438 7.125 -10.265625 C 7.207031 -10.390625 7.34375 -10.535156 7.53125 -10.703125 C 7.695312 -10.835938 7.8125 -10.953125 7.875 -11.046875 C 7.945312 -11.140625 7.984375 -11.269531 7.984375 -11.4375 C 7.984375 -11.625 7.898438 -11.785156 7.734375 -11.921875 C 7.566406 -12.066406 7.359375 -12.140625 7.109375 -12.140625 C 6.472656 -12.140625 5.84375 -11.757812 5.21875 -11 C 4.601562 -10.238281 4.101562 -9.253906 3.71875 -8.046875 C 3.332031 -6.835938 3.140625 -5.597656 3.140625 -4.328125 C 3.140625 -3.078125 3.3125 -2.171875 3.65625 -1.609375 C 4.007812 -1.046875 4.441406 -0.765625 4.953125 -0.765625 C 5.890625 -0.765625 6.878906 -1.550781 7.921875 -3.125 L 8.296875 -2.84375 C 7.671875 -1.84375 6.972656 -1.0625 6.203125 -0.5 C 5.441406 0.0625 4.675781 0.34375 3.90625 0.34375 C 3.007812 0.34375 2.273438 -0.015625 1.703125 -0.734375 C 1.128906 -1.460938 0.84375 -2.414062 0.84375 -3.59375 C 0.84375 -5.1875 1.1875 -6.6875 1.875 -8.09375 C 2.570312 -9.5 3.425781 -10.628906 4.4375 -11.484375 C 5.445312 -12.335938 6.394531 -12.765625 7.28125 -12.765625 Z M 7.28125 -12.765625 "/></g></g></g><g fill="#ffffff" fill-opacity="1"><g transform="translate(31.285285, 20.040275)"><g><path d="M 7.640625 -12.765625 C 8.273438 -12.765625 8.796875 -12.582031 9.203125 -12.21875 C 9.609375 -11.851562 9.8125 -11.378906 9.8125 -10.796875 C 9.8125 -10.191406 9.585938 -9.535156 9.140625 -8.828125 C 8.703125 -8.117188 8.015625 -7.460938 7.078125 -6.859375 C 6.140625 -6.253906 4.988281 -5.820312 3.625 -5.5625 C 3.570312 -4.832031 3.546875 -4.375 3.546875 -4.1875 C 3.546875 -3.226562 3.691406 -2.460938 3.984375 -1.890625 C 4.285156 -1.328125 4.691406 -1.046875 5.203125 -1.046875 C 5.703125 -1.046875 6.191406 -1.210938 6.671875 -1.546875 C 7.148438 -1.878906 7.632812 -2.300781 8.125 -2.8125 L 8.484375 -2.5 C 7.453125 -1.4375 6.632812 -0.695312 6.03125 -0.28125 C 5.4375 0.132812 4.785156 0.34375 4.078125 0.34375 C 3.191406 0.34375 2.5 -0.00390625 2 -0.703125 C 1.507812 -1.410156 1.265625 -2.363281 1.265625 -3.5625 C 1.265625 -4.769531 1.5625 -6.101562 2.15625 -7.5625 C 2.757812 -9.019531 3.546875 -10.25 4.515625 -11.25 C 5.492188 -12.257812 6.535156 -12.765625 7.640625 -12.765625 Z M 3.765625 -6.15625 C 4.648438 -6.320312 5.410156 -6.679688 6.046875 -7.234375 C 6.679688 -7.785156 7.148438 -8.40625 7.453125 -9.09375 C 7.765625 -9.789062 7.921875 -10.453125 7.921875 -11.078125 C 7.921875 -11.390625 7.851562 -11.644531 7.71875 -11.84375 C 7.59375 -12.039062 7.390625 -12.140625 7.109375 -12.140625 C 6.378906 -12.140625 5.707031 -11.492188 5.09375 -10.203125 C 4.488281 -8.910156 4.046875 -7.5625 3.765625 -6.15625 Z M 3.765625 -6.15625 "/></g></g></g><g fill="#ffffff" fill-opacity="1"><g transform="translate(38.929038, 20.040275)"><g/></g></g><g clip-path="url(#3a8b7f4d80)"><g fill="#ffffff" fill-opacity="1"><g transform="translate(42.244823, 20.040275)"><g><path d="M 7.671875 -19.28125 C 8.796875 -19.28125 9.738281 -18.878906 10.5 -18.078125 C 11.257812 -17.285156 11.640625 -16.28125 11.640625 -15.0625 C 11.640625 -14.050781 11.378906 -13.0625 10.859375 -12.09375 C 10.347656 -11.132812 9.578125 -10 8.546875 -8.6875 C 7.609375 -7.445312 6.59375 -6.222656 5.5 -5.015625 C 4.414062 -3.804688 3.460938 -2.800781 2.640625 -2 L 7.5625 -2 C 7.914062 -2 8.195312 -2.054688 8.40625 -2.171875 C 8.613281 -2.296875 8.78125 -2.460938 8.90625 -2.671875 C 9.039062 -2.878906 9.210938 -3.222656 9.421875 -3.703125 L 9.921875 -3.703125 L 8.578125 0 L -0.078125 0 L 0.03125 -0.484375 C 0.988281 -1.171875 2.210938 -2.378906 3.703125 -4.109375 C 5.523438 -6.179688 6.941406 -8 7.953125 -9.5625 C 8.960938 -11.132812 9.46875 -12.578125 9.46875 -13.890625 C 9.46875 -14.828125 9.160156 -15.613281 8.546875 -16.25 C 7.929688 -16.882812 7.179688 -17.203125 6.296875 -17.203125 C 5.679688 -17.203125 5.125 -17.039062 4.625 -16.71875 C 4.125 -16.40625 3.742188 -15.976562 3.484375 -15.4375 L 3.03125 -15.4375 C 3.382812 -16.613281 3.984375 -17.546875 4.828125 -18.234375 C 5.671875 -18.929688 6.617188 -19.28125 7.671875 -19.28125 Z M 7.671875 -19.28125 "/></g></g></g></g><g clip-path="url(#757dbffaab)"><g fill="#ffffff" fill-opacity="1"><g transform="translate(52.811366, 20.040275)"><g><path d="M 8.828125 -19.28125 C 9.554688 -19.28125 10.21875 -19.003906 10.8125 -18.453125 C 11.414062 -17.898438 11.890625 -17.113281 12.234375 -16.09375 C 12.585938 -15.070312 12.765625 -13.894531 12.765625 -12.5625 C 12.765625 -10.820312 12.4375 -8.929688 11.78125 -6.890625 C 11.125 -4.847656 10.21875 -3.117188 9.0625 -1.703125 C 7.914062 -0.285156 6.628906 0.421875 5.203125 0.421875 C 4.453125 0.421875 3.773438 0.148438 3.171875 -0.390625 C 2.578125 -0.929688 2.109375 -1.695312 1.765625 -2.6875 C 1.429688 -3.6875 1.265625 -4.832031 1.265625 -6.125 C 1.265625 -7.863281 1.582031 -9.769531 2.21875 -11.84375 C 2.851562 -13.914062 3.75 -15.671875 4.90625 -17.109375 C 6.0625 -18.554688 7.367188 -19.28125 8.828125 -19.28125 Z M 6.15625 -16.421875 C 5.59375 -15.210938 5.101562 -13.734375 4.6875 -11.984375 C 4.28125 -10.234375 3.96875 -8.5625 3.75 -6.96875 C 3.53125 -5.375 3.421875 -4.238281 3.421875 -3.5625 C 3.421875 -1.332031 4.0625 -0.21875 5.34375 -0.21875 C 5.789062 -0.21875 6.222656 -0.363281 6.640625 -0.65625 C 7.066406 -0.945312 7.398438 -1.347656 7.640625 -1.859375 C 8.242188 -3.085938 8.769531 -4.628906 9.21875 -6.484375 C 9.664062 -8.347656 10.003906 -10.132812 10.234375 -11.84375 C 10.472656 -13.5625 10.59375 -14.785156 10.59375 -15.515625 C 10.59375 -16.453125 10.425781 -17.207031 10.09375 -17.78125 C 9.769531 -18.351562 9.289062 -18.640625 8.65625 -18.640625 C 8.113281 -18.640625 7.644531 -18.453125 7.25 -18.078125 C 6.851562 -17.703125 6.488281 -17.148438 6.15625 -16.421875 Z M 6.15625 -16.421875 "/></g></g></g></g><g clip-path="url(#1687bdc1d7)"><g fill="#ffffff" fill-opacity="1"><g transform="translate(63.377909, 20.040275)"><g><path d="M 7.671875 -19.28125 C 8.796875 -19.28125 9.738281 -18.878906 10.5 -18.078125 C 11.257812 -17.285156 11.640625 -16.28125 11.640625 -15.0625 C 11.640625 -14.050781 11.378906 -13.0625 10.859375 -12.09375 C 10.347656 -11.132812 9.578125 -10 8.546875 -8.6875 C 7.609375 -7.445312 6.59375 -6.222656 5.5 -5.015625 C 4.414062 -3.804688 3.460938 -2.800781 2.640625 -2 L 7.5625 -2 C 7.914062 -2 8.195312 -2.054688 8.40625 -2.171875 C 8.613281 -2.296875 8.78125 -2.460938 8.90625 -2.671875 C 9.039062 -2.878906 9.210938 -3.222656 9.421875 -3.703125 L 9.921875 -3.703125 L 8.578125 0 L -0.078125 0 L 0.03125 -0.484375 C 0.988281 -1.171875 2.210938 -2.378906 3.703125 -4.109375 C 5.523438 -6.179688 6.941406 -8 7.953125 -9.5625 C 8.960938 -11.132812 9.46875 -12.578125 9.46875 -13.890625 C 9.46875 -14.828125 9.160156 -15.613281 8.546875 -16.25 C 7.929688 -16.882812 7.179688 -17.203125 6.296875 -17.203125 C 5.679688 -17.203125 5.125 -17.039062 4.625 -16.71875 C 4.125 -16.40625 3.742188 -15.976562 3.484375 -15.4375 L 3.03125 -15.4375 C 3.382812 -16.613281 3.984375 -17.546875 4.828125 -18.234375 C 5.671875 -18.929688 6.617188 -19.28125 7.671875 -19.28125 Z M 7.671875 -19.28125 "/></g></g></g></g><g clip-path="url(#bef7738cdd)"><g fill="#ffffff" fill-opacity="1"><g transform="translate(73.944452, 20.040275)"><g><path d="M 10.375 -19.28125 L 6.578125 -2.8125 C 6.460938 -2.289062 6.40625 -1.894531 6.40625 -1.625 C 6.40625 -1.21875 6.539062 -0.925781 6.8125 -0.75 C 7.082031 -0.570312 7.507812 -0.484375 8.09375 -0.484375 L 7.984375 0 L 1.890625 0 L 2 -0.484375 C 2.6875 -0.554688 3.195312 -0.773438 3.53125 -1.140625 C 3.875 -1.503906 4.160156 -2.15625 4.390625 -3.09375 L 7.109375 -14.921875 C 7.273438 -15.597656 7.359375 -16.097656 7.359375 -16.421875 C 7.359375 -16.679688 7.269531 -16.921875 7.09375 -17.140625 C 6.914062 -17.367188 6.6875 -17.484375 6.40625 -17.484375 C 6.1875 -17.484375 5.867188 -17.410156 5.453125 -17.265625 L 5.28125 -17.703125 L 9.921875 -19.28125 Z M 10.375 -19.28125 "/></g></g></g></g></g></g></svg>