<svg xmlns="http://www.w3.org/2000/svg" xmlns:xlink="http://www.w3.org/1999/xlink" width="500" zoomAndPan="magnify" viewBox="0 0 375 374.999991" height="500" preserveAspectRatio="xMidYMid meet" version="1.0"><defs><g/><clipPath id="84323df179"><rect x="0" width="234" y="0" height="208"/></clipPath><clipPath id="fe3a59005e"><rect x="0" width="130" y="0" height="208"/></clipPath></defs><g transform="matrix(1, 0, 0, 1, 14, 75)"><g clip-path="url(#84323df179)"><g fill="#ffffff" fill-opacity="1"><g transform="translate(0.875853, 149.068715)"><g><path d="M 72.421875 1.5625 C 67.097656 1.5625 62.234375 0.390625 57.828125 -1.953125 C 53.429688 -4.304688 49.945312 -7.578125 47.375 -11.765625 C 44.8125 -15.953125 43.53125 -20.921875 43.53125 -26.671875 L 43.53125 -66.53125 C 43.53125 -67.925781 43.179688 -69.191406 42.484375 -70.328125 C 41.785156 -71.460938 40.867188 -72.378906 39.734375 -73.078125 C 38.609375 -73.773438 37.347656 -74.125 35.953125 -74.125 C 34.554688 -74.125 33.289062 -73.773438 32.15625 -73.078125 C 31.019531 -72.378906 30.125 -71.460938 29.46875 -70.328125 C 28.820312 -69.191406 28.5 -67.925781 28.5 -66.53125 L 28.5 0 L 7.0625 0 L 7.0625 -64.96875 C 7.0625 -70.457031 8.300781 -75.289062 10.78125 -79.46875 C 13.269531 -83.65625 16.710938 -86.96875 21.109375 -89.40625 C 25.515625 -91.851562 30.460938 -93.078125 35.953125 -93.078125 C 41.523438 -93.078125 46.488281 -91.851562 50.84375 -89.40625 C 55.207031 -86.96875 58.648438 -83.65625 61.171875 -79.46875 C 63.703125 -75.289062 64.96875 -70.457031 64.96875 -64.96875 L 64.96875 -25.09375 C 64.96875 -23.613281 65.316406 -22.304688 66.015625 -21.171875 C 66.710938 -20.046875 67.601562 -19.15625 68.6875 -18.5 C 69.78125 -17.84375 70.976562 -17.515625 72.28125 -17.515625 C 73.675781 -17.515625 74.960938 -17.84375 76.140625 -18.5 C 77.316406 -19.15625 78.253906 -20.046875 78.953125 -21.171875 C 79.648438 -22.304688 80 -23.613281 80 -25.09375 L 80 -64.96875 C 80 -70.457031 81.257812 -75.289062 83.78125 -79.46875 C 86.3125 -83.65625 89.773438 -86.96875 94.171875 -89.40625 C 98.578125 -91.851562 103.484375 -93.078125 108.890625 -93.078125 C 114.460938 -93.078125 119.40625 -91.851562 123.71875 -89.40625 C 128.039062 -86.96875 131.460938 -83.65625 133.984375 -79.46875 C 136.515625 -75.289062 137.78125 -70.457031 137.78125 -64.96875 L 137.78125 0 L 116.34375 0 L 116.34375 -66.671875 C 116.34375 -68.066406 116.015625 -69.304688 115.359375 -70.390625 C 114.703125 -71.484375 113.804688 -72.378906 112.671875 -73.078125 C 111.546875 -73.773438 110.285156 -74.125 108.890625 -74.125 C 107.578125 -74.125 106.332031 -73.773438 105.15625 -73.078125 C 103.988281 -72.378906 103.054688 -71.484375 102.359375 -70.390625 C 101.660156 -69.304688 101.3125 -68.066406 101.3125 -66.671875 L 101.3125 -26.671875 C 101.3125 -20.921875 100.003906 -15.953125 97.390625 -11.765625 C 94.773438 -7.578125 91.285156 -4.304688 86.921875 -1.953125 C 82.566406 0.390625 77.734375 1.5625 72.421875 1.5625 Z M 72.421875 1.5625 "/></g></g></g><g fill="#ffffff" fill-opacity="1"><g transform="translate(134.974933, 149.068715)"><g><path d="M 0 0 L 29.671875 -80.921875 C 31.148438 -84.921875 33.585938 -87.945312 36.984375 -90 C 40.390625 -92.050781 44.226562 -93.078125 48.5 -93.078125 C 52.769531 -93.078125 56.601562 -92.09375 60 -90.125 C 63.394531 -88.164062 65.832031 -85.140625 67.3125 -81.046875 L 97.125 0 L 73.46875 0 L 67.71875 -17.640625 L 28.890625 -17.640625 L 22.875 0 Z M 34.515625 -35.8125 L 62.09375 -35.8125 L 50.453125 -72.28125 C 50.285156 -72.8125 50.046875 -73.179688 49.734375 -73.390625 C 49.429688 -73.609375 49.0625 -73.71875 48.625 -73.71875 C 48.1875 -73.71875 47.816406 -73.585938 47.515625 -73.328125 C 47.210938 -73.066406 47.015625 -72.71875 46.921875 -72.28125 Z M 34.515625 -35.8125 "/></g></g></g></g></g><g transform="matrix(1, 0, 0, 1, 230, 75)"><g clip-path="url(#fe3a59005e)"><g fill="#ffffff" fill-opacity="1"><g transform="translate(1.335104, 148.62267)"><g><path d="M 73.859375 28.5 C 68.453125 28.5 63.832031 27.539062 60 25.625 C 56.164062 23.707031 53.242188 21.003906 51.234375 17.515625 C 49.234375 14.023438 48.234375 9.972656 48.234375 5.359375 C 48.234375 4.398438 48.253906 3.421875 48.296875 2.421875 C 48.335938 1.421875 48.445312 0.351562 48.625 -0.78125 C 41.914062 -0.875 35.816406 -2.140625 30.328125 -4.578125 C 24.835938 -7.015625 20.109375 -10.320312 16.140625 -14.5 C 12.179688 -18.6875 9.132812 -23.546875 7 -29.078125 C 4.863281 -34.617188 3.796875 -40.523438 3.796875 -46.796875 C 3.796875 -53.242188 4.90625 -59.253906 7.125 -64.828125 C 9.34375 -70.410156 12.519531 -75.3125 16.65625 -79.53125 C 20.800781 -83.757812 25.789062 -87.070312 31.625 -89.46875 C 37.46875 -91.875 43.960938 -93.078125 51.109375 -93.078125 C 58.253906 -93.078125 64.742188 -91.941406 70.578125 -89.671875 C 76.421875 -87.410156 81.429688 -84.1875 85.609375 -80 C 89.796875 -75.8125 93 -70.972656 95.21875 -65.484375 C 97.445312 -59.992188 98.5625 -54.023438 98.5625 -47.578125 L 98.5625 2.75 C 98.5625 7.363281 97.664062 11.628906 95.875 15.546875 C 94.09375 19.472656 91.367188 22.613281 87.703125 24.96875 C 84.046875 27.320312 79.429688 28.5 73.859375 28.5 Z M 72.671875 9.796875 C 74.328125 9.796875 75.613281 9.117188 76.53125 7.765625 C 77.445312 6.421875 77.90625 4.660156 77.90625 2.484375 L 77.90625 -18.828125 C 76.070312 -17.253906 74.476562 -15.640625 73.125 -13.984375 C 71.78125 -12.328125 70.71875 -10.601562 69.9375 -8.8125 C 69.15625 -7.03125 68.566406 -5.203125 68.171875 -3.328125 C 67.773438 -1.453125 67.578125 0.484375 67.578125 2.484375 C 67.578125 4.054688 67.796875 5.382812 68.234375 6.46875 C 68.671875 7.5625 69.300781 8.390625 70.125 8.953125 C 70.957031 9.515625 71.804688 9.796875 72.671875 9.796875 Z M 50.328125 -19.34375 C 51.285156 -19.34375 52.175781 -19.382812 53 -19.46875 C 53.832031 -19.5625 54.6875 -19.695312 55.5625 -19.875 C 57.125 -22.226562 58.953125 -24.554688 61.046875 -26.859375 C 63.140625 -29.171875 65.492188 -31.414062 68.109375 -33.59375 C 70.722656 -35.769531 73.597656 -37.816406 76.734375 -39.734375 L 76.734375 -48.234375 C 76.734375 -51.984375 76.097656 -55.46875 74.828125 -58.6875 C 73.566406 -61.914062 71.78125 -64.707031 69.46875 -67.0625 C 67.164062 -69.414062 64.46875 -71.242188 61.375 -72.546875 C 58.28125 -73.859375 54.898438 -74.515625 51.234375 -74.515625 C 47.578125 -74.515625 44.203125 -73.835938 41.109375 -72.484375 C 38.015625 -71.128906 35.3125 -69.1875 33 -66.65625 C 30.695312 -64.132812 28.910156 -61.195312 27.640625 -57.84375 C 26.378906 -54.488281 25.75 -50.847656 25.75 -46.921875 C 25.75 -43.003906 26.335938 -39.390625 27.515625 -36.078125 C 28.691406 -32.765625 30.390625 -29.863281 32.609375 -27.375 C 34.835938 -24.894531 37.453125 -22.957031 40.453125 -21.5625 C 43.460938 -20.175781 46.753906 -19.4375 50.328125 -19.34375 Z M 50.328125 -19.34375 "/></g></g></g><g fill="#ffffff" fill-opacity="1"><g transform="translate(84.850477, 148.62267)"><g/></g></g><g fill="#ffffff" fill-opacity="1"><g transform="translate(98.439866, 148.62267)"><g><path d="M 17.515625 1.5625 C 14.023438 1.5625 11.039062 0.320312 8.5625 -2.15625 C 6.082031 -4.632812 4.84375 -7.578125 4.84375 -10.984375 C 4.84375 -14.460938 6.082031 -17.441406 8.5625 -19.921875 C 11.039062 -22.410156 14.023438 -23.65625 17.515625 -23.65625 C 20.910156 -23.65625 23.847656 -22.410156 26.328125 -19.921875 C 28.816406 -17.441406 30.0625 -14.460938 30.0625 -10.984375 C 30.0625 -8.710938 29.492188 -6.617188 28.359375 -4.703125 C 27.234375 -2.785156 25.734375 -1.257812 23.859375 -0.125 C 21.984375 1 19.867188 1.5625 17.515625 1.5625 Z M 17.515625 1.5625 "/></g></g></g></g></g></svg>