<svg xmlns="http://www.w3.org/2000/svg" xmlns:xlink="http://www.w3.org/1999/xlink" width="500" zoomAndPan="magnify" viewBox="0 0 375 374.999991" height="500" preserveAspectRatio="xMidYMid meet" version="1.0"><defs><g/><clipPath id="faf1ffb12d"><rect x="0" width="199" y="0" height="292"/></clipPath><clipPath id="cdecce5866"><rect x="0" width="95" y="0" height="121"/></clipPath></defs><g transform="matrix(1, 0, 0, 1, 85, 33)"><g clip-path="url(#faf1ffb12d)"><g fill="#ffffff" fill-opacity="1"><g transform="translate(0.581334, 218.231676)"><g><path d="M 122.40625 -31.40625 C 129.769531 -29.65625 136.3125 -26.359375 142.03125 -21.515625 C 147.75 -16.671875 152.300781 -10.757812 155.6875 -3.78125 C 159.082031 3.195312 160.78125 10.757812 160.78125 18.90625 C 160.78125 28.394531 158.550781 37.015625 154.09375 44.765625 C 149.632812 52.523438 143.722656 58.726562 136.359375 63.375 C 128.992188 68.03125 120.851562 70.359375 111.9375 70.359375 C 104.570312 70.359375 97.59375 68.851562 91 65.84375 C 84.414062 62.84375 79.132812 58.820312 75.15625 53.78125 C 71.1875 48.75 69.203125 43.320312 69.203125 37.5 C 69.203125 31.300781 71.429688 25.972656 75.890625 21.515625 C 80.347656 17.054688 85.675781 14.828125 91.875 14.828125 C 98.082031 14.828125 103.363281 17.054688 107.71875 21.515625 C 112.082031 25.972656 114.265625 31.300781 114.265625 37.5 C 114.265625 43.894531 112.132812 49.226562 107.875 53.5 C 106.507812 54.851562 105.34375 56.304688 104.375 57.859375 C 103.40625 59.410156 102.921875 60.960938 102.921875 62.515625 C 102.921875 66.578125 105.925781 68.609375 111.9375 68.609375 C 120.65625 68.609375 128.550781 66.378906 135.625 61.921875 C 142.707031 57.472656 148.378906 51.46875 152.640625 43.90625 C 156.910156 36.34375 159.046875 28.007812 159.046875 18.90625 C 159.046875 11.925781 157.445312 5.625 154.25 0 C 151.050781 -5.625 146.785156 -10.082031 141.453125 -13.375 C 136.117188 -16.664062 130.15625 -18.3125 123.5625 -18.3125 C 116.78125 -18.3125 110.625 -16.519531 105.09375 -12.9375 C 99.570312 -9.351562 94.390625 -4.992188 89.546875 0.140625 C 84.703125 5.273438 79.859375 10.457031 75.015625 15.6875 C 70.171875 20.925781 64.9375 25.335938 59.3125 28.921875 C 53.6875 32.515625 47.289062 34.3125 40.125 34.3125 C 33.34375 34.3125 27.09375 32.566406 21.375 29.078125 C 15.65625 25.585938 11.144531 20.835938 7.84375 14.828125 C 4.550781 8.816406 2.90625 2.226562 2.90625 -4.9375 C 2.90625 -13.851562 5.425781 -21.75 10.46875 -28.625 C 15.507812 -35.507812 21.90625 -40.117188 29.65625 -42.453125 C 25.195312 -47.878906 21.707031 -53.9375 19.1875 -60.625 C 16.664062 -67.3125 15.40625 -74.335938 15.40625 -81.703125 C 15.40625 -93.523438 18.410156 -104.28125 24.421875 -113.96875 C 30.429688 -123.664062 38.425781 -131.375 48.40625 -137.09375 C 58.394531 -142.8125 69.492188 -145.671875 81.703125 -145.671875 C 91.585938 -145.671875 100.890625 -143.726562 109.609375 -139.84375 C 104.765625 -144.300781 99.921875 -150.113281 95.078125 -157.28125 C 90.234375 -164.457031 87.8125 -172.3125 87.8125 -180.84375 C 87.8125 -187.050781 90.039062 -192.382812 94.5 -196.84375 C 98.957031 -201.300781 104.285156 -203.53125 110.484375 -203.53125 C 116.679688 -203.53125 121.960938 -201.300781 126.328125 -196.84375 C 130.691406 -192.382812 132.875 -187.050781 132.875 -180.84375 C 132.875 -176 131.46875 -171.734375 128.65625 -168.046875 C 125.84375 -164.367188 122.304688 -161.5625 118.046875 -159.625 C 111.453125 -156.90625 108.15625 -153.222656 108.15625 -148.578125 C 108.15625 -146.054688 109.171875 -143.628906 111.203125 -141.296875 C 113.242188 -138.972656 115.71875 -136.84375 118.625 -134.90625 C 127.738281 -129.09375 134.910156 -121.582031 140.140625 -112.375 C 145.367188 -103.164062 147.984375 -92.941406 147.984375 -81.703125 C 147.984375 -71.617188 145.707031 -62.164062 141.15625 -53.34375 C 136.601562 -44.53125 130.351562 -37.21875 122.40625 -31.40625 Z M 81.703125 -143.921875 C 66.773438 -143.921875 59.3125 -123.179688 59.3125 -81.703125 C 59.3125 -45.265625 65.128906 -24.816406 76.765625 -20.359375 C 80.054688 -22.296875 83.300781 -24.035156 86.5 -25.578125 C 89.695312 -27.128906 92.847656 -28.488281 95.953125 -29.65625 C 101.566406 -39.738281 104.375 -57.085938 104.375 -81.703125 C 104.375 -123.179688 96.816406 -143.921875 81.703125 -143.921875 Z M 20.9375 -24.71875 C 20.9375 -19.476562 22.820312 -14.96875 26.59375 -11.1875 C 30.375 -7.414062 34.882812 -5.53125 40.125 -5.53125 C 45.550781 -5.53125 50.976562 -6.882812 56.40625 -9.59375 C 61.832031 -12.3125 67.453125 -15.21875 73.265625 -18.3125 C 64.734375 -19.476562 56.785156 -22.09375 49.421875 -26.15625 C 42.054688 -30.226562 35.757812 -35.269531 30.53125 -41.28125 C 24.132812 -37.40625 20.9375 -31.882812 20.9375 -24.71875 Z M 20.9375 -24.71875 "/></g></g></g><g fill="#ffffff" fill-opacity="1"><g transform="translate(147.699001, 218.231676)"><g><path d="M 28.203125 1.453125 C 23.160156 1.453125 18.894531 -0.289062 15.40625 -3.78125 C 11.914062 -7.269531 10.171875 -11.535156 10.171875 -16.578125 C 10.171875 -21.609375 11.914062 -25.914062 15.40625 -29.5 C 18.894531 -33.09375 23.160156 -34.890625 28.203125 -34.890625 C 33.242188 -34.890625 37.554688 -33.09375 41.140625 -29.5 C 44.722656 -25.914062 46.515625 -21.609375 46.515625 -16.578125 C 46.515625 -11.535156 44.722656 -7.269531 41.140625 -3.78125 C 37.554688 -0.289062 33.242188 1.453125 28.203125 1.453125 Z M 28.203125 1.453125 "/></g></g></g></g></g><g transform="matrix(1, 0, 0, 1, 207, 71)"><g clip-path="url(#cdecce5866)"><g fill="#ffffff" fill-opacity="1"><g transform="translate(6.589978, 35.15007)"><g><path d="M 5.921875 -1.640625 C 4.921875 -1.328125 3.945312 -1.265625 3 -1.453125 C 2.0625 -1.640625 1.238281 -2.046875 0.53125 -2.671875 C -0.164062 -3.304688 -0.664062 -4.109375 -0.96875 -5.078125 C -1.269531 -6.054688 -1.304688 -7 -1.078125 -7.90625 C -0.847656 -8.820312 -0.394531 -9.625 0.28125 -10.3125 C 0.957031 -11 1.800781 -11.5 2.8125 -11.8125 C 3.664062 -12.070312 4.476562 -12.160156 5.25 -12.078125 C 6.03125 -11.992188 6.742188 -11.738281 7.390625 -11.3125 L 6.34375 -9.515625 C 5.445312 -10.078125 4.503906 -10.207031 3.515625 -9.90625 C 2.910156 -9.71875 2.410156 -9.414062 2.015625 -9 C 1.617188 -8.582031 1.359375 -8.097656 1.234375 -7.546875 C 1.117188 -6.992188 1.15625 -6.40625 1.34375 -5.78125 C 1.53125 -5.175781 1.828125 -4.675781 2.234375 -4.28125 C 2.648438 -3.882812 3.140625 -3.628906 3.703125 -3.515625 C 4.265625 -3.398438 4.847656 -3.4375 5.453125 -3.625 C 6.441406 -3.925781 7.144531 -4.566406 7.5625 -5.546875 L 9.453125 -4.640625 C 9.160156 -3.929688 8.710938 -3.316406 8.109375 -2.796875 C 7.503906 -2.285156 6.773438 -1.898438 5.921875 -1.640625 Z M 5.921875 -1.640625 "/></g></g></g><g fill="#ffffff" fill-opacity="1"><g transform="translate(21.218314, 31.389393)"><g><path d="M 6.15625 0.796875 C 5.101562 0.691406 4.171875 0.367188 3.359375 -0.171875 C 2.546875 -0.722656 1.9375 -1.421875 1.53125 -2.265625 C 1.132812 -3.117188 0.988281 -4.046875 1.09375 -5.046875 C 1.195312 -6.054688 1.523438 -6.941406 2.078125 -7.703125 C 2.640625 -8.460938 3.375 -9.023438 4.28125 -9.390625 C 5.1875 -9.765625 6.164062 -9.898438 7.21875 -9.796875 C 8.28125 -9.691406 9.210938 -9.367188 10.015625 -8.828125 C 10.816406 -8.285156 11.421875 -7.582031 11.828125 -6.71875 C 12.242188 -5.863281 12.398438 -4.929688 12.296875 -3.921875 C 12.191406 -2.921875 11.851562 -2.046875 11.28125 -1.296875 C 10.71875 -0.546875 9.988281 0.015625 9.09375 0.390625 C 8.195312 0.765625 7.21875 0.898438 6.15625 0.796875 Z M 6.359375 -1.21875 C 6.960938 -1.15625 7.519531 -1.238281 8.03125 -1.46875 C 8.550781 -1.695312 8.972656 -2.046875 9.296875 -2.515625 C 9.628906 -2.992188 9.828125 -3.546875 9.890625 -4.171875 C 9.953125 -4.816406 9.867188 -5.398438 9.640625 -5.921875 C 9.421875 -6.441406 9.078125 -6.863281 8.609375 -7.1875 C 8.148438 -7.507812 7.617188 -7.703125 7.015625 -7.765625 C 6.410156 -7.828125 5.851562 -7.742188 5.34375 -7.515625 C 4.832031 -7.285156 4.410156 -6.9375 4.078125 -6.46875 C 3.742188 -6.007812 3.546875 -5.457031 3.484375 -4.8125 C 3.421875 -4.1875 3.503906 -3.609375 3.734375 -3.078125 C 3.960938 -2.546875 4.304688 -2.117188 4.765625 -1.796875 C 5.222656 -1.472656 5.753906 -1.28125 6.359375 -1.21875 Z M 6.359375 -1.21875 "/></g></g></g><g fill="#ffffff" fill-opacity="1"><g transform="translate(37.708109, 34.167211)"><g><path d="M 4 2.296875 C 3.269531 1.910156 2.617188 1.445312 2.046875 0.90625 C 1.484375 0.363281 1.078125 -0.175781 0.828125 -0.71875 L 2.390625 -1.921875 C 2.617188 -1.429688 2.957031 -0.957031 3.40625 -0.5 C 3.863281 -0.0390625 4.359375 0.328125 4.890625 0.609375 C 5.492188 0.921875 5.988281 1.0625 6.375 1.03125 C 6.757812 1 7.03125 0.835938 7.1875 0.546875 C 7.289062 0.328125 7.296875 0.101562 7.203125 -0.125 C 7.109375 -0.351562 6.945312 -0.582031 6.71875 -0.8125 C 6.488281 -1.039062 6.179688 -1.320312 5.796875 -1.65625 C 5.191406 -2.1875 4.710938 -2.648438 4.359375 -3.046875 C 4.003906 -3.441406 3.757812 -3.898438 3.625 -4.421875 C 3.5 -4.953125 3.597656 -5.523438 3.921875 -6.140625 C 4.191406 -6.660156 4.582031 -7.0625 5.09375 -7.34375 C 5.613281 -7.632812 6.226562 -7.753906 6.9375 -7.703125 C 7.644531 -7.648438 8.414062 -7.40625 9.25 -6.96875 C 9.832031 -6.664062 10.363281 -6.296875 10.84375 -5.859375 C 11.332031 -5.429688 11.71875 -4.976562 12 -4.5 L 10.5 -3.234375 C 9.894531 -4.160156 9.175781 -4.84375 8.34375 -5.28125 C 7.75 -5.59375 7.257812 -5.722656 6.875 -5.671875 C 6.5 -5.628906 6.226562 -5.453125 6.0625 -5.140625 C 5.90625 -4.835938 5.953125 -4.523438 6.203125 -4.203125 C 6.453125 -3.878906 6.867188 -3.46875 7.453125 -2.96875 C 8.054688 -2.4375 8.535156 -1.972656 8.890625 -1.578125 C 9.242188 -1.179688 9.484375 -0.71875 9.609375 -0.1875 C 9.742188 0.332031 9.65625 0.894531 9.34375 1.5 C 9.0625 2.03125 8.664062 2.429688 8.15625 2.703125 C 7.644531 2.972656 7.03125 3.082031 6.3125 3.03125 C 5.601562 2.976562 4.832031 2.734375 4 2.296875 Z M 4 2.296875 "/></g></g></g><g fill="#ffffff" fill-opacity="1"><g transform="translate(49.691336, 40.920945)"><g><path d="M 6.71875 8.203125 L 11.484375 4.28125 L 5.625 5.15625 L 4.9375 4.3125 L 6.859375 -1.15625 L 2.1875 2.671875 L 0.765625 0.9375 L 8.734375 -5.59375 L 9.984375 -4.0625 L 7.484375 2.984375 L 14.84375 1.859375 L 16.078125 3.375 L 8.125 9.921875 Z M 6.71875 8.203125 "/></g></g></g><g fill="#ffffff" fill-opacity="1"><g transform="translate(60.234685, 55.834577)"><g><path d="M 4.359375 8.296875 L 2.53125 8.828125 L 0.328125 1.171875 L 10.234375 -1.65625 L 12.390625 5.828125 L 10.53125 6.34375 L 9.03125 1.140625 L 6.890625 1.765625 L 8.203125 6.34375 L 6.421875 6.84375 L 5.109375 2.265625 L 2.8125 2.921875 Z M 4.359375 8.296875 "/></g></g></g><g fill="#ffffff" fill-opacity="1"><g transform="translate(63.34898, 69.78983)"><g><path d="M 8.09375 3.9375 L 8.328125 0.65625 L 10.265625 0.796875 L 9.625 9.75 L 7.6875 9.609375 L 7.921875 6.3125 L -0.40625 5.71875 L -0.234375 3.34375 Z M 8.09375 3.9375 "/></g></g></g><g fill="#ffffff" fill-opacity="1"><g transform="translate(61.401259, 83.325881)"><g><path d="M 9.1875 4.796875 L 8.34375 7.03125 L -1.28125 3.375 L -0.4375 1.140625 Z M 9.1875 4.796875 "/></g></g></g><g fill="#ffffff" fill-opacity="1"><g transform="translate(57.818247, 92.053133)"><g><path d="M -3.96875 4.6875 C -3.320312 3.875 -2.554688 3.273438 -1.671875 2.890625 C -0.785156 2.515625 0.125 2.390625 1.0625 2.515625 C 2 2.640625 2.863281 3.019531 3.65625 3.65625 C 4.457031 4.289062 5.019531 5.050781 5.34375 5.9375 C 5.675781 6.820312 5.753906 7.738281 5.578125 8.6875 C 5.410156 9.632812 5 10.519531 4.34375 11.34375 C 3.789062 12.039062 3.164062 12.570312 2.46875 12.9375 C 1.78125 13.300781 1.046875 13.492188 0.265625 13.515625 L 0.125 11.4375 C 1.1875 11.40625 2.035156 10.984375 2.671875 10.171875 C 3.066406 9.679688 3.3125 9.148438 3.40625 8.578125 C 3.5 8.015625 3.441406 7.46875 3.234375 6.9375 C 3.023438 6.40625 2.664062 5.9375 2.15625 5.53125 C 1.65625 5.132812 1.117188 4.890625 0.546875 4.796875 C -0.015625 4.710938 -0.554688 4.78125 -1.078125 5 C -1.609375 5.21875 -2.070312 5.570312 -2.46875 6.0625 C -3.101562 6.875 -3.320312 7.800781 -3.125 8.84375 L -5.1875 9.15625 C -5.34375 8.40625 -5.316406 7.644531 -5.109375 6.875 C -4.910156 6.113281 -4.53125 5.382812 -3.96875 4.6875 Z M -3.96875 4.6875 "/></g></g></g><g fill="#ffffff" fill-opacity="1"><g transform="translate(47.652091, 103.30238)"><g><path d="M -4.0625 2.203125 C -3.351562 1.785156 -2.613281 1.476562 -1.84375 1.28125 C -1.082031 1.082031 -0.410156 1.015625 0.171875 1.078125 L 0.390625 3.046875 C -0.148438 2.984375 -0.734375 3.023438 -1.359375 3.171875 C -1.992188 3.316406 -2.570312 3.539062 -3.09375 3.84375 C -3.675781 4.1875 -4.054688 4.523438 -4.234375 4.859375 C -4.410156 5.203125 -4.410156 5.519531 -4.234375 5.8125 C -4.117188 6.019531 -3.9375 6.140625 -3.6875 6.171875 C -3.4375 6.210938 -3.15625 6.203125 -2.84375 6.140625 C -2.53125 6.078125 -2.128906 5.960938 -1.640625 5.796875 C -0.878906 5.566406 -0.234375 5.40625 0.296875 5.3125 C 0.828125 5.21875 1.347656 5.253906 1.859375 5.421875 C 2.378906 5.597656 2.8125 5.976562 3.15625 6.5625 C 3.457031 7.070312 3.59375 7.617188 3.5625 8.203125 C 3.53125 8.796875 3.304688 9.378906 2.890625 9.953125 C 2.484375 10.523438 1.875 11.050781 1.0625 11.53125 C 0.5 11.863281 -0.09375 12.125 -0.71875 12.3125 C -1.34375 12.5 -1.929688 12.585938 -2.484375 12.578125 L -2.78125 10.640625 C -1.664062 10.617188 -0.703125 10.367188 0.109375 9.890625 C 0.679688 9.546875 1.046875 9.195312 1.203125 8.84375 C 1.367188 8.5 1.363281 8.171875 1.1875 7.859375 C 1.007812 7.566406 0.710938 7.441406 0.296875 7.484375 C -0.109375 7.523438 -0.675781 7.664062 -1.40625 7.90625 C -2.164062 8.132812 -2.804688 8.296875 -3.328125 8.390625 C -3.859375 8.484375 -4.378906 8.445312 -4.890625 8.28125 C -5.398438 8.125 -5.832031 7.75 -6.1875 7.15625 C -6.488281 6.644531 -6.617188 6.097656 -6.578125 5.515625 C -6.546875 4.929688 -6.316406 4.351562 -5.890625 3.78125 C -5.472656 3.207031 -4.863281 2.679688 -4.0625 2.203125 Z M -4.0625 2.203125 "/></g></g></g></g></g></svg>