<svg xmlns="http://www.w3.org/2000/svg" xmlns:xlink="http://www.w3.org/1999/xlink" width="500" zoomAndPan="magnify" viewBox="0 0 375 374.999991" height="500" preserveAspectRatio="xMidYMid meet" version="1.0"><defs><g/><clipPath id="cf32d492a4"><rect x="0" width="250" y="0" height="150"/></clipPath><clipPath id="56c5edcd56"><rect x="0" width="218" y="0" height="13"/></clipPath><clipPath id="8efc262dfc"><path d="M 17.667969 122.105469 L 101.667969 122.105469 L 101.667969 244.355469 L 17.667969 244.355469 Z M 17.667969 122.105469 " clip-rule="nonzero"/></clipPath></defs><g transform="matrix(1, 0, 0, 1, 102, 112)"><g clip-path="url(#cf32d492a4)"><g fill="#000000" fill-opacity="0.4"><g transform="translate(0.00592309, 107.106496)"><g><path d="M 9.171875 -95.21875 C 11.640625 -97.6875 14.582031 -98.921875 18 -98.921875 C 21.414062 -98.921875 24.351562 -97.6875 26.8125 -95.21875 C 29.28125 -92.757812 30.515625 -89.820312 30.515625 -86.40625 C 30.515625 -82.988281 29.28125 -80.046875 26.8125 -77.578125 C 24.351562 -75.117188 21.414062 -73.890625 18 -73.890625 C 14.582031 -73.890625 11.640625 -75.117188 9.171875 -77.578125 C 6.710938 -80.046875 5.484375 -82.988281 5.484375 -86.40625 C 5.484375 -89.820312 6.710938 -92.757812 9.171875 -95.21875 Z M 7.15625 -61.140625 L 7.15625 0 L 28.25 0 L 28.25 -61.140625 Z M 7.15625 -61.140625 "/></g></g></g><g fill="#000000" fill-opacity="0.4"><g transform="translate(30.7553, 107.106496)"><g><path d="M 11.3125 -7.5625 C 5.59375 -13.800781 2.734375 -21.445312 2.734375 -30.5 C 2.734375 -39.5625 5.59375 -47.234375 11.3125 -53.515625 C 17.039062 -59.796875 24.316406 -62.9375 33.140625 -62.9375 C 41.242188 -62.9375 47.914062 -60.390625 53.15625 -55.296875 L 53.15625 -102.5 L 74.25 -102.5 L 74.25 0 L 53.390625 0 L 53.390625 -6.90625 L 53.15625 -6.90625 C 47.914062 -1.113281 41.242188 1.78125 33.140625 1.78125 C 24.316406 1.78125 17.039062 -1.332031 11.3125 -7.5625 Z M 29.265625 -40.875 C 26.523438 -38.175781 25.15625 -34.71875 25.15625 -30.5 C 25.15625 -26.289062 26.460938 -22.851562 29.078125 -20.1875 C 31.703125 -17.53125 35.160156 -16.203125 39.453125 -16.203125 C 43.585938 -16.203125 46.984375 -17.550781 49.640625 -20.25 C 52.304688 -22.957031 53.640625 -26.378906 53.640625 -30.515625 C 53.640625 -34.722656 52.265625 -38.175781 49.515625 -40.875 C 46.773438 -43.582031 43.421875 -44.9375 39.453125 -44.9375 C 35.398438 -44.9375 32.003906 -43.582031 29.265625 -40.875 Z M 29.265625 -40.875 "/></g></g></g><g fill="#000000" fill-opacity="0.4"><g transform="translate(106.914135, 107.106496)"><g><path d="M 69.015625 -27.65625 L 24.671875 -27.65625 C 24.671875 -23.363281 26.0625 -20.179688 28.84375 -18.109375 C 31.625 -16.046875 34.644531 -15.015625 37.90625 -15.015625 C 41.320312 -15.015625 44.019531 -15.472656 46 -16.390625 C 47.988281 -17.304688 50.253906 -19.113281 52.796875 -21.8125 L 68.0625 -14.1875 C 61.695312 -3.539062 51.128906 1.78125 36.359375 1.78125 C 27.140625 1.78125 19.226562 -1.375 12.625 -7.6875 C 6.03125 -14 2.734375 -21.601562 2.734375 -30.5 C 2.734375 -39.40625 6.03125 -47.035156 12.625 -53.390625 C 19.226562 -59.753906 27.140625 -62.9375 36.359375 -62.9375 C 46.046875 -62.9375 53.925781 -60.132812 60 -54.53125 C 66.082031 -48.925781 69.125 -40.921875 69.125 -30.515625 C 69.125 -29.078125 69.085938 -28.125 69.015625 -27.65625 Z M 25.265625 -39.328125 L 48.515625 -39.328125 C 48.035156 -42.503906 46.78125 -44.945312 44.75 -46.65625 C 42.726562 -48.363281 40.128906 -49.21875 36.953125 -49.21875 C 33.453125 -49.21875 30.664062 -48.300781 28.59375 -46.46875 C 26.53125 -44.644531 25.421875 -42.265625 25.265625 -39.328125 Z M 25.265625 -39.328125 "/></g></g></g><g fill="#000000" fill-opacity="0.4"><g transform="translate(173.538184, 107.106496)"><g><path d="M 11.3125 -7.5625 C 5.59375 -13.800781 2.734375 -21.445312 2.734375 -30.5 C 2.734375 -39.5625 5.59375 -47.234375 11.3125 -53.515625 C 17.039062 -59.796875 24.316406 -62.9375 33.140625 -62.9375 C 41.242188 -62.9375 47.914062 -60.390625 53.15625 -55.296875 L 53.15625 -61.140625 L 74.25 -61.140625 L 74.25 0 L 53.390625 0 L 53.390625 -6.90625 L 53.15625 -6.90625 C 47.914062 -1.113281 41.242188 1.78125 33.140625 1.78125 C 24.316406 1.78125 17.039062 -1.332031 11.3125 -7.5625 Z M 29.265625 -40.875 C 26.523438 -38.175781 25.15625 -34.71875 25.15625 -30.5 C 25.15625 -26.289062 26.460938 -22.851562 29.078125 -20.1875 C 31.703125 -17.53125 35.160156 -16.203125 39.453125 -16.203125 C 43.585938 -16.203125 46.984375 -17.550781 49.640625 -20.25 C 52.304688 -22.957031 53.640625 -26.378906 53.640625 -30.515625 C 53.640625 -34.722656 52.265625 -38.175781 49.515625 -40.875 C 46.773438 -43.582031 43.421875 -44.9375 39.453125 -44.9375 C 35.398438 -44.9375 32.003906 -43.582031 29.265625 -40.875 Z M 29.265625 -40.875 "/></g></g></g><g fill="#ffffff" fill-opacity="1"><g transform="translate(0.00592309, 107.106496)"><g><path d="M 9.171875 -95.21875 C 11.640625 -97.6875 14.582031 -98.921875 18 -98.921875 C 21.414062 -98.921875 24.351562 -97.6875 26.8125 -95.21875 C 29.28125 -92.757812 30.515625 -89.820312 30.515625 -86.40625 C 30.515625 -82.988281 29.28125 -80.046875 26.8125 -77.578125 C 24.351562 -75.117188 21.414062 -73.890625 18 -73.890625 C 14.582031 -73.890625 11.640625 -75.117188 9.171875 -77.578125 C 6.710938 -80.046875 5.484375 -82.988281 5.484375 -86.40625 C 5.484375 -89.820312 6.710938 -92.757812 9.171875 -95.21875 Z M 7.15625 -61.140625 L 7.15625 0 L 28.25 0 L 28.25 -61.140625 Z M 7.15625 -61.140625 "/></g></g></g><g fill="#ffffff" fill-opacity="1"><g transform="translate(30.7553, 107.106496)"><g><path d="M 11.3125 -7.5625 C 5.59375 -13.800781 2.734375 -21.445312 2.734375 -30.5 C 2.734375 -39.5625 5.59375 -47.234375 11.3125 -53.515625 C 17.039062 -59.796875 24.316406 -62.9375 33.140625 -62.9375 C 41.242188 -62.9375 47.914062 -60.390625 53.15625 -55.296875 L 53.15625 -102.5 L 74.25 -102.5 L 74.25 0 L 53.390625 0 L 53.390625 -6.90625 L 53.15625 -6.90625 C 47.914062 -1.113281 41.242188 1.78125 33.140625 1.78125 C 24.316406 1.78125 17.039062 -1.332031 11.3125 -7.5625 Z M 29.265625 -40.875 C 26.523438 -38.175781 25.15625 -34.71875 25.15625 -30.5 C 25.15625 -26.289062 26.460938 -22.851562 29.078125 -20.1875 C 31.703125 -17.53125 35.160156 -16.203125 39.453125 -16.203125 C 43.585938 -16.203125 46.984375 -17.550781 49.640625 -20.25 C 52.304688 -22.957031 53.640625 -26.378906 53.640625 -30.515625 C 53.640625 -34.722656 52.265625 -38.175781 49.515625 -40.875 C 46.773438 -43.582031 43.421875 -44.9375 39.453125 -44.9375 C 35.398438 -44.9375 32.003906 -43.582031 29.265625 -40.875 Z M 29.265625 -40.875 "/></g></g></g><g fill="#ffffff" fill-opacity="1"><g transform="translate(106.914135, 107.106496)"><g><path d="M 69.015625 -27.65625 L 24.671875 -27.65625 C 24.671875 -23.363281 26.0625 -20.179688 28.84375 -18.109375 C 31.625 -16.046875 34.644531 -15.015625 37.90625 -15.015625 C 41.320312 -15.015625 44.019531 -15.472656 46 -16.390625 C 47.988281 -17.304688 50.253906 -19.113281 52.796875 -21.8125 L 68.0625 -14.1875 C 61.695312 -3.539062 51.128906 1.78125 36.359375 1.78125 C 27.140625 1.78125 19.226562 -1.375 12.625 -7.6875 C 6.03125 -14 2.734375 -21.601562 2.734375 -30.5 C 2.734375 -39.40625 6.03125 -47.035156 12.625 -53.390625 C 19.226562 -59.753906 27.140625 -62.9375 36.359375 -62.9375 C 46.046875 -62.9375 53.925781 -60.132812 60 -54.53125 C 66.082031 -48.925781 69.125 -40.921875 69.125 -30.515625 C 69.125 -29.078125 69.085938 -28.125 69.015625 -27.65625 Z M 25.265625 -39.328125 L 48.515625 -39.328125 C 48.035156 -42.503906 46.78125 -44.945312 44.75 -46.65625 C 42.726562 -48.363281 40.128906 -49.21875 36.953125 -49.21875 C 33.453125 -49.21875 30.664062 -48.300781 28.59375 -46.46875 C 26.53125 -44.644531 25.421875 -42.265625 25.265625 -39.328125 Z M 25.265625 -39.328125 "/></g></g></g><g fill="#ffffff" fill-opacity="1"><g transform="translate(173.538184, 107.106496)"><g><path d="M 11.3125 -7.5625 C 5.59375 -13.800781 2.734375 -21.445312 2.734375 -30.5 C 2.734375 -39.5625 5.59375 -47.234375 11.3125 -53.515625 C 17.039062 -59.796875 24.316406 -62.9375 33.140625 -62.9375 C 41.242188 -62.9375 47.914062 -60.390625 53.15625 -55.296875 L 53.15625 -61.140625 L 74.25 -61.140625 L 74.25 0 L 53.390625 0 L 53.390625 -6.90625 L 53.15625 -6.90625 C 47.914062 -1.113281 41.242188 1.78125 33.140625 1.78125 C 24.316406 1.78125 17.039062 -1.332031 11.3125 -7.5625 Z M 29.265625 -40.875 C 26.523438 -38.175781 25.15625 -34.71875 25.15625 -30.5 C 25.15625 -26.289062 26.460938 -22.851562 29.078125 -20.1875 C 31.703125 -17.53125 35.160156 -16.203125 39.453125 -16.203125 C 43.585938 -16.203125 46.984375 -17.550781 49.640625 -20.25 C 52.304688 -22.957031 53.640625 -26.378906 53.640625 -30.515625 C 53.640625 -34.722656 52.265625 -38.175781 49.515625 -40.875 C 46.773438 -43.582031 43.421875 -44.9375 39.453125 -44.9375 C 35.398438 -44.9375 32.003906 -43.582031 29.265625 -40.875 Z M 29.265625 -40.875 "/></g></g></g></g></g><g transform="matrix(1, 0, 0, 1, 122, 225)"><g clip-path="url(#56c5edcd56)"><g fill="#ffffff" fill-opacity="1"><g transform="translate(1.185214, 9.777929)"><g><path d="M 4.09375 0.125 C 3.394531 0.125 2.765625 -0.0234375 2.203125 -0.328125 C 1.640625 -0.640625 1.191406 -1.0625 0.859375 -1.59375 C 0.535156 -2.132812 0.375 -2.742188 0.375 -3.421875 C 0.375 -4.109375 0.535156 -4.71875 0.859375 -5.25 C 1.191406 -5.789062 1.640625 -6.210938 2.203125 -6.515625 C 2.765625 -6.816406 3.398438 -6.96875 4.109375 -6.96875 C 4.703125 -6.96875 5.238281 -6.863281 5.71875 -6.65625 C 6.195312 -6.445312 6.597656 -6.148438 6.921875 -5.765625 L 5.90625 -4.8125 C 5.445312 -5.351562 4.875 -5.625 4.1875 -5.625 C 3.757812 -5.625 3.378906 -5.53125 3.046875 -5.34375 C 2.710938 -5.15625 2.453125 -4.894531 2.265625 -4.5625 C 2.078125 -4.226562 1.984375 -3.847656 1.984375 -3.421875 C 1.984375 -3.003906 2.078125 -2.628906 2.265625 -2.296875 C 2.453125 -1.960938 2.710938 -1.703125 3.046875 -1.515625 C 3.378906 -1.328125 3.757812 -1.234375 4.1875 -1.234375 C 4.875 -1.234375 5.445312 -1.503906 5.90625 -2.046875 L 6.921875 -1.109375 C 6.597656 -0.710938 6.191406 -0.40625 5.703125 -0.1875 C 5.222656 0.0195312 4.6875 0.125 4.09375 0.125 Z M 4.09375 0.125 "/></g></g></g><g fill="#ffffff" fill-opacity="1"><g transform="translate(16.215102, 9.777929)"><g><path d="M 5.1875 0 L 3.859375 -1.90625 L 2.40625 -1.90625 L 2.40625 0 L 0.8125 0 L 0.8125 -6.859375 L 3.78125 -6.859375 C 4.382812 -6.859375 4.910156 -6.753906 5.359375 -6.546875 C 5.804688 -6.347656 6.148438 -6.0625 6.390625 -5.6875 C 6.640625 -5.320312 6.765625 -4.882812 6.765625 -4.375 C 6.765625 -3.863281 6.640625 -3.421875 6.390625 -3.046875 C 6.148438 -2.679688 5.800781 -2.398438 5.34375 -2.203125 L 6.890625 0 Z M 5.15625 -4.375 C 5.15625 -4.757812 5.03125 -5.050781 4.78125 -5.25 C 4.53125 -5.457031 4.164062 -5.5625 3.6875 -5.5625 L 2.40625 -5.5625 L 2.40625 -3.171875 L 3.6875 -3.171875 C 4.164062 -3.171875 4.53125 -3.273438 4.78125 -3.484375 C 5.03125 -3.691406 5.15625 -3.988281 5.15625 -4.375 Z M 5.15625 -4.375 "/></g></g></g><g fill="#ffffff" fill-opacity="1"><g transform="translate(31.264592, 9.777929)"><g><path d="M 6.125 -1.28125 L 6.125 0 L 0.8125 0 L 0.8125 -6.859375 L 6 -6.859375 L 6 -5.578125 L 2.390625 -5.578125 L 2.390625 -4.09375 L 5.578125 -4.09375 L 5.578125 -2.859375 L 2.390625 -2.859375 L 2.390625 -1.28125 Z M 6.125 -1.28125 "/></g></g></g><g fill="#ffffff" fill-opacity="1"><g transform="translate(45.686785, 9.777929)"><g><path d="M 5.328125 -1.46875 L 2.140625 -1.46875 L 1.53125 0 L -0.09375 0 L 2.96875 -6.859375 L 4.53125 -6.859375 L 7.609375 0 L 5.9375 0 Z M 4.828125 -2.671875 L 3.75 -5.296875 L 2.65625 -2.671875 Z M 4.828125 -2.671875 "/></g></g></g><g fill="#ffffff" fill-opacity="1"><g transform="translate(61.040123, 9.777929)"><g><path d="M 2.234375 -5.5625 L 0.046875 -5.5625 L 0.046875 -6.859375 L 6.015625 -6.859375 L 6.015625 -5.5625 L 3.828125 -5.5625 L 3.828125 0 L 2.234375 0 Z M 2.234375 -5.5625 "/></g></g></g><g fill="#ffffff" fill-opacity="1"><g transform="translate(74.942831, 9.777929)"><g><path d="M 0.8125 -6.859375 L 2.40625 -6.859375 L 2.40625 0 L 0.8125 0 Z M 0.8125 -6.859375 "/></g></g></g><g fill="#ffffff" fill-opacity="1"><g transform="translate(86.003099, 9.777929)"><g><path d="M 7.40625 -6.859375 L 4.4375 0 L 2.875 0 L -0.09375 -6.859375 L 1.625 -6.859375 L 3.71875 -1.953125 L 5.828125 -6.859375 Z M 7.40625 -6.859375 "/></g></g></g><g fill="#ffffff" fill-opacity="1"><g transform="translate(101.160403, 9.777929)"><g><path d="M 6.125 -1.28125 L 6.125 0 L 0.8125 0 L 0.8125 -6.859375 L 6 -6.859375 L 6 -5.578125 L 2.390625 -5.578125 L 2.390625 -4.09375 L 5.578125 -4.09375 L 5.578125 -2.859375 L 2.390625 -2.859375 L 2.390625 -1.28125 Z M 6.125 -1.28125 "/></g></g></g><g fill="#ffffff" fill-opacity="1"><g transform="translate(115.582595, 9.777929)"><g/></g></g><g fill="#ffffff" fill-opacity="1"><g transform="translate(126.201795, 9.777929)"><g><path d="M 5.328125 -1.46875 L 2.140625 -1.46875 L 1.53125 0 L -0.09375 0 L 2.96875 -6.859375 L 4.53125 -6.859375 L 7.609375 0 L 5.9375 0 Z M 4.828125 -2.671875 L 3.75 -5.296875 L 2.65625 -2.671875 Z M 4.828125 -2.671875 "/></g></g></g><g fill="#ffffff" fill-opacity="1"><g transform="translate(141.555133, 9.777929)"><g><path d="M 5.453125 -3.53125 L 6.890625 -3.53125 L 6.890625 -0.75 C 6.523438 -0.46875 6.097656 -0.25 5.609375 -0.09375 C 5.117188 0.0507812 4.625 0.125 4.125 0.125 C 3.414062 0.125 2.773438 -0.0234375 2.203125 -0.328125 C 1.640625 -0.640625 1.191406 -1.0625 0.859375 -1.59375 C 0.535156 -2.132812 0.375 -2.742188 0.375 -3.421875 C 0.375 -4.109375 0.535156 -4.71875 0.859375 -5.25 C 1.191406 -5.789062 1.644531 -6.210938 2.21875 -6.515625 C 2.789062 -6.816406 3.4375 -6.96875 4.15625 -6.96875 C 4.757812 -6.96875 5.304688 -6.867188 5.796875 -6.671875 C 6.285156 -6.472656 6.695312 -6.179688 7.03125 -5.796875 L 6 -4.84375 C 5.507812 -5.363281 4.921875 -5.625 4.234375 -5.625 C 3.796875 -5.625 3.40625 -5.53125 3.0625 -5.34375 C 2.726562 -5.164062 2.460938 -4.910156 2.265625 -4.578125 C 2.078125 -4.242188 1.984375 -3.859375 1.984375 -3.421875 C 1.984375 -3.003906 2.078125 -2.628906 2.265625 -2.296875 C 2.460938 -1.960938 2.726562 -1.703125 3.0625 -1.515625 C 3.394531 -1.328125 3.78125 -1.234375 4.21875 -1.234375 C 4.664062 -1.234375 5.078125 -1.332031 5.453125 -1.53125 Z M 5.453125 -3.53125 "/></g></g></g><g fill="#ffffff" fill-opacity="1"><g transform="translate(156.95748, 9.777929)"><g><path d="M 6.125 -1.28125 L 6.125 0 L 0.8125 0 L 0.8125 -6.859375 L 6 -6.859375 L 6 -5.578125 L 2.390625 -5.578125 L 2.390625 -4.09375 L 5.578125 -4.09375 L 5.578125 -2.859375 L 2.390625 -2.859375 L 2.390625 -1.28125 Z M 6.125 -1.28125 "/></g></g></g><g fill="#ffffff" fill-opacity="1"><g transform="translate(171.379672, 9.777929)"><g><path d="M 7.109375 -6.859375 L 7.109375 0 L 5.796875 0 L 2.375 -4.15625 L 2.375 0 L 0.8125 0 L 0.8125 -6.859375 L 2.125 -6.859375 L 5.53125 -2.6875 L 5.53125 -6.859375 Z M 7.109375 -6.859375 "/></g></g></g><g fill="#ffffff" fill-opacity="1"><g transform="translate(187.144673, 9.777929)"><g><path d="M 4.09375 0.125 C 3.394531 0.125 2.765625 -0.0234375 2.203125 -0.328125 C 1.640625 -0.640625 1.191406 -1.0625 0.859375 -1.59375 C 0.535156 -2.132812 0.375 -2.742188 0.375 -3.421875 C 0.375 -4.109375 0.535156 -4.71875 0.859375 -5.25 C 1.191406 -5.789062 1.640625 -6.210938 2.203125 -6.515625 C 2.765625 -6.816406 3.398438 -6.96875 4.109375 -6.96875 C 4.703125 -6.96875 5.238281 -6.863281 5.71875 -6.65625 C 6.195312 -6.445312 6.597656 -6.148438 6.921875 -5.765625 L 5.90625 -4.8125 C 5.445312 -5.351562 4.875 -5.625 4.1875 -5.625 C 3.757812 -5.625 3.378906 -5.53125 3.046875 -5.34375 C 2.710938 -5.15625 2.453125 -4.894531 2.265625 -4.5625 C 2.078125 -4.226562 1.984375 -3.847656 1.984375 -3.421875 C 1.984375 -3.003906 2.078125 -2.628906 2.265625 -2.296875 C 2.453125 -1.960938 2.710938 -1.703125 3.046875 -1.515625 C 3.378906 -1.328125 3.757812 -1.234375 4.1875 -1.234375 C 4.875 -1.234375 5.445312 -1.503906 5.90625 -2.046875 L 6.921875 -1.109375 C 6.597656 -0.710938 6.191406 -0.40625 5.703125 -0.1875 C 5.222656 0.0195312 4.6875 0.125 4.09375 0.125 Z M 4.09375 0.125 "/></g></g></g><g fill="#ffffff" fill-opacity="1"><g transform="translate(202.174562, 9.777929)"><g><path d="M 4.109375 -2.421875 L 4.109375 0 L 2.515625 0 L 2.515625 -2.453125 L -0.140625 -6.859375 L 1.546875 -6.859375 L 3.375 -3.8125 L 5.21875 -6.859375 L 6.765625 -6.859375 Z M 4.109375 -2.421875 "/></g></g></g></g></g><g clip-path="url(#8efc262dfc)"><path fill="#ffffff" d="M 47.226562 233.714844 C 48.1875 239.800781 53.464844 244.453125 59.832031 244.453125 C 66.203125 244.453125 71.480469 239.800781 72.441406 233.714844 C 72.519531 233.195312 72.390625 232.703125 72.050781 232.285156 C 71.714844 231.871094 71.246094 231.664062 70.726562 231.664062 L 48.96875 231.664062 C 48.449219 231.664062 47.980469 231.871094 47.640625 232.285156 C 47.277344 232.703125 47.148438 233.171875 47.226562 233.714844 Z M 73.714844 212.0625 C 77.742188 212.0625 81.019531 215.339844 81.019531 219.367188 C 81.019531 223.394531 77.742188 226.671875 73.714844 226.671875 L 45.953125 226.671875 C 41.921875 226.671875 38.648438 223.394531 38.648438 219.367188 C 38.648438 216.949219 39.84375 214.792969 41.664062 213.464844 L 70.4375 191.058594 C 72.597656 189.367188 74.910156 187.496094 77.144531 185.832031 C 80.265625 183.3125 82.839844 180.113281 84.632812 176.5 C 86.398438 172.886719 87.414062 168.753906 87.414062 164.363281 C 87.414062 156.746094 84.320312 149.855469 79.328125 144.863281 C 74.339844 139.875 67.449219 136.78125 59.832031 136.78125 C 52.214844 136.78125 45.328125 139.875 40.335938 144.863281 C 35.347656 149.855469 32.253906 156.746094 32.253906 164.363281 C 32.253906 169.636719 33.707031 174.550781 36.230469 178.683594 C 38.855469 183 42.652344 186.5625 47.171875 188.875 C 50.734375 190.71875 52.140625 195.113281 50.320312 198.675781 C 48.472656 202.238281 44.082031 203.640625 40.519531 201.820312 C 33.628906 198.257812 27.832031 192.851562 23.804688 186.25 C 19.929688 179.855469 17.667969 172.367188 17.667969 164.363281 C 17.667969 152.714844 22.402344 142.1875 30.015625 134.546875 C 37.660156 126.929688 48.1875 122.199219 59.832031 122.199219 C 71.480469 122.199219 82.007812 126.929688 89.648438 134.546875 C 97.265625 142.160156 101.996094 152.714844 101.996094 164.363281 C 101.996094 170.964844 100.4375 177.253906 97.683594 182.894531 C 94.925781 188.484375 91 193.371094 86.21875 197.246094 C 83.851562 199.222656 80.890625 201.429688 78.445312 203.328125 L 67.214844 212.0625 Z M 73.714844 212.0625 " fill-opacity="1" fill-rule="evenodd"/></g></svg>