<svg xmlns="http://www.w3.org/2000/svg" xmlns:xlink="http://www.w3.org/1999/xlink" width="500" zoomAndPan="magnify" viewBox="0 0 375 374.999991" height="500" preserveAspectRatio="xMidYMid meet" version="1.0"><defs><clipPath id="d18ae3c4a9"><path d="M 54.105469 86.621094 L 321 86.621094 L 321 280.121094 L 54.105469 280.121094 Z M 54.105469 86.621094 " clip-rule="nonzero"/></clipPath></defs><g clip-path="url(#d18ae3c4a9)"><path fill="#ffffff" d="M 156.601562 194.621094 C 165.304688 203.832031 169.65625 215.355469 169.65625 229.171875 C 169.65625 245.039062 164.027344 258.09375 152.765625 268.324219 C 151.054688 270.035156 149.351562 271.484375 147.644531 272.675781 C 151.226562 266.367188 153.019531 259.28125 153.019531 251.433594 C 153.019531 240.519531 149.777344 231.5625 143.292969 224.566406 C 142.441406 223.882812 141.328125 222.945312 139.964844 221.75 C 138.597656 220.558594 136.511719 219.0625 133.695312 217.269531 C 130.878906 215.480469 127.203125 213.304688 122.691406 210.742188 C 118.167969 208.183594 112.496094 205.027344 105.671875 201.273438 C 84.683594 190.355469 70.695312 179.515625 63.695312 168.769531 C 57.386719 159.734375 54.230469 148.648438 54.230469 135.5 C 54.230469 122.703125 57.980469 111.953125 65.492188 103.25 C 65.148438 104.621094 64.890625 106.066406 64.722656 107.601562 C 64.550781 109.140625 64.46875 110.671875 64.46875 112.207031 C 64.46875 123.128906 68.566406 132.683594 76.753906 140.875 C 80.164062 144.289062 85.03125 148.171875 91.347656 152.523438 C 97.65625 156.875 105.589844 161.695312 115.148438 166.984375 C 128.28125 174.320312 137.925781 180.160156 144.070312 184.511719 C 150.207031 188.863281 154.382812 192.234375 156.601562 194.621094 Z M 54.230469 255.792969 C 56.789062 260.398438 59.734375 264.792969 63.0625 268.96875 C 66.390625 273.152344 70.273438 276.945312 74.710938 280.355469 L 54.230469 280.355469 Z M 318.222656 258.605469 L 318.222656 101.464844 C 318.222656 100.101562 318.304688 98.011719 318.476562 95.195312 C 318.644531 92.378906 319.414062 89.523438 320.785156 86.621094 L 288.535156 86.621094 L 238.128906 235.480469 L 232.742188 222.011719 C 226.769531 207 220.328125 189.933594 213.421875 170.824219 C 206.511719 151.714844 199.128906 130.472656 191.28125 107.101562 C 189.746094 102.835938 188.59375 99.550781 187.828125 97.246094 C 187.0625 94.9375 186.503906 93.234375 186.167969 92.125 C 185.820312 91.015625 185.609375 90.246094 185.527344 89.820312 C 185.4375 89.390625 185.398438 88.921875 185.398438 88.414062 C 185.398438 87.5625 185.480469 86.960938 185.652344 86.621094 L 142.148438 86.621094 C 146.578125 90.035156 150.464844 93.828125 153.792969 98.007812 C 157.121094 102.191406 160.066406 106.5 162.625 110.929688 C 163.988281 115.027344 165.441406 118.996094 166.976562 122.832031 C 168.515625 126.667969 169.960938 130.46875 171.328125 134.21875 C 176.101562 145.988281 180.199219 156.359375 183.613281 165.316406 C 187.023438 174.273438 189.921875 181.742188 192.316406 187.710938 C 197.433594 201.53125 202.078125 213.902344 206.261719 224.820312 C 210.441406 235.742188 214.066406 245.378906 217.140625 253.742188 C 217.652344 255.109375 218.375 257.027344 219.316406 259.5 C 220.25 261.972656 221.238281 264.574219 222.257812 267.304688 C 223.28125 270.035156 224.21875 272.589844 225.074219 274.980469 C 225.921875 277.375 226.609375 279.164062 227.121094 280.355469 C 229.507812 273.363281 231.804688 266.621094 234.03125 260.136719 C 235.832031 254.867188 271.671875 147.425781 286.082031 104.210938 C 286.863281 101.867188 290.324219 102.425781 290.332031 104.890625 C 290.332031 104.941406 290.332031 104.988281 290.332031 105.042969 L 290.332031 260.90625 C 290.332031 266.367188 290.238281 270.589844 290.074219 273.574219 C 289.902344 276.5625 289.648438 278.820312 289.308594 280.355469 L 319.765625 280.355469 C 319.25 278.136719 318.867188 275.324219 318.613281 271.910156 C 318.351562 268.503906 318.222656 264.066406 318.222656 258.605469 Z M 318.222656 258.605469 " fill-opacity="1" fill-rule="nonzero"/></g></svg>