<svg xmlns="http://www.w3.org/2000/svg" xmlns:xlink="http://www.w3.org/1999/xlink" width="500" zoomAndPan="magnify" viewBox="0 0 375 374.999991" height="500" preserveAspectRatio="xMidYMid meet" version="1.0"><defs><g/><clipPath id="ea42749a10"><rect x="0" width="183" y="0" height="346"/></clipPath><clipPath id="083bdde1da"><rect x="0" width="157" y="0" height="224"/></clipPath><clipPath id="0c0eca78a7"><rect x="0" width="128" y="0" height="45"/></clipPath></defs><g transform="matrix(1, 0, 0, 1, 35, 0)"><g clip-path="url(#ea42749a10)"><g fill="#ffffff" fill-opacity="1"><g transform="translate(1.586794, 235.307036)"><g><path d="M 170.84375 -12.390625 C 170.84375 -0.242188 168.898438 10.804688 165.015625 20.765625 C 161.128906 30.722656 155.601562 39.222656 148.4375 46.265625 C 141.269531 53.304688 132.707031 58.769531 122.75 62.65625 C 112.800781 66.539062 101.753906 68.484375 89.609375 68.484375 C 78.679688 68.484375 68.238281 66.78125 58.28125 63.375 C 48.320312 59.976562 39.578125 55.0625 32.046875 48.625 C 24.523438 42.1875 18.515625 34.351562 14.015625 25.125 C 9.523438 15.90625 7.28125 5.46875 7.28125 -6.1875 C 7.28125 -17.363281 9.222656 -26.957031 13.109375 -34.96875 C 16.992188 -42.976562 22.273438 -49.59375 28.953125 -54.8125 C 35.628906 -60.039062 43.460938 -63.925781 52.453125 -66.46875 C 61.441406 -69.019531 71.035156 -70.296875 81.234375 -70.296875 L 81.234375 -68.84375 C 72.492188 -68.363281 64.414062 -66.238281 57 -62.46875 C 49.59375 -58.707031 43.28125 -53.789062 38.0625 -47.71875 C 32.84375 -41.644531 28.773438 -34.722656 25.859375 -26.953125 C 22.941406 -19.179688 21.484375 -10.925781 21.484375 -2.1875 C 21.484375 7.769531 23.125 16.816406 26.40625 24.953125 C 29.6875 33.085938 34.238281 40.066406 40.0625 45.890625 C 45.894531 51.722656 52.9375 56.21875 61.1875 59.375 C 69.445312 62.53125 78.554688 64.109375 88.515625 64.109375 C 108.179688 64.109375 123.539062 58.335938 134.59375 46.796875 C 145.644531 35.265625 151.171875 19.664062 151.171875 0 C 151.171875 -10.4375 148.800781 -19.96875 144.0625 -28.59375 C 139.332031 -37.21875 133.382812 -45.351562 126.21875 -53 C 119.050781 -60.644531 111.28125 -67.988281 102.90625 -75.03125 C 94.53125 -82.082031 86.757812 -89.128906 79.59375 -96.171875 C 72.425781 -103.210938 66.472656 -110.492188 61.734375 -118.015625 C 57.003906 -125.546875 54.640625 -133.679688 54.640625 -142.421875 C 54.640625 -148.742188 55.789062 -154.453125 58.09375 -159.546875 C 60.40625 -164.648438 63.5625 -168.898438 67.5625 -172.296875 C 71.570312 -175.691406 76.25 -178.300781 81.59375 -180.125 C 86.9375 -181.945312 92.644531 -182.859375 98.71875 -182.859375 C 101.144531 -182.859375 103.507812 -182.613281 105.8125 -182.125 C 108.125 -181.644531 110.375 -181.160156 112.5625 -180.671875 L 121.671875 -177.765625 C 126.523438 -176.304688 131.132812 -175.578125 135.5 -175.578125 C 138.90625 -175.578125 141.578125 -176.910156 143.515625 -179.578125 L 140.96875 -137.328125 C 140 -142.179688 138.300781 -147.15625 135.875 -152.25 C 133.445312 -157.351562 130.347656 -161.96875 126.578125 -166.09375 C 122.816406 -170.226562 118.566406 -173.691406 113.828125 -176.484375 C 109.097656 -179.273438 103.941406 -180.671875 98.359375 -180.671875 C 89.367188 -180.671875 81.65625 -178.242188 75.21875 -173.390625 C 68.78125 -168.535156 65.5625 -161.25 65.5625 -151.53125 C 65.5625 -144.007812 68.171875 -136.785156 73.390625 -129.859375 C 78.617188 -122.941406 85.117188 -116.140625 92.890625 -109.453125 C 100.660156 -102.773438 109.097656 -95.976562 118.203125 -89.0625 C 127.304688 -82.144531 135.742188 -74.800781 143.515625 -67.03125 C 151.285156 -59.257812 157.78125 -50.878906 163 -41.890625 C 168.226562 -32.898438 170.84375 -23.066406 170.84375 -12.390625 Z M 170.84375 -12.390625 "/></g></g></g></g></g><g transform="matrix(1, 0, 0, 1, 135, 80)"><g clip-path="url(#083bdde1da)"><g fill="#ffffff" fill-opacity="1"><g transform="translate(0.449161, 167.404462)"><g><path d="M 131.9375 -21.921875 L 149.203125 0 L 129.0625 0 L 23.25 -134.375 L 23.25 -36.3125 C 23.25 -31.144531 23.539062 -26.457031 24.125 -22.25 C 24.71875 -18.039062 25.421875 -14.421875 26.234375 -11.390625 C 27.046875 -8.367188 27.929688 -6.046875 28.890625 -4.421875 C 29.847656 -2.804688 30.769531 -2 31.65625 -2 L 31.65625 0 L 12.84375 0 L 12.84375 -2 C 13.726562 -2 14.648438 -2.804688 15.609375 -4.421875 C 16.566406 -6.046875 17.453125 -8.367188 18.265625 -11.390625 C 19.078125 -14.421875 19.773438 -18.039062 20.359375 -22.25 C 20.953125 -26.457031 21.25 -31.144531 21.25 -36.3125 L 21.25 -136.8125 L 6.640625 -155.40625 L 26.78125 -155.40625 L 129.953125 -24.34375 L 129.953125 -119.328125 C 129.953125 -124.484375 129.65625 -129.164062 129.0625 -133.375 C 128.46875 -137.582031 127.765625 -141.160156 126.953125 -144.109375 C 126.140625 -147.066406 125.253906 -149.351562 124.296875 -150.96875 C 123.335938 -152.59375 122.414062 -153.40625 121.53125 -153.40625 L 121.53125 -155.40625 L 140.359375 -155.40625 L 140.359375 -153.40625 C 139.472656 -153.40625 138.546875 -152.59375 137.578125 -150.96875 C 136.617188 -149.351562 135.734375 -147.066406 134.921875 -144.109375 C 134.109375 -141.160156 133.40625 -137.582031 132.8125 -133.375 C 132.226562 -129.164062 131.9375 -124.484375 131.9375 -119.328125 Z M 131.9375 -21.921875 "/></g></g></g></g></g><g transform="matrix(1, 0, 0, 1, 206, 255)"><g clip-path="url(#0c0eca78a7)"><g fill="#ffffff" fill-opacity="1"><g transform="translate(0.942833, 18.893155)"><g><path d="M 0.28125 -1.625 C 0.25 -1.6875 0.234375 -1.75 0.234375 -1.8125 L 0.640625 -4.703125 L 1.4375 -4.59375 L 1.4375 -4.5 C 1.488281 -4.039062 1.628906 -3.582031 1.859375 -3.125 C 2.085938 -2.675781 2.382812 -2.265625 2.75 -1.890625 C 3.125 -1.515625 3.535156 -1.210938 3.984375 -0.984375 C 4.429688 -0.753906 4.90625 -0.640625 5.40625 -0.640625 C 5.976562 -0.640625 6.460938 -0.8125 6.859375 -1.15625 C 7.253906 -1.5 7.453125 -1.945312 7.453125 -2.5 C 7.453125 -2.90625 7.335938 -3.253906 7.109375 -3.546875 C 6.878906 -3.835938 6.597656 -4.097656 6.265625 -4.328125 C 5.941406 -4.554688 5.628906 -4.753906 5.328125 -4.921875 C 5.117188 -5.023438 4.90625 -5.132812 4.6875 -5.25 C 4.476562 -5.363281 4.265625 -5.472656 4.046875 -5.578125 C 3.472656 -5.878906 2.910156 -6.207031 2.359375 -6.5625 C 1.816406 -6.914062 1.367188 -7.335938 1.015625 -7.828125 C 0.671875 -8.316406 0.5 -8.910156 0.5 -9.609375 C 0.5 -10.460938 0.726562 -11.160156 1.1875 -11.703125 C 1.644531 -12.253906 2.234375 -12.660156 2.953125 -12.921875 C 3.671875 -13.191406 4.414062 -13.328125 5.1875 -13.328125 C 5.539062 -13.328125 5.953125 -13.289062 6.421875 -13.21875 C 6.898438 -13.15625 7.363281 -13.046875 7.8125 -12.890625 C 8.257812 -12.742188 8.625 -12.546875 8.90625 -12.296875 C 8.945312 -12.265625 9 -12.210938 9.0625 -12.140625 C 9.101562 -12.097656 9.132812 -12.054688 9.15625 -12.015625 C 9.175781 -11.984375 9.195312 -11.941406 9.21875 -11.890625 L 9.578125 -8.90625 L 8.703125 -8.90625 L 8.6875 -8.984375 C 8.550781 -9.347656 8.359375 -9.734375 8.109375 -10.140625 C 7.859375 -10.546875 7.566406 -10.925781 7.234375 -11.28125 C 6.898438 -11.644531 6.535156 -11.9375 6.140625 -12.15625 C 5.753906 -12.382812 5.347656 -12.5 4.921875 -12.5 C 4.359375 -12.5 3.894531 -12.347656 3.53125 -12.046875 C 3.175781 -11.742188 3 -11.316406 3 -10.765625 C 3 -10.359375 3.09375 -10.003906 3.28125 -9.703125 C 3.46875 -9.398438 3.722656 -9.113281 4.046875 -8.84375 C 4.398438 -8.550781 4.78125 -8.289062 5.1875 -8.0625 C 5.601562 -7.84375 6.019531 -7.632812 6.4375 -7.4375 C 7.007812 -7.125 7.566406 -6.789062 8.109375 -6.4375 C 8.648438 -6.082031 9.097656 -5.660156 9.453125 -5.171875 C 9.816406 -4.691406 10 -4.101562 10 -3.40625 C 10 -2.738281 9.847656 -2.171875 9.546875 -1.703125 C 9.253906 -1.234375 8.863281 -0.859375 8.375 -0.578125 C 7.882812 -0.296875 7.347656 -0.0976562 6.765625 0.015625 C 6.179688 0.140625 5.597656 0.203125 5.015625 0.203125 C 4.546875 0.203125 4.03125 0.144531 3.46875 0.03125 C 2.914062 -0.0703125 2.375 -0.234375 1.84375 -0.453125 C 1.320312 -0.671875 0.890625 -0.953125 0.546875 -1.296875 C 0.535156 -1.316406 0.507812 -1.34375 0.46875 -1.375 C 0.4375 -1.414062 0.398438 -1.453125 0.359375 -1.484375 C 0.347656 -1.515625 0.332031 -1.539062 0.3125 -1.5625 C 0.300781 -1.59375 0.289062 -1.613281 0.28125 -1.625 Z M 0.28125 -1.625 "/></g></g></g><g fill="#ffffff" fill-opacity="1"><g transform="translate(13.292222, 18.893155)"><g><path d="M 5.125 0 L 0.046875 0 L 0.046875 -0.859375 L 0.1875 -0.859375 C 0.664062 -0.878906 1.066406 -1.019531 1.390625 -1.28125 C 1.722656 -1.550781 1.984375 -1.90625 2.171875 -2.34375 L 6.8125 -13.09375 L 7.734375 -13.09375 L 12.5625 -1.78125 C 12.707031 -1.4375 12.878906 -1.195312 13.078125 -1.0625 C 13.285156 -0.925781 13.5625 -0.859375 13.90625 -0.859375 L 14.046875 -0.859375 L 14.046875 0 L 8.703125 0 L 8.703125 -0.859375 L 8.84375 -0.859375 C 9.019531 -0.859375 9.226562 -0.878906 9.46875 -0.921875 C 9.71875 -0.960938 9.84375 -1.101562 9.84375 -1.34375 C 9.84375 -1.46875 9.820312 -1.578125 9.78125 -1.671875 L 8.390625 -4.9375 L 4.359375 -4.9375 L 3.21875 -2.234375 C 3.195312 -2.171875 3.175781 -2.085938 3.15625 -1.984375 C 3.144531 -1.878906 3.140625 -1.78125 3.140625 -1.6875 C 3.140625 -1.351562 3.273438 -1.140625 3.546875 -1.046875 C 3.828125 -0.953125 4.097656 -0.890625 4.359375 -0.859375 C 4.460938 -0.859375 4.566406 -0.859375 4.671875 -0.859375 C 4.785156 -0.859375 4.890625 -0.859375 4.984375 -0.859375 L 5.125 -0.859375 Z M 6.34375 -9.734375 L 4.703125 -5.8125 L 8.015625 -5.8125 Z M 6.34375 -9.734375 "/></g></g></g><g fill="#ffffff" fill-opacity="1"><g transform="translate(29.428009, 18.893155)"><g><path d="M 4.921875 0 L 0.296875 0 L 0.296875 -0.859375 L 0.4375 -0.859375 C 0.9375 -0.859375 1.3125 -0.941406 1.5625 -1.109375 C 1.820312 -1.285156 1.953125 -1.617188 1.953125 -2.109375 L 1.953125 -11.46875 C 1.953125 -11.738281 1.800781 -11.929688 1.5 -12.046875 C 1.207031 -12.171875 0.9375 -12.234375 0.6875 -12.234375 L 0.546875 -12.234375 L 0.546875 -13.09375 L 4.328125 -13.09375 L 8.953125 -3.5625 L 12.703125 -12.984375 L 12.703125 -13.09375 L 16.421875 -13.09375 L 16.421875 -12.234375 L 16.28125 -12.234375 C 15.976562 -12.234375 15.738281 -12.175781 15.5625 -12.0625 C 15.382812 -11.945312 15.296875 -11.742188 15.296875 -11.453125 L 15.296875 -1.65625 C 15.296875 -1.351562 15.382812 -1.144531 15.5625 -1.03125 C 15.738281 -0.914062 15.976562 -0.859375 16.28125 -0.859375 L 16.421875 -0.859375 L 16.421875 0 L 11.5625 0 L 11.5625 -0.859375 L 11.703125 -0.859375 C 12.015625 -0.859375 12.257812 -0.914062 12.4375 -1.03125 C 12.613281 -1.144531 12.703125 -1.351562 12.703125 -1.65625 L 12.703125 -10.640625 L 8.546875 -0.203125 L 7.765625 -0.203125 L 2.84375 -10.21875 L 2.84375 -2.109375 C 2.84375 -1.535156 3.023438 -1.179688 3.390625 -1.046875 C 3.753906 -0.921875 4.21875 -0.859375 4.78125 -0.859375 L 4.921875 -0.859375 Z M 4.921875 0 "/></g></g></g><g fill="#ffffff" fill-opacity="1"><g transform="translate(48.30289, 18.893155)"><g><path d="M 5.125 0 L 0.046875 0 L 0.046875 -0.859375 L 0.1875 -0.859375 C 0.664062 -0.878906 1.066406 -1.019531 1.390625 -1.28125 C 1.722656 -1.550781 1.984375 -1.90625 2.171875 -2.34375 L 6.8125 -13.09375 L 7.734375 -13.09375 L 12.5625 -1.78125 C 12.707031 -1.4375 12.878906 -1.195312 13.078125 -1.0625 C 13.285156 -0.925781 13.5625 -0.859375 13.90625 -0.859375 L 14.046875 -0.859375 L 14.046875 0 L 8.703125 0 L 8.703125 -0.859375 L 8.84375 -0.859375 C 9.019531 -0.859375 9.226562 -0.878906 9.46875 -0.921875 C 9.71875 -0.960938 9.84375 -1.101562 9.84375 -1.34375 C 9.84375 -1.46875 9.820312 -1.578125 9.78125 -1.671875 L 8.390625 -4.9375 L 4.359375 -4.9375 L 3.21875 -2.234375 C 3.195312 -2.171875 3.175781 -2.085938 3.15625 -1.984375 C 3.144531 -1.878906 3.140625 -1.78125 3.140625 -1.6875 C 3.140625 -1.351562 3.273438 -1.140625 3.546875 -1.046875 C 3.828125 -0.953125 4.097656 -0.890625 4.359375 -0.859375 C 4.460938 -0.859375 4.566406 -0.859375 4.671875 -0.859375 C 4.785156 -0.859375 4.890625 -0.859375 4.984375 -0.859375 L 5.125 -0.859375 Z M 6.34375 -9.734375 L 4.703125 -5.8125 L 8.015625 -5.8125 Z M 6.34375 -9.734375 "/></g></g></g><g fill="#ffffff" fill-opacity="1"><g transform="translate(64.438676, 18.893155)"><g><path d="M 0.1875 0 L 0.1875 -0.859375 L 0.328125 -0.859375 C 0.816406 -0.859375 1.179688 -0.945312 1.421875 -1.125 C 1.671875 -1.300781 1.796875 -1.628906 1.796875 -2.109375 L 1.796875 -11.421875 C 1.796875 -11.628906 1.71875 -11.789062 1.5625 -11.90625 C 1.414062 -12.019531 1.238281 -12.101562 1.03125 -12.15625 C 0.820312 -12.207031 0.640625 -12.234375 0.484375 -12.234375 L 0.34375 -12.234375 L 0.34375 -13.09375 L 4.015625 -13.09375 L 10.28125 -4.46875 L 10.28125 -10.984375 C 10.28125 -11.492188 10.09375 -11.828125 9.71875 -11.984375 C 9.351562 -12.148438 8.921875 -12.234375 8.421875 -12.234375 L 8.28125 -12.234375 L 8.28125 -13.09375 L 12.84375 -13.09375 L 12.84375 -12.234375 L 12.703125 -12.234375 C 12.210938 -12.234375 11.832031 -12.148438 11.5625 -11.984375 C 11.300781 -11.816406 11.171875 -11.484375 11.171875 -10.984375 L 11.171875 0 L 10.359375 0 L 2.6875 -10.515625 L 2.6875 -2.109375 C 2.6875 -1.617188 2.867188 -1.285156 3.234375 -1.109375 C 3.609375 -0.941406 4.039062 -0.859375 4.53125 -0.859375 L 4.671875 -0.859375 L 4.671875 0 Z M 0.1875 0 "/></g></g></g><g fill="#ffffff" fill-opacity="1"><g transform="translate(79.547311, 18.893155)"><g><path d="M 0.09375 -8.90625 L 0.984375 -13.09375 L 11.734375 -13.09375 L 12.65625 -8.90625 L 11.828125 -8.875 L 11.796875 -8.953125 C 11.566406 -9.460938 11.28125 -9.96875 10.9375 -10.46875 C 10.601562 -10.976562 10.21875 -11.398438 9.78125 -11.734375 C 9.34375 -12.066406 8.84375 -12.234375 8.28125 -12.234375 L 7.5625 -12.234375 L 7.5625 -1.65625 C 7.5625 -1.351562 7.648438 -1.140625 7.828125 -1.015625 C 8.015625 -0.898438 8.253906 -0.847656 8.546875 -0.859375 L 8.6875 -0.859375 L 8.6875 0 L 3.828125 0 L 3.828125 -0.859375 L 3.96875 -0.859375 C 4.625 -0.835938 4.953125 -1.101562 4.953125 -1.65625 L 4.953125 -12.234375 L 4.234375 -12.234375 C 3.710938 -12.234375 3.242188 -12.0625 2.828125 -11.71875 C 2.421875 -11.375 2.066406 -10.945312 1.765625 -10.4375 C 1.472656 -9.925781 1.210938 -9.429688 0.984375 -8.953125 L 0.953125 -8.875 Z M 0.09375 -8.90625 "/></g></g></g><g fill="#ffffff" fill-opacity="1"><g transform="translate(94.373964, 18.893155)"><g><path d="M 0.28125 -12.234375 L 0.140625 -12.234375 L 0.140625 -13.09375 L 5.015625 -13.09375 L 5.015625 -12.234375 L 4.875 -12.234375 C 4.570312 -12.234375 4.328125 -12.175781 4.140625 -12.0625 C 3.960938 -11.945312 3.875 -11.742188 3.875 -11.453125 L 3.875 -6.765625 L 9.109375 -6.765625 L 9.109375 -11.453125 C 9.109375 -11.742188 9.015625 -11.945312 8.828125 -12.0625 C 8.648438 -12.175781 8.410156 -12.234375 8.109375 -12.234375 L 7.96875 -12.234375 L 7.96875 -13.09375 L 12.84375 -13.09375 L 12.84375 -12.234375 L 12.703125 -12.234375 C 12.390625 -12.234375 12.144531 -12.175781 11.96875 -12.0625 C 11.789062 -11.945312 11.703125 -11.742188 11.703125 -11.453125 L 11.703125 -1.65625 C 11.703125 -1.351562 11.789062 -1.144531 11.96875 -1.03125 C 12.144531 -0.914062 12.390625 -0.859375 12.703125 -0.859375 L 12.84375 -0.859375 L 12.84375 0 L 7.96875 0 L 7.96875 -0.859375 L 8.109375 -0.859375 C 8.410156 -0.859375 8.648438 -0.914062 8.828125 -1.03125 C 9.015625 -1.144531 9.109375 -1.351562 9.109375 -1.65625 L 9.109375 -5.90625 L 3.875 -5.90625 L 3.875 -1.65625 C 3.875 -1.351562 3.960938 -1.144531 4.140625 -1.03125 C 4.328125 -0.914062 4.570312 -0.859375 4.875 -0.859375 L 5.015625 -0.859375 L 5.015625 0 L 0.140625 0 L 0.140625 -0.859375 L 0.28125 -0.859375 C 0.59375 -0.859375 0.835938 -0.914062 1.015625 -1.03125 C 1.203125 -1.144531 1.296875 -1.351562 1.296875 -1.65625 L 1.296875 -11.453125 C 1.296875 -11.742188 1.203125 -11.945312 1.015625 -12.0625 C 0.835938 -12.175781 0.59375 -12.234375 0.28125 -12.234375 Z M 0.28125 -12.234375 "/></g></g></g><g fill="#ffffff" fill-opacity="1"><g transform="translate(109.663854, 18.893155)"><g><path d="M 5.125 0 L 0.046875 0 L 0.046875 -0.859375 L 0.1875 -0.859375 C 0.664062 -0.878906 1.066406 -1.019531 1.390625 -1.28125 C 1.722656 -1.550781 1.984375 -1.90625 2.171875 -2.34375 L 6.8125 -13.09375 L 7.734375 -13.09375 L 12.5625 -1.78125 C 12.707031 -1.4375 12.878906 -1.195312 13.078125 -1.0625 C 13.285156 -0.925781 13.5625 -0.859375 13.90625 -0.859375 L 14.046875 -0.859375 L 14.046875 0 L 8.703125 0 L 8.703125 -0.859375 L 8.84375 -0.859375 C 9.019531 -0.859375 9.226562 -0.878906 9.46875 -0.921875 C 9.71875 -0.960938 9.84375 -1.101562 9.84375 -1.34375 C 9.84375 -1.46875 9.820312 -1.578125 9.78125 -1.671875 L 8.390625 -4.9375 L 4.359375 -4.9375 L 3.21875 -2.234375 C 3.195312 -2.171875 3.175781 -2.085938 3.15625 -1.984375 C 3.144531 -1.878906 3.140625 -1.78125 3.140625 -1.6875 C 3.140625 -1.351562 3.273438 -1.140625 3.546875 -1.046875 C 3.828125 -0.953125 4.097656 -0.890625 4.359375 -0.859375 C 4.460938 -0.859375 4.566406 -0.859375 4.671875 -0.859375 C 4.785156 -0.859375 4.890625 -0.859375 4.984375 -0.859375 L 5.125 -0.859375 Z M 6.34375 -9.734375 L 4.703125 -5.8125 L 8.015625 -5.8125 Z M 6.34375 -9.734375 "/></g></g></g><g fill="#ffffff" fill-opacity="1"><g transform="translate(0.942833, 38.423164)"><g><path d="M 0.1875 0 L 0.1875 -0.859375 L 0.328125 -0.859375 C 0.816406 -0.859375 1.179688 -0.945312 1.421875 -1.125 C 1.671875 -1.300781 1.796875 -1.628906 1.796875 -2.109375 L 1.796875 -11.421875 C 1.796875 -11.628906 1.71875 -11.789062 1.5625 -11.90625 C 1.414062 -12.019531 1.238281 -12.101562 1.03125 -12.15625 C 0.820312 -12.207031 0.640625 -12.234375 0.484375 -12.234375 L 0.34375 -12.234375 L 0.34375 -13.09375 L 4.015625 -13.09375 L 10.28125 -4.46875 L 10.28125 -10.984375 C 10.28125 -11.492188 10.09375 -11.828125 9.71875 -11.984375 C 9.351562 -12.148438 8.921875 -12.234375 8.421875 -12.234375 L 8.28125 -12.234375 L 8.28125 -13.09375 L 12.84375 -13.09375 L 12.84375 -12.234375 L 12.703125 -12.234375 C 12.210938 -12.234375 11.832031 -12.148438 11.5625 -11.984375 C 11.300781 -11.816406 11.171875 -11.484375 11.171875 -10.984375 L 11.171875 0 L 10.359375 0 L 2.6875 -10.515625 L 2.6875 -2.109375 C 2.6875 -1.617188 2.867188 -1.285156 3.234375 -1.109375 C 3.609375 -0.941406 4.039062 -0.859375 4.53125 -0.859375 L 4.671875 -0.859375 L 4.671875 0 Z M 0.1875 0 "/></g></g></g><g fill="#ffffff" fill-opacity="1"><g transform="translate(16.051467, 38.423164)"><g><path d="M 0.125 -0.859375 L 0.265625 -0.859375 C 0.566406 -0.847656 0.804688 -0.898438 0.984375 -1.015625 C 1.171875 -1.140625 1.265625 -1.351562 1.265625 -1.65625 L 1.265625 -11.453125 C 1.265625 -11.742188 1.171875 -11.945312 0.984375 -12.0625 C 0.804688 -12.1875 0.566406 -12.242188 0.265625 -12.234375 L 0.125 -12.234375 L 0.125 -13.09375 L 9.859375 -13.09375 L 10.765625 -8.90625 L 9.921875 -8.875 L 9.875 -8.96875 C 9.78125 -9.164062 9.695312 -9.375 9.625 -9.59375 C 9.550781 -9.8125 9.460938 -10.019531 9.359375 -10.21875 C 9.046875 -10.894531 8.644531 -11.398438 8.15625 -11.734375 C 7.664062 -12.066406 7.03125 -12.234375 6.25 -12.234375 L 3.84375 -12.234375 L 3.84375 -6.8125 C 4.195312 -6.8125 4.539062 -6.8125 4.875 -6.8125 C 5.207031 -6.820312 5.546875 -6.828125 5.890625 -6.828125 C 6.597656 -6.847656 7.148438 -6.960938 7.546875 -7.171875 C 7.953125 -7.390625 8.164062 -7.847656 8.1875 -8.546875 L 8.1875 -8.671875 L 9.046875 -8.671875 L 9.046875 -4.421875 L 8.15625 -4.421875 L 8.15625 -4.53125 C 8.175781 -4.976562 8.082031 -5.296875 7.875 -5.484375 C 7.664062 -5.671875 7.390625 -5.785156 7.046875 -5.828125 C 6.703125 -5.878906 6.316406 -5.90625 5.890625 -5.90625 C 5.546875 -5.914062 5.207031 -5.921875 4.875 -5.921875 C 4.539062 -5.921875 4.195312 -5.921875 3.84375 -5.921875 L 3.84375 -0.859375 L 7.203125 -0.859375 C 7.878906 -0.859375 8.425781 -1.039062 8.84375 -1.40625 C 9.257812 -1.769531 9.601562 -2.242188 9.875 -2.828125 C 9.976562 -3.035156 10.070312 -3.253906 10.15625 -3.484375 C 10.238281 -3.710938 10.328125 -3.9375 10.421875 -4.15625 L 10.46875 -4.234375 L 11.28125 -4.1875 L 10.40625 0 L 0.125 0 Z M 0.125 -0.859375 "/></g></g></g><g fill="#ffffff" fill-opacity="1"><g transform="translate(29.56901, 38.423164)"><g><path d="M 0.078125 -13.09375 L 4.953125 -13.09375 L 4.953125 -12.234375 L 4.8125 -12.234375 C 4.507812 -12.234375 4.265625 -12.175781 4.078125 -12.0625 C 3.898438 -11.945312 3.8125 -11.742188 3.8125 -11.453125 L 3.84375 -0.859375 L 5.28125 -0.859375 C 5.894531 -0.859375 6.5 -0.941406 7.09375 -1.109375 C 7.6875 -1.285156 8.21875 -1.546875 8.6875 -1.890625 C 9.164062 -2.242188 9.535156 -2.695312 9.796875 -3.25 L 9.84375 -3.34375 L 10.6875 -3.3125 L 9.78125 0 L 0.078125 0 L 0.078125 -0.859375 L 0.21875 -0.859375 C 0.53125 -0.859375 0.773438 -0.914062 0.953125 -1.03125 C 1.140625 -1.144531 1.234375 -1.351562 1.234375 -1.65625 L 1.234375 -11.453125 C 1.234375 -11.742188 1.140625 -11.945312 0.953125 -12.0625 C 0.773438 -12.175781 0.53125 -12.234375 0.21875 -12.234375 L 0.078125 -12.234375 Z M 0.078125 -13.09375 "/></g></g></g><g fill="#ffffff" fill-opacity="1"><g transform="translate(42.482339, 38.423164)"><g><path d="M 0.28125 -1.625 C 0.25 -1.6875 0.234375 -1.75 0.234375 -1.8125 L 0.640625 -4.703125 L 1.4375 -4.59375 L 1.4375 -4.5 C 1.488281 -4.039062 1.628906 -3.582031 1.859375 -3.125 C 2.085938 -2.675781 2.382812 -2.265625 2.75 -1.890625 C 3.125 -1.515625 3.535156 -1.210938 3.984375 -0.984375 C 4.429688 -0.753906 4.90625 -0.640625 5.40625 -0.640625 C 5.976562 -0.640625 6.460938 -0.8125 6.859375 -1.15625 C 7.253906 -1.5 7.453125 -1.945312 7.453125 -2.5 C 7.453125 -2.90625 7.335938 -3.253906 7.109375 -3.546875 C 6.878906 -3.835938 6.597656 -4.097656 6.265625 -4.328125 C 5.941406 -4.554688 5.628906 -4.753906 5.328125 -4.921875 C 5.117188 -5.023438 4.90625 -5.132812 4.6875 -5.25 C 4.476562 -5.363281 4.265625 -5.472656 4.046875 -5.578125 C 3.472656 -5.878906 2.910156 -6.207031 2.359375 -6.5625 C 1.816406 -6.914062 1.367188 -7.335938 1.015625 -7.828125 C 0.671875 -8.316406 0.5 -8.910156 0.5 -9.609375 C 0.5 -10.460938 0.726562 -11.160156 1.1875 -11.703125 C 1.644531 -12.253906 2.234375 -12.660156 2.953125 -12.921875 C 3.671875 -13.191406 4.414062 -13.328125 5.1875 -13.328125 C 5.539062 -13.328125 5.953125 -13.289062 6.421875 -13.21875 C 6.898438 -13.15625 7.363281 -13.046875 7.8125 -12.890625 C 8.257812 -12.742188 8.625 -12.546875 8.90625 -12.296875 C 8.945312 -12.265625 9 -12.210938 9.0625 -12.140625 C 9.101562 -12.097656 9.132812 -12.054688 9.15625 -12.015625 C 9.175781 -11.984375 9.195312 -11.941406 9.21875 -11.890625 L 9.578125 -8.90625 L 8.703125 -8.90625 L 8.6875 -8.984375 C 8.550781 -9.347656 8.359375 -9.734375 8.109375 -10.140625 C 7.859375 -10.546875 7.566406 -10.925781 7.234375 -11.28125 C 6.898438 -11.644531 6.535156 -11.9375 6.140625 -12.15625 C 5.753906 -12.382812 5.347656 -12.5 4.921875 -12.5 C 4.359375 -12.5 3.894531 -12.347656 3.53125 -12.046875 C 3.175781 -11.742188 3 -11.316406 3 -10.765625 C 3 -10.359375 3.09375 -10.003906 3.28125 -9.703125 C 3.46875 -9.398438 3.722656 -9.113281 4.046875 -8.84375 C 4.398438 -8.550781 4.78125 -8.289062 5.1875 -8.0625 C 5.601562 -7.84375 6.019531 -7.632812 6.4375 -7.4375 C 7.007812 -7.125 7.566406 -6.789062 8.109375 -6.4375 C 8.648438 -6.082031 9.097656 -5.660156 9.453125 -5.171875 C 9.816406 -4.691406 10 -4.101562 10 -3.40625 C 10 -2.738281 9.847656 -2.171875 9.546875 -1.703125 C 9.253906 -1.234375 8.863281 -0.859375 8.375 -0.578125 C 7.882812 -0.296875 7.347656 -0.0976562 6.765625 0.015625 C 6.179688 0.140625 5.597656 0.203125 5.015625 0.203125 C 4.546875 0.203125 4.03125 0.144531 3.46875 0.03125 C 2.914062 -0.0703125 2.375 -0.234375 1.84375 -0.453125 C 1.320312 -0.671875 0.890625 -0.953125 0.546875 -1.296875 C 0.535156 -1.316406 0.507812 -1.34375 0.46875 -1.375 C 0.4375 -1.414062 0.398438 -1.453125 0.359375 -1.484375 C 0.347656 -1.515625 0.332031 -1.539062 0.3125 -1.5625 C 0.300781 -1.59375 0.289062 -1.613281 0.28125 -1.625 Z M 0.28125 -1.625 "/></g></g></g><g fill="#ffffff" fill-opacity="1"><g transform="translate(54.831728, 38.423164)"><g><path d="M 0.4375 -6.609375 C 0.4375 -7.472656 0.546875 -8.300781 0.765625 -9.09375 C 0.984375 -9.894531 1.316406 -10.613281 1.765625 -11.25 C 2.222656 -11.894531 2.816406 -12.398438 3.546875 -12.765625 C 4.273438 -13.140625 5.148438 -13.328125 6.171875 -13.328125 C 7.171875 -13.328125 8.035156 -13.140625 8.765625 -12.765625 C 9.492188 -12.398438 10.085938 -11.90625 10.546875 -11.28125 C 11.015625 -10.65625 11.351562 -9.941406 11.5625 -9.140625 C 11.78125 -8.335938 11.890625 -7.515625 11.890625 -6.671875 C 11.890625 -5.828125 11.78125 -5 11.5625 -4.1875 C 11.351562 -3.375 11.015625 -2.632812 10.546875 -1.96875 C 10.085938 -1.3125 9.488281 -0.785156 8.75 -0.390625 C 8.019531 0.00390625 7.144531 0.203125 6.125 0.203125 C 5.101562 0.203125 4.234375 0.0078125 3.515625 -0.375 C 2.796875 -0.769531 2.210938 -1.289062 1.765625 -1.9375 C 1.316406 -2.59375 0.984375 -3.328125 0.765625 -4.140625 C 0.546875 -4.953125 0.4375 -5.773438 0.4375 -6.609375 Z M 3.171875 -6.59375 C 3.171875 -6.21875 3.1875 -5.769531 3.21875 -5.25 C 3.257812 -4.726562 3.335938 -4.203125 3.453125 -3.671875 C 3.566406 -3.140625 3.734375 -2.644531 3.953125 -2.1875 C 4.179688 -1.738281 4.472656 -1.375 4.828125 -1.09375 C 5.179688 -0.8125 5.617188 -0.671875 6.140625 -0.671875 C 6.679688 -0.671875 7.128906 -0.8125 7.484375 -1.09375 C 7.835938 -1.375 8.125 -1.738281 8.34375 -2.1875 C 8.570312 -2.644531 8.742188 -3.144531 8.859375 -3.6875 C 8.984375 -4.226562 9.066406 -4.753906 9.109375 -5.265625 C 9.148438 -5.785156 9.171875 -6.234375 9.171875 -6.609375 C 9.171875 -7.003906 9.148438 -7.457031 9.109375 -7.96875 C 9.066406 -8.476562 8.988281 -8.992188 8.875 -9.515625 C 8.757812 -10.035156 8.59375 -10.519531 8.375 -10.96875 C 8.15625 -11.425781 7.863281 -11.789062 7.5 -12.0625 C 7.132812 -12.34375 6.691406 -12.484375 6.171875 -12.484375 C 5.628906 -12.484375 5.179688 -12.34375 4.828125 -12.0625 C 4.472656 -11.789062 4.179688 -11.425781 3.953125 -10.96875 C 3.734375 -10.519531 3.566406 -10.035156 3.453125 -9.515625 C 3.335938 -8.992188 3.257812 -8.472656 3.21875 -7.953125 C 3.1875 -7.429688 3.171875 -6.976562 3.171875 -6.59375 Z M 3.171875 -6.59375 "/></g></g></g><g fill="#ffffff" fill-opacity="1"><g transform="translate(69.175019, 38.423164)"><g><path d="M 0.1875 0 L 0.1875 -0.859375 L 0.328125 -0.859375 C 0.816406 -0.859375 1.179688 -0.945312 1.421875 -1.125 C 1.671875 -1.300781 1.796875 -1.628906 1.796875 -2.109375 L 1.796875 -11.421875 C 1.796875 -11.628906 1.71875 -11.789062 1.5625 -11.90625 C 1.414062 -12.019531 1.238281 -12.101562 1.03125 -12.15625 C 0.820312 -12.207031 0.640625 -12.234375 0.484375 -12.234375 L 0.34375 -12.234375 L 0.34375 -13.09375 L 4.015625 -13.09375 L 10.28125 -4.46875 L 10.28125 -10.984375 C 10.28125 -11.492188 10.09375 -11.828125 9.71875 -11.984375 C 9.351562 -12.148438 8.921875 -12.234375 8.421875 -12.234375 L 8.28125 -12.234375 L 8.28125 -13.09375 L 12.84375 -13.09375 L 12.84375 -12.234375 L 12.703125 -12.234375 C 12.210938 -12.234375 11.832031 -12.148438 11.5625 -11.984375 C 11.300781 -11.816406 11.171875 -11.484375 11.171875 -10.984375 L 11.171875 0 L 10.359375 0 L 2.6875 -10.515625 L 2.6875 -2.109375 C 2.6875 -1.617188 2.867188 -1.285156 3.234375 -1.109375 C 3.609375 -0.941406 4.039062 -0.859375 4.53125 -0.859375 L 4.671875 -0.859375 L 4.671875 0 Z M 0.1875 0 "/></g></g></g></g></g></svg>