<svg xmlns="http://www.w3.org/2000/svg" xmlns:xlink="http://www.w3.org/1999/xlink" width="500" zoomAndPan="magnify" viewBox="0 0 375 374.999991" height="500" preserveAspectRatio="xMidYMid meet" version="1.0"><defs><g/><clipPath id="555addda3d"><path d="M 87 23.691406 L 337.496094 23.691406 L 337.496094 284.691406 L 87 284.691406 Z M 87 23.691406 " clip-rule="nonzero"/></clipPath><clipPath id="1d7fd60aa2"><rect x="0" width="211" y="0" height="36"/></clipPath><clipPath id="b41861dfda"><rect x="0" width="67" y="0" height="37"/></clipPath><clipPath id="b2df182b9e"><rect x="0" width="66" y="0" height="37"/></clipPath></defs><g clip-path="url(#555addda3d)"><path fill="#ffffff" d="M 250.089844 229.347656 C 250.089844 245.039062 243.863281 258.507812 231.417969 269.765625 C 220.675781 279.488281 206.351562 284.351562 188.441406 284.351562 C 177.527344 284.351562 167.808594 282.304688 159.28125 278.214844 C 143.246094 270.703125 133.617188 257.921875 130.375 239.84375 C 129.863281 237.117188 129.609375 233.664062 129.609375 229.488281 C 129.609375 225.308594 130.800781 219.601562 133.1875 212.347656 C 134.945312 207.003906 137.914062 201.640625 142.082031 196.25 L 143.894531 200.40625 C 138.628906 209.671875 136 219.488281 136 229.867188 C 136 245.902344 142.734375 258.351562 156.207031 267.214844 C 164.046875 272.5 172.960938 275.148438 182.9375 275.148438 C 192.910156 275.148438 201.5625 273.183594 208.898438 269.265625 C 222.714844 262.101562 230.472656 250.078125 232.175781 233.199219 C 232.34375 232.007812 232.429688 230.808594 232.429688 229.617188 C 232.429688 223.3125 230.675781 216.488281 227.1875 209.152344 C 223.691406 201.824219 218.015625 195.082031 210.179688 188.945312 L 164.136719 152.621094 C 154.070312 144.777344 149.046875 134.632812 149.046875 122.179688 C 149.046875 109.734375 153.050781 99.203125 161.066406 90.585938 C 169.078125 81.976562 179.90625 77.667969 193.550781 77.667969 C 200.371094 77.667969 207.792969 78.523438 215.808594 80.226562 L 226.039062 80.226562 L 226.550781 111.6875 L 223.996094 111.6875 C 223.824219 103.503906 220.882812 97.070312 215.167969 92.378906 C 209.453125 87.691406 202.289062 85.34375 193.679688 85.34375 C 185.0625 85.34375 177.859375 88.203125 172.066406 93.914062 C 166.265625 99.625 163.371094 106.960938 163.371094 115.910156 C 163.371094 124.859375 167.117188 132.324219 174.628906 138.292969 L 221.949219 175.640625 C 240.710938 190.472656 250.089844 208.375 250.089844 229.347656 Z M 183.625 269.003906 L 185.925781 269.003906 C 185.925781 265.253906 189.082031 256.472656 195.390625 242.65625 L 214.777344 200.261719 C 212.5 197.777344 209.886719 195.378906 206.945312 193.070312 L 205.910156 192.253906 L 186.441406 238.816406 L 132.976562 104.785156 C 132.117188 102.738281 131.695312 101.035156 131.695312 99.667969 C 131.695312 98.308594 131.863281 97.109375 132.207031 96.089844 C 133.914062 91.316406 137.324219 88.925781 142.4375 88.925781 L 144.742188 88.925781 L 144.742188 86.367188 L 87.1875 86.367188 L 87.1875 88.925781 L 89.230469 88.925781 C 93.492188 88.925781 97.714844 90.25 101.890625 92.890625 C 106.070312 95.539062 109.351562 99.585938 111.742188 105.042969 Z M 327.898438 23.691406 C 322.953125 23.691406 316.46875 24.804688 308.457031 27.019531 C 300.441406 29.238281 293.535156 32.308594 287.738281 36.226562 C 272.558594 46.457031 259.9375 63.429688 249.878906 87.128906 L 217.226562 165.203125 L 225.210938 171.503906 C 225.886719 172.035156 226.542969 172.574219 227.191406 173.109375 L 266.503906 87.128906 C 269.574219 80.480469 272.261719 75.023438 274.5625 70.757812 C 276.867188 66.496094 280.144531 61.335938 284.414062 55.277344 C 288.675781 49.226562 293.066406 44.367188 297.585938 40.695312 C 302.105469 37.03125 307.859375 33.792969 314.855469 30.972656 C 321.84375 28.164062 329.347656 26.585938 337.367188 26.238281 L 337.367188 23.691406 C 335.992188 23.691406 332.839844 23.691406 327.898438 23.691406 Z M 327.898438 23.691406 " fill-opacity="1" fill-rule="nonzero"/></g><g transform="matrix(1, 0, 0, 1, 83, 295)"><g clip-path="url(#1d7fd60aa2)"><g fill="#ffffff" fill-opacity="1"><g transform="translate(1.032043, 28.351696)"><g><path d="M 8.84375 -17.953125 L 8.84375 -17.453125 C 8.269531 -17.429688 7.832031 -17.363281 7.53125 -17.25 C 7.238281 -17.144531 7.039062 -16.941406 6.9375 -16.640625 C 6.84375 -16.347656 6.796875 -15.890625 6.796875 -15.265625 L 6.796875 -2.390625 C 6.796875 -1.859375 6.832031 -1.46875 6.90625 -1.21875 C 6.988281 -0.96875 7.140625 -0.796875 7.359375 -0.703125 C 7.585938 -0.617188 7.929688 -0.578125 8.390625 -0.578125 L 9.640625 -0.578125 C 10.210938 -0.578125 10.75 -0.710938 11.25 -0.984375 C 11.757812 -1.253906 12.21875 -1.640625 12.625 -2.140625 C 13.03125 -2.640625 13.367188 -3.234375 13.640625 -3.921875 C 13.910156 -4.617188 14.113281 -5.390625 14.25 -6.234375 L 14.828125 -6.234375 C 14.785156 -5.660156 14.765625 -4.914062 14.765625 -4 C 14.765625 -3.613281 14.769531 -3.046875 14.78125 -2.296875 C 14.800781 -1.554688 14.851562 -0.789062 14.9375 0 C 14.070312 -0.03125 13.097656 -0.0507812 12.015625 -0.0625 C 10.929688 -0.0703125 9.96875 -0.078125 9.125 -0.078125 C 8.707031 -0.078125 8.164062 -0.078125 7.5 -0.078125 C 6.84375 -0.078125 6.132812 -0.0703125 5.375 -0.0625 C 4.613281 -0.0507812 3.84375 -0.0390625 3.0625 -0.03125 C 2.289062 -0.03125 1.554688 -0.0195312 0.859375 0 L 0.859375 -0.5 C 1.398438 -0.539062 1.804688 -0.609375 2.078125 -0.703125 C 2.347656 -0.804688 2.53125 -1.007812 2.625 -1.3125 C 2.71875 -1.625 2.765625 -2.082031 2.765625 -2.6875 L 2.765625 -15.265625 C 2.765625 -15.890625 2.71875 -16.347656 2.625 -16.640625 C 2.53125 -16.941406 2.34375 -17.144531 2.0625 -17.25 C 1.78125 -17.363281 1.378906 -17.429688 0.859375 -17.453125 L 0.859375 -17.953125 C 1.285156 -17.929688 1.859375 -17.910156 2.578125 -17.890625 C 3.296875 -17.878906 4.0625 -17.875 4.875 -17.875 C 5.613281 -17.875 6.34375 -17.878906 7.0625 -17.890625 C 7.78125 -17.910156 8.375 -17.929688 8.84375 -17.953125 Z M 8.84375 -17.953125 "/></g></g></g><g fill="#ffffff" fill-opacity="1"><g transform="translate(18.568756, 28.351696)"><g><path d="M 8.703125 -17.953125 L 8.703125 -17.453125 C 8.160156 -17.429688 7.75 -17.363281 7.46875 -17.25 C 7.1875 -17.144531 7.003906 -16.941406 6.921875 -16.640625 C 6.835938 -16.347656 6.796875 -15.890625 6.796875 -15.265625 L 6.796875 -2.6875 C 6.796875 -2.082031 6.84375 -1.625 6.9375 -1.3125 C 7.03125 -1.007812 7.210938 -0.804688 7.484375 -0.703125 C 7.753906 -0.609375 8.160156 -0.539062 8.703125 -0.5 L 8.703125 0 C 8.242188 -0.03125 7.664062 -0.0507812 6.96875 -0.0625 C 6.28125 -0.0703125 5.582031 -0.078125 4.875 -0.078125 C 4.039062 -0.078125 3.269531 -0.0703125 2.5625 -0.0625 C 1.863281 -0.0507812 1.296875 -0.03125 0.859375 0 L 0.859375 -0.5 C 1.398438 -0.539062 1.804688 -0.609375 2.078125 -0.703125 C 2.347656 -0.804688 2.53125 -1.007812 2.625 -1.3125 C 2.71875 -1.625 2.765625 -2.082031 2.765625 -2.6875 L 2.765625 -15.265625 C 2.765625 -15.890625 2.71875 -16.347656 2.625 -16.640625 C 2.53125 -16.941406 2.34375 -17.144531 2.0625 -17.25 C 1.78125 -17.363281 1.378906 -17.429688 0.859375 -17.453125 L 0.859375 -17.953125 C 1.296875 -17.929688 1.863281 -17.910156 2.5625 -17.890625 C 3.269531 -17.878906 4.039062 -17.875 4.875 -17.875 C 5.582031 -17.875 6.28125 -17.878906 6.96875 -17.890625 C 7.664062 -17.910156 8.242188 -17.929688 8.703125 -17.953125 Z M 8.703125 -17.953125 "/></g></g></g><g fill="#ffffff" fill-opacity="1"><g transform="translate(30.150882, 28.351696)"><g><path d="M 10.0625 -18.3125 C 11.175781 -18.3125 12.09375 -18.144531 12.8125 -17.8125 C 13.53125 -17.488281 14.171875 -17.101562 14.734375 -16.65625 C 15.066406 -16.40625 15.320312 -16.375 15.5 -16.5625 C 15.6875 -16.757812 15.8125 -17.222656 15.875 -17.953125 L 16.453125 -17.953125 C 16.421875 -17.296875 16.394531 -16.5 16.375 -15.5625 C 16.363281 -14.625 16.359375 -13.375 16.359375 -11.8125 L 15.78125 -11.8125 C 15.6875 -12.59375 15.570312 -13.253906 15.4375 -13.796875 C 15.300781 -14.347656 15.113281 -14.835938 14.875 -15.265625 C 14.644531 -15.691406 14.3125 -16.070312 13.875 -16.40625 C 13.445312 -16.832031 12.953125 -17.144531 12.390625 -17.34375 C 11.835938 -17.550781 11.257812 -17.65625 10.65625 -17.65625 C 9.738281 -17.65625 8.957031 -17.410156 8.3125 -16.921875 C 7.675781 -16.441406 7.15625 -15.785156 6.75 -14.953125 C 6.351562 -14.128906 6.0625 -13.195312 5.875 -12.15625 C 5.695312 -11.113281 5.609375 -10.035156 5.609375 -8.921875 C 5.609375 -7.796875 5.703125 -6.710938 5.890625 -5.671875 C 6.085938 -4.628906 6.394531 -3.703125 6.8125 -2.890625 C 7.226562 -2.078125 7.765625 -1.429688 8.421875 -0.953125 C 9.078125 -0.484375 9.851562 -0.25 10.75 -0.25 C 11.3125 -0.25 11.875 -0.351562 12.4375 -0.5625 C 13 -0.78125 13.484375 -1.09375 13.890625 -1.5 C 14.554688 -2 15.003906 -2.625 15.234375 -3.375 C 15.472656 -4.132812 15.65625 -5.140625 15.78125 -6.390625 L 16.359375 -6.390625 C 16.359375 -4.785156 16.363281 -3.488281 16.375 -2.5 C 16.394531 -1.507812 16.421875 -0.675781 16.453125 0 L 15.875 0 C 15.8125 -0.726562 15.695312 -1.179688 15.53125 -1.359375 C 15.375 -1.546875 15.109375 -1.523438 14.734375 -1.296875 C 14.109375 -0.859375 13.441406 -0.472656 12.734375 -0.140625 C 12.035156 0.191406 11.140625 0.359375 10.046875 0.359375 C 8.253906 0.359375 6.6875 -0.00390625 5.34375 -0.734375 C 4 -1.460938 2.953125 -2.507812 2.203125 -3.875 C 1.460938 -5.25 1.09375 -6.898438 1.09375 -8.828125 C 1.09375 -10.722656 1.472656 -12.378906 2.234375 -13.796875 C 3.003906 -15.210938 4.0625 -16.316406 5.40625 -17.109375 C 6.757812 -17.910156 8.3125 -18.3125 10.0625 -18.3125 Z M 10.0625 -18.3125 "/></g></g></g><g fill="#ffffff" fill-opacity="1"><g transform="translate(50.069441, 28.351696)"><g><path d="M 14.421875 -17.953125 C 14.359375 -17.210938 14.3125 -16.492188 14.28125 -15.796875 C 14.257812 -15.109375 14.25 -14.578125 14.25 -14.203125 C 14.25 -13.859375 14.253906 -13.535156 14.265625 -13.234375 C 14.285156 -12.929688 14.304688 -12.679688 14.328125 -12.484375 L 13.75 -12.484375 C 13.570312 -13.710938 13.304688 -14.6875 12.953125 -15.40625 C 12.597656 -16.125 12.140625 -16.628906 11.578125 -16.921875 C 11.015625 -17.222656 10.347656 -17.375 9.578125 -17.375 L 8.546875 -17.375 C 8.054688 -17.375 7.679688 -17.332031 7.421875 -17.25 C 7.171875 -17.164062 7.003906 -16.992188 6.921875 -16.734375 C 6.835938 -16.484375 6.796875 -16.097656 6.796875 -15.578125 L 6.796875 -2.390625 C 6.796875 -1.859375 6.835938 -1.46875 6.921875 -1.21875 C 7.003906 -0.96875 7.171875 -0.796875 7.421875 -0.703125 C 7.679688 -0.617188 8.054688 -0.578125 8.546875 -0.578125 L 9.78125 -0.578125 C 10.550781 -0.578125 11.226562 -0.742188 11.8125 -1.078125 C 12.394531 -1.410156 12.890625 -1.972656 13.296875 -2.765625 C 13.710938 -3.554688 14.03125 -4.628906 14.25 -5.984375 L 14.828125 -5.984375 C 14.785156 -5.441406 14.765625 -4.734375 14.765625 -3.859375 C 14.765625 -3.460938 14.769531 -2.910156 14.78125 -2.203125 C 14.800781 -1.492188 14.851562 -0.757812 14.9375 0 C 14.070312 -0.03125 13.097656 -0.0507812 12.015625 -0.0625 C 10.929688 -0.0703125 9.96875 -0.078125 9.125 -0.078125 C 8.707031 -0.078125 8.164062 -0.078125 7.5 -0.078125 C 6.84375 -0.078125 6.132812 -0.0703125 5.375 -0.0625 C 4.613281 -0.0507812 3.84375 -0.0390625 3.0625 -0.03125 C 2.289062 -0.03125 1.554688 -0.0195312 0.859375 0 L 0.859375 -0.5 C 1.398438 -0.539062 1.804688 -0.609375 2.078125 -0.703125 C 2.347656 -0.804688 2.53125 -1.007812 2.625 -1.3125 C 2.71875 -1.625 2.765625 -2.082031 2.765625 -2.6875 L 2.765625 -15.265625 C 2.765625 -15.890625 2.71875 -16.347656 2.625 -16.640625 C 2.53125 -16.941406 2.34375 -17.144531 2.0625 -17.25 C 1.78125 -17.363281 1.378906 -17.429688 0.859375 -17.453125 L 0.859375 -17.953125 C 1.554688 -17.929688 2.289062 -17.914062 3.0625 -17.90625 C 3.84375 -17.90625 4.613281 -17.898438 5.375 -17.890625 C 6.132812 -17.878906 6.84375 -17.875 7.5 -17.875 C 8.164062 -17.875 8.707031 -17.875 9.125 -17.875 C 9.90625 -17.875 10.789062 -17.878906 11.78125 -17.890625 C 12.769531 -17.898438 13.648438 -17.921875 14.421875 -17.953125 Z M 10.46875 -9.28125 C 10.46875 -9.28125 10.46875 -9.195312 10.46875 -9.03125 C 10.46875 -8.863281 10.46875 -8.78125 10.46875 -8.78125 L 6.03125 -8.78125 C 6.03125 -8.78125 6.03125 -8.863281 6.03125 -9.03125 C 6.03125 -9.195312 6.03125 -9.28125 6.03125 -9.28125 Z M 11.203125 -12.625 C 11.140625 -11.664062 11.109375 -10.929688 11.109375 -10.421875 C 11.117188 -9.910156 11.125 -9.445312 11.125 -9.03125 C 11.125 -8.601562 11.132812 -8.132812 11.15625 -7.625 C 11.175781 -7.125 11.21875 -6.390625 11.28125 -5.421875 L 10.703125 -5.421875 C 10.617188 -6.015625 10.460938 -6.566406 10.234375 -7.078125 C 10.003906 -7.585938 9.675781 -8 9.25 -8.3125 C 8.832031 -8.625 8.285156 -8.78125 7.609375 -8.78125 L 7.609375 -9.28125 C 8.117188 -9.28125 8.550781 -9.382812 8.90625 -9.59375 C 9.257812 -9.8125 9.550781 -10.09375 9.78125 -10.4375 C 10.007812 -10.78125 10.191406 -11.144531 10.328125 -11.53125 C 10.460938 -11.925781 10.5625 -12.289062 10.625 -12.625 Z M 11.203125 -12.625 "/></g></g></g><g fill="#ffffff" fill-opacity="1"><g transform="translate(68.188949, 28.351696)"><g><path d="M 0.859375 -17.953125 C 1.285156 -17.929688 1.859375 -17.910156 2.578125 -17.890625 C 3.296875 -17.878906 4.007812 -17.875 4.71875 -17.875 C 5.53125 -17.875 6.316406 -17.878906 7.078125 -17.890625 C 7.835938 -17.910156 8.378906 -17.921875 8.703125 -17.921875 C 10.273438 -17.921875 11.578125 -17.75 12.609375 -17.40625 C 13.648438 -17.0625 14.425781 -16.554688 14.9375 -15.890625 C 15.457031 -15.234375 15.71875 -14.441406 15.71875 -13.515625 C 15.71875 -12.941406 15.597656 -12.363281 15.359375 -11.78125 C 15.128906 -11.195312 14.726562 -10.65625 14.15625 -10.15625 C 13.59375 -9.65625 12.820312 -9.253906 11.84375 -8.953125 C 10.863281 -8.660156 9.628906 -8.515625 8.140625 -8.515625 L 5.703125 -8.515625 L 5.703125 -9.03125 L 7.890625 -9.03125 C 8.890625 -9.03125 9.644531 -9.21875 10.15625 -9.59375 C 10.675781 -9.976562 11.03125 -10.488281 11.21875 -11.125 C 11.414062 -11.757812 11.515625 -12.460938 11.515625 -13.234375 C 11.515625 -14.566406 11.273438 -15.601562 10.796875 -16.34375 C 10.328125 -17.082031 9.519531 -17.453125 8.375 -17.453125 C 7.707031 -17.453125 7.273438 -17.304688 7.078125 -17.015625 C 6.890625 -16.722656 6.796875 -16.140625 6.796875 -15.265625 L 6.796875 -2.6875 C 6.796875 -2.082031 6.84375 -1.625 6.9375 -1.3125 C 7.03125 -1.007812 7.210938 -0.804688 7.484375 -0.703125 C 7.753906 -0.609375 8.160156 -0.539062 8.703125 -0.5 L 8.703125 0 C 8.242188 -0.03125 7.664062 -0.0507812 6.96875 -0.0625 C 6.28125 -0.0703125 5.582031 -0.078125 4.875 -0.078125 C 4.0625 -0.078125 3.296875 -0.0703125 2.578125 -0.0625 C 1.859375 -0.0507812 1.285156 -0.03125 0.859375 0 L 0.859375 -0.5 C 1.398438 -0.539062 1.804688 -0.609375 2.078125 -0.703125 C 2.347656 -0.804688 2.53125 -1.007812 2.625 -1.3125 C 2.71875 -1.625 2.765625 -2.082031 2.765625 -2.6875 L 2.765625 -15.265625 C 2.765625 -15.890625 2.71875 -16.347656 2.625 -16.640625 C 2.53125 -16.941406 2.34375 -17.144531 2.0625 -17.25 C 1.78125 -17.363281 1.378906 -17.429688 0.859375 -17.453125 Z M 5.65625 -8.953125 C 6.382812 -8.929688 7.015625 -8.894531 7.546875 -8.84375 C 8.078125 -8.800781 8.546875 -8.753906 8.953125 -8.703125 C 9.359375 -8.660156 9.722656 -8.632812 10.046875 -8.625 C 11.578125 -8.488281 12.710938 -8.15625 13.453125 -7.625 C 14.191406 -7.101562 14.671875 -6.320312 14.890625 -5.28125 L 15.46875 -2.65625 C 15.625 -1.976562 15.785156 -1.503906 15.953125 -1.234375 C 16.117188 -0.972656 16.363281 -0.84375 16.6875 -0.84375 C 16.90625 -0.851562 17.085938 -0.90625 17.234375 -1 C 17.378906 -1.09375 17.535156 -1.234375 17.703125 -1.421875 L 18.0625 -1.109375 C 17.601562 -0.585938 17.109375 -0.210938 16.578125 0.015625 C 16.054688 0.242188 15.425781 0.359375 14.6875 0.359375 C 13.769531 0.359375 13.015625 0.164062 12.421875 -0.21875 C 11.828125 -0.613281 11.441406 -1.335938 11.265625 -2.390625 L 10.796875 -4.921875 C 10.679688 -5.628906 10.539062 -6.25 10.375 -6.78125 C 10.207031 -7.3125 9.972656 -7.734375 9.671875 -8.046875 C 9.378906 -8.359375 8.96875 -8.515625 8.4375 -8.515625 L 5.703125 -8.515625 Z M 5.65625 -8.953125 "/></g></g></g><g fill="#ffffff" fill-opacity="1"><g transform="translate(87.778122, 28.351696)"><g><path d="M 8.703125 -17.953125 L 8.703125 -17.453125 C 8.160156 -17.429688 7.75 -17.363281 7.46875 -17.25 C 7.1875 -17.144531 7.003906 -16.941406 6.921875 -16.640625 C 6.835938 -16.347656 6.796875 -15.890625 6.796875 -15.265625 L 6.796875 -2.6875 C 6.796875 -2.082031 6.84375 -1.625 6.9375 -1.3125 C 7.03125 -1.007812 7.210938 -0.804688 7.484375 -0.703125 C 7.753906 -0.609375 8.160156 -0.539062 8.703125 -0.5 L 8.703125 0 C 8.242188 -0.03125 7.664062 -0.0507812 6.96875 -0.0625 C 6.28125 -0.0703125 5.582031 -0.078125 4.875 -0.078125 C 4.039062 -0.078125 3.269531 -0.0703125 2.5625 -0.0625 C 1.863281 -0.0507812 1.296875 -0.03125 0.859375 0 L 0.859375 -0.5 C 1.398438 -0.539062 1.804688 -0.609375 2.078125 -0.703125 C 2.347656 -0.804688 2.53125 -1.007812 2.625 -1.3125 C 2.71875 -1.625 2.765625 -2.082031 2.765625 -2.6875 L 2.765625 -15.265625 C 2.765625 -15.890625 2.71875 -16.347656 2.625 -16.640625 C 2.53125 -16.941406 2.34375 -17.144531 2.0625 -17.25 C 1.78125 -17.363281 1.378906 -17.429688 0.859375 -17.453125 L 0.859375 -17.953125 C 1.296875 -17.929688 1.863281 -17.910156 2.5625 -17.890625 C 3.269531 -17.878906 4.039062 -17.875 4.875 -17.875 C 5.582031 -17.875 6.28125 -17.878906 6.96875 -17.890625 C 7.664062 -17.910156 8.242188 -17.929688 8.703125 -17.953125 Z M 8.703125 -17.953125 "/></g></g></g><g fill="#ffffff" fill-opacity="1"><g transform="translate(99.360247, 28.351696)"><g><path d="M 9.328125 -18 L 15.5 -2.125 C 15.726562 -1.519531 15.988281 -1.101562 16.28125 -0.875 C 16.582031 -0.644531 16.851562 -0.519531 17.09375 -0.5 L 17.09375 0 C 16.582031 -0.03125 15.984375 -0.0507812 15.296875 -0.0625 C 14.617188 -0.0703125 13.929688 -0.078125 13.234375 -0.078125 C 12.460938 -0.078125 11.726562 -0.0703125 11.03125 -0.0625 C 10.332031 -0.0507812 9.785156 -0.03125 9.390625 0 L 9.390625 -0.5 C 10.242188 -0.539062 10.785156 -0.691406 11.015625 -0.953125 C 11.242188 -1.210938 11.191406 -1.773438 10.859375 -2.640625 L 6.546875 -14.421875 L 7 -15.09375 L 3.140625 -5.046875 C 2.773438 -4.117188 2.550781 -3.359375 2.46875 -2.765625 C 2.394531 -2.171875 2.4375 -1.710938 2.59375 -1.390625 C 2.757812 -1.066406 3.023438 -0.84375 3.390625 -0.71875 C 3.753906 -0.59375 4.1875 -0.519531 4.6875 -0.5 L 4.6875 0 C 4.132812 -0.03125 3.601562 -0.0507812 3.09375 -0.0625 C 2.582031 -0.0703125 2.066406 -0.078125 1.546875 -0.078125 C 1.171875 -0.078125 0.816406 -0.0703125 0.484375 -0.0625 C 0.160156 -0.0507812 -0.125 -0.03125 -0.375 0 L -0.375 -0.5 C -0.0195312 -0.570312 0.335938 -0.800781 0.703125 -1.1875 C 1.078125 -1.582031 1.441406 -2.242188 1.796875 -3.171875 L 7.578125 -18 C 7.847656 -17.988281 8.140625 -17.984375 8.453125 -17.984375 C 8.765625 -17.984375 9.054688 -17.988281 9.328125 -18 Z M 11.109375 -7.296875 L 11.109375 -6.796875 L 3.546875 -6.796875 L 3.796875 -7.296875 Z M 11.109375 -7.296875 "/></g></g></g><g fill="#ffffff" fill-opacity="1"><g transform="translate(118.315929, 28.351696)"><g/></g></g><g fill="#ffffff" fill-opacity="1"><g transform="translate(126.274614, 28.351696)"><g><path d="M 8.375 -18 C 9.03125 -18 9.5625 -17.953125 9.96875 -17.859375 C 10.375 -17.765625 10.71875 -17.632812 11 -17.46875 C 11.269531 -17.351562 11.519531 -17.203125 11.75 -17.015625 C 11.976562 -16.828125 12.164062 -16.597656 12.3125 -16.328125 C 12.46875 -16.054688 12.546875 -15.753906 12.546875 -15.421875 C 12.546875 -14.910156 12.351562 -14.503906 11.96875 -14.203125 C 11.582031 -13.898438 11.125 -13.75 10.59375 -13.75 C 10.09375 -13.75 9.660156 -13.875 9.296875 -14.125 C 8.929688 -14.375 8.75 -14.769531 8.75 -15.3125 C 8.75 -15.738281 8.898438 -16.125 9.203125 -16.46875 C 9.503906 -16.8125 9.894531 -17.03125 10.375 -17.125 C 10.25 -17.257812 10.03125 -17.367188 9.71875 -17.453125 C 9.40625 -17.535156 9.066406 -17.578125 8.703125 -17.578125 C 7.816406 -17.578125 7.066406 -17.300781 6.453125 -16.75 C 5.835938 -16.195312 5.53125 -15.363281 5.53125 -14.25 C 5.53125 -13.863281 5.597656 -13.445312 5.734375 -13 C 5.867188 -12.5625 6.128906 -12.117188 6.515625 -11.671875 C 6.804688 -11.734375 7.070312 -11.78125 7.3125 -11.8125 C 7.5625 -11.851562 7.769531 -11.875 7.9375 -11.875 C 8.238281 -11.875 8.46875 -11.804688 8.625 -11.671875 C 8.789062 -11.546875 8.875 -11.382812 8.875 -11.1875 C 8.875 -11.03125 8.804688 -10.898438 8.671875 -10.796875 C 8.535156 -10.703125 8.367188 -10.65625 8.171875 -10.65625 C 7.878906 -10.65625 7.582031 -10.734375 7.28125 -10.890625 C 6.976562 -11.046875 6.734375 -11.1875 6.546875 -11.3125 C 5.742188 -10.90625 5.09375 -10.382812 4.59375 -9.75 C 4.101562 -9.113281 3.859375 -8.265625 3.859375 -7.203125 C 3.859375 -6.085938 4.160156 -5.171875 4.765625 -4.453125 C 5.378906 -3.734375 6.238281 -3.191406 7.34375 -2.828125 C 8.445312 -2.460938 9.753906 -2.28125 11.265625 -2.28125 C 12.109375 -2.28125 12.941406 -2.375 13.765625 -2.5625 C 14.597656 -2.75 15.347656 -3.023438 16.015625 -3.390625 C 16.679688 -3.765625 17.21875 -4.226562 17.625 -4.78125 C 18.03125 -5.332031 18.234375 -5.96875 18.234375 -6.6875 C 18.234375 -6.957031 18.191406 -7.300781 18.109375 -7.71875 C 18.035156 -8.132812 17.851562 -8.546875 17.5625 -8.953125 C 17.28125 -9.367188 16.8125 -9.710938 16.15625 -9.984375 L 16.328125 -10.21875 C 17.242188 -9.925781 17.9375 -9.382812 18.40625 -8.59375 C 18.882812 -7.800781 19.125 -6.890625 19.125 -5.859375 C 19.125 -4.671875 18.757812 -3.609375 18.03125 -2.671875 C 17.300781 -1.734375 16.28125 -0.992188 14.96875 -0.453125 C 13.664062 0.0859375 12.132812 0.359375 10.375 0.359375 C 8.96875 0.359375 7.691406 0.21875 6.546875 -0.0625 C 5.410156 -0.351562 4.429688 -0.773438 3.609375 -1.328125 C 2.796875 -1.878906 2.164062 -2.539062 1.71875 -3.3125 C 1.269531 -4.09375 1.046875 -4.972656 1.046875 -5.953125 C 1.046875 -6.898438 1.242188 -7.707031 1.640625 -8.375 C 2.035156 -9.050781 2.519531 -9.601562 3.09375 -10.03125 C 3.664062 -10.457031 4.238281 -10.789062 4.8125 -11.03125 C 5.394531 -11.269531 5.851562 -11.429688 6.1875 -11.515625 C 5.664062 -11.734375 5.1875 -11.988281 4.75 -12.28125 C 4.320312 -12.582031 3.976562 -12.9375 3.71875 -13.34375 C 3.457031 -13.75 3.328125 -14.203125 3.328125 -14.703125 C 3.328125 -15.242188 3.46875 -15.722656 3.75 -16.140625 C 4.039062 -16.554688 4.425781 -16.898438 4.90625 -17.171875 C 5.382812 -17.441406 5.925781 -17.644531 6.53125 -17.78125 C 7.132812 -17.925781 7.75 -18 8.375 -18 Z M 18.328125 -18.3125 C 19.535156 -18.3125 20.507812 -18 21.25 -17.375 C 21.988281 -16.75 22.359375 -15.867188 22.359375 -14.734375 C 22.359375 -13.867188 22.148438 -13.140625 21.734375 -12.546875 C 21.328125 -11.960938 20.738281 -11.484375 19.96875 -11.109375 C 19.195312 -10.734375 18.28125 -10.4375 17.21875 -10.21875 C 16.976562 -10.132812 16.679688 -10.035156 16.328125 -9.921875 C 15.972656 -9.816406 15.609375 -9.710938 15.234375 -9.609375 C 14.867188 -9.503906 14.507812 -9.398438 14.15625 -9.296875 C 13.8125 -9.203125 13.515625 -9.117188 13.265625 -9.046875 C 11.941406 -8.765625 10.925781 -8.441406 10.21875 -8.078125 C 9.507812 -7.710938 9.15625 -7.21875 9.15625 -6.59375 C 9.15625 -6.164062 9.289062 -5.800781 9.5625 -5.5 C 9.84375 -5.195312 10.195312 -4.960938 10.625 -4.796875 C 11.050781 -4.628906 11.472656 -4.546875 11.890625 -4.546875 C 12.015625 -4.546875 12.144531 -4.554688 12.28125 -4.578125 C 12.414062 -4.597656 12.539062 -4.628906 12.65625 -4.671875 C 12.769531 -4.722656 12.851562 -4.765625 12.90625 -4.796875 C 12.488281 -4.929688 12.171875 -5.144531 11.953125 -5.4375 C 11.742188 -5.738281 11.640625 -6.082031 11.640625 -6.46875 C 11.640625 -7.007812 11.832031 -7.421875 12.21875 -7.703125 C 12.613281 -7.992188 13.097656 -8.140625 13.671875 -8.140625 C 14.273438 -8.140625 14.75 -7.976562 15.09375 -7.65625 C 15.445312 -7.332031 15.625 -6.921875 15.625 -6.421875 C 15.625 -5.890625 15.460938 -5.453125 15.140625 -5.109375 C 14.816406 -4.765625 14.382812 -4.507812 13.84375 -4.34375 C 13.300781 -4.1875 12.691406 -4.109375 12.015625 -4.109375 C 11.359375 -4.109375 10.738281 -4.222656 10.15625 -4.453125 C 9.570312 -4.691406 9.101562 -5.050781 8.75 -5.53125 C 8.40625 -6.019531 8.234375 -6.628906 8.234375 -7.359375 C 8.234375 -8.253906 8.460938 -9 8.921875 -9.59375 C 9.378906 -10.195312 10.035156 -10.695312 10.890625 -11.09375 C 11.742188 -11.488281 12.753906 -11.796875 13.921875 -12.015625 C 14.273438 -12.097656 14.664062 -12.195312 15.09375 -12.3125 C 15.53125 -12.425781 15.976562 -12.539062 16.4375 -12.65625 C 16.894531 -12.769531 17.316406 -12.894531 17.703125 -13.03125 C 18.921875 -13.332031 19.863281 -13.671875 20.53125 -14.046875 C 21.195312 -14.421875 21.53125 -14.921875 21.53125 -15.546875 C 21.53125 -16.003906 21.390625 -16.40625 21.109375 -16.75 C 20.828125 -17.09375 20.46875 -17.363281 20.03125 -17.5625 C 19.59375 -17.757812 19.140625 -17.859375 18.671875 -17.859375 C 18.515625 -17.859375 18.375 -17.847656 18.25 -17.828125 C 18.125 -17.804688 18.015625 -17.769531 17.921875 -17.71875 C 18.347656 -17.570312 18.660156 -17.34375 18.859375 -17.03125 C 19.066406 -16.726562 19.171875 -16.425781 19.171875 -16.125 C 19.171875 -15.601562 18.972656 -15.203125 18.578125 -14.921875 C 18.191406 -14.640625 17.710938 -14.5 17.140625 -14.5 C 16.566406 -14.5 16.09375 -14.644531 15.71875 -14.9375 C 15.351562 -15.238281 15.171875 -15.648438 15.171875 -16.171875 C 15.171875 -16.628906 15.300781 -17.015625 15.5625 -17.328125 C 15.820312 -17.640625 16.1875 -17.878906 16.65625 -18.046875 C 17.132812 -18.222656 17.691406 -18.3125 18.328125 -18.3125 Z M 18.328125 -18.3125 "/></g></g></g><g fill="#ffffff" fill-opacity="1"><g transform="translate(151.083543, 28.351696)"><g/></g></g><g fill="#ffffff" fill-opacity="1"><g transform="translate(159.042228, 28.351696)"><g><path d="M 10.0625 -18.3125 C 11.175781 -18.3125 12.09375 -18.144531 12.8125 -17.8125 C 13.53125 -17.488281 14.171875 -17.101562 14.734375 -16.65625 C 15.066406 -16.40625 15.320312 -16.375 15.5 -16.5625 C 15.6875 -16.757812 15.8125 -17.222656 15.875 -17.953125 L 16.453125 -17.953125 C 16.421875 -17.296875 16.394531 -16.5 16.375 -15.5625 C 16.363281 -14.625 16.359375 -13.375 16.359375 -11.8125 L 15.78125 -11.8125 C 15.6875 -12.59375 15.570312 -13.253906 15.4375 -13.796875 C 15.300781 -14.347656 15.113281 -14.835938 14.875 -15.265625 C 14.644531 -15.691406 14.3125 -16.070312 13.875 -16.40625 C 13.445312 -16.832031 12.953125 -17.144531 12.390625 -17.34375 C 11.835938 -17.550781 11.257812 -17.65625 10.65625 -17.65625 C 9.738281 -17.65625 8.957031 -17.410156 8.3125 -16.921875 C 7.675781 -16.441406 7.15625 -15.785156 6.75 -14.953125 C 6.351562 -14.128906 6.0625 -13.195312 5.875 -12.15625 C 5.695312 -11.113281 5.609375 -10.035156 5.609375 -8.921875 C 5.609375 -7.796875 5.703125 -6.710938 5.890625 -5.671875 C 6.085938 -4.628906 6.394531 -3.703125 6.8125 -2.890625 C 7.226562 -2.078125 7.765625 -1.429688 8.421875 -0.953125 C 9.078125 -0.484375 9.851562 -0.25 10.75 -0.25 C 11.3125 -0.25 11.875 -0.351562 12.4375 -0.5625 C 13 -0.78125 13.484375 -1.09375 13.890625 -1.5 C 14.554688 -2 15.003906 -2.625 15.234375 -3.375 C 15.472656 -4.132812 15.65625 -5.140625 15.78125 -6.390625 L 16.359375 -6.390625 C 16.359375 -4.785156 16.363281 -3.488281 16.375 -2.5 C 16.394531 -1.507812 16.421875 -0.675781 16.453125 0 L 15.875 0 C 15.8125 -0.726562 15.695312 -1.179688 15.53125 -1.359375 C 15.375 -1.546875 15.109375 -1.523438 14.734375 -1.296875 C 14.109375 -0.859375 13.441406 -0.472656 12.734375 -0.140625 C 12.035156 0.191406 11.140625 0.359375 10.046875 0.359375 C 8.253906 0.359375 6.6875 -0.00390625 5.34375 -0.734375 C 4 -1.460938 2.953125 -2.507812 2.203125 -3.875 C 1.460938 -5.25 1.09375 -6.898438 1.09375 -8.828125 C 1.09375 -10.722656 1.472656 -12.378906 2.234375 -13.796875 C 3.003906 -15.210938 4.0625 -16.316406 5.40625 -17.109375 C 6.757812 -17.910156 8.3125 -18.3125 10.0625 -18.3125 Z M 10.0625 -18.3125 "/></g></g></g><g fill="#ffffff" fill-opacity="1"><g transform="translate(178.960788, 28.351696)"><g><path d="M 10.0625 -18.3125 C 11.851562 -18.3125 13.421875 -17.945312 14.765625 -17.21875 C 16.109375 -16.488281 17.148438 -15.441406 17.890625 -14.078125 C 18.640625 -12.722656 19.015625 -11.070312 19.015625 -9.125 C 19.015625 -7.238281 18.632812 -5.582031 17.875 -4.15625 C 17.113281 -2.738281 16.050781 -1.628906 14.6875 -0.828125 C 13.332031 -0.0351562 11.785156 0.359375 10.046875 0.359375 C 8.253906 0.359375 6.6875 -0.00390625 5.34375 -0.734375 C 4 -1.460938 2.953125 -2.507812 2.203125 -3.875 C 1.460938 -5.25 1.09375 -6.898438 1.09375 -8.828125 C 1.09375 -10.722656 1.472656 -12.378906 2.234375 -13.796875 C 3.003906 -15.210938 4.0625 -16.316406 5.40625 -17.109375 C 6.757812 -17.910156 8.3125 -18.3125 10.0625 -18.3125 Z M 9.96875 -17.859375 C 9.019531 -17.859375 8.191406 -17.476562 7.484375 -16.71875 C 6.785156 -15.957031 6.242188 -14.90625 5.859375 -13.5625 C 5.484375 -12.226562 5.296875 -10.679688 5.296875 -8.921875 C 5.296875 -7.128906 5.507812 -5.566406 5.9375 -4.234375 C 6.375 -2.910156 6.957031 -1.890625 7.6875 -1.171875 C 8.425781 -0.453125 9.242188 -0.09375 10.140625 -0.09375 C 11.085938 -0.09375 11.910156 -0.472656 12.609375 -1.234375 C 13.316406 -2.003906 13.859375 -3.0625 14.234375 -4.40625 C 14.617188 -5.75 14.8125 -7.289062 14.8125 -9.03125 C 14.8125 -10.832031 14.59375 -12.394531 14.15625 -13.71875 C 13.726562 -15.039062 13.144531 -16.0625 12.40625 -16.78125 C 11.675781 -17.5 10.863281 -17.859375 9.96875 -17.859375 Z M 9.96875 -17.859375 "/></g></g></g><g fill="#ffffff" fill-opacity="1"><g transform="translate(201.109154, 28.351696)"><g><path d="M 3.421875 -3.546875 C 4.078125 -3.546875 4.597656 -3.375 4.984375 -3.03125 C 5.378906 -2.6875 5.578125 -2.207031 5.578125 -1.59375 C 5.578125 -0.988281 5.378906 -0.507812 4.984375 -0.15625 C 4.597656 0.1875 4.078125 0.359375 3.421875 0.359375 C 2.765625 0.359375 2.238281 0.1875 1.84375 -0.15625 C 1.457031 -0.507812 1.265625 -0.988281 1.265625 -1.59375 C 1.265625 -2.207031 1.457031 -2.6875 1.84375 -3.03125 C 2.238281 -3.375 2.765625 -3.546875 3.421875 -3.546875 Z M 3.421875 -3.546875 "/></g></g></g></g></g><g transform="matrix(1, 0, 0, 1, 36, 165)"><g clip-path="url(#b41861dfda)"><g fill="#ffffff" fill-opacity="1"><g transform="translate(1.849986, 27.604898)"><g><path d="M 14.1875 0 L 2.21875 0 L 2.21875 -20.140625 L 14.1875 -20.140625 L 14.1875 -18.203125 L 4.296875 -18.203125 L 4.296875 -11.046875 L 13.890625 -11.046875 L 13.890625 -9.09375 L 4.296875 -9.09375 L 4.296875 -1.921875 L 14.1875 -1.921875 Z M 14.1875 0 "/></g></g></g><g fill="#ffffff" fill-opacity="1"><g transform="translate(20.634985, 27.604898)"><g><path d="M 7.8125 -9.5 C 3.707031 -10.445312 1.65625 -12.207031 1.65625 -14.78125 C 1.65625 -16.675781 2.316406 -18.09375 3.640625 -19.03125 C 4.960938 -19.96875 6.515625 -20.4375 8.296875 -20.4375 C 12.222656 -20.4375 14.550781 -18.972656 15.28125 -16.046875 L 13.03125 -16.046875 C 12.632812 -17.785156 11.054688 -18.65625 8.296875 -18.65625 C 6.359375 -18.65625 5.003906 -18.082031 4.234375 -16.9375 C 3.941406 -16.5 3.796875 -15.957031 3.796875 -15.3125 C 3.796875 -14.0625 4.460938 -13.101562 5.796875 -12.4375 C 6.429688 -12.101562 7.773438 -11.671875 9.828125 -11.140625 C 11.878906 -10.597656 13.367188 -10.003906 14.296875 -9.359375 C 15.578125 -8.453125 16.21875 -7.175781 16.21875 -5.53125 C 16.21875 -3.5 15.421875 -1.960938 13.828125 -0.921875 C 12.484375 -0.046875 10.828125 0.390625 8.859375 0.390625 C 4.390625 0.390625 1.800781 -1.304688 1.09375 -4.703125 L 3.546875 -4.703125 C 3.921875 -2.578125 5.691406 -1.515625 8.859375 -1.515625 C 11.109375 -1.515625 12.675781 -2.132812 13.5625 -3.375 C 13.914062 -3.863281 14.09375 -4.535156 14.09375 -5.390625 C 14.09375 -6.210938 13.765625 -6.894531 13.109375 -7.4375 C 12.179688 -8.1875 10.414062 -8.875 7.8125 -9.5 Z M 7.8125 -9.5 "/></g></g></g><g fill="#ffffff" fill-opacity="1"><g transform="translate(40.011586, 27.604898)"><g><path d="M 0.59375 -18.265625 L 0.59375 -20.1875 L 12.4375 -20.1875 L 12.4375 -18.265625 L 7.546875 -18.265625 L 7.546875 -0.0625 L 5.484375 -0.0625 L 5.484375 -18.265625 Z M 0.59375 -18.265625 "/></g></g></g><g fill="#ffffff" fill-opacity="1"><g transform="translate(55.424537, 27.604898)"><g><path d="M 3.9375 0.296875 C 3.476562 0.296875 3.082031 0.128906 2.75 -0.203125 C 2.394531 -0.523438 2.21875 -0.910156 2.21875 -1.359375 C 2.21875 -1.816406 2.382812 -2.210938 2.71875 -2.546875 C 3.0625 -2.878906 3.46875 -3.046875 3.9375 -3.046875 C 4.414062 -3.046875 4.832031 -2.890625 5.1875 -2.578125 C 5.519531 -2.242188 5.6875 -1.847656 5.6875 -1.390625 C 5.6875 -0.921875 5.507812 -0.523438 5.15625 -0.203125 C 4.800781 0.128906 4.394531 0.296875 3.9375 0.296875 Z M 3.9375 0.296875 "/></g></g></g></g></g><g transform="matrix(1, 0, 0, 1, 265, 165)"><g clip-path="url(#b2df182b9e)"><g fill="#ffffff" fill-opacity="1"><g transform="translate(1.182461, 27.604898)"><g><path d="M 4.375 0 L 4.375 -18.03125 L 1.484375 -18.03125 L 1.484375 -19.84375 L 6.453125 -20.375 L 6.453125 0 Z M 4.375 0 "/></g></g></g><g fill="#ffffff" fill-opacity="1"><g transform="translate(12.069748, 27.604898)"><g><path d="M 7.546875 -9.15625 C 8.179688 -9.15625 8.785156 -9.28125 9.359375 -9.53125 C 9.929688 -9.769531 10.429688 -10.097656 10.859375 -10.515625 C 11.796875 -11.421875 12.265625 -12.492188 12.265625 -13.734375 C 12.265625 -15.015625 11.796875 -16.113281 10.859375 -17.03125 C 9.921875 -17.9375 8.816406 -18.390625 7.546875 -18.390625 C 6.242188 -18.390625 5.148438 -17.945312 4.265625 -17.0625 C 3.359375 -16.144531 2.90625 -15.066406 2.90625 -13.828125 C 2.90625 -12.566406 3.359375 -11.472656 4.265625 -10.546875 C 5.148438 -9.617188 6.242188 -9.15625 7.546875 -9.15625 Z M 0.796875 -13.671875 C 0.796875 -14.660156 0.972656 -15.5625 1.328125 -16.375 C 1.679688 -17.1875 2.164062 -17.894531 2.78125 -18.5 C 4.082031 -19.800781 5.679688 -20.453125 7.578125 -20.453125 C 9.429688 -20.453125 11.03125 -19.800781 12.375 -18.5 C 13.695312 -17.195312 14.359375 -15.609375 14.359375 -13.734375 C 14.359375 -12.117188 13.851562 -10.707031 12.84375 -9.5 L 4.96875 0 L 2.25 0 L 8.40625 -7.40625 L 7.8125 -7.015625 C 5.800781 -7.097656 4.15625 -7.722656 2.875 -8.890625 C 1.488281 -10.128906 0.796875 -11.722656 0.796875 -13.671875 Z M 0.796875 -13.671875 "/></g></g></g><g fill="#ffffff" fill-opacity="1"><g transform="translate(29.612418, 27.604898)"><g><path d="M 7.546875 -9.15625 C 8.179688 -9.15625 8.785156 -9.28125 9.359375 -9.53125 C 9.929688 -9.769531 10.429688 -10.097656 10.859375 -10.515625 C 11.796875 -11.421875 12.265625 -12.492188 12.265625 -13.734375 C 12.265625 -15.015625 11.796875 -16.113281 10.859375 -17.03125 C 9.921875 -17.9375 8.816406 -18.390625 7.546875 -18.390625 C 6.242188 -18.390625 5.148438 -17.945312 4.265625 -17.0625 C 3.359375 -16.144531 2.90625 -15.066406 2.90625 -13.828125 C 2.90625 -12.566406 3.359375 -11.472656 4.265625 -10.546875 C 5.148438 -9.617188 6.242188 -9.15625 7.546875 -9.15625 Z M 0.796875 -13.671875 C 0.796875 -14.660156 0.972656 -15.5625 1.328125 -16.375 C 1.679688 -17.1875 2.164062 -17.894531 2.78125 -18.5 C 4.082031 -19.800781 5.679688 -20.453125 7.578125 -20.453125 C 9.429688 -20.453125 11.03125 -19.800781 12.375 -18.5 C 13.695312 -17.195312 14.359375 -15.609375 14.359375 -13.734375 C 14.359375 -12.117188 13.851562 -10.707031 12.84375 -9.5 L 4.96875 0 L 2.25 0 L 8.40625 -7.40625 L 7.8125 -7.015625 C 5.800781 -7.097656 4.15625 -7.722656 2.875 -8.890625 C 1.488281 -10.128906 0.796875 -11.722656 0.796875 -13.671875 Z M 0.796875 -13.671875 "/></g></g></g><g fill="#ffffff" fill-opacity="1"><g transform="translate(47.155088, 27.604898)"><g><path d="M 5.296875 -12.671875 C 6.304688 -12.984375 7.242188 -13.140625 8.109375 -13.140625 C 8.984375 -13.140625 9.820312 -12.972656 10.625 -12.640625 C 11.4375 -12.285156 12.148438 -11.8125 12.765625 -11.21875 C 14.066406 -9.957031 14.71875 -8.390625 14.71875 -6.515625 C 14.71875 -4.640625 14.054688 -3.03125 12.734375 -1.6875 C 11.410156 -0.320312 9.789062 0.359375 7.875 0.359375 C 6.457031 0.359375 5.15625 -0.0546875 3.96875 -0.890625 C 2.78125 -1.703125 1.941406 -2.769531 1.453125 -4.09375 L 3.46875 -4.734375 C 3.800781 -3.847656 4.375 -3.128906 5.1875 -2.578125 C 5.988281 -2.023438 6.804688 -1.75 7.640625 -1.75 C 8.453125 -1.75 9.144531 -1.875 9.71875 -2.125 C 10.269531 -2.363281 10.757812 -2.691406 11.1875 -3.109375 C 12.113281 -3.992188 12.578125 -5.078125 12.578125 -6.359375 C 12.578125 -7.609375 12.125 -8.707031 11.21875 -9.65625 C 10.332031 -10.582031 9.296875 -11.046875 8.109375 -11.046875 C 6.910156 -11.046875 5.882812 -10.726562 5.03125 -10.09375 L 2.78125 -11.109375 L 5.09375 -20.140625 L 13.953125 -20.140625 L 13.953125 -18.0625 L 6.65625 -18.0625 Z M 5.296875 -12.671875 "/></g></g></g></g></g></svg>