<svg xmlns="http://www.w3.org/2000/svg" xmlns:xlink="http://www.w3.org/1999/xlink" width="500" zoomAndPan="magnify" viewBox="0 0 375 374.999991" height="500" preserveAspectRatio="xMidYMid meet" version="1.0"><defs><clipPath id="cc8c1bedb2"><path d="M 50.09375 31.429688 L 324.59375 31.429688 L 324.59375 343.429688 L 50.09375 343.429688 Z M 50.09375 31.429688 " clip-rule="nonzero"/></clipPath></defs><g clip-path="url(#cc8c1bedb2)"><path fill="#ffffff" d="M 97.597656 262.953125 L 50.125 262.953125 C 62.527344 257.394531 71.089844 240.773438 71.089844 218.589844 L 71.074219 75.609375 C 71.074219 53.429688 62.527344 36.996094 50.125 31.429688 L 97.292969 31.429688 L 153.925781 176.710938 L 215.015625 31.539062 L 215.015625 31.429688 L 215.0625 31.429688 C 215.0625 31.429688 223.757812 31.429688 223.757812 31.429688 C 223.757812 31.429688 258.167969 31.429688 258.167969 31.429688 C 245.765625 36.992188 237.214844 53.503906 237.214844 75.671875 L 237.214844 101.992188 C 224.222656 105 215.015625 112.738281 215.015625 112.738281 L 215.015625 52.425781 L 159.816406 184.988281 C 152.347656 188.457031 143.605469 197.207031 138.492188 205.449219 L 76.632812 52.238281 L 76.632812 218.761719 C 76.632812 240.941406 85.183594 257.386719 97.597656 262.949219 Z M 210.199219 161.570312 C 210.199219 143.230469 223.171875 117.554688 253.324219 117.554688 C 296.792969 117.554688 316.914062 187.078125 316.914062 187.078125 L 316.914062 127.011719 C 300.402344 118.242188 280.128906 110.851562 253.148438 110.851562 C 221.882812 110.851562 200.859375 135.554688 200.859375 165.824219 C 200.859375 250.136719 314.488281 228.335938 314.488281 279.683594 C 314.488281 298.722656 292.15625 332.511719 245.230469 332.511719 C 201.511719 332.511719 148.839844 301.765625 148.839844 249.101562 C 148.839844 203.410156 186.054688 187.269531 186.054688 187.269531 L 185.238281 183.566406 C 185.238281 183.566406 136.9375 202.175781 136.9375 261.457031 C 136.9375 311.890625 181.078125 343.429688 233.542969 343.429688 C 289.898438 343.429688 324.535156 306.085938 324.535156 271.246094 C 324.535156 199.929688 210.195312 220.195312 210.195312 161.570312 Z M 210.199219 161.570312 " fill-opacity="1" fill-rule="nonzero"/></g></svg>