<svg xmlns="http://www.w3.org/2000/svg" xmlns:xlink="http://www.w3.org/1999/xlink" width="500" zoomAndPan="magnify" viewBox="0 0 375 374.999991" height="500" preserveAspectRatio="xMidYMid meet" version="1.0"><defs><g/><clipPath id="643456a50a"><rect x="0" width="289" y="0" height="120"/></clipPath><clipPath id="968ea16242"><rect x="0" width="243" y="0" height="102"/></clipPath><clipPath id="c43aed6585"><rect x="0" width="139" y="0" height="139"/></clipPath></defs><g transform="matrix(1, 0, 0, 1, 47, 106)"><g clip-path="url(#643456a50a)"><g fill="#ffffff" fill-opacity="1"><g transform="translate(1.354191, 95.727354)"><g><path d="M 56.84375 -22.765625 C 55.976562 -19.847656 54.835938 -17.015625 53.421875 -14.265625 C 52.003906 -11.515625 50.15625 -9.117188 47.875 -7.078125 C 47.644531 -6.921875 47.375 -6.6875 47.0625 -6.375 C 46.507812 -5.820312 45.757812 -5.128906 44.8125 -4.296875 C 43.875 -3.472656 42.894531 -2.828125 41.875 -2.359375 C 39.195312 -0.628906 36.285156 0.132812 33.140625 -0.0625 C 29.992188 -0.257812 26.984375 -1.125 24.109375 -2.65625 C 21.242188 -4.1875 18.828125 -6.09375 16.859375 -8.375 C 14.898438 -10.65625 13.25 -13.210938 11.90625 -16.046875 C 11.195312 -15.960938 10.488281 -16.097656 9.78125 -16.453125 C 9.082031 -16.804688 8.535156 -17.414062 8.140625 -18.28125 C 5.234375 -25.59375 3.601562 -33.238281 3.25 -41.21875 C 2.894531 -49.195312 3.582031 -57 5.3125 -64.625 C 5.78125 -66.59375 6.503906 -68.578125 7.484375 -70.578125 C 8.472656 -72.585938 9.769531 -74.203125 11.375 -75.421875 C 12.988281 -76.640625 14.976562 -77.050781 17.34375 -76.65625 C 18.75 -76.5 20.019531 -75.96875 21.15625 -75.0625 C 22.300781 -74.164062 23.148438 -73.046875 23.703125 -71.703125 C 24.335938 -69.972656 24.394531 -68.066406 23.875 -65.984375 C 23.363281 -63.898438 23.03125 -61.953125 22.875 -60.140625 C 22.71875 -57.941406 22.640625 -55.722656 22.640625 -53.484375 C 22.640625 -51.242188 22.679688 -49.023438 22.765625 -46.828125 C 23.078125 -42.265625 23.742188 -37.78125 24.765625 -33.375 C 25.785156 -28.96875 27.082031 -24.644531 28.65625 -20.40625 C 29.519531 -19.769531 30.40625 -19.234375 31.3125 -18.796875 C 32.21875 -18.367188 33.179688 -18.117188 34.203125 -18.046875 C 36.484375 -18.515625 38.445312 -19.457031 40.09375 -20.875 C 41.039062 -22.207031 41.671875 -23.835938 41.984375 -25.765625 C 42.296875 -27.691406 42.488281 -29.597656 42.5625 -31.484375 C 42.644531 -33.367188 42.726562 -34.984375 42.8125 -36.328125 C 43.207031 -41.597656 43.40625 -46.863281 43.40625 -52.125 C 43.40625 -57.394531 43.363281 -62.664062 43.28125 -67.9375 C 43.207031 -69.738281 43.992188 -71.109375 45.640625 -72.046875 C 47.296875 -72.992188 48.867188 -73.035156 50.359375 -72.171875 L 50.359375 -73.359375 C 50.359375 -73.984375 50.59375 -74.550781 51.0625 -75.0625 C 51.539062 -75.570312 52.09375 -75.789062 52.71875 -75.71875 C 54.53125 -75.5625 55.847656 -74.890625 56.671875 -73.703125 C 57.492188 -72.523438 58.039062 -71.171875 58.3125 -69.640625 C 58.59375 -68.109375 58.769531 -66.59375 58.84375 -65.09375 C 59.007812 -63.6875 59.171875 -62.273438 59.328125 -60.859375 C 59.484375 -59.441406 59.5625 -58.023438 59.5625 -56.609375 L 59.5625 -51.890625 C 59.789062 -47.015625 59.726562 -42.117188 59.375 -37.203125 C 59.019531 -32.296875 58.175781 -27.484375 56.84375 -22.765625 Z M 22.40625 -64.28125 C 22.09375 -64.125 21.859375 -64.203125 21.703125 -64.515625 C 21.617188 -63.960938 21.5 -63.429688 21.34375 -62.921875 C 21.1875 -62.410156 20.988281 -61.921875 20.75 -61.453125 C 20.28125 -57.441406 20.066406 -53.429688 20.109375 -49.421875 C 20.148438 -45.410156 20.5625 -41.4375 21.34375 -37.5 C 21.5 -36.71875 21.65625 -35.953125 21.8125 -35.203125 C 21.96875 -34.453125 22.128906 -33.722656 22.296875 -33.015625 C 22.453125 -33.015625 22.566406 -32.976562 22.640625 -32.90625 C 20.753906 -43.4375 20.675781 -53.894531 22.40625 -64.28125 Z M 22.40625 -64.28125 "/></g></g></g><g fill="#ffffff" fill-opacity="1"><g transform="translate(56.423749, 95.727354)"><g><path d="M 67.21875 -44.9375 L 66.875 -42.453125 C 66.789062 -41.359375 66.273438 -40.394531 65.328125 -39.5625 C 64.390625 -38.738281 63.445312 -38.367188 62.5 -38.453125 C 59.75 -38.609375 56.976562 -38.800781 54.1875 -39.03125 C 51.394531 -39.269531 48.625 -39.507812 45.875 -39.75 C 49.101562 -34.945312 51.9375 -30.070312 54.375 -25.125 C 55.945312 -21.738281 57.519531 -18.21875 59.09375 -14.5625 C 60.664062 -10.90625 61.210938 -7.148438 60.734375 -3.296875 C 60.578125 -2.046875 59.945312 -1.242188 58.84375 -0.890625 C 57.75 -0.535156 56.691406 -0.550781 55.671875 -0.9375 C 55.117188 -0.863281 54.585938 -0.84375 54.078125 -0.875 C 53.566406 -0.914062 53.035156 -1.054688 52.484375 -1.296875 C 52.328125 -1.296875 52.25 -1.335938 52.25 -1.421875 C 51.769531 -0.941406 51.257812 -0.820312 50.71875 -1.0625 C 49.695312 -3.8125 48.59375 -6.582031 47.40625 -9.375 C 46.226562 -12.164062 45.050781 -14.898438 43.875 -17.578125 C 43.476562 -18.597656 42.882812 -20.03125 42.09375 -21.875 C 41.3125 -23.726562 40.488281 -25.65625 39.625 -27.65625 C 38.757812 -29.65625 37.9375 -31.363281 37.15625 -32.78125 C 36.519531 -34.195312 35.890625 -35.414062 35.265625 -36.4375 L 35.265625 -36.5625 C 34.554688 -37.582031 33.890625 -38.679688 33.265625 -39.859375 C 31.765625 -39.941406 30.226562 -40.019531 28.65625 -40.09375 C 27.082031 -40.175781 25.507812 -40.253906 23.9375 -40.328125 C 24.25 -37.660156 24.523438 -34.988281 24.765625 -32.3125 C 25.003906 -29.644531 25.160156 -26.929688 25.234375 -24.171875 C 25.390625 -21.265625 25.566406 -18.335938 25.765625 -15.390625 C 25.960938 -12.441406 25.984375 -9.515625 25.828125 -6.609375 C 25.910156 -6.285156 25.953125 -5.945312 25.953125 -5.59375 C 25.953125 -5.25 25.953125 -4.914062 25.953125 -4.59375 C 25.160156 -3.101562 24.253906 -1.925781 23.234375 -1.0625 C 22.441406 -0.4375 21.535156 -0.125 20.515625 -0.125 C 19.492188 -0.125 18.628906 -0.515625 17.921875 -1.296875 C 17.535156 -1.921875 17.300781 -2.550781 17.21875 -3.1875 C 16.75 -3.101562 16.273438 -3.238281 15.796875 -3.59375 C 15.328125 -3.945312 15.09375 -4.441406 15.09375 -5.078125 C 14.78125 -6.328125 14.644531 -7.640625 14.6875 -9.015625 C 14.726562 -10.398438 14.664062 -11.71875 14.5 -12.96875 L 13.4375 -20.75 C 12.96875 -23.507812 12.5 -26.285156 12.03125 -29.078125 C 11.5625 -31.867188 11.085938 -34.640625 10.609375 -37.390625 L 9.90625 -41.515625 C 9.820312 -41.515625 9.722656 -41.515625 9.609375 -41.515625 C 9.492188 -41.515625 9.359375 -41.515625 9.203125 -41.515625 C 9.203125 -41.984375 8.960938 -42.257812 8.484375 -42.34375 C 7.859375 -42.5 7.210938 -42.691406 6.546875 -42.921875 C 5.878906 -43.160156 5.226562 -43.398438 4.59375 -43.640625 L 7.3125 -43.984375 C 6.132812 -44.460938 4.957031 -45.09375 3.78125 -45.875 C 2.675781 -46.582031 2.0625 -47.582031 1.9375 -48.875 C 1.820312 -50.175781 2.078125 -51.335938 2.703125 -52.359375 C 3.335938 -53.378906 4.242188 -53.890625 5.421875 -53.890625 C 5.816406 -53.972656 6.191406 -54.015625 6.546875 -54.015625 C 6.898438 -54.015625 7.234375 -54.015625 7.546875 -54.015625 C 7.148438 -56.054688 6.734375 -58.097656 6.296875 -60.140625 C 5.867188 -62.191406 5.421875 -64.195312 4.953125 -66.15625 C 5.972656 -66.945312 6.800781 -67.8125 7.4375 -68.75 C 6.332031 -69.695312 5.523438 -70.914062 5.015625 -72.40625 C 4.503906 -73.90625 4.5625 -75.320312 5.1875 -76.65625 C 5.976562 -78.15625 7.160156 -79.0625 8.734375 -79.375 C 10.304688 -79.6875 11.992188 -79.722656 13.796875 -79.484375 C 15.609375 -79.253906 17.140625 -79.019531 18.390625 -78.78125 C 18.785156 -78.78125 19.140625 -78.625 19.453125 -78.3125 C 19.847656 -78.15625 20.257812 -78 20.6875 -77.84375 C 21.125 -77.6875 21.539062 -77.523438 21.9375 -77.359375 C 22.007812 -77.359375 22.066406 -77.335938 22.109375 -77.296875 C 22.148438 -77.265625 22.210938 -77.25 22.296875 -77.25 C 28.816406 -75.207031 35.046875 -72.359375 40.984375 -68.703125 C 46.921875 -65.046875 52.757812 -61.25 58.5 -57.3125 C 59.28125 -56.6875 59.828125 -55.820312 60.140625 -54.71875 C 61.015625 -54.164062 61.84375 -53.578125 62.625 -52.953125 C 63.40625 -52.328125 64.191406 -51.695312 64.984375 -51.0625 C 66.867188 -49.644531 67.613281 -47.601562 67.21875 -44.9375 Z M 19.34375 -62.984375 C 19.414062 -62.898438 19.453125 -62.78125 19.453125 -62.625 C 19.453125 -62.46875 19.492188 -62.3125 19.578125 -62.15625 C 19.890625 -62.46875 20.257812 -62.601562 20.6875 -62.5625 C 21.125 -62.519531 21.382812 -62.226562 21.46875 -61.6875 C 21.78125 -60.425781 22.070312 -59.1875 22.34375 -57.96875 C 22.625 -56.75 22.878906 -55.507812 23.109375 -54.25 C 23.429688 -54.175781 23.75 -54.140625 24.0625 -54.140625 C 24.375 -54.140625 24.6875 -54.097656 25 -54.015625 C 25.15625 -54.722656 25.507812 -55.3125 26.0625 -55.78125 C 27.238281 -56.570312 28.4375 -56.804688 29.65625 -56.484375 C 30.875 -56.171875 32.050781 -55.640625 33.1875 -54.890625 C 34.332031 -54.148438 35.335938 -53.382812 36.203125 -52.59375 L 47.640625 -51.1875 C 43.085938 -54.332031 38.453125 -57.101562 33.734375 -59.5 C 29.015625 -61.894531 24.097656 -63.679688 18.984375 -64.859375 Z M 27.71875 -9.90625 C 27.476562 -14.78125 27.21875 -19.675781 26.9375 -24.59375 C 26.664062 -29.507812 26.175781 -34.363281 25.46875 -39.15625 L 26.421875 -39.15625 C 27.046875 -35.769531 27.515625 -32.304688 27.828125 -28.765625 C 28.148438 -25.234375 28.46875 -21.695312 28.78125 -18.15625 C 28.9375 -16.039062 28.851562 -14.488281 28.53125 -13.5 C 28.21875 -12.519531 27.945312 -11.320312 27.71875 -9.90625 Z M 27.71875 -9.90625 "/></g></g></g><g fill="#ffffff" fill-opacity="1"><g transform="translate(120.927207, 95.727354)"><g><path d="M 66.40625 -5.890625 C 65.925781 -4.242188 64.976562 -3.046875 63.5625 -2.296875 C 62.15625 -1.546875 60.582031 -1.09375 58.84375 -0.9375 C 57.113281 -0.78125 55.503906 -0.664062 54.015625 -0.59375 C 51.578125 -0.507812 49.140625 -0.601562 46.703125 -0.875 C 44.265625 -1.15625 41.828125 -1.335938 39.390625 -1.421875 C 36.003906 -1.578125 32.640625 -1.554688 29.296875 -1.359375 C 25.960938 -1.160156 22.644531 -0.863281 19.34375 -0.46875 C 18.476562 0.0820312 17.414062 0.359375 16.15625 0.359375 C 15.53125 0.359375 15.097656 0.316406 14.859375 0.234375 C 14.078125 0.316406 13.3125 0.4375 12.5625 0.59375 C 11.8125 0.75 11.082031 0.90625 10.375 1.0625 C 9.28125 1.21875 8.257812 1.054688 7.3125 0.578125 C 6.363281 0.109375 5.734375 -0.671875 5.421875 -1.765625 C 5.347656 -1.921875 5.3125 -2.117188 5.3125 -2.359375 C 4.832031 -3.066406 4.59375 -3.851562 4.59375 -4.71875 C 4.59375 -6.050781 5.023438 -7.109375 5.890625 -7.890625 C 6.753906 -8.679688 7.816406 -9.117188 9.078125 -9.203125 C 9.234375 -9.203125 9.351562 -9.238281 9.4375 -9.3125 C 9.351562 -12.851562 9.171875 -16.390625 8.890625 -19.921875 C 8.617188 -23.460938 8.328125 -27.003906 8.015625 -30.546875 C 6.753906 -30.941406 5.710938 -31.570312 4.890625 -32.4375 C 4.066406 -33.300781 3.65625 -34.476562 3.65625 -35.96875 C 3.65625 -37.144531 3.96875 -38.164062 4.59375 -39.03125 C 5.226562 -39.894531 6.054688 -40.566406 7.078125 -41.046875 C 7.078125 -41.117188 7.054688 -41.175781 7.015625 -41.21875 C 6.972656 -41.257812 6.953125 -41.28125 6.953125 -41.28125 C 6.722656 -44.269531 6.488281 -47.238281 6.25 -50.1875 C 6.007812 -53.132812 5.734375 -56.0625 5.421875 -58.96875 C 4.867188 -59.28125 4.335938 -59.632812 3.828125 -60.03125 C 3.316406 -60.425781 2.828125 -60.78125 2.359375 -61.09375 C 1.566406 -61.875 0.78125 -62.773438 0 -63.796875 C -0.78125 -64.828125 -1.289062 -65.929688 -1.53125 -67.109375 C -1.769531 -68.285156 -1.492188 -69.425781 -0.703125 -70.53125 C 0.472656 -72.101562 1.984375 -73.125 3.828125 -73.59375 C 5.679688 -74.0625 7.507812 -74.335938 9.3125 -74.421875 C 13.007812 -74.421875 16.507812 -73.832031 19.8125 -72.65625 C 23.351562 -71.46875 26.8125 -69.972656 30.1875 -68.171875 C 31.207031 -67.617188 32.859375 -66.632812 35.140625 -65.21875 C 37.421875 -63.800781 39.957031 -62.070312 42.75 -60.03125 C 45.539062 -57.988281 48.253906 -55.804688 50.890625 -53.484375 C 53.523438 -51.160156 55.722656 -48.835938 57.484375 -46.515625 C 59.253906 -44.203125 60.273438 -42.003906 60.546875 -39.921875 C 60.828125 -37.835938 59.988281 -36.050781 58.03125 -34.5625 C 57.238281 -33.925781 56.410156 -33.390625 55.546875 -32.953125 C 54.679688 -32.523438 53.738281 -32.351562 52.71875 -32.4375 C 51.382812 -32.59375 50.085938 -32.75 48.828125 -32.90625 C 47.566406 -33.0625 46.148438 -33.21875 44.578125 -33.375 L 38.921875 -33.734375 C 39.316406 -33.578125 39.648438 -33.398438 39.921875 -33.203125 C 40.191406 -33.003906 40.488281 -32.828125 40.8125 -32.671875 C 42.21875 -31.804688 43.585938 -30.921875 44.921875 -30.015625 C 46.265625 -29.109375 47.566406 -28.144531 48.828125 -27.125 C 54.253906 -22.875 59.085938 -18.234375 63.328125 -13.203125 C 64.429688 -12.179688 65.316406 -11.082031 65.984375 -9.90625 C 66.648438 -8.726562 66.789062 -7.390625 66.40625 -5.890625 Z M 41.28125 -45.53125 C 40.570312 -46.3125 39.84375 -47.054688 39.09375 -47.765625 C 38.34375 -48.472656 37.578125 -49.179688 36.796875 -49.890625 C 36.003906 -50.515625 35.3125 -51.101562 34.71875 -51.65625 C 34.132812 -52.207031 33.53125 -52.679688 32.90625 -53.078125 C 31.25 -54.171875 29.535156 -55.207031 27.765625 -56.1875 C 26.003906 -57.175781 24.335938 -57.945312 22.765625 -58.5 C 22.210938 -58.65625 21.679688 -58.832031 21.171875 -59.03125 C 20.660156 -59.226562 20.128906 -59.363281 19.578125 -59.4375 L 17.6875 -59.796875 C 17.613281 -59.796875 17.554688 -59.796875 17.515625 -59.796875 C 17.472656 -59.796875 17.414062 -59.796875 17.34375 -59.796875 C 17.882812 -57.273438 18.332031 -54.738281 18.6875 -52.1875 C 19.039062 -49.632812 19.378906 -47.0625 19.703125 -44.46875 C 23.546875 -45.007812 27.394531 -45.363281 31.25 -45.53125 C 34.632812 -45.601562 37.976562 -45.601562 41.28125 -45.53125 Z M 47.640625 -14.5 C 45.835938 -16.070312 43.953125 -17.566406 41.984375 -18.984375 C 40.015625 -20.398438 37.972656 -21.695312 35.859375 -22.875 C 33.804688 -23.976562 31.660156 -25.0625 29.421875 -26.125 C 27.179688 -27.1875 24.921875 -28.03125 22.640625 -28.65625 C 22.328125 -28.8125 22.015625 -28.890625 21.703125 -28.890625 L 23.109375 -18.390625 C 23.273438 -17.210938 23.4375 -16.035156 23.59375 -14.859375 C 23.75 -13.679688 23.863281 -12.503906 23.9375 -11.328125 C 26.613281 -11.640625 29.289062 -11.875 31.96875 -12.03125 C 34.320312 -12.101562 36.675781 -12.082031 39.03125 -11.96875 C 41.394531 -11.851562 43.753906 -11.597656 46.109375 -11.203125 C 48.160156 -10.960938 50.207031 -10.609375 52.25 -10.140625 C 51.539062 -10.929688 50.8125 -11.695312 50.0625 -12.4375 C 49.3125 -13.1875 48.503906 -13.875 47.640625 -14.5 Z M 47.640625 -14.5 "/></g></g></g><g fill="#ffffff" fill-opacity="1"><g transform="translate(179.534483, 95.727354)"><g><path d="M 43.171875 -3.53125 C 42.691406 -3.695312 42.15625 -4.523438 41.5625 -6.015625 C 40.976562 -7.503906 40.351562 -9.347656 39.6875 -11.546875 C 39.019531 -13.753906 38.390625 -16.035156 37.796875 -18.390625 C 37.210938 -20.753906 36.679688 -22.878906 36.203125 -24.765625 C 35.734375 -26.648438 35.421875 -28.023438 35.265625 -28.890625 L 26.0625 -28.78125 C 25.195312 -25.238281 24.445312 -21.71875 23.8125 -18.21875 C 23.1875 -14.71875 22.71875 -11.160156 22.40625 -7.546875 C 22.40625 -6.835938 22.070312 -6.484375 21.40625 -6.484375 C 20.738281 -6.484375 20.441406 -6.835938 20.515625 -7.546875 C 20.835938 -11.085938 21.289062 -14.644531 21.875 -18.21875 C 22.46875 -21.800781 23.3125 -25.320312 24.40625 -28.78125 L 23.359375 -28.78125 C 22.960938 -27.363281 22.566406 -25.648438 22.171875 -23.640625 C 21.773438 -21.640625 21.398438 -19.675781 21.046875 -17.75 C 20.691406 -15.820312 20.394531 -14.207031 20.15625 -12.90625 C 19.925781 -11.613281 19.8125 -10.96875 19.8125 -10.96875 L 19.109375 -5.65625 C 18.867188 -2.988281 17.960938 -1.066406 16.390625 0.109375 C 14.816406 1.296875 13.085938 1.769531 11.203125 1.53125 C 9.316406 1.289062 7.722656 0.390625 6.421875 -1.171875 C 5.128906 -2.742188 4.679688 -4.910156 5.078125 -7.671875 C 5.546875 -11.128906 6.09375 -14.585938 6.71875 -18.046875 C 7.351562 -21.503906 8.101562 -24.925781 8.96875 -28.3125 C 8.414062 -28.226562 7.863281 -28.164062 7.3125 -28.125 C 6.757812 -28.082031 6.25 -28.0625 5.78125 -28.0625 C 5.9375 -28.457031 5.972656 -28.8125 5.890625 -29.125 C 4.003906 -29.601562 2.628906 -30.628906 1.765625 -32.203125 C 0.898438 -33.773438 0.664062 -35.519531 1.0625 -37.4375 C 1.457031 -39.363281 2.554688 -41.132812 4.359375 -42.75 C 6.171875 -44.363281 8.847656 -45.445312 12.390625 -46 C 13.253906 -49.925781 14.195312 -53.796875 15.21875 -57.609375 C 16.238281 -61.421875 17.492188 -65.132812 18.984375 -68.75 C 19.691406 -70.320312 20.476562 -72.03125 21.34375 -73.875 C 22.207031 -75.726562 23.285156 -77.34375 24.578125 -78.71875 C 25.878906 -80.09375 27.515625 -80.78125 29.484375 -80.78125 C 30.503906 -80.863281 31.523438 -80.585938 32.546875 -79.953125 C 33.566406 -79.328125 34.316406 -78.546875 34.796875 -77.609375 C 36.523438 -77.523438 37.957031 -76.910156 39.09375 -75.765625 C 40.238281 -74.628906 40.890625 -73.117188 41.046875 -71.234375 C 41.203125 -68.878906 41.394531 -66.5 41.625 -64.09375 C 41.863281 -61.695312 42.101562 -59.359375 42.34375 -57.078125 C 42.414062 -57.003906 42.492188 -56.96875 42.578125 -56.96875 C 42.648438 -59.007812 42.742188 -61.03125 42.859375 -63.03125 C 42.984375 -65.039062 43.164062 -67.03125 43.40625 -69 C 43.40625 -69.3125 43.460938 -68.601562 43.578125 -66.875 C 43.691406 -65.144531 43.828125 -62.921875 43.984375 -60.203125 C 44.148438 -57.492188 44.3125 -54.78125 44.46875 -52.0625 C 44.625 -49.351562 44.816406 -47.09375 45.046875 -45.28125 C 47.328125 -45.050781 49.097656 -44.285156 50.359375 -42.984375 C 51.617188 -41.691406 52.40625 -40.195312 52.71875 -38.5 C 53.03125 -36.8125 52.867188 -35.140625 52.234375 -33.484375 C 51.609375 -31.835938 50.472656 -30.503906 48.828125 -29.484375 C 49.609375 -26.023438 50.429688 -22.113281 51.296875 -17.75 C 52.160156 -13.382812 52.832031 -9.429688 53.3125 -5.890625 C 53.625 -3.222656 53.40625 -1.203125 52.65625 0.171875 C 51.90625 1.546875 50.921875 2.3125 49.703125 2.46875 C 48.484375 2.632812 47.265625 2.203125 46.046875 1.171875 C 44.835938 0.148438 43.878906 -1.414062 43.171875 -3.53125 Z M 25.703125 -44.109375 C 26.566406 -44.265625 27.6875 -44.363281 29.0625 -44.40625 C 30.445312 -44.445312 31.53125 -44.503906 32.3125 -44.578125 C 32.15625 -45.597656 31.976562 -47.050781 31.78125 -48.9375 C 31.582031 -50.832031 31.34375 -52.859375 31.0625 -55.015625 C 30.789062 -57.179688 30.460938 -59.164062 30.078125 -60.96875 C 29.128906 -57.664062 28.300781 -54.71875 27.59375 -52.125 C 26.882812 -49.53125 26.253906 -46.859375 25.703125 -44.109375 Z M 25.703125 -44.109375 "/></g></g></g><g fill="#ffffff" fill-opacity="1"><g transform="translate(229.769152, 95.727354)"><g><path d="M 51.1875 0.359375 C 50.476562 0.828125 49.691406 0.828125 48.828125 0.359375 C 47.253906 -0.347656 46.191406 -1.507812 45.640625 -3.125 C 45.085938 -4.738281 44.65625 -6.289062 44.34375 -7.78125 L 43.640625 -11.796875 L 23.109375 -48.46875 C 22.796875 -48.863281 22.484375 -49.296875 22.171875 -49.765625 C 21.859375 -50.242188 21.546875 -50.675781 21.234375 -51.0625 C 21.304688 -47.050781 21.320312 -43.039062 21.28125 -39.03125 C 21.25 -35.019531 21.234375 -31.007812 21.234375 -27 C 21.390625 -24.644531 21.484375 -22.285156 21.515625 -19.921875 C 21.554688 -17.566406 21.617188 -15.210938 21.703125 -12.859375 C 21.773438 -11.679688 21.847656 -10.242188 21.921875 -8.546875 C 22.003906 -6.859375 21.828125 -5.34375 21.390625 -4 C 20.960938 -2.664062 19.925781 -1.882812 18.28125 -1.65625 C 17.570312 -0.46875 16.609375 0.335938 15.390625 0.765625 C 14.171875 1.203125 12.894531 1.222656 11.5625 0.828125 C 10.300781 0.515625 9.195312 -0.234375 8.25 -1.421875 C 7.9375 -6.367188 7.679688 -11.316406 7.484375 -16.265625 C 7.285156 -21.222656 7.109375 -26.179688 6.953125 -31.140625 C 6.796875 -35.148438 6.675781 -39.175781 6.59375 -43.21875 C 6.519531 -47.269531 6.40625 -51.300781 6.25 -55.3125 C 6.164062 -57.90625 6.101562 -60.5 6.0625 -63.09375 C 6.03125 -65.6875 6.09375 -68.242188 6.25 -70.765625 C 7.039062 -71.390625 7.785156 -71.742188 8.484375 -71.828125 C 8.484375 -72.765625 8.800781 -73.664062 9.4375 -74.53125 C 10.375 -75.71875 11.429688 -76.289062 12.609375 -76.25 C 13.796875 -76.207031 15.015625 -75.773438 16.265625 -74.953125 C 17.523438 -74.128906 18.664062 -73.1875 19.6875 -72.125 C 20.71875 -71.0625 21.503906 -70.175781 22.046875 -69.46875 C 24.097656 -66.789062 25.96875 -64.054688 27.65625 -61.265625 C 29.34375 -58.472656 30.972656 -55.625 32.546875 -52.71875 C 33.890625 -50.4375 35.1875 -48.113281 36.4375 -45.75 C 37.695312 -43.394531 38.914062 -41 40.09375 -38.5625 C 40.25 -38.25 40.328125 -37.859375 40.328125 -37.390625 L 42.21875 -33.734375 C 41.90625 -36.722656 41.472656 -39.75 40.921875 -42.8125 C 40.367188 -45.875 39.816406 -48.898438 39.265625 -51.890625 C 38.878906 -54.015625 38.488281 -56.140625 38.09375 -58.265625 C 37.695312 -60.390625 37.1875 -62.507812 36.5625 -64.625 C 36.25 -65.726562 35.953125 -66.847656 35.671875 -67.984375 C 35.398438 -69.128906 35.578125 -70.289062 36.203125 -71.46875 C 36.753906 -72.414062 37.425781 -73.125 38.21875 -73.59375 C 38.21875 -73.675781 38.234375 -73.71875 38.265625 -73.71875 C 38.304688 -73.71875 38.328125 -73.753906 38.328125 -73.828125 C 39.035156 -75.160156 40.113281 -75.828125 41.5625 -75.828125 C 43.019531 -75.828125 44.257812 -75.472656 45.28125 -74.765625 C 45.519531 -74.691406 45.796875 -74.5 46.109375 -74.1875 C 46.347656 -73.082031 46.625 -71.957031 46.9375 -70.8125 C 47.25 -69.675781 47.5625 -68.554688 47.875 -67.453125 C 48.820312 -64.078125 49.609375 -60.597656 50.234375 -57.015625 C 50.867188 -53.441406 51.460938 -49.882812 52.015625 -46.34375 C 53.191406 -39.1875 54.132812 -31.953125 54.84375 -24.640625 C 55.550781 -17.335938 56.140625 -10.066406 56.609375 -2.828125 C 55.984375 -1.960938 55.195312 -1.210938 54.25 -0.578125 C 53.3125 0.046875 52.289062 0.359375 51.1875 0.359375 Z M 57.796875 -4.015625 C 57.628906 -4.015625 57.46875 -3.894531 57.3125 -3.65625 C 56.53125 -14.894531 55.453125 -26.117188 54.078125 -37.328125 C 52.703125 -48.535156 50.796875 -59.601562 48.359375 -70.53125 C 48.203125 -71 48.316406 -71.429688 48.703125 -71.828125 C 49.023438 -72.210938 49.457031 -72.382812 50 -72.34375 C 50.550781 -72.3125 50.867188 -71.984375 50.953125 -71.359375 C 53.078125 -61.128906 54.75 -50.804688 55.96875 -40.390625 C 57.1875 -29.972656 57.753906 -19.535156 57.671875 -9.078125 C 57.753906 -8.679688 57.8125 -7.953125 57.84375 -6.890625 C 57.882812 -5.835938 57.867188 -4.878906 57.796875 -4.015625 Z M 6.125 -12.625 C 5.8125 -16.789062 5.578125 -21.132812 5.421875 -25.65625 C 5.265625 -30.175781 5.109375 -34.554688 4.953125 -38.796875 C 4.796875 -42.960938 4.675781 -47.171875 4.59375 -51.421875 C 4.519531 -55.671875 4.441406 -59.914062 4.359375 -64.15625 C 4.285156 -65.175781 4.328125 -66.21875 4.484375 -67.28125 C 4.640625 -68.34375 4.914062 -69.347656 5.3125 -70.296875 C 5.226562 -68.398438 5.207031 -66.507812 5.25 -64.625 C 5.289062 -62.738281 5.347656 -60.851562 5.421875 -58.96875 C 5.503906 -54.882812 5.601562 -50.796875 5.71875 -46.703125 C 5.832031 -42.617188 5.929688 -38.488281 6.015625 -34.3125 L 7.078125 -7.78125 C 7.078125 -7.78125 6.976562 -7.957031 6.78125 -8.3125 C 6.582031 -8.664062 6.363281 -10.101562 6.125 -12.625 Z M 19.34375 -18.390625 L 18.984375 -18.046875 C 18.984375 -18.046875 18.960938 -18.046875 18.921875 -18.046875 C 18.890625 -18.046875 18.832031 -18.003906 18.75 -17.921875 L 18.640625 -10.84375 C 18.640625 -9.90625 18.816406 -8.785156 19.171875 -7.484375 C 19.523438 -6.191406 19.503906 -4.796875 19.109375 -3.296875 C 19.890625 -4.640625 20.203125 -5.976562 20.046875 -7.3125 C 19.972656 -8.414062 19.914062 -9.554688 19.875 -10.734375 C 19.832031 -11.910156 19.734375 -13.085938 19.578125 -14.265625 C 19.578125 -14.972656 19.554688 -15.660156 19.515625 -16.328125 C 19.472656 -17.003906 19.414062 -17.691406 19.34375 -18.390625 Z M 19.34375 -18.390625 "/></g></g></g></g></g><g transform="matrix(1, 0, 0, 1, 77, 185)"><g clip-path="url(#968ea16242)"><g fill="#e2e2e2" fill-opacity="1"><g transform="translate(1.351015, 81.376034)"><g><path d="M 5.21875 0 L 5.21875 -58.859375 L 52.546875 -58.859375 L 52.546875 -45.0625 L 21.359375 -45.0625 L 21.359375 -36.0625 L 49.609375 -36.0625 L 49.609375 -23.203125 L 21.359375 -23.203125 L 21.359375 -13.875 L 52.96875 -13.875 L 52.96875 0 Z M 5.21875 0 "/></g></g></g><g fill="#e2e2e2" fill-opacity="1"><g transform="translate(57.511054, 81.376034)"><g><path d="M 5.21875 0 L 5.21875 -58.859375 L 28 -58.859375 C 33.207031 -58.859375 37.867188 -58.128906 41.984375 -56.671875 C 46.109375 -55.210938 49.585938 -53.207031 52.421875 -50.65625 C 55.253906 -48.101562 57.410156 -45.03125 58.890625 -41.4375 C 60.378906 -37.851562 61.125 -33.960938 61.125 -29.765625 L 61.125 -29.59375 C 61.125 -25.394531 60.363281 -21.472656 58.84375 -17.828125 C 57.332031 -14.179688 55.148438 -11.039062 52.296875 -8.40625 C 49.441406 -5.769531 45.9375 -3.707031 41.78125 -2.21875 C 37.632812 -0.738281 32.925781 0 27.65625 0 Z M 28.171875 -44.484375 L 21.53125 -44.484375 L 21.53125 -14.46875 L 28.171875 -14.46875 C 33.046875 -14.46875 36.984375 -15.769531 39.984375 -18.375 C 42.984375 -20.976562 44.484375 -24.632812 44.484375 -29.34375 L 44.484375 -29.515625 C 44.484375 -34.222656 42.984375 -37.894531 39.984375 -40.53125 C 36.984375 -43.164062 33.046875 -44.484375 28.171875 -44.484375 Z M 28.171875 -44.484375 "/></g></g></g><g fill="#e2e2e2" fill-opacity="1"><g transform="translate(121.910147, 81.376034)"><g><path d="M 35.234375 1.171875 C 30.691406 1.171875 26.457031 0.414062 22.53125 -1.09375 C 18.601562 -2.601562 15.222656 -4.6875 12.390625 -7.34375 C 9.566406 -10.007812 7.34375 -13.21875 5.71875 -16.96875 C 4.09375 -20.726562 3.28125 -24.828125 3.28125 -29.265625 L 3.28125 -29.421875 C 3.28125 -33.679688 4.078125 -37.6875 5.671875 -41.4375 C 7.273438 -45.195312 9.476562 -48.4375 12.28125 -51.15625 C 15.082031 -53.875 18.414062 -56.03125 22.28125 -57.625 C 26.144531 -59.226562 30.347656 -60.03125 34.890625 -60.03125 C 40.046875 -60.03125 44.539062 -59.285156 48.375 -57.796875 C 52.21875 -56.316406 55.679688 -54.234375 58.765625 -51.546875 L 49.1875 -39.9375 C 47.113281 -41.675781 44.953125 -43.035156 42.703125 -44.015625 C 40.460938 -44.992188 37.882812 -45.484375 34.96875 -45.484375 C 32.84375 -45.484375 30.867188 -45.0625 29.046875 -44.21875 C 27.222656 -43.382812 25.640625 -42.25 24.296875 -40.8125 C 22.953125 -39.382812 21.882812 -37.691406 21.09375 -35.734375 C 20.3125 -33.773438 19.921875 -31.671875 19.921875 -29.421875 L 19.921875 -29.265625 C 19.921875 -24.492188 21.421875 -20.566406 24.421875 -17.484375 C 27.421875 -14.398438 31.25 -12.859375 35.90625 -12.859375 C 37.914062 -12.859375 39.691406 -13.066406 41.234375 -13.484375 C 42.773438 -13.910156 44.132812 -14.515625 45.3125 -15.296875 L 45.3125 -22.453125 L 33.796875 -22.453125 L 33.796875 -34.390625 L 60.78125 -34.390625 L 60.78125 -7.984375 C 57.707031 -5.410156 54.023438 -3.238281 49.734375 -1.46875 C 45.441406 0.289062 40.609375 1.171875 35.234375 1.171875 Z M 35.234375 1.171875 "/></g></g></g><g fill="#e2e2e2" fill-opacity="1"><g transform="translate(186.561452, 81.376034)"><g><path d="M 5.21875 0 L 5.21875 -58.859375 L 52.546875 -58.859375 L 52.546875 -45.0625 L 21.359375 -45.0625 L 21.359375 -36.0625 L 49.609375 -36.0625 L 49.609375 -23.203125 L 21.359375 -23.203125 L 21.359375 -13.875 L 52.96875 -13.875 L 52.96875 0 Z M 5.21875 0 "/></g></g></g></g></g><g transform="matrix(1, 0, 0, 1, 0, 60)"><g clip-path="url(#c43aed6585)"><g fill="#e2e2e2" fill-opacity="1"><g transform="translate(40.965728, 131.643139)"><g><path d="M -0.28125 -0.53125 L -6.125 2.578125 L -7.3125 0.34375 C -7.59375 -0.1875 -7.769531 -0.691406 -7.84375 -1.171875 C -7.914062 -1.660156 -7.898438 -2.113281 -7.796875 -2.53125 C -7.703125 -2.945312 -7.515625 -3.320312 -7.234375 -3.65625 C -6.960938 -4 -6.613281 -4.285156 -6.1875 -4.515625 L -6.171875 -4.515625 C -5.753906 -4.734375 -5.320312 -4.859375 -4.875 -4.890625 C -4.4375 -4.929688 -4.007812 -4.878906 -3.59375 -4.734375 C -3.175781 -4.597656 -2.785156 -4.363281 -2.421875 -4.03125 C -2.054688 -3.695312 -1.734375 -3.269531 -1.453125 -2.75 Z M -5.90625 -0.453125 L -5.5625 0.203125 L -2.578125 -1.375 L -2.921875 -2.03125 C -3.179688 -2.507812 -3.515625 -2.832031 -3.921875 -3 C -4.335938 -3.164062 -4.78125 -3.125 -5.25 -2.875 L -5.265625 -2.859375 C -5.734375 -2.617188 -6.019531 -2.273438 -6.125 -1.828125 C -6.238281 -1.390625 -6.164062 -0.929688 -5.90625 -0.453125 Z M -5.90625 -0.453125 "/></g></g></g><g fill="#e2e2e2" fill-opacity="1"><g transform="translate(37.348396, 124.701273)"><g><path d="M -0.21875 -0.546875 L -6.390625 1.828125 L -8.296875 -3.140625 L -6.84375 -3.6875 L -5.578125 -0.421875 L -4.65625 -0.78125 L -5.796875 -3.734375 L -4.4375 -4.265625 L -3.296875 -1.3125 L -2.3125 -1.6875 L -3.59375 -4.984375 L -2.140625 -5.546875 Z M -0.21875 -0.546875 "/></g></g></g><g fill="#e2e2e2" fill-opacity="1"><g transform="translate(34.88858, 118.222523)"><g><path d="M -0.15625 -0.578125 L -6.546875 1.09375 L -7.875 -4.015625 L -6.34375 -4.421875 L -5.46875 -1.078125 L -4.375 -1.359375 L -5.171875 -4.375 L -3.6875 -4.765625 L -2.890625 -1.75 L -0.609375 -2.34375 Z M -0.15625 -0.578125 "/></g></g></g><g fill="#e2e2e2" fill-opacity="1"><g transform="translate(33.253753, 111.603497)"><g><path d="M -0.109375 -0.625 L -6.625 0.484375 L -6.9375 -1.328125 L -0.421875 -2.4375 Z M -0.109375 -0.625 "/></g></g></g><g fill="#e2e2e2" fill-opacity="1"><g transform="translate(32.544008, 107.914264)"><g><path d="M -0.046875 -0.59375 L -6.640625 -0.109375 L -6.765625 -1.8125 L -3.46875 -4.765625 L -6.953125 -4.515625 L -7.09375 -6.328125 L -0.5 -6.8125 L -0.375 -5.21875 L -3.78125 -2.140625 L -0.171875 -2.40625 Z M -0.046875 -0.59375 "/></g></g></g><g fill="#e2e2e2" fill-opacity="1"><g transform="translate(32.033305, 99.928261)"><g><path d="M 0.03125 -0.59375 L -6.5625 -0.921875 L -6.3125 -6.234375 L -4.78125 -6.15625 L -4.9375 -2.65625 L -3.9375 -2.609375 L -3.796875 -5.78125 L -2.34375 -5.703125 L -2.484375 -2.53125 L -1.4375 -2.484375 L -1.265625 -6.03125 L 0.296875 -5.953125 Z M 0.03125 -0.59375 "/></g></g></g><g fill="#e2e2e2" fill-opacity="1"><g transform="translate(32.479264, 92.936365)"><g/></g></g><g fill="#e2e2e2" fill-opacity="1"><g transform="translate(32.857343, 89.653872)"><g><path d="M 0.546875 -2.4375 L -1.875 -2.984375 L -6.453125 -1.4375 L -6 -3.46875 L -3.34375 -4.28125 L -5.390625 -6.125 L -4.9375 -8.140625 L -1.484375 -4.78125 L 0.953125 -4.234375 Z M 0.546875 -2.4375 "/></g></g></g><g fill="#e2e2e2" fill-opacity="1"><g transform="translate(34.48813, 82.434237)"><g><path d="M 1.46875 -3.640625 C 1.289062 -3.160156 1.046875 -2.75 0.734375 -2.40625 C 0.421875 -2.0625 0.0664062 -1.789062 -0.328125 -1.59375 C -0.734375 -1.394531 -1.160156 -1.285156 -1.609375 -1.265625 C -2.066406 -1.253906 -2.519531 -1.332031 -2.96875 -1.5 L -2.984375 -1.5 C -3.421875 -1.65625 -3.804688 -1.890625 -4.140625 -2.203125 C -4.472656 -2.515625 -4.726562 -2.867188 -4.90625 -3.265625 C -5.09375 -3.671875 -5.195312 -4.113281 -5.21875 -4.59375 C -5.238281 -5.070312 -5.160156 -5.550781 -4.984375 -6.03125 C -4.816406 -6.507812 -4.570312 -6.921875 -4.25 -7.265625 C -3.925781 -7.609375 -3.566406 -7.875 -3.171875 -8.0625 C -2.773438 -8.257812 -2.347656 -8.367188 -1.890625 -8.390625 C -1.429688 -8.421875 -0.984375 -8.351562 -0.546875 -8.1875 L -0.53125 -8.1875 C -0.0820312 -8.019531 0.300781 -7.78125 0.625 -7.46875 C 0.957031 -7.15625 1.21875 -6.796875 1.40625 -6.390625 C 1.59375 -5.984375 1.691406 -5.539062 1.703125 -5.0625 C 1.722656 -4.59375 1.644531 -4.117188 1.46875 -3.640625 Z M -0.0625 -4.21875 C 0.0195312 -4.445312 0.0507812 -4.675781 0.03125 -4.90625 C 0.0078125 -5.144531 -0.046875 -5.359375 -0.140625 -5.546875 C -0.242188 -5.734375 -0.382812 -5.898438 -0.5625 -6.046875 C -0.75 -6.203125 -0.953125 -6.320312 -1.171875 -6.40625 L -1.1875 -6.40625 C -1.414062 -6.488281 -1.640625 -6.53125 -1.859375 -6.53125 C -2.085938 -6.53125 -2.300781 -6.488281 -2.5 -6.40625 C -2.707031 -6.320312 -2.890625 -6.195312 -3.046875 -6.03125 C -3.210938 -5.863281 -3.34375 -5.664062 -3.4375 -5.4375 C -3.519531 -5.195312 -3.550781 -4.960938 -3.53125 -4.734375 C -3.519531 -4.515625 -3.460938 -4.304688 -3.359375 -4.109375 C -3.253906 -3.910156 -3.117188 -3.734375 -2.953125 -3.578125 C -2.785156 -3.429688 -2.585938 -3.316406 -2.359375 -3.234375 L -2.34375 -3.234375 C -2.113281 -3.148438 -1.878906 -3.109375 -1.640625 -3.109375 C -1.410156 -3.117188 -1.191406 -3.164062 -0.984375 -3.25 C -0.785156 -3.34375 -0.601562 -3.46875 -0.4375 -3.625 C -0.28125 -3.78125 -0.15625 -3.976562 -0.0625 -4.21875 Z M -0.0625 -4.21875 "/></g></g></g><g fill="#e2e2e2" fill-opacity="1"><g transform="translate(37.435674, 74.555842)"><g><path d="M 1.765625 -3.09375 C 1.335938 -2.269531 0.773438 -1.726562 0.078125 -1.46875 C -0.617188 -1.207031 -1.425781 -1.316406 -2.34375 -1.796875 L -5.625 -3.515625 L -4.765625 -5.15625 L -1.515625 -3.453125 C -1.097656 -3.234375 -0.734375 -3.171875 -0.421875 -3.265625 C -0.109375 -3.359375 0.128906 -3.566406 0.296875 -3.890625 C 0.472656 -4.222656 0.515625 -4.535156 0.421875 -4.828125 C 0.328125 -5.128906 0.078125 -5.390625 -0.328125 -5.609375 L -3.625 -7.328125 L -2.765625 -8.96875 L 0.484375 -7.28125 C 0.953125 -7.03125 1.320312 -6.75 1.59375 -6.4375 C 1.863281 -6.125 2.050781 -5.789062 2.15625 -5.4375 C 2.257812 -5.082031 2.273438 -4.707031 2.203125 -4.3125 C 2.128906 -3.914062 1.984375 -3.507812 1.765625 -3.09375 Z M 1.765625 -3.09375 "/></g></g></g><g fill="#e2e2e2" fill-opacity="1"><g transform="translate(41.073138, 67.717638)"><g><path d="M 0.34375 -0.484375 L -5.09375 -4.25 L -3.3125 -6.828125 C -3.03125 -7.234375 -2.734375 -7.546875 -2.421875 -7.765625 C -2.117188 -7.992188 -1.816406 -8.132812 -1.515625 -8.1875 C -1.234375 -8.238281 -0.960938 -8.226562 -0.703125 -8.15625 C -0.441406 -8.09375 -0.179688 -7.972656 0.078125 -7.796875 L 0.109375 -7.765625 C 0.523438 -7.484375 0.796875 -7.144531 0.921875 -6.75 C 1.054688 -6.351562 1.082031 -5.9375 1 -5.5 L 3.796875 -5.484375 L 2.59375 -3.75 L 0.203125 -3.796875 L -0.265625 -3.125 L 1.375 -1.984375 Z M -1.453125 -3.9375 L -0.75 -4.9375 C -0.570312 -5.195312 -0.488281 -5.4375 -0.5 -5.65625 C -0.519531 -5.882812 -0.628906 -6.066406 -0.828125 -6.203125 L -0.84375 -6.21875 C -1.0625 -6.363281 -1.273438 -6.398438 -1.484375 -6.328125 C -1.703125 -6.253906 -1.898438 -6.097656 -2.078125 -5.859375 L -2.765625 -4.859375 Z M -1.453125 -3.9375 "/></g></g></g><g fill="#e2e2e2" fill-opacity="1"><g transform="translate(45.432707, 61.645097)"><g/></g></g><g fill="#e2e2e2" fill-opacity="1"><g transform="translate(47.487584, 59.065263)"><g><path d="M 2.609375 -2.421875 C 1.953125 -1.765625 1.25 -1.414062 0.5 -1.375 C -0.238281 -1.34375 -0.96875 -1.691406 -1.6875 -2.421875 L -4.3125 -5.03125 L -3 -6.34375 L -0.40625 -3.75 C -0.0703125 -3.414062 0.253906 -3.242188 0.578125 -3.234375 C 0.898438 -3.222656 1.191406 -3.347656 1.453125 -3.609375 C 1.710938 -3.867188 1.84375 -4.160156 1.84375 -4.484375 C 1.84375 -4.804688 1.679688 -5.128906 1.359375 -5.453125 L -1.265625 -8.078125 L 0.046875 -9.390625 L 2.625 -6.8125 C 3 -6.4375 3.269531 -6.054688 3.4375 -5.671875 C 3.601562 -5.285156 3.679688 -4.910156 3.671875 -4.546875 C 3.660156 -4.179688 3.5625 -3.816406 3.375 -3.453125 C 3.195312 -3.097656 2.941406 -2.753906 2.609375 -2.421875 Z M 2.609375 -2.421875 "/></g></g></g><g fill="#e2e2e2" fill-opacity="1"><g transform="translate(52.998615, 53.622786)"><g><path d="M 0.46875 -0.359375 L -3.59375 -5.578125 L -1.125 -7.5 C -0.726562 -7.8125 -0.351562 -8.023438 0 -8.140625 C 0.363281 -8.265625 0.703125 -8.304688 1.015625 -8.265625 C 1.273438 -8.222656 1.523438 -8.132812 1.765625 -8 C 2.003906 -7.863281 2.21875 -7.671875 2.40625 -7.421875 L 2.421875 -7.390625 C 2.734375 -6.992188 2.894531 -6.582031 2.90625 -6.15625 C 2.914062 -5.738281 2.8125 -5.335938 2.59375 -4.953125 L 5.265625 -4.09375 L 3.59375 -2.796875 L 1.3125 -3.5625 L 0.671875 -3.0625 L 1.90625 -1.484375 Z M -0.203125 -4.203125 L 0.765625 -4.953125 C 1.015625 -5.148438 1.160156 -5.351562 1.203125 -5.5625 C 1.253906 -5.78125 1.207031 -5.984375 1.0625 -6.171875 L 1.046875 -6.203125 C 0.890625 -6.398438 0.695312 -6.492188 0.46875 -6.484375 C 0.238281 -6.472656 0.00390625 -6.378906 -0.234375 -6.203125 L -1.1875 -5.453125 Z M -0.203125 -4.203125 "/></g></g></g><g fill="#e2e2e2" fill-opacity="1"><g transform="translate(58.848715, 49.113486)"><g><path d="M 0.515625 -0.3125 L -2.890625 -5.984375 L 0.015625 -7.71875 C 0.367188 -7.9375 0.695312 -8.078125 1 -8.140625 C 1.3125 -8.203125 1.59375 -8.207031 1.84375 -8.15625 C 2.03125 -8.101562 2.195312 -8.019531 2.34375 -7.90625 C 2.5 -7.789062 2.640625 -7.632812 2.765625 -7.4375 L 2.765625 -7.421875 C 2.960938 -7.097656 3.039062 -6.785156 3 -6.484375 C 2.957031 -6.179688 2.847656 -5.894531 2.671875 -5.625 C 3.066406 -5.726562 3.429688 -5.734375 3.765625 -5.640625 C 4.109375 -5.546875 4.394531 -5.304688 4.625 -4.921875 L 4.640625 -4.90625 C 4.929688 -4.414062 4.972656 -3.921875 4.765625 -3.421875 C 4.554688 -2.921875 4.109375 -2.46875 3.421875 -2.0625 Z M 1.4375 -6.171875 L 1.421875 -6.1875 C 1.328125 -6.34375 1.195312 -6.425781 1.03125 -6.4375 C 0.863281 -6.445312 0.660156 -6.382812 0.421875 -6.25 L -0.609375 -5.625 L -0.015625 -4.640625 L 0.984375 -5.234375 C 1.210938 -5.378906 1.367188 -5.53125 1.453125 -5.6875 C 1.535156 -5.84375 1.53125 -6.003906 1.4375 -6.171875 Z M 2.921875 -4.203125 C 2.828125 -4.347656 2.6875 -4.429688 2.5 -4.453125 C 2.320312 -4.472656 2.101562 -4.398438 1.84375 -4.234375 L 0.640625 -3.515625 L 1.28125 -2.484375 L 2.5 -3.21875 C 2.738281 -3.363281 2.894531 -3.519531 2.96875 -3.6875 C 3.039062 -3.851562 3.023438 -4.019531 2.921875 -4.1875 Z M 2.921875 -4.203125 "/></g></g></g><g fill="#e2e2e2" fill-opacity="1"><g transform="translate(65.141714, 45.346366)"><g><path d="M 0.0625 -0.03125 L -0.0625 -7.265625 L 1.5625 -7.984375 L 6.8125 -3 L 5.03125 -2.21875 L 4.109375 -3.109375 L 1.765625 -2.078125 L 1.8125 -0.796875 Z M 1.6875 -3.609375 L 3.046875 -4.21875 L 1.625 -5.625 Z M 1.6875 -3.609375 "/></g></g></g><g fill="#e2e2e2" fill-opacity="1"><g transform="translate(72.546804, 42.127066)"><g><path d="M 0.5625 -0.171875 L -1.28125 -6.515625 L 0.359375 -6.984375 L 3.9375 -4.40625 L 2.96875 -7.75 L 4.71875 -8.25 L 6.5625 -1.90625 L 5.03125 -1.46875 L 1.296875 -4.15625 L 2.3125 -0.671875 Z M 0.5625 -0.171875 "/></g></g></g><g fill="#e2e2e2" fill-opacity="1"><g transform="translate(83.672438, 39.370385)"><g><path d="M 0.640625 -0.078125 L -0.234375 -6.625 L 1.578125 -6.875 L 2.453125 -0.328125 Z M 0.640625 -0.078125 "/></g></g></g><g fill="#e2e2e2" fill-opacity="1"><g transform="translate(87.388928, 38.810757)"><g><path d="M 0.59375 -0.015625 L 0.359375 -6.625 L 2.90625 -6.71875 C 3.5 -6.738281 4.03125 -6.675781 4.5 -6.53125 C 4.96875 -6.394531 5.363281 -6.1875 5.6875 -5.90625 C 6.019531 -5.632812 6.273438 -5.300781 6.453125 -4.90625 C 6.640625 -4.507812 6.738281 -4.070312 6.75 -3.59375 L 6.75 -3.578125 C 6.769531 -3.109375 6.703125 -2.664062 6.546875 -2.25 C 6.390625 -1.832031 6.15625 -1.46875 5.84375 -1.15625 C 5.53125 -0.851562 5.144531 -0.609375 4.6875 -0.421875 C 4.226562 -0.234375 3.703125 -0.128906 3.109375 -0.109375 Z M 2.984375 -5.109375 L 2.234375 -5.09375 L 2.359375 -1.71875 L 3.109375 -1.734375 C 3.648438 -1.753906 4.082031 -1.914062 4.40625 -2.21875 C 4.738281 -2.53125 4.894531 -2.953125 4.875 -3.484375 L 4.875 -3.5 C 4.851562 -4.03125 4.664062 -4.4375 4.3125 -4.71875 C 3.96875 -5 3.523438 -5.128906 2.984375 -5.109375 Z M 2.984375 -5.109375 "/></g></g></g><g fill="#e2e2e2" fill-opacity="1"><g transform="translate(95.214429, 38.588055)"><g><path d="M 0.59375 0.046875 L 1.15625 -6.546875 L 6.453125 -6.09375 L 6.3125 -4.546875 L 2.8125 -4.84375 L 2.734375 -3.84375 L 5.90625 -3.578125 L 5.78125 -2.125 L 2.609375 -2.390625 L 2.515625 -1.359375 L 6.0625 -1.0625 L 5.9375 0.5 Z M 0.59375 0.046875 "/></g></g></g><g fill="#e2e2e2" fill-opacity="1"><g transform="translate(102.093525, 39.173929)"><g><path d="M 0.578125 0.125 L 1.921875 -6.34375 L 3.59375 -6 L 5.546875 -2.03125 L 6.25 -5.4375 L 8.03125 -5.078125 L 6.6875 1.390625 L 5.125 1.078125 L 3.09375 -3.0625 L 2.359375 0.484375 Z M 0.578125 0.125 "/></g></g></g><g fill="#e2e2e2" fill-opacity="1"><g transform="translate(109.915321, 40.880802)"><g><path d="M 2.09375 0.703125 L 3.703125 -4.046875 L 1.828125 -4.671875 L 2.34375 -6.1875 L 7.828125 -4.328125 L 7.3125 -2.8125 L 5.421875 -3.453125 L 3.8125 1.296875 Z M 2.09375 0.703125 "/></g></g></g><g fill="#e2e2e2" fill-opacity="1"><g transform="translate(116.435468, 43.193155)"><g><path d="M 0.59375 0.265625 L 3.25 -5.78125 L 4.921875 -5.046875 L 2.265625 1 Z M 0.59375 0.265625 "/></g></g></g><g fill="#e2e2e2" fill-opacity="1"><g transform="translate(119.910157, 44.684837)"><g><path d="M 1.9375 1.0625 L 4.34375 -3.328125 L 2.609375 -4.28125 L 3.390625 -5.6875 L 8.453125 -2.90625 L 7.671875 -1.5 L 5.9375 -2.453125 L 3.53125 1.9375 Z M 1.9375 1.0625 "/></g></g></g><g fill="#e2e2e2" fill-opacity="1"><g transform="translate(125.897126, 47.987979)"><g><path d="M 2.03125 1.453125 L 3.46875 -0.578125 L 3.8125 -5.40625 L 5.515625 -4.1875 L 5.234375 -1.421875 L 7.734375 -2.609375 L 9.421875 -1.40625 L 4.984375 0.484375 L 3.53125 2.515625 Z M 2.03125 1.453125 "/></g></g></g></g></g></svg>