<svg xmlns="http://www.w3.org/2000/svg" xmlns:xlink="http://www.w3.org/1999/xlink" width="500" zoomAndPan="magnify" viewBox="0 0 375 374.999991" height="500" preserveAspectRatio="xMidYMid meet" version="1.0"><defs><g/><clipPath id="a61b7516ab"><rect x="0" width="335" y="0" height="117"/></clipPath><clipPath id="e247d0f3ac"><path d="M 248 215.089844 L 313 215.089844 L 313 270 L 248 270 Z M 248 215.089844 " clip-rule="nonzero"/></clipPath><clipPath id="c7ff0ca255"><rect x="0" width="190" y="0" height="47"/></clipPath></defs><g transform="matrix(1, 0, 0, 1, 19, 118)"><g clip-path="url(#a61b7516ab)"><g fill="#ffffff" fill-opacity="1"><g transform="translate(1.994603, 89.619579)"><g><path d="M 3.609375 17.171875 L 2.484375 -28 L 3.359375 -60.59375 L 24.140625 -60.59375 L 24.765625 -54.375 C 26.421875 -56.613281 28.617188 -58.5 31.359375 -60.03125 C 34.097656 -61.570312 37.5 -62.34375 41.5625 -62.34375 C 49.6875 -62.34375 56.007812 -59.875 60.53125 -54.9375 C 65.0625 -50 67.242188 -42.515625 67.078125 -32.484375 C 67.078125 -25.765625 66.285156 -19.976562 64.703125 -15.125 C 63.128906 -10.269531 60.492188 -6.554688 56.796875 -3.984375 C 53.109375 -1.410156 48.070312 -0.125 41.6875 -0.125 C 38.445312 -0.125 35.601562 -0.578125 33.15625 -1.484375 C 30.707031 -2.398438 28.570312 -3.609375 26.75 -5.109375 L 26.125 17.171875 Z M 30.234375 -25.515625 C 30.234375 -23.597656 30.789062 -22.160156 31.90625 -21.203125 C 33.03125 -20.253906 34.382812 -19.78125 35.96875 -19.78125 C 37.539062 -19.78125 38.863281 -20.21875 39.9375 -21.09375 C 41.019531 -21.96875 41.5625 -23.441406 41.5625 -25.515625 C 41.5625 -27.503906 41.019531 -28.890625 39.9375 -29.671875 C 38.863281 -30.460938 37.539062 -30.859375 35.96875 -30.859375 C 34.382812 -30.859375 33.03125 -30.378906 31.90625 -29.421875 C 30.789062 -28.472656 30.234375 -27.171875 30.234375 -25.515625 Z M 30.234375 -25.515625 "/></g></g></g><g fill="#ffffff" fill-opacity="1"><g transform="translate(71.543348, 89.619579)"><g><path d="M 34.09375 0 C 28.125 0 22.753906 -0.992188 17.984375 -2.984375 C 13.210938 -4.972656 9.4375 -8.289062 6.65625 -12.9375 C 3.875 -17.582031 2.484375 -23.890625 2.484375 -31.859375 C 2.484375 -39.410156 3.875 -45.40625 6.65625 -49.84375 C 9.4375 -54.28125 13.210938 -57.453125 17.984375 -59.359375 C 22.753906 -61.265625 28.125 -62.21875 34.09375 -62.21875 C 39.988281 -62.21875 44.84375 -61.363281 48.65625 -59.65625 C 52.46875 -57.957031 55.429688 -55.613281 57.546875 -52.625 C 59.660156 -49.644531 61.132812 -46.164062 61.96875 -42.1875 C 62.800781 -38.207031 63.21875 -33.972656 63.21875 -29.484375 L 63.21875 -24.890625 L 29.484375 -24.890625 C 29.484375 -23.066406 30.207031 -21.757812 31.65625 -20.96875 C 33.113281 -20.175781 35.003906 -19.71875 37.328125 -19.59375 C 39.648438 -19.46875 42.078125 -19.570312 44.609375 -19.90625 C 47.140625 -20.238281 49.484375 -20.675781 51.640625 -21.21875 C 53.796875 -21.757812 55.457031 -22.273438 56.625 -22.765625 L 56.625 -5.71875 C 53.96875 -4.144531 51.5 -2.941406 49.21875 -2.109375 C 46.9375 -1.285156 44.613281 -0.726562 42.25 -0.4375 C 39.882812 -0.144531 37.164062 0 34.09375 0 Z M 29.484375 -31.859375 L 39.703125 -31.859375 C 39.703125 -33.515625 39.242188 -34.859375 38.328125 -35.890625 C 37.410156 -36.929688 36.125 -37.453125 34.46875 -37.453125 C 33.144531 -37.453125 31.984375 -36.992188 30.984375 -36.078125 C 29.984375 -35.171875 29.484375 -33.765625 29.484375 -31.859375 Z M 29.484375 -31.859375 "/></g></g></g><g fill="#ffffff" fill-opacity="1"><g transform="translate(137.235192, 89.619579)"><g><path d="M 29.734375 0 C 24.515625 0 19.847656 -0.992188 15.734375 -2.984375 C 11.628906 -4.972656 8.394531 -8.226562 6.03125 -12.75 C 3.664062 -17.269531 2.484375 -23.390625 2.484375 -31.109375 C 2.484375 -42.472656 4.742188 -50.5 9.265625 -55.1875 C 13.785156 -59.875 19.988281 -62.21875 27.875 -62.21875 C 31.113281 -62.21875 33.953125 -61.757812 36.390625 -60.84375 C 38.835938 -59.9375 40.976562 -58.734375 42.8125 -57.234375 L 43.421875 -79.515625 L 65.953125 -79.515625 L 67.078125 -34.34375 L 66.203125 -0.125 L 45.421875 -0.125 L 44.796875 -7.96875 C 43.222656 -5.726562 41.066406 -3.835938 38.328125 -2.296875 C 35.585938 -0.765625 32.722656 0 29.734375 0 Z M 27.875 -25.515625 C 27.875 -23.441406 28.410156 -21.988281 29.484375 -21.15625 C 30.566406 -20.320312 31.894531 -19.90625 33.46875 -19.90625 C 35.050781 -19.90625 36.378906 -20.359375 37.453125 -21.265625 C 38.535156 -22.179688 39.078125 -23.597656 39.078125 -25.515625 C 39.078125 -27.335938 38.535156 -28.722656 37.453125 -29.671875 C 36.378906 -30.628906 35.050781 -31.109375 33.46875 -31.109375 C 31.894531 -31.109375 30.566406 -30.691406 29.484375 -29.859375 C 28.410156 -29.035156 27.875 -27.585938 27.875 -25.515625 Z M 27.875 -25.515625 "/></g></g></g><g fill="#ffffff" fill-opacity="1"><g transform="translate(206.783937, 89.619579)"><g><path d="M 2.484375 0 L 4.234375 -60.484375 L 24.890625 -60.484375 L 25.890625 -47.15625 C 28.617188 -53.46875 32.597656 -57.765625 37.828125 -60.046875 C 43.054688 -62.328125 48.820312 -62.59375 55.125 -60.84375 L 52.640625 -29.125 L 34.84375 -30.859375 C 33.019531 -31.023438 31.773438 -30.648438 31.109375 -29.734375 C 30.441406 -28.828125 30.109375 -27.582031 30.109375 -26 L 30.609375 0 Z M 2.484375 0 "/></g></g></g><g fill="#ffffff" fill-opacity="1"><g transform="translate(264.388694, 89.619579)"><g><path d="M 34.34375 0.75 C 28.457031 0.75 23.109375 -0.242188 18.296875 -2.234375 C 13.484375 -4.222656 9.644531 -7.519531 6.78125 -12.125 C 3.914062 -16.726562 2.484375 -22.972656 2.484375 -30.859375 C 2.484375 -38.660156 3.914062 -44.882812 6.78125 -49.53125 C 9.644531 -54.175781 13.484375 -57.554688 18.296875 -59.671875 C 23.109375 -61.785156 28.457031 -62.84375 34.34375 -62.84375 C 40.3125 -62.84375 45.703125 -61.578125 50.515625 -59.046875 C 55.328125 -56.515625 59.144531 -52.882812 61.96875 -48.15625 C 64.789062 -43.425781 66.203125 -37.660156 66.203125 -30.859375 C 66.203125 -23.722656 64.789062 -17.8125 61.96875 -13.125 C 59.144531 -8.4375 55.328125 -4.953125 50.515625 -2.671875 C 45.703125 -0.390625 40.3125 0.75 34.34375 0.75 Z M 28.625 -25.390625 C 28.625 -23.234375 29.179688 -21.71875 30.296875 -20.84375 C 31.421875 -19.96875 32.769531 -19.53125 34.34375 -19.53125 C 36 -19.53125 37.382812 -20.023438 38.5 -21.015625 C 39.625 -22.015625 40.1875 -23.472656 40.1875 -25.390625 C 40.1875 -27.128906 39.625 -28.472656 38.5 -29.421875 C 37.382812 -30.378906 36 -30.859375 34.34375 -30.859375 C 32.769531 -30.859375 31.421875 -30.460938 30.296875 -29.671875 C 29.179688 -28.890625 28.625 -27.460938 28.625 -25.390625 Z M 28.625 -25.390625 "/></g></g></g></g></g><g clip-path="url(#e247d0f3ac)"><path fill="#ffffff" d="M 262.914062 234.355469 C 264.675781 239.371094 263.128906 244.476562 259.464844 245.761719 C 255.800781 247.046875 251.40625 244.023438 249.648438 239.011719 C 247.886719 233.996094 249.433594 228.890625 253.097656 227.605469 C 256.761719 226.320312 261.15625 229.34375 262.914062 234.355469 Z M 292.410156 269.992188 C 290.796875 269.996094 289.242188 269.6875 287.75 269.070312 C 286.257812 268.449219 284.941406 267.570312 283.804688 266.425781 C 283.59375 266.21875 283.367188 266.03125 283.121094 265.867188 C 282.875 265.703125 282.613281 265.5625 282.339844 265.449219 C 282.066406 265.335938 281.785156 265.25 281.496094 265.195312 C 281.207031 265.136719 280.914062 265.105469 280.617188 265.105469 C 280.320312 265.105469 280.027344 265.136719 279.738281 265.195312 C 279.449219 265.25 279.167969 265.335938 278.894531 265.449219 C 278.621094 265.5625 278.359375 265.703125 278.113281 265.867188 C 277.867188 266.03125 277.640625 266.21875 277.433594 266.425781 C 276.867188 266.992188 276.253906 267.496094 275.585938 267.941406 C 274.921875 268.386719 274.222656 268.761719 273.484375 269.066406 C 272.742188 269.371094 271.984375 269.601562 271.199219 269.757812 C 270.414062 269.914062 269.621094 269.992188 268.824219 269.992188 C 268.023438 269.992188 267.234375 269.914062 266.449219 269.757812 C 265.664062 269.601562 264.902344 269.371094 264.164062 269.066406 C 263.425781 268.761719 262.722656 268.386719 262.058594 267.941406 C 261.394531 267.496094 260.78125 266.992188 260.214844 266.425781 C 259.648438 265.863281 259.144531 265.246094 258.699219 264.582031 C 258.257812 263.917969 257.882812 263.214844 257.574219 262.476562 C 257.269531 261.738281 257.039062 260.976562 256.882812 260.191406 C 256.726562 259.410156 256.648438 258.617188 256.648438 257.816406 C 256.648438 257.019531 256.726562 256.226562 256.882812 255.441406 C 257.039062 254.660156 257.269531 253.898438 257.578125 253.160156 C 257.882812 252.421875 258.257812 251.71875 258.703125 251.054688 C 259.144531 250.390625 259.652344 249.773438 260.214844 249.210938 C 260.882812 248.542969 261.582031 247.90625 262.3125 247.308594 C 263.042969 246.707031 263.800781 246.144531 264.585938 245.621094 C 265.371094 245.09375 266.183594 244.609375 267.015625 244.164062 C 267.847656 243.71875 268.703125 243.3125 269.574219 242.953125 C 270.449219 242.589844 271.335938 242.273438 272.242188 242 C 273.144531 241.722656 274.0625 241.496094 274.988281 241.308594 C 275.914062 241.125 276.847656 240.988281 277.789062 240.894531 C 278.730469 240.800781 279.671875 240.753906 280.617188 240.753906 C 281.5625 240.753906 282.503906 240.800781 283.445312 240.894531 C 284.386719 240.988281 285.320312 241.125 286.246094 241.308594 C 287.171875 241.496094 288.089844 241.722656 288.992188 242 C 289.898438 242.273438 290.785156 242.589844 291.660156 242.953125 C 292.53125 243.3125 293.386719 243.71875 294.21875 244.164062 C 295.050781 244.609375 295.863281 245.09375 296.648438 245.621094 C 297.433594 246.144531 298.191406 246.707031 298.921875 247.308594 C 299.652344 247.90625 300.351562 248.542969 301.019531 249.210938 C 301.871094 250.0625 302.582031 251.015625 303.148438 252.078125 C 303.714844 253.140625 304.117188 254.261719 304.351562 255.441406 C 304.585938 256.625 304.644531 257.8125 304.527344 259.011719 C 304.410156 260.210938 304.121094 261.363281 303.660156 262.476562 C 303.199219 263.589844 302.585938 264.609375 301.824219 265.542969 C 301.058594 266.472656 300.175781 267.273438 299.175781 267.941406 C 298.175781 268.609375 297.097656 269.117188 295.945312 269.46875 C 294.792969 269.816406 293.613281 269.992188 292.410156 269.992188 Z M 279.398438 226.023438 C 279.96875 232.070312 276.851562 237.3125 272.433594 237.730469 C 268.011719 238.148438 263.964844 233.585938 263.394531 227.539062 C 262.820312 221.492188 265.9375 216.25 270.359375 215.832031 C 274.777344 215.414062 278.824219 219.976562 279.398438 226.023438 Z M 281.835938 226.023438 C 281.265625 232.070312 284.382812 237.3125 288.804688 237.730469 C 293.222656 238.148438 297.269531 233.585938 297.839844 227.539062 C 298.414062 221.492188 295.296875 216.25 290.875 215.832031 C 286.457031 215.414062 282.410156 219.976562 281.835938 226.023438 Z M 298.320312 234.355469 C 296.5625 239.371094 298.105469 244.476562 301.769531 245.761719 C 305.433594 247.046875 309.828125 244.023438 311.589844 239.011719 C 313.347656 233.996094 311.800781 228.890625 308.136719 227.605469 C 304.472656 226.320312 300.078125 229.34375 298.320312 234.355469 Z M 298.320312 234.355469 " fill-opacity="1" fill-rule="nonzero"/></g><g transform="matrix(1, 0, 0, 1, 55, 213)"><g clip-path="url(#c7ff0ca255)"><g fill="#ffffff" fill-opacity="1"><g transform="translate(3.695556, 35.50705)"><g><path d="M 1.34375 6.390625 L 0.921875 -10.40625 L 1.25 -22.53125 L 8.984375 -22.53125 L 9.203125 -20.21875 C 9.828125 -21.050781 10.644531 -21.753906 11.65625 -22.328125 C 12.675781 -22.898438 13.941406 -23.1875 15.453125 -23.1875 C 18.484375 -23.1875 20.835938 -22.265625 22.515625 -20.421875 C 24.191406 -18.585938 25.003906 -15.804688 24.953125 -12.078125 C 24.953125 -9.578125 24.65625 -7.425781 24.0625 -5.625 C 23.476562 -3.820312 22.5 -2.441406 21.125 -1.484375 C 19.75 -0.523438 17.875 -0.046875 15.5 -0.046875 C 14.300781 -0.046875 13.242188 -0.210938 12.328125 -0.546875 C 11.421875 -0.890625 10.628906 -1.335938 9.953125 -1.890625 L 9.71875 6.390625 Z M 11.25 -9.484375 C 11.25 -8.773438 11.457031 -8.242188 11.875 -7.890625 C 12.289062 -7.535156 12.789062 -7.359375 13.375 -7.359375 C 13.957031 -7.359375 14.445312 -7.519531 14.84375 -7.84375 C 15.25 -8.164062 15.453125 -8.710938 15.453125 -9.484375 C 15.453125 -10.222656 15.25 -10.738281 14.84375 -11.03125 C 14.445312 -11.332031 13.957031 -11.484375 13.375 -11.484375 C 12.789062 -11.484375 12.289062 -11.300781 11.875 -10.9375 C 11.457031 -10.582031 11.25 -10.097656 11.25 -9.484375 Z M 11.25 -9.484375 "/></g></g></g><g fill="#ffffff" fill-opacity="1"><g transform="translate(29.536345, 35.50705)"><g><path d="M 12.6875 0 C 10.457031 0 8.457031 -0.367188 6.6875 -1.109375 C 4.914062 -1.847656 3.507812 -3.082031 2.46875 -4.8125 C 1.4375 -6.539062 0.921875 -8.882812 0.921875 -11.84375 C 0.921875 -14.65625 1.4375 -16.882812 2.46875 -18.53125 C 3.507812 -20.1875 4.914062 -21.367188 6.6875 -22.078125 C 8.457031 -22.785156 10.457031 -23.140625 12.6875 -23.140625 C 14.875 -23.140625 16.675781 -22.820312 18.09375 -22.1875 C 19.507812 -21.5625 20.609375 -20.691406 21.390625 -19.578125 C 22.179688 -18.460938 22.734375 -17.164062 23.046875 -15.6875 C 23.359375 -14.207031 23.515625 -12.632812 23.515625 -10.96875 L 23.515625 -9.25 L 10.96875 -9.25 C 10.96875 -8.570312 11.238281 -8.085938 11.78125 -7.796875 C 12.320312 -7.503906 13.023438 -7.332031 13.890625 -7.28125 C 14.753906 -7.238281 15.65625 -7.28125 16.59375 -7.40625 C 17.53125 -7.53125 18.398438 -7.691406 19.203125 -7.890625 C 20.003906 -8.085938 20.625 -8.28125 21.0625 -8.46875 L 21.0625 -2.125 C 20.070312 -1.539062 19.148438 -1.09375 18.296875 -0.78125 C 17.453125 -0.476562 16.585938 -0.269531 15.703125 -0.15625 C 14.828125 -0.0507812 13.820312 0 12.6875 0 Z M 10.96875 -11.84375 L 14.765625 -11.84375 C 14.765625 -12.46875 14.59375 -12.972656 14.25 -13.359375 C 13.914062 -13.742188 13.4375 -13.9375 12.8125 -13.9375 C 12.320312 -13.9375 11.890625 -13.765625 11.515625 -13.421875 C 11.148438 -13.078125 10.96875 -12.550781 10.96875 -11.84375 Z M 10.96875 -11.84375 "/></g></g></g><g fill="#ffffff" fill-opacity="1"><g transform="translate(53.944084, 35.50705)"><g><path d="M 10.640625 0 C 8.296875 0 6.457031 -0.597656 5.125 -1.796875 C 3.800781 -3.003906 3.140625 -4.8125 3.140625 -7.21875 L 3.140625 -11.984375 L 0.921875 -12.859375 L 0.921875 -22.625 L 3.140625 -22.625 L 3.09375 -29.203125 L 13.9375 -30.03125 L 13.65625 -22.625 L 17.5 -22.625 L 17.5 -11.984375 L 13.375 -11.984375 L 13.328125 -9.484375 C 13.328125 -9.085938 13.515625 -8.890625 13.890625 -8.890625 L 17.5 -8.890625 L 17.5 -0.96875 C 16.507812 -0.632812 15.523438 -0.390625 14.546875 -0.234375 C 13.578125 -0.078125 12.273438 0 10.640625 0 Z M 10.640625 0 "/></g></g></g><g fill="#ffffff" fill-opacity="1"><g transform="translate(72.342328, 35.50705)"><g/></g></g><g fill="#ffffff" fill-opacity="1"><g transform="translate(83.436754, 35.50705)"><g><path d="M 10.875 0.234375 C 8.90625 0.234375 7.160156 0.0390625 5.640625 -0.34375 C 4.128906 -0.726562 2.695312 -1.140625 1.34375 -1.578125 L 1.34375 -9.53125 C 1.863281 -9.28125 2.546875 -9.046875 3.390625 -8.828125 C 4.242188 -8.617188 5.140625 -8.453125 6.078125 -8.328125 C 7.023438 -8.203125 7.867188 -8.125 8.609375 -8.09375 C 8.972656 -8.09375 9.15625 -8.25 9.15625 -8.5625 C 9.15625 -8.84375 8.988281 -9.015625 8.65625 -9.078125 C 6.1875 -9.378906 4.28125 -10.015625 2.9375 -10.984375 C 1.59375 -11.960938 0.921875 -13.5625 0.921875 -15.78125 C 0.921875 -17.539062 1.375 -18.972656 2.28125 -20.078125 C 3.195312 -21.191406 4.425781 -22.019531 5.96875 -22.5625 C 7.507812 -23.101562 9.253906 -23.375 11.203125 -23.375 C 13.023438 -23.375 14.789062 -23.179688 16.5 -22.796875 C 18.207031 -22.410156 19.632812 -22 20.78125 -21.5625 L 20.78125 -12.3125 C 19.113281 -13.175781 16.753906 -13.625 13.703125 -13.65625 C 13.296875 -13.65625 13.09375 -13.515625 13.09375 -13.234375 C 13.09375 -12.953125 13.265625 -12.785156 13.609375 -12.734375 C 15.367188 -12.546875 16.8125 -12.257812 17.9375 -11.875 C 19.0625 -11.488281 19.898438 -10.898438 20.453125 -10.109375 C 21.015625 -9.328125 21.296875 -8.191406 21.296875 -6.703125 C 21.296875 -4.953125 20.847656 -3.566406 19.953125 -2.546875 C 19.054688 -1.523438 17.820312 -0.804688 16.25 -0.390625 C 14.675781 0.0234375 12.882812 0.234375 10.875 0.234375 Z M 10.875 0.234375 "/></g></g></g><g fill="#ffffff" fill-opacity="1"><g transform="translate(105.625608, 35.50705)"><g><path d="M 0.921875 0 L 1.765625 -29.578125 L 11.0625 -29.578125 L 11.34375 -19.625 C 12.019531 -20.519531 12.894531 -21.3125 13.96875 -22 C 15.050781 -22.695312 16.441406 -23.046875 18.140625 -23.046875 C 19.898438 -23.046875 21.28125 -22.707031 22.28125 -22.03125 C 23.28125 -21.351562 24.007812 -20.460938 24.46875 -19.359375 C 24.9375 -18.265625 25.234375 -17.070312 25.359375 -15.78125 C 25.484375 -14.488281 25.546875 -13.207031 25.546875 -11.9375 L 25.546875 0 L 14.765625 0 L 14.71875 -9.90625 C 14.71875 -10.519531 14.570312 -10.960938 14.28125 -11.234375 C 13.988281 -11.515625 13.640625 -11.644531 13.234375 -11.625 C 12.835938 -11.613281 12.488281 -11.46875 12.1875 -11.1875 C 11.894531 -10.914062 11.75 -10.535156 11.75 -10.046875 L 11.9375 0 Z M 0.921875 0 "/></g></g></g><g fill="#ffffff" fill-opacity="1"><g transform="translate(132.067351, 35.50705)"><g><path d="M 12.78125 0.28125 C 10.582031 0.28125 8.585938 -0.0859375 6.796875 -0.828125 C 5.015625 -1.566406 3.585938 -2.789062 2.515625 -4.5 C 1.453125 -6.21875 0.921875 -8.546875 0.921875 -11.484375 C 0.921875 -14.378906 1.453125 -16.691406 2.515625 -18.421875 C 3.585938 -20.148438 5.015625 -21.40625 6.796875 -22.1875 C 8.585938 -22.976562 10.582031 -23.375 12.78125 -23.375 C 15 -23.375 17 -22.898438 18.78125 -21.953125 C 20.570312 -21.015625 21.992188 -19.664062 23.046875 -17.90625 C 24.097656 -16.144531 24.625 -14.003906 24.625 -11.484375 C 24.625 -8.828125 24.097656 -6.625 23.046875 -4.875 C 21.992188 -3.132812 20.570312 -1.835938 18.78125 -0.984375 C 17 -0.140625 15 0.28125 12.78125 0.28125 Z M 10.640625 -9.4375 C 10.640625 -8.632812 10.847656 -8.070312 11.265625 -7.75 C 11.679688 -7.425781 12.1875 -7.265625 12.78125 -7.265625 C 13.394531 -7.265625 13.910156 -7.445312 14.328125 -7.8125 C 14.742188 -8.1875 14.953125 -8.726562 14.953125 -9.4375 C 14.953125 -10.082031 14.742188 -10.582031 14.328125 -10.9375 C 13.910156 -11.300781 13.394531 -11.484375 12.78125 -11.484375 C 12.1875 -11.484375 11.679688 -11.332031 11.265625 -11.03125 C 10.847656 -10.738281 10.640625 -10.207031 10.640625 -9.4375 Z M 10.640625 -9.4375 "/></g></g></g><g fill="#ffffff" fill-opacity="1"><g transform="translate(157.584532, 35.50705)"><g><path d="M 1.34375 6.390625 L 0.921875 -10.40625 L 1.25 -22.53125 L 8.984375 -22.53125 L 9.203125 -20.21875 C 9.828125 -21.050781 10.644531 -21.753906 11.65625 -22.328125 C 12.675781 -22.898438 13.941406 -23.1875 15.453125 -23.1875 C 18.484375 -23.1875 20.835938 -22.265625 22.515625 -20.421875 C 24.191406 -18.585938 25.003906 -15.804688 24.953125 -12.078125 C 24.953125 -9.578125 24.65625 -7.425781 24.0625 -5.625 C 23.476562 -3.820312 22.5 -2.441406 21.125 -1.484375 C 19.75 -0.523438 17.875 -0.046875 15.5 -0.046875 C 14.300781 -0.046875 13.242188 -0.210938 12.328125 -0.546875 C 11.421875 -0.890625 10.628906 -1.335938 9.953125 -1.890625 L 9.71875 6.390625 Z M 11.25 -9.484375 C 11.25 -8.773438 11.457031 -8.242188 11.875 -7.890625 C 12.289062 -7.535156 12.789062 -7.359375 13.375 -7.359375 C 13.957031 -7.359375 14.445312 -7.519531 14.84375 -7.84375 C 15.25 -8.164062 15.453125 -8.710938 15.453125 -9.484375 C 15.453125 -10.222656 15.25 -10.738281 14.84375 -11.03125 C 14.445312 -11.332031 13.957031 -11.484375 13.375 -11.484375 C 12.789062 -11.484375 12.289062 -11.300781 11.875 -10.9375 C 11.457031 -10.582031 11.25 -10.097656 11.25 -9.484375 Z M 11.25 -9.484375 "/></g></g></g></g></g></svg>