<svg xmlns="http://www.w3.org/2000/svg" xmlns:xlink="http://www.w3.org/1999/xlink" width="500" zoomAndPan="magnify" viewBox="0 0 375 374.999991" height="500" preserveAspectRatio="xMidYMid meet" version="1.0"><defs><g/><clipPath id="b475bf3ee7"><rect x="0" width="125" y="0" height="208"/></clipPath><clipPath id="7012fce311"><rect x="0" width="97" y="0" height="129"/></clipPath><clipPath id="3f11ef4613"><rect x="0" width="56" y="0" height="126"/></clipPath><clipPath id="6a2b27c753"><path d="M 59.542969 248.621094 L 304 248.621094 L 304 262 L 59.542969 262 Z M 59.542969 248.621094 " clip-rule="nonzero"/></clipPath><clipPath id="5a515831c1"><rect x="0" width="115" y="0" height="104"/></clipPath></defs><g transform="matrix(1, 0, 0, 1, 51, 80)"><g clip-path="url(#b475bf3ee7)"><g fill="#ffffff" fill-opacity="1"><g transform="translate(1.384424, 153.516052)"><g><path d="M 58.390625 -26.359375 C 59.410156 -26.359375 60.210938 -25.882812 60.796875 -24.9375 C 61.390625 -23.988281 61.6875 -22.6875 61.6875 -21.03125 C 61.6875 -17.882812 60.941406 -15.441406 59.453125 -13.703125 C 56.054688 -9.535156 52.347656 -6.109375 48.328125 -3.421875 C 44.316406 -0.742188 39.710938 0.59375 34.515625 0.59375 C 18.441406 0.59375 10.40625 -10.710938 10.40625 -33.328125 C 10.40625 -36.796875 10.519531 -40.300781 10.75 -43.84375 L 6.140625 -43.84375 C 3.773438 -43.84375 2.179688 -44.273438 1.359375 -45.140625 C 0.535156 -46.015625 0.125 -47.394531 0.125 -49.28125 C 0.125 -53.695312 1.894531 -55.90625 5.4375 -55.90625 L 12.171875 -55.90625 C 13.515625 -64.570312 15.5625 -72.488281 18.3125 -79.65625 C 21.070312 -86.820312 24.398438 -92.53125 28.296875 -96.78125 C 32.203125 -101.039062 36.398438 -103.171875 40.890625 -103.171875 C 44.203125 -103.171875 46.800781 -101.710938 48.6875 -98.796875 C 50.582031 -95.890625 51.53125 -92.226562 51.53125 -87.8125 C 51.53125 -75.601562 46.410156 -64.96875 36.171875 -55.90625 L 49.40625 -55.90625 C 50.664062 -55.90625 51.570312 -55.628906 52.125 -55.078125 C 52.675781 -54.523438 52.953125 -53.5 52.953125 -52 C 52.953125 -46.5625 48.5 -43.84375 39.59375 -43.84375 L 25.171875 -43.84375 C 25.015625 -39.90625 24.9375 -36.832031 24.9375 -34.625 C 24.9375 -26.4375 25.898438 -20.6875 27.828125 -17.375 C 29.765625 -14.0625 32.820312 -12.40625 37 -12.40625 C 40.382812 -12.40625 43.375 -13.429688 45.96875 -15.484375 C 48.570312 -17.535156 51.644531 -20.609375 55.1875 -24.703125 C 56.132812 -25.804688 57.203125 -26.359375 58.390625 -26.359375 Z M 37.703125 -91.828125 C 36.515625 -91.828125 35.191406 -90.347656 33.734375 -87.390625 C 32.285156 -84.441406 30.910156 -80.347656 29.609375 -75.109375 C 28.304688 -69.867188 27.222656 -64.054688 26.359375 -57.671875 C 31.003906 -61.691406 34.488281 -66.203125 36.8125 -71.203125 C 39.132812 -76.210938 40.296875 -80.765625 40.296875 -84.859375 C 40.296875 -89.503906 39.429688 -91.828125 37.703125 -91.828125 Z M 37.703125 -91.828125 "/></g></g></g><g fill="#ffffff" fill-opacity="1"><g transform="translate(47.827272, 153.516052)"><g><path d="M 71.265625 -26.359375 C 72.285156 -26.359375 73.09375 -25.882812 73.6875 -24.9375 C 74.28125 -23.988281 74.578125 -22.6875 74.578125 -21.03125 C 74.578125 -17.882812 73.828125 -15.441406 72.328125 -13.703125 C 68.703125 -9.535156 64.976562 -6.109375 61.15625 -3.421875 C 57.34375 -0.742188 52.992188 0.59375 48.109375 0.59375 C 44.085938 0.59375 41.050781 -0.566406 39 -2.890625 C 36.945312 -5.210938 35.921875 -8.582031 35.921875 -13 C 35.921875 -15.207031 36.472656 -19.144531 37.578125 -24.8125 C 38.609375 -29.78125 39.125 -33.210938 39.125 -35.109375 C 39.125 -36.367188 38.6875 -37 37.8125 -37 C 36.789062 -37 35.332031 -35.675781 33.4375 -33.03125 C 31.550781 -30.394531 29.660156 -26.910156 27.765625 -22.578125 C 25.878906 -18.242188 24.347656 -13.671875 23.171875 -8.859375 C 21.671875 -2.554688 17.96875 0.59375 12.0625 0.59375 C 9.695312 0.59375 8.140625 -0.25 7.390625 -1.9375 C 6.640625 -3.632812 6.265625 -6.691406 6.265625 -11.109375 C 6.265625 -13.628906 6.300781 -15.640625 6.375 -17.140625 L 6.5 -26.59375 C 6.5 -38.726562 7.738281 -51.375 10.21875 -64.53125 C 12.707031 -77.6875 16.375 -88.734375 21.21875 -97.671875 C 26.0625 -106.617188 31.867188 -111.09375 38.640625 -111.09375 C 42.265625 -111.09375 45.203125 -109.535156 47.453125 -106.421875 C 49.703125 -103.316406 50.828125 -99.28125 50.828125 -94.3125 C 50.828125 -86.351562 48.5 -78.097656 43.84375 -69.546875 C 39.195312 -61.003906 31.632812 -51.019531 21.15625 -39.59375 C 20.914062 -35.5 20.796875 -31.285156 20.796875 -26.953125 C 23.398438 -33.648438 26.296875 -39.101562 29.484375 -43.3125 C 32.679688 -47.53125 35.832031 -50.546875 38.9375 -52.359375 C 42.050781 -54.171875 44.910156 -55.078125 47.515625 -55.078125 C 52.628906 -55.078125 55.1875 -52.515625 55.1875 -47.390625 C 55.1875 -44.316406 54.320312 -38.765625 52.59375 -30.734375 C 51.09375 -23.878906 50.34375 -19.347656 50.34375 -17.140625 C 50.34375 -13.984375 51.488281 -12.40625 53.78125 -12.40625 C 55.351562 -12.40625 57.222656 -13.367188 59.390625 -15.296875 C 61.554688 -17.234375 64.453125 -20.367188 68.078125 -24.703125 C 69.023438 -25.804688 70.085938 -26.359375 71.265625 -26.359375 Z M 36.171875 -99.390625 C 34.742188 -99.390625 33.164062 -97.359375 31.4375 -93.296875 C 29.707031 -89.242188 28.03125 -83.769531 26.40625 -76.875 C 24.789062 -69.988281 23.472656 -62.484375 22.453125 -54.359375 C 27.335938 -60.117188 31.375 -66.382812 34.5625 -73.15625 C 37.757812 -79.9375 39.359375 -86.082031 39.359375 -91.59375 C 39.359375 -94.113281 39.082031 -96.039062 38.53125 -97.375 C 37.976562 -98.71875 37.191406 -99.390625 36.171875 -99.390625 Z M 36.171875 -99.390625 "/></g></g></g></g></g><g transform="matrix(1, 0, 0, 1, 162, 139)"><g clip-path="url(#7012fce311)"><g fill="#ffffff" fill-opacity="1"><g transform="translate(0.160385, 96.565981)"><g><path d="M 21.265625 -64.0625 L 21.265625 0 L 5.65625 0 L 5.65625 -64.0625 Z M 21.265625 -64.0625 "/></g></g></g><g fill="#ffffff" fill-opacity="1"><g transform="translate(27.081922, 96.565981)"><g><path d="M 62.96875 0 L 47.359375 0 L 21.265625 -39.515625 L 21.265625 0 L 5.65625 0 L 5.65625 -64.0625 L 21.265625 -64.0625 L 47.359375 -24.375 L 47.359375 -64.0625 L 62.96875 -64.0625 Z M 62.96875 0 "/></g></g></g></g></g><g transform="matrix(1, 0, 0, 1, 253, 142)"><g clip-path="url(#3f11ef4613)"><g fill="#ffffff" fill-opacity="1"><g transform="translate(0.332527, 93.996577)"><g><path d="M 35.796875 0 L 20.703125 -20.796875 L 20.703125 0 L 5.515625 0 L 5.515625 -65.75 L 20.703125 -65.75 L 20.703125 -29.40625 L 35.71875 -49.578125 L 54.46875 -49.578125 L 33.84375 -24.703125 L 54.640625 0 Z M 35.796875 0 "/></g></g></g></g></g><g clip-path="url(#6a2b27c753)"><path fill="#ffffff" d="M 301.0625 255.601562 C 287.183594 255.3125 273.296875 255.09375 259.414062 254.953125 C 260.445312 254.707031 261.347656 254.300781 261.957031 253.625 C 262.328125 253.210938 262.128906 252.578125 261.945312 252.148438 C 261.796875 251.789062 261.445312 250.984375 260.789062 250.867188 C 248.554688 248.707031 235.691406 248.878906 223.109375 248.992188 C 209.984375 249.117188 196.863281 249.453125 183.765625 250.003906 C 157.621094 251.101562 131.714844 253.226562 105.859375 255.890625 C 98.535156 256.648438 91.203125 257.390625 83.867188 258.113281 C 80.332031 258.464844 76.789062 258.796875 73.242188 259.101562 C 71.394531 259.257812 69.554688 259.429688 67.710938 259.59375 C 66.796875 259.671875 65.878906 259.769531 64.964844 259.855469 C 64.65625 259.882812 64.351562 259.914062 64.042969 259.941406 C 63.511719 259.988281 62.984375 260.03125 62.449219 260.070312 C 62.011719 260.179688 61.578125 260.292969 61.152344 260.421875 C 60.683594 260.519531 59.925781 260.726562 59.683594 261.027344 C 59.566406 261.179688 59.554688 261.28125 59.6875 261.328125 C 59.683594 261.328125 59.679688 261.332031 59.671875 261.332031 C 60.238281 261.429688 60.644531 261.550781 61.230469 261.546875 C 61.554688 261.542969 61.878906 261.53125 62.203125 261.523438 C 63.019531 261.503906 63.832031 261.484375 64.648438 261.464844 C 64.957031 261.453125 65.265625 261.441406 65.574219 261.429688 C 66.839844 261.535156 68.101562 261.65625 69.351562 261.726562 C 69.480469 261.734375 69.214844 261.417969 69.054688 261.402344 C 68.785156 261.375 68.519531 261.34375 68.25 261.320312 C 68.835938 261.292969 69.417969 261.265625 70.003906 261.242188 C 73.386719 261.105469 76.769531 260.839844 80.136719 260.601562 C 86.796875 260.132812 93.429688 259.539062 100.0625 258.941406 C 113.25 257.75 126.417969 256.472656 139.648438 255.476562 C 165.820312 253.503906 192.113281 252.269531 218.460938 251.914062 C 229.414062 251.769531 240.695312 251.453125 251.632812 252.414062 C 248.433594 252.378906 245.238281 252.359375 242.035156 252.378906 C 234.589844 252.421875 227.148438 252.625 219.71875 252.949219 C 206.222656 253.535156 192.78125 254.523438 179.378906 255.671875 C 169.351562 256.210938 159.363281 257.046875 149.515625 258.386719 C 148.433594 258.53125 149.402344 261.359375 150.59375 261.242188 C 159.019531 260.414062 167.460938 259.601562 175.921875 258.855469 C 187.152344 258.128906 198.445312 257.785156 209.742188 257.65625 C 229.601562 257.421875 249.480469 257.597656 269.335938 257.839844 C 276.800781 257.929688 284.265625 258.042969 291.734375 258.175781 C 291.84375 258.511719 292.046875 258.75 292.335938 258.734375 C 295.996094 258.589844 299.664062 258.59375 303.320312 258.402344 C 304.632812 258.332031 302.34375 255.628906 301.0625 255.601562 " fill-opacity="1" fill-rule="nonzero"/></g><g transform="matrix(1, 0, 0, 1, 240, 110)"><g clip-path="url(#5a515831c1)"><g fill="#ffffff" fill-opacity="1"><g transform="translate(13.436284, 52.397658)"><g><path d="M -3.421875 -4.125 C -4.171875 -4.832031 -4.6875 -5.632812 -4.96875 -6.53125 C -5.25 -7.4375 -5.285156 -8.34375 -5.078125 -9.25 C -4.867188 -10.164062 -4.425781 -10.984375 -3.75 -11.703125 C -2.957031 -12.546875 -2.0625 -13.085938 -1.0625 -13.328125 C -0.0703125 -13.566406 0.929688 -13.476562 1.953125 -13.0625 L 0.828125 -11.859375 C 0.171875 -12.078125 -0.472656 -12.101562 -1.109375 -11.9375 C -1.742188 -11.78125 -2.328125 -11.421875 -2.859375 -10.859375 C -3.359375 -10.328125 -3.679688 -9.722656 -3.828125 -9.046875 C -3.984375 -8.378906 -3.945312 -7.707031 -3.71875 -7.03125 C -3.5 -6.351562 -3.082031 -5.722656 -2.46875 -5.140625 C -1.851562 -4.566406 -1.195312 -4.179688 -0.5 -3.984375 C 0.195312 -3.796875 0.875 -3.800781 1.53125 -4 C 2.1875 -4.195312 2.765625 -4.5625 3.265625 -5.09375 C 3.796875 -5.65625 4.128906 -6.25 4.265625 -6.875 C 4.398438 -7.507812 4.332031 -8.160156 4.0625 -8.828125 L 5.1875 -10.03125 C 5.65625 -9.039062 5.796875 -8.039062 5.609375 -7.03125 C 5.421875 -6.03125 4.929688 -5.109375 4.140625 -4.265625 C 3.460938 -3.546875 2.679688 -3.050781 1.796875 -2.78125 C 0.910156 -2.507812 0.0078125 -2.488281 -0.90625 -2.71875 C -1.820312 -2.945312 -2.660156 -3.414062 -3.421875 -4.125 Z M -3.421875 -4.125 "/></g></g></g><g fill="#ffffff" fill-opacity="1"><g transform="translate(20.643254, 44.743953)"><g><path d="M 5.734375 -3.5625 L 1.296875 -5.921875 L -0.125 -5.046875 L 2.171875 -1.359375 L 1 -0.625 L -4.59375 -9.640625 L -1.6875 -11.4375 C -1.007812 -11.863281 -0.363281 -12.101562 0.25 -12.15625 C 0.863281 -12.21875 1.410156 -12.125 1.890625 -11.875 C 2.367188 -11.625 2.765625 -11.242188 3.078125 -10.734375 C 3.460938 -10.109375 3.625 -9.445312 3.5625 -8.75 C 3.5 -8.0625 3.160156 -7.410156 2.546875 -6.796875 L 7.15625 -4.4375 Z M -0.703125 -5.984375 L 1.03125 -7.046875 C 1.664062 -7.441406 2.039062 -7.894531 2.15625 -8.40625 C 2.28125 -8.925781 2.179688 -9.445312 1.859375 -9.96875 C 1.523438 -10.507812 1.109375 -10.828125 0.609375 -10.921875 C 0.117188 -11.023438 -0.445312 -10.875 -1.09375 -10.46875 L -2.828125 -9.40625 Z M -0.703125 -5.984375 "/></g></g></g><g fill="#ffffff" fill-opacity="1"><g transform="translate(27.625064, 40.372085)"><g><path d="M -0.796875 -9.78125 L 0.40625 -6.453125 L 4.046875 -7.765625 L 4.421875 -6.6875 L 0.78125 -5.375 L 2.015625 -1.9375 L 6.078125 -3.40625 L 6.46875 -2.328125 L 1.109375 -0.390625 L -2.484375 -10.390625 L 2.875 -12.328125 L 3.265625 -11.25 Z M -0.796875 -9.78125 "/></g></g></g><g fill="#ffffff" fill-opacity="1"><g transform="translate(33.901474, 37.849421)"><g><path d="M 7.109375 -3.234375 L 2.515625 -2.6875 L 1.953125 -0.234375 L 0.5 -0.0625 L 3.046875 -11 L 4.625 -11.1875 L 9.671875 -1.171875 L 8.234375 -1 Z M 6.578125 -4.296875 L 4.03125 -9.40625 L 2.765625 -3.84375 Z M 6.578125 -4.296875 "/></g></g></g><g fill="#ffffff" fill-opacity="1"><g transform="translate(42.992943, 36.733616)"><g><path d="M 8.796875 -9.71875 L 8.671875 -8.59375 L 5.796875 -8.90625 L 4.78125 0.515625 L 3.40625 0.375 L 4.421875 -9.046875 L 1.53125 -9.359375 L 1.65625 -10.484375 Z M 8.796875 -9.71875 "/></g></g></g><g fill="#ffffff" fill-opacity="1"><g transform="translate(50.437487, 37.65207)"><g><path d="M 5.171875 -9.609375 L 2.484375 0.65625 L 1.140625 0.296875 L 3.828125 -9.96875 Z M 5.171875 -9.609375 "/></g></g></g><g fill="#ffffff" fill-opacity="1"><g transform="translate(53.360572, 38.049103)"><g><path d="M 13.453125 -5.5 L 5.390625 2.46875 L 3.953125 1.8125 L 4.71875 -9.5 L 6.0625 -8.890625 L 5.28125 0.8125 L 12.140625 -6.109375 Z M 13.453125 -5.5 "/></g></g></g><g fill="#ffffff" fill-opacity="1"><g transform="translate(61.725067, 41.901421)"><g><path d="M 7.796875 -5.96875 L 5.640625 -3.15625 L 8.703125 -0.8125 L 8.015625 0.09375 L 4.953125 -2.25 L 2.71875 0.65625 L 6.140625 3.28125 L 5.453125 4.1875 L 0.9375 0.71875 L 7.390625 -7.71875 L 11.90625 -4.25 L 11.21875 -3.34375 Z M 7.796875 -5.96875 "/></g></g></g><g fill="#ffffff" fill-opacity="1"><g transform="translate(67.296727, 46.274444)"><g/></g></g><g fill="#ffffff" fill-opacity="1"><g transform="translate(69.77878, 48.461818)"><g><path d="M 2.5 3.78125 C 2.101562 3.207031 1.847656 2.625 1.734375 2.03125 C 1.628906 1.4375 1.664062 0.878906 1.84375 0.359375 C 2.019531 -0.148438 2.34375 -0.570312 2.8125 -0.90625 L 3.65625 0.296875 C 3.28125 0.628906 3.054688 1.039062 2.984375 1.53125 C 2.910156 2.019531 3.070312 2.546875 3.46875 3.109375 C 3.851562 3.648438 4.285156 3.984375 4.765625 4.109375 C 5.242188 4.234375 5.695312 4.144531 6.125 3.84375 C 6.457031 3.613281 6.664062 3.332031 6.75 3 C 6.84375 2.675781 6.84375 2.335938 6.75 1.984375 C 6.664062 1.640625 6.523438 1.1875 6.328125 0.625 C 6.066406 -0.0507812 5.890625 -0.613281 5.796875 -1.0625 C 5.710938 -1.507812 5.742188 -1.96875 5.890625 -2.4375 C 6.035156 -2.914062 6.382812 -3.34375 6.9375 -3.71875 C 7.40625 -4.050781 7.90625 -4.222656 8.4375 -4.234375 C 8.976562 -4.242188 9.5 -4.097656 10 -3.796875 C 10.507812 -3.503906 10.960938 -3.078125 11.359375 -2.515625 C 11.929688 -1.691406 12.191406 -0.875 12.140625 -0.0625 C 12.085938 0.738281 11.75 1.398438 11.125 1.921875 L 10.265625 0.6875 C 10.566406 0.414062 10.738281 0.0390625 10.78125 -0.4375 C 10.820312 -0.925781 10.664062 -1.425781 10.3125 -1.9375 C 9.976562 -2.414062 9.582031 -2.71875 9.125 -2.84375 C 8.664062 -2.96875 8.21875 -2.878906 7.78125 -2.578125 C 7.46875 -2.359375 7.273438 -2.085938 7.203125 -1.765625 C 7.128906 -1.453125 7.128906 -1.128906 7.203125 -0.796875 C 7.273438 -0.460938 7.414062 -0.0078125 7.625 0.5625 C 7.851562 1.25 8.015625 1.820312 8.109375 2.28125 C 8.203125 2.75 8.171875 3.210938 8.015625 3.671875 C 7.867188 4.140625 7.523438 4.566406 6.984375 4.953125 C 6.554688 5.253906 6.078125 5.421875 5.546875 5.453125 C 5.023438 5.492188 4.488281 5.375 3.9375 5.09375 C 3.394531 4.8125 2.914062 4.375 2.5 3.78125 Z M 2.5 3.78125 "/></g></g></g><g fill="#ffffff" fill-opacity="1"><g transform="translate(74.369235, 54.91125)"><g><path d="M 12.765625 3 L 11.734375 3.4375 L 10.609375 0.765625 L 1.859375 4.4375 L 1.328125 3.15625 L 10.078125 -0.515625 L 8.953125 -3.203125 L 9.984375 -3.640625 Z M 12.765625 3 "/></g></g></g><g fill="#ffffff" fill-opacity="1"><g transform="translate(77.361285, 61.421302)"><g><path d="M 10.875 0.71875 L 4.25 1.84375 C 3.332031 2 2.6875 2.335938 2.3125 2.859375 C 1.9375 3.390625 1.816406 4.0625 1.953125 4.875 C 2.085938 5.675781 2.421875 6.265625 2.953125 6.640625 C 3.484375 7.023438 4.207031 7.140625 5.125 6.984375 L 11.75 5.859375 L 11.984375 7.21875 L 5.375 8.34375 C 4.519531 8.488281 3.757812 8.4375 3.09375 8.1875 C 2.4375 7.945312 1.910156 7.550781 1.515625 7 C 1.128906 6.445312 0.875 5.800781 0.75 5.0625 C 0.625 4.320312 0.65625 3.628906 0.84375 2.984375 C 1.03125 2.347656 1.394531 1.804688 1.9375 1.359375 C 2.476562 0.910156 3.175781 0.613281 4.03125 0.46875 L 10.640625 -0.65625 Z M 10.875 0.71875 "/></g></g></g><g fill="#ffffff" fill-opacity="1"><g transform="translate(79.064969, 70.321177)"><g><path d="M 10.15625 5.421875 C 10.039062 6.566406 9.726562 7.546875 9.21875 8.359375 C 8.707031 9.171875 8.03125 9.765625 7.1875 10.140625 C 6.351562 10.515625 5.398438 10.648438 4.328125 10.546875 C 3.242188 10.453125 2.328125 10.140625 1.578125 9.609375 C 0.828125 9.085938 0.28125 8.382812 -0.0625 7.5 C -0.40625 6.613281 -0.519531 5.597656 -0.40625 4.453125 L -0.109375 1.171875 L 10.453125 2.140625 Z M 0.734375 4.5625 C 0.609375 5.925781 0.867188 7 1.515625 7.78125 C 2.171875 8.570312 3.15625 9.023438 4.46875 9.140625 C 5.78125 9.265625 6.835938 9 7.640625 8.34375 C 8.441406 7.6875 8.90625 6.679688 9.03125 5.328125 L 9.203125 3.421875 L 0.90625 2.65625 Z M 0.734375 4.5625 "/></g></g></g><g fill="#ffffff" fill-opacity="1"><g transform="translate(77.923316, 80.123999)"><g><path d="M 9.53125 5.3125 L -0.6875 2.46875 L -0.3125 1.125 L 9.90625 3.96875 Z M 9.53125 5.3125 "/></g></g></g><g fill="#ffffff" fill-opacity="1"><g transform="translate(77.630184, 82.998625)"><g><path d="M -2.78125 5.296875 C -2.332031 4.410156 -1.71875 3.707031 -0.9375 3.1875 C -0.164062 2.675781 0.691406 2.394531 1.640625 2.34375 C 2.585938 2.300781 3.523438 2.515625 4.453125 2.984375 C 5.367188 3.441406 6.09375 4.066406 6.625 4.859375 C 7.15625 5.648438 7.445312 6.507812 7.5 7.4375 C 7.550781 8.375 7.351562 9.285156 6.90625 10.171875 C 6.457031 11.054688 5.84375 11.753906 5.0625 12.265625 C 4.28125 12.785156 3.414062 13.070312 2.46875 13.125 C 1.53125 13.175781 0.597656 12.96875 -0.328125 12.5 C -1.265625 12.03125 -1.992188 11.398438 -2.515625 10.609375 C -3.046875 9.816406 -3.332031 8.953125 -3.375 8.015625 C -3.425781 7.085938 -3.226562 6.179688 -2.78125 5.296875 Z M -1.703125 5.828125 C -2.035156 6.492188 -2.179688 7.164062 -2.140625 7.84375 C -2.097656 8.53125 -1.867188 9.171875 -1.453125 9.765625 C -1.035156 10.359375 -0.445312 10.847656 0.3125 11.234375 C 1.070312 11.617188 1.804688 11.796875 2.515625 11.765625 C 3.234375 11.742188 3.878906 11.546875 4.453125 11.171875 C 5.035156 10.804688 5.492188 10.289062 5.828125 9.625 C 6.160156 8.957031 6.300781 8.28125 6.25 7.59375 C 6.207031 6.914062 5.984375 6.28125 5.578125 5.6875 C 5.171875 5.101562 4.585938 4.617188 3.828125 4.234375 C 3.066406 3.847656 2.320312 3.664062 1.59375 3.6875 C 0.875 3.707031 0.226562 3.90625 -0.34375 4.28125 C -0.914062 4.65625 -1.367188 5.171875 -1.703125 5.828125 Z M -1.703125 5.828125 "/></g></g></g></g></g></svg>