<svg xmlns="http://www.w3.org/2000/svg" xmlns:xlink="http://www.w3.org/1999/xlink" width="500" zoomAndPan="magnify" viewBox="0 0 375 374.999991" height="500" preserveAspectRatio="xMidYMid meet" version="1.0"><defs><g/><clipPath id="c8b7a7805a"><rect x="0" width="193" y="0" height="120"/></clipPath><clipPath id="6f412a0586"><path d="M 189 0.078125 L 219 0.078125 L 219 78 L 189 78 Z M 189 0.078125 " clip-rule="nonzero"/></clipPath><clipPath id="5d02cb8e19"><rect x="0" width="224" y="0" height="129"/></clipPath><clipPath id="9a2c29737b"><rect x="0" width="66" y="0" height="54"/></clipPath><clipPath id="6bb3a7bfac"><rect x="0" width="142" y="0" height="139"/></clipPath></defs><g transform="matrix(1, 0, 0, 1, 108, 168)"><g clip-path="url(#c8b7a7805a)"><g fill="#ffffff" fill-opacity="1"><g transform="translate(3.603026, 74.313118)"><g><path d="M 28.15625 -24.75 C 31.4375 -21.601562 34.050781 -19.03125 36 -17.03125 C 37.945312 -15.03125 39.296875 -13.171875 40.046875 -11.453125 C 40.796875 -9.742188 41.03125 -7.804688 40.75 -5.640625 C 40.675781 -5.066406 40.363281 -4.148438 39.8125 -2.890625 C 39.269531 -1.628906 38.234375 -0.367188 36.703125 0.890625 C 35.179688 2.148438 32.984375 3.09375 30.109375 3.71875 C 27.242188 4.351562 23.488281 4.375 18.84375 3.78125 C 15.539062 3.351562 12.769531 2.609375 10.53125 1.546875 C 8.300781 0.484375 6.539062 -0.660156 5.25 -1.890625 C 3.957031 -3.128906 3.023438 -4.175781 2.453125 -5.03125 C 1.878906 -5.882812 1.59375 -6.3125 1.59375 -6.3125 L 11.765625 -14.421875 C 11.765625 -14.421875 12.078125 -13.828125 12.703125 -12.640625 C 13.328125 -11.460938 14.296875 -10.0625 15.609375 -8.4375 C 16.921875 -6.8125 18.648438 -5.289062 20.796875 -3.875 C 22.953125 -2.457031 25.585938 -1.550781 28.703125 -1.15625 C 30.109375 -0.914062 31.457031 -1.328125 32.75 -2.390625 C 32.90625 -3.535156 31.769531 -5.15625 29.34375 -7.25 C 26.925781 -9.351562 23.742188 -12.144531 19.796875 -15.625 C 15.859375 -19.300781 13.03125 -22.410156 11.3125 -24.953125 C 9.601562 -27.503906 8.578125 -29.695312 8.234375 -31.53125 C 7.890625 -33.363281 7.8125 -35.039062 8 -36.5625 C 8.207031 -38.15625 9.066406 -39.789062 10.578125 -41.46875 C 12.085938 -43.15625 14.148438 -44.492188 16.765625 -45.484375 C 19.390625 -46.472656 22.492188 -46.738281 26.078125 -46.28125 C 30.335938 -45.726562 33.5625 -44.894531 35.75 -43.78125 C 37.945312 -42.664062 39.445312 -41.613281 40.25 -40.625 C 41.0625 -39.644531 41.46875 -39.15625 41.46875 -39.15625 L 35.578125 -28.15625 C 35.578125 -28.15625 35.128906 -28.710938 34.234375 -29.828125 C 33.347656 -30.941406 32.144531 -32.257812 30.625 -33.78125 C 29.113281 -35.3125 27.367188 -36.722656 25.390625 -38.015625 C 23.421875 -39.316406 21.320312 -40.109375 19.09375 -40.390625 C 16.476562 -40.734375 15.101562 -40.394531 14.96875 -39.375 C 14.820312 -38.21875 16 -36.425781 18.5 -34 C 21.007812 -31.570312 24.226562 -28.488281 28.15625 -24.75 Z M 28.15625 -24.75 "/></g></g></g><g fill="#ffffff" fill-opacity="1"><g transform="translate(41.452107, 79.181097)"><g><path d="M 39.125 -44.40625 C 41.488281 -44.101562 43.453125 -43.109375 45.015625 -41.421875 C 46.578125 -39.734375 47.789062 -37.617188 48.65625 -35.078125 C 49.53125 -32.535156 50.085938 -29.804688 50.328125 -26.890625 C 50.566406 -23.984375 50.507812 -21.128906 50.15625 -18.328125 C 49.539062 -13.546875 48.234375 -9.304688 46.234375 -5.609375 C 44.242188 -1.921875 41.664062 0.878906 38.5 2.796875 C 35.332031 4.722656 31.644531 5.414062 27.4375 4.875 C 25.726562 4.65625 23.910156 4.210938 21.984375 3.546875 C 20.054688 2.878906 18.113281 1.898438 16.15625 0.609375 L 15.015625 9.40625 C 14.992188 9.59375 14.957031 10.234375 14.90625 11.328125 C 14.851562 12.429688 14.976562 13.84375 15.28125 15.5625 C 15.582031 17.289062 16.222656 19.15625 17.203125 21.15625 L -1.25 18.78125 C 0.0703125 17.53125 1.085938 16.171875 1.796875 14.703125 C 2.515625 13.242188 3.007812 11.898438 3.28125 10.671875 C 3.5625 9.441406 3.726562 8.632812 3.78125 8.25 L 9.09375 -33.03125 C 9.101562 -33.09375 9.09375 -33.613281 9.0625 -34.59375 C 9.03125 -35.570312 8.859375 -36.742188 8.546875 -38.109375 C 8.234375 -39.472656 7.578125 -40.804688 6.578125 -42.109375 C 6.578125 -42.109375 7.097656 -42.28125 8.140625 -42.625 C 9.191406 -42.96875 10.476562 -43.367188 12 -43.828125 C 13.519531 -44.285156 15.035156 -44.753906 16.546875 -45.234375 C 18.066406 -45.710938 19.347656 -46.113281 20.390625 -46.4375 C 21.441406 -46.757812 21.96875 -46.921875 21.96875 -46.921875 L 20.828125 -38.03125 C 21.316406 -38.289062 22.269531 -38.796875 23.6875 -39.546875 C 25.101562 -40.304688 26.722656 -41.101562 28.546875 -41.9375 C 30.378906 -42.769531 32.234375 -43.4375 34.109375 -43.9375 C 35.992188 -44.4375 37.664062 -44.59375 39.125 -44.40625 Z M 32.203125 -1.875 C 33.535156 -2.675781 34.691406 -4.5 35.671875 -7.34375 C 36.648438 -10.195312 37.351562 -13.285156 37.78125 -16.609375 C 38.175781 -19.722656 38.316406 -22.695312 38.203125 -25.53125 C 38.085938 -28.375 37.628906 -30.460938 36.828125 -31.796875 C 36.128906 -32.910156 35.070312 -33.753906 33.65625 -34.328125 C 32.238281 -34.898438 30.765625 -35.285156 29.234375 -35.484375 C 27.523438 -35.703125 25.832031 -35.757812 24.15625 -35.65625 C 22.488281 -35.550781 21.285156 -35.347656 20.546875 -35.046875 L 17.40625 -10.578125 C 17.414062 -5.265625 20.488281 -1.988281 26.625 -0.75 C 27.519531 -0.632812 28.460938 -0.660156 29.453125 -0.828125 C 30.441406 -0.992188 31.359375 -1.34375 32.203125 -1.875 Z M 32.203125 -1.875 "/></g></g></g><g fill="#ffffff" fill-opacity="1"><g transform="translate(87.807682, 85.143143)"><g><path d="M 16.671875 -51.875 C 14.835938 -53.207031 13.363281 -54.707031 12.25 -56.375 C 11.132812 -58.050781 10.332031 -59.5 9.84375 -60.71875 C 9.351562 -61.945312 9.109375 -62.5625 9.109375 -62.5625 L 19.21875 -70 C 20.03125 -67.820312 21.019531 -65.992188 22.1875 -64.515625 C 23.351562 -63.035156 24.390625 -61.929688 25.296875 -61.203125 C 26.210938 -60.472656 26.671875 -60.109375 26.671875 -60.109375 Z M 19.78125 2.640625 L 1.3125 0.265625 C 2.644531 -0.992188 3.664062 -2.351562 4.375 -3.8125 C 5.082031 -5.28125 5.578125 -6.625 5.859375 -7.84375 C 6.148438 -9.070312 6.320312 -9.90625 6.375 -10.34375 L 9.296875 -33 C 9.296875 -33 9.3125 -33.515625 9.34375 -34.546875 C 9.382812 -35.578125 9.234375 -36.796875 8.890625 -38.203125 C 8.554688 -39.609375 7.847656 -40.898438 6.765625 -42.078125 L 22.359375 -46.875 L 17.59375 -9.203125 C 17.5625 -9.003906 17.523438 -8.359375 17.484375 -7.265625 C 17.453125 -6.179688 17.582031 -4.773438 17.875 -3.046875 C 18.175781 -1.328125 18.8125 0.566406 19.78125 2.640625 Z M 19.78125 2.640625 "/></g></g></g><g fill="#ffffff" fill-opacity="1"><g transform="translate(106.158757, 87.503376)"><g><path d="M 29.78125 -1.90625 C 31.25 -1.71875 32.757812 -1.632812 34.3125 -1.65625 C 35.875 -1.6875 37.367188 -1.738281 38.796875 -1.8125 C 38.578125 -1.582031 38.0625 -1.097656 37.25 -0.359375 C 36.445312 0.378906 35.359375 1.160156 33.984375 1.984375 C 32.617188 2.804688 30.914062 3.457031 28.875 3.9375 C 26.832031 4.425781 24.472656 4.5 21.796875 4.15625 C 15.753906 3.375 11.164062 0.664062 8.03125 -3.96875 C 4.90625 -8.613281 3.914062 -15.394531 5.0625 -24.3125 C 5.664062 -29.019531 6.921875 -33.113281 8.828125 -36.59375 C 10.742188 -40.082031 13.316406 -42.6875 16.546875 -44.40625 C 19.773438 -46.132812 23.71875 -46.695312 28.375 -46.09375 C 31.113281 -45.738281 33.390625 -45.085938 35.203125 -44.140625 C 37.023438 -43.191406 38.46875 -42.179688 39.53125 -41.109375 C 40.59375 -40.035156 41.363281 -39.109375 41.84375 -38.328125 C 42.320312 -37.554688 42.5625 -37.171875 42.5625 -37.171875 L 17.65625 -13.375 C 17.65625 -13.375 17.65625 -13.242188 17.65625 -12.984375 C 17.65625 -12.722656 17.742188 -12.320312 17.921875 -11.78125 C 18.753906 -9.09375 19.757812 -7.085938 20.9375 -5.765625 C 22.125 -4.453125 23.460938 -3.535156 24.953125 -3.015625 C 26.441406 -2.492188 28.050781 -2.125 29.78125 -1.90625 Z M 15.21875 -35.359375 C 15 -33.640625 14.96875 -31.742188 15.125 -29.671875 C 15.289062 -27.609375 15.523438 -25.632812 15.828125 -23.75 C 16.128906 -21.875 16.394531 -20.316406 16.625 -19.078125 C 16.851562 -17.847656 16.96875 -17.203125 16.96875 -17.140625 C 16.96875 -17.140625 17.398438 -17.632812 18.265625 -18.625 C 19.140625 -19.613281 20.171875 -20.8125 21.359375 -22.21875 C 22.546875 -23.625 23.6875 -24.953125 24.78125 -26.203125 C 25.882812 -27.453125 26.703125 -28.367188 27.234375 -28.953125 C 29.148438 -31.160156 30.003906 -33.003906 29.796875 -34.484375 C 29.597656 -35.972656 28.617188 -37.171875 26.859375 -38.078125 C 25.097656 -38.984375 22.890625 -39.707031 20.234375 -40.25 C 18.585938 -40.519531 17.414062 -40.226562 16.71875 -39.375 C 16.03125 -38.53125 15.53125 -37.191406 15.21875 -35.359375 Z M 15.21875 -35.359375 "/></g></g></g><g fill="#ffffff" fill-opacity="1"><g transform="translate(142.000702, 92.113206)"><g><path d="M 28.15625 -24.75 C 31.4375 -21.601562 34.050781 -19.03125 36 -17.03125 C 37.945312 -15.03125 39.296875 -13.171875 40.046875 -11.453125 C 40.796875 -9.742188 41.03125 -7.804688 40.75 -5.640625 C 40.675781 -5.066406 40.363281 -4.148438 39.8125 -2.890625 C 39.269531 -1.628906 38.234375 -0.367188 36.703125 0.890625 C 35.179688 2.148438 32.984375 3.09375 30.109375 3.71875 C 27.242188 4.351562 23.488281 4.375 18.84375 3.78125 C 15.539062 3.351562 12.769531 2.609375 10.53125 1.546875 C 8.300781 0.484375 6.539062 -0.660156 5.25 -1.890625 C 3.957031 -3.128906 3.023438 -4.175781 2.453125 -5.03125 C 1.878906 -5.882812 1.59375 -6.3125 1.59375 -6.3125 L 11.765625 -14.421875 C 11.765625 -14.421875 12.078125 -13.828125 12.703125 -12.640625 C 13.328125 -11.460938 14.296875 -10.0625 15.609375 -8.4375 C 16.921875 -6.8125 18.648438 -5.289062 20.796875 -3.875 C 22.953125 -2.457031 25.585938 -1.550781 28.703125 -1.15625 C 30.109375 -0.914062 31.457031 -1.328125 32.75 -2.390625 C 32.90625 -3.535156 31.769531 -5.15625 29.34375 -7.25 C 26.925781 -9.351562 23.742188 -12.144531 19.796875 -15.625 C 15.859375 -19.300781 13.03125 -22.410156 11.3125 -24.953125 C 9.601562 -27.503906 8.578125 -29.695312 8.234375 -31.53125 C 7.890625 -33.363281 7.8125 -35.039062 8 -36.5625 C 8.207031 -38.15625 9.066406 -39.789062 10.578125 -41.46875 C 12.085938 -43.15625 14.148438 -44.492188 16.765625 -45.484375 C 19.390625 -46.472656 22.492188 -46.738281 26.078125 -46.28125 C 30.335938 -45.726562 33.5625 -44.894531 35.75 -43.78125 C 37.945312 -42.664062 39.445312 -41.613281 40.25 -40.625 C 41.0625 -39.644531 41.46875 -39.15625 41.46875 -39.15625 L 35.578125 -28.15625 C 35.578125 -28.15625 35.128906 -28.710938 34.234375 -29.828125 C 33.347656 -30.941406 32.144531 -32.257812 30.625 -33.78125 C 29.113281 -35.3125 27.367188 -36.722656 25.390625 -38.015625 C 23.421875 -39.316406 21.320312 -40.109375 19.09375 -40.390625 C 16.476562 -40.734375 15.101562 -40.394531 14.96875 -39.375 C 14.820312 -38.21875 16 -36.425781 18.5 -34 C 21.007812 -31.570312 24.226562 -28.488281 28.15625 -24.75 Z M 28.15625 -24.75 "/></g></g></g></g></g><g transform="matrix(1, 0, 0, 1, 48, 88)"><g clip-path="url(#5d02cb8e19)"><g fill="#ffffff" fill-opacity="1"><g transform="translate(12.647245, 106.522269)"><g><path d="M 7.453125 -61.53125 C 8.035156 -57.800781 8.671875 -53.9375 9.359375 -49.9375 L 22.703125 -52.015625 L 21.796875 -47.109375 L 10.078125 -45.28125 C 10.648438 -41.65625 11.222656 -38.003906 11.796875 -34.328125 C 12.367188 -30.648438 12.894531 -27.253906 13.375 -24.140625 C 13.863281 -21.035156 14.238281 -18.539062 14.5 -16.65625 C 14.769531 -14.78125 14.90625 -13.84375 14.90625 -13.84375 C 14.90625 -13.84375 15.085938 -13.285156 15.453125 -12.171875 C 15.828125 -11.054688 16.46875 -9.675781 17.375 -8.03125 C 18.28125 -6.382812 19.476562 -4.769531 20.96875 -3.1875 L 2.484375 -0.296875 C 3.429688 -2.191406 4.019531 -4.050781 4.25 -5.875 C 4.476562 -7.707031 4.550781 -9.21875 4.46875 -10.40625 C 4.382812 -11.59375 4.34375 -12.1875 4.34375 -12.1875 L -0.875 -43.5625 L -5.921875 -42.78125 L -4.921875 -47.703125 L -1.59375 -48.21875 C -1.800781 -49.164062 -1.960938 -50.019531 -2.078125 -50.78125 C -2.359375 -52.550781 -2.070312 -54.539062 -1.21875 -56.75 C -0.363281 -58.96875 1.535156 -62.097656 4.484375 -66.140625 C 6.796875 -69.296875 8.78125 -71.671875 10.4375 -73.265625 C 12.101562 -74.859375 13.601562 -75.96875 14.9375 -76.59375 C 16.28125 -77.226562 17.554688 -77.640625 18.765625 -77.828125 C 20.722656 -78.128906 22.597656 -78.066406 24.390625 -77.640625 C 26.179688 -77.210938 27.394531 -76.617188 28.03125 -75.859375 L 20.390625 -62.375 C 20.390625 -62.375 20.113281 -62.769531 19.5625 -63.5625 C 19.007812 -64.363281 18.148438 -65.09375 16.984375 -65.75 C 15.816406 -66.40625 14.34375 -66.597656 12.5625 -66.328125 C 11.351562 -66.140625 10.128906 -65.738281 8.890625 -65.125 C 7.648438 -64.507812 7.171875 -63.3125 7.453125 -61.53125 Z M 7.453125 -61.53125 "/></g></g></g><g fill="#ffffff" fill-opacity="1"><g transform="translate(39.782157, 102.281788)"><g><path d="M 23.328125 -54.171875 C 25.421875 -54.503906 27.117188 -54.457031 28.421875 -54.03125 C 29.722656 -53.613281 30.671875 -53.15625 31.265625 -52.65625 C 31.859375 -52.164062 32.15625 -51.921875 32.15625 -51.921875 L 24.671875 -38.78125 C 24.671875 -38.78125 24.332031 -39.164062 23.65625 -39.9375 C 22.976562 -40.707031 21.972656 -41.410156 20.640625 -42.046875 C 19.304688 -42.679688 17.65625 -42.847656 15.6875 -42.546875 C 14.800781 -42.410156 13.894531 -42.148438 12.96875 -41.765625 C 12.050781 -41.390625 11.066406 -40.863281 10.015625 -40.1875 L 14.234375 -13.828125 C 14.265625 -13.628906 14.410156 -13 14.671875 -11.9375 C 14.929688 -10.882812 15.441406 -9.570312 16.203125 -8 C 16.960938 -6.425781 18.097656 -4.78125 19.609375 -3.0625 L 1.234375 -0.1875 C 2.160156 -1.757812 2.757812 -3.347656 3.03125 -4.953125 C 3.300781 -6.566406 3.398438 -8 3.328125 -9.25 C 3.265625 -10.507812 3.203125 -11.359375 3.140625 -11.796875 L -0.5 -35.03125 C -0.5 -35.03125 -0.640625 -35.546875 -0.921875 -36.578125 C -1.210938 -37.609375 -1.71875 -38.75 -2.4375 -40 C -3.15625 -41.25 -4.160156 -42.257812 -5.453125 -43.03125 L 8.171875 -52 L 9.515625 -43.328125 C 10.035156 -44.191406 10.914062 -45.414062 12.15625 -47 C 13.40625 -48.59375 14.960938 -50.085938 16.828125 -51.484375 C 18.691406 -52.890625 20.859375 -53.785156 23.328125 -54.171875 Z M 23.328125 -54.171875 "/></g></g></g><g fill="#ffffff" fill-opacity="1"><g transform="translate(76.057244, 96.612936)"><g><path d="M 38.578125 -18.90625 C 38.628906 -18.59375 38.796875 -17.96875 39.078125 -17.03125 C 39.359375 -16.09375 39.828125 -15.0625 40.484375 -13.9375 C 41.148438 -12.8125 42.085938 -11.921875 43.296875 -11.265625 L 33.625 -5.15625 C 33.625 -5.15625 33.25 -5.257812 32.5 -5.46875 C 31.75 -5.675781 30.953125 -6.179688 30.109375 -6.984375 C 29.273438 -7.796875 28.71875 -9.09375 28.4375 -10.875 L 28.171875 -12.59375 C 27.804688 -12.007812 27.203125 -11.179688 26.359375 -10.109375 C 25.515625 -9.046875 24.519531 -7.90625 23.375 -6.6875 C 22.238281 -5.46875 21.007812 -4.394531 19.6875 -3.46875 C 18.375 -2.550781 17.050781 -1.988281 15.71875 -1.78125 C 14.320312 -1.5625 12.664062 -1.851562 10.75 -2.65625 C 8.84375 -3.46875 6.976562 -4.585938 5.15625 -6.015625 C 3.332031 -7.453125 1.78125 -9.046875 0.5 -10.796875 C -0.78125 -12.554688 -1.550781 -14.265625 -1.8125 -15.921875 C -1.976562 -16.992188 -1.890625 -17.992188 -1.546875 -18.921875 C -1.203125 -19.847656 -0.535156 -20.6875 0.453125 -21.4375 C 2.972656 -23.25 5.664062 -25.175781 8.53125 -27.21875 C 11.394531 -29.257812 14.140625 -31.21875 16.765625 -33.09375 C 19.398438 -34.96875 21.722656 -36.582031 23.734375 -37.9375 C 23.648438 -38.4375 23.488281 -39.222656 23.25 -40.296875 C 23.019531 -41.367188 22.6875 -42.457031 22.25 -43.5625 C 21.8125 -44.664062 21.296875 -45.578125 20.703125 -46.296875 C 20.109375 -47.015625 19.460938 -47.316406 18.765625 -47.203125 C 15.847656 -46.742188 13.289062 -45.316406 11.09375 -42.921875 C 8.894531 -40.535156 7.347656 -37.84375 6.453125 -34.84375 L -0.109375 -45.71875 C 2.191406 -48.800781 5.144531 -50.882812 8.75 -51.96875 C 12.351562 -53.0625 16.007812 -53.179688 19.71875 -52.328125 C 23.207031 -51.578125 25.972656 -50.613281 28.015625 -49.4375 C 30.054688 -48.257812 31.59375 -47.066406 32.625 -45.859375 C 33.65625 -44.660156 34.328125 -43.550781 34.640625 -42.53125 C 34.960938 -41.507812 35.160156 -40.78125 35.234375 -40.34375 C 35.828125 -36.53125 36.382812 -32.957031 36.90625 -29.625 C 37.425781 -26.289062 37.984375 -22.71875 38.578125 -18.90625 Z M 19.71875 -13.015625 C 21.238281 -13.253906 22.738281 -13.617188 24.21875 -14.109375 C 25.695312 -14.609375 26.859375 -15.113281 27.703125 -15.625 L 24.265625 -34.515625 C 23.679688 -34.035156 22.554688 -33.097656 20.890625 -31.703125 C 19.222656 -30.304688 16.632812 -28.128906 13.125 -25.171875 C 12 -24.140625 11.25 -23.039062 10.875 -21.875 C 10.5 -20.71875 10.398438 -19.566406 10.578125 -18.421875 C 10.804688 -16.960938 11.410156 -15.675781 12.390625 -14.5625 C 13.378906 -13.445312 14.46875 -12.851562 15.65625 -12.78125 C 16.832031 -12.695312 18.1875 -12.773438 19.71875 -13.015625 Z M 19.71875 -13.015625 "/></g></g></g><g fill="#ffffff" fill-opacity="1"><g transform="translate(118.521006, 89.976955)"><g><path d="M 45.78125 -12.328125 C 45.78125 -12.265625 45.316406 -11.945312 44.390625 -11.375 C 43.472656 -10.8125 42.34375 -10.128906 41 -9.328125 C 39.664062 -8.535156 38.332031 -7.722656 37 -6.890625 C 35.664062 -6.066406 34.535156 -5.390625 33.609375 -4.859375 C 32.691406 -4.328125 32.234375 -4.0625 32.234375 -4.0625 L 30.96875 -12.15625 C 30.53125 -11.625 29.78125 -10.804688 28.71875 -9.703125 C 27.65625 -8.597656 26.421875 -7.425781 25.015625 -6.1875 C 23.609375 -4.957031 22.132812 -3.867188 20.59375 -2.921875 C 19.0625 -1.972656 17.597656 -1.390625 16.203125 -1.171875 C 13.847656 -0.804688 11.6875 -1.210938 9.71875 -2.390625 C 7.75 -3.578125 5.988281 -5.269531 4.4375 -7.46875 C 2.894531 -9.664062 1.597656 -12.128906 0.546875 -14.859375 C -0.492188 -17.585938 -1.226562 -20.347656 -1.65625 -23.140625 C -2.40625 -27.910156 -2.382812 -32.335938 -1.59375 -36.421875 C -0.800781 -40.515625 0.804688 -43.921875 3.234375 -46.640625 C 5.671875 -49.359375 8.921875 -51.035156 12.984375 -51.671875 C 14.703125 -51.929688 16.53125 -51.984375 18.46875 -51.828125 C 20.414062 -51.679688 22.503906 -51.328125 24.734375 -50.765625 L 22.953125 -62.203125 C 22.953125 -62.203125 22.820312 -62.703125 22.5625 -63.703125 C 22.300781 -64.703125 21.816406 -65.828125 21.109375 -67.078125 C 20.398438 -68.335938 19.359375 -69.414062 17.984375 -70.3125 L 31.609375 -79.25 L 40.828125 -20.21875 C 40.828125 -20.21875 40.945312 -19.75 41.1875 -18.8125 C 41.425781 -17.882812 41.898438 -16.789062 42.609375 -15.53125 C 43.328125 -14.28125 44.382812 -13.210938 45.78125 -12.328125 Z M 30.40625 -15.09375 L 26.546875 -39.84375 C 26.316406 -41.300781 25.679688 -42.671875 24.640625 -43.953125 C 23.453125 -45.242188 22.019531 -46.066406 20.34375 -46.421875 C 18.664062 -46.785156 16.976562 -46.769531 15.28125 -46.375 C 13.582031 -45.976562 12.175781 -45.203125 11.0625 -44.046875 C 9.9375 -42.898438 9.304688 -40.785156 9.171875 -37.703125 C 9.035156 -34.628906 9.234375 -31.378906 9.765625 -27.953125 C 10.242188 -24.910156 10.929688 -22.078125 11.828125 -19.453125 C 12.734375 -16.828125 13.75 -15.019531 14.875 -14.03125 C 15.863281 -13.070312 17.070312 -12.492188 18.5 -12.296875 C 19.9375 -12.097656 21.378906 -12.113281 22.828125 -12.34375 C 24.421875 -12.59375 25.90625 -13.003906 27.28125 -13.578125 C 28.65625 -14.148438 29.695312 -14.65625 30.40625 -15.09375 Z M 30.40625 -15.09375 "/></g></g></g><g fill="#ffffff" fill-opacity="1"><g transform="translate(163.650642, 82.924368)"><g><path d="M 28.078125 -10.140625 C 29.535156 -10.367188 31.003906 -10.710938 32.484375 -11.171875 C 33.972656 -11.628906 35.394531 -12.097656 36.75 -12.578125 C 36.601562 -12.285156 36.242188 -11.671875 35.671875 -10.734375 C 35.097656 -9.804688 34.269531 -8.753906 33.1875 -7.578125 C 32.101562 -6.398438 30.648438 -5.296875 28.828125 -4.265625 C 27.003906 -3.234375 24.757812 -2.507812 22.09375 -2.09375 C 16.070312 -1.15625 10.910156 -2.476562 6.609375 -6.0625 C 2.316406 -9.644531 -0.523438 -15.878906 -1.921875 -24.765625 C -2.648438 -29.460938 -2.585938 -33.742188 -1.734375 -37.609375 C -0.878906 -41.484375 0.851562 -44.695312 3.46875 -47.25 C 6.09375 -49.8125 9.726562 -51.457031 14.375 -52.1875 C 17.101562 -52.613281 19.472656 -52.625 21.484375 -52.21875 C 23.492188 -51.820312 25.160156 -51.253906 26.484375 -50.515625 C 27.804688 -49.773438 28.804688 -49.097656 29.484375 -48.484375 C 30.160156 -47.878906 30.5 -47.578125 30.5 -47.578125 L 13.21875 -17.765625 C 13.21875 -17.765625 13.253906 -17.640625 13.328125 -17.390625 C 13.398438 -17.148438 13.601562 -16.789062 13.9375 -16.3125 C 15.46875 -13.957031 16.988281 -12.3125 18.5 -11.375 C 20.007812 -10.445312 21.550781 -9.941406 23.125 -9.859375 C 24.707031 -9.785156 26.359375 -9.878906 28.078125 -10.140625 Z M 4.75 -38.203125 C 5.019531 -36.492188 5.519531 -34.664062 6.25 -32.71875 C 6.976562 -30.78125 7.75 -28.945312 8.5625 -27.21875 C 9.382812 -25.5 10.078125 -24.082031 10.640625 -22.96875 C 11.210938 -21.851562 11.503906 -21.265625 11.515625 -21.203125 C 11.515625 -21.203125 11.789062 -21.800781 12.34375 -23 C 12.90625 -24.195312 13.554688 -25.628906 14.296875 -27.296875 C 15.046875 -28.972656 15.773438 -30.566406 16.484375 -32.078125 C 17.203125 -33.585938 17.726562 -34.691406 18.0625 -35.390625 C 19.28125 -38.046875 19.585938 -40.0625 18.984375 -41.4375 C 18.378906 -42.8125 17.101562 -43.6875 15.15625 -44.0625 C 13.207031 -44.445312 10.890625 -44.523438 8.203125 -44.296875 C 6.535156 -44.097656 5.488281 -43.492188 5.0625 -42.484375 C 4.644531 -41.472656 4.539062 -40.046875 4.75 -38.203125 Z M 4.75 -38.203125 "/></g></g></g><g clip-path="url(#6f412a0586)"><g fill="#ffffff" fill-opacity="1"><g transform="translate(199.354478, 77.344787)"><g><path d="M 1.15625 -0.078125 C 2.132812 -1.722656 2.742188 -3.347656 2.984375 -4.953125 C 3.222656 -6.554688 3.304688 -7.984375 3.234375 -9.234375 C 3.160156 -10.492188 3.082031 -11.410156 3 -11.984375 L -4.34375 -58.921875 C -4.34375 -58.921875 -4.460938 -59.40625 -4.703125 -60.375 C -4.941406 -61.34375 -5.421875 -62.445312 -6.140625 -63.6875 C -6.859375 -64.9375 -7.90625 -66.007812 -9.28125 -66.90625 C -9.28125 -66.90625 -8.828125 -67.222656 -7.921875 -67.859375 C -7.015625 -68.492188 -5.894531 -69.238281 -4.5625 -70.09375 C -3.238281 -70.957031 -1.914062 -71.832031 -0.59375 -72.71875 C 0.726562 -73.601562 1.847656 -74.34375 2.765625 -74.9375 C 3.679688 -75.539062 4.140625 -75.84375 4.140625 -75.84375 L 13.859375 -13.671875 C 13.929688 -13.160156 14.300781 -11.921875 14.96875 -9.953125 C 15.632812 -7.984375 17.15625 -5.648438 19.53125 -2.953125 Z M 1.15625 -0.078125 "/></g></g></g></g></g></g><g transform="matrix(1, 0, 0, 1, 48, 187)"><g clip-path="url(#9a2c29737b)"><g fill="#ffffff" fill-opacity="1"><g transform="translate(6.378308, 40.372499)"><g><path d="M 5.328125 -0.5 C 4.097656 -0.300781 3.097656 -0.335938 2.328125 -0.609375 C 1.554688 -0.890625 0.972656 -1.316406 0.578125 -1.890625 C 0.191406 -2.472656 -0.0546875 -3.117188 -0.171875 -3.828125 C -0.316406 -4.773438 -0.164062 -5.632812 0.28125 -6.40625 C 0.726562 -7.1875 1.410156 -7.851562 2.328125 -8.40625 C 3.242188 -8.96875 4.304688 -9.394531 5.515625 -9.6875 C 6.398438 -9.894531 6.960938 -10.097656 7.203125 -10.296875 C 7.441406 -10.492188 7.5 -10.816406 7.375 -11.265625 L 7.234375 -11.75 C 7.078125 -12.28125 6.859375 -12.691406 6.578125 -12.984375 C 6.304688 -13.285156 5.878906 -13.390625 5.296875 -13.296875 C 4.890625 -13.234375 4.523438 -13.046875 4.203125 -12.734375 C 3.890625 -12.421875 3.703125 -11.96875 3.640625 -11.375 C 3.546875 -10.1875 2.882812 -9.492188 1.65625 -9.296875 C 1.289062 -9.242188 0.914062 -9.316406 0.53125 -9.515625 C 0.144531 -9.722656 -0.0859375 -10.085938 -0.171875 -10.609375 C -0.296875 -11.410156 -0.0859375 -12.164062 0.453125 -12.875 C 1.003906 -13.582031 1.785156 -14.191406 2.796875 -14.703125 C 3.804688 -15.222656 4.929688 -15.582031 6.171875 -15.78125 C 7.597656 -16.007812 8.734375 -15.976562 9.578125 -15.6875 C 10.421875 -15.40625 11.082031 -14.921875 11.5625 -14.234375 C 12.039062 -13.554688 12.425781 -12.710938 12.71875 -11.703125 L 14.15625 -6.90625 C 14.320312 -6.382812 14.476562 -6.0625 14.625 -5.9375 C 14.769531 -5.8125 14.953125 -5.769531 15.171875 -5.8125 C 15.441406 -5.851562 15.632812 -5.925781 15.75 -6.03125 C 15.863281 -6.144531 15.988281 -6.210938 16.125 -6.234375 C 16.28125 -6.253906 16.4375 -6.222656 16.59375 -6.140625 C 16.757812 -6.066406 16.867188 -5.867188 16.921875 -5.546875 C 16.992188 -5.085938 16.914062 -4.601562 16.6875 -4.09375 C 16.457031 -3.582031 16.097656 -3.128906 15.609375 -2.734375 C 15.117188 -2.335938 14.535156 -2.082031 13.859375 -1.96875 C 12.941406 -1.820312 12.21875 -1.890625 11.6875 -2.171875 C 11.15625 -2.453125 10.726562 -2.867188 10.40625 -3.421875 C 10.289062 -3.609375 10.179688 -3.691406 10.078125 -3.671875 C 9.984375 -3.660156 9.878906 -3.523438 9.765625 -3.265625 C 9.648438 -3.003906 9.453125 -2.691406 9.171875 -2.328125 C 8.890625 -1.960938 8.445312 -1.609375 7.84375 -1.265625 C 7.238281 -0.929688 6.398438 -0.675781 5.328125 -0.5 Z M 7.296875 -3.75 C 7.898438 -3.84375 8.351562 -4.203125 8.65625 -4.828125 C 8.957031 -5.453125 8.953125 -6.242188 8.640625 -7.203125 L 8.578125 -7.375 C 8.441406 -7.8125 8.253906 -8.070312 8.015625 -8.15625 C 7.785156 -8.25 7.394531 -8.25 6.84375 -8.15625 C 6.03125 -8.03125 5.492188 -7.726562 5.234375 -7.25 C 4.984375 -6.769531 4.90625 -6.207031 5 -5.5625 C 5.125 -4.84375 5.390625 -4.335938 5.796875 -4.046875 C 6.210938 -3.753906 6.710938 -3.65625 7.296875 -3.75 Z M 7.296875 -3.75 "/></g></g></g><g fill="#ffffff" fill-opacity="1"><g transform="translate(23.561165, 37.624825)"><g><path d="M 4.15625 -0.5625 C 3.144531 -0.40625 2.367188 -0.328125 1.828125 -0.328125 C 1.285156 -0.335938 0.90625 -0.414062 0.6875 -0.5625 C 0.476562 -0.707031 0.351562 -0.90625 0.3125 -1.15625 C 0.269531 -1.40625 0.296875 -1.609375 0.390625 -1.765625 C 0.484375 -1.929688 0.613281 -2.070312 0.78125 -2.1875 C 1.332031 -2.625 1.617188 -3.097656 1.640625 -3.609375 C 1.671875 -4.128906 1.617188 -4.800781 1.484375 -5.625 L 0.828125 -9.75 C 0.765625 -10.164062 0.664062 -10.507812 0.53125 -10.78125 C 0.40625 -11.050781 0.175781 -11.195312 -0.15625 -11.21875 C -0.445312 -11.25 -0.734375 -11.300781 -1.015625 -11.375 C -1.304688 -11.457031 -1.472656 -11.632812 -1.515625 -11.90625 C -1.566406 -12.238281 -1.472656 -12.507812 -1.234375 -12.71875 C -1.003906 -12.9375 -0.695312 -13.148438 -0.3125 -13.359375 C 0.34375 -13.742188 1.070312 -14.128906 1.875 -14.515625 C 2.675781 -14.910156 3.367188 -15.15625 3.953125 -15.25 C 4.453125 -15.332031 4.816406 -15.304688 5.046875 -15.171875 C 5.285156 -15.046875 5.441406 -14.765625 5.515625 -14.328125 L 5.703125 -13.125 C 5.742188 -12.882812 5.8125 -12.769531 5.90625 -12.78125 C 6.007812 -12.800781 6.109375 -12.96875 6.203125 -13.28125 C 6.304688 -13.59375 6.488281 -13.957031 6.75 -14.375 C 7.019531 -14.800781 7.421875 -15.207031 7.953125 -15.59375 C 8.492188 -15.988281 9.234375 -16.265625 10.171875 -16.421875 C 10.972656 -16.546875 11.726562 -16.503906 12.4375 -16.296875 C 13.15625 -16.097656 13.804688 -15.65625 14.390625 -14.96875 C 14.972656 -14.28125 15.453125 -13.265625 15.828125 -11.921875 L 16.890625 -8.109375 C 17.097656 -7.347656 17.265625 -6.78125 17.390625 -6.40625 C 17.523438 -6.039062 17.6875 -5.773438 17.875 -5.609375 C 18.0625 -5.441406 18.320312 -5.273438 18.65625 -5.109375 C 18.875 -5.003906 19.054688 -4.882812 19.203125 -4.75 C 19.347656 -4.613281 19.441406 -4.410156 19.484375 -4.140625 C 19.523438 -3.835938 19.410156 -3.554688 19.140625 -3.296875 C 18.867188 -3.035156 18.210938 -2.820312 17.171875 -2.65625 L 14.09375 -2.15625 C 12.914062 -1.96875 12.09375 -1.921875 11.625 -2.015625 C 11.164062 -2.117188 10.90625 -2.367188 10.84375 -2.765625 C 10.800781 -3.035156 10.820312 -3.253906 10.90625 -3.421875 C 11 -3.597656 11.132812 -3.75 11.3125 -3.875 C 11.582031 -4.101562 11.78125 -4.320312 11.90625 -4.53125 C 12.03125 -4.75 12.070312 -5.066406 12.03125 -5.484375 C 11.988281 -5.910156 11.851562 -6.535156 11.625 -7.359375 L 10.859375 -10.1875 C 10.609375 -11.070312 10.285156 -11.691406 9.890625 -12.046875 C 9.492188 -12.410156 8.960938 -12.539062 8.296875 -12.4375 C 7.972656 -12.382812 7.640625 -12.195312 7.296875 -11.875 C 6.960938 -11.5625 6.703125 -11.117188 6.515625 -10.546875 C 6.335938 -9.972656 6.316406 -9.265625 6.453125 -8.421875 L 6.765625 -6.5 C 6.898438 -5.644531 7.0625 -4.984375 7.25 -4.515625 C 7.445312 -4.054688 7.859375 -3.703125 8.484375 -3.453125 C 8.691406 -3.367188 8.867188 -3.269531 9.015625 -3.15625 C 9.171875 -3.050781 9.269531 -2.863281 9.3125 -2.59375 C 9.351562 -2.34375 9.304688 -2.113281 9.171875 -1.90625 C 9.046875 -1.707031 8.734375 -1.519531 8.234375 -1.34375 C 7.734375 -1.175781 6.957031 -1.007812 5.90625 -0.84375 Z M 4.15625 -0.5625 "/></g></g></g><g fill="#ffffff" fill-opacity="1"><g transform="translate(43.422615, 34.448822)"><g><path d="M 5.9375 -0.59375 C 4.875 -0.425781 3.890625 -0.585938 2.984375 -1.078125 C 2.085938 -1.566406 1.335938 -2.3125 0.734375 -3.3125 C 0.128906 -4.320312 -0.28125 -5.507812 -0.5 -6.875 C -0.726562 -8.257812 -0.664062 -9.566406 -0.3125 -10.796875 C 0.0390625 -12.035156 0.671875 -13.082031 1.578125 -13.9375 C 2.492188 -14.800781 3.65625 -15.34375 5.0625 -15.5625 C 5.800781 -15.6875 6.390625 -15.691406 6.828125 -15.578125 C 7.273438 -15.460938 7.625 -15.332031 7.875 -15.1875 C 8.125 -15.039062 8.3125 -14.976562 8.4375 -15 C 8.550781 -15.019531 8.597656 -15.148438 8.578125 -15.390625 C 8.554688 -15.640625 8.523438 -15.921875 8.484375 -16.234375 L 8.359375 -16.984375 C 8.296875 -17.398438 8.195312 -17.734375 8.0625 -17.984375 C 7.925781 -18.242188 7.695312 -18.398438 7.375 -18.453125 C 7.039062 -18.492188 6.738281 -18.539062 6.46875 -18.59375 C 6.207031 -18.644531 6.054688 -18.828125 6.015625 -19.140625 C 5.960938 -19.429688 6.050781 -19.6875 6.28125 -19.90625 C 6.519531 -20.132812 6.828125 -20.351562 7.203125 -20.5625 C 7.859375 -20.925781 8.585938 -21.3125 9.390625 -21.71875 C 10.203125 -22.125 10.898438 -22.375 11.484375 -22.46875 C 11.972656 -22.550781 12.335938 -22.53125 12.578125 -22.40625 C 12.816406 -22.28125 12.972656 -22 13.046875 -21.5625 L 15.328125 -7.28125 C 15.390625 -6.863281 15.488281 -6.507812 15.625 -6.21875 C 15.769531 -5.9375 16 -5.789062 16.3125 -5.78125 C 16.625 -5.789062 16.914062 -5.757812 17.1875 -5.6875 C 17.457031 -5.625 17.617188 -5.429688 17.671875 -5.109375 C 17.722656 -4.796875 17.628906 -4.53125 17.390625 -4.3125 C 17.148438 -4.101562 16.847656 -3.890625 16.484375 -3.671875 C 15.804688 -3.304688 15.070312 -2.921875 14.28125 -2.515625 C 13.5 -2.117188 12.804688 -1.875 12.203125 -1.78125 C 11.722656 -1.695312 11.359375 -1.71875 11.109375 -1.84375 C 10.867188 -1.976562 10.710938 -2.265625 10.640625 -2.703125 L 10.609375 -2.875 C 10.523438 -3.382812 10.457031 -3.742188 10.40625 -3.953125 C 10.351562 -4.171875 10.289062 -4.273438 10.21875 -4.265625 C 10.144531 -4.253906 10.039062 -4.085938 9.90625 -3.765625 C 9.769531 -3.441406 9.550781 -3.0625 9.25 -2.625 C 8.945312 -2.1875 8.53125 -1.769531 8 -1.375 C 7.476562 -0.988281 6.789062 -0.726562 5.9375 -0.59375 Z M 8.234375 -4.46875 C 8.765625 -4.550781 9.203125 -4.878906 9.546875 -5.453125 C 9.890625 -6.023438 9.984375 -6.789062 9.828125 -7.75 L 9.703125 -8.59375 C 9.421875 -10.363281 8.972656 -11.65625 8.359375 -12.46875 C 7.753906 -13.289062 7.050781 -13.640625 6.25 -13.515625 C 5.71875 -13.429688 5.265625 -13.097656 4.890625 -12.515625 C 4.523438 -11.941406 4.429688 -11.078125 4.609375 -9.921875 C 4.890625 -8.171875 5.351562 -6.789062 6 -5.78125 C 6.65625 -4.769531 7.398438 -4.332031 8.234375 -4.46875 Z M 8.234375 -4.46875 "/></g></g></g></g></g><g transform="matrix(1, 0, 0, 1, 218, 138)"><g clip-path="url(#6bb3a7bfac)"><g fill="#ffffff" fill-opacity="1"><g transform="translate(20.071488, 57.773251)"><g><path d="M 7.90625 -2.46875 C 6.988281 -2.144531 6.0625 -1.859375 5.125 -1.609375 C 4.1875 -1.367188 3.226562 -1.082031 2.25 -0.75 C 1.53125 -0.5 0.976562 -0.4375 0.59375 -0.5625 C 0.21875 -0.695312 -0.0507812 -1.003906 -0.21875 -1.484375 C -0.320312 -1.796875 -0.351562 -2.050781 -0.3125 -2.25 C -0.269531 -2.445312 -0.179688 -2.648438 -0.046875 -2.859375 C 0.046875 -3.015625 0.0976562 -3.179688 0.109375 -3.359375 C 0.128906 -3.546875 0.09375 -3.828125 0 -4.203125 C -0.09375 -4.578125 -0.269531 -5.132812 -0.53125 -5.875 L -2.296875 -10.96875 C -2.554688 -11.695312 -2.765625 -12.242188 -2.921875 -12.609375 C -3.085938 -12.972656 -3.234375 -13.21875 -3.359375 -13.34375 C -3.492188 -13.476562 -3.644531 -13.566406 -3.8125 -13.609375 C -4.039062 -13.679688 -4.234375 -13.785156 -4.390625 -13.921875 C -4.546875 -14.054688 -4.675781 -14.285156 -4.78125 -14.609375 C -4.957031 -15.097656 -4.9375 -15.503906 -4.71875 -15.828125 C -4.5 -16.148438 -4.035156 -16.4375 -3.328125 -16.6875 C -2.804688 -16.863281 -2.195312 -17.09375 -1.5 -17.375 C -0.8125 -17.664062 -0.125 -17.945312 0.5625 -18.21875 C 1.25 -18.5 1.828125 -18.722656 2.296875 -18.890625 C 5.546875 -20.015625 8.25 -20.148438 10.40625 -19.296875 C 12.5625 -18.453125 14.117188 -16.632812 15.078125 -13.84375 C 15.984375 -11.238281 15.832031 -8.972656 14.625 -7.046875 C 13.414062 -5.128906 11.175781 -3.601562 7.90625 -2.46875 Z M 7.625 -6.15625 C 8.4375 -6.4375 8.898438 -7.066406 9.015625 -8.046875 C 9.140625 -9.035156 8.921875 -10.34375 8.359375 -11.96875 C 7.222656 -15.226562 5.71875 -16.535156 3.84375 -15.890625 C 3.632812 -15.816406 3.445312 -15.675781 3.28125 -15.46875 C 3.113281 -15.269531 3.078125 -15.03125 3.171875 -14.75 L 5.875 -6.984375 C 6.050781 -6.484375 6.28125 -6.179688 6.5625 -6.078125 C 6.851562 -5.984375 7.207031 -6.007812 7.625 -6.15625 Z M 7.625 -6.15625 "/></g></g></g><g fill="#ffffff" fill-opacity="1"><g transform="translate(42.787111, 51.43028)"><g><path d="M 15.03125 -3.875 C 15.539062 -3.800781 15.875 -3.566406 16.03125 -3.171875 C 16.195312 -2.785156 16.234375 -2.285156 16.140625 -1.671875 C 16.054688 -1.066406 15.878906 -0.390625 15.609375 0.359375 C 15.273438 1.265625 14.941406 1.835938 14.609375 2.078125 C 14.273438 2.316406 13.890625 2.40625 13.453125 2.34375 C 13.097656 2.289062 12.765625 2.207031 12.453125 2.09375 C 12.140625 1.988281 11.796875 1.878906 11.421875 1.765625 C 11.046875 1.648438 10.5625 1.550781 9.96875 1.46875 C 8.351562 1.226562 7.070312 1.035156 6.125 0.890625 C 5.1875 0.753906 4.472656 0.648438 3.984375 0.578125 C 3.503906 0.515625 3.15625 0.472656 2.9375 0.453125 C 2.71875 0.429688 2.515625 0.40625 2.328125 0.375 C 1.578125 0.257812 1.066406 0.0546875 0.796875 -0.234375 C 0.523438 -0.523438 0.421875 -0.921875 0.484375 -1.421875 C 0.523438 -1.753906 0.609375 -2 0.734375 -2.15625 C 0.867188 -2.3125 1.035156 -2.445312 1.234375 -2.5625 C 1.398438 -2.65625 1.535156 -2.78125 1.640625 -2.9375 C 1.742188 -3.09375 1.835938 -3.359375 1.921875 -3.734375 C 2.015625 -4.109375 2.117188 -4.679688 2.234375 -5.453125 L 3.015625 -10.78125 C 3.128906 -11.5625 3.195312 -12.148438 3.21875 -12.546875 C 3.25 -12.941406 3.234375 -13.222656 3.171875 -13.390625 C 3.117188 -13.566406 3.023438 -13.710938 2.890625 -13.828125 C 2.734375 -14.003906 2.613281 -14.1875 2.53125 -14.375 C 2.457031 -14.570312 2.445312 -14.835938 2.5 -15.171875 C 2.570312 -15.679688 2.78125 -16.03125 3.125 -16.21875 C 3.46875 -16.414062 4.007812 -16.457031 4.75 -16.34375 C 4.914062 -16.320312 5.101562 -16.296875 5.3125 -16.265625 C 5.53125 -16.234375 5.863281 -16.175781 6.3125 -16.09375 C 6.769531 -16.019531 7.445312 -15.914062 8.34375 -15.78125 C 9.238281 -15.65625 10.445312 -15.476562 11.96875 -15.25 C 12.9375 -15.113281 13.71875 -15.0625 14.3125 -15.09375 C 14.914062 -15.125 15.46875 -15.101562 15.96875 -15.03125 C 16.457031 -14.957031 16.820312 -14.765625 17.0625 -14.453125 C 17.300781 -14.148438 17.445312 -13.515625 17.5 -12.546875 C 17.570312 -11.328125 17.484375 -10.34375 17.234375 -9.59375 C 16.984375 -8.851562 16.484375 -8.535156 15.734375 -8.640625 C 15.160156 -8.722656 14.757812 -8.925781 14.53125 -9.25 C 14.300781 -9.570312 14.117188 -9.894531 13.984375 -10.21875 C 13.867188 -10.476562 13.726562 -10.742188 13.5625 -11.015625 C 13.394531 -11.296875 13.175781 -11.535156 12.90625 -11.734375 C 12.632812 -11.941406 12.25 -12.082031 11.75 -12.15625 L 10.546875 -12.34375 C 10.203125 -12.394531 9.960938 -12.367188 9.828125 -12.265625 C 9.691406 -12.171875 9.597656 -11.929688 9.546875 -11.546875 L 9.1875 -9.125 C 9.15625 -8.914062 9.265625 -8.789062 9.515625 -8.75 L 9.65625 -8.734375 C 10.09375 -8.671875 10.394531 -8.875 10.5625 -9.34375 C 10.71875 -9.726562 10.898438 -10.023438 11.109375 -10.234375 C 11.316406 -10.441406 11.679688 -10.507812 12.203125 -10.4375 C 12.617188 -10.375 12.898438 -10.128906 13.046875 -9.703125 C 13.203125 -9.273438 13.285156 -8.515625 13.296875 -7.421875 C 13.296875 -6.109375 13.171875 -5.210938 12.921875 -4.734375 C 12.671875 -4.253906 12.21875 -4.0625 11.5625 -4.15625 C 10.738281 -4.28125 10.3125 -4.734375 10.28125 -5.515625 C 10.269531 -5.609375 10.226562 -5.707031 10.15625 -5.8125 C 10.09375 -5.914062 9.925781 -5.984375 9.65625 -6.015625 L 9.53125 -6.03125 C 9.269531 -6.070312 9.0625 -6.003906 8.90625 -5.828125 C 8.75 -5.660156 8.65625 -5.460938 8.625 -5.234375 L 8.28125 -2.9375 C 8.226562 -2.59375 8.269531 -2.328125 8.40625 -2.140625 C 8.539062 -1.960938 8.800781 -1.847656 9.1875 -1.796875 L 10.34375 -1.625 C 10.789062 -1.5625 11.175781 -1.597656 11.5 -1.734375 C 11.832031 -1.867188 12.113281 -2.046875 12.34375 -2.265625 C 12.570312 -2.484375 12.742188 -2.664062 12.859375 -2.8125 C 13.222656 -3.25 13.582031 -3.546875 13.9375 -3.703125 C 14.289062 -3.867188 14.65625 -3.925781 15.03125 -3.875 Z M 15.03125 -3.875 "/></g></g></g><g fill="#ffffff" fill-opacity="1"><g transform="translate(63.211159, 55.571595)"><g><path d="M 6 4.421875 C 5.1875 3.867188 4.4375 3.234375 3.75 2.515625 C 3.070312 1.796875 2.566406 1.050781 2.234375 0.28125 C 1.910156 -0.40625 1.769531 -1.078125 1.8125 -1.734375 C 1.863281 -2.304688 2.046875 -2.828125 2.359375 -3.296875 C 2.710938 -3.816406 3.15625 -4.144531 3.6875 -4.28125 C 4.21875 -4.425781 4.753906 -4.316406 5.296875 -3.953125 C 5.710938 -3.671875 6.019531 -3.3125 6.21875 -2.875 C 6.425781 -2.4375 6.476562 -1.734375 6.375 -0.765625 C 6.34375 -0.328125 6.378906 0.0820312 6.484375 0.46875 C 6.597656 0.851562 6.867188 1.1875 7.296875 1.46875 C 7.890625 1.875 8.363281 1.8125 8.71875 1.28125 C 8.96875 0.914062 9.078125 0.535156 9.046875 0.140625 C 9.015625 -0.242188 8.894531 -0.640625 8.6875 -1.046875 C 8.476562 -1.460938 8.238281 -1.890625 7.96875 -2.328125 C 7.664062 -2.785156 7.375 -3.273438 7.09375 -3.796875 C 6.820312 -4.328125 6.625 -4.882812 6.5 -5.46875 C 6.375 -6.050781 6.363281 -6.671875 6.46875 -7.328125 C 6.582031 -7.992188 6.890625 -8.703125 7.390625 -9.453125 C 7.941406 -10.265625 8.640625 -10.851562 9.484375 -11.21875 C 10.328125 -11.59375 11.28125 -11.691406 12.34375 -11.515625 C 13.414062 -11.347656 14.546875 -10.863281 15.734375 -10.0625 C 16.515625 -9.539062 17.242188 -8.890625 17.921875 -8.109375 C 18.609375 -7.328125 19.109375 -6.523438 19.421875 -5.703125 C 19.617188 -5.128906 19.707031 -4.597656 19.6875 -4.109375 C 19.664062 -3.859375 19.613281 -3.601562 19.53125 -3.34375 C 19.457031 -3.082031 19.34375 -2.84375 19.1875 -2.625 C 18.90625 -2.207031 18.519531 -1.910156 18.03125 -1.734375 C 17.550781 -1.566406 17.035156 -1.664062 16.484375 -2.03125 C 16.078125 -2.300781 15.78125 -2.664062 15.59375 -3.125 C 15.414062 -3.59375 15.359375 -4.207031 15.421875 -4.96875 C 15.484375 -5.519531 15.4375 -5.9375 15.28125 -6.21875 C 15.125 -6.5 14.925781 -6.722656 14.6875 -6.890625 C 14.519531 -7.003906 14.328125 -7.046875 14.109375 -7.015625 C 13.890625 -6.984375 13.71875 -6.875 13.59375 -6.6875 C 13.300781 -6.257812 13.285156 -5.773438 13.546875 -5.234375 C 13.804688 -4.691406 14.140625 -4.097656 14.546875 -3.453125 C 14.890625 -2.929688 15.234375 -2.375 15.578125 -1.78125 C 15.921875 -1.195312 16.1875 -0.582031 16.375 0.0625 C 16.5625 0.707031 16.609375 1.382812 16.515625 2.09375 C 16.421875 2.8125 16.101562 3.570312 15.5625 4.375 C 14.90625 5.363281 14.066406 6 13.046875 6.28125 C 12.023438 6.5625 10.910156 6.53125 9.703125 6.1875 C 8.492188 5.851562 7.257812 5.265625 6 4.421875 Z M 6 4.421875 "/></g></g></g><g fill="#ffffff" fill-opacity="1"><g transform="translate(79.348822, 68.304539)"><g><path d="M 2.390625 3.5 C 2.191406 3.207031 2.007812 2.953125 1.84375 2.734375 C 1.6875 2.523438 1.503906 2.269531 1.296875 1.96875 C 0.867188 1.332031 0.671875 0.816406 0.703125 0.421875 C 0.734375 0.0234375 0.957031 -0.3125 1.375 -0.59375 C 1.644531 -0.78125 1.882812 -0.875 2.09375 -0.875 C 2.300781 -0.882812 2.519531 -0.859375 2.75 -0.796875 C 2.914062 -0.753906 3.085938 -0.742188 3.265625 -0.765625 C 3.453125 -0.796875 3.710938 -0.90625 4.046875 -1.09375 C 4.378906 -1.289062 4.867188 -1.609375 5.515625 -2.046875 L 9.96875 -5.09375 C 10.613281 -5.53125 11.09375 -5.875 11.40625 -6.125 C 11.71875 -6.375 11.914062 -6.578125 12 -6.734375 C 12.09375 -6.890625 12.140625 -7.0625 12.140625 -7.25 C 12.148438 -7.476562 12.195312 -7.6875 12.28125 -7.875 C 12.375 -8.0625 12.5625 -8.25 12.84375 -8.4375 C 13.269531 -8.726562 13.664062 -8.804688 14.03125 -8.671875 C 14.394531 -8.546875 14.789062 -8.175781 15.21875 -7.5625 L 16.28125 -6.015625 C 16.351562 -5.898438 16.425781 -5.789062 16.5 -5.6875 C 16.570312 -5.582031 16.640625 -5.484375 16.703125 -5.390625 L 17.75 -3.84375 C 18.175781 -3.226562 18.378906 -2.722656 18.359375 -2.328125 C 18.347656 -1.941406 18.128906 -1.601562 17.703125 -1.3125 C 17.421875 -1.125 17.179688 -1.023438 16.984375 -1.015625 C 16.785156 -1.015625 16.566406 -1.039062 16.328125 -1.09375 C 16.179688 -1.132812 16.007812 -1.144531 15.8125 -1.125 C 15.625 -1.101562 15.359375 -0.992188 15.015625 -0.796875 C 14.679688 -0.609375 14.191406 -0.296875 13.546875 0.140625 L 9.09375 3.1875 C 8.445312 3.625 7.972656 3.960938 7.671875 4.203125 C 7.378906 4.453125 7.1875 4.660156 7.09375 4.828125 C 7.007812 4.992188 6.957031 5.160156 6.9375 5.328125 C 6.925781 5.578125 6.875 5.796875 6.78125 5.984375 C 6.695312 6.171875 6.519531 6.359375 6.25 6.546875 C 5.832031 6.828125 5.429688 6.90625 5.046875 6.78125 C 4.660156 6.664062 4.253906 6.300781 3.828125 5.6875 C 3.617188 5.375 3.445312 5.109375 3.3125 4.890625 C 3.1875 4.671875 3.019531 4.410156 2.8125 4.109375 Z M 2.390625 3.5 "/></g></g></g><g fill="#ffffff" fill-opacity="1"><g transform="translate(87.319552, 80.186646)"><g><path d="M 1.53125 9.578125 C 1.175781 7.753906 1.203125 6.078125 1.609375 4.546875 C 2.015625 3.015625 2.800781 1.726562 3.96875 0.6875 C 5.144531 -0.351562 6.695312 -1.0625 8.625 -1.4375 C 9.851562 -1.675781 11.019531 -1.644531 12.125 -1.34375 C 13.226562 -1.050781 14.222656 -0.578125 15.109375 0.078125 C 15.992188 0.742188 16.734375 1.550781 17.328125 2.5 C 17.929688 3.445312 18.332031 4.453125 18.53125 5.515625 C 18.738281 6.546875 18.832031 7.503906 18.8125 8.390625 C 18.800781 9.285156 18.695312 10.101562 18.5 10.84375 C 18.457031 11.007812 18.410156 11.164062 18.359375 11.3125 C 18.304688 11.46875 18.253906 11.601562 18.203125 11.71875 C 18.003906 12.164062 17.785156 12.546875 17.546875 12.859375 C 16.992188 13.546875 16.316406 13.96875 15.515625 14.125 C 13.628906 14.488281 12.492188 13.679688 12.109375 11.703125 C 11.960938 10.953125 12.019531 10.265625 12.28125 9.640625 C 12.550781 9.015625 13.050781 8.390625 13.78125 7.765625 C 14.144531 7.441406 14.398438 7.117188 14.546875 6.796875 C 14.703125 6.484375 14.738281 6.128906 14.65625 5.734375 C 14.582031 5.359375 14.359375 5.109375 13.984375 4.984375 C 13.617188 4.859375 13.046875 4.875 12.265625 5.03125 C 11.390625 5.195312 10.550781 5.4375 9.75 5.75 C 8.945312 6.070312 8.242188 6.441406 7.640625 6.859375 C 7.035156 7.285156 6.570312 7.734375 6.25 8.203125 C 5.925781 8.671875 5.816406 9.15625 5.921875 9.65625 C 5.984375 10 6.082031 10.226562 6.21875 10.34375 C 6.351562 10.457031 6.503906 10.5 6.671875 10.46875 L 6.796875 10.453125 C 6.941406 10.421875 7.097656 10.359375 7.265625 10.265625 C 7.441406 10.171875 7.539062 9.984375 7.5625 9.703125 C 7.613281 9.347656 7.757812 9.082031 8 8.90625 C 8.238281 8.738281 8.503906 8.625 8.796875 8.5625 C 9.242188 8.476562 9.613281 8.5625 9.90625 8.8125 C 10.195312 9.070312 10.421875 9.566406 10.578125 10.296875 C 10.691406 10.796875 10.789062 11.242188 10.875 11.640625 C 10.96875 12.046875 11.054688 12.484375 11.140625 12.953125 C 11.234375 13.421875 11.328125 13.972656 11.421875 14.609375 C 11.523438 15.234375 11.484375 15.6875 11.296875 15.96875 C 11.109375 16.257812 10.789062 16.445312 10.34375 16.53125 C 10.082031 16.582031 9.832031 16.550781 9.59375 16.4375 C 9.363281 16.332031 9.113281 16.195312 8.84375 16.03125 C 8.738281 15.96875 8.570312 15.929688 8.34375 15.921875 C 8.113281 15.910156 7.867188 15.929688 7.609375 15.984375 L 7.25 16.046875 C 6.90625 16.117188 6.53125 16.113281 6.125 16.03125 C 5.71875 15.957031 5.304688 15.800781 4.890625 15.5625 C 4.617188 15.394531 4.351562 15.195312 4.09375 14.96875 C 3.84375 14.738281 3.597656 14.46875 3.359375 14.15625 C 2.984375 13.625 2.632812 12.984375 2.3125 12.234375 C 1.988281 11.484375 1.726562 10.597656 1.53125 9.578125 Z M 1.53125 9.578125 "/></g></g></g><g fill="#ffffff" fill-opacity="1"><g transform="translate(90.522905, 102.833201)"><g><path d="M -1.25 4.046875 L -0.5625 1.84375 C -0.363281 1.1875 -0.101562 0.796875 0.21875 0.671875 C 0.539062 0.546875 0.867188 0.535156 1.203125 0.640625 C 1.515625 0.734375 1.738281 0.890625 1.875 1.109375 C 2.019531 1.328125 2.140625 1.554688 2.234375 1.796875 C 2.316406 1.972656 2.40625 2.117188 2.5 2.234375 C 2.601562 2.359375 2.773438 2.476562 3.015625 2.59375 C 3.265625 2.707031 3.632812 2.847656 4.125 3.015625 C 4.613281 3.179688 5.289062 3.398438 6.15625 3.671875 L 9.78125 4.78125 C 10.65625 5.050781 11.296875 5.238281 11.703125 5.34375 C 12.109375 5.445312 12.414062 5.484375 12.625 5.453125 C 12.832031 5.421875 13.050781 5.332031 13.28125 5.1875 C 13.5 5.039062 13.722656 4.914062 13.953125 4.8125 C 14.191406 4.71875 14.457031 4.71875 14.75 4.8125 C 15.101562 4.914062 15.367188 5.109375 15.546875 5.390625 C 15.722656 5.679688 15.71875 6.144531 15.53125 6.78125 L 14.421875 10.359375 C 14.316406 10.722656 14.179688 10.988281 14.015625 11.15625 C 13.847656 11.332031 13.664062 11.484375 13.46875 11.609375 L 7.484375 15.328125 C 7.347656 15.421875 7.226562 15.507812 7.125 15.59375 C 7.03125 15.675781 6.96875 15.773438 6.9375 15.890625 C 6.851562 16.171875 7.007812 16.375 7.40625 16.5 L 7.609375 16.5625 C 8.242188 16.757812 8.6875 16.847656 8.9375 16.828125 C 9.1875 16.804688 9.453125 16.703125 9.734375 16.515625 C 9.960938 16.367188 10.195312 16.25 10.4375 16.15625 C 10.6875 16.070312 10.953125 16.070312 11.234375 16.15625 C 11.597656 16.269531 11.867188 16.472656 12.046875 16.765625 C 12.234375 17.066406 12.226562 17.53125 12.03125 18.15625 L 11.359375 20.34375 C 11.160156 20.988281 10.898438 21.375 10.578125 21.5 C 10.253906 21.625 9.921875 21.632812 9.578125 21.53125 C 9.296875 21.445312 9.078125 21.300781 8.921875 21.09375 C 8.773438 20.882812 8.644531 20.65625 8.53125 20.40625 C 8.445312 20.1875 8.335938 20.003906 8.203125 19.859375 C 8.078125 19.722656 7.851562 19.585938 7.53125 19.453125 C 7.21875 19.316406 6.707031 19.140625 6 18.921875 L -3.765625 15.921875 C -4.128906 15.804688 -4.375 15.628906 -4.5 15.390625 C -4.632812 15.160156 -4.660156 14.914062 -4.578125 14.65625 C -4.503906 14.40625 -4.390625 14.21875 -4.234375 14.09375 C -4.078125 13.96875 -3.96875 13.890625 -3.90625 13.859375 L 6.765625 7.71875 C 6.898438 7.632812 7 7.550781 7.0625 7.46875 C 7.132812 7.382812 7.179688 7.3125 7.203125 7.25 C 7.273438 7.007812 7.117188 6.832031 6.734375 6.71875 L 4.5 6.03125 C 3.632812 5.769531 2.988281 5.585938 2.5625 5.484375 C 2.144531 5.390625 1.835938 5.363281 1.640625 5.40625 C 1.453125 5.445312 1.253906 5.53125 1.046875 5.65625 C 0.835938 5.800781 0.609375 5.921875 0.359375 6.015625 C 0.109375 6.109375 -0.160156 6.109375 -0.453125 6.015625 C -0.796875 5.910156 -1.0625 5.710938 -1.25 5.421875 C -1.4375 5.128906 -1.4375 4.671875 -1.25 4.046875 Z M -1.25 4.046875 "/></g></g></g></g></g></svg>