<svg xmlns="http://www.w3.org/2000/svg" xmlns:xlink="http://www.w3.org/1999/xlink" width="500" zoomAndPan="magnify" viewBox="0 0 375 374.999991" height="500" preserveAspectRatio="xMidYMid meet" version="1.0"><defs><g/><clipPath id="cbf28ab711"><rect x="0" width="320" y="0" height="238"/></clipPath></defs><g transform="matrix(1, 0, 0, 1, 24, 60)"><g clip-path="url(#cbf28ab711)"><g fill="#ffffff" fill-opacity="1"><g transform="translate(0.942157, 176.89216)"><g><path d="M 82.28125 -15.125 C 86.851562 -15.125 91.226562 -16.226562 95.40625 -18.4375 C 99.582031 -20.644531 103.328125 -23.71875 106.640625 -27.65625 L 107.8125 -26.953125 C 103.082031 -18.441406 96.695312 -11.625 88.65625 -6.5 C 80.625 -1.375 71.800781 1.1875 62.1875 1.1875 C 52.25 1.1875 43.222656 -1.488281 35.109375 -6.84375 C 26.992188 -12.207031 20.492188 -19.421875 15.609375 -28.484375 C 10.722656 -37.546875 8.28125 -47.597656 8.28125 -58.640625 C 8.28125 -69.671875 10.722656 -79.71875 15.609375 -88.78125 C 20.492188 -97.84375 26.992188 -105.050781 35.109375 -110.40625 C 43.222656 -115.769531 52.25 -118.453125 62.1875 -118.453125 C 70.851562 -118.453125 78.613281 -116.398438 85.46875 -112.296875 C 92.320312 -108.203125 98.070312 -102.648438 102.71875 -95.640625 C 107.375 -88.628906 110.570312 -80.628906 112.3125 -71.640625 L 43.734375 -71.640625 C 43.734375 -61.234375 45.46875 -51.734375 48.9375 -43.140625 C 52.40625 -34.554688 57.054688 -27.738281 62.890625 -22.6875 C 68.722656 -17.644531 75.1875 -15.125 82.28125 -15.125 Z M 62.1875 -117.03125 C 58.875 -117.03125 56.148438 -115.804688 54.015625 -113.359375 C 51.890625 -110.921875 50.117188 -107.769531 48.703125 -103.90625 C 47.285156 -100.050781 46.257812 -96.070312 45.625 -91.96875 C 45 -87.875 44.523438 -84.09375 44.203125 -80.625 C 43.890625 -77.15625 43.734375 -74.632812 43.734375 -73.0625 L 80.15625 -73.0625 C 78.738281 -102.375 72.75 -117.03125 62.1875 -117.03125 Z M 62.1875 -117.03125 "/></g></g></g><g fill="#ffffff" fill-opacity="1"><g transform="translate(93.857272, 176.89216)"><g><path d="M 99.546875 -25.53125 C 105.535156 -24.113281 110.851562 -21.429688 115.5 -17.484375 C 120.144531 -13.546875 123.847656 -8.738281 126.609375 -3.0625 C 129.367188 2.601562 130.75 8.75 130.75 15.375 C 130.75 23.09375 128.9375 30.101562 125.3125 36.40625 C 121.6875 42.71875 116.878906 47.765625 110.890625 51.546875 C 104.898438 55.328125 98.28125 57.21875 91.03125 57.21875 C 85.039062 57.21875 79.363281 55.992188 74 53.546875 C 68.644531 51.109375 64.347656 47.835938 61.109375 43.734375 C 57.878906 39.640625 56.265625 35.226562 56.265625 30.5 C 56.265625 25.457031 58.078125 21.125 61.703125 17.5 C 65.328125 13.875 69.664062 12.0625 74.71875 12.0625 C 79.757812 12.0625 84.050781 13.875 87.59375 17.5 C 91.144531 21.125 92.921875 25.457031 92.921875 30.5 C 92.921875 35.695312 91.1875 40.03125 87.71875 43.5 C 86.613281 44.601562 85.664062 45.785156 84.875 47.046875 C 84.09375 48.304688 83.703125 49.566406 83.703125 50.828125 C 83.703125 54.140625 86.144531 55.796875 91.03125 55.796875 C 98.125 55.796875 104.546875 53.984375 110.296875 50.359375 C 116.046875 46.734375 120.65625 41.847656 124.125 35.703125 C 127.59375 29.554688 129.328125 22.78125 129.328125 15.375 C 129.328125 9.695312 128.023438 4.570312 125.421875 0 C 122.828125 -4.570312 119.363281 -8.195312 115.03125 -10.875 C 110.695312 -13.550781 105.847656 -14.890625 100.484375 -14.890625 C 94.960938 -14.890625 89.957031 -13.429688 85.46875 -10.515625 C 80.976562 -7.597656 76.757812 -4.050781 72.8125 0.125 C 68.875 4.300781 64.9375 8.515625 61 12.765625 C 57.0625 17.023438 52.804688 20.613281 48.234375 23.53125 C 43.660156 26.445312 38.457031 27.90625 32.625 27.90625 C 27.113281 27.90625 22.03125 26.484375 17.375 23.640625 C 12.726562 20.804688 9.0625 16.945312 6.375 12.0625 C 3.695312 7.175781 2.359375 1.816406 2.359375 -4.015625 C 2.359375 -11.265625 4.40625 -17.6875 8.5 -23.28125 C 12.601562 -28.882812 17.804688 -32.628906 24.109375 -34.515625 C 20.484375 -38.929688 17.644531 -43.859375 15.59375 -49.296875 C 13.550781 -54.734375 12.53125 -60.445312 12.53125 -66.4375 C 12.53125 -76.050781 14.972656 -84.796875 19.859375 -92.671875 C 24.742188 -100.554688 31.242188 -106.820312 39.359375 -111.46875 C 47.484375 -116.125 56.507812 -118.453125 66.4375 -118.453125 C 74.476562 -118.453125 82.046875 -116.875 89.140625 -113.71875 C 85.191406 -117.351562 81.25 -122.082031 77.3125 -127.90625 C 73.375 -133.738281 71.40625 -140.125 71.40625 -147.0625 C 71.40625 -152.101562 73.21875 -156.4375 76.84375 -160.0625 C 80.46875 -163.6875 84.800781 -165.5 89.84375 -165.5 C 94.882812 -165.5 99.175781 -163.6875 102.71875 -160.0625 C 106.269531 -156.4375 108.046875 -152.101562 108.046875 -147.0625 C 108.046875 -143.125 106.898438 -139.65625 104.609375 -136.65625 C 102.328125 -133.664062 99.457031 -131.378906 96 -129.796875 C 90.632812 -127.597656 87.953125 -124.601562 87.953125 -120.8125 C 87.953125 -118.769531 88.78125 -116.800781 90.4375 -114.90625 C 92.09375 -113.019531 94.101562 -111.285156 96.46875 -109.703125 C 103.875 -104.972656 109.703125 -98.863281 113.953125 -91.375 C 118.210938 -83.894531 120.34375 -75.582031 120.34375 -66.4375 C 120.34375 -58.238281 118.488281 -50.550781 114.78125 -43.375 C 111.082031 -36.207031 106.003906 -30.257812 99.546875 -25.53125 Z M 66.4375 -117.03125 C 54.300781 -117.03125 48.234375 -100.164062 48.234375 -66.4375 C 48.234375 -36.800781 52.960938 -20.171875 62.421875 -16.546875 C 65.097656 -18.128906 67.734375 -19.550781 70.328125 -20.8125 C 72.929688 -22.070312 75.5 -23.171875 78.03125 -24.109375 C 82.59375 -32.304688 84.875 -46.414062 84.875 -66.4375 C 84.875 -100.164062 78.726562 -117.03125 66.4375 -117.03125 Z M 17.03125 -20.09375 C 17.03125 -15.84375 18.566406 -12.179688 21.640625 -9.109375 C 24.710938 -6.035156 28.375 -4.5 32.625 -4.5 C 37.039062 -4.5 41.453125 -5.597656 45.859375 -7.796875 C 50.273438 -10.003906 54.847656 -12.367188 59.578125 -14.890625 C 52.640625 -15.835938 46.175781 -17.96875 40.1875 -21.28125 C 34.195312 -24.59375 29.078125 -28.691406 24.828125 -33.578125 C 19.628906 -30.421875 17.03125 -25.925781 17.03125 -20.09375 Z M 17.03125 -20.09375 "/></g></g></g><g fill="#ffffff" fill-opacity="1"><g transform="translate(201.667481, 176.89216)"><g><path d="M 62.1875 -118.453125 C 72.113281 -118.453125 81.132812 -115.769531 89.25 -110.40625 C 97.375 -105.050781 103.878906 -97.84375 108.765625 -88.78125 C 113.648438 -79.71875 116.09375 -69.671875 116.09375 -58.640625 C 116.09375 -47.597656 113.648438 -37.546875 108.765625 -28.484375 C 103.878906 -19.421875 97.375 -12.207031 89.25 -6.84375 C 81.132812 -1.488281 72.113281 1.1875 62.1875 1.1875 C 52.25 1.1875 43.222656 -1.488281 35.109375 -6.84375 C 26.992188 -12.207031 20.492188 -19.421875 15.609375 -28.484375 C 10.722656 -37.546875 8.28125 -47.597656 8.28125 -58.640625 C 8.28125 -69.671875 10.722656 -79.71875 15.609375 -88.78125 C 20.492188 -97.84375 26.992188 -105.050781 35.109375 -110.40625 C 43.222656 -115.769531 52.25 -118.453125 62.1875 -118.453125 Z M 62.1875 -0.234375 C 74.320312 -0.234375 80.390625 -19.703125 80.390625 -58.640625 C 80.390625 -97.566406 74.320312 -117.03125 62.1875 -117.03125 C 49.882812 -117.03125 43.734375 -97.566406 43.734375 -58.640625 C 43.734375 -19.703125 49.882812 -0.234375 62.1875 -0.234375 Z M 62.1875 -0.234375 "/></g></g></g></g></g></svg>