<svg xmlns="http://www.w3.org/2000/svg" xmlns:xlink="http://www.w3.org/1999/xlink" width="500" zoomAndPan="magnify" viewBox="0 0 375 374.999991" height="500" preserveAspectRatio="xMidYMid meet" version="1.0"><defs><g/><clipPath id="58b32e3ea4"><path d="M 23 136 L 120 136 L 120 238 L 23 238 Z M 23 136 " clip-rule="nonzero"/></clipPath><clipPath id="8e5cc348a4"><path d="M 17.636719 141.613281 L 119.457031 135.507812 L 125.332031 233.582031 L 23.515625 239.6875 Z M 17.636719 141.613281 " clip-rule="nonzero"/></clipPath><clipPath id="d2efee608e"><path d="M 17.636719 141.613281 L 119.457031 135.507812 L 125.332031 233.582031 L 23.515625 239.6875 Z M 17.636719 141.613281 " clip-rule="nonzero"/></clipPath><clipPath id="f8c1806cb9"><rect x="0" width="94" y="0" height="55"/></clipPath><clipPath id="ea33255d38"><rect x="0" width="144" y="0" height="55"/></clipPath><clipPath id="cf4ab1b8d0"><rect x="0" width="163" y="0" height="22"/></clipPath></defs><g clip-path="url(#58b32e3ea4)"><g clip-path="url(#8e5cc348a4)"><g clip-path="url(#d2efee608e)"><path fill="#ffffff" d="M 95.882812 213.167969 L 90.621094 208.5 C 89.621094 207.613281 89.527344 206.082031 90.417969 205.082031 L 96.445312 198.285156 C 97.332031 197.28125 97.242188 195.753906 96.238281 194.863281 C 95.238281 193.976562 93.707031 194.066406 92.820312 195.070312 L 82.046875 207.214844 C 80.9375 208.464844 79.023438 208.582031 77.773438 207.472656 C 76.523438 206.363281 76.40625 204.449219 77.515625 203.199219 L 95.523438 182.898438 C 96.410156 181.894531 96.320312 180.367188 95.316406 179.476562 C 94.316406 178.585938 92.785156 178.679688 91.898438 179.679688 L 53.332031 223.164062 C 52.222656 224.417969 50.308594 224.53125 49.058594 223.421875 C 47.808594 222.3125 47.691406 220.398438 48.800781 219.148438 L 80.136719 183.820312 C 81.023438 182.816406 80.933594 181.289062 79.929688 180.398438 C 78.925781 179.507812 77.398438 179.601562 76.507812 180.605469 L 64.289062 194.378906 C 63.402344 195.382812 61.871094 195.472656 60.871094 194.585938 L 59.960938 193.78125 C 58.960938 192.890625 58.867188 191.363281 59.757812 190.359375 L 79.207031 168.429688 C 80.097656 167.425781 80.003906 165.894531 79.003906 165.007812 C 78 164.117188 76.472656 164.210938 75.582031 165.210938 L 29.757812 216.894531 C 28.648438 218.144531 26.734375 218.261719 25.484375 217.152344 C 24.234375 216.042969 24.117188 214.128906 25.226562 212.878906 L 63.824219 169.359375 C 64.714844 168.355469 64.621094 166.828125 63.621094 165.9375 C 62.617188 165.046875 61.089844 165.140625 60.199219 166.144531 L 54.175781 172.9375 C 53.289062 173.941406 51.757812 174.03125 50.753906 173.144531 L 45.496094 168.476562 C 44.148438 167.285156 44.53125 165.089844 46.199219 164.417969 L 116.085938 136.371094 C 117.941406 135.628906 119.84375 137.316406 119.328125 139.246094 L 99.832031 211.980469 C 99.363281 213.71875 97.230469 214.359375 95.882812 213.167969 Z M 55.945312 199.234375 C 54.695312 198.125 52.78125 198.238281 51.671875 199.488281 L 24.152344 230.519531 C 23.042969 231.769531 23.15625 233.683594 24.40625 234.792969 C 25.660156 235.902344 27.570312 235.785156 28.679688 234.535156 L 56.199219 203.507812 C 57.308594 202.253906 57.195312 200.34375 55.945312 199.234375 Z M 73.859375 211.882812 C 72.609375 210.773438 70.695312 210.886719 69.585938 212.140625 L 51.699219 232.308594 C 50.589844 233.5625 50.703125 235.472656 51.953125 236.582031 C 53.207031 237.691406 55.117188 237.578125 56.226562 236.328125 L 74.117188 216.15625 C 75.226562 214.90625 75.113281 212.992188 73.859375 211.882812 Z M 47.308594 225.277344 C 46.089844 224.199219 44.222656 224.308594 43.144531 225.527344 C 42.0625 226.75 42.171875 228.613281 43.394531 229.695312 C 44.613281 230.777344 46.476562 230.664062 47.558594 229.445312 C 48.640625 228.226562 48.527344 226.359375 47.308594 225.277344 Z M 47.308594 225.277344 " fill-opacity="1" fill-rule="nonzero"/></g></g></g><g transform="matrix(1, 0, 0, 1, 117, 158)"><g clip-path="url(#f8c1806cb9)"><g fill="#ffffff" fill-opacity="1"><g transform="translate(0.646842, 40.536508)"><g><path d="M 19.109375 -13.890625 L 19.109375 -8.953125 C 19.109375 -5.929688 18.375 -3.613281 16.90625 -2 C 15.4375 -0.382812 13.265625 0.421875 10.390625 0.421875 C 7.515625 0.421875 5.335938 -0.382812 3.859375 -2 C 2.390625 -3.613281 1.65625 -5.929688 1.65625 -8.953125 L 1.65625 -28.328125 C 1.65625 -31.347656 2.390625 -33.664062 3.859375 -35.28125 C 5.335938 -36.894531 7.515625 -37.703125 10.390625 -37.703125 C 13.265625 -37.703125 15.4375 -36.894531 16.90625 -35.28125 C 18.375 -33.664062 19.109375 -31.347656 19.109375 -28.328125 L 19.109375 -24.703125 L 13.578125 -24.703125 L 13.578125 -28.703125 C 13.578125 -30.046875 13.300781 -30.992188 12.75 -31.546875 C 12.195312 -32.097656 11.460938 -32.375 10.546875 -32.375 C 9.617188 -32.375 8.878906 -32.097656 8.328125 -31.546875 C 7.785156 -30.992188 7.515625 -30.046875 7.515625 -28.703125 L 7.515625 -8.578125 C 7.515625 -7.222656 7.785156 -6.28125 8.328125 -5.75 C 8.878906 -5.21875 9.617188 -4.953125 10.546875 -4.953125 C 11.460938 -4.953125 12.195312 -5.21875 12.75 -5.75 C 13.300781 -6.28125 13.578125 -7.222656 13.578125 -8.578125 L 13.578125 -13.890625 Z M 19.109375 -13.890625 "/></g></g></g><g fill="#ffffff" fill-opacity="1"><g transform="translate(21.199521, 40.536508)"><g><path d="M 2.125 -37.28125 L 7.984375 -37.28125 L 7.984375 -5.328125 L 17.625 -5.328125 L 17.625 0 L 2.125 0 Z M 2.125 -37.28125 "/></g></g></g><g fill="#ffffff" fill-opacity="1"><g transform="translate(39.356156, 40.536508)"><g><path d="M 2.125 -37.28125 L 7.984375 -37.28125 L 7.984375 0 L 2.125 0 Z M 2.125 -37.28125 "/></g></g></g><g fill="#ffffff" fill-opacity="1"><g transform="translate(49.47275, 40.536508)"><g><path d="M 19.109375 -13.890625 L 19.109375 -8.953125 C 19.109375 -5.929688 18.375 -3.613281 16.90625 -2 C 15.4375 -0.382812 13.265625 0.421875 10.390625 0.421875 C 7.515625 0.421875 5.335938 -0.382812 3.859375 -2 C 2.390625 -3.613281 1.65625 -5.929688 1.65625 -8.953125 L 1.65625 -28.328125 C 1.65625 -31.347656 2.390625 -33.664062 3.859375 -35.28125 C 5.335938 -36.894531 7.515625 -37.703125 10.390625 -37.703125 C 13.265625 -37.703125 15.4375 -36.894531 16.90625 -35.28125 C 18.375 -33.664062 19.109375 -31.347656 19.109375 -28.328125 L 19.109375 -24.703125 L 13.578125 -24.703125 L 13.578125 -28.703125 C 13.578125 -30.046875 13.300781 -30.992188 12.75 -31.546875 C 12.195312 -32.097656 11.460938 -32.375 10.546875 -32.375 C 9.617188 -32.375 8.878906 -32.097656 8.328125 -31.546875 C 7.785156 -30.992188 7.515625 -30.046875 7.515625 -28.703125 L 7.515625 -8.578125 C 7.515625 -7.222656 7.785156 -6.28125 8.328125 -5.75 C 8.878906 -5.21875 9.617188 -4.953125 10.546875 -4.953125 C 11.460938 -4.953125 12.195312 -5.21875 12.75 -5.75 C 13.300781 -6.28125 13.578125 -7.222656 13.578125 -8.578125 L 13.578125 -13.890625 Z M 19.109375 -13.890625 "/></g></g></g><g fill="#ffffff" fill-opacity="1"><g transform="translate(70.025428, 40.536508)"><g><path d="M 9.796875 -14.859375 L 7.984375 -11.453125 L 7.984375 0 L 2.125 0 L 2.125 -37.28125 L 7.984375 -37.28125 L 7.984375 -21.03125 L 15.765625 -37.28125 L 21.515625 -37.28125 L 13.359375 -20.65625 L 21.515625 0 L 15.5 0 Z M 9.796875 -14.859375 "/></g></g></g></g></g><g transform="matrix(1, 0, 0, 1, 208, 158)"><g clip-path="url(#ea33255d38)"><g fill="#ffffff" fill-opacity="1"><g transform="translate(0.614615, 40.536508)"><g><path d="M 19.109375 -13.890625 L 19.109375 -8.953125 C 19.109375 -5.929688 18.375 -3.613281 16.90625 -2 C 15.4375 -0.382812 13.265625 0.421875 10.390625 0.421875 C 7.515625 0.421875 5.335938 -0.382812 3.859375 -2 C 2.390625 -3.613281 1.65625 -5.929688 1.65625 -8.953125 L 1.65625 -28.328125 C 1.65625 -31.347656 2.390625 -33.664062 3.859375 -35.28125 C 5.335938 -36.894531 7.515625 -37.703125 10.390625 -37.703125 C 13.265625 -37.703125 15.4375 -36.894531 16.90625 -35.28125 C 18.375 -33.664062 19.109375 -31.347656 19.109375 -28.328125 L 19.109375 -24.703125 L 13.578125 -24.703125 L 13.578125 -28.703125 C 13.578125 -30.046875 13.300781 -30.992188 12.75 -31.546875 C 12.195312 -32.097656 11.460938 -32.375 10.546875 -32.375 C 9.617188 -32.375 8.878906 -32.097656 8.328125 -31.546875 C 7.785156 -30.992188 7.515625 -30.046875 7.515625 -28.703125 L 7.515625 -8.578125 C 7.515625 -7.222656 7.785156 -6.28125 8.328125 -5.75 C 8.878906 -5.21875 9.617188 -4.953125 10.546875 -4.953125 C 11.460938 -4.953125 12.195312 -5.21875 12.75 -5.75 C 13.300781 -6.28125 13.578125 -7.222656 13.578125 -8.578125 L 13.578125 -13.890625 Z M 19.109375 -13.890625 "/></g></g></g><g fill="#ffffff" fill-opacity="1"><g transform="translate(21.167293, 40.536508)"><g><path d="M 14.375 0 C 14.300781 -0.25 14.226562 -0.476562 14.15625 -0.6875 C 14.09375 -0.90625 14.03125 -1.171875 13.96875 -1.484375 C 13.914062 -1.804688 13.878906 -2.21875 13.859375 -2.71875 C 13.847656 -3.21875 13.84375 -3.835938 13.84375 -4.578125 L 13.84375 -10.4375 C 13.84375 -12.175781 13.539062 -13.398438 12.9375 -14.109375 C 12.332031 -14.816406 11.359375 -15.171875 10.015625 -15.171875 L 7.984375 -15.171875 L 7.984375 0 L 2.125 0 L 2.125 -37.28125 L 10.96875 -37.28125 C 14.019531 -37.28125 16.226562 -36.566406 17.59375 -35.140625 C 18.96875 -33.722656 19.65625 -31.578125 19.65625 -28.703125 L 19.65625 -25.765625 C 19.65625 -21.929688 18.375 -19.414062 15.8125 -18.21875 C 17.300781 -17.613281 18.320312 -16.625 18.875 -15.25 C 19.425781 -13.882812 19.703125 -12.226562 19.703125 -10.28125 L 19.703125 -4.53125 C 19.703125 -3.601562 19.738281 -2.789062 19.8125 -2.09375 C 19.882812 -1.40625 20.0625 -0.707031 20.34375 0 Z M 7.984375 -31.953125 L 7.984375 -20.5 L 10.28125 -20.5 C 11.375 -20.5 12.234375 -20.78125 12.859375 -21.34375 C 13.484375 -21.914062 13.796875 -22.945312 13.796875 -24.4375 L 13.796875 -28.109375 C 13.796875 -29.460938 13.554688 -30.441406 13.078125 -31.046875 C 12.597656 -31.648438 11.84375 -31.953125 10.8125 -31.953125 Z M 7.984375 -31.953125 "/></g></g></g><g fill="#ffffff" fill-opacity="1"><g transform="translate(42.571896, 40.536508)"><g><path d="M 21.09375 0 L 15.171875 0 L 14.171875 -6.765625 L 6.96875 -6.765625 L 5.96875 0 L 0.578125 0 L 6.546875 -37.28125 L 15.125 -37.28125 Z M 7.71875 -11.828125 L 13.359375 -11.828125 L 10.546875 -30.671875 Z M 7.71875 -11.828125 "/></g></g></g><g fill="#ffffff" fill-opacity="1"><g transform="translate(64.242723, 40.536508)"><g><path d="M 7.984375 -20.71875 L 15.546875 -20.71875 L 15.546875 -15.390625 L 7.984375 -15.390625 L 7.984375 0 L 2.125 0 L 2.125 -37.28125 L 17.625 -37.28125 L 17.625 -31.953125 L 7.984375 -31.953125 Z M 7.984375 -20.71875 "/></g></g></g><g fill="#ffffff" fill-opacity="1"><g transform="translate(82.559102, 40.536508)"><g><path d="M 0.53125 -37.28125 L 18.640625 -37.28125 L 18.640625 -31.953125 L 12.515625 -31.953125 L 12.515625 0 L 6.65625 0 L 6.65625 -31.953125 L 0.53125 -31.953125 Z M 0.53125 -37.28125 "/></g></g></g><g fill="#ffffff" fill-opacity="1"><g transform="translate(101.727405, 40.536508)"><g><path d="M 7.984375 -21.5625 L 16.03125 -21.5625 L 16.03125 -16.234375 L 7.984375 -16.234375 L 7.984375 -5.328125 L 18.109375 -5.328125 L 18.109375 0 L 2.125 0 L 2.125 -37.28125 L 18.109375 -37.28125 L 18.109375 -31.953125 L 7.984375 -31.953125 Z M 7.984375 -21.5625 "/></g></g></g><g fill="#ffffff" fill-opacity="1"><g transform="translate(121.321662, 40.536508)"><g><path d="M 2.125 -37.28125 L 11.390625 -37.28125 C 14.335938 -37.28125 16.53125 -36.5 17.96875 -34.9375 C 19.40625 -33.375 20.125 -31.082031 20.125 -28.0625 L 20.125 -9.21875 C 20.125 -6.195312 19.40625 -3.90625 17.96875 -2.34375 C 16.53125 -0.78125 14.335938 0 11.390625 0 L 2.125 0 Z M 7.984375 -31.953125 L 7.984375 -5.328125 L 11.28125 -5.328125 C 12.207031 -5.328125 12.9375 -5.59375 13.46875 -6.125 C 14 -6.65625 14.265625 -7.597656 14.265625 -8.953125 L 14.265625 -28.328125 C 14.265625 -29.679688 14 -30.625 13.46875 -31.15625 C 12.9375 -31.6875 12.207031 -31.953125 11.28125 -31.953125 Z M 7.984375 -31.953125 "/></g></g></g></g></g><g transform="matrix(1, 0, 0, 1, 120, 199)"><g clip-path="url(#cf4ab1b8d0)"><g fill="#ffffff" fill-opacity="1"><g transform="translate(0.800167, 17.055074)"><g><path d="M 6.90625 -12.75 C 7.03125 -12.75 7.09375 -12.691406 7.09375 -12.578125 L 7.09375 -11.8125 C 7.09375 -11.6875 7.03125 -11.625 6.90625 -11.625 L 4.5 -11.625 C 4.445312 -11.625 4.421875 -11.597656 4.421875 -11.546875 L 4.421875 -0.1875 C 4.421875 -0.0625 4.363281 0 4.25 0 L 3.3125 0 C 3.195312 0 3.140625 -0.0625 3.140625 -0.1875 L 3.140625 -11.546875 C 3.140625 -11.597656 3.113281 -11.625 3.0625 -11.625 L 0.796875 -11.625 C 0.679688 -11.625 0.625 -11.6875 0.625 -11.8125 L 0.625 -12.578125 C 0.625 -12.691406 0.679688 -12.75 0.796875 -12.75 Z M 6.90625 -12.75 "/></g></g></g><g fill="#ffffff" fill-opacity="1"><g transform="translate(8.504535, 17.055074)"><g><path d="M 5.3125 -9.03125 C 5.3125 -9.15625 5.375 -9.21875 5.5 -9.21875 L 6.4375 -9.21875 C 6.550781 -9.21875 6.609375 -9.15625 6.609375 -9.03125 L 6.609375 -0.1875 C 6.609375 -0.0625 6.550781 0 6.4375 0 L 5.5 0 C 5.375 0 5.3125 -0.0625 5.3125 -0.1875 L 5.3125 -0.796875 C 5.3125 -0.835938 5.300781 -0.859375 5.28125 -0.859375 C 5.269531 -0.859375 5.253906 -0.84375 5.234375 -0.8125 C 4.847656 -0.1875 4.238281 0.125 3.40625 0.125 C 2.675781 0.125 2.09375 -0.09375 1.65625 -0.53125 C 1.226562 -0.976562 1.015625 -1.648438 1.015625 -2.546875 L 1.015625 -9.03125 C 1.015625 -9.15625 1.078125 -9.21875 1.203125 -9.21875 L 2.125 -9.21875 C 2.25 -9.21875 2.3125 -9.15625 2.3125 -9.03125 L 2.3125 -2.84375 C 2.3125 -2.238281 2.4375 -1.78125 2.6875 -1.46875 C 2.9375 -1.15625 3.296875 -1 3.765625 -1 C 4.253906 -1 4.632812 -1.175781 4.90625 -1.53125 C 5.175781 -1.882812 5.3125 -2.363281 5.3125 -2.96875 Z M 5.3125 -9.03125 "/></g></g></g><g fill="#ffffff" fill-opacity="1"><g transform="translate(16.227106, 17.055074)"><g><path d="M 4.234375 -9.3125 C 4.535156 -9.3125 4.796875 -9.242188 5.015625 -9.109375 C 5.097656 -9.054688 5.125 -8.976562 5.09375 -8.875 L 4.875 -7.921875 C 4.863281 -7.816406 4.789062 -7.78125 4.65625 -7.8125 C 4.519531 -7.882812 4.34375 -7.921875 4.125 -7.921875 C 4.019531 -7.921875 3.945312 -7.914062 3.90625 -7.90625 C 3.46875 -7.882812 3.109375 -7.65625 2.828125 -7.21875 C 2.546875 -6.789062 2.40625 -6.265625 2.40625 -5.640625 L 2.40625 -0.1875 C 2.40625 -0.0625 2.34375 0 2.21875 0 L 1.296875 0 C 1.171875 0 1.109375 -0.0625 1.109375 -0.1875 L 1.109375 -9.03125 C 1.109375 -9.15625 1.171875 -9.21875 1.296875 -9.21875 L 2.21875 -9.21875 C 2.34375 -9.21875 2.40625 -9.15625 2.40625 -9.03125 L 2.40625 -7.9375 C 2.40625 -7.90625 2.410156 -7.890625 2.421875 -7.890625 C 2.441406 -7.890625 2.46875 -7.898438 2.5 -7.921875 C 2.851562 -8.847656 3.429688 -9.3125 4.234375 -9.3125 Z M 4.234375 -9.3125 "/></g></g></g><g fill="#ffffff" fill-opacity="1"><g transform="translate(21.545486, 17.055074)"><g><path d="M 4.390625 -9.34375 C 5.128906 -9.34375 5.703125 -9.085938 6.109375 -8.578125 C 6.515625 -8.066406 6.71875 -7.359375 6.71875 -6.453125 L 6.71875 -0.1875 C 6.71875 -0.0625 6.660156 0 6.546875 0 L 5.609375 0 C 5.484375 0 5.421875 -0.0625 5.421875 -0.1875 L 5.421875 -6.34375 C 5.421875 -6.9375 5.289062 -7.394531 5.03125 -7.71875 C 4.769531 -8.050781 4.410156 -8.21875 3.953125 -8.21875 C 3.460938 -8.21875 3.082031 -8.039062 2.8125 -7.6875 C 2.539062 -7.332031 2.40625 -6.851562 2.40625 -6.25 L 2.40625 -0.1875 C 2.40625 -0.0625 2.34375 0 2.21875 0 L 1.296875 0 C 1.171875 0 1.109375 -0.0625 1.109375 -0.1875 L 1.109375 -9.03125 C 1.109375 -9.15625 1.171875 -9.21875 1.296875 -9.21875 L 2.21875 -9.21875 C 2.34375 -9.21875 2.40625 -9.15625 2.40625 -9.03125 L 2.40625 -8.453125 C 2.40625 -8.429688 2.414062 -8.410156 2.4375 -8.390625 C 2.46875 -8.378906 2.488281 -8.394531 2.5 -8.4375 C 2.71875 -8.738281 2.992188 -8.960938 3.328125 -9.109375 C 3.660156 -9.265625 4.015625 -9.34375 4.390625 -9.34375 Z M 4.390625 -9.34375 "/></g></g></g><g fill="#ffffff" fill-opacity="1"><g transform="translate(29.268057, 17.055074)"><g><path d="M 1.890625 -10.890625 C 1.585938 -10.890625 1.34375 -10.988281 1.15625 -11.1875 C 0.96875 -11.382812 0.875 -11.628906 0.875 -11.921875 C 0.875 -12.222656 0.96875 -12.46875 1.15625 -12.65625 C 1.34375 -12.84375 1.585938 -12.9375 1.890625 -12.9375 C 2.179688 -12.9375 2.421875 -12.84375 2.609375 -12.65625 C 2.796875 -12.46875 2.890625 -12.222656 2.890625 -11.921875 C 2.890625 -11.628906 2.796875 -11.382812 2.609375 -11.1875 C 2.421875 -10.988281 2.179688 -10.890625 1.890625 -10.890625 Z M 1.4375 0 C 1.3125 0 1.25 -0.0625 1.25 -0.1875 L 1.25 -9.03125 C 1.25 -9.15625 1.3125 -9.21875 1.4375 -9.21875 L 2.375 -9.21875 C 2.488281 -9.21875 2.546875 -9.15625 2.546875 -9.03125 L 2.546875 -0.1875 C 2.546875 -0.0625 2.488281 0 2.375 0 Z M 1.4375 0 "/></g></g></g><g fill="#ffffff" fill-opacity="1"><g transform="translate(33.056495, 17.055074)"><g><path d="M 4.390625 -9.34375 C 5.128906 -9.34375 5.703125 -9.085938 6.109375 -8.578125 C 6.515625 -8.066406 6.71875 -7.359375 6.71875 -6.453125 L 6.71875 -0.1875 C 6.71875 -0.0625 6.660156 0 6.546875 0 L 5.609375 0 C 5.484375 0 5.421875 -0.0625 5.421875 -0.1875 L 5.421875 -6.34375 C 5.421875 -6.9375 5.289062 -7.394531 5.03125 -7.71875 C 4.769531 -8.050781 4.410156 -8.21875 3.953125 -8.21875 C 3.460938 -8.21875 3.082031 -8.039062 2.8125 -7.6875 C 2.539062 -7.332031 2.40625 -6.851562 2.40625 -6.25 L 2.40625 -0.1875 C 2.40625 -0.0625 2.34375 0 2.21875 0 L 1.296875 0 C 1.171875 0 1.109375 -0.0625 1.109375 -0.1875 L 1.109375 -9.03125 C 1.109375 -9.15625 1.171875 -9.21875 1.296875 -9.21875 L 2.21875 -9.21875 C 2.34375 -9.21875 2.40625 -9.15625 2.40625 -9.03125 L 2.40625 -8.453125 C 2.40625 -8.429688 2.414062 -8.410156 2.4375 -8.390625 C 2.46875 -8.378906 2.488281 -8.394531 2.5 -8.4375 C 2.71875 -8.738281 2.992188 -8.960938 3.328125 -9.109375 C 3.660156 -9.265625 4.015625 -9.34375 4.390625 -9.34375 Z M 4.390625 -9.34375 "/></g></g></g><g fill="#ffffff" fill-opacity="1"><g transform="translate(40.779066, 17.055074)"><g><path d="M 5.296875 -9.03125 C 5.296875 -9.15625 5.359375 -9.21875 5.484375 -9.21875 L 6.40625 -9.21875 C 6.53125 -9.21875 6.59375 -9.15625 6.59375 -9.03125 L 6.59375 -0.1875 C 6.59375 1.113281 6.289062 2.101562 5.6875 2.78125 C 5.09375 3.457031 4.085938 3.765625 2.671875 3.703125 C 2.554688 3.691406 2.5 3.625 2.5 3.5 L 2.5 2.71875 C 2.5 2.59375 2.554688 2.53125 2.671875 2.53125 C 3.648438 2.550781 4.332031 2.328125 4.71875 1.859375 C 5.101562 1.398438 5.296875 0.679688 5.296875 -0.296875 L 5.296875 -0.84375 C 5.296875 -0.863281 5.285156 -0.878906 5.265625 -0.890625 C 5.253906 -0.898438 5.234375 -0.894531 5.203125 -0.875 C 5.003906 -0.570312 4.742188 -0.34375 4.421875 -0.1875 C 4.097656 -0.03125 3.753906 0.046875 3.390625 0.046875 C 2.617188 0.046875 2.007812 -0.203125 1.5625 -0.703125 C 1.125 -1.210938 0.90625 -1.890625 0.90625 -2.734375 L 0.90625 -6.578125 C 0.90625 -7.429688 1.125 -8.109375 1.5625 -8.609375 C 2.007812 -9.109375 2.617188 -9.359375 3.390625 -9.359375 C 3.753906 -9.359375 4.097656 -9.28125 4.421875 -9.125 C 4.742188 -8.976562 5.003906 -8.753906 5.203125 -8.453125 C 5.234375 -8.421875 5.253906 -8.40625 5.265625 -8.40625 C 5.285156 -8.414062 5.296875 -8.4375 5.296875 -8.46875 Z M 3.765625 -1.078125 C 4.222656 -1.078125 4.59375 -1.238281 4.875 -1.5625 C 5.15625 -1.882812 5.296875 -2.300781 5.296875 -2.8125 L 5.296875 -6.484375 C 5.296875 -7.003906 5.15625 -7.425781 4.875 -7.75 C 4.59375 -8.070312 4.222656 -8.234375 3.765625 -8.234375 C 3.304688 -8.234375 2.929688 -8.070312 2.640625 -7.75 C 2.347656 -7.425781 2.203125 -7.003906 2.203125 -6.484375 L 2.203125 -2.8125 C 2.203125 -2.300781 2.347656 -1.882812 2.640625 -1.5625 C 2.929688 -1.238281 3.304688 -1.078125 3.765625 -1.078125 Z M 3.765625 -1.078125 "/></g></g></g><g fill="#ffffff" fill-opacity="1"><g transform="translate(48.301299, 17.055074)"><g/></g></g><g fill="#ffffff" fill-opacity="1"><g transform="translate(51.944026, 17.055074)"><g><path d="M 4.09375 0.140625 C 3.164062 0.140625 2.414062 -0.140625 1.84375 -0.703125 C 1.28125 -1.273438 1 -2.039062 1 -3 L 1 -9.765625 C 1 -10.710938 1.28125 -11.472656 1.84375 -12.046875 C 2.414062 -12.617188 3.164062 -12.90625 4.09375 -12.90625 C 5.039062 -12.90625 5.796875 -12.617188 6.359375 -12.046875 C 6.929688 -11.484375 7.21875 -10.722656 7.21875 -9.765625 L 7.21875 -9.453125 C 7.21875 -9.328125 7.15625 -9.265625 7.03125 -9.265625 L 6.078125 -9.21875 C 5.960938 -9.21875 5.90625 -9.28125 5.90625 -9.40625 L 5.90625 -9.859375 C 5.90625 -10.429688 5.738281 -10.890625 5.40625 -11.234375 C 5.082031 -11.585938 4.644531 -11.765625 4.09375 -11.765625 C 3.5625 -11.765625 3.128906 -11.585938 2.796875 -11.234375 C 2.460938 -10.890625 2.296875 -10.429688 2.296875 -9.859375 L 2.296875 -2.890625 C 2.296875 -2.328125 2.460938 -1.867188 2.796875 -1.515625 C 3.128906 -1.160156 3.5625 -0.984375 4.09375 -0.984375 C 4.644531 -0.984375 5.082031 -1.160156 5.40625 -1.515625 C 5.738281 -1.867188 5.90625 -2.328125 5.90625 -2.890625 L 5.90625 -3.359375 C 5.90625 -3.472656 5.960938 -3.53125 6.078125 -3.53125 L 7.03125 -3.484375 C 7.15625 -3.484375 7.21875 -3.421875 7.21875 -3.296875 L 7.21875 -3 C 7.21875 -2.039062 6.929688 -1.273438 6.359375 -0.703125 C 5.785156 -0.140625 5.03125 0.140625 4.09375 0.140625 Z M 4.09375 0.140625 "/></g></g></g><g fill="#ffffff" fill-opacity="1"><g transform="translate(60.067307, 17.055074)"><g><path d="M 1.1875 0 C 1.0625 0 1 -0.0625 1 -0.1875 L 1 -12.578125 C 1 -12.691406 1.0625 -12.75 1.1875 -12.75 L 2.109375 -12.75 C 2.234375 -12.75 2.296875 -12.691406 2.296875 -12.578125 L 2.296875 -0.1875 C 2.296875 -0.0625 2.234375 0 2.109375 0 Z M 1.1875 0 "/></g></g></g><g fill="#ffffff" fill-opacity="1"><g transform="translate(63.363968, 17.055074)"><g><path d="M 1.890625 -10.890625 C 1.585938 -10.890625 1.34375 -10.988281 1.15625 -11.1875 C 0.96875 -11.382812 0.875 -11.628906 0.875 -11.921875 C 0.875 -12.222656 0.96875 -12.46875 1.15625 -12.65625 C 1.34375 -12.84375 1.585938 -12.9375 1.890625 -12.9375 C 2.179688 -12.9375 2.421875 -12.84375 2.609375 -12.65625 C 2.796875 -12.46875 2.890625 -12.222656 2.890625 -11.921875 C 2.890625 -11.628906 2.796875 -11.382812 2.609375 -11.1875 C 2.421875 -10.988281 2.179688 -10.890625 1.890625 -10.890625 Z M 1.4375 0 C 1.3125 0 1.25 -0.0625 1.25 -0.1875 L 1.25 -9.03125 C 1.25 -9.15625 1.3125 -9.21875 1.4375 -9.21875 L 2.375 -9.21875 C 2.488281 -9.21875 2.546875 -9.15625 2.546875 -9.03125 L 2.546875 -0.1875 C 2.546875 -0.0625 2.488281 0 2.375 0 Z M 1.4375 0 "/></g></g></g><g fill="#ffffff" fill-opacity="1"><g transform="translate(67.152406, 17.055074)"><g><path d="M 3.75 0.140625 C 2.882812 0.140625 2.191406 -0.113281 1.671875 -0.625 C 1.160156 -1.132812 0.90625 -1.804688 0.90625 -2.640625 L 0.90625 -6.578125 C 0.90625 -7.398438 1.164062 -8.066406 1.6875 -8.578125 C 2.21875 -9.097656 2.90625 -9.359375 3.75 -9.359375 C 4.320312 -9.359375 4.828125 -9.242188 5.265625 -9.015625 C 5.703125 -8.785156 6.035156 -8.476562 6.265625 -8.09375 C 6.503906 -7.71875 6.625 -7.296875 6.625 -6.828125 L 6.625 -6.65625 C 6.625 -6.53125 6.566406 -6.46875 6.453125 -6.46875 L 5.515625 -6.4375 C 5.398438 -6.4375 5.34375 -6.492188 5.34375 -6.609375 L 5.34375 -6.734375 C 5.34375 -7.140625 5.191406 -7.488281 4.890625 -7.78125 C 4.597656 -8.082031 4.21875 -8.234375 3.75 -8.234375 C 3.289062 -8.234375 2.914062 -8.070312 2.625 -7.75 C 2.34375 -7.425781 2.203125 -7.003906 2.203125 -6.484375 L 2.203125 -2.734375 C 2.203125 -2.210938 2.34375 -1.789062 2.625 -1.46875 C 2.914062 -1.144531 3.289062 -0.984375 3.75 -0.984375 C 4.21875 -0.984375 4.597656 -1.128906 4.890625 -1.421875 C 5.191406 -1.722656 5.34375 -2.078125 5.34375 -2.484375 L 5.34375 -2.609375 C 5.34375 -2.722656 5.398438 -2.78125 5.515625 -2.78125 L 6.453125 -2.765625 C 6.566406 -2.765625 6.625 -2.707031 6.625 -2.59375 L 6.625 -2.390625 C 6.625 -1.660156 6.359375 -1.054688 5.828125 -0.578125 C 5.304688 -0.0976562 4.613281 0.140625 3.75 0.140625 Z M 3.75 0.140625 "/></g></g></g><g fill="#ffffff" fill-opacity="1"><g transform="translate(74.474284, 17.055074)"><g><path d="M 1.296875 0 C 1.171875 0 1.109375 -0.0625 1.109375 -0.1875 L 1.109375 -12.578125 C 1.109375 -12.691406 1.171875 -12.75 1.296875 -12.75 L 2.21875 -12.75 C 2.34375 -12.75 2.40625 -12.691406 2.40625 -12.578125 L 2.40625 -5.25 C 2.40625 -5.21875 2.414062 -5.195312 2.4375 -5.1875 C 2.46875 -5.175781 2.488281 -5.179688 2.5 -5.203125 L 5.234375 -9.109375 C 5.273438 -9.179688 5.347656 -9.21875 5.453125 -9.21875 L 6.390625 -9.21875 C 6.460938 -9.21875 6.507812 -9.195312 6.53125 -9.15625 C 6.5625 -9.113281 6.550781 -9.0625 6.5 -9 L 4.703125 -6.40625 C 4.660156 -6.375 4.65625 -6.335938 4.6875 -6.296875 L 6.828125 -0.203125 L 6.84375 -0.125 C 6.84375 -0.0390625 6.789062 0 6.6875 0 L 5.71875 0 C 5.613281 0 5.539062 -0.046875 5.5 -0.140625 L 3.875 -5.203125 C 3.863281 -5.273438 3.828125 -5.285156 3.765625 -5.234375 L 2.4375 -3.328125 C 2.414062 -3.304688 2.40625 -3.28125 2.40625 -3.25 L 2.40625 -0.1875 C 2.40625 -0.0625 2.34375 0 2.21875 0 Z M 1.296875 0 "/></g></g></g><g fill="#ffffff" fill-opacity="1"><g transform="translate(81.850806, 17.055074)"><g><path d="M 3.515625 0.09375 C 2.679688 0.09375 2.007812 -0.117188 1.5 -0.546875 C 1 -0.984375 0.75 -1.5625 0.75 -2.28125 L 0.75 -2.40625 C 0.75 -2.53125 0.804688 -2.59375 0.921875 -2.59375 L 1.796875 -2.59375 C 1.921875 -2.59375 1.984375 -2.53125 1.984375 -2.40625 L 1.984375 -2.296875 C 1.984375 -1.910156 2.125 -1.582031 2.40625 -1.3125 C 2.695312 -1.039062 3.070312 -0.90625 3.53125 -0.90625 C 3.96875 -0.90625 4.316406 -1.039062 4.578125 -1.3125 C 4.847656 -1.582031 4.984375 -1.921875 4.984375 -2.328125 C 4.984375 -2.648438 4.898438 -2.914062 4.734375 -3.125 C 4.566406 -3.332031 4.367188 -3.5 4.140625 -3.625 C 3.921875 -3.75 3.585938 -3.90625 3.140625 -4.09375 C 2.660156 -4.289062 2.265625 -4.484375 1.953125 -4.671875 C 1.648438 -4.859375 1.382812 -5.125 1.15625 -5.46875 C 0.925781 -5.820312 0.8125 -6.265625 0.8125 -6.796875 C 0.8125 -7.578125 1.050781 -8.191406 1.53125 -8.640625 C 2.019531 -9.085938 2.671875 -9.3125 3.484375 -9.3125 C 4.304688 -9.3125 4.957031 -9.078125 5.4375 -8.609375 C 5.925781 -8.148438 6.171875 -7.539062 6.171875 -6.78125 L 6.171875 -6.71875 C 6.171875 -6.601562 6.113281 -6.546875 6 -6.546875 L 5.15625 -6.546875 C 5.03125 -6.546875 4.96875 -6.601562 4.96875 -6.71875 L 4.96875 -6.828125 C 4.96875 -7.242188 4.832031 -7.582031 4.5625 -7.84375 C 4.289062 -8.113281 3.9375 -8.25 3.5 -8.25 C 3.0625 -8.25 2.710938 -8.113281 2.453125 -7.84375 C 2.191406 -7.570312 2.0625 -7.234375 2.0625 -6.828125 C 2.0625 -6.535156 2.140625 -6.289062 2.296875 -6.09375 C 2.453125 -5.894531 2.644531 -5.726562 2.875 -5.59375 C 3.101562 -5.46875 3.425781 -5.316406 3.84375 -5.140625 C 4.34375 -4.921875 4.753906 -4.710938 5.078125 -4.515625 C 5.398438 -4.328125 5.679688 -4.054688 5.921875 -3.703125 C 6.160156 -3.347656 6.28125 -2.910156 6.28125 -2.390625 C 6.28125 -1.628906 6.03125 -1.023438 5.53125 -0.578125 C 5.039062 -0.128906 4.367188 0.09375 3.515625 0.09375 Z M 3.515625 0.09375 "/></g></g></g><g fill="#ffffff" fill-opacity="1"><g transform="translate(88.662703, 17.055074)"><g/></g></g><g fill="#ffffff" fill-opacity="1"><g transform="translate(92.30543, 17.055074)"><g><path d="M 1.5 0 C 1.375 0 1.3125 -0.0625 1.3125 -0.1875 L 1.3125 -12.578125 C 1.3125 -12.691406 1.375 -12.75 1.5 -12.75 L 2.421875 -12.75 C 2.546875 -12.75 2.609375 -12.691406 2.609375 -12.578125 L 2.609375 -0.1875 C 2.609375 -0.0625 2.546875 0 2.421875 0 Z M 1.5 0 "/></g></g></g><g fill="#ffffff" fill-opacity="1"><g transform="translate(96.22136, 17.055074)"><g><path d="M 4.390625 -9.34375 C 5.128906 -9.34375 5.703125 -9.085938 6.109375 -8.578125 C 6.515625 -8.066406 6.71875 -7.359375 6.71875 -6.453125 L 6.71875 -0.1875 C 6.71875 -0.0625 6.660156 0 6.546875 0 L 5.609375 0 C 5.484375 0 5.421875 -0.0625 5.421875 -0.1875 L 5.421875 -6.34375 C 5.421875 -6.9375 5.289062 -7.394531 5.03125 -7.71875 C 4.769531 -8.050781 4.410156 -8.21875 3.953125 -8.21875 C 3.460938 -8.21875 3.082031 -8.039062 2.8125 -7.6875 C 2.539062 -7.332031 2.40625 -6.851562 2.40625 -6.25 L 2.40625 -0.1875 C 2.40625 -0.0625 2.34375 0 2.21875 0 L 1.296875 0 C 1.171875 0 1.109375 -0.0625 1.109375 -0.1875 L 1.109375 -9.03125 C 1.109375 -9.15625 1.171875 -9.21875 1.296875 -9.21875 L 2.21875 -9.21875 C 2.34375 -9.21875 2.40625 -9.15625 2.40625 -9.03125 L 2.40625 -8.453125 C 2.40625 -8.429688 2.414062 -8.410156 2.4375 -8.390625 C 2.46875 -8.378906 2.488281 -8.394531 2.5 -8.4375 C 2.71875 -8.738281 2.992188 -8.960938 3.328125 -9.109375 C 3.660156 -9.265625 4.015625 -9.34375 4.390625 -9.34375 Z M 4.390625 -9.34375 "/></g></g></g><g fill="#ffffff" fill-opacity="1"><g transform="translate(103.943931, 17.055074)"><g><path d="M 4.359375 -8.4375 C 4.359375 -8.3125 4.296875 -8.25 4.171875 -8.25 L 2.78125 -8.25 C 2.738281 -8.25 2.71875 -8.226562 2.71875 -8.1875 L 2.71875 -2.609375 C 2.71875 -2.046875 2.8125 -1.65625 3 -1.4375 C 3.195312 -1.226562 3.5 -1.128906 3.90625 -1.140625 L 4.078125 -1.140625 C 4.203125 -1.140625 4.265625 -1.082031 4.265625 -0.96875 L 4.265625 -0.1875 C 4.265625 -0.0625 4.203125 0 4.078125 0 L 3.625 0 C 2.90625 0 2.359375 -0.148438 1.984375 -0.453125 C 1.617188 -0.765625 1.4375 -1.351562 1.4375 -2.21875 L 1.4375 -8.1875 C 1.4375 -8.226562 1.410156 -8.25 1.359375 -8.25 L 0.65625 -8.25 C 0.53125 -8.25 0.46875 -8.3125 0.46875 -8.4375 L 0.46875 -9.03125 C 0.46875 -9.15625 0.53125 -9.21875 0.65625 -9.21875 L 1.359375 -9.21875 C 1.410156 -9.21875 1.4375 -9.242188 1.4375 -9.296875 L 1.4375 -11.328125 C 1.4375 -11.453125 1.5 -11.515625 1.625 -11.515625 L 2.53125 -11.515625 C 2.65625 -11.515625 2.71875 -11.453125 2.71875 -11.328125 L 2.71875 -9.296875 C 2.71875 -9.242188 2.738281 -9.21875 2.78125 -9.21875 L 4.171875 -9.21875 C 4.296875 -9.21875 4.359375 -9.15625 4.359375 -9.03125 Z M 4.359375 -8.4375 "/></g></g></g><g fill="#ffffff" fill-opacity="1"><g transform="translate(108.806974, 17.055074)"><g><path d="M 3.765625 0.140625 C 2.890625 0.140625 2.191406 -0.113281 1.671875 -0.625 C 1.160156 -1.132812 0.90625 -1.804688 0.90625 -2.640625 L 0.90625 -6.5625 C 0.90625 -7.382812 1.164062 -8.054688 1.6875 -8.578125 C 2.21875 -9.097656 2.910156 -9.359375 3.765625 -9.359375 C 4.640625 -9.359375 5.335938 -9.097656 5.859375 -8.578125 C 6.390625 -8.054688 6.65625 -7.382812 6.65625 -6.5625 L 6.65625 -2.640625 C 6.65625 -1.804688 6.390625 -1.132812 5.859375 -0.625 C 5.335938 -0.113281 4.640625 0.140625 3.765625 0.140625 Z M 3.765625 -1 C 4.234375 -1 4.613281 -1.15625 4.90625 -1.46875 C 5.207031 -1.789062 5.359375 -2.210938 5.359375 -2.734375 L 5.359375 -6.484375 C 5.359375 -7.003906 5.207031 -7.425781 4.90625 -7.75 C 4.613281 -8.070312 4.234375 -8.234375 3.765625 -8.234375 C 3.304688 -8.234375 2.929688 -8.070312 2.640625 -7.75 C 2.347656 -7.425781 2.203125 -7.003906 2.203125 -6.484375 L 2.203125 -2.734375 C 2.203125 -2.210938 2.347656 -1.789062 2.640625 -1.46875 C 2.929688 -1.15625 3.304688 -1 3.765625 -1 Z M 3.765625 -1 "/></g></g></g><g fill="#ffffff" fill-opacity="1"><g transform="translate(116.36563, 17.055074)"><g/></g></g><g fill="#ffffff" fill-opacity="1"><g transform="translate(120.008357, 17.055074)"><g><path d="M 4.09375 0.140625 C 3.164062 0.140625 2.414062 -0.140625 1.84375 -0.703125 C 1.28125 -1.273438 1 -2.039062 1 -3 L 1 -9.765625 C 1 -10.710938 1.28125 -11.472656 1.84375 -12.046875 C 2.414062 -12.617188 3.164062 -12.90625 4.09375 -12.90625 C 5.039062 -12.90625 5.796875 -12.617188 6.359375 -12.046875 C 6.929688 -11.484375 7.21875 -10.722656 7.21875 -9.765625 L 7.21875 -9.453125 C 7.21875 -9.328125 7.15625 -9.265625 7.03125 -9.265625 L 6.078125 -9.21875 C 5.960938 -9.21875 5.90625 -9.28125 5.90625 -9.40625 L 5.90625 -9.859375 C 5.90625 -10.429688 5.738281 -10.890625 5.40625 -11.234375 C 5.082031 -11.585938 4.644531 -11.765625 4.09375 -11.765625 C 3.5625 -11.765625 3.128906 -11.585938 2.796875 -11.234375 C 2.460938 -10.890625 2.296875 -10.429688 2.296875 -9.859375 L 2.296875 -2.890625 C 2.296875 -2.328125 2.460938 -1.867188 2.796875 -1.515625 C 3.128906 -1.160156 3.5625 -0.984375 4.09375 -0.984375 C 4.644531 -0.984375 5.082031 -1.160156 5.40625 -1.515625 C 5.738281 -1.867188 5.90625 -2.328125 5.90625 -2.890625 L 5.90625 -3.359375 C 5.90625 -3.472656 5.960938 -3.53125 6.078125 -3.53125 L 7.03125 -3.484375 C 7.15625 -3.484375 7.21875 -3.421875 7.21875 -3.296875 L 7.21875 -3 C 7.21875 -2.039062 6.929688 -1.273438 6.359375 -0.703125 C 5.785156 -0.140625 5.03125 0.140625 4.09375 0.140625 Z M 4.09375 0.140625 "/></g></g></g><g fill="#ffffff" fill-opacity="1"><g transform="translate(128.131638, 17.055074)"><g><path d="M 1.1875 0 C 1.0625 0 1 -0.0625 1 -0.1875 L 1 -12.578125 C 1 -12.691406 1.0625 -12.75 1.1875 -12.75 L 2.109375 -12.75 C 2.234375 -12.75 2.296875 -12.691406 2.296875 -12.578125 L 2.296875 -0.1875 C 2.296875 -0.0625 2.234375 0 2.109375 0 Z M 1.1875 0 "/></g></g></g><g fill="#ffffff" fill-opacity="1"><g transform="translate(131.428299, 17.055074)"><g><path d="M 1.890625 -10.890625 C 1.585938 -10.890625 1.34375 -10.988281 1.15625 -11.1875 C 0.96875 -11.382812 0.875 -11.628906 0.875 -11.921875 C 0.875 -12.222656 0.96875 -12.46875 1.15625 -12.65625 C 1.34375 -12.84375 1.585938 -12.9375 1.890625 -12.9375 C 2.179688 -12.9375 2.421875 -12.84375 2.609375 -12.65625 C 2.796875 -12.46875 2.890625 -12.222656 2.890625 -11.921875 C 2.890625 -11.628906 2.796875 -11.382812 2.609375 -11.1875 C 2.421875 -10.988281 2.179688 -10.890625 1.890625 -10.890625 Z M 1.4375 0 C 1.3125 0 1.25 -0.0625 1.25 -0.1875 L 1.25 -9.03125 C 1.25 -9.15625 1.3125 -9.21875 1.4375 -9.21875 L 2.375 -9.21875 C 2.488281 -9.21875 2.546875 -9.15625 2.546875 -9.03125 L 2.546875 -0.1875 C 2.546875 -0.0625 2.488281 0 2.375 0 Z M 1.4375 0 "/></g></g></g><g fill="#ffffff" fill-opacity="1"><g transform="translate(135.216737, 17.055074)"><g><path d="M 6.609375 -4.296875 C 6.609375 -4.179688 6.550781 -4.125 6.4375 -4.125 L 2.28125 -4.125 C 2.226562 -4.125 2.203125 -4.097656 2.203125 -4.046875 L 2.203125 -2.71875 C 2.203125 -2.207031 2.34375 -1.789062 2.625 -1.46875 C 2.914062 -1.144531 3.289062 -0.984375 3.75 -0.984375 C 4.144531 -0.984375 4.476562 -1.097656 4.75 -1.328125 C 5.019531 -1.566406 5.195312 -1.878906 5.28125 -2.265625 C 5.320312 -2.367188 5.390625 -2.421875 5.484375 -2.421875 L 6.390625 -2.390625 C 6.441406 -2.390625 6.484375 -2.367188 6.515625 -2.328125 C 6.554688 -2.296875 6.570312 -2.25 6.5625 -2.1875 C 6.457031 -1.46875 6.160156 -0.898438 5.671875 -0.484375 C 5.179688 -0.0664062 4.539062 0.140625 3.75 0.140625 C 2.882812 0.140625 2.191406 -0.113281 1.671875 -0.625 C 1.160156 -1.132812 0.90625 -1.804688 0.90625 -2.640625 L 0.90625 -6.578125 C 0.90625 -7.398438 1.160156 -8.066406 1.671875 -8.578125 C 2.191406 -9.097656 2.882812 -9.359375 3.75 -9.359375 C 4.625 -9.359375 5.316406 -9.097656 5.828125 -8.578125 C 6.347656 -8.066406 6.609375 -7.398438 6.609375 -6.578125 Z M 3.75 -8.234375 C 3.289062 -8.234375 2.914062 -8.070312 2.625 -7.75 C 2.34375 -7.425781 2.203125 -7.003906 2.203125 -6.484375 L 2.203125 -5.265625 C 2.203125 -5.210938 2.226562 -5.1875 2.28125 -5.1875 L 5.265625 -5.1875 C 5.316406 -5.1875 5.34375 -5.210938 5.34375 -5.265625 L 5.34375 -6.484375 C 5.34375 -7.003906 5.195312 -7.425781 4.90625 -7.75 C 4.613281 -8.070312 4.226562 -8.234375 3.75 -8.234375 Z M 3.75 -8.234375 "/></g></g></g><g fill="#ffffff" fill-opacity="1"><g transform="translate(142.629683, 17.055074)"><g><path d="M 4.390625 -9.34375 C 5.128906 -9.34375 5.703125 -9.085938 6.109375 -8.578125 C 6.515625 -8.066406 6.71875 -7.359375 6.71875 -6.453125 L 6.71875 -0.1875 C 6.71875 -0.0625 6.660156 0 6.546875 0 L 5.609375 0 C 5.484375 0 5.421875 -0.0625 5.421875 -0.1875 L 5.421875 -6.34375 C 5.421875 -6.9375 5.289062 -7.394531 5.03125 -7.71875 C 4.769531 -8.050781 4.410156 -8.21875 3.953125 -8.21875 C 3.460938 -8.21875 3.082031 -8.039062 2.8125 -7.6875 C 2.539062 -7.332031 2.40625 -6.851562 2.40625 -6.25 L 2.40625 -0.1875 C 2.40625 -0.0625 2.34375 0 2.21875 0 L 1.296875 0 C 1.171875 0 1.109375 -0.0625 1.109375 -0.1875 L 1.109375 -9.03125 C 1.109375 -9.15625 1.171875 -9.21875 1.296875 -9.21875 L 2.21875 -9.21875 C 2.34375 -9.21875 2.40625 -9.15625 2.40625 -9.03125 L 2.40625 -8.453125 C 2.40625 -8.429688 2.414062 -8.410156 2.4375 -8.390625 C 2.46875 -8.378906 2.488281 -8.394531 2.5 -8.4375 C 2.71875 -8.738281 2.992188 -8.960938 3.328125 -9.109375 C 3.660156 -9.265625 4.015625 -9.34375 4.390625 -9.34375 Z M 4.390625 -9.34375 "/></g></g></g><g fill="#ffffff" fill-opacity="1"><g transform="translate(150.352254, 17.055074)"><g><path d="M 4.359375 -8.4375 C 4.359375 -8.3125 4.296875 -8.25 4.171875 -8.25 L 2.78125 -8.25 C 2.738281 -8.25 2.71875 -8.226562 2.71875 -8.1875 L 2.71875 -2.609375 C 2.71875 -2.046875 2.8125 -1.65625 3 -1.4375 C 3.195312 -1.226562 3.5 -1.128906 3.90625 -1.140625 L 4.078125 -1.140625 C 4.203125 -1.140625 4.265625 -1.082031 4.265625 -0.96875 L 4.265625 -0.1875 C 4.265625 -0.0625 4.203125 0 4.078125 0 L 3.625 0 C 2.90625 0 2.359375 -0.148438 1.984375 -0.453125 C 1.617188 -0.765625 1.4375 -1.351562 1.4375 -2.21875 L 1.4375 -8.1875 C 1.4375 -8.226562 1.410156 -8.25 1.359375 -8.25 L 0.65625 -8.25 C 0.53125 -8.25 0.46875 -8.3125 0.46875 -8.4375 L 0.46875 -9.03125 C 0.46875 -9.15625 0.53125 -9.21875 0.65625 -9.21875 L 1.359375 -9.21875 C 1.410156 -9.21875 1.4375 -9.242188 1.4375 -9.296875 L 1.4375 -11.328125 C 1.4375 -11.453125 1.5 -11.515625 1.625 -11.515625 L 2.53125 -11.515625 C 2.65625 -11.515625 2.71875 -11.453125 2.71875 -11.328125 L 2.71875 -9.296875 C 2.71875 -9.242188 2.738281 -9.21875 2.78125 -9.21875 L 4.171875 -9.21875 C 4.296875 -9.21875 4.359375 -9.15625 4.359375 -9.03125 Z M 4.359375 -8.4375 "/></g></g></g><g fill="#ffffff" fill-opacity="1"><g transform="translate(155.215297, 17.055074)"><g><path d="M 3.515625 0.09375 C 2.679688 0.09375 2.007812 -0.117188 1.5 -0.546875 C 1 -0.984375 0.75 -1.5625 0.75 -2.28125 L 0.75 -2.40625 C 0.75 -2.53125 0.804688 -2.59375 0.921875 -2.59375 L 1.796875 -2.59375 C 1.921875 -2.59375 1.984375 -2.53125 1.984375 -2.40625 L 1.984375 -2.296875 C 1.984375 -1.910156 2.125 -1.582031 2.40625 -1.3125 C 2.695312 -1.039062 3.070312 -0.90625 3.53125 -0.90625 C 3.96875 -0.90625 4.316406 -1.039062 4.578125 -1.3125 C 4.847656 -1.582031 4.984375 -1.921875 4.984375 -2.328125 C 4.984375 -2.648438 4.898438 -2.914062 4.734375 -3.125 C 4.566406 -3.332031 4.367188 -3.5 4.140625 -3.625 C 3.921875 -3.75 3.585938 -3.90625 3.140625 -4.09375 C 2.660156 -4.289062 2.265625 -4.484375 1.953125 -4.671875 C 1.648438 -4.859375 1.382812 -5.125 1.15625 -5.46875 C 0.925781 -5.820312 0.8125 -6.265625 0.8125 -6.796875 C 0.8125 -7.578125 1.050781 -8.191406 1.53125 -8.640625 C 2.019531 -9.085938 2.671875 -9.3125 3.484375 -9.3125 C 4.304688 -9.3125 4.957031 -9.078125 5.4375 -8.609375 C 5.925781 -8.148438 6.171875 -7.539062 6.171875 -6.78125 L 6.171875 -6.71875 C 6.171875 -6.601562 6.113281 -6.546875 6 -6.546875 L 5.15625 -6.546875 C 5.03125 -6.546875 4.96875 -6.601562 4.96875 -6.71875 L 4.96875 -6.828125 C 4.96875 -7.242188 4.832031 -7.582031 4.5625 -7.84375 C 4.289062 -8.113281 3.9375 -8.25 3.5 -8.25 C 3.0625 -8.25 2.710938 -8.113281 2.453125 -7.84375 C 2.191406 -7.570312 2.0625 -7.234375 2.0625 -6.828125 C 2.0625 -6.535156 2.140625 -6.289062 2.296875 -6.09375 C 2.453125 -5.894531 2.644531 -5.726562 2.875 -5.59375 C 3.101562 -5.46875 3.425781 -5.316406 3.84375 -5.140625 C 4.34375 -4.921875 4.753906 -4.710938 5.078125 -4.515625 C 5.398438 -4.328125 5.679688 -4.054688 5.921875 -3.703125 C 6.160156 -3.347656 6.28125 -2.910156 6.28125 -2.390625 C 6.28125 -1.628906 6.03125 -1.023438 5.53125 -0.578125 C 5.039062 -0.128906 4.367188 0.09375 3.515625 0.09375 Z M 3.515625 0.09375 "/></g></g></g></g></g></svg>