<svg xmlns="http://www.w3.org/2000/svg" xmlns:xlink="http://www.w3.org/1999/xlink" width="500" zoomAndPan="magnify" viewBox="0 0 375 374.999991" height="500" preserveAspectRatio="xMidYMid meet" version="1.0"><defs><g/><clipPath id="41839e6574"><rect x="0" width="317" y="0" height="78"/></clipPath><clipPath id="0c96efc047"><path d="M 123.320312 105 L 165 105 L 165 190 L 123.320312 190 Z M 123.320312 105 " clip-rule="nonzero"/></clipPath><clipPath id="0a8f345789"><path d="M 210 71.375 L 251.570312 71.375 L 251.570312 190 L 210 190 Z M 210 71.375 " clip-rule="nonzero"/></clipPath></defs><g transform="matrix(1, 0, 0, 1, 29, 212)"><g clip-path="url(#41839e6574)"><g fill="#ffffff" fill-opacity="1"><g transform="translate(1.332656, 61.7598)"><g><path d="M 42 0 L 6.640625 0 L 6.640625 -55.734375 L 16.84375 -55.734375 L 16.84375 -9.140625 L 42 -9.140625 Z M 42 0 "/></g></g></g><g fill="#ffffff" fill-opacity="1"><g transform="translate(44.969033, 61.7598)"><g><path d="M 45.890625 -21.796875 C 45.890625 -21.273438 45.875 -20.78125 45.84375 -20.3125 C 45.820312 -19.851562 45.769531 -19.226562 45.6875 -18.4375 L 12.78125 -18.4375 C 13.132812 -16.144531 13.863281 -14.191406 14.96875 -12.578125 C 16.082031 -10.960938 17.457031 -9.722656 19.09375 -8.859375 C 20.726562 -8.003906 22.519531 -7.578125 24.46875 -7.578125 C 26.976562 -7.578125 29.007812 -8.078125 30.5625 -9.078125 C 32.125 -10.078125 33.257812 -11.460938 33.96875 -13.234375 L 44.78125 -13.234375 C 44.269531 -11.347656 43.414062 -9.53125 42.21875 -7.78125 C 41.03125 -6.03125 39.578125 -4.476562 37.859375 -3.125 C 36.140625 -1.78125 34.164062 -0.710938 31.9375 0.078125 C 29.71875 0.867188 27.296875 1.265625 24.671875 1.265625 C 21.503906 1.265625 18.585938 0.6875 15.921875 -0.46875 C 13.253906 -1.632812 10.941406 -3.238281 8.984375 -5.28125 C 7.035156 -7.332031 5.519531 -9.707031 4.4375 -12.40625 C 3.363281 -15.113281 2.828125 -18 2.828125 -21.0625 C 2.828125 -24.144531 3.363281 -27.03125 4.4375 -29.71875 C 5.519531 -32.414062 7.035156 -34.785156 8.984375 -36.828125 C 10.941406 -38.878906 13.253906 -40.484375 15.921875 -41.640625 C 18.585938 -42.804688 21.503906 -43.390625 24.671875 -43.390625 C 27.835938 -43.390625 30.722656 -42.816406 33.328125 -41.671875 C 35.941406 -40.523438 38.179688 -38.945312 40.046875 -36.9375 C 41.921875 -34.925781 43.363281 -32.625 44.375 -30.03125 C 45.382812 -27.4375 45.890625 -24.691406 45.890625 -21.796875 Z M 13.1875 -26.109375 L 35.765625 -26.109375 C 35.628906 -27.691406 35.039062 -29.128906 34 -30.421875 C 32.96875 -31.722656 31.628906 -32.769531 29.984375 -33.5625 C 28.347656 -34.351562 26.5625 -34.75 24.625 -34.75 C 22.957031 -34.75 21.359375 -34.441406 19.828125 -33.828125 C 18.296875 -33.210938 16.953125 -32.269531 15.796875 -31 C 14.640625 -29.726562 13.769531 -28.097656 13.1875 -26.109375 Z M 13.1875 -26.109375 "/></g></g></g><g fill="#ffffff" fill-opacity="1"><g transform="translate(93.112453, 61.7598)"><g><path d="M 23.515625 0 L 14.59375 0 L 0.40625 -42.125 L 11.0625 -42.125 L 19.296875 -15.40625 L 20.03125 -12.90625 L 20.15625 -12.90625 L 20.9375 -15.40625 L 28.9375 -42.125 L 36.265625 -42.125 L 43.96875 -15.6875 L 44.828125 -12.90625 L 44.953125 -12.90625 L 45.9375 -15.859375 L 54.171875 -42.125 L 64.625 -42.125 L 50.40625 0 L 41.21875 0 L 32.453125 -27.296875 L 32.40625 -27.296875 Z M 23.515625 0 "/></g></g></g><g fill="#ffffff" fill-opacity="1"><g transform="translate(158.095827, 61.7598)"><g><path d="M 24.953125 1.265625 C 21.753906 1.265625 18.800781 0.691406 16.09375 -0.453125 C 13.394531 -1.597656 11.054688 -3.191406 9.078125 -5.234375 C 7.097656 -7.285156 5.5625 -9.664062 4.46875 -12.375 C 3.375 -15.082031 2.828125 -17.976562 2.828125 -21.0625 C 2.828125 -24.144531 3.375 -27.03125 4.46875 -29.71875 C 5.5625 -32.414062 7.097656 -34.785156 9.078125 -36.828125 C 11.054688 -38.878906 13.394531 -40.484375 16.09375 -41.640625 C 18.800781 -42.804688 21.769531 -43.390625 25 -43.390625 C 28.25 -43.390625 31.222656 -42.804688 33.921875 -41.640625 C 36.628906 -40.484375 38.976562 -38.878906 40.96875 -36.828125 C 42.96875 -34.785156 44.515625 -32.414062 45.609375 -29.71875 C 46.703125 -27.03125 47.25 -24.144531 47.25 -21.0625 C 47.25 -17.945312 46.703125 -15.039062 45.609375 -12.34375 C 44.515625 -9.65625 42.96875 -7.285156 40.96875 -5.234375 C 38.976562 -3.191406 36.625 -1.597656 33.90625 -0.453125 C 31.1875 0.691406 28.203125 1.265625 24.953125 1.265625 Z M 25.03125 -7.953125 C 27.414062 -7.953125 29.535156 -8.515625 31.390625 -9.640625 C 33.242188 -10.773438 34.707031 -12.328125 35.78125 -14.296875 C 36.863281 -16.265625 37.40625 -18.519531 37.40625 -21.0625 C 37.40625 -23.601562 36.863281 -25.863281 35.78125 -27.84375 C 34.707031 -29.820312 33.242188 -31.378906 31.390625 -32.515625 C 29.535156 -33.648438 27.414062 -34.21875 25.03125 -34.21875 C 22.6875 -34.21875 20.578125 -33.648438 18.703125 -32.515625 C 16.835938 -31.378906 15.363281 -29.820312 14.28125 -27.84375 C 13.195312 -25.863281 12.65625 -23.601562 12.65625 -21.0625 C 12.65625 -18.519531 13.195312 -16.265625 14.28125 -14.296875 C 15.363281 -12.328125 16.835938 -10.773438 18.703125 -9.640625 C 20.578125 -8.515625 22.6875 -7.953125 25.03125 -7.953125 Z M 25.03125 -7.953125 "/></g></g></g><g fill="#ffffff" fill-opacity="1"><g transform="translate(208.164983, 61.7598)"><g><path d="M 10.6875 -48.6875 C 8.78125 -48.6875 7.285156 -49.238281 6.203125 -50.34375 C 5.128906 -51.445312 4.59375 -52.789062 4.59375 -54.375 C 4.59375 -55.90625 5.128906 -57.226562 6.203125 -58.34375 C 7.285156 -59.46875 8.796875 -60.03125 10.734375 -60.03125 C 12.734375 -60.03125 14.269531 -59.46875 15.34375 -58.34375 C 16.425781 -57.226562 16.96875 -55.90625 16.96875 -54.375 C 16.96875 -52.789062 16.425781 -51.445312 15.34375 -50.34375 C 14.269531 -49.238281 12.71875 -48.6875 10.6875 -48.6875 Z M 15.734375 0 L 5.8125 0 L 5.8125 -42.125 L 15.734375 -42.125 Z M 15.734375 0 "/></g></g></g><g fill="#ffffff" fill-opacity="1"><g transform="translate(229.675873, 61.7598)"><g><path d="M 15.734375 0 L 5.8125 0 L 5.8125 -42.125 L 15.25 -42.125 L 15.25 -35.5625 C 16.0625 -37.09375 17.175781 -38.445312 18.59375 -39.625 C 20.019531 -40.800781 21.675781 -41.722656 23.5625 -42.390625 C 25.445312 -43.054688 27.46875 -43.390625 29.625 -43.390625 C 35.28125 -43.390625 39.515625 -41.59375 42.328125 -38 C 45.140625 -34.414062 46.546875 -29.316406 46.546875 -22.703125 L 46.546875 0 L 36.640625 0 L 36.640625 -22.5 C 36.640625 -26.675781 35.765625 -29.675781 34.015625 -31.5 C 32.265625 -33.332031 29.882812 -34.25 26.875 -34.25 C 24.9375 -34.25 23.117188 -33.757812 21.421875 -32.78125 C 19.734375 -31.800781 18.363281 -30.367188 17.3125 -28.484375 C 16.257812 -26.597656 15.734375 -24.273438 15.734375 -21.515625 Z M 15.734375 0 "/></g></g></g><g fill="#ffffff" fill-opacity="1"><g transform="translate(281.71174, 61.7598)"><g><path d="M 31.71875 0 L 23.15625 0 C 21.894531 0 20.601562 -0.113281 19.28125 -0.34375 C 17.957031 -0.582031 16.691406 -1.015625 15.484375 -1.640625 C 14.285156 -2.265625 13.210938 -3.171875 12.265625 -4.359375 C 11.328125 -5.546875 10.578125 -7.085938 10.015625 -8.984375 C 9.453125 -10.890625 9.171875 -13.234375 9.171875 -16.015625 L 9.171875 -33.59375 L 0.453125 -33.59375 L 0.453125 -42.125 L 9.171875 -42.125 L 9.171875 -54.453125 L 19.09375 -54.546875 L 19.09375 -42.125 L 31.71875 -42.125 L 31.71875 -33.59375 L 19.09375 -33.59375 L 19.09375 -15.578125 C 19.09375 -13.609375 19.378906 -12.085938 19.953125 -11.015625 C 20.523438 -9.953125 21.28125 -9.222656 22.21875 -8.828125 C 23.164062 -8.429688 24.160156 -8.234375 25.203125 -8.234375 L 31.71875 -8.234375 Z M 31.71875 0 "/></g></g></g></g></g><g clip-path="url(#0c96efc047)"><path fill="#ffffff" d="M 157.402344 124.410156 C 156.613281 123.75 131.789062 107.398438 129.34375 106.101562 C 126.269531 104.472656 123.652344 106.230469 123.441406 109.808594 C 123.394531 110.644531 123.660156 150.589844 123.679688 153.28125 C 123.34375 158.542969 124.921875 163.109375 128.636719 166.894531 C 130.441406 168.742188 163.585938 189.59375 163.617188 189.527344 C 164.167969 189.035156 164.367188 145.140625 163.996094 142.671875 C 164.949219 135.449219 163.15625 129.210938 157.402344 124.410156 Z M 157.402344 124.410156 " fill-opacity="1" fill-rule="nonzero"/></g><path fill="#ffffff" d="M 207.621094 187.75 C 207.667969 180.898438 207.769531 128.425781 207.742188 127.898438 C 207.507812 121.953125 205.089844 117.03125 200.164062 113.746094 C 191.675781 108.082031 172.984375 96.453125 172.363281 96.207031 C 171.644531 95.886719 170.960938 95.75 170.332031 95.78125 C 169.757812 95.789062 169.253906 95.933594 168.824219 96.214844 C 167.695312 96.875 166.9375 98.234375 166.828125 100.085938 C 166.789062 100.78125 166.933594 186.867188 166.898438 190.128906 C 166.882812 191.441406 167.15625 192.222656 168.472656 192.992188 C 173.519531 195.957031 178.476562 199.09375 183.359375 202.328125 C 186.21875 204.226562 188.824219 204.175781 191.644531 202.316406 C 195.851562 199.546875 200.039062 196.703125 204.449219 194.289062 C 207.292969 192.730469 208.449219 190.847656 207.621094 187.75 Z M 207.621094 187.75 " fill-opacity="1" fill-rule="nonzero"/><g clip-path="url(#0a8f345789)"><path fill="#ffffff" d="M 251.378906 106.695312 C 251.449219 105.59375 251.457031 104.515625 251.378906 103.464844 C 251.378906 103.390625 251.378906 103.316406 251.378906 103.242188 C 250.992188 96.667969 247.867188 91.6875 242.441406 88.105469 C 236.445312 84.148438 230.496094 80.113281 224.347656 76.402344 C 221.832031 74.882812 219.410156 73.148438 216.597656 72.089844 C 216.582031 72.085938 216.558594 72.070312 216.542969 72.0625 C 215.6875 71.605469 214.871094 71.425781 214.125 71.460938 C 212.925781 71.386719 212.089844 71.820312 211.585938 72.863281 C 211.054688 73.59375 210.714844 74.578125 210.644531 75.769531 C 210.625 76.09375 211.101562 182.242188 210.992188 189.332031 C 211.570312 190.21875 212.167969 189.632812 212.6875 189.300781 C 220.6875 184.148438 228.683594 178.980469 236.675781 173.8125 C 244.367188 170.007812 250.554688 164.902344 251.324219 155.625 C 251.636719 151.867188 251.378906 110.546875 251.378906 106.695312 Z M 251.378906 106.695312 " fill-opacity="1" fill-rule="nonzero"/></g></svg>