<svg xmlns="http://www.w3.org/2000/svg" xmlns:xlink="http://www.w3.org/1999/xlink" width="500" zoomAndPan="magnify" viewBox="0 0 375 374.999991" height="500" preserveAspectRatio="xMidYMid meet" version="1.0"><defs><g/><clipPath id="55ac3f53f4"><path d="M 167 55.316406 L 273 55.316406 L 273 256 L 167 256 Z M 167 55.316406 " clip-rule="nonzero"/></clipPath><clipPath id="cacd0f0ef1"><rect x="0" width="303" y="0" height="56"/></clipPath></defs><g clip-path="url(#55ac3f53f4)"><path fill="#ffffff" d="M 239.257812 55.316406 C 234.929688 55.316406 233.058594 58.046875 231.507812 60.828125 L 167.113281 175.023438 L 208.234375 250.460938 C 209.660156 253.03125 211.875 255.976562 216.3125 255.976562 L 245.222656 255.976562 C 246.960938 255.976562 248.355469 255.320312 249.066406 254.097656 C 249.828125 252.859375 249.8125 251.226562 249.003906 249.621094 L 208.203125 175.117188 C 208.164062 175.054688 208.164062 174.984375 208.203125 174.921875 L 272.28125 61.632812 C 273.085938 60.03125 273.105469 58.402344 272.34375 57.167969 C 271.601562 55.96875 270.230469 55.316406 268.488281 55.316406 Z M 239.257812 55.316406 " fill-opacity="1" fill-rule="nonzero"/></g><path fill="#ffffff" d="M 117.652344 94.910156 C 115.910156 94.910156 114.542969 95.570312 113.808594 96.761719 C 113.046875 98 113.066406 99.625 113.871094 101.234375 L 133.566406 135.015625 C 133.601562 135.082031 133.601562 135.148438 133.566406 135.214844 L 102.734375 189.519531 C 101.929688 191.117188 101.917969 192.746094 102.683594 193.984375 C 103.425781 195.175781 104.785156 195.835938 106.527344 195.835938 L 135.546875 195.835938 C 139.871094 195.835938 141.824219 192.988281 143.304688 190.316406 L 174.660156 135.117188 C 174.53125 134.921875 154.679688 100.433594 154.679688 100.433594 C 153.246094 97.863281 151.03125 94.910156 146.589844 94.910156 Z M 117.652344 94.910156 " fill-opacity="1" fill-rule="nonzero"/><g transform="matrix(1, 0, 0, 1, 45, 268)"><g clip-path="url(#cacd0f0ef1)"><g fill="#ffffff" fill-opacity="1"><g transform="translate(1.244879, 41.820104)"><g><path d="M 19.125 0 L 13.5625 -8.359375 L 8.671875 0 L 1.125 0 L 9.875 -13.875 L 0.9375 -27.28125 L 8.671875 -27.28125 L 14.140625 -19.046875 L 18.96875 -27.28125 L 26.5 -27.28125 L 17.84375 -13.515625 L 26.859375 0 Z M 19.125 0 "/></g></g></g><g fill="#ffffff" fill-opacity="1"><g transform="translate(47.832648, 41.820104)"><g><path d="M 19.390625 -4.8125 L 9.203125 -4.8125 L 7.578125 0 L 0.625 0 L 10.484375 -27.28125 L 18.1875 -27.28125 L 28.0625 0 L 21.015625 0 Z M 17.6875 -9.953125 L 14.296875 -19.9375 L 10.953125 -9.953125 Z M 17.6875 -9.953125 "/></g></g></g><g fill="#ffffff" fill-opacity="1"><g transform="translate(95.275115, 41.820104)"><g><path d="M 26.8125 0 L 20.171875 0 L 9.046875 -16.828125 L 9.046875 0 L 2.40625 0 L 2.40625 -27.28125 L 9.046875 -27.28125 L 20.171875 -10.375 L 20.171875 -27.28125 L 26.8125 -27.28125 Z M 26.8125 0 "/></g></g></g><g fill="#ffffff" fill-opacity="1"><g transform="translate(143.300329, 41.820104)"><g><path d="M 22.03125 -27.28125 L 22.03125 -21.953125 L 14.8125 -21.953125 L 14.8125 0 L 8.15625 0 L 8.15625 -21.953125 L 0.9375 -21.953125 L 0.9375 -27.28125 Z M 22.03125 -27.28125 "/></g></g></g><g fill="#ffffff" fill-opacity="1"><g transform="translate(185.070672, 41.820104)"><g><path d="M 16.328125 0 L 10.640625 -10.296875 L 9.046875 -10.296875 L 9.046875 0 L 2.40625 0 L 2.40625 -27.28125 L 13.5625 -27.28125 C 15.707031 -27.28125 17.535156 -26.90625 19.046875 -26.15625 C 20.566406 -25.40625 21.703125 -24.375 22.453125 -23.0625 C 23.210938 -21.75 23.59375 -20.289062 23.59375 -18.6875 C 23.59375 -16.875 23.078125 -15.253906 22.046875 -13.828125 C 21.023438 -12.410156 19.519531 -11.398438 17.53125 -10.796875 L 23.828125 0 Z M 9.046875 -15 L 13.171875 -15 C 14.390625 -15 15.300781 -15.296875 15.90625 -15.890625 C 16.519531 -16.484375 16.828125 -17.328125 16.828125 -18.421875 C 16.828125 -19.453125 16.519531 -20.265625 15.90625 -20.859375 C 15.300781 -21.460938 14.390625 -21.765625 13.171875 -21.765625 L 9.046875 -21.765625 Z M 9.046875 -15 "/></g></g></g><g fill="#ffffff" fill-opacity="1"><g transform="translate(229.210877, 41.820104)"><g><path d="M 9.046875 -27.28125 L 9.046875 0 L 2.40625 0 L 2.40625 -27.28125 Z M 9.046875 -27.28125 "/></g></g></g><g fill="#ffffff" fill-opacity="1"><g transform="translate(259.481582, 41.820104)"><g><path d="M 23.203125 -18.5 C 23.203125 -16.914062 22.835938 -15.46875 22.109375 -14.15625 C 21.378906 -12.851562 20.265625 -11.800781 18.765625 -11 C 17.265625 -10.195312 15.398438 -9.796875 13.171875 -9.796875 L 9.046875 -9.796875 L 9.046875 0 L 2.40625 0 L 2.40625 -27.28125 L 13.171875 -27.28125 C 15.347656 -27.28125 17.1875 -26.90625 18.6875 -26.15625 C 20.1875 -25.40625 21.3125 -24.367188 22.0625 -23.046875 C 22.820312 -21.722656 23.203125 -20.207031 23.203125 -18.5 Z M 12.671875 -15.078125 C 13.941406 -15.078125 14.882812 -15.375 15.5 -15.96875 C 16.125 -16.5625 16.4375 -17.40625 16.4375 -18.5 C 16.4375 -19.582031 16.125 -20.421875 15.5 -21.015625 C 14.882812 -21.617188 13.941406 -21.921875 12.671875 -21.921875 L 9.046875 -21.921875 L 9.046875 -15.078125 Z M 12.671875 -15.078125 "/></g></g></g></g></g></svg>