<svg xmlns="http://www.w3.org/2000/svg" xmlns:xlink="http://www.w3.org/1999/xlink" width="500" zoomAndPan="magnify" viewBox="0 0 375 374.999991" height="500" preserveAspectRatio="xMidYMid meet" version="1.0"><defs><g/><clipPath id="4377ed409e"><path d="M 43 152 L 90 152 L 90 215 L 43 215 Z M 43 152 " clip-rule="nonzero"/></clipPath><clipPath id="5126132580"><path d="M 73.878906 147.84375 L 94.046875 159.714844 L 59.359375 218.636719 L 39.195312 206.769531 Z M 73.878906 147.84375 " clip-rule="nonzero"/></clipPath><clipPath id="15ad8022e0"><path d="M 83.960938 153.78125 C 86.636719 155.355469 88.574219 157.925781 89.355469 160.929688 C 90.132812 163.933594 89.683594 167.125 88.109375 169.796875 L 65.3125 208.53125 C 63.738281 211.203125 61.164062 213.144531 58.160156 213.921875 C 55.15625 214.699219 51.96875 214.25 49.292969 212.675781 C 46.617188 211.101562 44.679688 208.53125 43.902344 205.527344 C 43.125 202.523438 43.570312 199.332031 45.144531 196.660156 L 67.945312 157.925781 C 69.519531 155.253906 72.089844 153.3125 75.09375 152.535156 C 78.097656 151.757812 81.289062 152.207031 83.960938 153.78125 Z M 83.960938 153.78125 " clip-rule="nonzero"/></clipPath><clipPath id="c36e09768e"><path d="M 0 0 L 47 0 L 47 62.800781 L 0 62.800781 Z M 0 0 " clip-rule="nonzero"/></clipPath><clipPath id="486aed9b1a"><path d="M 30.878906 -4.15625 L 51.046875 7.714844 L 16.359375 66.636719 L -3.804688 54.769531 Z M 30.878906 -4.15625 " clip-rule="nonzero"/></clipPath><clipPath id="d33a1a1033"><path d="M 40.960938 1.78125 C 43.636719 3.355469 45.574219 5.925781 46.355469 8.929688 C 47.132812 11.933594 46.683594 15.125 45.109375 17.796875 L 22.3125 56.53125 C 20.738281 59.203125 18.164062 61.144531 15.160156 61.921875 C 12.15625 62.699219 8.96875 62.25 6.292969 60.675781 C 3.617188 59.101562 1.679688 56.53125 0.902344 53.527344 C 0.125 50.523438 0.570312 47.332031 2.144531 44.660156 L 24.945312 5.925781 C 26.519531 3.253906 29.089844 1.3125 32.09375 0.535156 C 35.097656 -0.242188 38.289062 0.207031 40.960938 1.78125 Z M 40.960938 1.78125 " clip-rule="nonzero"/></clipPath><clipPath id="912672cce3"><rect x="0" width="47" y="0" height="63"/></clipPath><clipPath id="28fc7b0506"><path d="M 19.839844 152.101562 L 43.949219 152.101562 L 43.949219 176.210938 L 19.839844 176.210938 Z M 19.839844 152.101562 " clip-rule="nonzero"/></clipPath><clipPath id="19f5e26a10"><path d="M 31.894531 152.101562 C 25.234375 152.101562 19.839844 157.5 19.839844 164.15625 C 19.839844 170.8125 25.234375 176.210938 31.894531 176.210938 C 38.550781 176.210938 43.949219 170.8125 43.949219 164.15625 C 43.949219 157.5 38.550781 152.101562 31.894531 152.101562 Z M 31.894531 152.101562 " clip-rule="nonzero"/></clipPath><clipPath id="e4196b86e4"><path d="M 0.839844 0.101562 L 24.949219 0.101562 L 24.949219 24.210938 L 0.839844 24.210938 Z M 0.839844 0.101562 " clip-rule="nonzero"/></clipPath><clipPath id="1446ae77db"><path d="M 12.894531 0.101562 C 6.234375 0.101562 0.839844 5.5 0.839844 12.15625 C 0.839844 18.8125 6.234375 24.210938 12.894531 24.210938 C 19.550781 24.210938 24.949219 18.8125 24.949219 12.15625 C 24.949219 5.5 19.550781 0.101562 12.894531 0.101562 Z M 12.894531 0.101562 " clip-rule="nonzero"/></clipPath><clipPath id="9ba286ce59"><rect x="0" width="25" y="0" height="25"/></clipPath><clipPath id="0a5251003b"><path d="M 0.359375 15 L 40 15 L 40 56 L 0.359375 56 Z M 0.359375 15 " clip-rule="nonzero"/></clipPath><clipPath id="8f6aa6ae8f"><rect x="0" width="251" y="0" height="70"/></clipPath></defs><g clip-path="url(#4377ed409e)"><g clip-path="url(#5126132580)"><g clip-path="url(#15ad8022e0)"><g transform="matrix(1, 0, 0, 1, 43, 152)"><g clip-path="url(#912672cce3)"><g clip-path="url(#c36e09768e)"><g clip-path="url(#486aed9b1a)"><g clip-path="url(#d33a1a1033)"><path fill="#ffffff" d="M 30.878906 -4.15625 L 51.046875 7.714844 L 16.359375 66.636719 L -3.804688 54.769531 Z M 30.878906 -4.15625 " fill-opacity="1" fill-rule="nonzero"/></g></g></g></g></g></g></g></g><g clip-path="url(#28fc7b0506)"><g clip-path="url(#19f5e26a10)"><g transform="matrix(1, 0, 0, 1, 19, 152)"><g clip-path="url(#9ba286ce59)"><g clip-path="url(#e4196b86e4)"><g clip-path="url(#1446ae77db)"><path fill="#ffffff" d="M 0.839844 0.101562 L 24.949219 0.101562 L 24.949219 24.210938 L 0.839844 24.210938 Z M 0.839844 0.101562 " fill-opacity="1" fill-rule="nonzero"/></g></g></g></g></g></g><g transform="matrix(1, 0, 0, 1, 99, 152)"><g clip-path="url(#8f6aa6ae8f)"><g clip-path="url(#0a5251003b)"><g fill="#ffffff" fill-opacity="1"><g transform="translate(0.403892, 55.527408)"><g><path d="M 23.140625 0 L 16.75 0 L 0.515625 -40 L 7.6875 -40 L 18.984375 -11.765625 L 19.953125 -8.203125 L 20.90625 -11.765625 L 32.203125 -40 L 39.40625 -40 Z M 23.140625 0 "/></g></g></g></g><g fill="#ffffff" fill-opacity="1"><g transform="translate(35.657183, 55.527408)"><g><path d="M 43.21875 -20.984375 C 43.21875 -20.640625 43.207031 -20.273438 43.1875 -19.890625 C 43.175781 -19.515625 43.144531 -18.960938 43.09375 -18.234375 L 9.921875 -18.234375 C 10.210938 -15.566406 11 -13.253906 12.28125 -11.296875 C 13.5625 -9.335938 15.164062 -7.828125 17.09375 -6.765625 C 19.03125 -5.703125 21.097656 -5.171875 23.296875 -5.171875 C 25.984375 -5.171875 28.28125 -5.753906 30.1875 -6.921875 C 32.101562 -8.085938 33.503906 -9.789062 34.390625 -12.03125 L 41.953125 -12.03125 C 41.378906 -10.207031 40.523438 -8.5 39.390625 -6.90625 C 38.253906 -5.3125 36.878906 -3.914062 35.265625 -2.71875 C 33.660156 -1.53125 31.859375 -0.597656 29.859375 0.078125 C 27.859375 0.753906 25.722656 1.09375 23.453125 1.09375 C 20.546875 1.09375 17.859375 0.550781 15.390625 -0.53125 C 12.921875 -1.613281 10.765625 -3.117188 8.921875 -5.046875 C 7.078125 -6.984375 5.644531 -9.226562 4.625 -11.78125 C 3.601562 -14.332031 3.09375 -17.070312 3.09375 -20 C 3.09375 -22.925781 3.601562 -25.660156 4.625 -28.203125 C 5.644531 -30.753906 7.078125 -33 8.921875 -34.9375 C 10.765625 -36.875 12.921875 -38.390625 15.390625 -39.484375 C 17.859375 -40.585938 20.546875 -41.140625 23.453125 -41.140625 C 26.328125 -41.140625 28.972656 -40.601562 31.390625 -39.53125 C 33.804688 -38.457031 35.894531 -36.976562 37.65625 -35.09375 C 39.425781 -33.21875 40.796875 -31.066406 41.765625 -28.640625 C 42.734375 -26.222656 43.21875 -23.671875 43.21875 -20.984375 Z M 10.234375 -24.203125 L 36.3125 -24.203125 C 36.207031 -25.609375 35.796875 -26.953125 35.078125 -28.234375 C 34.359375 -29.515625 33.410156 -30.644531 32.234375 -31.625 C 31.054688 -32.601562 29.703125 -33.375 28.171875 -33.9375 C 26.640625 -34.5 25.023438 -34.78125 23.328125 -34.78125 C 21.347656 -34.78125 19.453125 -34.375 17.640625 -33.5625 C 15.835938 -32.757812 14.28125 -31.570312 12.96875 -30 C 11.664062 -28.425781 10.753906 -26.492188 10.234375 -24.203125 Z M 10.234375 -24.203125 "/></g></g></g><g fill="#ffffff" fill-opacity="1"><g transform="translate(76.673682, 55.527408)"><g><path d="M 19.796875 1.140625 C 17.003906 1.140625 14.5625 0.765625 12.46875 0.015625 C 10.375 -0.722656 8.632812 -1.726562 7.25 -3 C 5.863281 -4.269531 4.820312 -5.707031 4.125 -7.3125 C 3.4375 -8.914062 3.09375 -10.570312 3.09375 -12.28125 L 9.609375 -12.234375 C 9.628906 -10.796875 10.035156 -9.472656 10.828125 -8.265625 C 11.628906 -7.066406 12.789062 -6.113281 14.3125 -5.40625 C 15.832031 -4.707031 17.6875 -4.359375 19.875 -4.359375 C 22.914062 -4.359375 25.207031 -4.953125 26.75 -6.140625 C 28.289062 -7.328125 29.0625 -8.925781 29.0625 -10.9375 C 29.0625 -12.425781 28.65625 -13.59375 27.84375 -14.4375 C 27.03125 -15.289062 25.875 -15.945312 24.375 -16.40625 C 22.875 -16.863281 21.078125 -17.265625 18.984375 -17.609375 C 17.128906 -17.890625 15.359375 -18.285156 13.671875 -18.796875 C 11.984375 -19.304688 10.484375 -20.003906 9.171875 -20.890625 C 7.867188 -21.785156 6.84375 -22.925781 6.09375 -24.3125 C 5.351562 -25.695312 4.984375 -27.394531 4.984375 -29.40625 C 4.984375 -31.601562 5.507812 -33.582031 6.5625 -35.34375 C 7.625 -37.113281 9.21875 -38.519531 11.34375 -39.5625 C 13.476562 -40.613281 16.128906 -41.140625 19.296875 -41.140625 C 22.378906 -41.140625 25.070312 -40.617188 27.375 -39.578125 C 29.675781 -38.546875 31.46875 -37.128906 32.75 -35.328125 C 34.03125 -33.523438 34.671875 -31.460938 34.671875 -29.140625 L 28.03125 -29.140625 C 27.925781 -31.046875 27.109375 -32.578125 25.578125 -33.734375 C 24.054688 -34.898438 21.960938 -35.484375 19.296875 -35.484375 C 17.566406 -35.484375 16.140625 -35.210938 15.015625 -34.671875 C 13.890625 -34.140625 13.046875 -33.421875 12.484375 -32.515625 C 11.921875 -31.617188 11.640625 -30.632812 11.640625 -29.5625 C 11.640625 -28.3125 11.921875 -27.28125 12.484375 -26.46875 C 13.046875 -25.65625 14.023438 -24.992188 15.421875 -24.484375 C 16.828125 -23.972656 18.769531 -23.507812 21.25 -23.09375 C 23.082031 -22.8125 24.875 -22.441406 26.625 -21.984375 C 28.375 -21.523438 29.945312 -20.875 31.34375 -20.03125 C 32.75 -19.195312 33.863281 -18.070312 34.6875 -16.65625 C 35.507812 -15.25 35.921875 -13.460938 35.921875 -11.296875 C 35.921875 -8.578125 35.238281 -6.285156 33.875 -4.421875 C 32.519531 -2.566406 30.632812 -1.175781 28.21875 -0.25 C 25.800781 0.675781 22.992188 1.140625 19.796875 1.140625 Z M 19.796875 1.140625 "/></g></g></g><g fill="#ffffff" fill-opacity="1"><g transform="translate(110.672397, 55.527408)"><g><path d="M 29.296875 0 L 21.921875 0 C 20.398438 0 18.894531 -0.191406 17.40625 -0.578125 C 15.914062 -0.972656 14.5625 -1.691406 13.34375 -2.734375 C 12.132812 -3.785156 11.160156 -5.285156 10.421875 -7.234375 C 9.691406 -9.179688 9.328125 -11.710938 9.328125 -14.828125 L 9.328125 -34.078125 L 0.4375 -34.078125 L 0.4375 -40 L 9.328125 -40 L 9.328125 -51.875 L 16.078125 -51.921875 L 16.078125 -40 L 29.296875 -40 L 29.296875 -34.078125 L 16.078125 -34.078125 L 16.078125 -14.515625 C 16.078125 -12.648438 16.28125 -11.132812 16.6875 -9.96875 C 17.09375 -8.8125 17.640625 -7.925781 18.328125 -7.3125 C 19.023438 -6.695312 19.796875 -6.273438 20.640625 -6.046875 C 21.492188 -5.828125 22.363281 -5.71875 23.25 -5.71875 L 29.296875 -5.71875 Z M 29.296875 0 "/></g></g></g><g fill="#ffffff" fill-opacity="1"><g transform="translate(137.535709, 55.527408)"><g><path d="M 23.640625 1.140625 C 20.972656 1.140625 18.53125 0.757812 16.3125 0 C 14.09375 -0.757812 12.164062 -1.9375 10.53125 -3.53125 C 8.894531 -5.125 7.625 -7.164062 6.71875 -9.65625 C 5.820312 -12.15625 5.375 -15.144531 5.375 -18.625 L 5.375 -40 L 12.078125 -40 L 12.078125 -18.828125 C 12.078125 -14.328125 13.078125 -10.929688 15.078125 -8.640625 C 17.078125 -6.359375 19.90625 -5.21875 23.5625 -5.21875 C 27.25 -5.21875 30.085938 -6.359375 32.078125 -8.640625 C 34.066406 -10.929688 35.0625 -14.328125 35.0625 -18.828125 L 35.0625 -40 L 41.796875 -40 L 41.796875 -18.625 C 41.796875 -15.144531 41.34375 -12.15625 40.4375 -9.65625 C 39.539062 -7.164062 38.273438 -5.125 36.640625 -3.53125 C 35.015625 -1.9375 33.09375 -0.757812 30.875 0 C 28.664062 0.757812 26.253906 1.140625 23.640625 1.140625 Z M 23.640625 1.140625 "/></g></g></g><g fill="#ffffff" fill-opacity="1"><g transform="translate(180.042018, 55.527408)"><g><path d="M 13.25 0 L 6.46875 0 L 6.46875 -40 L 12.984375 -40 L 12.984375 -31.0625 C 13.972656 -33.832031 15.519531 -36.015625 17.625 -37.609375 C 19.726562 -39.203125 22.234375 -40 25.140625 -40 L 29.015625 -40 L 29.015625 -34.078125 L 25.484375 -34.078125 C 23.160156 -34.078125 21.070312 -33.472656 19.21875 -32.265625 C 17.363281 -31.066406 15.90625 -29.328125 14.84375 -27.046875 C 13.78125 -24.773438 13.25 -22.035156 13.25 -18.828125 Z M 13.25 0 "/></g></g></g><g fill="#ffffff" fill-opacity="1"><g transform="translate(205.807577, 55.527408)"><g><path d="M 43.21875 -20.984375 C 43.21875 -20.640625 43.207031 -20.273438 43.1875 -19.890625 C 43.175781 -19.515625 43.144531 -18.960938 43.09375 -18.234375 L 9.921875 -18.234375 C 10.210938 -15.566406 11 -13.253906 12.28125 -11.296875 C 13.5625 -9.335938 15.164062 -7.828125 17.09375 -6.765625 C 19.03125 -5.703125 21.097656 -5.171875 23.296875 -5.171875 C 25.984375 -5.171875 28.28125 -5.753906 30.1875 -6.921875 C 32.101562 -8.085938 33.503906 -9.789062 34.390625 -12.03125 L 41.953125 -12.03125 C 41.378906 -10.207031 40.523438 -8.5 39.390625 -6.90625 C 38.253906 -5.3125 36.878906 -3.914062 35.265625 -2.71875 C 33.660156 -1.53125 31.859375 -0.597656 29.859375 0.078125 C 27.859375 0.753906 25.722656 1.09375 23.453125 1.09375 C 20.546875 1.09375 17.859375 0.550781 15.390625 -0.53125 C 12.921875 -1.613281 10.765625 -3.117188 8.921875 -5.046875 C 7.078125 -6.984375 5.644531 -9.226562 4.625 -11.78125 C 3.601562 -14.332031 3.09375 -17.070312 3.09375 -20 C 3.09375 -22.925781 3.601562 -25.660156 4.625 -28.203125 C 5.644531 -30.753906 7.078125 -33 8.921875 -34.9375 C 10.765625 -36.875 12.921875 -38.390625 15.390625 -39.484375 C 17.859375 -40.585938 20.546875 -41.140625 23.453125 -41.140625 C 26.328125 -41.140625 28.972656 -40.601562 31.390625 -39.53125 C 33.804688 -38.457031 35.894531 -36.976562 37.65625 -35.09375 C 39.425781 -33.21875 40.796875 -31.066406 41.765625 -28.640625 C 42.734375 -26.222656 43.21875 -23.671875 43.21875 -20.984375 Z M 10.234375 -24.203125 L 36.3125 -24.203125 C 36.207031 -25.609375 35.796875 -26.953125 35.078125 -28.234375 C 34.359375 -29.515625 33.410156 -30.644531 32.234375 -31.625 C 31.054688 -32.601562 29.703125 -33.375 28.171875 -33.9375 C 26.640625 -34.5 25.023438 -34.78125 23.328125 -34.78125 C 21.347656 -34.78125 19.453125 -34.375 17.640625 -33.5625 C 15.835938 -32.757812 14.28125 -31.570312 12.96875 -30 C 11.664062 -28.425781 10.753906 -26.492188 10.234375 -24.203125 Z M 10.234375 -24.203125 "/></g></g></g></g></g></svg>