<svg xmlns="http://www.w3.org/2000/svg" xmlns:xlink="http://www.w3.org/1999/xlink" width="500" zoomAndPan="magnify" viewBox="0 0 375 374.999991" height="500" preserveAspectRatio="xMidYMid meet" version="1.0"><defs><g/><clipPath id="63cff6a6d3"><rect x="0" width="217" y="0" height="100"/></clipPath><clipPath id="c8784ace04"><rect x="0" width="66" y="0" height="100"/></clipPath><clipPath id="34e3cd5681"><rect x="0" width="68" y="0" height="110"/></clipPath><clipPath id="79668f7bbd"><rect x="0" width="234" y="0" height="24"/></clipPath></defs><g transform="matrix(1, 0, 0, 1, 21, 123)"><g clip-path="url(#63cff6a6d3)"><g fill="#ffffff" fill-opacity="1"><g transform="translate(0.195508, 79.171218)"><g><path d="M 28.546875 0.875 C 25.929688 0.875 23.609375 0.410156 21.578125 -0.515625 C 19.546875 -1.453125 17.617188 -3.175781 15.796875 -5.6875 L 15.796875 0 L 4.96875 0 L 4.96875 -61.1875 L 15.796875 -61.1875 L 15.796875 -39.296875 C 17.617188 -41.867188 19.546875 -43.617188 21.578125 -44.546875 C 23.609375 -45.484375 25.929688 -45.953125 28.546875 -45.953125 C 32.503906 -45.953125 35.96875 -44.960938 38.9375 -42.984375 C 41.90625 -41.003906 44.21875 -38.25 45.875 -34.71875 C 47.53125 -31.195312 48.359375 -27.132812 48.359375 -22.53125 C 48.359375 -17.9375 47.53125 -13.875 45.875 -10.34375 C 44.21875 -6.8125 41.90625 -4.054688 38.9375 -2.078125 C 35.96875 -0.109375 32.503906 0.875 28.546875 0.875 Z M 26.0625 -8.421875 C 29.539062 -8.421875 32.304688 -9.753906 34.359375 -12.421875 C 36.421875 -15.097656 37.453125 -18.46875 37.453125 -22.53125 C 37.453125 -26.65625 36.421875 -30.039062 34.359375 -32.6875 C 32.304688 -35.332031 29.539062 -36.65625 26.0625 -36.65625 C 22.644531 -36.65625 19.851562 -35.34375 17.6875 -32.71875 C 15.519531 -30.101562 14.4375 -26.707031 14.4375 -22.53125 C 14.4375 -18.363281 15.519531 -14.96875 17.6875 -12.34375 C 19.851562 -9.726562 22.644531 -8.421875 26.0625 -8.421875 Z M 26.0625 -8.421875 "/></g></g></g><g fill="#ffffff" fill-opacity="1"><g transform="translate(47.346245, 79.171218)"><g><path d="M 26.0625 0.875 C 21.570312 0.875 17.585938 -0.109375 14.109375 -2.078125 C 10.640625 -4.054688 7.925781 -6.820312 5.96875 -10.375 C 4.019531 -13.9375 3.046875 -18.070312 3.046875 -22.78125 C 3.046875 -27.320312 4.019531 -31.328125 5.96875 -34.796875 C 7.925781 -38.273438 10.628906 -41.003906 14.078125 -42.984375 C 17.523438 -44.960938 21.519531 -45.953125 26.0625 -45.953125 C 30.613281 -45.953125 34.625 -44.960938 38.09375 -42.984375 C 41.570312 -41.003906 44.285156 -38.273438 46.234375 -34.796875 C 48.191406 -31.328125 49.171875 -27.320312 49.171875 -22.78125 C 49.171875 -18.125 48.207031 -14.019531 46.28125 -10.46875 C 44.351562 -6.914062 41.648438 -4.132812 38.171875 -2.125 C 34.703125 -0.125 30.664062 0.875 26.0625 0.875 Z M 26.0625 -8.421875 C 29.59375 -8.421875 32.453125 -9.753906 34.640625 -12.421875 C 36.835938 -15.097656 37.9375 -18.550781 37.9375 -22.78125 C 37.9375 -25.445312 37.441406 -27.820312 36.453125 -29.90625 C 35.460938 -32 34.082031 -33.644531 32.3125 -34.84375 C 30.550781 -36.050781 28.46875 -36.65625 26.0625 -36.65625 C 23.769531 -36.65625 21.710938 -36.066406 19.890625 -34.890625 C 18.066406 -33.710938 16.644531 -32.082031 15.625 -30 C 14.613281 -27.914062 14.109375 -25.507812 14.109375 -22.78125 C 14.109375 -18.5 15.234375 -15.035156 17.484375 -12.390625 C 19.734375 -9.742188 22.59375 -8.421875 26.0625 -8.421875 Z M 26.0625 -8.421875 "/></g></g></g><g fill="#ffffff" fill-opacity="1"><g transform="translate(95.218703, 79.171218)"><g><path d="M 15.71875 0 L 4.890625 0 L 4.890625 -45 L 15.71875 -45 L 15.71875 -39.625 C 17.425781 -41.976562 19.335938 -43.617188 21.453125 -44.546875 C 23.566406 -45.484375 25.929688 -45.953125 28.546875 -45.953125 L 29.828125 -45.953125 L 29.828125 -35.53125 L 27.34375 -35.53125 C 25.53125 -35.53125 23.96875 -35.289062 22.65625 -34.8125 C 21.34375 -34.332031 20.234375 -33.660156 19.328125 -32.796875 C 18.148438 -31.617188 17.253906 -30.082031 16.640625 -28.1875 C 16.023438 -26.289062 15.71875 -23.847656 15.71875 -20.859375 Z M 15.71875 0 "/></g></g></g><g fill="#ffffff" fill-opacity="1"><g transform="translate(122.161283, 79.171218)"><g><path d="M 25.90625 0.875 C 21.414062 0.875 17.445312 -0.109375 14 -2.078125 C 10.550781 -4.054688 7.863281 -6.820312 5.9375 -10.375 C 4.007812 -13.9375 3.046875 -18.070312 3.046875 -22.78125 C 3.046875 -27.320312 4.007812 -31.328125 5.9375 -34.796875 C 7.863281 -38.273438 10.535156 -41.003906 13.953125 -42.984375 C 17.378906 -44.960938 21.363281 -45.953125 25.90625 -45.953125 C 31.300781 -45.953125 35.882812 -44.5625 39.65625 -41.78125 C 43.425781 -39 45.875 -35.285156 47 -30.640625 L 35.203125 -30.640625 C 33.816406 -34.972656 30.71875 -37.140625 25.90625 -37.140625 C 22.425781 -37.140625 19.585938 -35.828125 17.390625 -33.203125 C 15.203125 -30.585938 14.109375 -27.113281 14.109375 -22.78125 C 14.109375 -18.289062 15.203125 -14.691406 17.390625 -11.984375 C 19.585938 -9.285156 22.425781 -7.9375 25.90625 -7.9375 C 28.519531 -7.9375 30.628906 -8.578125 32.234375 -9.859375 C 33.835938 -11.148438 34.910156 -12.914062 35.453125 -15.15625 L 47.15625 -15.15625 C 46.457031 -11.789062 45.117188 -8.90625 43.140625 -6.5 C 41.171875 -4.09375 38.703125 -2.257812 35.734375 -1 C 32.765625 0.25 29.488281 0.875 25.90625 0.875 Z M 25.90625 0.875 "/></g></g></g><g fill="#ffffff" fill-opacity="1"><g transform="translate(167.547816, 79.171218)"><g><path d="M 25.984375 0.875 C 21.390625 0.875 17.363281 -0.125 13.90625 -2.125 C 10.457031 -4.132812 7.785156 -6.875 5.890625 -10.34375 C 3.992188 -13.820312 3.046875 -17.78125 3.046875 -22.21875 C 3.046875 -25.15625 3.5 -28.039062 4.40625 -30.875 C 5.320312 -33.707031 6.710938 -36.257812 8.578125 -38.53125 C 10.453125 -40.8125 12.804688 -42.617188 15.640625 -43.953125 C 18.472656 -45.285156 21.816406 -45.953125 25.671875 -45.953125 C 28.554688 -45.953125 31.347656 -45.5 34.046875 -44.59375 C 36.742188 -43.6875 39.160156 -42.28125 41.296875 -40.375 C 43.441406 -38.476562 45.140625 -36.0625 46.390625 -33.125 C 47.648438 -30.1875 48.28125 -26.6875 48.28125 -22.625 L 48.28125 -20.296875 L 14.28125 -20.296875 C 14.382812 -19.328125 14.597656 -18.375 14.921875 -17.4375 C 15.242188 -16.507812 15.585938 -15.695312 15.953125 -15 C 17.023438 -12.914062 18.457031 -11.296875 20.25 -10.140625 C 22.039062 -8.992188 24.085938 -8.421875 26.390625 -8.421875 C 28.953125 -8.421875 31.101562 -9.085938 32.84375 -10.421875 C 34.582031 -11.765625 35.800781 -13.34375 36.5 -15.15625 L 47.5625 -15.15625 C 46.707031 -12.269531 45.34375 -9.609375 43.46875 -7.171875 C 41.59375 -4.742188 39.210938 -2.796875 36.328125 -1.328125 C 33.441406 0.140625 29.992188 0.875 25.984375 0.875 Z M 14.75 -28.390625 L 37.21875 -28.390625 C 37.164062 -28.984375 37.015625 -29.648438 36.765625 -30.390625 C 36.523438 -31.140625 36.113281 -31.863281 35.53125 -32.5625 C 34.507812 -34.164062 33.15625 -35.367188 31.46875 -36.171875 C 29.789062 -36.972656 27.960938 -37.375 25.984375 -37.375 C 24.003906 -37.375 22.195312 -36.972656 20.5625 -36.171875 C 18.9375 -35.367188 17.585938 -34.164062 16.515625 -32.5625 C 15.929688 -31.863281 15.519531 -31.140625 15.28125 -30.390625 C 15.039062 -29.648438 14.863281 -28.984375 14.75 -28.390625 Z M 14.75 -28.390625 "/></g></g></g></g></g><g transform="matrix(1, 0, 0, 1, 289, 123)"><g clip-path="url(#c8784ace04)"><g fill="#ffffff" fill-opacity="1"><g transform="translate(1.241522, 80.722716)"><g><path d="M 25.984375 0.875 C 21.390625 0.875 17.367188 -0.125 13.921875 -2.125 C 10.472656 -4.132812 7.796875 -6.875 5.890625 -10.34375 C 3.992188 -13.820312 3.046875 -17.78125 3.046875 -22.21875 C 3.046875 -25.15625 3.5 -28.039062 4.40625 -30.875 C 5.320312 -33.71875 6.710938 -36.273438 8.578125 -38.546875 C 10.453125 -40.816406 12.804688 -42.617188 15.640625 -43.953125 C 18.472656 -45.296875 21.816406 -45.96875 25.671875 -45.96875 C 28.554688 -45.96875 31.347656 -45.507812 34.046875 -44.59375 C 36.753906 -43.6875 39.175781 -42.285156 41.3125 -40.390625 C 43.445312 -38.492188 45.144531 -36.070312 46.40625 -33.125 C 47.664062 -30.1875 48.296875 -26.6875 48.296875 -22.625 L 48.296875 -20.296875 L 14.28125 -20.296875 C 14.382812 -19.328125 14.597656 -18.375 14.921875 -17.4375 C 15.242188 -16.507812 15.59375 -15.695312 15.96875 -15 C 17.03125 -12.914062 18.457031 -11.296875 20.25 -10.140625 C 22.039062 -8.992188 24.085938 -8.421875 26.390625 -8.421875 C 28.960938 -8.421875 31.113281 -9.085938 32.84375 -10.421875 C 34.582031 -11.765625 35.800781 -13.34375 36.5 -15.15625 L 47.5625 -15.15625 C 46.707031 -12.269531 45.34375 -9.609375 43.46875 -7.171875 C 41.601562 -4.742188 39.222656 -2.796875 36.328125 -1.328125 C 33.441406 0.140625 29.992188 0.875 25.984375 0.875 Z M 14.765625 -28.390625 L 37.21875 -28.390625 C 37.164062 -28.984375 37.019531 -29.65625 36.78125 -30.40625 C 36.539062 -31.15625 36.125 -31.875 35.53125 -32.5625 C 34.519531 -34.164062 33.171875 -35.367188 31.484375 -36.171875 C 29.796875 -36.972656 27.960938 -37.375 25.984375 -37.375 C 24.003906 -37.375 22.195312 -36.972656 20.5625 -36.171875 C 18.9375 -35.367188 17.59375 -34.164062 16.53125 -32.5625 C 15.9375 -31.875 15.519531 -31.15625 15.28125 -30.40625 C 15.039062 -29.65625 14.867188 -28.984375 14.765625 -28.390625 Z M 14.765625 -28.390625 "/></g></g></g><g fill="#ffffff" fill-opacity="1"><g transform="translate(46.004936, 80.722716)"><g><path d="M 9.953125 0.875 C 8.128906 0.875 6.578125 0.25 5.296875 -1 C 4.015625 -2.257812 3.375 -3.796875 3.375 -5.609375 C 3.375 -7.328125 4.023438 -8.8125 5.328125 -10.0625 C 6.640625 -11.320312 8.179688 -11.953125 9.953125 -11.953125 C 11.660156 -11.953125 13.128906 -11.320312 14.359375 -10.0625 C 15.585938 -8.8125 16.203125 -7.328125 16.203125 -5.609375 C 16.203125 -3.796875 15.585938 -2.257812 14.359375 -1 C 13.128906 0.25 11.660156 0.875 9.953125 0.875 Z M 9.953125 0.875 "/></g></g></g></g></g><g transform="matrix(1, 0, 0, 1, 234, 121)"><g clip-path="url(#34e3cd5681)"><g fill="#ffffff" fill-opacity="1"><g transform="translate(1.040555, 83.032304)"><g><path d="M 36.890625 -62.15625 C 38.210938 -62.15625 39.378906 -61.757812 40.390625 -60.96875 C 41.398438 -60.175781 41.90625 -59.007812 41.90625 -57.46875 C 41.90625 -55.925781 41.046875 -53.503906 39.328125 -50.203125 C 37.617188 -46.898438 35.5625 -43.53125 33.15625 -40.09375 C 30.757812 -36.664062 28.046875 -33.019531 25.015625 -29.15625 C 20.203125 -23.019531 15.585938 -17.507812 11.171875 -12.625 C 11.148438 -12.289062 11.035156 -11.675781 10.828125 -10.78125 C 10.617188 -9.882812 10.515625 -8.976562 10.515625 -8.0625 C 10.515625 -7.15625 10.9375 -6.335938 11.78125 -5.609375 C 12.625 -4.878906 13.664062 -4.515625 14.90625 -4.515625 C 16.144531 -4.515625 17.472656 -4.953125 18.890625 -5.828125 C 20.316406 -6.710938 21.554688 -7.695312 22.609375 -8.78125 C 25.367188 -11.625 27.078125 -13.046875 27.734375 -13.046875 C 28.398438 -13.046875 28.734375 -12.035156 28.734375 -10.015625 L 28.734375 -9.1875 C 28.734375 -8.113281 28.539062 -7.328125 28.15625 -6.828125 C 25.832031 -3.984375 23.222656 -1.863281 20.328125 -0.46875 C 17.429688 0.914062 14.6875 1.609375 12.09375 1.609375 C 9.5 1.609375 7.523438 0.816406 6.171875 -0.765625 C 4.816406 -2.347656 4.140625 -4.519531 4.140625 -7.28125 C 4.140625 -12.664062 5.582031 -18.992188 8.46875 -26.265625 C 11.351562 -33.546875 14.601562 -39.738281 18.21875 -44.84375 C 26.363281 -56.382812 32.585938 -62.15625 36.890625 -62.15625 Z M 35.03125 -55.28125 C 35.03125 -55.6875 34.890625 -55.890625 34.609375 -55.890625 C 33.648438 -55.890625 31.113281 -53.128906 27 -47.609375 C 22.882812 -42.085938 19.90625 -37.6875 18.0625 -34.40625 C 16.226562 -31.125 14.5 -27 12.875 -22.03125 C 16.132812 -25.894531 20.640625 -31.914062 26.390625 -40.09375 C 32.148438 -48.28125 35.03125 -53.34375 35.03125 -55.28125 Z M 35.03125 -55.28125 "/></g></g></g><g fill="#ffffff" fill-opacity="1"><g transform="translate(23.834934, 83.032304)"><g><path d="M 36.890625 -62.15625 C 38.210938 -62.15625 39.378906 -61.757812 40.390625 -60.96875 C 41.398438 -60.175781 41.90625 -59.007812 41.90625 -57.46875 C 41.90625 -55.925781 41.046875 -53.503906 39.328125 -50.203125 C 37.617188 -46.898438 35.5625 -43.53125 33.15625 -40.09375 C 30.757812 -36.664062 28.046875 -33.019531 25.015625 -29.15625 C 20.203125 -23.019531 15.585938 -17.507812 11.171875 -12.625 C 11.148438 -12.289062 11.035156 -11.675781 10.828125 -10.78125 C 10.617188 -9.882812 10.515625 -8.976562 10.515625 -8.0625 C 10.515625 -7.15625 10.9375 -6.335938 11.78125 -5.609375 C 12.625 -4.878906 13.664062 -4.515625 14.90625 -4.515625 C 16.144531 -4.515625 17.472656 -4.953125 18.890625 -5.828125 C 20.316406 -6.710938 21.554688 -7.695312 22.609375 -8.78125 C 25.367188 -11.625 27.078125 -13.046875 27.734375 -13.046875 C 28.398438 -13.046875 28.734375 -12.035156 28.734375 -10.015625 L 28.734375 -9.1875 C 28.734375 -8.113281 28.539062 -7.328125 28.15625 -6.828125 C 25.832031 -3.984375 23.222656 -1.863281 20.328125 -0.46875 C 17.429688 0.914062 14.6875 1.609375 12.09375 1.609375 C 9.5 1.609375 7.523438 0.816406 6.171875 -0.765625 C 4.816406 -2.347656 4.140625 -4.519531 4.140625 -7.28125 C 4.140625 -12.664062 5.582031 -18.992188 8.46875 -26.265625 C 11.351562 -33.546875 14.601562 -39.738281 18.21875 -44.84375 C 26.363281 -56.382812 32.585938 -62.15625 36.890625 -62.15625 Z M 35.03125 -55.28125 C 35.03125 -55.6875 34.890625 -55.890625 34.609375 -55.890625 C 33.648438 -55.890625 31.113281 -53.128906 27 -47.609375 C 22.882812 -42.085938 19.90625 -37.6875 18.0625 -34.40625 C 16.226562 -31.125 14.5 -27 12.875 -22.03125 C 16.132812 -25.894531 20.640625 -31.914062 26.390625 -40.09375 C 32.148438 -48.28125 35.03125 -53.34375 35.03125 -55.28125 Z M 35.03125 -55.28125 "/></g></g></g></g></g><g transform="matrix(1, 0, 0, 1, 72, 213)"><g clip-path="url(#79668f7bbd)"><g fill="#ffffff" fill-opacity="1"><g transform="translate(1.324118, 19.109449)"><g><path d="M 1.1875 0 L 1.1875 -13.828125 L 6.421875 -13.828125 C 7.753906 -13.828125 8.847656 -13.523438 9.703125 -12.921875 C 10.554688 -12.316406 11.191406 -11.488281 11.609375 -10.4375 C 12.035156 -9.394531 12.25 -8.203125 12.25 -6.859375 C 12.25 -5.523438 12.035156 -4.34375 11.609375 -3.3125 C 11.179688 -2.28125 10.535156 -1.46875 9.671875 -0.875 C 8.804688 -0.289062 7.710938 0 6.390625 0 Z M 2.5 -1.125 L 6.234375 -1.125 C 7.765625 -1.125 8.925781 -1.632812 9.71875 -2.65625 C 10.507812 -3.6875 10.90625 -5.085938 10.90625 -6.859375 C 10.90625 -8.640625 10.523438 -10.054688 9.765625 -11.109375 C 9.003906 -12.171875 7.859375 -12.703125 6.328125 -12.703125 L 2.5 -12.703125 Z M 2.5 -1.125 "/></g></g></g><g fill="#ffffff" fill-opacity="1"><g transform="translate(17.33512, 19.109449)"><g><path d="M 1.234375 0 L 1.234375 -13.828125 L 2.578125 -13.828125 L 2.578125 0 Z M 1.234375 0 "/></g></g></g><g fill="#ffffff" fill-opacity="1"><g transform="translate(24.260479, 19.109449)"><g><path d="M 6.921875 0.234375 C 5.566406 0.234375 4.421875 -0.078125 3.484375 -0.703125 C 2.554688 -1.328125 1.847656 -2.175781 1.359375 -3.25 C 0.878906 -4.332031 0.640625 -5.550781 0.640625 -6.90625 C 0.640625 -8.226562 0.882812 -9.429688 1.375 -10.515625 C 1.875 -11.597656 2.609375 -12.457031 3.578125 -13.09375 C 4.546875 -13.738281 5.734375 -14.0625 7.140625 -14.0625 C 8.171875 -14.0625 9.078125 -13.878906 9.859375 -13.515625 C 10.648438 -13.160156 11.289062 -12.65625 11.78125 -12 C 12.269531 -11.351562 12.585938 -10.597656 12.734375 -9.734375 L 11.390625 -9.734375 C 11.273438 -10.335938 11.03125 -10.882812 10.65625 -11.375 C 10.28125 -11.863281 9.796875 -12.25 9.203125 -12.53125 C 8.609375 -12.8125 7.921875 -12.953125 7.140625 -12.953125 C 5.972656 -12.953125 5.003906 -12.675781 4.234375 -12.125 C 3.472656 -11.570312 2.90625 -10.835938 2.53125 -9.921875 C 2.15625 -9.003906 1.96875 -8 1.96875 -6.90625 C 1.96875 -5.78125 2.148438 -4.765625 2.515625 -3.859375 C 2.878906 -2.953125 3.4375 -2.226562 4.1875 -1.6875 C 4.9375 -1.15625 5.890625 -0.890625 7.046875 -0.890625 C 7.984375 -0.890625 8.789062 -1.097656 9.46875 -1.515625 C 10.144531 -1.929688 10.664062 -2.519531 11.03125 -3.28125 C 11.40625 -4.050781 11.59375 -4.9375 11.59375 -5.9375 L 7.328125 -5.9375 L 7.328125 -6.984375 L 12.9375 -6.984375 L 12.9375 0 L 11.953125 0 L 11.796875 -3.1875 L 11.765625 -3.1875 C 11.597656 -2.5625 11.300781 -1.988281 10.875 -1.46875 C 10.457031 -0.957031 9.921875 -0.546875 9.265625 -0.234375 C 8.609375 0.078125 7.828125 0.234375 6.921875 0.234375 Z M 6.921875 0.234375 "/></g></g></g><g fill="#ffffff" fill-opacity="1"><g transform="translate(41.334706, 19.109449)"><g><path d="M 1.234375 0 L 1.234375 -13.828125 L 2.578125 -13.828125 L 2.578125 0 Z M 1.234375 0 "/></g></g></g><g fill="#ffffff" fill-opacity="1"><g transform="translate(48.260065, 19.109449)"><g><path d="M 5.09375 0 L 5.09375 -12.703125 L 0.375 -12.703125 L 0.375 -13.828125 L 11.125 -13.828125 L 11.125 -12.703125 L 6.421875 -12.703125 L 6.421875 0 Z M 5.09375 0 "/></g></g></g><g fill="#ffffff" fill-opacity="1"><g transform="translate(62.879233, 19.109449)"><g><path d="M 0.109375 0 L 5.34375 -13.828125 L 6.765625 -13.828125 L 12.015625 0 L 10.671875 0 L 9.09375 -4.25 L 3.03125 -4.25 L 1.453125 0 Z M 3.390625 -5.3125 L 8.75 -5.3125 L 6.078125 -12.5 L 6.03125 -12.5 Z M 3.390625 -5.3125 "/></g></g></g><g fill="#ffffff" fill-opacity="1"><g transform="translate(78.136332, 19.109449)"><g><path d="M 1.1875 0 L 1.1875 -13.828125 L 2.515625 -13.828125 L 2.515625 -1.125 L 10 -1.125 L 10 0 Z M 1.1875 0 "/></g></g></g><g fill="#ffffff" fill-opacity="1"><g transform="translate(91.692274, 19.109449)"><g/></g></g><g fill="#ffffff" fill-opacity="1"><g transform="translate(98.98493, 19.109449)"><g><path d="M 1.1875 0 L 1.1875 -13.828125 L 2.921875 -13.828125 L 7.734375 -1.875 L 7.78125 -1.875 L 12.609375 -13.828125 L 14.359375 -13.828125 L 14.359375 0 L 13.078125 0 L 13.078125 -11.84375 L 13.03125 -11.84375 L 8.3125 0 L 7.21875 0 L 2.515625 -11.84375 L 2.46875 -11.84375 L 2.46875 0 Z M 1.1875 0 "/></g></g></g><g fill="#ffffff" fill-opacity="1"><g transform="translate(117.644318, 19.109449)"><g><path d="M 0.109375 0 L 5.34375 -13.828125 L 6.765625 -13.828125 L 12.015625 0 L 10.671875 0 L 9.09375 -4.25 L 3.03125 -4.25 L 1.453125 0 Z M 3.390625 -5.3125 L 8.75 -5.3125 L 6.078125 -12.5 L 6.03125 -12.5 Z M 3.390625 -5.3125 "/></g></g></g><g fill="#ffffff" fill-opacity="1"><g transform="translate(132.901417, 19.109449)"><g><path d="M 1.1875 0 L 1.1875 -13.828125 L 6.859375 -13.828125 C 8.191406 -13.828125 9.253906 -13.507812 10.046875 -12.875 C 10.835938 -12.238281 11.234375 -11.253906 11.234375 -9.921875 C 11.234375 -8.941406 10.960938 -8.15625 10.421875 -7.5625 C 9.878906 -6.96875 9.148438 -6.582031 8.234375 -6.40625 L 8.234375 -6.359375 C 8.816406 -6.285156 9.285156 -6.085938 9.640625 -5.765625 C 9.992188 -5.441406 10.265625 -5.050781 10.453125 -4.59375 C 10.640625 -4.132812 10.773438 -3.65625 10.859375 -3.15625 C 10.941406 -2.664062 11.003906 -2.195312 11.046875 -1.75 C 11.085938 -1.300781 11.132812 -0.925781 11.1875 -0.625 C 11.25 -0.332031 11.34375 -0.171875 11.46875 -0.140625 L 11.46875 0 L 10.0625 0 C 9.945312 -0.101562 9.863281 -0.3125 9.8125 -0.625 C 9.769531 -0.945312 9.734375 -1.328125 9.703125 -1.765625 C 9.671875 -2.203125 9.609375 -2.648438 9.515625 -3.109375 C 9.421875 -3.578125 9.273438 -4.015625 9.078125 -4.421875 C 8.878906 -4.828125 8.59375 -5.15625 8.21875 -5.40625 C 7.84375 -5.65625 7.347656 -5.78125 6.734375 -5.78125 L 2.515625 -5.78125 L 2.515625 0 Z M 2.515625 -6.890625 L 6.421875 -6.890625 C 7.453125 -6.890625 8.289062 -7.128906 8.9375 -7.609375 C 9.582031 -8.097656 9.90625 -8.832031 9.90625 -9.8125 C 9.90625 -10.84375 9.609375 -11.582031 9.015625 -12.03125 C 8.421875 -12.476562 7.554688 -12.703125 6.421875 -12.703125 L 2.515625 -12.703125 Z M 2.515625 -6.890625 "/></g></g></g><g fill="#ffffff" fill-opacity="1"><g transform="translate(148.061852, 19.109449)"><g><path d="M 1.1875 0 L 1.1875 -13.828125 L 2.515625 -13.828125 L 2.515625 -5.703125 L 10.21875 -13.828125 L 11.84375 -13.828125 L 6.234375 -7.875 L 12.140625 0 L 10.578125 0 L 5.359375 -6.90625 L 2.515625 -3.921875 L 2.515625 0 Z M 1.1875 0 "/></g></g></g><g fill="#ffffff" fill-opacity="1"><g transform="translate(163.376949, 19.109449)"><g><path d="M 1.1875 0 L 1.1875 -13.828125 L 10.625 -13.828125 L 10.625 -12.703125 L 2.515625 -12.703125 L 2.515625 -7.859375 L 9.859375 -7.859375 L 9.859375 -6.734375 L 2.515625 -6.734375 L 2.515625 -1.125 L 10.796875 -1.125 L 10.796875 0 Z M 1.1875 0 "/></g></g></g><g fill="#ffffff" fill-opacity="1"><g transform="translate(177.996117, 19.109449)"><g><path d="M 5.09375 0 L 5.09375 -12.703125 L 0.375 -12.703125 L 0.375 -13.828125 L 11.125 -13.828125 L 11.125 -12.703125 L 6.421875 -12.703125 L 6.421875 0 Z M 5.09375 0 "/></g></g></g><g fill="#ffffff" fill-opacity="1"><g transform="translate(192.615285, 19.109449)"><g><path d="M 1.234375 0 L 1.234375 -13.828125 L 2.578125 -13.828125 L 2.578125 0 Z M 1.234375 0 "/></g></g></g><g fill="#ffffff" fill-opacity="1"><g transform="translate(199.540644, 19.109449)"><g><path d="M 1.1875 0 L 1.1875 -13.828125 L 2.625 -13.828125 L 10.46875 -2.046875 L 10.5 -2.046875 L 10.5 -13.828125 L 11.84375 -13.828125 L 11.84375 0 L 10.390625 0 L 2.546875 -11.734375 L 2.515625 -11.734375 L 2.515625 0 Z M 1.1875 0 "/></g></g></g><g fill="#ffffff" fill-opacity="1"><g transform="translate(215.686975, 19.109449)"><g><path d="M 6.921875 0.234375 C 5.566406 0.234375 4.421875 -0.078125 3.484375 -0.703125 C 2.554688 -1.328125 1.847656 -2.175781 1.359375 -3.25 C 0.878906 -4.332031 0.640625 -5.550781 0.640625 -6.90625 C 0.640625 -8.226562 0.882812 -9.429688 1.375 -10.515625 C 1.875 -11.597656 2.609375 -12.457031 3.578125 -13.09375 C 4.546875 -13.738281 5.734375 -14.0625 7.140625 -14.0625 C 8.171875 -14.0625 9.078125 -13.878906 9.859375 -13.515625 C 10.648438 -13.160156 11.289062 -12.65625 11.78125 -12 C 12.269531 -11.351562 12.585938 -10.597656 12.734375 -9.734375 L 11.390625 -9.734375 C 11.273438 -10.335938 11.03125 -10.882812 10.65625 -11.375 C 10.28125 -11.863281 9.796875 -12.25 9.203125 -12.53125 C 8.609375 -12.8125 7.921875 -12.953125 7.140625 -12.953125 C 5.972656 -12.953125 5.003906 -12.675781 4.234375 -12.125 C 3.472656 -11.570312 2.90625 -10.835938 2.53125 -9.921875 C 2.15625 -9.003906 1.96875 -8 1.96875 -6.90625 C 1.96875 -5.78125 2.148438 -4.765625 2.515625 -3.859375 C 2.878906 -2.953125 3.4375 -2.226562 4.1875 -1.6875 C 4.9375 -1.15625 5.890625 -0.890625 7.046875 -0.890625 C 7.984375 -0.890625 8.789062 -1.097656 9.46875 -1.515625 C 10.144531 -1.929688 10.664062 -2.519531 11.03125 -3.28125 C 11.40625 -4.050781 11.59375 -4.9375 11.59375 -5.9375 L 7.328125 -5.9375 L 7.328125 -6.984375 L 12.9375 -6.984375 L 12.9375 0 L 11.953125 0 L 11.796875 -3.1875 L 11.765625 -3.1875 C 11.597656 -2.5625 11.300781 -1.988281 10.875 -1.46875 C 10.457031 -0.957031 9.921875 -0.546875 9.265625 -0.234375 C 8.609375 0.078125 7.828125 0.234375 6.921875 0.234375 Z M 6.921875 0.234375 "/></g></g></g></g></g></svg>