<svg xmlns="http://www.w3.org/2000/svg" xmlns:xlink="http://www.w3.org/1999/xlink" width="500" zoomAndPan="magnify" viewBox="0 0 375 374.999991" height="500" preserveAspectRatio="xMidYMid meet" version="1.0"><defs><g/><clipPath id="1c8a9a1148"><rect x="0" width="351" y="0" height="136"/></clipPath><clipPath id="85f2b401ea"><path d="M 215 147 L 229 147 L 229 160 L 215 160 Z M 215 147 " clip-rule="nonzero"/></clipPath><clipPath id="96f1812b54"><path d="M 219.210938 163.367188 L 212.035156 155.394531 L 221.347656 147.015625 L 228.523438 154.988281 Z M 219.210938 163.367188 " clip-rule="nonzero"/></clipPath><clipPath id="d130744482"><path d="M 215.621094 159.382812 L 221.339844 147.019531 L 228.515625 154.992188 Z M 215.621094 159.382812 " clip-rule="nonzero"/></clipPath><clipPath id="c5b7173e82"><path d="M 0.519531 0 L 13.71875 0 L 13.71875 12.601562 L 0.519531 12.601562 Z M 0.519531 0 " clip-rule="nonzero"/></clipPath><clipPath id="12d934dd8d"><path d="M 4.210938 16.367188 L -2.964844 8.394531 L 6.347656 0.015625 L 13.523438 7.988281 Z M 4.210938 16.367188 " clip-rule="nonzero"/></clipPath><clipPath id="27df65033f"><path d="M 0.621094 12.382812 L 6.339844 0.0195312 L 13.515625 7.992188 Z M 0.621094 12.382812 " clip-rule="nonzero"/></clipPath><clipPath id="6ca23d9146"><rect x="0" width="14" y="0" height="13"/></clipPath><clipPath id="2950ecb3b6"><path d="M 216.984375 135.410156 L 241.394531 135.410156 L 241.394531 158.296875 L 216.984375 158.296875 Z M 216.984375 135.410156 " clip-rule="nonzero"/></clipPath><clipPath id="e0c1a8d7c6"><path d="M 229.183594 135.410156 C 222.445312 135.410156 216.984375 140.53125 216.984375 146.851562 C 216.984375 153.171875 222.445312 158.296875 229.183594 158.296875 C 235.921875 158.296875 241.382812 153.171875 241.382812 146.851562 C 241.382812 140.53125 235.921875 135.410156 229.183594 135.410156 Z M 229.183594 135.410156 " clip-rule="nonzero"/></clipPath><clipPath id="bc581c6201"><path d="M 0.984375 0.410156 L 25.394531 0.410156 L 25.394531 23.296875 L 0.984375 23.296875 Z M 0.984375 0.410156 " clip-rule="nonzero"/></clipPath><clipPath id="4964d3ca9c"><path d="M 13.183594 0.410156 C 6.445312 0.410156 0.984375 5.53125 0.984375 11.851562 C 0.984375 18.171875 6.445312 23.296875 13.183594 23.296875 C 19.921875 23.296875 25.382812 18.171875 25.382812 11.851562 C 25.382812 5.53125 19.921875 0.410156 13.183594 0.410156 Z M 13.183594 0.410156 " clip-rule="nonzero"/></clipPath><clipPath id="ffb7fc00ab"><rect x="0" width="26" y="0" height="24"/></clipPath></defs><g transform="matrix(1, 0, 0, 1, 12, 107)"><g clip-path="url(#1c8a9a1148)"><g fill="#ffffff" fill-opacity="1"><g transform="translate(2.456493, 106.220664)"><g><path d="M 34.078125 0.9375 C 28.816406 0.9375 23.476562 0.203125 18.0625 -1.265625 C 12.65625 -2.734375 7.570312 -4.972656 2.8125 -7.984375 L 12.671875 -21.40625 C 15.546875 -19.332031 19.015625 -17.71875 23.078125 -16.5625 C 27.148438 -15.40625 30.660156 -14.828125 33.609375 -14.828125 C 36.421875 -14.828125 38.59375 -15.21875 40.125 -16 C 41.65625 -16.78125 42.421875 -17.796875 42.421875 -19.046875 C 42.421875 -20.054688 42.046875 -20.84375 41.296875 -21.40625 C 40.546875 -21.96875 39.515625 -22.25 38.203125 -22.25 C 37.390625 -22.25 36.46875 -22.21875 35.4375 -22.15625 C 34.40625 -22.09375 33.570312 -22.03125 32.9375 -21.96875 C 29.6875 -21.59375 26.34375 -21.40625 22.90625 -21.40625 C 17.332031 -21.40625 12.804688 -22.453125 9.328125 -24.546875 C 5.859375 -26.640625 4.125 -30.066406 4.125 -34.828125 C 4.125 -40.328125 6.71875 -44.59375 11.90625 -47.625 C 17.101562 -50.664062 24.742188 -52.1875 34.828125 -52.1875 C 39.765625 -52.1875 44.75 -51.484375 49.78125 -50.078125 C 54.820312 -48.671875 59.285156 -46.554688 63.171875 -43.734375 L 52.375 -32.84375 C 48.8125 -34.726562 45.476562 -36.0625 42.375 -36.84375 C 39.28125 -37.625 36.164062 -38.015625 33.03125 -38.015625 C 30.84375 -38.015625 28.96875 -37.578125 27.40625 -36.703125 C 25.84375 -35.828125 25.0625 -34.828125 25.0625 -33.703125 C 25.0625 -32.816406 25.390625 -32.125 26.046875 -31.625 C 26.703125 -31.125 27.5625 -30.875 28.625 -30.875 C 29.6875 -30.875 31.15625 -30.96875 33.03125 -31.15625 C 37.601562 -31.46875 41.015625 -31.625 43.265625 -31.625 C 49.773438 -31.625 54.8125 -30.53125 58.375 -28.34375 C 61.945312 -26.15625 63.734375 -22.804688 63.734375 -18.296875 C 63.734375 -11.546875 61.101562 -6.648438 55.84375 -3.609375 C 50.59375 -0.578125 43.335938 0.9375 34.078125 0.9375 Z M 34.078125 0.9375 "/></g></g></g><g fill="#ffffff" fill-opacity="1"><g transform="translate(59.143574, 106.220664)"><g><path d="M 46.265625 -34.453125 C 40.515625 -34.828125 35.257812 -35.109375 30.5 -35.296875 L 30.40625 -25.34375 C 30.40625 -21.96875 31.140625 -19.320312 32.609375 -17.40625 C 34.085938 -15.5 36.703125 -14.546875 40.453125 -14.546875 C 41.890625 -14.546875 43.265625 -14.671875 44.578125 -14.921875 C 44.328125 -12.609375 44.203125 -10.265625 44.203125 -7.890625 C 44.203125 -6.753906 44.265625 -4.1875 44.390625 -0.1875 C 41.640625 0.3125 39.328125 0.625 37.453125 0.75 C 35.578125 0.875 33.132812 0.9375 30.125 0.9375 C 22.800781 0.9375 17.625 -0.828125 14.59375 -4.359375 C 11.5625 -7.898438 10.046875 -12.828125 10.046875 -19.140625 L 10.140625 -35.015625 C 7.191406 -34.890625 4.125 -34.703125 0.9375 -34.453125 L 0.9375 -51.0625 C 4.1875 -51.0625 6.9375 -52.09375 9.1875 -54.15625 C 11.445312 -56.21875 12.796875 -58.691406 13.234375 -61.578125 L 38.765625 -61.578125 C 35.578125 -57.191406 32.039062 -53.6875 28.15625 -51.0625 L 46.265625 -51.0625 Z M 46.265625 -34.453125 "/></g></g></g><g fill="#ffffff" fill-opacity="1"><g transform="translate(97.434666, 106.220664)"><g><path d="M 33.984375 0.9375 C 23.273438 0.9375 15.398438 -1.515625 10.359375 -6.421875 C 5.328125 -11.335938 2.8125 -17.800781 2.8125 -25.8125 C 2.8125 -33.632812 5.328125 -39.984375 10.359375 -44.859375 C 15.398438 -49.742188 23.273438 -52.1875 33.984375 -52.1875 C 41.171875 -52.1875 47.1875 -51.007812 52.03125 -48.65625 C 56.882812 -46.3125 60.46875 -43.148438 62.78125 -39.171875 C 65.101562 -35.203125 66.265625 -30.75 66.265625 -25.8125 C 66.265625 -17.738281 63.585938 -11.257812 58.234375 -6.375 C 52.890625 -1.5 44.804688 0.9375 33.984375 0.9375 Z M 34.359375 -15.015625 C 38.421875 -15.015625 41.453125 -15.984375 43.453125 -17.921875 C 45.453125 -19.867188 46.453125 -22.46875 46.453125 -25.71875 C 46.453125 -28.78125 45.453125 -31.296875 43.453125 -33.265625 C 41.453125 -35.242188 38.421875 -36.234375 34.359375 -36.234375 C 30.285156 -36.234375 27.3125 -35.257812 25.4375 -33.3125 C 23.5625 -31.375 22.625 -28.84375 22.625 -25.71875 C 22.625 -22.46875 23.5625 -19.867188 25.4375 -17.921875 C 27.3125 -15.984375 30.285156 -15.015625 34.359375 -15.015625 Z M 34.359375 -15.015625 "/></g></g></g><g fill="#ffffff" fill-opacity="1"><g transform="translate(156.655903, 106.220664)"><g><path d="M 25.53125 -37.359375 C 28.15625 -46.804688 34.691406 -51.53125 45.140625 -51.53125 C 46.960938 -51.53125 48.71875 -51.40625 50.40625 -51.15625 L 47.40625 -30.125 C 42.894531 -31.8125 39.203125 -32.65625 36.328125 -32.65625 C 32.753906 -32.65625 30.125 -31.59375 28.4375 -29.46875 C 26.75 -27.34375 25.90625 -24.5 25.90625 -20.9375 L 25.90625 -21.03125 L 25.8125 -14.828125 C 25.8125 -10.390625 25.9375 -5.445312 26.1875 0 L 3.75 0 C 4.25 -9.007812 4.5 -17.519531 4.5 -25.53125 C 4.5 -33.539062 4.25 -42.113281 3.75 -51.25 C 7.882812 -51.0625 11.046875 -50.96875 13.234375 -50.96875 C 15.546875 -50.96875 18.707031 -51.0625 22.71875 -51.25 Z M 25.53125 -37.359375 "/></g></g></g><g fill="#ffffff" fill-opacity="1"><g transform="translate(200.953843, 106.220664)"><g><path d="M 16.328125 -56.78125 C 12.390625 -56.78125 9.460938 -57.75 7.546875 -59.6875 C 5.640625 -61.632812 4.6875 -64.171875 4.6875 -67.296875 C 4.6875 -70.359375 5.640625 -72.890625 7.546875 -74.890625 C 9.460938 -76.898438 12.390625 -77.90625 16.328125 -77.90625 C 20.085938 -77.90625 22.96875 -76.882812 24.96875 -74.84375 C 26.96875 -72.8125 27.96875 -70.296875 27.96875 -67.296875 C 27.96875 -64.171875 27 -61.632812 25.0625 -59.6875 C 23.125 -57.75 20.210938 -56.78125 16.328125 -56.78125 Z M 5.4375 0 C 5.875 -10.070312 6.09375 -18.394531 6.09375 -24.96875 C 6.09375 -32.789062 5.84375 -41.550781 5.34375 -51.25 L 27.875 -51.25 C 27.375 -41.925781 27.125 -33.164062 27.125 -24.96875 C 27.125 -18.082031 27.34375 -9.757812 27.78125 0 Z M 5.4375 0 "/></g></g></g><g fill="#ffffff" fill-opacity="1"><g transform="translate(223.758548, 106.220664)"><g><path d="M 53.40625 -23.46875 L 22.8125 -23.46875 C 23.3125 -20.707031 24.546875 -18.46875 26.515625 -16.75 C 28.484375 -15.03125 31.285156 -14.171875 34.921875 -14.171875 C 37.546875 -14.171875 40.015625 -14.6875 42.328125 -15.71875 C 44.640625 -16.75 46.488281 -18.203125 47.875 -20.078125 C 52.0625 -18.015625 57.628906 -15.796875 64.578125 -13.421875 C 62.640625 -9.046875 59.117188 -5.554688 54.015625 -2.953125 C 48.910156 -0.359375 42.265625 0.9375 34.078125 0.9375 C 23.429688 0.9375 15.554688 -1.515625 10.453125 -6.421875 C 5.359375 -11.335938 2.8125 -17.800781 2.8125 -25.8125 C 2.8125 -33.632812 5.34375 -39.984375 10.40625 -44.859375 C 15.476562 -49.742188 23.367188 -52.1875 34.078125 -52.1875 C 40.453125 -52.1875 45.984375 -51.117188 50.671875 -48.984375 C 55.367188 -46.859375 58.96875 -43.90625 61.46875 -40.125 C 63.976562 -36.34375 65.234375 -32.007812 65.234375 -27.125 C 65.234375 -25.5 65.171875 -24.28125 65.046875 -23.46875 Z M 35.390625 -38.015625 C 32.253906 -38.015625 29.6875 -37.421875 27.6875 -36.234375 C 25.6875 -35.046875 24.28125 -33.414062 23.46875 -31.34375 L 45.609375 -31.34375 C 44.859375 -33.351562 43.640625 -34.96875 41.953125 -36.1875 C 40.265625 -37.40625 38.078125 -38.015625 35.390625 -38.015625 Z M 35.390625 -38.015625 "/></g></g></g><g fill="#ffffff" fill-opacity="1"><g transform="translate(281.947332, 106.220664)"><g><path d="M 34.078125 0.9375 C 28.816406 0.9375 23.476562 0.203125 18.0625 -1.265625 C 12.65625 -2.734375 7.570312 -4.972656 2.8125 -7.984375 L 12.671875 -21.40625 C 15.546875 -19.332031 19.015625 -17.71875 23.078125 -16.5625 C 27.148438 -15.40625 30.660156 -14.828125 33.609375 -14.828125 C 36.421875 -14.828125 38.59375 -15.21875 40.125 -16 C 41.65625 -16.78125 42.421875 -17.796875 42.421875 -19.046875 C 42.421875 -20.054688 42.046875 -20.84375 41.296875 -21.40625 C 40.546875 -21.96875 39.515625 -22.25 38.203125 -22.25 C 37.390625 -22.25 36.46875 -22.21875 35.4375 -22.15625 C 34.40625 -22.09375 33.570312 -22.03125 32.9375 -21.96875 C 29.6875 -21.59375 26.34375 -21.40625 22.90625 -21.40625 C 17.332031 -21.40625 12.804688 -22.453125 9.328125 -24.546875 C 5.859375 -26.640625 4.125 -30.066406 4.125 -34.828125 C 4.125 -40.328125 6.71875 -44.59375 11.90625 -47.625 C 17.101562 -50.664062 24.742188 -52.1875 34.828125 -52.1875 C 39.765625 -52.1875 44.75 -51.484375 49.78125 -50.078125 C 54.820312 -48.671875 59.285156 -46.554688 63.171875 -43.734375 L 52.375 -32.84375 C 48.8125 -34.726562 45.476562 -36.0625 42.375 -36.84375 C 39.28125 -37.625 36.164062 -38.015625 33.03125 -38.015625 C 30.84375 -38.015625 28.96875 -37.578125 27.40625 -36.703125 C 25.84375 -35.828125 25.0625 -34.828125 25.0625 -33.703125 C 25.0625 -32.816406 25.390625 -32.125 26.046875 -31.625 C 26.703125 -31.125 27.5625 -30.875 28.625 -30.875 C 29.6875 -30.875 31.15625 -30.96875 33.03125 -31.15625 C 37.601562 -31.46875 41.015625 -31.625 43.265625 -31.625 C 49.773438 -31.625 54.8125 -30.53125 58.375 -28.34375 C 61.945312 -26.15625 63.734375 -22.804688 63.734375 -18.296875 C 63.734375 -11.546875 61.101562 -6.648438 55.84375 -3.609375 C 50.59375 -0.578125 43.335938 0.9375 34.078125 0.9375 Z M 34.078125 0.9375 "/></g></g></g></g></g><g clip-path="url(#85f2b401ea)"><g clip-path="url(#96f1812b54)"><g clip-path="url(#d130744482)"><g transform="matrix(1, 0, 0, 1, 215, 147)"><g clip-path="url(#6ca23d9146)"><g clip-path="url(#c5b7173e82)"><g clip-path="url(#12d934dd8d)"><g clip-path="url(#27df65033f)"><path fill="#ffffff" d="M 4.210938 16.367188 L -2.964844 8.394531 L 6.347656 0.015625 L 13.523438 7.988281 Z M 4.210938 16.367188 " fill-opacity="1" fill-rule="nonzero"/></g></g></g></g></g></g></g></g><g clip-path="url(#2950ecb3b6)"><g clip-path="url(#e0c1a8d7c6)"><g transform="matrix(1, 0, 0, 1, 216, 135)"><g clip-path="url(#ffb7fc00ab)"><g clip-path="url(#bc581c6201)"><g clip-path="url(#4964d3ca9c)"><path fill="#ffffff" d="M 0.984375 0.410156 L 25.394531 0.410156 L 25.394531 23.296875 L 0.984375 23.296875 Z M 0.984375 0.410156 " fill-opacity="1" fill-rule="nonzero"/></g></g></g></g></g></g></svg>