<svg xmlns="http://www.w3.org/2000/svg" xmlns:xlink="http://www.w3.org/1999/xlink" width="500" zoomAndPan="magnify" viewBox="0 0 375 374.999991" height="500" preserveAspectRatio="xMidYMid meet" version="1.0"><defs><g/><clipPath id="560a243bae"><path d="M 79.738281 37.5 L 294.988281 37.5 L 294.988281 257.25 L 79.738281 257.25 Z M 79.738281 37.5 " clip-rule="nonzero"/></clipPath><clipPath id="7de000415f"><rect x="0" width="196" y="0" height="22"/></clipPath><clipPath id="95f853f124"><rect x="0" width="306" y="0" height="57"/></clipPath></defs><g clip-path="url(#560a243bae)"><path fill="#ffffff" d="M 113.625 220.371094 C 111.867188 219.714844 109.882812 219.492188 108.125 219.492188 C 107.679688 221.46875 107.679688 223.441406 108.125 225.191406 C 108.785156 227.820312 110.101562 230.457031 112.082031 232.425781 C 114.058594 234.402344 116.476562 235.714844 118.898438 236.597656 C 120.878906 237.03125 122.855469 237.257812 124.839844 237.03125 C 124.839844 235.933594 124.839844 234.839844 124.839844 233.964844 C 124.621094 232.652344 124.179688 231.554688 123.960938 230.242188 C 123.515625 229.363281 122.855469 228.265625 122.421875 227.167969 C 121.757812 226.289062 121.097656 225.410156 120.21875 224.539062 C 118.460938 222.5625 116.042969 221.25 113.625 220.371094 Z M 123.960938 108.769531 L 124.839844 108.769531 C 127.917969 108.328125 131 107.019531 133.191406 105.035156 C 135.609375 103.285156 137.59375 100.65625 138.691406 97.808594 C 140.011719 94.738281 140.230469 91.664062 139.792969 88.601562 C 139.570312 87.503906 139.351562 86.40625 138.917969 85.085938 C 138.691406 85.527344 138.253906 85.972656 138.03125 86.40625 C 134.070312 91.449219 126.597656 94.292969 124.394531 100.4375 C 123.296875 103.070312 123.082031 105.921875 123.960938 108.769531 Z M 143.527344 133.761719 C 144.632812 133.761719 145.949219 133.761719 147.050781 133.546875 C 151.226562 133.101562 155.40625 131.570312 158.929688 128.941406 C 162.445312 126.085938 165.089844 122.585938 166.621094 118.632812 C 167.28125 116.664062 167.941406 114.472656 168.160156 112.277344 C 167.507812 112.714844 167.0625 112.941406 166.621094 113.148438 C 157.824219 117.972656 146.609375 116.664062 143.753906 129.375 C 143.527344 130.917969 143.3125 132.230469 143.527344 133.761719 Z M 143.09375 54.832031 C 141.769531 57.246094 140.675781 60.097656 140.457031 62.945312 C 155.40625 66.671875 158.703125 53.292969 167.507812 46.503906 L 167.941406 46.277344 C 166.183594 45.625 164.425781 45.179688 162.660156 45.179688 C 158.929688 44.746094 154.96875 45.40625 151.445312 47.164062 C 147.929688 48.914062 145.070312 51.542969 143.09375 54.832031 Z M 149.6875 231.113281 C 149.90625 231.335938 150.132812 231.554688 150.351562 231.554688 C 152.324219 229.363281 153.648438 226.507812 154.089844 223.660156 C 154.75 218.621094 151.671875 212.699219 149.46875 207.871094 C 148.367188 208.964844 147.050781 211.601562 146.390625 212.917969 C 144.851562 215.984375 144.40625 219.273438 145.070312 222.5625 C 145.730469 226.070312 147.269531 228.917969 149.6875 231.113281 Z M 119.121094 196.472656 L 119.339844 196.472656 C 118.460938 192.964844 116.476562 189.894531 114.058594 187.699219 C 107.90625 182.222656 102.40625 184.191406 95.585938 181.5625 C 95.367188 181.5625 95.144531 181.5625 94.707031 181.34375 C 95.367188 183.753906 96.03125 185.949219 97.34375 187.699219 C 99.546875 191.207031 102.84375 194.0625 106.800781 195.8125 C 110.761719 197.351562 115.164062 197.570312 119.121094 196.472656 Z M 261.414062 220.371094 C 263.171875 219.714844 265.15625 219.492188 266.914062 219.492188 C 267.355469 221.46875 267.355469 223.441406 266.914062 225.191406 C 266.253906 227.820312 264.929688 230.457031 262.957031 232.425781 C 260.972656 234.402344 258.554688 235.714844 256.132812 236.597656 C 254.160156 237.03125 252.175781 237.257812 250.199219 237.03125 C 250.199219 235.933594 250.199219 234.839844 250.199219 233.964844 C 250.417969 232.652344 250.859375 231.554688 251.296875 230.242188 C 251.523438 229.363281 252.175781 228.265625 252.617188 227.167969 C 253.28125 226.289062 253.941406 225.410156 254.820312 224.539062 C 256.578125 222.5625 258.996094 221.25 261.414062 220.371094 Z M 251.078125 108.769531 L 250.199219 108.769531 C 247.121094 108.328125 244.039062 107.019531 241.839844 105.035156 C 239.421875 103.285156 237.445312 100.65625 236.339844 97.808594 C 235.027344 94.738281 234.808594 91.664062 235.242188 88.601562 C 235.460938 87.503906 235.6875 86.40625 236.121094 85.085938 C 236.339844 85.527344 236.785156 85.972656 237 86.40625 C 240.960938 91.449219 248.441406 94.292969 250.636719 100.4375 C 251.742188 103.070312 251.957031 105.921875 251.078125 108.769531 Z M 231.503906 133.761719 C 230.40625 133.761719 229.082031 133.761719 227.988281 133.546875 C 223.808594 133.101562 219.625 131.570312 216.109375 128.941406 C 212.59375 126.085938 209.949219 122.585938 208.410156 118.632812 C 207.75 116.664062 207.097656 114.472656 207.097656 112.277344 C 207.53125 112.714844 207.976562 112.941406 208.410156 113.148438 C 217.207031 117.972656 228.429688 116.664062 231.285156 129.375 C 231.503906 130.917969 231.726562 132.230469 231.503906 133.761719 Z M 231.945312 54.832031 C 233.269531 57.246094 234.363281 60.097656 234.582031 62.945312 C 219.625 66.671875 216.328125 53.292969 207.53125 46.503906 L 207.09375 46.277344 C 208.855469 45.625 210.613281 45.179688 212.371094 45.179688 C 216.109375 44.746094 220.070312 45.40625 223.585938 47.164062 C 227.109375 48.914062 229.964844 51.542969 231.945312 54.832031 Z M 225.351562 231.113281 C 225.125 231.335938 224.90625 231.554688 224.6875 231.554688 C 222.707031 229.363281 221.390625 226.507812 220.949219 223.660156 C 220.289062 218.621094 223.367188 212.699219 225.566406 207.871094 C 226.664062 208.964844 227.988281 211.601562 228.648438 212.917969 C 230.1875 215.984375 230.625 219.273438 229.964844 222.5625 C 229.308594 226.070312 227.769531 228.917969 225.351562 231.113281 Z M 255.917969 196.472656 L 255.699219 196.472656 C 256.578125 192.964844 258.554688 189.894531 260.972656 187.699219 C 267.132812 182.222656 272.628906 184.191406 279.453125 181.5625 C 279.671875 181.5625 279.886719 181.5625 280.332031 181.34375 C 279.671875 183.753906 279.007812 185.949219 277.695312 187.699219 C 275.492188 191.207031 272.195312 194.0625 268.238281 195.8125 C 264.277344 197.351562 259.875 197.570312 255.917969 196.472656 Z M 243.378906 239.226562 C 241.402344 242.296875 238.765625 244.925781 235.90625 246.683594 C 232.382812 248.871094 228.648438 249.96875 224.472656 250.191406 C 220.511719 250.410156 216.554688 249.53125 213.03125 247.78125 C 209.515625 246.023438 206.433594 243.394531 204.234375 239.886719 L 204.015625 239.667969 C 207.972656 241.855469 212.59375 242.734375 217.207031 242.296875 C 222.269531 241.636719 226.664062 239.441406 230.1875 236.378906 C 233.484375 233.085938 236.121094 228.699219 237 223.878906 C 237.878906 219.054688 237.226562 214.230469 235.027344 209.84375 C 231.945312 203.273438 227.542969 200.851562 221.390625 197.789062 C 220.949219 209.84375 212.371094 211.601562 214.132812 224.539062 C 214.570312 228.265625 216.109375 231.773438 218.3125 234.839844 C 217.652344 235.0625 216.988281 235.0625 216.554688 235.28125 C 213.03125 235.5 209.734375 234.839844 206.871094 233.304688 C 204.234375 231.773438 202.03125 229.363281 200.492188 226.507812 C 199.839844 219.933594 199.613281 206.335938 201.152344 200.417969 C 205.332031 186.167969 225.351562 185.730469 236.339844 192.523438 C 242.28125 196.253906 246.683594 201.296875 254.160156 203.273438 C 259.65625 204.804688 265.375 204.359375 270.875 202.175781 C 276.371094 199.980469 280.765625 196.253906 283.628906 191.425781 C 286.710938 186.820312 288.03125 181.125 287.585938 175.207031 L 286.925781 169.289062 L 282.089844 172.570312 C 280.550781 173.667969 278.792969 174.328125 277.035156 174.980469 C 269.117188 177.835938 264.496094 175.207031 256.359375 182.441406 C 253.0625 185.289062 250.636719 189.015625 249.320312 193.402344 C 246.683594 191.867188 240.960938 184.851562 226.890625 181.5625 C 227.109375 181.34375 227.542969 181.125 227.769531 180.902344 C 231.285156 177.617188 234.363281 173.882812 236.785156 169.941406 C 237.664062 168.191406 237 165.996094 235.460938 165.117188 C 233.703125 164.019531 231.503906 164.683594 230.625 166.433594 C 228.648438 169.722656 226.003906 173.011719 223.148438 175.644531 C 215.449219 182.222656 208.410156 181.996094 201.152344 188.359375 C 200.9375 188.578125 200.492188 188.796875 200.273438 189.015625 C 199.394531 178.488281 201.152344 167.09375 209.949219 160.296875 C 215.890625 155.253906 224.027344 153.933594 232.382812 156.125 C 236.339844 157.007812 240.082031 158.761719 243.378906 161.175781 L 243.605469 161.390625 C 252.175781 166.433594 260.09375 169.289062 267.359375 169.289062 C 274.832031 169.289062 281.429688 166.652344 287.371094 161.175781 L 287.585938 160.949219 C 290.667969 157.667969 292.867188 153.496094 294.183594 149.109375 C 295.289062 144.730469 295.289062 140.117188 294.410156 135.519531 C 293.304688 130.917969 291.101562 126.746094 288.25 123.238281 C 285.167969 119.957031 281.429688 117.101562 277.25 115.570312 C 275.710938 114.691406 273.953125 114.035156 271.96875 113.375 C 274.832031 108.769531 276.371094 103.730469 276.808594 98.683594 C 277.25 91.890625 275.710938 84.875 272.195312 78.730469 C 268.453125 72.59375 263.171875 67.988281 256.796875 65.132812 C 252.175781 62.945312 246.902344 61.851562 241.621094 62.066406 C 241.183594 58.117188 239.863281 54.390625 237.878906 51.101562 C 235.242188 46.9375 231.503906 43.214844 226.664062 40.800781 C 222.046875 38.609375 216.773438 37.511719 211.707031 38.164062 C 207.75 38.390625 201.371094 40.585938 195.65625 46.9375 C 205.773438 50.449219 207.097656 59.875 215.894531 66.230469 C 217.652344 67.550781 219.410156 68.648438 221.390625 69.519531 C 220.289062 70.179688 219.410156 71.054688 218.53125 72.148438 C 213.691406 76.980469 210.394531 83.117188 209.070312 90.132812 C 208.855469 92.101562 209.953125 93.859375 211.933594 94.296875 C 213.910156 94.519531 215.667969 93.421875 216.109375 91.449219 C 216.988281 85.746094 219.628906 80.921875 223.367188 76.980469 C 227.328125 73.246094 232.164062 70.398438 237.882812 69.519531 C 243.378906 68.421875 249.105469 69.085938 253.941406 71.496094 C 258.996094 73.6875 263.175781 77.414062 266.035156 82.238281 C 268.890625 87.066406 270.214844 92.761719 269.777344 98.019531 C 269.335938 102.851562 267.792969 107.457031 264.933594 111.398438 C 262.957031 110.964844 260.535156 110.300781 258.117188 109.867188 C 258.996094 105.921875 258.777344 101.753906 257.457031 98.019531 C 254.59375 90.351562 240.082031 84.875 235.027344 73.90625 L 233.488281 75.882812 C 230.625 79.390625 228.867188 83.335938 228.207031 87.503906 C 227.542969 91.890625 227.988281 96.269531 229.746094 100.214844 C 231.285156 104.382812 233.921875 107.890625 237.445312 110.519531 C 240.742188 113.148438 244.703125 115.132812 249.105469 115.570312 C 255.257812 116.441406 260.320312 117.535156 264.714844 118.414062 C 268.671875 119.511719 271.96875 120.609375 274.171875 121.707031 L 274.390625 121.921875 C 277.695312 123.238281 280.550781 125.214844 282.75 127.84375 C 284.949219 130.472656 286.710938 133.546875 287.371094 137.054688 C 288.25 140.5625 288.25 144.070312 287.371094 147.359375 C 286.492188 150.648438 284.726562 153.496094 282.308594 156.125 C 278.347656 159.851562 273.511719 162.046875 268.453125 162.269531 C 268.890625 161.828125 269.117188 161.609375 269.332031 161.175781 C 272.632812 157.882812 274.613281 153.277344 274.613281 148.238281 C 274.390625 143.199219 272.414062 138.585938 269.117188 135.296875 C 265.59375 131.570312 260.972656 129.820312 255.917969 129.375 C 249.101562 128.722656 244.699219 130.253906 238.542969 132.230469 C 238.542969 130.914062 238.542969 129.375 238.105469 128.070312 C 234.582031 111.84375 222.929688 113.148438 211.707031 107.019531 C 209.730469 105.921875 207.972656 104.601562 206.214844 102.851562 L 201.371094 98.464844 L 200.273438 104.828125 C 199.394531 110.519531 199.839844 116.222656 202.03125 121.261719 C 204.015625 126.3125 207.3125 130.917969 211.933594 134.425781 C 216.328125 137.933594 221.828125 139.90625 227.324219 140.5625 C 229.746094 140.78125 232.382812 140.78125 235.023438 140.5625 C 242.71875 139.464844 246.683594 135.519531 255.253906 136.390625 C 258.777344 136.617188 261.859375 137.714844 264.050781 140.117188 C 266.253906 142.3125 267.359375 145.167969 267.574219 148.238281 C 267.574219 151.304688 266.253906 154.375 264.277344 156.351562 C 262.292969 158.539062 259.875 159.851562 257.019531 160.078125 C 253.941406 158.980469 250.636719 157.441406 247.335938 155.253906 C 243.378906 152.617188 238.765625 150.425781 234.144531 149.335938 C 226.226562 147.132812 220.730469 147.132812 213.691406 149.988281 C 213.691406 148.675781 213.691406 147.132812 213.472656 145.828125 C 212.8125 142.972656 211.707031 140.5625 209.949219 138.367188 C 208.191406 136.183594 205.992188 134.640625 203.355469 133.328125 C 201.597656 132.667969 199.613281 133.328125 198.734375 135.085938 C 198.074219 136.835938 198.734375 139.019531 200.492188 139.90625 C 202.03125 140.5625 203.355469 141.441406 204.449219 142.753906 C 211.488281 151.519531 202.03125 157.003906 198.296875 162.925781 C 191.921875 173.449219 192.355469 186.820312 194.339844 198.667969 C 192.355469 206.335938 192.574219 221.246094 193.679688 229.359375 C 195.21875 239.441406 198.953125 248.652344 209.730469 253.917969 C 214.351562 256.328125 219.625 257.425781 224.90625 257.207031 C 230.1875 256.984375 235.242188 255.449219 239.644531 252.820312 C 243.160156 250.410156 246.242188 247.554688 248.660156 243.828125 C 251.738281 244.273438 255.035156 244.046875 257.898438 243.394531 C 261.632812 242.296875 265.375 240.105469 268.011719 237.257812 C 270.871094 234.183594 272.847656 230.675781 273.734375 226.730469 C 274.613281 222.996094 274.386719 218.835938 273.074219 215.109375 L 272.414062 212.917969 L 270.210938 212.699219 C 266.46875 212.039062 262.738281 212.472656 259.214844 213.570312 C 255.699219 214.886719 252.402344 216.859375 249.757812 219.714844 C 248.660156 220.8125 247.5625 222.125 246.683594 223.660156 C 245.796875 224.972656 245.144531 226.507812 244.484375 228.046875 C 244.039062 229.578125 243.605469 231.335938 243.378906 233.085938 C 243.160156 234.835938 243.160156 236.59375 243.160156 238.351562 C 243.160156 238.570312 243.378906 239.007812 243.378906 239.226562 Z M 211.933594 71.496094 C 211.933594 68.421875 209.515625 66.019531 206.652344 66.019531 C 203.574219 66.019531 201.152344 68.421875 201.152344 71.496094 C 201.152344 74.566406 203.574219 76.980469 206.652344 76.980469 C 209.515625 76.980469 211.933594 74.566406 211.933594 71.496094 Z M 173.886719 71.496094 C 173.886719 68.421875 171.464844 66.019531 168.386719 66.019531 C 165.523438 66.019531 163.105469 68.421875 163.105469 71.496094 C 163.105469 74.566406 165.523438 76.980469 168.386719 76.980469 C 171.464844 76.980469 173.886719 74.566406 173.886719 71.496094 Z M 248.878906 178.273438 C 248.878906 175.207031 246.460938 172.796875 243.378906 172.796875 C 240.300781 172.796875 237.878906 175.207031 237.878906 178.273438 C 237.878906 181.34375 240.300781 183.757812 243.378906 183.757812 C 246.460938 183.757812 248.878906 181.34375 248.878906 178.273438 Z M 137.152344 178.273438 C 137.152344 175.207031 134.730469 172.796875 131.652344 172.796875 C 128.578125 172.796875 126.160156 175.207031 126.160156 178.273438 C 126.160156 181.34375 128.578125 183.757812 131.652344 183.757812 C 134.730469 183.757812 137.152344 181.34375 137.152344 178.273438 Z M 93.609375 108.550781 C 93.609375 105.480469 91.183594 103.070312 88.113281 103.070312 C 85.03125 103.070312 82.613281 105.480469 82.613281 108.550781 C 82.613281 111.617188 85.03125 114.035156 88.113281 114.035156 C 91.183594 114.035156 93.609375 111.617188 93.609375 108.550781 Z M 292.425781 108.550781 C 292.425781 105.480469 290.007812 103.070312 286.925781 103.070312 C 283.847656 103.070312 281.429688 105.480469 281.429688 108.550781 C 281.429688 111.617188 283.847656 114.035156 286.925781 114.035156 C 290.007812 114.035156 292.425781 111.617188 292.425781 108.550781 Z M 257.675781 51.761719 C 257.675781 48.695312 255.257812 46.277344 252.175781 46.277344 C 249.101562 46.277344 246.683594 48.695312 246.683594 51.761719 C 246.683594 54.832031 249.101562 57.246094 252.175781 57.246094 C 255.257812 57.246094 257.675781 54.832031 257.675781 51.761719 Z M 128.578125 51.761719 C 128.578125 48.695312 125.933594 46.277344 122.855469 46.277344 C 120 46.277344 117.355469 48.695312 117.355469 51.761719 C 117.355469 54.832031 120 57.246094 122.855469 57.246094 C 125.933594 57.246094 128.578125 54.832031 128.578125 51.761719 Z M 134.957031 210.0625 C 134.957031 207 132.3125 204.585938 129.234375 204.585938 C 126.378906 204.585938 123.734375 207 123.734375 210.0625 C 123.734375 213.136719 126.378906 215.546875 129.234375 215.546875 C 132.3125 215.546875 134.957031 213.136719 134.957031 210.0625 Z M 251.296875 210.0625 C 251.296875 207 248.660156 204.585938 245.796875 204.585938 C 242.71875 204.585938 240.082031 207 240.082031 210.0625 C 240.082031 213.136719 242.71875 215.546875 245.796875 215.546875 C 248.660156 215.546875 251.296875 213.136719 251.296875 210.0625 Z M 289.347656 208.75 C 289.347656 205.683594 286.925781 203.273438 283.847656 203.273438 C 280.765625 203.273438 278.347656 205.683594 278.347656 208.75 C 278.347656 211.820312 280.765625 214.230469 283.847656 214.230469 C 286.925781 214.230469 289.347656 211.820312 289.347656 208.75 Z M 96.683594 208.75 C 96.683594 205.683594 94.265625 203.273438 91.183594 203.273438 C 88.113281 203.273438 85.691406 205.683594 85.691406 208.75 C 85.691406 211.820312 88.113281 214.230469 91.183594 214.230469 C 94.265625 214.230469 96.683594 211.820312 96.683594 208.75 Z M 131.652344 239.226562 C 133.636719 242.296875 136.273438 244.925781 139.132812 246.683594 C 142.648438 248.871094 146.390625 249.96875 150.566406 250.191406 C 154.527344 250.410156 158.484375 249.53125 162.007812 247.78125 C 165.523438 246.023438 168.601562 243.394531 170.804688 239.886719 L 171.023438 239.667969 C 167.0625 241.855469 162.445312 242.734375 157.824219 242.296875 C 152.769531 241.636719 148.367188 239.441406 144.851562 236.378906 C 141.550781 233.085938 138.914062 228.699219 138.03125 223.878906 C 137.152344 219.054688 137.8125 214.230469 140.011719 209.84375 C 143.308594 203.273438 147.488281 200.851562 153.648438 197.789062 C 154.089844 209.84375 162.660156 211.601562 160.902344 224.539062 C 160.46875 228.265625 158.929688 231.773438 156.726562 234.839844 C 157.386719 235.0625 158.050781 235.0625 158.484375 235.28125 C 162.007812 235.5 165.304688 234.839844 168.160156 233.304688 C 170.804688 231.773438 173 229.363281 174.539062 226.507812 C 175.199219 219.933594 175.425781 206.335938 173.882812 200.417969 C 169.699219 186.167969 149.6875 185.730469 138.691406 192.523438 C 132.757812 196.253906 128.355469 201.296875 120.878906 203.273438 C 115.378906 204.804688 109.664062 204.359375 104.164062 202.175781 C 98.664062 199.980469 94.265625 196.253906 91.410156 191.425781 C 88.328125 186.820312 87.007812 181.125 87.449219 175.207031 L 88.113281 169.289062 L 92.949219 172.570312 C 94.488281 173.667969 96.246094 174.328125 98.003906 174.980469 C 105.921875 177.835938 110.542969 175.207031 118.679688 182.441406 C 121.976562 185.289062 124.394531 189.015625 125.71875 193.402344 C 128.578125 191.867188 134.070312 184.851562 148.148438 181.5625 C 147.929688 181.34375 147.488281 181.125 147.269531 180.902344 C 143.753906 177.617188 140.675781 173.882812 138.253906 169.941406 C 137.375 168.191406 138.03125 165.996094 139.570312 165.117188 C 141.335938 164.019531 143.527344 164.683594 144.40625 166.433594 C 146.390625 169.722656 149.027344 173.011719 151.890625 175.644531 C 159.589844 182.222656 166.621094 181.996094 173.886719 188.359375 C 174.101562 188.578125 174.539062 188.796875 174.761719 189.015625 C 175.640625 178.488281 173.886719 167.09375 165.085938 160.296875 C 159.144531 155.253906 151.011719 153.933594 142.648438 156.125 C 138.691406 157.007812 134.957031 158.761719 131.652344 161.175781 L 131.433594 161.390625 C 122.855469 166.433594 114.9375 169.289062 107.679688 169.289062 C 100.207031 169.289062 93.609375 166.652344 87.667969 161.175781 L 87.449219 160.949219 C 84.371094 157.667969 82.167969 153.496094 80.847656 149.109375 C 79.75 144.730469 79.75 140.117188 80.628906 135.519531 C 81.734375 130.917969 83.925781 126.746094 86.789062 123.238281 C 89.871094 119.957031 93.609375 117.101562 97.785156 115.570312 C 99.328125 114.691406 101.085938 114.035156 103.058594 113.375 C 100.207031 108.769531 98.664062 103.730469 98.222656 98.683594 C 97.785156 91.890625 99.328125 84.875 102.84375 78.730469 C 106.582031 72.59375 111.863281 67.988281 118.242188 65.132812 C 122.855469 62.945312 128.136719 61.851562 133.417969 62.066406 C 133.851562 58.117188 135.175781 54.390625 137.152344 51.101562 C 139.792969 46.9375 143.527344 43.214844 148.367188 40.800781 C 152.984375 38.609375 158.265625 37.511719 163.324219 38.164062 C 167.28125 38.390625 173.660156 40.585938 179.382812 46.9375 C 169.265625 50.449219 167.941406 59.875 159.144531 66.230469 C 157.386719 67.550781 155.628906 68.648438 153.648438 69.519531 C 154.75 70.179688 155.628906 71.054688 156.507812 72.148438 C 161.347656 76.980469 164.644531 83.117188 165.96875 90.132812 C 166.183594 92.101562 165.089844 93.859375 163.105469 94.296875 C 161.128906 94.519531 159.363281 93.421875 158.929688 91.449219 C 158.050781 85.746094 155.40625 80.921875 151.671875 76.980469 C 147.714844 73.246094 142.875 70.398438 137.152344 69.519531 C 131.652344 68.421875 125.9375 69.085938 121.097656 71.496094 C 116.042969 73.6875 111.867188 77.414062 109.003906 82.238281 C 106.140625 87.066406 104.828125 92.761719 105.261719 98.019531 C 105.707031 102.851562 107.246094 107.457031 110.101562 111.398438 C 112.082031 110.964844 114.503906 110.300781 116.921875 109.867188 C 116.042969 105.921875 116.261719 101.753906 117.582031 98.019531 C 120.4375 90.351562 134.957031 84.875 140.011719 73.90625 L 141.554688 75.882812 C 144.40625 79.390625 146.171875 83.335938 146.835938 87.503906 C 147.488281 91.890625 147.050781 96.269531 145.292969 100.214844 C 143.753906 104.382812 141.109375 107.890625 137.59375 110.519531 C 134.296875 113.148438 130.339844 115.132812 125.9375 115.570312 C 119.777344 116.441406 114.71875 117.535156 110.324219 118.414062 C 106.367188 119.511719 103.0625 120.609375 100.867188 121.707031 L 100.644531 121.921875 C 97.34375 123.238281 94.488281 125.214844 92.289062 127.84375 C 90.089844 130.472656 88.332031 133.546875 87.667969 137.054688 C 86.789062 140.5625 86.789062 144.070312 87.667969 147.359375 C 88.546875 150.648438 90.304688 153.496094 92.726562 156.125 C 96.683594 159.851562 101.527344 162.046875 106.585938 162.269531 C 106.140625 161.828125 105.921875 161.609375 105.707031 161.175781 C 102.410156 157.882812 100.425781 153.277344 100.425781 148.238281 C 100.644531 143.199219 102.625 138.585938 105.921875 135.296875 C 109.4375 131.570312 114.058594 129.820312 119.121094 129.375 C 125.9375 128.722656 130.554688 130.253906 136.496094 132.230469 C 136.496094 130.914062 136.714844 129.375 136.933594 128.070312 C 140.457031 111.84375 152.109375 113.148438 163.324219 107.019531 C 165.308594 105.921875 167.066406 104.601562 168.824219 102.851562 L 173.660156 98.464844 L 174.765625 104.828125 C 175.644531 110.519531 175.199219 116.222656 173.222656 121.261719 C 171.023438 126.3125 167.726562 130.917969 163.105469 134.425781 C 158.703125 137.933594 153.210938 139.90625 147.714844 140.5625 C 145.292969 140.78125 142.648438 140.78125 140.011719 140.5625 C 132.3125 139.464844 128.355469 135.519531 119.773438 136.390625 C 116.261719 136.617188 113.179688 137.714844 110.980469 140.117188 C 108.785156 142.3125 107.679688 145.167969 107.464844 148.238281 C 107.464844 151.304688 108.785156 154.375 110.761719 156.351562 C 112.742188 158.539062 115.164062 159.851562 118.019531 160.078125 C 121.097656 158.980469 124.394531 157.441406 127.691406 155.253906 C 131.652344 152.617188 136.273438 150.425781 140.890625 149.335938 C 148.808594 147.132812 154.308594 147.132812 161.347656 149.988281 C 161.347656 148.675781 161.347656 147.132812 161.566406 145.828125 C 162.226562 142.972656 163.324219 140.5625 165.085938 138.367188 C 166.84375 136.183594 169.046875 134.640625 171.683594 133.328125 C 173.441406 132.667969 175.425781 133.328125 176.304688 135.085938 C 176.957031 136.835938 176.304688 139.019531 174.539062 139.90625 C 173 140.5625 171.683594 141.441406 170.578125 142.753906 C 163.546875 151.519531 173 157.003906 176.738281 162.925781 C 183.117188 173.449219 182.898438 186.820312 180.699219 198.667969 C 182.679688 206.335938 182.457031 221.246094 181.359375 229.359375 C 179.820312 239.441406 176.078125 248.652344 165.304688 253.917969 C 160.683594 256.328125 155.40625 257.425781 150.132812 257.207031 C 144.851562 256.984375 139.792969 255.449219 135.390625 252.820312 C 131.875 250.410156 128.796875 247.554688 126.378906 243.828125 C 123.296875 244.273438 120 244.046875 117.136719 243.394531 C 113.398438 242.296875 109.882812 240.105469 107.019531 237.257812 C 104.164062 234.183594 102.183594 230.675781 101.304688 226.730469 C 100.425781 222.996094 100.640625 218.835938 101.964844 215.109375 L 102.625 212.917969 L 104.828125 212.699219 C 108.558594 212.039062 112.300781 212.472656 115.824219 213.570312 C 119.339844 214.886719 122.636719 216.859375 125.273438 219.714844 C 126.378906 220.8125 127.476562 222.125 128.355469 223.660156 C 129.234375 224.972656 129.894531 226.507812 130.554688 228.046875 C 131 229.578125 131.433594 231.335938 131.652344 233.085938 C 131.878906 234.835938 131.878906 236.59375 131.878906 238.351562 C 131.878906 238.570312 131.652344 239.007812 131.652344 239.226562 Z M 131.652344 239.226562 " fill-opacity="1" fill-rule="nonzero"/></g><g transform="matrix(1, 0, 0, 1, 90, 317)"><g clip-path="url(#7de000415f)"><g fill="#699992" fill-opacity="0.4"><g transform="translate(1.601164, 16.608626)"><g><path d="M 6.296875 -11.65625 C 7.796875 -11.65625 8.976562 -11.289062 9.84375 -10.5625 C 10.71875 -9.84375 11.15625 -8.851562 11.15625 -7.59375 C 11.15625 -6.320312 10.71875 -5.328125 9.84375 -4.609375 C 8.976562 -3.890625 7.796875 -3.53125 6.296875 -3.53125 L 3.40625 -3.53125 L 3.40625 0 L 1.75 0 L 1.75 -11.65625 Z M 6.234375 -4.96875 C 7.296875 -4.96875 8.101562 -5.191406 8.65625 -5.640625 C 9.207031 -6.097656 9.484375 -6.75 9.484375 -7.59375 C 9.484375 -8.4375 9.207031 -9.082031 8.65625 -9.53125 C 8.101562 -9.976562 7.296875 -10.203125 6.234375 -10.203125 L 3.40625 -10.203125 L 3.40625 -4.96875 Z M 6.234375 -4.96875 "/></g></g></g><g fill="#699992" fill-opacity="0.4"><g transform="translate(15.023863, 16.608626)"><g><path d="M 5.140625 0.140625 C 4.265625 0.140625 3.414062 0.00390625 2.59375 -0.265625 C 1.78125 -0.546875 1.144531 -0.898438 0.6875 -1.328125 L 1.296875 -2.625 C 1.742188 -2.226562 2.3125 -1.90625 3 -1.65625 C 3.695312 -1.40625 4.410156 -1.28125 5.140625 -1.28125 C 6.109375 -1.28125 6.828125 -1.441406 7.296875 -1.765625 C 7.773438 -2.097656 8.015625 -2.535156 8.015625 -3.078125 C 8.015625 -3.472656 7.882812 -3.796875 7.625 -4.046875 C 7.363281 -4.296875 7.039062 -4.488281 6.65625 -4.625 C 6.28125 -4.757812 5.742188 -4.910156 5.046875 -5.078125 C 4.171875 -5.285156 3.460938 -5.492188 2.921875 -5.703125 C 2.378906 -5.921875 1.914062 -6.25 1.53125 -6.6875 C 1.15625 -7.125 0.96875 -7.710938 0.96875 -8.453125 C 0.96875 -9.078125 1.128906 -9.640625 1.453125 -10.140625 C 1.785156 -10.640625 2.28125 -11.035156 2.9375 -11.328125 C 3.601562 -11.628906 4.429688 -11.78125 5.421875 -11.78125 C 6.109375 -11.78125 6.785156 -11.691406 7.453125 -11.515625 C 8.117188 -11.335938 8.691406 -11.082031 9.171875 -10.75 L 8.625 -9.421875 C 8.132812 -9.734375 7.609375 -9.96875 7.046875 -10.125 C 6.492188 -10.28125 5.953125 -10.359375 5.421875 -10.359375 C 4.484375 -10.359375 3.773438 -10.1875 3.296875 -9.84375 C 2.828125 -9.5 2.59375 -9.054688 2.59375 -8.515625 C 2.59375 -8.117188 2.722656 -7.796875 2.984375 -7.546875 C 3.253906 -7.296875 3.585938 -7.097656 3.984375 -6.953125 C 4.378906 -6.816406 4.914062 -6.671875 5.59375 -6.515625 C 6.46875 -6.304688 7.171875 -6.097656 7.703125 -5.890625 C 8.234375 -5.679688 8.691406 -5.359375 9.078125 -4.921875 C 9.460938 -4.492188 9.65625 -3.910156 9.65625 -3.171875 C 9.65625 -2.566406 9.488281 -2.007812 9.15625 -1.5 C 8.820312 -1 8.316406 -0.597656 7.640625 -0.296875 C 6.960938 -0.00390625 6.128906 0.140625 5.140625 0.140625 Z M 5.140625 0.140625 "/></g></g></g><g fill="#699992" fill-opacity="0.4"><g transform="translate(26.766768, 16.608626)"><g><path d="M 6.203125 -4.03125 L 6.203125 0 L 4.5625 0 L 4.5625 -4.0625 L -0.0625 -11.65625 L 1.71875 -11.65625 L 5.4375 -5.515625 L 9.1875 -11.65625 L 10.828125 -11.65625 Z M 6.203125 -4.03125 "/></g></g></g><g fill="#699992" fill-opacity="0.4"><g transform="translate(38.942096, 16.608626)"><g><path d="M 6.953125 0.140625 C 5.785156 0.140625 4.734375 -0.117188 3.796875 -0.640625 C 2.859375 -1.160156 2.125 -1.867188 1.59375 -2.765625 C 1.0625 -3.671875 0.796875 -4.691406 0.796875 -5.828125 C 0.796875 -6.953125 1.0625 -7.96875 1.59375 -8.875 C 2.125 -9.78125 2.859375 -10.488281 3.796875 -11 C 4.742188 -11.519531 5.800781 -11.78125 6.96875 -11.78125 C 7.882812 -11.78125 8.71875 -11.625 9.46875 -11.3125 C 10.21875 -11.007812 10.863281 -10.5625 11.40625 -9.96875 L 10.3125 -8.921875 C 9.4375 -9.835938 8.34375 -10.296875 7.03125 -10.296875 C 6.164062 -10.296875 5.382812 -10.101562 4.6875 -9.71875 C 3.988281 -9.332031 3.441406 -8.796875 3.046875 -8.109375 C 2.660156 -7.429688 2.46875 -6.671875 2.46875 -5.828125 C 2.46875 -4.984375 2.660156 -4.21875 3.046875 -3.53125 C 3.441406 -2.851562 3.988281 -2.316406 4.6875 -1.921875 C 5.382812 -1.535156 6.164062 -1.34375 7.03125 -1.34375 C 8.332031 -1.34375 9.425781 -1.8125 10.3125 -2.75 L 11.40625 -1.703125 C 10.863281 -1.097656 10.210938 -0.640625 9.453125 -0.328125 C 8.703125 -0.015625 7.867188 0.140625 6.953125 0.140625 Z M 6.953125 0.140625 "/></g></g></g><g fill="#699992" fill-opacity="0.4"><g transform="translate(52.381423, 16.608626)"><g><path d="M 11.765625 -11.65625 L 11.765625 0 L 10.09375 0 L 10.09375 -5.1875 L 3.40625 -5.1875 L 3.40625 0 L 1.75 0 L 1.75 -11.65625 L 3.40625 -11.65625 L 3.40625 -6.640625 L 10.09375 -6.640625 L 10.09375 -11.65625 Z M 11.765625 -11.65625 "/></g></g></g><g fill="#699992" fill-opacity="0.4"><g transform="translate(67.300976, 16.608626)"><g><path d="M 7 0.140625 C 5.820312 0.140625 4.757812 -0.117188 3.8125 -0.640625 C 2.875 -1.160156 2.132812 -1.875 1.59375 -2.78125 C 1.0625 -3.6875 0.796875 -4.703125 0.796875 -5.828125 C 0.796875 -6.941406 1.0625 -7.953125 1.59375 -8.859375 C 2.132812 -9.773438 2.875 -10.488281 3.8125 -11 C 4.757812 -11.519531 5.820312 -11.78125 7 -11.78125 C 8.164062 -11.78125 9.21875 -11.519531 10.15625 -11 C 11.101562 -10.488281 11.84375 -9.78125 12.375 -8.875 C 12.90625 -7.96875 13.171875 -6.953125 13.171875 -5.828125 C 13.171875 -4.691406 12.90625 -3.671875 12.375 -2.765625 C 11.84375 -1.867188 11.101562 -1.160156 10.15625 -0.640625 C 9.21875 -0.117188 8.164062 0.140625 7 0.140625 Z M 7 -1.34375 C 7.851562 -1.34375 8.617188 -1.535156 9.296875 -1.921875 C 9.984375 -2.316406 10.523438 -2.851562 10.921875 -3.53125 C 11.316406 -4.21875 11.515625 -4.984375 11.515625 -5.828125 C 11.515625 -6.671875 11.316406 -7.429688 10.921875 -8.109375 C 10.523438 -8.796875 9.984375 -9.332031 9.296875 -9.71875 C 8.617188 -10.101562 7.851562 -10.296875 7 -10.296875 C 6.144531 -10.296875 5.367188 -10.101562 4.671875 -9.71875 C 3.984375 -9.332031 3.441406 -8.796875 3.046875 -8.109375 C 2.660156 -7.429688 2.46875 -6.671875 2.46875 -5.828125 C 2.46875 -4.984375 2.660156 -4.21875 3.046875 -3.53125 C 3.441406 -2.851562 3.984375 -2.316406 4.671875 -1.921875 C 5.367188 -1.535156 6.144531 -1.34375 7 -1.34375 Z M 7 -1.34375 "/></g></g></g><g fill="#699992" fill-opacity="0.4"><g transform="translate(82.686226, 16.608626)"><g><path d="M 1.75 -11.65625 L 3.40625 -11.65625 L 3.40625 -1.453125 L 9.71875 -1.453125 L 9.71875 0 L 1.75 0 Z M 1.75 -11.65625 "/></g></g></g><g fill="#699992" fill-opacity="0.4"><g transform="translate(93.980062, 16.608626)"><g><path d="M 7 0.140625 C 5.820312 0.140625 4.757812 -0.117188 3.8125 -0.640625 C 2.875 -1.160156 2.132812 -1.875 1.59375 -2.78125 C 1.0625 -3.6875 0.796875 -4.703125 0.796875 -5.828125 C 0.796875 -6.941406 1.0625 -7.953125 1.59375 -8.859375 C 2.132812 -9.773438 2.875 -10.488281 3.8125 -11 C 4.757812 -11.519531 5.820312 -11.78125 7 -11.78125 C 8.164062 -11.78125 9.21875 -11.519531 10.15625 -11 C 11.101562 -10.488281 11.84375 -9.78125 12.375 -8.875 C 12.90625 -7.96875 13.171875 -6.953125 13.171875 -5.828125 C 13.171875 -4.691406 12.90625 -3.671875 12.375 -2.765625 C 11.84375 -1.867188 11.101562 -1.160156 10.15625 -0.640625 C 9.21875 -0.117188 8.164062 0.140625 7 0.140625 Z M 7 -1.34375 C 7.851562 -1.34375 8.617188 -1.535156 9.296875 -1.921875 C 9.984375 -2.316406 10.523438 -2.851562 10.921875 -3.53125 C 11.316406 -4.21875 11.515625 -4.984375 11.515625 -5.828125 C 11.515625 -6.671875 11.316406 -7.429688 10.921875 -8.109375 C 10.523438 -8.796875 9.984375 -9.332031 9.296875 -9.71875 C 8.617188 -10.101562 7.851562 -10.296875 7 -10.296875 C 6.144531 -10.296875 5.367188 -10.101562 4.671875 -9.71875 C 3.984375 -9.332031 3.441406 -8.796875 3.046875 -8.109375 C 2.660156 -7.429688 2.46875 -6.671875 2.46875 -5.828125 C 2.46875 -4.984375 2.660156 -4.21875 3.046875 -3.53125 C 3.441406 -2.851562 3.984375 -2.316406 4.671875 -1.921875 C 5.367188 -1.535156 6.144531 -1.34375 7 -1.34375 Z M 7 -1.34375 "/></g></g></g><g fill="#699992" fill-opacity="0.4"><g transform="translate(109.365312, 16.608626)"><g><path d="M 9.8125 -5.890625 L 11.421875 -5.890625 L 11.421875 -1.34375 C 10.835938 -0.863281 10.160156 -0.492188 9.390625 -0.234375 C 8.628906 0.015625 7.832031 0.140625 7 0.140625 C 5.820312 0.140625 4.757812 -0.117188 3.8125 -0.640625 C 2.875 -1.160156 2.132812 -1.867188 1.59375 -2.765625 C 1.0625 -3.671875 0.796875 -4.691406 0.796875 -5.828125 C 0.796875 -6.953125 1.0625 -7.96875 1.59375 -8.875 C 2.132812 -9.789062 2.878906 -10.503906 3.828125 -11.015625 C 4.785156 -11.523438 5.851562 -11.78125 7.03125 -11.78125 C 7.96875 -11.78125 8.816406 -11.625 9.578125 -11.3125 C 10.335938 -11.007812 10.984375 -10.566406 11.515625 -9.984375 L 10.484375 -8.953125 C 9.546875 -9.847656 8.421875 -10.296875 7.109375 -10.296875 C 6.222656 -10.296875 5.425781 -10.101562 4.71875 -9.71875 C 4.007812 -9.34375 3.457031 -8.8125 3.0625 -8.125 C 2.664062 -7.445312 2.46875 -6.679688 2.46875 -5.828125 C 2.46875 -4.984375 2.664062 -4.21875 3.0625 -3.53125 C 3.457031 -2.851562 4.007812 -2.316406 4.71875 -1.921875 C 5.425781 -1.535156 6.21875 -1.34375 7.09375 -1.34375 C 8.132812 -1.34375 9.039062 -1.59375 9.8125 -2.09375 Z M 9.8125 -5.890625 "/></g></g></g><g fill="#699992" fill-opacity="0.4"><g transform="translate(123.619602, 16.608626)"><g><path d="M 6.203125 -4.03125 L 6.203125 0 L 4.5625 0 L 4.5625 -4.0625 L -0.0625 -11.65625 L 1.71875 -11.65625 L 5.4375 -5.515625 L 9.1875 -11.65625 L 10.828125 -11.65625 Z M 6.203125 -4.03125 "/></g></g></g><g fill="#699992" fill-opacity="0.4"><g transform="translate(135.79493, 16.608626)"><g/></g></g><g fill="#699992" fill-opacity="0.4"><g transform="translate(141.683455, 16.608626)"><g><path d="M 6.953125 0.140625 C 5.785156 0.140625 4.734375 -0.117188 3.796875 -0.640625 C 2.859375 -1.160156 2.125 -1.867188 1.59375 -2.765625 C 1.0625 -3.671875 0.796875 -4.691406 0.796875 -5.828125 C 0.796875 -6.953125 1.0625 -7.96875 1.59375 -8.875 C 2.125 -9.78125 2.859375 -10.488281 3.796875 -11 C 4.742188 -11.519531 5.800781 -11.78125 6.96875 -11.78125 C 7.882812 -11.78125 8.71875 -11.625 9.46875 -11.3125 C 10.21875 -11.007812 10.863281 -10.5625 11.40625 -9.96875 L 10.3125 -8.921875 C 9.4375 -9.835938 8.34375 -10.296875 7.03125 -10.296875 C 6.164062 -10.296875 5.382812 -10.101562 4.6875 -9.71875 C 3.988281 -9.332031 3.441406 -8.796875 3.046875 -8.109375 C 2.660156 -7.429688 2.46875 -6.671875 2.46875 -5.828125 C 2.46875 -4.984375 2.660156 -4.21875 3.046875 -3.53125 C 3.441406 -2.851562 3.988281 -2.316406 4.6875 -1.921875 C 5.382812 -1.535156 6.164062 -1.34375 7.03125 -1.34375 C 8.332031 -1.34375 9.425781 -1.8125 10.3125 -2.75 L 11.40625 -1.703125 C 10.863281 -1.097656 10.210938 -0.640625 9.453125 -0.328125 C 8.703125 -0.015625 7.867188 0.140625 6.953125 0.140625 Z M 6.953125 0.140625 "/></g></g></g><g fill="#699992" fill-opacity="0.4"><g transform="translate(155.122782, 16.608626)"><g><path d="M 9.171875 -2.90625 L 2.984375 -2.90625 L 1.703125 0 L -0.015625 0 L 5.265625 -11.65625 L 6.90625 -11.65625 L 12.203125 0 L 10.453125 0 Z M 8.59375 -4.25 L 6.078125 -9.953125 L 3.5625 -4.25 Z M 8.59375 -4.25 "/></g></g></g><g fill="#699992" fill-opacity="0.4"><g transform="translate(168.711809, 16.608626)"><g><path d="M 9.53125 0 L 7.015625 -3.578125 C 6.710938 -3.554688 6.472656 -3.546875 6.296875 -3.546875 L 3.40625 -3.546875 L 3.40625 0 L 1.75 0 L 1.75 -11.65625 L 6.296875 -11.65625 C 7.796875 -11.65625 8.976562 -11.289062 9.84375 -10.5625 C 10.71875 -9.84375 11.15625 -8.851562 11.15625 -7.59375 C 11.15625 -6.6875 10.929688 -5.914062 10.484375 -5.28125 C 10.035156 -4.65625 9.40625 -4.195312 8.59375 -3.90625 L 11.34375 0 Z M 6.234375 -4.953125 C 7.296875 -4.953125 8.101562 -5.179688 8.65625 -5.640625 C 9.207031 -6.097656 9.484375 -6.75 9.484375 -7.59375 C 9.484375 -8.4375 9.207031 -9.082031 8.65625 -9.53125 C 8.101562 -9.976562 7.296875 -10.203125 6.234375 -10.203125 L 3.40625 -10.203125 L 3.40625 -4.953125 Z M 6.234375 -4.953125 "/></g></g></g><g fill="#699992" fill-opacity="0.4"><g transform="translate(182.217663, 16.608626)"><g><path d="M 10.203125 -1.453125 L 10.203125 0 L 1.75 0 L 1.75 -11.65625 L 9.96875 -11.65625 L 9.96875 -10.203125 L 3.40625 -10.203125 L 3.40625 -6.625 L 9.25 -6.625 L 9.25 -5.203125 L 3.40625 -5.203125 L 3.40625 -1.453125 Z M 10.203125 -1.453125 "/></g></g></g><g fill="#ffffff" fill-opacity="1"><g transform="translate(1.601164, 16.608626)"><g><path d="M 6.296875 -11.65625 C 7.796875 -11.65625 8.976562 -11.289062 9.84375 -10.5625 C 10.71875 -9.84375 11.15625 -8.851562 11.15625 -7.59375 C 11.15625 -6.320312 10.71875 -5.328125 9.84375 -4.609375 C 8.976562 -3.890625 7.796875 -3.53125 6.296875 -3.53125 L 3.40625 -3.53125 L 3.40625 0 L 1.75 0 L 1.75 -11.65625 Z M 6.234375 -4.96875 C 7.296875 -4.96875 8.101562 -5.191406 8.65625 -5.640625 C 9.207031 -6.097656 9.484375 -6.75 9.484375 -7.59375 C 9.484375 -8.4375 9.207031 -9.082031 8.65625 -9.53125 C 8.101562 -9.976562 7.296875 -10.203125 6.234375 -10.203125 L 3.40625 -10.203125 L 3.40625 -4.96875 Z M 6.234375 -4.96875 "/></g></g></g><g fill="#ffffff" fill-opacity="1"><g transform="translate(15.023863, 16.608626)"><g><path d="M 5.140625 0.140625 C 4.265625 0.140625 3.414062 0.00390625 2.59375 -0.265625 C 1.78125 -0.546875 1.144531 -0.898438 0.6875 -1.328125 L 1.296875 -2.625 C 1.742188 -2.226562 2.3125 -1.90625 3 -1.65625 C 3.695312 -1.40625 4.410156 -1.28125 5.140625 -1.28125 C 6.109375 -1.28125 6.828125 -1.441406 7.296875 -1.765625 C 7.773438 -2.097656 8.015625 -2.535156 8.015625 -3.078125 C 8.015625 -3.472656 7.882812 -3.796875 7.625 -4.046875 C 7.363281 -4.296875 7.039062 -4.488281 6.65625 -4.625 C 6.28125 -4.757812 5.742188 -4.910156 5.046875 -5.078125 C 4.171875 -5.285156 3.460938 -5.492188 2.921875 -5.703125 C 2.378906 -5.921875 1.914062 -6.25 1.53125 -6.6875 C 1.15625 -7.125 0.96875 -7.710938 0.96875 -8.453125 C 0.96875 -9.078125 1.128906 -9.640625 1.453125 -10.140625 C 1.785156 -10.640625 2.28125 -11.035156 2.9375 -11.328125 C 3.601562 -11.628906 4.429688 -11.78125 5.421875 -11.78125 C 6.109375 -11.78125 6.785156 -11.691406 7.453125 -11.515625 C 8.117188 -11.335938 8.691406 -11.082031 9.171875 -10.75 L 8.625 -9.421875 C 8.132812 -9.734375 7.609375 -9.96875 7.046875 -10.125 C 6.492188 -10.28125 5.953125 -10.359375 5.421875 -10.359375 C 4.484375 -10.359375 3.773438 -10.1875 3.296875 -9.84375 C 2.828125 -9.5 2.59375 -9.054688 2.59375 -8.515625 C 2.59375 -8.117188 2.722656 -7.796875 2.984375 -7.546875 C 3.253906 -7.296875 3.585938 -7.097656 3.984375 -6.953125 C 4.378906 -6.816406 4.914062 -6.671875 5.59375 -6.515625 C 6.46875 -6.304688 7.171875 -6.097656 7.703125 -5.890625 C 8.234375 -5.679688 8.691406 -5.359375 9.078125 -4.921875 C 9.460938 -4.492188 9.65625 -3.910156 9.65625 -3.171875 C 9.65625 -2.566406 9.488281 -2.007812 9.15625 -1.5 C 8.820312 -1 8.316406 -0.597656 7.640625 -0.296875 C 6.960938 -0.00390625 6.128906 0.140625 5.140625 0.140625 Z M 5.140625 0.140625 "/></g></g></g><g fill="#ffffff" fill-opacity="1"><g transform="translate(26.766768, 16.608626)"><g><path d="M 6.203125 -4.03125 L 6.203125 0 L 4.5625 0 L 4.5625 -4.0625 L -0.0625 -11.65625 L 1.71875 -11.65625 L 5.4375 -5.515625 L 9.1875 -11.65625 L 10.828125 -11.65625 Z M 6.203125 -4.03125 "/></g></g></g><g fill="#ffffff" fill-opacity="1"><g transform="translate(38.942096, 16.608626)"><g><path d="M 6.953125 0.140625 C 5.785156 0.140625 4.734375 -0.117188 3.796875 -0.640625 C 2.859375 -1.160156 2.125 -1.867188 1.59375 -2.765625 C 1.0625 -3.671875 0.796875 -4.691406 0.796875 -5.828125 C 0.796875 -6.953125 1.0625 -7.96875 1.59375 -8.875 C 2.125 -9.78125 2.859375 -10.488281 3.796875 -11 C 4.742188 -11.519531 5.800781 -11.78125 6.96875 -11.78125 C 7.882812 -11.78125 8.71875 -11.625 9.46875 -11.3125 C 10.21875 -11.007812 10.863281 -10.5625 11.40625 -9.96875 L 10.3125 -8.921875 C 9.4375 -9.835938 8.34375 -10.296875 7.03125 -10.296875 C 6.164062 -10.296875 5.382812 -10.101562 4.6875 -9.71875 C 3.988281 -9.332031 3.441406 -8.796875 3.046875 -8.109375 C 2.660156 -7.429688 2.46875 -6.671875 2.46875 -5.828125 C 2.46875 -4.984375 2.660156 -4.21875 3.046875 -3.53125 C 3.441406 -2.851562 3.988281 -2.316406 4.6875 -1.921875 C 5.382812 -1.535156 6.164062 -1.34375 7.03125 -1.34375 C 8.332031 -1.34375 9.425781 -1.8125 10.3125 -2.75 L 11.40625 -1.703125 C 10.863281 -1.097656 10.210938 -0.640625 9.453125 -0.328125 C 8.703125 -0.015625 7.867188 0.140625 6.953125 0.140625 Z M 6.953125 0.140625 "/></g></g></g><g fill="#ffffff" fill-opacity="1"><g transform="translate(52.381423, 16.608626)"><g><path d="M 11.765625 -11.65625 L 11.765625 0 L 10.09375 0 L 10.09375 -5.1875 L 3.40625 -5.1875 L 3.40625 0 L 1.75 0 L 1.75 -11.65625 L 3.40625 -11.65625 L 3.40625 -6.640625 L 10.09375 -6.640625 L 10.09375 -11.65625 Z M 11.765625 -11.65625 "/></g></g></g><g fill="#ffffff" fill-opacity="1"><g transform="translate(67.300976, 16.608626)"><g><path d="M 7 0.140625 C 5.820312 0.140625 4.757812 -0.117188 3.8125 -0.640625 C 2.875 -1.160156 2.132812 -1.875 1.59375 -2.78125 C 1.0625 -3.6875 0.796875 -4.703125 0.796875 -5.828125 C 0.796875 -6.941406 1.0625 -7.953125 1.59375 -8.859375 C 2.132812 -9.773438 2.875 -10.488281 3.8125 -11 C 4.757812 -11.519531 5.820312 -11.78125 7 -11.78125 C 8.164062 -11.78125 9.21875 -11.519531 10.15625 -11 C 11.101562 -10.488281 11.84375 -9.78125 12.375 -8.875 C 12.90625 -7.96875 13.171875 -6.953125 13.171875 -5.828125 C 13.171875 -4.691406 12.90625 -3.671875 12.375 -2.765625 C 11.84375 -1.867188 11.101562 -1.160156 10.15625 -0.640625 C 9.21875 -0.117188 8.164062 0.140625 7 0.140625 Z M 7 -1.34375 C 7.851562 -1.34375 8.617188 -1.535156 9.296875 -1.921875 C 9.984375 -2.316406 10.523438 -2.851562 10.921875 -3.53125 C 11.316406 -4.21875 11.515625 -4.984375 11.515625 -5.828125 C 11.515625 -6.671875 11.316406 -7.429688 10.921875 -8.109375 C 10.523438 -8.796875 9.984375 -9.332031 9.296875 -9.71875 C 8.617188 -10.101562 7.851562 -10.296875 7 -10.296875 C 6.144531 -10.296875 5.367188 -10.101562 4.671875 -9.71875 C 3.984375 -9.332031 3.441406 -8.796875 3.046875 -8.109375 C 2.660156 -7.429688 2.46875 -6.671875 2.46875 -5.828125 C 2.46875 -4.984375 2.660156 -4.21875 3.046875 -3.53125 C 3.441406 -2.851562 3.984375 -2.316406 4.671875 -1.921875 C 5.367188 -1.535156 6.144531 -1.34375 7 -1.34375 Z M 7 -1.34375 "/></g></g></g><g fill="#ffffff" fill-opacity="1"><g transform="translate(82.686226, 16.608626)"><g><path d="M 1.75 -11.65625 L 3.40625 -11.65625 L 3.40625 -1.453125 L 9.71875 -1.453125 L 9.71875 0 L 1.75 0 Z M 1.75 -11.65625 "/></g></g></g><g fill="#ffffff" fill-opacity="1"><g transform="translate(93.980062, 16.608626)"><g><path d="M 7 0.140625 C 5.820312 0.140625 4.757812 -0.117188 3.8125 -0.640625 C 2.875 -1.160156 2.132812 -1.875 1.59375 -2.78125 C 1.0625 -3.6875 0.796875 -4.703125 0.796875 -5.828125 C 0.796875 -6.941406 1.0625 -7.953125 1.59375 -8.859375 C 2.132812 -9.773438 2.875 -10.488281 3.8125 -11 C 4.757812 -11.519531 5.820312 -11.78125 7 -11.78125 C 8.164062 -11.78125 9.21875 -11.519531 10.15625 -11 C 11.101562 -10.488281 11.84375 -9.78125 12.375 -8.875 C 12.90625 -7.96875 13.171875 -6.953125 13.171875 -5.828125 C 13.171875 -4.691406 12.90625 -3.671875 12.375 -2.765625 C 11.84375 -1.867188 11.101562 -1.160156 10.15625 -0.640625 C 9.21875 -0.117188 8.164062 0.140625 7 0.140625 Z M 7 -1.34375 C 7.851562 -1.34375 8.617188 -1.535156 9.296875 -1.921875 C 9.984375 -2.316406 10.523438 -2.851562 10.921875 -3.53125 C 11.316406 -4.21875 11.515625 -4.984375 11.515625 -5.828125 C 11.515625 -6.671875 11.316406 -7.429688 10.921875 -8.109375 C 10.523438 -8.796875 9.984375 -9.332031 9.296875 -9.71875 C 8.617188 -10.101562 7.851562 -10.296875 7 -10.296875 C 6.144531 -10.296875 5.367188 -10.101562 4.671875 -9.71875 C 3.984375 -9.332031 3.441406 -8.796875 3.046875 -8.109375 C 2.660156 -7.429688 2.46875 -6.671875 2.46875 -5.828125 C 2.46875 -4.984375 2.660156 -4.21875 3.046875 -3.53125 C 3.441406 -2.851562 3.984375 -2.316406 4.671875 -1.921875 C 5.367188 -1.535156 6.144531 -1.34375 7 -1.34375 Z M 7 -1.34375 "/></g></g></g><g fill="#ffffff" fill-opacity="1"><g transform="translate(109.365312, 16.608626)"><g><path d="M 9.8125 -5.890625 L 11.421875 -5.890625 L 11.421875 -1.34375 C 10.835938 -0.863281 10.160156 -0.492188 9.390625 -0.234375 C 8.628906 0.015625 7.832031 0.140625 7 0.140625 C 5.820312 0.140625 4.757812 -0.117188 3.8125 -0.640625 C 2.875 -1.160156 2.132812 -1.867188 1.59375 -2.765625 C 1.0625 -3.671875 0.796875 -4.691406 0.796875 -5.828125 C 0.796875 -6.953125 1.0625 -7.96875 1.59375 -8.875 C 2.132812 -9.789062 2.878906 -10.503906 3.828125 -11.015625 C 4.785156 -11.523438 5.851562 -11.78125 7.03125 -11.78125 C 7.96875 -11.78125 8.816406 -11.625 9.578125 -11.3125 C 10.335938 -11.007812 10.984375 -10.566406 11.515625 -9.984375 L 10.484375 -8.953125 C 9.546875 -9.847656 8.421875 -10.296875 7.109375 -10.296875 C 6.222656 -10.296875 5.425781 -10.101562 4.71875 -9.71875 C 4.007812 -9.34375 3.457031 -8.8125 3.0625 -8.125 C 2.664062 -7.445312 2.46875 -6.679688 2.46875 -5.828125 C 2.46875 -4.984375 2.664062 -4.21875 3.0625 -3.53125 C 3.457031 -2.851562 4.007812 -2.316406 4.71875 -1.921875 C 5.425781 -1.535156 6.21875 -1.34375 7.09375 -1.34375 C 8.132812 -1.34375 9.039062 -1.59375 9.8125 -2.09375 Z M 9.8125 -5.890625 "/></g></g></g><g fill="#ffffff" fill-opacity="1"><g transform="translate(123.619602, 16.608626)"><g><path d="M 6.203125 -4.03125 L 6.203125 0 L 4.5625 0 L 4.5625 -4.0625 L -0.0625 -11.65625 L 1.71875 -11.65625 L 5.4375 -5.515625 L 9.1875 -11.65625 L 10.828125 -11.65625 Z M 6.203125 -4.03125 "/></g></g></g><g fill="#ffffff" fill-opacity="1"><g transform="translate(135.79493, 16.608626)"><g/></g></g><g fill="#ffffff" fill-opacity="1"><g transform="translate(141.683455, 16.608626)"><g><path d="M 6.953125 0.140625 C 5.785156 0.140625 4.734375 -0.117188 3.796875 -0.640625 C 2.859375 -1.160156 2.125 -1.867188 1.59375 -2.765625 C 1.0625 -3.671875 0.796875 -4.691406 0.796875 -5.828125 C 0.796875 -6.953125 1.0625 -7.96875 1.59375 -8.875 C 2.125 -9.78125 2.859375 -10.488281 3.796875 -11 C 4.742188 -11.519531 5.800781 -11.78125 6.96875 -11.78125 C 7.882812 -11.78125 8.71875 -11.625 9.46875 -11.3125 C 10.21875 -11.007812 10.863281 -10.5625 11.40625 -9.96875 L 10.3125 -8.921875 C 9.4375 -9.835938 8.34375 -10.296875 7.03125 -10.296875 C 6.164062 -10.296875 5.382812 -10.101562 4.6875 -9.71875 C 3.988281 -9.332031 3.441406 -8.796875 3.046875 -8.109375 C 2.660156 -7.429688 2.46875 -6.671875 2.46875 -5.828125 C 2.46875 -4.984375 2.660156 -4.21875 3.046875 -3.53125 C 3.441406 -2.851562 3.988281 -2.316406 4.6875 -1.921875 C 5.382812 -1.535156 6.164062 -1.34375 7.03125 -1.34375 C 8.332031 -1.34375 9.425781 -1.8125 10.3125 -2.75 L 11.40625 -1.703125 C 10.863281 -1.097656 10.210938 -0.640625 9.453125 -0.328125 C 8.703125 -0.015625 7.867188 0.140625 6.953125 0.140625 Z M 6.953125 0.140625 "/></g></g></g><g fill="#ffffff" fill-opacity="1"><g transform="translate(155.122782, 16.608626)"><g><path d="M 9.171875 -2.90625 L 2.984375 -2.90625 L 1.703125 0 L -0.015625 0 L 5.265625 -11.65625 L 6.90625 -11.65625 L 12.203125 0 L 10.453125 0 Z M 8.59375 -4.25 L 6.078125 -9.953125 L 3.5625 -4.25 Z M 8.59375 -4.25 "/></g></g></g><g fill="#ffffff" fill-opacity="1"><g transform="translate(168.711809, 16.608626)"><g><path d="M 9.53125 0 L 7.015625 -3.578125 C 6.710938 -3.554688 6.472656 -3.546875 6.296875 -3.546875 L 3.40625 -3.546875 L 3.40625 0 L 1.75 0 L 1.75 -11.65625 L 6.296875 -11.65625 C 7.796875 -11.65625 8.976562 -11.289062 9.84375 -10.5625 C 10.71875 -9.84375 11.15625 -8.851562 11.15625 -7.59375 C 11.15625 -6.6875 10.929688 -5.914062 10.484375 -5.28125 C 10.035156 -4.65625 9.40625 -4.195312 8.59375 -3.90625 L 11.34375 0 Z M 6.234375 -4.953125 C 7.296875 -4.953125 8.101562 -5.179688 8.65625 -5.640625 C 9.207031 -6.097656 9.484375 -6.75 9.484375 -7.59375 C 9.484375 -8.4375 9.207031 -9.082031 8.65625 -9.53125 C 8.101562 -9.976562 7.296875 -10.203125 6.234375 -10.203125 L 3.40625 -10.203125 L 3.40625 -4.953125 Z M 6.234375 -4.953125 "/></g></g></g><g fill="#ffffff" fill-opacity="1"><g transform="translate(182.217663, 16.608626)"><g><path d="M 10.203125 -1.453125 L 10.203125 0 L 1.75 0 L 1.75 -11.65625 L 9.96875 -11.65625 L 9.96875 -10.203125 L 3.40625 -10.203125 L 3.40625 -6.625 L 9.25 -6.625 L 9.25 -5.203125 L 3.40625 -5.203125 L 3.40625 -1.453125 Z M 10.203125 -1.453125 "/></g></g></g></g></g><g transform="matrix(1, 0, 0, 1, 34, 261)"><g clip-path="url(#95f853f124)"><g fill="#ffffff" fill-opacity="1"><g transform="translate(1.449569, 43.839136)"><g><path d="M 11.140625 -25.90625 L 11.140625 -17.5 L 25.859375 -17.5 L 25.859375 -11.59375 L 11.140625 -11.59375 L 11.140625 0 L 3.765625 0 L 3.765625 -31.8125 L 27.8125 -31.8125 L 27.8125 -25.90625 Z M 11.140625 -25.90625 "/></g></g></g><g fill="#ffffff" fill-opacity="1"><g transform="translate(30.489031, 43.839136)"><g><path d="M 24.046875 0 L 17.90625 -8.859375 L 11.140625 -8.859375 L 11.140625 0 L 3.765625 0 L 3.765625 -31.8125 L 17.546875 -31.8125 C 20.359375 -31.8125 22.800781 -31.34375 24.875 -30.40625 C 26.957031 -29.46875 28.554688 -28.132812 29.671875 -26.40625 C 30.796875 -24.675781 31.359375 -22.628906 31.359375 -20.265625 C 31.359375 -17.910156 30.789062 -15.875 29.65625 -14.15625 C 28.519531 -12.445312 26.90625 -11.140625 24.8125 -10.234375 L 31.953125 0 Z M 23.90625 -20.265625 C 23.90625 -22.054688 23.328125 -23.425781 22.171875 -24.375 C 21.023438 -25.332031 19.347656 -25.8125 17.140625 -25.8125 L 11.140625 -25.8125 L 11.140625 -14.734375 L 17.140625 -14.734375 C 19.347656 -14.734375 21.023438 -15.21875 22.171875 -16.1875 C 23.328125 -17.15625 23.90625 -18.515625 23.90625 -20.265625 Z M 23.90625 -20.265625 "/></g></g></g><g fill="#ffffff" fill-opacity="1"><g transform="translate(63.891221, 43.839136)"><g><path d="M 28.40625 -5.90625 L 28.40625 0 L 3.765625 0 L 3.765625 -31.8125 L 27.8125 -31.8125 L 27.8125 -25.90625 L 11.09375 -25.90625 L 11.09375 -19 L 25.859375 -19 L 25.859375 -13.265625 L 11.09375 -13.265625 L 11.09375 -5.90625 Z M 28.40625 -5.90625 "/></g></g></g><g fill="#ffffff" fill-opacity="1"><g transform="translate(94.384919, 43.839136)"><g><path d="M 14.234375 0.546875 C 11.710938 0.546875 9.273438 0.207031 6.921875 -0.46875 C 4.578125 -1.15625 2.691406 -2.046875 1.265625 -3.140625 L 3.765625 -8.6875 C 5.128906 -7.6875 6.75 -6.878906 8.625 -6.265625 C 10.507812 -5.660156 12.390625 -5.359375 14.265625 -5.359375 C 16.359375 -5.359375 17.90625 -5.671875 18.90625 -6.296875 C 19.90625 -6.921875 20.40625 -7.742188 20.40625 -8.765625 C 20.40625 -9.523438 20.109375 -10.15625 19.515625 -10.65625 C 18.929688 -11.15625 18.175781 -11.554688 17.25 -11.859375 C 16.320312 -12.160156 15.070312 -12.492188 13.5 -12.859375 C 11.070312 -13.441406 9.085938 -14.019531 7.546875 -14.59375 C 6.003906 -15.164062 4.675781 -16.085938 3.5625 -17.359375 C 2.457031 -18.628906 1.90625 -20.328125 1.90625 -22.453125 C 1.90625 -24.296875 2.40625 -25.96875 3.40625 -27.46875 C 4.40625 -28.96875 5.910156 -30.15625 7.921875 -31.03125 C 9.941406 -31.914062 12.40625 -32.359375 15.3125 -32.359375 C 17.34375 -32.359375 19.328125 -32.113281 21.265625 -31.625 C 23.210938 -31.144531 24.910156 -30.453125 26.359375 -29.546875 L 24.09375 -23.953125 C 21.15625 -25.617188 18.210938 -26.453125 15.265625 -26.453125 C 13.210938 -26.453125 11.691406 -26.117188 10.703125 -25.453125 C 9.722656 -24.785156 9.234375 -23.90625 9.234375 -22.8125 C 9.234375 -21.726562 9.800781 -20.921875 10.9375 -20.390625 C 12.070312 -19.859375 13.804688 -19.332031 16.140625 -18.8125 C 18.554688 -18.238281 20.535156 -17.664062 22.078125 -17.09375 C 23.628906 -16.519531 24.957031 -15.609375 26.0625 -14.359375 C 27.164062 -13.117188 27.71875 -11.4375 27.71875 -9.3125 C 27.71875 -7.5 27.210938 -5.84375 26.203125 -4.34375 C 25.191406 -2.84375 23.671875 -1.648438 21.640625 -0.765625 C 19.609375 0.109375 17.140625 0.546875 14.234375 0.546875 Z M 14.234375 0.546875 "/></g></g></g><g fill="#ffffff" fill-opacity="1"><g transform="translate(123.378928, 43.839136)"><g><path d="M 32.953125 -31.8125 L 32.953125 0 L 25.59375 0 L 25.59375 -13.046875 L 11.140625 -13.046875 L 11.140625 0 L 3.765625 0 L 3.765625 -31.8125 L 11.140625 -31.8125 L 11.140625 -19.265625 L 25.59375 -19.265625 L 25.59375 -31.8125 Z M 32.953125 -31.8125 "/></g></g></g><g fill="#ffffff" fill-opacity="1"><g transform="translate(160.098607, 43.839136)"><g/></g></g><g fill="#ffffff" fill-opacity="1"><g transform="translate(172.959585, 43.839136)"><g><path d="M 32.71875 0 L 32.6875 -19.09375 L 23.3125 -3.359375 L 20 -3.359375 L 10.6875 -18.6875 L 10.6875 0 L 3.765625 0 L 3.765625 -31.8125 L 9.859375 -31.8125 L 21.765625 -12.046875 L 33.5 -31.8125 L 39.546875 -31.8125 L 39.640625 0 Z M 32.71875 0 "/></g></g></g><g fill="#ffffff" fill-opacity="1"><g transform="translate(216.359716, 43.839136)"><g><path d="M 3.765625 -31.8125 L 11.140625 -31.8125 L 11.140625 0 L 3.765625 0 Z M 3.765625 -31.8125 "/></g></g></g><g fill="#ffffff" fill-opacity="1"><g transform="translate(231.265729, 43.839136)"><g><path d="M 32.953125 -31.8125 L 32.953125 0 L 26.90625 0 L 11.046875 -19.3125 L 11.046875 0 L 3.765625 0 L 3.765625 -31.8125 L 9.859375 -31.8125 L 25.6875 -12.5 L 25.6875 -31.8125 Z M 32.953125 -31.8125 "/></g></g></g><g fill="#ffffff" fill-opacity="1"><g transform="translate(267.985408, 43.839136)"><g><path d="M 3.765625 -31.8125 L 18.234375 -31.8125 C 21.679688 -31.8125 24.726562 -31.148438 27.375 -29.828125 C 30.03125 -28.515625 32.09375 -26.660156 33.5625 -24.265625 C 35.03125 -21.878906 35.765625 -19.09375 35.765625 -15.90625 C 35.765625 -12.726562 35.03125 -9.941406 33.5625 -7.546875 C 32.09375 -5.148438 30.03125 -3.289062 27.375 -1.96875 C 24.726562 -0.65625 21.679688 0 18.234375 0 L 3.765625 0 Z M 17.859375 -6.046875 C 21.046875 -6.046875 23.582031 -6.929688 25.46875 -8.703125 C 27.363281 -10.472656 28.3125 -12.875 28.3125 -15.90625 C 28.3125 -18.9375 27.363281 -21.335938 25.46875 -23.109375 C 23.582031 -24.878906 21.046875 -25.765625 17.859375 -25.765625 L 11.140625 -25.765625 L 11.140625 -6.046875 Z M 17.859375 -6.046875 "/></g></g></g></g></g></svg>