<svg xmlns="http://www.w3.org/2000/svg" xmlns:xlink="http://www.w3.org/1999/xlink" width="500" zoomAndPan="magnify" viewBox="0 0 375 374.999991" height="500" preserveAspectRatio="xMidYMid meet" version="1.0"><defs><g/><clipPath id="b134756f72"><path d="M 75.554688 0.699219 L 191.722656 0.699219 L 191.722656 106.109375 L 75.554688 106.109375 Z M 75.554688 0.699219 " clip-rule="nonzero"/></clipPath><clipPath id="ff437674b4"><path d="M 0.238281 117 L 270.960938 117 L 270.960938 152 L 0.238281 152 Z M 0.238281 117 " clip-rule="nonzero"/></clipPath><clipPath id="7ec218725f"><rect x="0" width="271" y="0" height="35"/></clipPath><clipPath id="ccf80625c2"><path d="M 26 153 L 242 153 L 242 166.601562 L 26 166.601562 Z M 26 153 " clip-rule="nonzero"/></clipPath><clipPath id="39aed4c423"><rect x="0" width="216" y="0" height="14"/></clipPath><clipPath id="52e32cec02"><rect x="0" width="271" y="0" height="167"/></clipPath></defs><g transform="matrix(1, 0, 0, 1, 54, 101)"><g clip-path="url(#52e32cec02)"><g clip-path="url(#b134756f72)"><path fill="#ffffff" d="M 108.292969 105.367188 L 108.292969 106.1875 L 126.296875 106.1875 L 126.296875 31.199219 L 173.753906 58.59375 L 173.753906 104.550781 L 159.03125 104.550781 L 159.03125 60.972656 L 157.394531 60.972656 L 157.394531 104.550781 L 145.535156 104.550781 L 145.535156 106.1875 L 182.757812 106.1875 L 182.757812 104.550781 L 175.390625 104.550781 L 175.390625 59.539062 L 190.539062 68.28125 L 191.359375 66.863281 L 175.390625 57.648438 L 175.390625 40.636719 L 183.640625 45.398438 L 184.457031 43.980469 L 175.390625 38.746094 L 175.390625 28.503906 L 173.753906 28.503906 L 173.753906 37.800781 L 109.519531 0.722656 L 108.699219 2.140625 L 123.839844 10.878906 L 108.710938 19.609375 L 108.300781 19.847656 L 108.300781 20.320312 C 108.300781 20.320312 108.292969 37.808594 108.292969 37.808594 L 93.140625 29.070312 L 92.734375 28.835938 L 92.324219 29.070312 L 75.964844 38.515625 L 75.554688 38.75 L 75.554688 106.1875 L 93.5625 106.1875 L 93.5625 50.101562 L 108.292969 58.601562 Z M 173.753906 56.703125 L 126.296875 29.308594 L 126.296875 12.296875 L 173.753906 39.691406 Z M 173.753906 56.703125 " fill-opacity="1" fill-rule="nonzero"/></g><g clip-path="url(#ff437674b4)"><g transform="matrix(1, 0, 0, 1, -0.000000000000007105, 117)"><g clip-path="url(#7ec218725f)"><g fill="#ffffff" fill-opacity="1"><g transform="translate(1.318232, 27.213127)"><g><path d="M 19.96875 -19.28125 L 19.96875 0 L 16.3125 0 L 6.6875 -11.703125 L 6.6875 0 L 2.28125 0 L 2.28125 -19.28125 L 5.984375 -19.28125 L 15.5625 -7.578125 L 15.5625 -19.28125 Z M 19.96875 -19.28125 "/></g></g></g><g fill="#ffffff" fill-opacity="1"><g transform="translate(27.610653, 27.213127)"><g><path d="M 2.28125 -19.28125 L 11.046875 -19.28125 C 13.140625 -19.28125 14.988281 -18.878906 16.59375 -18.078125 C 18.195312 -17.285156 19.441406 -16.160156 20.328125 -14.703125 C 21.222656 -13.253906 21.671875 -11.566406 21.671875 -9.640625 C 21.671875 -7.710938 21.222656 -6.019531 20.328125 -4.5625 C 19.441406 -3.113281 18.195312 -1.988281 16.59375 -1.1875 C 14.988281 -0.394531 13.140625 0 11.046875 0 L 2.28125 0 Z M 10.828125 -3.65625 C 12.753906 -3.65625 14.289062 -4.191406 15.4375 -5.265625 C 16.582031 -6.347656 17.15625 -7.804688 17.15625 -9.640625 C 17.15625 -11.472656 16.582031 -12.925781 15.4375 -14 C 14.289062 -15.082031 12.753906 -15.625 10.828125 -15.625 L 6.75 -15.625 L 6.75 -3.65625 Z M 10.828125 -3.65625 "/></g></g></g><g fill="#ffffff" fill-opacity="1"><g transform="translate(54.398569, 27.213127)"><g><path d="M 17.21875 -3.578125 L 17.21875 0 L 2.28125 0 L 2.28125 -19.28125 L 16.859375 -19.28125 L 16.859375 -15.703125 L 6.71875 -15.703125 L 6.71875 -11.515625 L 15.671875 -11.515625 L 15.671875 -8.046875 L 6.71875 -8.046875 L 6.71875 -3.578125 Z M 17.21875 -3.578125 "/></g></g></g><g fill="#ffffff" fill-opacity="1"><g transform="translate(76.919707, 27.213127)"><g><path d="M 19.828125 0 L 19.8125 -11.5625 L 14.125 -2.03125 L 12.125 -2.03125 L 6.46875 -11.328125 L 6.46875 0 L 2.28125 0 L 2.28125 -19.28125 L 5.984375 -19.28125 L 13.1875 -7.296875 L 20.296875 -19.28125 L 23.96875 -19.28125 L 24.015625 0 Z M 19.828125 0 "/></g></g></g><g fill="#ffffff" fill-opacity="1"><g transform="translate(107.258696, 27.213127)"><g><path d="M 2.28125 -19.28125 L 6.75 -19.28125 L 6.75 0 L 2.28125 0 Z M 2.28125 -19.28125 "/></g></g></g><g fill="#ffffff" fill-opacity="1"><g transform="translate(120.337835, 27.213127)"><g/></g></g><g fill="#ffffff" fill-opacity="1"><g transform="translate(132.178225, 27.213127)"><g><path d="M 11.625 0.328125 C 9.625 0.328125 7.816406 -0.101562 6.203125 -0.96875 C 4.597656 -1.832031 3.34375 -3.019531 2.4375 -4.53125 C 1.53125 -6.039062 1.078125 -7.742188 1.078125 -9.640625 C 1.078125 -11.535156 1.53125 -13.238281 2.4375 -14.75 C 3.34375 -16.269531 4.597656 -17.457031 6.203125 -18.3125 C 7.816406 -19.175781 9.625 -19.609375 11.625 -19.609375 C 13.625 -19.609375 15.421875 -19.175781 17.015625 -18.3125 C 18.617188 -17.457031 19.878906 -16.269531 20.796875 -14.75 C 21.710938 -13.238281 22.171875 -11.535156 22.171875 -9.640625 C 22.171875 -7.742188 21.710938 -6.039062 20.796875 -4.53125 C 19.878906 -3.019531 18.617188 -1.832031 17.015625 -0.96875 C 15.421875 -0.101562 13.625 0.328125 11.625 0.328125 Z M 11.625 -3.46875 C 12.757812 -3.46875 13.785156 -3.726562 14.703125 -4.25 C 15.628906 -4.78125 16.351562 -5.507812 16.875 -6.4375 C 17.394531 -7.375 17.65625 -8.441406 17.65625 -9.640625 C 17.65625 -10.835938 17.394531 -11.898438 16.875 -12.828125 C 16.351562 -13.765625 15.628906 -14.492188 14.703125 -15.015625 C 13.785156 -15.546875 12.757812 -15.8125 11.625 -15.8125 C 10.488281 -15.8125 9.457031 -15.546875 8.53125 -15.015625 C 7.613281 -14.492188 6.894531 -13.765625 6.375 -12.828125 C 5.851562 -11.898438 5.59375 -10.835938 5.59375 -9.640625 C 5.59375 -8.441406 5.851562 -7.375 6.375 -6.4375 C 6.894531 -5.507812 7.613281 -4.78125 8.53125 -4.25 C 9.457031 -3.726562 10.488281 -3.46875 11.625 -3.46875 Z M 11.625 -3.46875 "/></g></g></g><g fill="#ffffff" fill-opacity="1"><g transform="translate(159.461638, 27.213127)"><g><path d="M 6.28125 -15.640625 L 0.109375 -15.640625 L 0.109375 -19.28125 L 16.90625 -19.28125 L 16.90625 -15.640625 L 10.75 -15.640625 L 10.75 0 L 6.28125 0 Z M 6.28125 -15.640625 "/></g></g></g><g fill="#ffffff" fill-opacity="1"><g transform="translate(180.523799, 27.213127)"><g><path d="M 2.28125 -19.28125 L 6.75 -19.28125 L 6.75 0 L 2.28125 0 Z M 2.28125 -19.28125 "/></g></g></g><g fill="#ffffff" fill-opacity="1"><g transform="translate(193.602938, 27.213127)"><g><path d="M 17.21875 -3.578125 L 17.21875 0 L 2.28125 0 L 2.28125 -19.28125 L 16.859375 -19.28125 L 16.859375 -15.703125 L 6.71875 -15.703125 L 6.71875 -11.515625 L 15.671875 -11.515625 L 15.671875 -8.046875 L 6.71875 -8.046875 L 6.71875 -3.578125 Z M 17.21875 -3.578125 "/></g></g></g><g fill="#ffffff" fill-opacity="1"><g transform="translate(216.124075, 27.213127)"><g><path d="M 19.96875 -19.28125 L 19.96875 0 L 16.3125 0 L 6.6875 -11.703125 L 6.6875 0 L 2.28125 0 L 2.28125 -19.28125 L 5.984375 -19.28125 L 15.5625 -7.578125 L 15.5625 -19.28125 Z M 19.96875 -19.28125 "/></g></g></g><g fill="#ffffff" fill-opacity="1"><g transform="translate(242.416496, 27.213127)"><g><path d="M 11.625 0.328125 C 9.625 0.328125 7.816406 -0.101562 6.203125 -0.96875 C 4.597656 -1.832031 3.34375 -3.019531 2.4375 -4.53125 C 1.53125 -6.039062 1.078125 -7.742188 1.078125 -9.640625 C 1.078125 -11.535156 1.53125 -13.238281 2.4375 -14.75 C 3.34375 -16.269531 4.597656 -17.457031 6.203125 -18.3125 C 7.816406 -19.175781 9.625 -19.609375 11.625 -19.609375 C 13.625 -19.609375 15.421875 -19.175781 17.015625 -18.3125 C 18.617188 -17.457031 19.878906 -16.269531 20.796875 -14.75 C 21.710938 -13.238281 22.171875 -11.535156 22.171875 -9.640625 C 22.171875 -7.742188 21.710938 -6.039062 20.796875 -4.53125 C 19.878906 -3.019531 18.617188 -1.832031 17.015625 -0.96875 C 15.421875 -0.101562 13.625 0.328125 11.625 0.328125 Z M 11.625 -3.46875 C 12.757812 -3.46875 13.785156 -3.726562 14.703125 -4.25 C 15.628906 -4.78125 16.351562 -5.507812 16.875 -6.4375 C 17.394531 -7.375 17.65625 -8.441406 17.65625 -9.640625 C 17.65625 -10.835938 17.394531 -11.898438 16.875 -12.828125 C 16.351562 -13.765625 15.628906 -14.492188 14.703125 -15.015625 C 13.785156 -15.546875 12.757812 -15.8125 11.625 -15.8125 C 10.488281 -15.8125 9.457031 -15.546875 8.53125 -15.015625 C 7.613281 -14.492188 6.894531 -13.765625 6.375 -12.828125 C 5.851562 -11.898438 5.59375 -10.835938 5.59375 -9.640625 C 5.59375 -8.441406 5.851562 -7.375 6.375 -6.4375 C 6.894531 -5.507812 7.613281 -4.78125 8.53125 -4.25 C 9.457031 -3.726562 10.488281 -3.46875 11.625 -3.46875 Z M 11.625 -3.46875 "/></g></g></g></g></g></g><g clip-path="url(#ccf80625c2)"><g transform="matrix(1, 0, 0, 1, 26, 153)"><g clip-path="url(#39aed4c423)"><g fill="#ffffff" fill-opacity="1"><g transform="translate(1.627594, 10.673342)"><g><path d="M 5.65625 -1.671875 L 2.046875 -1.671875 L 1.328125 0 L -0.046875 0 L 3.203125 -7.21875 L 4.515625 -7.21875 L 7.78125 0 L 6.375 0 Z M 5.203125 -2.71875 L 3.84375 -5.875 L 2.5 -2.71875 Z M 5.203125 -2.71875 "/></g></g></g><g fill="#ffffff" fill-opacity="1"><g transform="translate(10.855399, 10.673342)"><g><path d="M 5.6875 0 L 4.21875 -2.109375 C 4.15625 -2.109375 4.0625 -2.109375 3.9375 -2.109375 L 2.3125 -2.109375 L 2.3125 0 L 0.96875 0 L 0.96875 -7.21875 L 3.9375 -7.21875 C 4.5625 -7.21875 5.101562 -7.113281 5.5625 -6.90625 C 6.03125 -6.695312 6.390625 -6.398438 6.640625 -6.015625 C 6.890625 -5.628906 7.015625 -5.175781 7.015625 -4.65625 C 7.015625 -4.113281 6.878906 -3.644531 6.609375 -3.25 C 6.347656 -2.851562 5.96875 -2.5625 5.46875 -2.375 L 7.140625 0 Z M 5.65625 -4.65625 C 5.65625 -5.113281 5.503906 -5.460938 5.203125 -5.703125 C 4.898438 -5.953125 4.457031 -6.078125 3.875 -6.078125 L 2.3125 -6.078125 L 2.3125 -3.203125 L 3.875 -3.203125 C 4.457031 -3.203125 4.898438 -3.328125 5.203125 -3.578125 C 5.503906 -3.828125 5.65625 -4.1875 5.65625 -4.65625 Z M 5.65625 -4.65625 "/></g></g></g><g fill="#ffffff" fill-opacity="1"><g transform="translate(19.897861, 10.673342)"><g><path d="M 4.3125 0.109375 C 3.582031 0.109375 2.921875 -0.0507812 2.328125 -0.375 C 1.742188 -0.695312 1.285156 -1.140625 0.953125 -1.703125 C 0.617188 -2.265625 0.453125 -2.898438 0.453125 -3.609375 C 0.453125 -4.316406 0.617188 -4.953125 0.953125 -5.515625 C 1.296875 -6.078125 1.757812 -6.519531 2.34375 -6.84375 C 2.9375 -7.164062 3.597656 -7.328125 4.328125 -7.328125 C 4.910156 -7.328125 5.445312 -7.222656 5.9375 -7.015625 C 6.425781 -6.804688 6.835938 -6.503906 7.171875 -6.109375 L 6.3125 -5.296875 C 5.789062 -5.859375 5.148438 -6.140625 4.390625 -6.140625 C 3.890625 -6.140625 3.441406 -6.03125 3.046875 -5.8125 C 2.660156 -5.601562 2.359375 -5.304688 2.140625 -4.921875 C 1.921875 -4.535156 1.8125 -4.097656 1.8125 -3.609375 C 1.8125 -3.117188 1.921875 -2.679688 2.140625 -2.296875 C 2.359375 -1.910156 2.660156 -1.609375 3.046875 -1.390625 C 3.441406 -1.179688 3.890625 -1.078125 4.390625 -1.078125 C 5.148438 -1.078125 5.789062 -1.359375 6.3125 -1.921875 L 7.171875 -1.109375 C 6.835938 -0.710938 6.425781 -0.410156 5.9375 -0.203125 C 5.445312 0.00390625 4.90625 0.109375 4.3125 0.109375 Z M 4.3125 0.109375 "/></g></g></g><g fill="#ffffff" fill-opacity="1"><g transform="translate(28.899128, 10.673342)"><g><path d="M 7.390625 -7.21875 L 7.390625 0 L 6.046875 0 L 6.046875 -3.09375 L 2.3125 -3.09375 L 2.3125 0 L 0.96875 0 L 0.96875 -7.21875 L 2.3125 -7.21875 L 2.3125 -4.234375 L 6.046875 -4.234375 L 6.046875 -7.21875 Z M 7.390625 -7.21875 "/></g></g></g><g fill="#ffffff" fill-opacity="1"><g transform="translate(38.755054, 10.673342)"><g><path d="M 0.96875 -7.21875 L 2.3125 -7.21875 L 2.3125 0 L 0.96875 0 Z M 0.96875 -7.21875 "/></g></g></g><g fill="#ffffff" fill-opacity="1"><g transform="translate(43.555111, 10.673342)"><g><path d="M 2.4375 -6.078125 L 0.046875 -6.078125 L 0.046875 -7.21875 L 6.171875 -7.21875 L 6.171875 -6.078125 L 3.78125 -6.078125 L 3.78125 0 L 2.4375 0 Z M 2.4375 -6.078125 "/></g></g></g><g fill="#ffffff" fill-opacity="1"><g transform="translate(51.269244, 10.673342)"><g><path d="M 6.390625 -1.125 L 6.390625 0 L 0.96875 0 L 0.96875 -7.21875 L 6.234375 -7.21875 L 6.234375 -6.09375 L 2.3125 -6.09375 L 2.3125 -4.21875 L 5.796875 -4.21875 L 5.796875 -3.109375 L 2.3125 -3.109375 L 2.3125 -1.125 Z M 6.390625 -1.125 "/></g></g></g><g fill="#ffffff" fill-opacity="1"><g transform="translate(59.683584, 10.673342)"><g><path d="M 4.3125 0.109375 C 3.582031 0.109375 2.921875 -0.0507812 2.328125 -0.375 C 1.742188 -0.695312 1.285156 -1.140625 0.953125 -1.703125 C 0.617188 -2.265625 0.453125 -2.898438 0.453125 -3.609375 C 0.453125 -4.316406 0.617188 -4.953125 0.953125 -5.515625 C 1.296875 -6.078125 1.757812 -6.519531 2.34375 -6.84375 C 2.9375 -7.164062 3.597656 -7.328125 4.328125 -7.328125 C 4.910156 -7.328125 5.445312 -7.222656 5.9375 -7.015625 C 6.425781 -6.804688 6.835938 -6.503906 7.171875 -6.109375 L 6.3125 -5.296875 C 5.789062 -5.859375 5.148438 -6.140625 4.390625 -6.140625 C 3.890625 -6.140625 3.441406 -6.03125 3.046875 -5.8125 C 2.660156 -5.601562 2.359375 -5.304688 2.140625 -4.921875 C 1.921875 -4.535156 1.8125 -4.097656 1.8125 -3.609375 C 1.8125 -3.117188 1.921875 -2.679688 2.140625 -2.296875 C 2.359375 -1.910156 2.660156 -1.609375 3.046875 -1.390625 C 3.441406 -1.179688 3.890625 -1.078125 4.390625 -1.078125 C 5.148438 -1.078125 5.789062 -1.359375 6.3125 -1.921875 L 7.171875 -1.109375 C 6.835938 -0.710938 6.425781 -0.410156 5.9375 -0.203125 C 5.445312 0.00390625 4.90625 0.109375 4.3125 0.109375 Z M 4.3125 0.109375 "/></g></g></g><g fill="#ffffff" fill-opacity="1"><g transform="translate(68.684851, 10.673342)"><g><path d="M 2.4375 -6.078125 L 0.046875 -6.078125 L 0.046875 -7.21875 L 6.171875 -7.21875 L 6.171875 -6.078125 L 3.78125 -6.078125 L 3.78125 0 L 2.4375 0 Z M 2.4375 -6.078125 "/></g></g></g><g fill="#ffffff" fill-opacity="1"><g transform="translate(76.398984, 10.673342)"><g><path d="M 3.203125 0.109375 C 2.648438 0.109375 2.113281 0.03125 1.59375 -0.125 C 1.070312 -0.289062 0.660156 -0.503906 0.359375 -0.765625 L 0.828125 -1.8125 C 1.117188 -1.570312 1.476562 -1.378906 1.90625 -1.234375 C 2.34375 -1.085938 2.773438 -1.015625 3.203125 -1.015625 C 3.742188 -1.015625 4.144531 -1.097656 4.40625 -1.265625 C 4.675781 -1.441406 4.8125 -1.671875 4.8125 -1.953125 C 4.8125 -2.160156 4.734375 -2.328125 4.578125 -2.453125 C 4.429688 -2.585938 4.242188 -2.691406 4.015625 -2.765625 C 3.796875 -2.847656 3.488281 -2.9375 3.09375 -3.03125 C 2.539062 -3.164062 2.09375 -3.296875 1.75 -3.421875 C 1.414062 -3.554688 1.125 -3.757812 0.875 -4.03125 C 0.632812 -4.3125 0.515625 -4.691406 0.515625 -5.171875 C 0.515625 -5.566406 0.625 -5.925781 0.84375 -6.25 C 1.0625 -6.582031 1.382812 -6.84375 1.8125 -7.03125 C 2.25 -7.226562 2.785156 -7.328125 3.421875 -7.328125 C 3.859375 -7.328125 4.289062 -7.269531 4.71875 -7.15625 C 5.144531 -7.039062 5.515625 -6.882812 5.828125 -6.6875 L 5.40625 -5.640625 C 5.082031 -5.828125 4.75 -5.96875 4.40625 -6.0625 C 4.0625 -6.15625 3.726562 -6.203125 3.40625 -6.203125 C 2.882812 -6.203125 2.492188 -6.113281 2.234375 -5.9375 C 1.972656 -5.757812 1.84375 -5.523438 1.84375 -5.234375 C 1.84375 -5.023438 1.914062 -4.851562 2.0625 -4.71875 C 2.21875 -4.59375 2.40625 -4.488281 2.625 -4.40625 C 2.851562 -4.332031 3.164062 -4.25 3.5625 -4.15625 C 4.09375 -4.03125 4.53125 -3.898438 4.875 -3.765625 C 5.21875 -3.628906 5.507812 -3.425781 5.75 -3.15625 C 6 -2.882812 6.125 -2.515625 6.125 -2.046875 C 6.125 -1.640625 6.015625 -1.273438 5.796875 -0.953125 C 5.578125 -0.628906 5.25 -0.367188 4.8125 -0.171875 C 4.375 0.015625 3.835938 0.109375 3.203125 0.109375 Z M 3.203125 0.109375 "/></g></g></g><g fill="#ffffff" fill-opacity="1"><g transform="translate(84.39114, 10.673342)"><g/></g></g><g fill="#ffffff" fill-opacity="1"><g transform="translate(88.748432, 10.673342)"><g><path d="M 6.390625 0.109375 L 5.46875 -0.765625 C 4.800781 -0.179688 3.992188 0.109375 3.046875 0.109375 C 2.546875 0.109375 2.097656 0.0234375 1.703125 -0.140625 C 1.304688 -0.304688 0.992188 -0.535156 0.765625 -0.828125 C 0.535156 -1.117188 0.421875 -1.453125 0.421875 -1.828125 C 0.421875 -2.273438 0.550781 -2.664062 0.8125 -3 C 1.070312 -3.34375 1.5 -3.679688 2.09375 -4.015625 C 1.800781 -4.296875 1.59375 -4.5625 1.46875 -4.8125 C 1.351562 -5.070312 1.296875 -5.332031 1.296875 -5.59375 C 1.296875 -6.101562 1.484375 -6.515625 1.859375 -6.828125 C 2.242188 -7.140625 2.75 -7.296875 3.375 -7.296875 C 3.96875 -7.296875 4.4375 -7.15625 4.78125 -6.875 C 5.132812 -6.59375 5.3125 -6.207031 5.3125 -5.71875 C 5.3125 -5.34375 5.195312 -5.007812 4.96875 -4.71875 C 4.738281 -4.4375 4.363281 -4.144531 3.84375 -3.84375 L 5.390625 -2.359375 C 5.566406 -2.691406 5.703125 -3.097656 5.796875 -3.578125 L 6.84375 -3.234375 C 6.695312 -2.597656 6.476562 -2.050781 6.1875 -1.59375 L 7.09375 -0.71875 Z M 3.375 -6.390625 C 3.09375 -6.390625 2.867188 -6.316406 2.703125 -6.171875 C 2.546875 -6.023438 2.46875 -5.84375 2.46875 -5.625 C 2.46875 -5.457031 2.507812 -5.296875 2.59375 -5.140625 C 2.6875 -4.992188 2.859375 -4.796875 3.109375 -4.546875 C 3.523438 -4.773438 3.8125 -4.972656 3.96875 -5.140625 C 4.132812 -5.304688 4.21875 -5.488281 4.21875 -5.6875 C 4.21875 -5.90625 4.144531 -6.078125 4 -6.203125 C 3.851562 -6.328125 3.644531 -6.390625 3.375 -6.390625 Z M 3.140625 -0.953125 C 3.742188 -0.953125 4.269531 -1.132812 4.71875 -1.5 L 2.8125 -3.328125 C 2.394531 -3.097656 2.101562 -2.875 1.9375 -2.65625 C 1.769531 -2.445312 1.6875 -2.210938 1.6875 -1.953125 C 1.6875 -1.648438 1.816406 -1.40625 2.078125 -1.21875 C 2.347656 -1.039062 2.703125 -0.953125 3.140625 -0.953125 Z M 3.140625 -0.953125 "/></g></g></g><g fill="#ffffff" fill-opacity="1"><g transform="translate(97.533462, 10.673342)"><g/></g></g><g fill="#ffffff" fill-opacity="1"><g transform="translate(101.890754, 10.673342)"><g><path d="M 4.3125 0.109375 C 3.582031 0.109375 2.921875 -0.0507812 2.328125 -0.375 C 1.742188 -0.695312 1.285156 -1.140625 0.953125 -1.703125 C 0.617188 -2.265625 0.453125 -2.898438 0.453125 -3.609375 C 0.453125 -4.316406 0.617188 -4.953125 0.953125 -5.515625 C 1.296875 -6.078125 1.757812 -6.519531 2.34375 -6.84375 C 2.9375 -7.164062 3.597656 -7.328125 4.328125 -7.328125 C 4.910156 -7.328125 5.445312 -7.222656 5.9375 -7.015625 C 6.425781 -6.804688 6.835938 -6.503906 7.171875 -6.109375 L 6.3125 -5.296875 C 5.789062 -5.859375 5.148438 -6.140625 4.390625 -6.140625 C 3.890625 -6.140625 3.441406 -6.03125 3.046875 -5.8125 C 2.660156 -5.601562 2.359375 -5.304688 2.140625 -4.921875 C 1.921875 -4.535156 1.8125 -4.097656 1.8125 -3.609375 C 1.8125 -3.117188 1.921875 -2.679688 2.140625 -2.296875 C 2.359375 -1.910156 2.660156 -1.609375 3.046875 -1.390625 C 3.441406 -1.179688 3.890625 -1.078125 4.390625 -1.078125 C 5.148438 -1.078125 5.789062 -1.359375 6.3125 -1.921875 L 7.171875 -1.109375 C 6.835938 -0.710938 6.425781 -0.410156 5.9375 -0.203125 C 5.445312 0.00390625 4.90625 0.109375 4.3125 0.109375 Z M 4.3125 0.109375 "/></g></g></g><g fill="#ffffff" fill-opacity="1"><g transform="translate(110.892021, 10.673342)"><g><path d="M 4.34375 0.109375 C 3.601562 0.109375 2.9375 -0.0507812 2.34375 -0.375 C 1.757812 -0.695312 1.296875 -1.140625 0.953125 -1.703125 C 0.617188 -2.273438 0.453125 -2.910156 0.453125 -3.609375 C 0.453125 -4.304688 0.617188 -4.9375 0.953125 -5.5 C 1.296875 -6.070312 1.757812 -6.519531 2.34375 -6.84375 C 2.9375 -7.164062 3.601562 -7.328125 4.34375 -7.328125 C 5.070312 -7.328125 5.734375 -7.164062 6.328125 -6.84375 C 6.921875 -6.519531 7.382812 -6.078125 7.71875 -5.515625 C 8.0625 -4.953125 8.234375 -4.316406 8.234375 -3.609375 C 8.234375 -2.898438 8.0625 -2.265625 7.71875 -1.703125 C 7.382812 -1.140625 6.921875 -0.695312 6.328125 -0.375 C 5.734375 -0.0507812 5.070312 0.109375 4.34375 0.109375 Z M 4.34375 -1.078125 C 4.820312 -1.078125 5.253906 -1.179688 5.640625 -1.390625 C 6.023438 -1.609375 6.328125 -1.910156 6.546875 -2.296875 C 6.765625 -2.691406 6.875 -3.128906 6.875 -3.609375 C 6.875 -4.085938 6.765625 -4.519531 6.546875 -4.90625 C 6.328125 -5.300781 6.023438 -5.601562 5.640625 -5.8125 C 5.253906 -6.03125 4.820312 -6.140625 4.34375 -6.140625 C 3.863281 -6.140625 3.429688 -6.03125 3.046875 -5.8125 C 2.660156 -5.601562 2.359375 -5.300781 2.140625 -4.90625 C 1.921875 -4.519531 1.8125 -4.085938 1.8125 -3.609375 C 1.8125 -3.128906 1.921875 -2.691406 2.140625 -2.296875 C 2.359375 -1.910156 2.660156 -1.609375 3.046875 -1.390625 C 3.429688 -1.179688 3.863281 -1.078125 4.34375 -1.078125 Z M 4.34375 -1.078125 "/></g></g></g><g fill="#ffffff" fill-opacity="1"><g transform="translate(121.077454, 10.673342)"><g><path d="M 7.390625 -7.21875 L 7.390625 0 L 6.28125 0 L 2.296875 -4.890625 L 2.296875 0 L 0.96875 0 L 0.96875 -7.21875 L 2.078125 -7.21875 L 6.046875 -2.328125 L 6.046875 -7.21875 Z M 7.390625 -7.21875 "/></g></g></g><g fill="#ffffff" fill-opacity="1"><g transform="translate(130.933381, 10.673342)"><g><path d="M 3.203125 0.109375 C 2.648438 0.109375 2.113281 0.03125 1.59375 -0.125 C 1.070312 -0.289062 0.660156 -0.503906 0.359375 -0.765625 L 0.828125 -1.8125 C 1.117188 -1.570312 1.476562 -1.378906 1.90625 -1.234375 C 2.34375 -1.085938 2.773438 -1.015625 3.203125 -1.015625 C 3.742188 -1.015625 4.144531 -1.097656 4.40625 -1.265625 C 4.675781 -1.441406 4.8125 -1.671875 4.8125 -1.953125 C 4.8125 -2.160156 4.734375 -2.328125 4.578125 -2.453125 C 4.429688 -2.585938 4.242188 -2.691406 4.015625 -2.765625 C 3.796875 -2.847656 3.488281 -2.9375 3.09375 -3.03125 C 2.539062 -3.164062 2.09375 -3.296875 1.75 -3.421875 C 1.414062 -3.554688 1.125 -3.757812 0.875 -4.03125 C 0.632812 -4.3125 0.515625 -4.691406 0.515625 -5.171875 C 0.515625 -5.566406 0.625 -5.925781 0.84375 -6.25 C 1.0625 -6.582031 1.382812 -6.84375 1.8125 -7.03125 C 2.25 -7.226562 2.785156 -7.328125 3.421875 -7.328125 C 3.859375 -7.328125 4.289062 -7.269531 4.71875 -7.15625 C 5.144531 -7.039062 5.515625 -6.882812 5.828125 -6.6875 L 5.40625 -5.640625 C 5.082031 -5.828125 4.75 -5.96875 4.40625 -6.0625 C 4.0625 -6.15625 3.726562 -6.203125 3.40625 -6.203125 C 2.882812 -6.203125 2.492188 -6.113281 2.234375 -5.9375 C 1.972656 -5.757812 1.84375 -5.523438 1.84375 -5.234375 C 1.84375 -5.023438 1.914062 -4.851562 2.0625 -4.71875 C 2.21875 -4.59375 2.40625 -4.488281 2.625 -4.40625 C 2.851562 -4.332031 3.164062 -4.25 3.5625 -4.15625 C 4.09375 -4.03125 4.53125 -3.898438 4.875 -3.765625 C 5.21875 -3.628906 5.507812 -3.425781 5.75 -3.15625 C 6 -2.882812 6.125 -2.515625 6.125 -2.046875 C 6.125 -1.640625 6.015625 -1.273438 5.796875 -0.953125 C 5.578125 -0.628906 5.25 -0.367188 4.8125 -0.171875 C 4.375 0.015625 3.835938 0.109375 3.203125 0.109375 Z M 3.203125 0.109375 "/></g></g></g><g fill="#ffffff" fill-opacity="1"><g transform="translate(138.925536, 10.673342)"><g><path d="M 2.4375 -6.078125 L 0.046875 -6.078125 L 0.046875 -7.21875 L 6.171875 -7.21875 L 6.171875 -6.078125 L 3.78125 -6.078125 L 3.78125 0 L 2.4375 0 Z M 2.4375 -6.078125 "/></g></g></g><g fill="#ffffff" fill-opacity="1"><g transform="translate(146.639669, 10.673342)"><g><path d="M 5.6875 0 L 4.21875 -2.109375 C 4.15625 -2.109375 4.0625 -2.109375 3.9375 -2.109375 L 2.3125 -2.109375 L 2.3125 0 L 0.96875 0 L 0.96875 -7.21875 L 3.9375 -7.21875 C 4.5625 -7.21875 5.101562 -7.113281 5.5625 -6.90625 C 6.03125 -6.695312 6.390625 -6.398438 6.640625 -6.015625 C 6.890625 -5.628906 7.015625 -5.175781 7.015625 -4.65625 C 7.015625 -4.113281 6.878906 -3.644531 6.609375 -3.25 C 6.347656 -2.851562 5.96875 -2.5625 5.46875 -2.375 L 7.140625 0 Z M 5.65625 -4.65625 C 5.65625 -5.113281 5.503906 -5.460938 5.203125 -5.703125 C 4.898438 -5.953125 4.457031 -6.078125 3.875 -6.078125 L 2.3125 -6.078125 L 2.3125 -3.203125 L 3.875 -3.203125 C 4.457031 -3.203125 4.898438 -3.328125 5.203125 -3.578125 C 5.503906 -3.828125 5.65625 -4.1875 5.65625 -4.65625 Z M 5.65625 -4.65625 "/></g></g></g><g fill="#ffffff" fill-opacity="1"><g transform="translate(155.68213, 10.673342)"><g><path d="M 4.078125 0.109375 C 3.078125 0.109375 2.296875 -0.171875 1.734375 -0.734375 C 1.179688 -1.296875 0.90625 -2.097656 0.90625 -3.140625 L 0.90625 -7.21875 L 2.25 -7.21875 L 2.25 -3.203125 C 2.25 -1.785156 2.859375 -1.078125 4.078125 -1.078125 C 5.296875 -1.078125 5.90625 -1.785156 5.90625 -3.203125 L 5.90625 -7.21875 L 7.234375 -7.21875 L 7.234375 -3.140625 C 7.234375 -2.097656 6.953125 -1.296875 6.390625 -0.734375 C 5.835938 -0.171875 5.066406 0.109375 4.078125 0.109375 Z M 4.078125 0.109375 "/></g></g></g><g fill="#ffffff" fill-opacity="1"><g transform="translate(165.32182, 10.673342)"><g><path d="M 4.3125 0.109375 C 3.582031 0.109375 2.921875 -0.0507812 2.328125 -0.375 C 1.742188 -0.695312 1.285156 -1.140625 0.953125 -1.703125 C 0.617188 -2.265625 0.453125 -2.898438 0.453125 -3.609375 C 0.453125 -4.316406 0.617188 -4.953125 0.953125 -5.515625 C 1.296875 -6.078125 1.757812 -6.519531 2.34375 -6.84375 C 2.9375 -7.164062 3.597656 -7.328125 4.328125 -7.328125 C 4.910156 -7.328125 5.445312 -7.222656 5.9375 -7.015625 C 6.425781 -6.804688 6.835938 -6.503906 7.171875 -6.109375 L 6.3125 -5.296875 C 5.789062 -5.859375 5.148438 -6.140625 4.390625 -6.140625 C 3.890625 -6.140625 3.441406 -6.03125 3.046875 -5.8125 C 2.660156 -5.601562 2.359375 -5.304688 2.140625 -4.921875 C 1.921875 -4.535156 1.8125 -4.097656 1.8125 -3.609375 C 1.8125 -3.117188 1.921875 -2.679688 2.140625 -2.296875 C 2.359375 -1.910156 2.660156 -1.609375 3.046875 -1.390625 C 3.441406 -1.179688 3.890625 -1.078125 4.390625 -1.078125 C 5.148438 -1.078125 5.789062 -1.359375 6.3125 -1.921875 L 7.171875 -1.109375 C 6.835938 -0.710938 6.425781 -0.410156 5.9375 -0.203125 C 5.445312 0.00390625 4.90625 0.109375 4.3125 0.109375 Z M 4.3125 0.109375 "/></g></g></g><g fill="#ffffff" fill-opacity="1"><g transform="translate(174.323087, 10.673342)"><g><path d="M 2.4375 -6.078125 L 0.046875 -6.078125 L 0.046875 -7.21875 L 6.171875 -7.21875 L 6.171875 -6.078125 L 3.78125 -6.078125 L 3.78125 0 L 2.4375 0 Z M 2.4375 -6.078125 "/></g></g></g><g fill="#ffffff" fill-opacity="1"><g transform="translate(182.03722, 10.673342)"><g><path d="M 0.96875 -7.21875 L 2.3125 -7.21875 L 2.3125 0 L 0.96875 0 Z M 0.96875 -7.21875 "/></g></g></g><g fill="#ffffff" fill-opacity="1"><g transform="translate(186.837277, 10.673342)"><g><path d="M 4.34375 0.109375 C 3.601562 0.109375 2.9375 -0.0507812 2.34375 -0.375 C 1.757812 -0.695312 1.296875 -1.140625 0.953125 -1.703125 C 0.617188 -2.273438 0.453125 -2.910156 0.453125 -3.609375 C 0.453125 -4.304688 0.617188 -4.9375 0.953125 -5.5 C 1.296875 -6.070312 1.757812 -6.519531 2.34375 -6.84375 C 2.9375 -7.164062 3.601562 -7.328125 4.34375 -7.328125 C 5.070312 -7.328125 5.734375 -7.164062 6.328125 -6.84375 C 6.921875 -6.519531 7.382812 -6.078125 7.71875 -5.515625 C 8.0625 -4.953125 8.234375 -4.316406 8.234375 -3.609375 C 8.234375 -2.898438 8.0625 -2.265625 7.71875 -1.703125 C 7.382812 -1.140625 6.921875 -0.695312 6.328125 -0.375 C 5.734375 -0.0507812 5.070312 0.109375 4.34375 0.109375 Z M 4.34375 -1.078125 C 4.820312 -1.078125 5.253906 -1.179688 5.640625 -1.390625 C 6.023438 -1.609375 6.328125 -1.910156 6.546875 -2.296875 C 6.765625 -2.691406 6.875 -3.128906 6.875 -3.609375 C 6.875 -4.085938 6.765625 -4.519531 6.546875 -4.90625 C 6.328125 -5.300781 6.023438 -5.601562 5.640625 -5.8125 C 5.253906 -6.03125 4.820312 -6.140625 4.34375 -6.140625 C 3.863281 -6.140625 3.429688 -6.03125 3.046875 -5.8125 C 2.660156 -5.601562 2.359375 -5.300781 2.140625 -4.90625 C 1.921875 -4.519531 1.8125 -4.085938 1.8125 -3.609375 C 1.8125 -3.128906 1.921875 -2.691406 2.140625 -2.296875 C 2.359375 -1.910156 2.660156 -1.609375 3.046875 -1.390625 C 3.429688 -1.179688 3.863281 -1.078125 4.34375 -1.078125 Z M 4.34375 -1.078125 "/></g></g></g><g fill="#ffffff" fill-opacity="1"><g transform="translate(197.022699, 10.673342)"><g><path d="M 7.390625 -7.21875 L 7.390625 0 L 6.28125 0 L 2.296875 -4.890625 L 2.296875 0 L 0.96875 0 L 0.96875 -7.21875 L 2.078125 -7.21875 L 6.046875 -2.328125 L 6.046875 -7.21875 Z M 7.390625 -7.21875 "/></g></g></g><g fill="#ffffff" fill-opacity="1"><g transform="translate(206.878636, 10.673342)"><g><path d="M 3.203125 0.109375 C 2.648438 0.109375 2.113281 0.03125 1.59375 -0.125 C 1.070312 -0.289062 0.660156 -0.503906 0.359375 -0.765625 L 0.828125 -1.8125 C 1.117188 -1.570312 1.476562 -1.378906 1.90625 -1.234375 C 2.34375 -1.085938 2.773438 -1.015625 3.203125 -1.015625 C 3.742188 -1.015625 4.144531 -1.097656 4.40625 -1.265625 C 4.675781 -1.441406 4.8125 -1.671875 4.8125 -1.953125 C 4.8125 -2.160156 4.734375 -2.328125 4.578125 -2.453125 C 4.429688 -2.585938 4.242188 -2.691406 4.015625 -2.765625 C 3.796875 -2.847656 3.488281 -2.9375 3.09375 -3.03125 C 2.539062 -3.164062 2.09375 -3.296875 1.75 -3.421875 C 1.414062 -3.554688 1.125 -3.757812 0.875 -4.03125 C 0.632812 -4.3125 0.515625 -4.691406 0.515625 -5.171875 C 0.515625 -5.566406 0.625 -5.925781 0.84375 -6.25 C 1.0625 -6.582031 1.382812 -6.84375 1.8125 -7.03125 C 2.25 -7.226562 2.785156 -7.328125 3.421875 -7.328125 C 3.859375 -7.328125 4.289062 -7.269531 4.71875 -7.15625 C 5.144531 -7.039062 5.515625 -6.882812 5.828125 -6.6875 L 5.40625 -5.640625 C 5.082031 -5.828125 4.75 -5.96875 4.40625 -6.0625 C 4.0625 -6.15625 3.726562 -6.203125 3.40625 -6.203125 C 2.882812 -6.203125 2.492188 -6.113281 2.234375 -5.9375 C 1.972656 -5.757812 1.84375 -5.523438 1.84375 -5.234375 C 1.84375 -5.023438 1.914062 -4.851562 2.0625 -4.71875 C 2.21875 -4.59375 2.40625 -4.488281 2.625 -4.40625 C 2.851562 -4.332031 3.164062 -4.25 3.5625 -4.15625 C 4.09375 -4.03125 4.53125 -3.898438 4.875 -3.765625 C 5.21875 -3.628906 5.507812 -3.425781 5.75 -3.15625 C 6 -2.882812 6.125 -2.515625 6.125 -2.046875 C 6.125 -1.640625 6.015625 -1.273438 5.796875 -0.953125 C 5.578125 -0.628906 5.25 -0.367188 4.8125 -0.171875 C 4.375 0.015625 3.835938 0.109375 3.203125 0.109375 Z M 3.203125 0.109375 "/></g></g></g></g></g></g></g></g></svg>