<svg xmlns="http://www.w3.org/2000/svg" xmlns:xlink="http://www.w3.org/1999/xlink" width="500" zoomAndPan="magnify" viewBox="0 0 375 374.999991" height="500" preserveAspectRatio="xMidYMid meet" version="1.0"><defs><g/><clipPath id="877d000c86"><rect x="0" width="314" y="0" height="159"/></clipPath><clipPath id="f044bf5ed8"><path d="M 94 46 L 285 46 L 285 226.5 L 94 226.5 Z M 94 46 " clip-rule="nonzero"/></clipPath><clipPath id="394d3034de"><path d="M 90.046875 37.5 L 161 37.5 L 161 219 L 90.046875 219 Z M 90.046875 37.5 " clip-rule="nonzero"/></clipPath></defs><g transform="matrix(1, 0, 0, 1, 30, 198)"><g clip-path="url(#877d000c86)"><g fill="#ffffff" fill-opacity="1"><g transform="translate(1.756703, 112.620207)"><g><path d="M 6.46875 0 L 6.46875 -13.9375 L 36.21875 -13.9375 C 37.539062 -13.9375 38.734375 -14.265625 39.796875 -14.921875 C 40.859375 -15.585938 41.703125 -16.453125 42.328125 -17.515625 C 42.960938 -18.578125 43.28125 -19.738281 43.28125 -21 C 43.28125 -22.320312 42.960938 -23.515625 42.328125 -24.578125 C 41.703125 -25.640625 40.859375 -26.5 39.796875 -27.15625 C 38.734375 -27.820312 37.539062 -28.15625 36.21875 -28.15625 L 25.46875 -28.15625 C 21.425781 -28.15625 17.742188 -28.953125 14.421875 -30.546875 C 11.109375 -32.140625 8.472656 -34.476562 6.515625 -37.5625 C 4.554688 -40.644531 3.578125 -44.34375 3.578125 -48.65625 C 3.578125 -52.90625 4.503906 -56.585938 6.359375 -59.703125 C 8.222656 -62.816406 10.742188 -65.253906 13.921875 -67.015625 C 17.109375 -68.773438 20.628906 -69.65625 24.484375 -69.65625 L 55.21875 -69.65625 L 55.21875 -55.71875 L 26.375 -55.71875 C 25.175781 -55.71875 24.078125 -55.414062 23.078125 -54.8125 C 22.085938 -54.21875 21.328125 -53.421875 20.796875 -52.421875 C 20.265625 -51.429688 20 -50.34375 20 -49.15625 C 20 -47.957031 20.265625 -46.875 20.796875 -45.90625 C 21.328125 -44.945312 22.085938 -44.171875 23.078125 -43.578125 C 24.078125 -42.984375 25.175781 -42.6875 26.375 -42.6875 L 37.609375 -42.6875 C 42.054688 -42.6875 45.921875 -41.835938 49.203125 -40.140625 C 52.484375 -38.453125 55.035156 -36.097656 56.859375 -33.078125 C 58.679688 -30.066406 59.59375 -26.535156 59.59375 -22.484375 C 59.59375 -17.710938 58.644531 -13.648438 56.75 -10.296875 C 54.863281 -6.953125 52.328125 -4.398438 49.140625 -2.640625 C 45.960938 -0.878906 42.453125 0 38.609375 0 Z M 6.46875 0 "/></g></g></g><g fill="#ffffff" fill-opacity="1"><g transform="translate(56.860924, 112.620207)"><g><path d="M 5.765625 0 L 5.765625 -72.640625 L 21.1875 -72.640625 L 21.1875 -31.734375 L 27.953125 -31.734375 L 39.59375 -51.046875 L 56.8125 -51.046875 L 43.078125 -29.75 C 47.054688 -28.09375 50.15625 -25.554688 52.375 -22.140625 C 54.601562 -18.722656 55.71875 -14.726562 55.71875 -10.15625 L 55.71875 0 L 40.203125 0 L 40.203125 -10.15625 C 40.203125 -12.007812 39.753906 -13.679688 38.859375 -15.171875 C 37.960938 -16.660156 36.785156 -17.835938 35.328125 -18.703125 C 33.867188 -19.566406 32.207031 -20 30.34375 -20 L 21.1875 -20 L 21.1875 0 Z M 5.765625 0 "/></g></g></g><g fill="#ffffff" fill-opacity="1"><g transform="translate(109.080489, 112.620207)"><g><path d="M 23.484375 20.203125 L 23.484375 0.296875 C 19.765625 -0.628906 16.578125 -2.132812 13.921875 -4.21875 C 11.273438 -6.3125 9.253906 -8.867188 7.859375 -11.890625 C 6.460938 -14.910156 5.765625 -18.175781 5.765625 -21.6875 L 5.765625 -51.046875 L 21.1875 -51.046875 L 21.1875 -22.1875 C 21.1875 -20.394531 21.617188 -18.734375 22.484375 -17.203125 C 23.347656 -15.679688 24.523438 -14.472656 26.015625 -13.578125 C 27.515625 -12.679688 29.191406 -12.234375 31.046875 -12.234375 C 32.960938 -12.234375 34.664062 -12.679688 36.15625 -13.578125 C 37.65625 -14.472656 38.835938 -15.679688 39.703125 -17.203125 C 40.566406 -18.734375 41 -20.394531 41 -22.1875 L 41 -51.046875 L 56.421875 -51.046875 L 56.421875 -21.6875 C 56.421875 -18.175781 55.738281 -14.925781 54.375 -11.9375 C 53.019531 -8.957031 51.03125 -6.40625 48.40625 -4.28125 C 45.78125 -2.15625 42.613281 -0.660156 38.90625 0.203125 L 38.90625 20.203125 Z M 23.484375 20.203125 "/></g></g></g><g fill="#ffffff" fill-opacity="1"><g transform="translate(163.58788, 112.620207)"><g><path d="M 5.765625 0 L 5.765625 -72.640625 L 21.1875 -72.640625 L 21.1875 0 Z M 5.765625 0 "/></g></g></g><g fill="#ffffff" fill-opacity="1"><g transform="translate(182.783088, 112.620207)"><g><path d="M 5.765625 0 L 5.765625 -51.046875 L 21.296875 -51.046875 L 21.296875 0 Z M 13.53125 -56.8125 C 11.070312 -56.8125 8.945312 -57.707031 7.15625 -59.5 C 5.363281 -61.289062 4.46875 -63.410156 4.46875 -65.859375 C 4.46875 -68.316406 5.363281 -70.457031 7.15625 -72.28125 C 8.945312 -74.101562 11.070312 -75.015625 13.53125 -75.015625 C 15.976562 -75.015625 18.097656 -74.101562 19.890625 -72.28125 C 21.679688 -70.457031 22.578125 -68.316406 22.578125 -65.859375 C 22.578125 -63.410156 21.679688 -61.289062 19.890625 -59.5 C 18.097656 -57.707031 15.976562 -56.8125 13.53125 -56.8125 Z M 13.53125 -56.8125 "/></g></g></g><g fill="#ffffff" fill-opacity="1"><g transform="translate(201.978296, 112.620207)"><g><path d="M 5.765625 0 L 5.765625 -29.359375 C 5.765625 -33.597656 6.789062 -37.441406 8.84375 -40.890625 C 10.90625 -44.335938 13.84375 -47.085938 17.65625 -49.140625 C 21.46875 -51.203125 26 -52.234375 31.25 -52.234375 C 36.550781 -52.234375 41.078125 -51.203125 44.828125 -49.140625 C 48.578125 -47.085938 51.445312 -44.335938 53.4375 -40.890625 C 55.425781 -37.441406 56.421875 -33.597656 56.421875 -29.359375 L 56.421875 0 L 41 0 L 41 -28.953125 C 41 -30.742188 40.566406 -32.382812 39.703125 -33.875 C 38.835938 -35.375 37.65625 -36.570312 36.15625 -37.46875 C 34.664062 -38.363281 32.992188 -38.8125 31.140625 -38.8125 C 29.222656 -38.8125 27.515625 -38.363281 26.015625 -37.46875 C 24.523438 -36.570312 23.347656 -35.375 22.484375 -33.875 C 21.617188 -32.382812 21.1875 -30.742188 21.1875 -28.953125 L 21.1875 0 Z M 5.765625 0 "/></g></g></g><g fill="#ffffff" fill-opacity="1"><g transform="translate(256.485687, 112.620207)"><g><path d="M 32.4375 0 C 26.664062 0 21.585938 -1.078125 17.203125 -3.234375 C 12.828125 -5.390625 9.429688 -8.375 7.015625 -12.1875 C 4.597656 -16 3.390625 -20.425781 3.390625 -25.46875 C 3.390625 -31.039062 4.546875 -35.816406 6.859375 -39.796875 C 9.179688 -43.773438 12.28125 -46.84375 16.15625 -49 C 20.039062 -51.15625 24.335938 -52.234375 29.046875 -52.234375 C 34.421875 -52.234375 38.914062 -51.101562 42.53125 -48.84375 C 46.144531 -46.59375 48.878906 -43.523438 50.734375 -39.640625 C 52.597656 -35.765625 53.53125 -31.34375 53.53125 -26.375 C 53.53125 -25.507812 53.476562 -24.492188 53.375 -23.328125 C 53.28125 -22.171875 53.164062 -21.257812 53.03125 -20.59375 L 19.59375 -20.59375 C 20 -18.875 20.765625 -17.414062 21.890625 -16.21875 C 23.015625 -15.019531 24.4375 -14.140625 26.15625 -13.578125 C 27.882812 -13.015625 29.8125 -12.734375 31.9375 -12.734375 L 47.5625 -12.734375 L 47.5625 0 Z M 19.203125 -30.25 L 38.609375 -30.25 C 38.472656 -31.3125 38.269531 -32.335938 38 -33.328125 C 37.738281 -34.328125 37.328125 -35.207031 36.765625 -35.96875 C 36.203125 -36.726562 35.554688 -37.390625 34.828125 -37.953125 C 34.097656 -38.523438 33.25 -38.972656 32.28125 -39.296875 C 31.320312 -39.628906 30.242188 -39.796875 29.046875 -39.796875 C 27.523438 -39.796875 26.164062 -39.53125 24.96875 -39 C 23.78125 -38.46875 22.785156 -37.753906 21.984375 -36.859375 C 21.191406 -35.960938 20.578125 -34.929688 20.140625 -33.765625 C 19.710938 -32.609375 19.398438 -31.4375 19.203125 -30.25 Z M 19.203125 -30.25 "/></g></g></g></g></g><g clip-path="url(#f044bf5ed8)"><path fill="#ffffff" d="M 284.953125 215.21875 L 186.683594 215.21875 C 183.742188 221.894531 177.027344 226.503906 169.238281 226.421875 C 163.238281 226.34375 157.957031 223.441406 154.578125 219.03125 C 154.0625 218.355469 154.539062 217.402344 155.410156 217.402344 L 168.445312 217.441406 L 174.445312 207.707031 L 168.445312 197.933594 L 155.410156 197.890625 C 154.578125 197.890625 154.101562 196.9375 154.617188 196.261719 C 158.113281 191.734375 163.597656 188.832031 169.757812 188.910156 C 177.308594 189.03125 183.742188 193.601562 186.644531 200.078125 L 269.773438 200.078125 L 269.773438 117.664062 L 189.984375 64.972656 L 110.113281 117.664062 L 110.113281 200.910156 L 94.933594 200.910156 L 94.933594 109.480469 L 189.984375 46.773438 L 284.953125 109.480469 Z M 284.953125 215.21875 " fill-opacity="1" fill-rule="nonzero"/></g><path fill="#ffffff" d="M 230.355469 183.230469 L 252.925781 160.660156 L 252.925781 183.230469 Z M 230.355469 183.230469 " fill-opacity="1" fill-rule="nonzero"/><path fill="#ffffff" d="M 267.230469 128.433594 L 198.089844 197.574219 L 208.777344 197.574219 L 208.777344 192.128906 C 208.777344 191.652344 209.175781 191.257812 209.652344 191.257812 C 210.128906 191.257812 210.527344 191.652344 210.527344 192.128906 L 210.527344 197.574219 L 216.488281 197.574219 L 216.488281 192.128906 C 216.488281 191.652344 216.882812 191.257812 217.359375 191.257812 C 217.835938 191.257812 218.234375 191.652344 218.234375 192.128906 L 218.234375 197.574219 L 224.195312 197.574219 L 224.195312 192.128906 C 224.195312 191.652344 224.59375 191.257812 225.070312 191.257812 C 225.546875 191.257812 225.945312 191.652344 225.945312 192.128906 L 225.945312 197.574219 L 231.902344 197.574219 L 231.902344 192.128906 C 231.902344 191.652344 232.300781 191.257812 232.777344 191.257812 C 233.253906 191.257812 233.652344 191.652344 233.652344 192.128906 L 233.652344 197.574219 L 239.613281 197.574219 L 239.613281 192.128906 C 239.613281 191.652344 240.011719 191.257812 240.488281 191.257812 C 240.964844 191.257812 241.363281 191.652344 241.363281 192.128906 L 241.363281 197.574219 L 247.320312 197.574219 L 247.320312 192.128906 C 247.320312 191.652344 247.71875 191.257812 248.195312 191.257812 C 248.671875 191.257812 249.070312 191.652344 249.070312 192.128906 L 249.070312 197.574219 L 255.03125 197.574219 L 255.03125 192.128906 C 255.03125 191.652344 255.429688 191.257812 255.90625 191.257812 C 256.382812 191.257812 256.777344 191.652344 256.777344 192.128906 L 256.777344 197.574219 L 267.46875 197.574219 L 267.46875 186.886719 L 262.023438 186.886719 C 261.546875 186.886719 261.148438 186.488281 261.148438 186.011719 C 261.148438 185.535156 261.546875 185.136719 262.023438 185.136719 L 267.46875 185.136719 L 267.46875 179.175781 L 262.023438 179.175781 C 261.546875 179.175781 261.148438 178.777344 261.148438 178.300781 C 261.148438 177.824219 261.546875 177.429688 262.023438 177.429688 L 267.46875 177.429688 L 267.46875 171.46875 L 262.023438 171.46875 C 261.546875 171.46875 261.148438 171.070312 261.148438 170.59375 C 261.148438 170.117188 261.546875 169.71875 262.023438 169.71875 L 267.46875 169.71875 L 267.46875 163.757812 L 262.023438 163.757812 C 261.546875 163.757812 261.148438 163.359375 261.148438 162.882812 C 261.148438 162.40625 261.546875 162.011719 262.023438 162.011719 L 267.46875 162.011719 L 267.46875 156.050781 L 262.023438 156.050781 C 261.546875 156.050781 261.148438 155.652344 261.148438 155.175781 C 261.148438 154.699219 261.546875 154.300781 262.023438 154.300781 L 267.46875 154.300781 L 267.46875 148.339844 L 262.023438 148.339844 C 261.546875 148.339844 261.148438 147.945312 261.148438 147.464844 C 261.148438 146.988281 261.546875 146.59375 262.023438 146.59375 L 267.46875 146.59375 L 267.46875 140.632812 L 262.023438 140.632812 C 261.546875 140.632812 261.148438 140.234375 261.148438 139.757812 C 261.148438 139.28125 261.546875 138.882812 262.023438 138.882812 L 267.46875 138.882812 L 267.46875 128.433594 Z M 253.558594 159.109375 C 254.195312 159.386719 254.632812 159.984375 254.632812 160.699219 L 254.632812 183.269531 C 254.632812 184.222656 253.878906 184.976562 252.925781 184.976562 L 230.355469 184.976562 C 229.640625 184.976562 229.042969 184.539062 228.765625 183.90625 C 228.6875 183.707031 228.644531 183.46875 228.644531 183.230469 C 228.644531 182.792969 228.804688 182.355469 229.164062 181.996094 L 251.734375 159.425781 C 252.167969 158.992188 252.925781 158.832031 253.558594 159.109375 Z M 253.558594 159.109375 " fill-opacity="1" fill-rule="nonzero"/><g clip-path="url(#394d3034de)"><path fill="#ffffff" d="M 137.570312 78.324219 L 122.390625 88.339844 L 122.390625 68.472656 L 137.570312 68.472656 Z M 157.597656 37.597656 C 154.855469 37.554688 152.152344 37.597656 149.410156 37.597656 C 148.695312 37.597656 148.179688 37.914062 147.863281 38.511719 C 147.066406 39.980469 144.960938 42.523438 142.695312 42.523438 C 139.757812 42.601562 137.808594 38.828125 135.066406 38.707031 C 129.425781 38.511719 123.78125 38.75 118.140625 38.707031 C 106.933594 39.226562 97.835938 43.4375 90.441406 65.132812 C 90.324219 65.570312 90.046875 66.207031 90.5625 66.445312 C 92.628906 67.359375 101.886719 51.621094 114.921875 54.523438 C 122.351562 56.152344 122.46875 63.664062 122.390625 66.605469 L 137.609375 66.605469 C 137.609375 64.378906 137.609375 62.152344 137.609375 59.929688 C 137.648438 57.625 138.363281 55.636719 140.152344 54.085938 C 141.386719 53.015625 143.292969 52.855469 144.761719 53.53125 C 146.191406 54.207031 146.988281 55.4375 147.703125 56.710938 C 148.140625 57.503906 148.734375 57.863281 149.648438 57.820312 C 152.273438 57.78125 154.894531 57.820312 157.519531 57.820312 C 159.386719 57.820312 160.65625 56.550781 160.65625 54.683594 C 160.65625 50.035156 160.65625 45.382812 160.65625 40.773438 C 160.695312 38.945312 159.425781 37.636719 157.597656 37.597656 Z M 122.390625 113.492188 L 126.960938 113.492188 C 127.476562 113.492188 127.914062 113.929688 127.914062 114.445312 C 127.914062 114.960938 127.476562 115.398438 126.960938 115.398438 L 122.390625 115.398438 L 122.390625 119.492188 L 130.539062 119.492188 C 131.09375 119.492188 131.492188 119.929688 131.492188 120.445312 C 131.492188 120.960938 131.054688 121.398438 130.539062 121.398438 L 122.390625 121.398438 L 122.390625 125.492188 L 126.960938 125.492188 C 127.476562 125.492188 127.914062 125.929688 127.914062 126.445312 C 127.914062 126.964844 127.476562 127.398438 126.960938 127.398438 L 122.390625 127.398438 L 122.390625 131.492188 L 130.539062 131.492188 C 131.09375 131.492188 131.492188 131.929688 131.492188 132.445312 C 131.492188 132.964844 131.054688 133.398438 130.539062 133.398438 L 122.390625 133.398438 L 122.390625 137.492188 L 126.960938 137.492188 C 127.476562 137.492188 127.914062 137.929688 127.914062 138.445312 C 127.914062 138.964844 127.476562 139.398438 126.960938 139.398438 L 122.390625 139.398438 L 122.390625 143.492188 L 130.539062 143.492188 C 131.09375 143.492188 131.492188 143.929688 131.492188 144.445312 C 131.492188 144.964844 131.054688 145.402344 130.539062 145.402344 L 122.390625 145.402344 L 122.390625 149.492188 L 126.960938 149.492188 C 127.476562 149.492188 127.914062 149.929688 127.914062 150.445312 C 127.914062 150.964844 127.476562 151.402344 126.960938 151.402344 L 122.390625 151.402344 L 122.390625 155.613281 L 130.539062 155.613281 C 131.09375 155.613281 131.492188 156.050781 131.492188 156.566406 C 131.492188 157.082031 131.054688 157.519531 130.539062 157.519531 L 122.390625 157.519531 L 122.390625 161.613281 L 126.960938 161.613281 C 127.476562 161.613281 127.914062 162.050781 127.914062 162.566406 C 127.914062 163.082031 127.476562 163.519531 126.960938 163.519531 L 122.390625 163.519531 L 122.390625 167.652344 L 130.539062 167.652344 C 131.09375 167.652344 131.492188 168.089844 131.492188 168.605469 C 131.492188 169.121094 131.054688 169.558594 130.539062 169.558594 L 122.390625 169.558594 L 122.390625 173.652344 L 126.960938 173.652344 C 127.476562 173.652344 127.914062 174.089844 127.914062 174.605469 C 127.914062 175.125 127.476562 175.558594 126.960938 175.558594 L 122.390625 175.558594 L 122.390625 179.691406 L 130.539062 179.691406 C 131.09375 179.691406 131.492188 180.128906 131.492188 180.648438 C 131.492188 181.164062 131.054688 181.601562 130.539062 181.601562 L 122.390625 181.601562 L 122.390625 185.734375 L 126.960938 185.734375 C 127.476562 185.734375 127.914062 186.167969 127.914062 186.6875 C 127.914062 187.203125 127.476562 187.640625 126.960938 187.640625 L 122.390625 187.640625 L 122.390625 191.773438 L 130.539062 191.773438 C 131.09375 191.773438 131.492188 192.210938 131.492188 192.726562 C 131.492188 193.242188 131.054688 193.679688 130.539062 193.679688 L 122.390625 193.679688 L 122.390625 197.734375 L 126.960938 197.734375 C 127.476562 197.734375 127.914062 198.171875 127.914062 198.6875 C 127.914062 199.203125 127.476562 199.640625 126.960938 199.640625 L 122.390625 199.640625 L 122.390625 203.097656 L 94.933594 203.097656 L 94.933594 218.277344 L 95.6875 218.277344 L 95.6875 213.707031 C 95.6875 213.152344 96.125 212.753906 96.640625 212.753906 C 97.160156 212.753906 97.597656 213.191406 97.597656 213.707031 L 97.597656 218.277344 L 101.726562 218.277344 L 101.726562 210.132812 C 101.726562 209.574219 102.164062 209.175781 102.683594 209.175781 C 103.199219 209.175781 103.636719 209.613281 103.636719 210.132812 L 103.636719 218.277344 L 107.730469 218.277344 L 107.730469 213.707031 C 107.730469 213.152344 108.164062 212.753906 108.683594 212.753906 C 109.199219 212.753906 109.636719 213.191406 109.636719 213.707031 L 109.636719 218.277344 L 113.769531 218.277344 L 113.769531 210.132812 C 113.769531 209.574219 114.207031 209.175781 114.722656 209.175781 C 115.238281 209.175781 115.675781 209.613281 115.675781 210.132812 L 115.675781 218.277344 L 119.808594 218.277344 L 119.808594 213.707031 C 119.808594 213.152344 120.246094 212.753906 120.761719 212.753906 C 121.277344 212.753906 121.714844 213.191406 121.714844 213.707031 L 121.714844 218.277344 L 125.847656 218.277344 L 125.847656 210.132812 C 125.847656 209.574219 126.285156 209.175781 126.800781 209.175781 C 127.320312 209.175781 127.753906 209.613281 127.753906 210.132812 L 127.753906 218.277344 L 131.886719 218.277344 L 131.886719 213.707031 C 131.886719 213.152344 132.324219 212.753906 132.84375 212.753906 C 133.359375 212.753906 133.796875 213.191406 133.796875 213.707031 L 133.796875 218.277344 L 137.691406 218.277344 L 137.691406 103.28125 L 122.511719 113.292969 L 122.511719 113.492188 Z M 122.390625 113.492188 " fill-opacity="1" fill-rule="nonzero"/></g><path fill="#ffffff" d="M 168.285156 137.214844 L 188.511719 137.214844 L 188.511719 157.441406 L 171.1875 157.441406 C 169.597656 157.441406 168.285156 156.167969 168.285156 154.539062 Z M 191.375 137.214844 L 191.375 157.441406 L 208.699219 157.441406 C 210.289062 157.441406 211.597656 156.167969 211.597656 154.539062 L 211.597656 137.214844 Z M 168.285156 116.988281 L 168.285156 134.3125 L 188.511719 134.3125 L 188.511719 114.089844 L 171.1875 114.089844 C 169.558594 114.128906 168.285156 115.398438 168.285156 116.988281 Z M 208.699219 114.128906 L 191.375 114.128906 L 191.375 134.355469 L 211.597656 134.355469 L 211.597656 117.027344 C 211.597656 115.398438 210.328125 114.128906 208.699219 114.128906 Z M 208.699219 114.128906 " fill-opacity="1" fill-rule="nonzero"/></svg>