<svg xmlns="http://www.w3.org/2000/svg" xmlns:xlink="http://www.w3.org/1999/xlink" width="500" zoomAndPan="magnify" viewBox="0 0 375 374.999991" height="500" preserveAspectRatio="xMidYMid meet" version="1.0"><defs><g/><clipPath id="23c61ec96f"><rect x="0" width="250" y="0" height="222"/></clipPath><clipPath id="2465bb6783"><rect x="0" width="84" y="0" height="234"/></clipPath></defs><g transform="matrix(1, 0, 0, 1, 109, 80)"><g clip-path="url(#23c61ec96f)"><g fill="#ffffff" fill-opacity="1"><g transform="translate(1.142587, 130.439283)"><g><path d="M 78.3125 -57.25 C 74.695312 -49.582031 72.78125 -41.242188 72.5625 -32.234375 C 72.34375 -23.234375 74.046875 -13.4375 77.671875 -2.84375 L 57.640625 -2.84375 C 56.773438 -5.34375 55.976562 -7.773438 55.25 -10.140625 C 54.519531 -12.515625 53.851562 -14.820312 53.25 -17.0625 C 50.488281 -12.75 46.585938 -9.171875 41.546875 -6.328125 C 36.503906 -3.484375 29.976562 -2.148438 21.96875 -2.328125 C 15.851562 -2.328125 11.222656 -4.003906 8.078125 -7.359375 C 4.929688 -10.722656 3.140625 -15.25 2.703125 -20.9375 C 2.273438 -26.625 3.03125 -32.929688 4.96875 -39.859375 C 6.914062 -46.796875 9.867188 -53.800781 13.828125 -60.875 L 39.796875 -60.875 C 37.046875 -56.300781 34.570312 -51.664062 32.375 -46.96875 C 30.175781 -42.28125 28.625 -37.992188 27.71875 -34.109375 C 26.8125 -30.234375 26.789062 -27.109375 27.65625 -24.734375 C 28.519531 -22.367188 30.628906 -21.1875 33.984375 -21.1875 C 38.117188 -21.1875 41.566406 -22.304688 44.328125 -24.546875 C 47.085938 -26.796875 49.023438 -29.640625 50.140625 -33.078125 C 49.796875 -37.128906 49.753906 -41.15625 50.015625 -45.15625 C 50.273438 -49.164062 50.960938 -53.195312 52.078125 -57.25 Z M 78.3125 -57.25 "/></g></g></g><g fill="#ffffff" fill-opacity="1"><g transform="translate(79.450526, 130.439283)"><g><path d="M -14.21875 17.703125 C -14.21875 10.984375 -12.835938 5.40625 -10.078125 0.96875 C -7.316406 -3.46875 -3.570312 -6.957031 1.15625 -9.5 C 5.894531 -12.039062 11.34375 -13.765625 17.5 -14.671875 C 23.664062 -15.578125 30.21875 -15.851562 37.15625 -15.5 C 44.09375 -15.15625 51.050781 -14.335938 58.03125 -13.046875 C 58.195312 -14.515625 58.320312 -15.976562 58.40625 -17.4375 C 58.5 -18.90625 58.585938 -20.457031 58.671875 -22.09375 C 58.753906 -26.570312 58.210938 -31.09375 57.046875 -35.65625 C 55.890625 -40.226562 54.234375 -44.429688 52.078125 -48.265625 C 49.921875 -52.097656 47.359375 -55.175781 44.390625 -57.5 C 41.421875 -59.832031 38.171875 -61 34.640625 -61 C 30.585938 -61 27.289062 -60.050781 24.75 -58.15625 C 22.207031 -56.257812 20.9375 -53.71875 20.9375 -50.53125 C 20.9375 -47.507812 22.207031 -45.007812 24.75 -43.03125 C 27.289062 -41.050781 30.585938 -40.0625 34.640625 -40.0625 C 37.128906 -40.0625 39.707031 -40.488281 42.375 -41.34375 C 45.050781 -42.207031 47.679688 -43.332031 50.265625 -44.71875 C 51.554688 -42.039062 52.632812 -39.085938 53.5 -35.859375 C 54.363281 -32.628906 54.925781 -29.332031 55.1875 -25.96875 C 51.738281 -24.59375 48.117188 -23.539062 44.328125 -22.8125 C 40.535156 -22.082031 37.085938 -21.71875 33.984375 -21.71875 C 27.347656 -21.71875 21.425781 -23.050781 16.21875 -25.71875 C 11.007812 -28.382812 6.894531 -31.894531 3.875 -36.25 C 0.863281 -40.601562 -0.640625 -45.363281 -0.640625 -50.53125 C -0.640625 -55.695312 0.863281 -60.476562 3.875 -64.875 C 6.894531 -69.269531 11.007812 -72.800781 16.21875 -75.46875 C 21.425781 -78.144531 27.347656 -79.484375 33.984375 -79.484375 C 40.878906 -79.484375 47.171875 -78.164062 52.859375 -75.53125 C 58.546875 -72.90625 63.367188 -68.835938 67.328125 -63.328125 C 68.960938 -66.597656 70.210938 -70.148438 71.078125 -73.984375 C 71.941406 -77.816406 72.375 -81.972656 72.375 -86.453125 L 99.890625 -86.453125 C 99.890625 -75.679688 97.910156 -66.289062 93.953125 -58.28125 C 89.992188 -50.269531 84.523438 -43.507812 77.546875 -38 C 78.316406 -33.257812 78.703125 -28.257812 78.703125 -23 C 78.703125 -12.832031 77.664062 -3.335938 75.59375 5.484375 C 73.53125 14.316406 70.34375 22.070312 66.03125 28.75 C 61.726562 35.425781 56.21875 40.640625 49.5 44.390625 C 42.78125 48.140625 34.765625 50.015625 25.453125 50.015625 C 17.273438 50.015625 10.210938 48.613281 4.265625 45.8125 C -1.679688 43.007812 -6.25 39.148438 -9.4375 34.234375 C -12.625 29.328125 -14.21875 23.816406 -14.21875 17.703125 Z M 76.890625 15.765625 C 78.097656 12.316406 79.085938 8.757812 79.859375 5.09375 C 80.640625 1.4375 81.242188 -2.367188 81.671875 -6.328125 C 88.046875 -4.085938 94.59375 -1.140625 101.3125 2.515625 C 108.039062 6.179688 114.894531 10.554688 121.875 15.640625 L 121.875 51.046875 C 112.5625 42.597656 104.265625 35.507812 96.984375 29.78125 C 89.703125 24.050781 83.003906 19.378906 76.890625 15.765625 Z M 8.140625 16.03125 C 8.140625 19.90625 9.453125 23.113281 12.078125 25.65625 C 14.710938 28.195312 19.21875 29.46875 25.59375 29.46875 C 31.96875 29.46875 37.648438 27.25 42.640625 22.8125 C 47.640625 18.375 51.347656 12.707031 53.765625 5.8125 C 48.941406 4.519531 43.878906 3.613281 38.578125 3.09375 C 33.273438 2.582031 28.316406 2.601562 23.703125 3.15625 C 19.097656 3.71875 15.351562 5.03125 12.46875 7.09375 C 9.582031 9.164062 8.140625 12.144531 8.140625 16.03125 Z M 8.140625 16.03125 "/></g></g></g><g fill="#ffffff" fill-opacity="1"><g transform="translate(171.585099, 130.439283)"><g><path d="M 43.6875 -79.09375 C 50.914062 -79.09375 56.8125 -77.863281 61.375 -75.40625 C 65.945312 -72.945312 69.332031 -69.691406 71.53125 -65.640625 C 73.726562 -61.597656 74.828125 -57.078125 74.828125 -52.078125 C 74.828125 -46.390625 73.488281 -41.628906 70.8125 -37.796875 C 68.144531 -33.960938 64.503906 -30.90625 59.890625 -28.625 C 55.285156 -26.34375 50.078125 -24.679688 44.265625 -23.640625 C 38.453125 -22.609375 32.441406 -22.09375 26.234375 -22.09375 C 22.179688 -22.09375 18.046875 -22.265625 13.828125 -22.609375 C 9.609375 -22.960938 5.429688 -23.4375 1.296875 -24.03125 L 1.296875 -46.140625 C 2.503906 -45.796875 3.6875 -45.472656 4.84375 -45.171875 C 6.007812 -44.867188 7.238281 -44.585938 8.53125 -44.328125 C 8.957031 -51.046875 10.742188 -57.007812 13.890625 -62.21875 C 17.035156 -67.4375 21.171875 -71.550781 26.296875 -74.5625 C 31.421875 -77.582031 37.21875 -79.09375 43.6875 -79.09375 Z M 34.640625 -40.703125 C 38.078125 -40.703125 41.21875 -41.046875 44.0625 -41.734375 C 46.90625 -42.429688 49.207031 -43.578125 50.96875 -45.171875 C 52.738281 -46.765625 53.625 -48.894531 53.625 -51.5625 C 53.625 -54.238281 52.503906 -56.414062 50.265625 -58.09375 C 48.023438 -59.769531 45.441406 -60.609375 42.515625 -60.609375 C 39.585938 -60.609375 37.023438 -59.722656 34.828125 -57.953125 C 32.628906 -56.191406 30.945312 -53.972656 29.78125 -51.296875 C 28.625 -48.628906 28.046875 -45.921875 28.046875 -43.171875 C 28.046875 -42.816406 28.046875 -42.46875 28.046875 -42.125 C 28.046875 -41.78125 28.085938 -41.394531 28.171875 -40.96875 C 29.296875 -40.882812 30.394531 -40.816406 31.46875 -40.765625 C 32.539062 -40.722656 33.597656 -40.703125 34.640625 -40.703125 Z M 31.015625 -19.25 C 34.203125 -14.601562 38.1875 -10.769531 42.96875 -7.75 C 47.75 -4.738281 52.851562 -2.890625 58.28125 -2.203125 L 58.28125 23 C 50.269531 22.144531 42.925781 19.671875 36.25 15.578125 C 29.570312 11.484375 23.945312 6.3125 19.375 0.0625 C 14.8125 -6.1875 11.539062 -12.972656 9.5625 -20.296875 C 13.007812 -19.859375 15.875 -19.53125 18.15625 -19.3125 C 20.4375 -19.101562 22.566406 -19 24.546875 -19 C 25.585938 -19 26.644531 -19.019531 27.71875 -19.0625 C 28.800781 -19.101562 29.898438 -19.164062 31.015625 -19.25 Z M 31.015625 -19.25 "/></g></g></g></g></g><g transform="matrix(1, 0, 0, 1, 32, 70)"><g clip-path="url(#2465bb6783)"><g fill="#ffffff" fill-opacity="1"><g transform="translate(1.485404, 137.229501)"><g><path d="M 58.078125 -63.390625 C 64.078125 -63.390625 68.710938 -61.640625 71.984375 -58.140625 C 75.253906 -54.640625 77.296875 -49.910156 78.109375 -43.953125 C 78.929688 -38.003906 78.632812 -31.300781 77.21875 -23.84375 C 75.8125 -16.394531 73.40625 -8.695312 70 -0.75 C 66.59375 7.195312 62.347656 14.898438 57.265625 22.359375 L 29.3125 22.625 C 31.945312 18.90625 34.554688 14.75 37.140625 10.15625 C 39.734375 5.5625 42.144531 0.90625 44.375 -3.8125 C 46.601562 -8.539062 48.441406 -13.109375 49.890625 -17.515625 C 51.347656 -21.921875 52.257812 -25.894531 52.625 -29.4375 C 52.988281 -32.988281 52.625 -35.785156 51.53125 -37.828125 C 50.4375 -39.878906 48.390625 -40.90625 45.390625 -40.90625 C 40.671875 -40.90625 36.765625 -39.332031 33.671875 -36.1875 C 30.578125 -33.050781 28.625 -29.078125 27.8125 -24.265625 C 28.175781 -20.085938 28.628906 -16.203125 29.171875 -12.609375 C 29.722656 -9.015625 30.40625 -5.859375 31.21875 -3.140625 L 10.09375 -3.140625 C 8.539062 -8.046875 7.285156 -14.359375 6.328125 -22.078125 C 5.378906 -29.804688 4.742188 -38.375 4.421875 -47.78125 C 4.109375 -57.1875 4.085938 -67 4.359375 -77.21875 C 4.628906 -87.445312 5.242188 -97.5625 6.203125 -107.5625 C 7.160156 -117.5625 8.410156 -126.921875 9.953125 -135.640625 L 37.625 -135.640625 C 35.625 -127.367188 33.875 -118.328125 32.375 -108.515625 C 30.875 -98.703125 29.691406 -88.703125 28.828125 -78.515625 C 27.960938 -68.335938 27.441406 -58.523438 27.265625 -49.078125 C 30.265625 -53.347656 34.265625 -56.847656 39.265625 -59.578125 C 44.265625 -62.304688 50.535156 -63.578125 58.078125 -63.390625 Z M 58.078125 -63.390625 "/></g></g></g></g></g></svg>