<svg xmlns="http://www.w3.org/2000/svg" xmlns:xlink="http://www.w3.org/1999/xlink" width="500" zoomAndPan="magnify" viewBox="0 0 375 374.999991" height="500" preserveAspectRatio="xMidYMid meet" version="1.0"><defs><g/><clipPath id="cbe192e330"><path d="M 72 109.332031 L 159 109.332031 L 159 265.332031 L 72 265.332031 Z M 72 109.332031 " clip-rule="nonzero"/></clipPath><clipPath id="f00f49d96b"><rect x="0" width="204" y="0" height="131"/></clipPath><clipPath id="9c0e0076f8"><rect x="0" width="159" y="0" height="26"/></clipPath></defs><path fill="#ffffff" d="M 81.765625 193.277344 L 88.472656 192.4375 L 89.3125 199.148438 L 82.601562 199.988281 Z M 81.765625 193.277344 " fill-opacity="1" fill-rule="nonzero"/><path fill="#ffffff" d="M 88.664062 184.40625 L 95.371094 183.566406 L 96.210938 190.277344 L 89.5 191.113281 Z M 88.664062 184.40625 " fill-opacity="1" fill-rule="nonzero"/><path fill="#ffffff" d="M 89.648438 192.289062 L 96.359375 191.453125 L 97.195312 198.160156 L 90.488281 199 Z M 89.648438 192.289062 " fill-opacity="1" fill-rule="nonzero"/><path fill="#ffffff" d="M 80.777344 185.390625 L 87.488281 184.554688 L 88.324219 191.265625 L 81.613281 192.101562 Z M 80.777344 185.390625 " fill-opacity="1" fill-rule="nonzero"/><path fill="#ffffff" d="M 116.804688 186.992188 L 122.855469 190.554688 L 122.128906 182.28125 L 85.152344 160.464844 L 55.789062 191.675781 L 57.34375 199.890625 L 62.382812 194.535156 L 64.3125 210.917969 L 71.574219 210.066406 L 68.929688 187.570312 L 86.367188 169.03125 L 109.203125 182.511719 C 109.25 183.246094 109.863281 187.285156 110.066406 188.511719 C 113.324219 208.140625 91.824219 221.164062 72.867188 221.164062 C 62.007812 221.164062 52.25 216.410156 45.582031 208.867188 C 42.914062 205.847656 30.457031 193.265625 30.511719 168.273438 C 30.59375 137.878906 55.382812 133.519531 70.847656 144.957031 C 70.640625 144.808594 70.472656 144.105469 70.371094 143.878906 C 69.90625 142.914062 69.359375 141.972656 68.78125 141.078125 C 66.898438 138.160156 64.480469 135.5625 61.65625 133.542969 C 50.628906 125.679688 33.949219 127.710938 24.761719 137.46875 C 18.996094 143.59375 16.535156 152.003906 16.003906 160.238281 C 14.585938 182.078125 27.371094 206.347656 46.566406 220.574219 C 47.292969 221.105469 48.03125 221.617188 48.789062 222.117188 C 55.734375 226.597656 64.003906 229.207031 72.886719 229.207031 C 81.929688 229.207031 90.484375 227.3125 97.757812 223.035156 C 103.679688 219.542969 120.109375 209.464844 116.804688 186.992188 Z M 116.804688 186.992188 " fill-opacity="1" fill-rule="nonzero"/><g clip-path="url(#cbe192e330)"><path fill="#ffffff" d="M 157.582031 152.683594 C 155.710938 139.078125 149.1875 126.609375 139.429688 118.703125 C 131.953125 112.644531 122.570312 109.332031 112.0625 109.785156 C 88.238281 110.820312 76.746094 129.480469 73.945312 141.371094 C 72.332031 148.222656 73.136719 154.453125 73.136719 154.453125 C 76.9375 138.003906 91.675781 125.738281 109.285156 125.738281 C 118.191406 125.738281 126.347656 128.867188 132.746094 134.097656 C 137.226562 137.660156 140.824219 142.269531 143.082031 147.519531 C 145.203125 152.195312 146.371094 157.378906 146.382812 162.835938 C 146.429688 186.753906 126.550781 204.269531 112.425781 221.230469 C 110.066406 224.066406 107.777344 226.960938 105.632812 229.96875 C 91.527344 249.789062 105.4375 263.503906 107.777344 265.59375 C 107.855469 265.660156 107.96875 265.582031 107.921875 265.480469 C 98.757812 244.832031 123.875 228.1875 141.585938 204.257812 C 141.652344 204.167969 141.722656 204.078125 141.789062 203.988281 C 152.851562 188.929688 160.089844 170.960938 157.582031 152.683594 Z M 157.582031 152.683594 " fill-opacity="1" fill-rule="nonzero"/></g><g transform="matrix(1, 0, 0, 1, 160, 109)"><g clip-path="url(#f00f49d96b)"><g fill="#ffffff" fill-opacity="1"><g transform="translate(0.133124, 65.769081)"><g><path d="M 19.234375 0.625 C 16.222656 0.625 13.546875 0.253906 11.203125 -0.484375 C 8.859375 -1.234375 6.90625 -2.207031 5.34375 -3.40625 C 3.78125 -4.613281 2.582031 -5.941406 1.75 -7.390625 L 6.46875 -13.15625 L 7.21875 -13.15625 C 8.519531 -11.207031 10.175781 -9.660156 12.1875 -8.515625 C 14.195312 -7.367188 16.546875 -6.796875 19.234375 -6.796875 C 21.535156 -6.796875 23.269531 -7.28125 24.4375 -8.25 C 25.601562 -9.21875 26.1875 -10.554688 26.1875 -12.265625 C 26.1875 -13.285156 26 -14.140625 25.625 -14.828125 C 25.25 -15.523438 24.625 -16.117188 23.75 -16.609375 C 22.875 -17.109375 21.695312 -17.539062 20.21875 -17.90625 L 14.640625 -19.171875 C 10.734375 -20.066406 7.828125 -21.546875 5.921875 -23.609375 C 4.015625 -25.679688 3.0625 -28.367188 3.0625 -31.671875 C 3.0625 -34.128906 3.671875 -36.285156 4.890625 -38.140625 C 6.117188 -40.003906 7.90625 -41.453125 10.25 -42.484375 C 12.601562 -43.515625 15.410156 -44.03125 18.671875 -44.03125 C 22.015625 -44.03125 24.878906 -43.585938 27.265625 -42.703125 C 29.648438 -41.816406 31.664062 -40.46875 33.3125 -38.65625 L 29.0625 -32.828125 L 28.328125 -32.828125 C 27.097656 -34.117188 25.691406 -35.082031 24.109375 -35.71875 C 22.523438 -36.363281 20.710938 -36.6875 18.671875 -36.6875 C 16.316406 -36.6875 14.523438 -36.269531 13.296875 -35.4375 C 12.066406 -34.613281 11.453125 -33.46875 11.453125 -32 C 11.453125 -30.632812 11.882812 -29.546875 12.75 -28.734375 C 13.613281 -27.921875 15.101562 -27.289062 17.21875 -26.84375 L 22.921875 -25.65625 C 27.128906 -24.757812 30.179688 -23.25 32.078125 -21.125 C 33.984375 -19 34.9375 -16.222656 34.9375 -12.796875 C 34.9375 -10.085938 34.351562 -7.726562 33.1875 -5.71875 C 32.019531 -3.707031 30.257812 -2.144531 27.90625 -1.03125 C 25.550781 0.0703125 22.660156 0.625 19.234375 0.625 Z M 19.234375 0.625 "/></g></g></g><g fill="#ffffff" fill-opacity="1"><g transform="translate(34.556109, 65.769081)"><g><path d="M 17.578125 0 L 8.96875 0 L 1.1875 -32.75 L 8.8125 -32.75 L 13.625 -10.59375 L 14.25 -10.59375 L 20.484375 -32.75 L 27.609375 -32.75 L 34.046875 -10.59375 L 34.671875 -10.59375 L 39.296875 -32.75 L 46.71875 -32.75 L 39.03125 0 L 30.40625 0 L 24.1875 -22.296875 L 23.578125 -22.296875 Z M 17.578125 0 "/></g></g></g><g fill="#ffffff" fill-opacity="1"><g transform="translate(79.575493, 65.769081)"><g><path d="M 32.359375 -14.515625 L 11.3125 -14.515625 C 11.550781 -11.660156 12.363281 -9.585938 13.75 -8.296875 C 15.132812 -7.003906 17.023438 -6.359375 19.421875 -6.359375 C 21.296875 -6.359375 22.816406 -6.707031 23.984375 -7.40625 C 25.148438 -8.101562 26.09375 -9.164062 26.8125 -10.59375 L 27.4375 -10.59375 L 32.890625 -7.09375 C 31.816406 -4.800781 30.203125 -2.941406 28.046875 -1.515625 C 25.890625 -0.0859375 23.015625 0.625 19.421875 0.625 C 16.035156 0.625 13.109375 -0.015625 10.640625 -1.296875 C 8.179688 -2.585938 6.28125 -4.503906 4.9375 -7.046875 C 3.601562 -9.585938 2.9375 -12.691406 2.9375 -16.359375 C 2.9375 -20.078125 3.640625 -23.210938 5.046875 -25.765625 C 6.453125 -28.316406 8.351562 -30.21875 10.75 -31.46875 C 13.144531 -32.726562 15.835938 -33.359375 18.828125 -33.359375 C 23.453125 -33.359375 26.992188 -32.128906 29.453125 -29.671875 C 31.921875 -27.222656 33.15625 -23.625 33.15625 -18.875 C 33.15625 -17.15625 33.097656 -15.820312 32.984375 -14.875 Z M 25.296875 -19.828125 C 25.210938 -22.328125 24.628906 -24.144531 23.546875 -25.28125 C 22.472656 -26.414062 20.898438 -26.984375 18.828125 -26.984375 C 14.671875 -26.984375 12.222656 -24.597656 11.484375 -19.828125 Z M 25.296875 -19.828125 "/></g></g></g><g fill="#ffffff" fill-opacity="1"><g transform="translate(112.306626, 65.769081)"><g><path d="M 32.359375 -14.515625 L 11.3125 -14.515625 C 11.550781 -11.660156 12.363281 -9.585938 13.75 -8.296875 C 15.132812 -7.003906 17.023438 -6.359375 19.421875 -6.359375 C 21.296875 -6.359375 22.816406 -6.707031 23.984375 -7.40625 C 25.148438 -8.101562 26.09375 -9.164062 26.8125 -10.59375 L 27.4375 -10.59375 L 32.890625 -7.09375 C 31.816406 -4.800781 30.203125 -2.941406 28.046875 -1.515625 C 25.890625 -0.0859375 23.015625 0.625 19.421875 0.625 C 16.035156 0.625 13.109375 -0.015625 10.640625 -1.296875 C 8.179688 -2.585938 6.28125 -4.503906 4.9375 -7.046875 C 3.601562 -9.585938 2.9375 -12.691406 2.9375 -16.359375 C 2.9375 -20.078125 3.640625 -23.210938 5.046875 -25.765625 C 6.453125 -28.316406 8.351562 -30.21875 10.75 -31.46875 C 13.144531 -32.726562 15.835938 -33.359375 18.828125 -33.359375 C 23.453125 -33.359375 26.992188 -32.128906 29.453125 -29.671875 C 31.921875 -27.222656 33.15625 -23.625 33.15625 -18.875 C 33.15625 -17.15625 33.097656 -15.820312 32.984375 -14.875 Z M 25.296875 -19.828125 C 25.210938 -22.328125 24.628906 -24.144531 23.546875 -25.28125 C 22.472656 -26.414062 20.898438 -26.984375 18.828125 -26.984375 C 14.671875 -26.984375 12.222656 -24.597656 11.484375 -19.828125 Z M 25.296875 -19.828125 "/></g></g></g><g fill="#ffffff" fill-opacity="1"><g transform="translate(145.03776, 65.769081)"><g><path d="M 22.59375 -7.8125 L 24.734375 -1.71875 C 23.835938 -0.988281 22.71875 -0.414062 21.375 0 C 20.03125 0.414062 18.503906 0.625 16.796875 0.625 C 13.253906 0.625 10.5625 -0.335938 8.71875 -2.265625 C 6.882812 -4.203125 5.96875 -7.007812 5.96875 -10.6875 L 5.96875 -26.25 L 0.984375 -26.25 L 0.984375 -32.765625 L 5.96875 -32.765625 L 5.96875 -39.15625 L 14.1875 -40.484375 L 14.1875 -32.765625 L 23.484375 -32.765625 L 23.484375 -26.25 L 14.1875 -26.25 L 14.1875 -11.28125 C 14.1875 -9.65625 14.519531 -8.472656 15.1875 -7.734375 C 15.863281 -6.992188 16.847656 -6.625 18.140625 -6.625 C 19.597656 -6.625 20.875 -7.019531 21.96875 -7.8125 Z M 22.59375 -7.8125 "/></g></g></g><g fill="#ffffff" fill-opacity="1"><g transform="translate(167.61773, 65.769081)"><g><path d="M 7.25 13.890625 C 5.84375 13.890625 4.566406 13.78125 3.421875 13.5625 C 2.285156 13.34375 1.363281 13.054688 0.65625 12.703125 L 1.953125 6.0625 L 2.5 5.875 C 2.988281 6.132812 3.597656 6.34375 4.328125 6.5 C 5.066406 6.65625 5.820312 6.734375 6.59375 6.734375 C 7.914062 6.734375 9.015625 6.5625 9.890625 6.21875 C 10.773438 5.875 11.523438 5.300781 12.140625 4.5 C 12.753906 3.695312 13.300781 2.582031 13.78125 1.15625 L 0.71875 -32.75 L 9.328125 -32.75 L 17.453125 -9.96875 L 18.171875 -9.96875 L 26.09375 -32.75 L 34.46875 -32.75 L 21.3125 2.046875 C 20.257812 4.859375 19.101562 7.117188 17.84375 8.828125 C 16.59375 10.546875 15.109375 11.816406 13.390625 12.640625 C 11.679688 13.472656 9.632812 13.890625 7.25 13.890625 Z M 7.25 13.890625 "/></g></g></g><g fill="#ffffff" fill-opacity="1"><g transform="translate(0.133124, 112.504615)"><g><path d="M 33.65625 -27.078125 L 33.65625 -43.40625 L 42.21875 -43.40625 L 42.21875 0 L 33.65625 0 L 33.65625 -19.765625 L 14.21875 -19.765625 L 14.21875 0 L 5.640625 0 L 5.640625 -43.40625 L 14.21875 -43.40625 L 14.21875 -27.078125 Z M 33.65625 -27.078125 "/></g></g></g><g fill="#ffffff" fill-opacity="1"><g transform="translate(45.152508, 112.504615)"><g><path d="M 19.03125 0.625 C 15.820312 0.625 13.003906 -0.03125 10.578125 -1.34375 C 8.160156 -2.664062 6.28125 -4.597656 4.9375 -7.140625 C 3.601562 -9.679688 2.9375 -12.753906 2.9375 -16.359375 C 2.9375 -19.960938 3.601562 -23.039062 4.9375 -25.59375 C 6.28125 -28.144531 8.160156 -30.078125 10.578125 -31.390625 C 13.003906 -32.703125 15.820312 -33.359375 19.03125 -33.359375 C 22.238281 -33.359375 25.050781 -32.703125 27.46875 -31.390625 C 29.894531 -30.078125 31.78125 -28.144531 33.125 -25.59375 C 34.46875 -23.039062 35.140625 -19.960938 35.140625 -16.359375 C 35.140625 -12.753906 34.46875 -9.679688 33.125 -7.140625 C 31.78125 -4.597656 29.894531 -2.664062 27.46875 -1.34375 C 25.050781 -0.03125 22.238281 0.625 19.03125 0.625 Z M 19.03125 -6.359375 C 24.113281 -6.359375 26.65625 -9.691406 26.65625 -16.359375 C 26.65625 -19.816406 26 -22.351562 24.6875 -23.96875 C 23.382812 -25.582031 21.5 -26.390625 19.03125 -26.390625 C 13.945312 -26.390625 11.40625 -23.046875 11.40625 -16.359375 C 11.40625 -9.691406 13.945312 -6.359375 19.03125 -6.359375 Z M 19.03125 -6.359375 "/></g></g></g><g fill="#ffffff" fill-opacity="1"><g transform="translate(80.34722, 112.504615)"><g><path d="M 4.71875 0 L 4.71875 -32.75 L 12.609375 -32.75 L 12.609375 -28.34375 L 13.234375 -28.234375 C 14.304688 -29.992188 15.554688 -31.285156 16.984375 -32.109375 C 18.421875 -32.941406 20.257812 -33.359375 22.5 -33.359375 C 24.976562 -33.359375 26.96875 -32.867188 28.46875 -31.890625 C 29.96875 -30.910156 31.066406 -29.484375 31.765625 -27.609375 L 32.390625 -27.609375 C 33.398438 -29.566406 34.703125 -31.015625 36.296875 -31.953125 C 37.890625 -32.890625 39.875 -33.359375 42.25 -33.359375 C 49.03125 -33.359375 52.421875 -29.582031 52.421875 -22.03125 L 52.421875 0 L 44.203125 0 L 44.203125 -20.984375 C 44.203125 -22.910156 43.828125 -24.296875 43.078125 -25.140625 C 42.328125 -25.992188 41.117188 -26.421875 39.453125 -26.421875 C 34.941406 -26.421875 32.6875 -23.398438 32.6875 -17.359375 L 32.6875 0 L 24.46875 0 L 24.46875 -20.984375 C 24.46875 -22.910156 24.082031 -24.296875 23.3125 -25.140625 C 22.550781 -25.992188 21.34375 -26.421875 19.6875 -26.421875 C 17.5625 -26.421875 15.90625 -25.710938 14.71875 -24.296875 C 13.53125 -22.878906 12.9375 -20.628906 12.9375 -17.546875 L 12.9375 0 Z M 4.71875 0 "/></g></g></g><g fill="#ffffff" fill-opacity="1"><g transform="translate(134.122716, 112.504615)"><g><path d="M 32.359375 -14.515625 L 11.3125 -14.515625 C 11.550781 -11.660156 12.363281 -9.585938 13.75 -8.296875 C 15.132812 -7.003906 17.023438 -6.359375 19.421875 -6.359375 C 21.296875 -6.359375 22.816406 -6.707031 23.984375 -7.40625 C 25.148438 -8.101562 26.09375 -9.164062 26.8125 -10.59375 L 27.4375 -10.59375 L 32.890625 -7.09375 C 31.816406 -4.800781 30.203125 -2.941406 28.046875 -1.515625 C 25.890625 -0.0859375 23.015625 0.625 19.421875 0.625 C 16.035156 0.625 13.109375 -0.015625 10.640625 -1.296875 C 8.179688 -2.585938 6.28125 -4.503906 4.9375 -7.046875 C 3.601562 -9.585938 2.9375 -12.691406 2.9375 -16.359375 C 2.9375 -20.078125 3.640625 -23.210938 5.046875 -25.765625 C 6.453125 -28.316406 8.351562 -30.21875 10.75 -31.46875 C 13.144531 -32.726562 15.835938 -33.359375 18.828125 -33.359375 C 23.453125 -33.359375 26.992188 -32.128906 29.453125 -29.671875 C 31.921875 -27.222656 33.15625 -23.625 33.15625 -18.875 C 33.15625 -17.15625 33.097656 -15.820312 32.984375 -14.875 Z M 25.296875 -19.828125 C 25.210938 -22.328125 24.628906 -24.144531 23.546875 -25.28125 C 22.472656 -26.414062 20.898438 -26.984375 18.828125 -26.984375 C 14.671875 -26.984375 12.222656 -24.597656 11.484375 -19.828125 Z M 25.296875 -19.828125 "/></g></g></g></g></g><g transform="matrix(1, 0, 0, 1, 167, 221)"><g clip-path="url(#9c0e0076f8)"><g fill="#ffffff" fill-opacity="1"><g transform="translate(0.0783138, 18.465307)"><g><path d="M 1.03125 -7.609375 L 2.578125 -7.609375 L 2.578125 -6.25 C 2.898438 -6.707031 3.347656 -7.046875 3.921875 -7.265625 C 4.492188 -7.492188 5.160156 -7.609375 5.921875 -7.609375 L 5.921875 -6.359375 C 5.109375 -6.359375 4.410156 -6.222656 3.828125 -5.953125 C 3.253906 -5.691406 2.851562 -5.273438 2.625 -4.703125 L 2.625 0 L 1.03125 0 Z M 1.03125 -7.609375 "/></g></g></g><g fill="#ffffff" fill-opacity="1"><g transform="translate(13.2561, 18.465307)"><g><path d="M 5.21875 0.234375 C 3.8125 0.234375 2.707031 -0.113281 1.90625 -0.8125 C 1.113281 -1.519531 0.71875 -2.507812 0.71875 -3.78125 C 0.71875 -5.03125 1.070312 -6.019531 1.78125 -6.75 C 2.5 -7.476562 3.515625 -7.84375 4.828125 -7.84375 C 5.703125 -7.84375 6.445312 -7.675781 7.0625 -7.34375 C 7.675781 -7.007812 8.140625 -6.546875 8.453125 -5.953125 C 8.765625 -5.367188 8.921875 -4.707031 8.921875 -3.96875 L 8.921875 -3.171875 L 2.234375 -3.171875 C 2.285156 -2.453125 2.585938 -1.914062 3.140625 -1.5625 C 3.703125 -1.207031 4.457031 -1.03125 5.40625 -1.03125 C 5.882812 -1.03125 6.375 -1.070312 6.875 -1.15625 C 7.375 -1.25 7.8125 -1.367188 8.1875 -1.515625 L 8.1875 -0.234375 C 7.851562 -0.0976562 7.40625 0.0078125 6.84375 0.09375 C 6.289062 0.1875 5.75 0.234375 5.21875 0.234375 Z M 7.421875 -4.296875 C 7.398438 -5.015625 7.160156 -5.570312 6.703125 -5.96875 C 6.253906 -6.363281 5.617188 -6.5625 4.796875 -6.5625 C 3.992188 -6.5625 3.367188 -6.351562 2.921875 -5.9375 C 2.484375 -5.53125 2.253906 -4.984375 2.234375 -4.296875 Z M 7.421875 -4.296875 "/></g></g></g><g fill="#ffffff" fill-opacity="1"><g transform="translate(29.74278, 18.465307)"><g><path d="M 3.75 0.234375 C 2.832031 0.234375 2.097656 0 1.546875 -0.46875 C 0.992188 -0.9375 0.71875 -1.570312 0.71875 -2.375 C 0.71875 -3.21875 0.984375 -3.867188 1.515625 -4.328125 C 2.046875 -4.785156 2.800781 -5.015625 3.78125 -5.015625 C 4.832031 -5.015625 5.722656 -4.804688 6.453125 -4.390625 L 6.453125 -4.78125 C 6.453125 -5.382812 6.269531 -5.832031 5.90625 -6.125 C 5.539062 -6.414062 4.96875 -6.5625 4.1875 -6.5625 C 3.71875 -6.5625 3.265625 -6.515625 2.828125 -6.421875 C 2.390625 -6.335938 1.992188 -6.210938 1.640625 -6.046875 L 1.640625 -7.34375 C 1.960938 -7.5 2.375 -7.617188 2.875 -7.703125 C 3.382812 -7.796875 3.878906 -7.84375 4.359375 -7.84375 C 5.617188 -7.84375 6.550781 -7.5625 7.15625 -7 C 7.757812 -6.445312 8.0625 -5.679688 8.0625 -4.703125 L 8.0625 0 L 6.5625 0 L 6.5625 -0.859375 C 6.226562 -0.492188 5.835938 -0.21875 5.390625 -0.03125 C 4.941406 0.144531 4.394531 0.234375 3.75 0.234375 Z M 4.15625 -0.984375 C 4.65625 -0.984375 5.109375 -1.082031 5.515625 -1.28125 C 5.929688 -1.476562 6.242188 -1.757812 6.453125 -2.125 L 6.453125 -3.15625 C 5.765625 -3.59375 5 -3.8125 4.15625 -3.8125 C 3.539062 -3.8125 3.082031 -3.691406 2.78125 -3.453125 C 2.476562 -3.222656 2.328125 -2.863281 2.328125 -2.375 C 2.328125 -1.445312 2.9375 -0.984375 4.15625 -0.984375 Z M 4.15625 -0.984375 "/></g></g></g><g fill="#ffffff" fill-opacity="1"><g transform="translate(45.612005, 18.465307)"><g><path d="M 1.03125 -11.703125 L 2.625 -11.703125 L 2.625 0 L 1.03125 0 Z M 1.03125 -11.703125 "/></g></g></g><g fill="#ffffff" fill-opacity="1"><g transform="translate(56.130022, 18.465307)"><g/></g></g><g fill="#ffffff" fill-opacity="1"><g transform="translate(68.84868, 18.465307)"><g><path d="M 5.21875 0.234375 C 3.8125 0.234375 2.707031 -0.113281 1.90625 -0.8125 C 1.113281 -1.519531 0.71875 -2.507812 0.71875 -3.78125 C 0.71875 -5.03125 1.070312 -6.019531 1.78125 -6.75 C 2.5 -7.476562 3.515625 -7.84375 4.828125 -7.84375 C 5.703125 -7.84375 6.445312 -7.675781 7.0625 -7.34375 C 7.675781 -7.007812 8.140625 -6.546875 8.453125 -5.953125 C 8.765625 -5.367188 8.921875 -4.707031 8.921875 -3.96875 L 8.921875 -3.171875 L 2.234375 -3.171875 C 2.285156 -2.453125 2.585938 -1.914062 3.140625 -1.5625 C 3.703125 -1.207031 4.457031 -1.03125 5.40625 -1.03125 C 5.882812 -1.03125 6.375 -1.070312 6.875 -1.15625 C 7.375 -1.25 7.8125 -1.367188 8.1875 -1.515625 L 8.1875 -0.234375 C 7.851562 -0.0976562 7.40625 0.0078125 6.84375 0.09375 C 6.289062 0.1875 5.75 0.234375 5.21875 0.234375 Z M 7.421875 -4.296875 C 7.398438 -5.015625 7.160156 -5.570312 6.703125 -5.96875 C 6.253906 -6.363281 5.617188 -6.5625 4.796875 -6.5625 C 3.992188 -6.5625 3.367188 -6.351562 2.921875 -5.9375 C 2.484375 -5.53125 2.253906 -4.984375 2.234375 -4.296875 Z M 7.421875 -4.296875 "/></g></g></g><g fill="#ffffff" fill-opacity="1"><g transform="translate(85.33536, 18.465307)"><g><path d="M 3.828125 0.234375 C 3.304688 0.234375 2.75 0.164062 2.15625 0.03125 C 1.5625 -0.09375 1.097656 -0.265625 0.765625 -0.484375 L 0.765625 -1.859375 C 1.171875 -1.609375 1.644531 -1.40625 2.1875 -1.25 C 2.726562 -1.101562 3.25 -1.03125 3.75 -1.03125 C 4.320312 -1.03125 4.738281 -1.097656 5 -1.234375 C 5.269531 -1.367188 5.40625 -1.59375 5.40625 -1.90625 C 5.40625 -2.132812 5.34375 -2.316406 5.21875 -2.453125 C 5.09375 -2.597656 4.882812 -2.726562 4.59375 -2.84375 C 4.3125 -2.96875 3.878906 -3.109375 3.296875 -3.265625 C 2.671875 -3.441406 2.175781 -3.625 1.8125 -3.8125 C 1.445312 -4 1.171875 -4.234375 0.984375 -4.515625 C 0.804688 -4.796875 0.71875 -5.164062 0.71875 -5.625 C 0.71875 -6.351562 1.003906 -6.90625 1.578125 -7.28125 C 2.148438 -7.65625 2.921875 -7.84375 3.890625 -7.84375 C 4.398438 -7.84375 4.894531 -7.796875 5.375 -7.703125 C 5.863281 -7.609375 6.257812 -7.472656 6.5625 -7.296875 L 6.5625 -5.96875 C 6.25 -6.15625 5.867188 -6.300781 5.421875 -6.40625 C 4.972656 -6.507812 4.519531 -6.5625 4.0625 -6.5625 C 3.5 -6.5625 3.066406 -6.488281 2.765625 -6.34375 C 2.472656 -6.207031 2.328125 -5.96875 2.328125 -5.625 C 2.328125 -5.40625 2.390625 -5.222656 2.515625 -5.078125 C 2.640625 -4.941406 2.84375 -4.820312 3.125 -4.71875 C 3.40625 -4.625 3.851562 -4.5 4.46875 -4.34375 C 5.425781 -4.070312 6.09375 -3.757812 6.46875 -3.40625 C 6.84375 -3.050781 7.03125 -2.554688 7.03125 -1.921875 C 7.03125 -1.265625 6.757812 -0.738281 6.21875 -0.34375 C 5.6875 0.0390625 4.890625 0.234375 3.828125 0.234375 Z M 3.828125 0.234375 "/></g></g></g><g fill="#ffffff" fill-opacity="1"><g transform="translate(99.938021, 18.465307)"><g><path d="M 3.96875 0.234375 C 3.1875 0.234375 2.585938 0.015625 2.171875 -0.421875 C 1.753906 -0.867188 1.546875 -1.5 1.546875 -2.3125 L 1.546875 -6.375 L 0.390625 -6.375 L 0.390625 -7.609375 L 1.546875 -7.609375 L 1.546875 -9.890625 L 3.171875 -9.890625 L 3.171875 -7.609375 L 5.03125 -7.609375 L 5.03125 -6.375 L 3.171875 -6.375 L 3.171875 -2.421875 C 3.171875 -1.910156 3.265625 -1.550781 3.453125 -1.34375 C 3.648438 -1.132812 4.007812 -1.03125 4.53125 -1.03125 C 4.832031 -1.03125 5.140625 -1.097656 5.453125 -1.234375 L 5.453125 0.03125 C 5.046875 0.164062 4.550781 0.234375 3.96875 0.234375 Z M 3.96875 0.234375 "/></g></g></g><g fill="#ffffff" fill-opacity="1"><g transform="translate(112.72, 18.465307)"><g><path d="M 3.75 0.234375 C 2.832031 0.234375 2.097656 0 1.546875 -0.46875 C 0.992188 -0.9375 0.71875 -1.570312 0.71875 -2.375 C 0.71875 -3.21875 0.984375 -3.867188 1.515625 -4.328125 C 2.046875 -4.785156 2.800781 -5.015625 3.78125 -5.015625 C 4.832031 -5.015625 5.722656 -4.804688 6.453125 -4.390625 L 6.453125 -4.78125 C 6.453125 -5.382812 6.269531 -5.832031 5.90625 -6.125 C 5.539062 -6.414062 4.96875 -6.5625 4.1875 -6.5625 C 3.71875 -6.5625 3.265625 -6.515625 2.828125 -6.421875 C 2.390625 -6.335938 1.992188 -6.210938 1.640625 -6.046875 L 1.640625 -7.34375 C 1.960938 -7.5 2.375 -7.617188 2.875 -7.703125 C 3.382812 -7.796875 3.878906 -7.84375 4.359375 -7.84375 C 5.617188 -7.84375 6.550781 -7.5625 7.15625 -7 C 7.757812 -6.445312 8.0625 -5.679688 8.0625 -4.703125 L 8.0625 0 L 6.5625 0 L 6.5625 -0.859375 C 6.226562 -0.492188 5.835938 -0.21875 5.390625 -0.03125 C 4.941406 0.144531 4.394531 0.234375 3.75 0.234375 Z M 4.15625 -0.984375 C 4.65625 -0.984375 5.109375 -1.082031 5.515625 -1.28125 C 5.929688 -1.476562 6.242188 -1.757812 6.453125 -2.125 L 6.453125 -3.15625 C 5.765625 -3.59375 5 -3.8125 4.15625 -3.8125 C 3.539062 -3.8125 3.082031 -3.691406 2.78125 -3.453125 C 2.476562 -3.222656 2.328125 -2.863281 2.328125 -2.375 C 2.328125 -1.445312 2.9375 -0.984375 4.15625 -0.984375 Z M 4.15625 -0.984375 "/></g></g></g><g fill="#ffffff" fill-opacity="1"><g transform="translate(128.589224, 18.465307)"><g><path d="M 3.96875 0.234375 C 3.1875 0.234375 2.585938 0.015625 2.171875 -0.421875 C 1.753906 -0.867188 1.546875 -1.5 1.546875 -2.3125 L 1.546875 -6.375 L 0.390625 -6.375 L 0.390625 -7.609375 L 1.546875 -7.609375 L 1.546875 -9.890625 L 3.171875 -9.890625 L 3.171875 -7.609375 L 5.03125 -7.609375 L 5.03125 -6.375 L 3.171875 -6.375 L 3.171875 -2.421875 C 3.171875 -1.910156 3.265625 -1.550781 3.453125 -1.34375 C 3.648438 -1.132812 4.007812 -1.03125 4.53125 -1.03125 C 4.832031 -1.03125 5.140625 -1.097656 5.453125 -1.234375 L 5.453125 0.03125 C 5.046875 0.164062 4.550781 0.234375 3.96875 0.234375 Z M 3.96875 0.234375 "/></g></g></g><g fill="#ffffff" fill-opacity="1"><g transform="translate(141.371203, 18.465307)"><g><path d="M 5.21875 0.234375 C 3.8125 0.234375 2.707031 -0.113281 1.90625 -0.8125 C 1.113281 -1.519531 0.71875 -2.507812 0.71875 -3.78125 C 0.71875 -5.03125 1.070312 -6.019531 1.78125 -6.75 C 2.5 -7.476562 3.515625 -7.84375 4.828125 -7.84375 C 5.703125 -7.84375 6.445312 -7.675781 7.0625 -7.34375 C 7.675781 -7.007812 8.140625 -6.546875 8.453125 -5.953125 C 8.765625 -5.367188 8.921875 -4.707031 8.921875 -3.96875 L 8.921875 -3.171875 L 2.234375 -3.171875 C 2.285156 -2.453125 2.585938 -1.914062 3.140625 -1.5625 C 3.703125 -1.207031 4.457031 -1.03125 5.40625 -1.03125 C 5.882812 -1.03125 6.375 -1.070312 6.875 -1.15625 C 7.375 -1.25 7.8125 -1.367188 8.1875 -1.515625 L 8.1875 -0.234375 C 7.851562 -0.0976562 7.40625 0.0078125 6.84375 0.09375 C 6.289062 0.1875 5.75 0.234375 5.21875 0.234375 Z M 7.421875 -4.296875 C 7.398438 -5.015625 7.160156 -5.570312 6.703125 -5.96875 C 6.253906 -6.363281 5.617188 -6.5625 4.796875 -6.5625 C 3.992188 -6.5625 3.367188 -6.351562 2.921875 -5.9375 C 2.484375 -5.53125 2.253906 -4.984375 2.234375 -4.296875 Z M 7.421875 -4.296875 "/></g></g></g></g></g></svg>