<svg xmlns="http://www.w3.org/2000/svg" xmlns:xlink="http://www.w3.org/1999/xlink" width="500" zoomAndPan="magnify" viewBox="0 0 375 374.999991" height="500" preserveAspectRatio="xMidYMid meet" version="1.0"><defs><g/><clipPath id="267fb5df89"><path d="M 33.007812 134 L 100 134 L 100 227 L 33.007812 227 Z M 33.007812 134 " clip-rule="nonzero"/></clipPath><clipPath id="d1e78f2042"><path d="M 106 123.328125 L 110 123.328125 L 110 253.828125 L 106 253.828125 Z M 106 123.328125 " clip-rule="nonzero"/></clipPath><clipPath id="08f1a29e89"><rect x="0" width="223" y="0" height="73"/></clipPath><clipPath id="13b09ca17e"><rect x="0" width="166" y="0" height="73"/></clipPath><clipPath id="2a2661aeff"><rect x="0" width="230" y="0" height="20"/></clipPath></defs><g clip-path="url(#267fb5df89)"><path fill="#ffffff" d="M 33.058594 158.59375 L 33.058594 217.914062 C 33.058594 222.566406 36.867188 226.375 41.523438 226.375 L 71.007812 226.375 C 66.328125 220.277344 63.546875 212.640625 63.546875 204.363281 C 63.546875 184.371094 79.75 168.164062 99.742188 168.164062 L 99.742188 134.898438 L 86.738281 134.898438 C 83.898438 134.898438 81.269531 136.414062 79.851562 138.871094 L 73.351562 150.136719 L 41.523438 150.136719 C 36.867188 150.136719 33.058594 153.941406 33.058594 158.59375 Z M 42.980469 158.699219 C 42.980469 158.023438 43.53125 157.472656 44.203125 157.472656 L 63.433594 157.472656 C 64.109375 157.472656 64.660156 158.027344 64.660156 158.699219 L 64.660156 163.609375 C 64.660156 164.285156 64.105469 164.835938 63.433594 164.835938 L 44.207031 164.835938 C 43.53125 164.835938 42.980469 164.28125 42.980469 163.609375 Z M 42.980469 158.699219 " fill-opacity="1" fill-rule="nonzero"/></g><path fill="#ffffff" d="M 96.175781 180.632812 C 95.0625 180.796875 93.972656 181.035156 92.914062 181.347656 C 95.859375 183.300781 97.804688 186.644531 97.804688 190.445312 C 97.804688 196.46875 92.921875 201.351562 86.898438 201.351562 C 82.851562 201.351562 79.324219 199.140625 77.441406 195.867188 C 76.894531 197.363281 76.492188 198.933594 76.253906 200.550781 C 74.117188 215.25 85.457031 227.863281 99.738281 227.863281 L 99.738281 234.753906 C 91.554688 234.753906 83.863281 231.566406 78.078125 225.78125 C 72.292969 219.996094 69.105469 212.304688 69.105469 204.121094 C 69.105469 195.9375 72.292969 188.246094 78.078125 182.457031 C 83.863281 176.671875 91.554688 173.488281 99.738281 173.488281 L 99.738281 180.378906 C 98.570312 180.375 97.378906 180.457031 96.175781 180.632812 Z M 96.175781 180.632812 " fill-opacity="1" fill-rule="nonzero"/><g clip-path="url(#d1e78f2042)"><path fill="#ffffff" d="M 106.539062 123.328125 L 109.929688 123.328125 L 109.929688 253.519531 L 106.539062 253.519531 Z M 106.539062 123.328125 " fill-opacity="1" fill-rule="nonzero"/></g><g transform="matrix(1, 0, 0, 1, 118, 163)"><g clip-path="url(#08f1a29e89)"><g fill="#ffffff" fill-opacity="1"><g transform="translate(0.636315, 55.039478)"><g><path d="M 15.421875 0.53125 C 12.710938 0.53125 10.039062 0.222656 7.40625 -0.390625 C 4.78125 -1.003906 2.671875 -1.8125 1.078125 -2.8125 L 4.484375 -10.578125 C 5.960938 -9.660156 7.71875 -8.929688 9.75 -8.390625 C 11.78125 -7.859375 13.789062 -7.59375 15.78125 -7.59375 C 17.613281 -7.59375 18.921875 -7.78125 19.703125 -8.15625 C 20.484375 -8.539062 20.875 -9.09375 20.875 -9.8125 C 20.875 -10.53125 20.40625 -11.035156 19.46875 -11.328125 C 18.53125 -11.628906 17.046875 -11.921875 15.015625 -12.203125 C 12.421875 -12.515625 10.21875 -12.929688 8.40625 -13.453125 C 6.59375 -13.972656 5.023438 -14.929688 3.703125 -16.328125 C 2.390625 -17.722656 1.734375 -19.675781 1.734375 -22.1875 C 1.734375 -24.257812 2.347656 -26.101562 3.578125 -27.71875 C 4.816406 -29.332031 6.625 -30.609375 9 -31.546875 C 11.375 -32.484375 14.210938 -32.953125 17.515625 -32.953125 C 19.867188 -32.953125 22.203125 -32.710938 24.515625 -32.234375 C 26.828125 -31.753906 28.757812 -31.078125 30.3125 -30.203125 L 26.90625 -22.484375 C 24.039062 -24.078125 20.929688 -24.875 17.578125 -24.875 C 15.785156 -24.875 14.46875 -24.664062 13.625 -24.25 C 12.789062 -23.832031 12.375 -23.285156 12.375 -22.609375 C 12.375 -21.847656 12.832031 -21.316406 13.75 -21.015625 C 14.664062 -20.710938 16.179688 -20.40625 18.296875 -20.09375 C 20.960938 -19.695312 23.171875 -19.238281 24.921875 -18.71875 C 26.679688 -18.195312 28.207031 -17.25 29.5 -15.875 C 30.800781 -14.5 31.453125 -12.578125 31.453125 -10.109375 C 31.453125 -8.078125 30.832031 -6.253906 29.59375 -4.640625 C 28.363281 -3.023438 26.539062 -1.757812 24.125 -0.84375 C 21.71875 0.0703125 18.816406 0.53125 15.421875 0.53125 Z M 15.421875 0.53125 "/></g></g></g><g fill="#ffffff" fill-opacity="1"><g transform="translate(27.483301, 55.039478)"><g><path d="M 24.75 -32.953125 C 28.78125 -32.953125 32.019531 -31.753906 34.46875 -29.359375 C 36.925781 -26.960938 38.15625 -23.351562 38.15625 -18.53125 L 38.15625 0 L 26.78125 0 L 26.78125 -16.6875 C 26.78125 -21.113281 25.007812 -23.328125 21.46875 -23.328125 C 19.507812 -23.328125 17.941406 -22.6875 16.765625 -21.40625 C 15.597656 -20.132812 15.015625 -18.222656 15.015625 -15.671875 L 15.015625 0 L 3.640625 0 L 3.640625 -44.375 L 15.015625 -44.375 L 15.015625 -29.421875 C 16.242188 -30.578125 17.695312 -31.453125 19.375 -32.046875 C 21.050781 -32.648438 22.84375 -32.953125 24.75 -32.953125 Z M 24.75 -32.953125 "/></g></g></g><g fill="#ffffff" fill-opacity="1"><g transform="translate(63.239415, 55.039478)"><g><path d="M 19.90625 0.53125 C 16.4375 0.53125 13.304688 -0.179688 10.515625 -1.609375 C 7.734375 -3.046875 5.550781 -5.039062 3.96875 -7.59375 C 2.394531 -10.144531 1.609375 -13.035156 1.609375 -16.265625 C 1.609375 -19.453125 2.394531 -22.320312 3.96875 -24.875 C 5.550781 -27.425781 7.726562 -29.410156 10.5 -30.828125 C 13.269531 -32.242188 16.40625 -32.953125 19.90625 -32.953125 C 23.414062 -32.953125 26.566406 -32.242188 29.359375 -30.828125 C 32.148438 -29.410156 34.320312 -27.4375 35.875 -24.90625 C 37.425781 -22.375 38.203125 -19.492188 38.203125 -16.265625 C 38.203125 -13.035156 37.425781 -10.144531 35.875 -7.59375 C 34.320312 -5.039062 32.148438 -3.046875 29.359375 -1.609375 C 26.566406 -0.179688 23.414062 0.53125 19.90625 0.53125 Z M 19.90625 -8.484375 C 21.90625 -8.484375 23.539062 -9.171875 24.8125 -10.546875 C 26.09375 -11.921875 26.734375 -13.828125 26.734375 -16.265625 C 26.734375 -18.660156 26.09375 -20.535156 24.8125 -21.890625 C 23.539062 -23.242188 21.90625 -23.921875 19.90625 -23.921875 C 17.914062 -23.921875 16.28125 -23.242188 15 -21.890625 C 13.726562 -20.535156 13.09375 -18.660156 13.09375 -16.265625 C 13.09375 -13.828125 13.726562 -11.921875 15 -10.546875 C 16.28125 -9.171875 17.914062 -8.484375 19.90625 -8.484375 Z M 19.90625 -8.484375 "/></g></g></g><g fill="#ffffff" fill-opacity="1"><g transform="translate(97.201737, 55.039478)"><g><path d="M 38.09375 -44.375 L 38.09375 0 L 27.265625 0 L 27.265625 -3.234375 C 25.148438 -0.722656 21.984375 0.53125 17.765625 0.53125 C 14.804688 0.53125 12.113281 -0.15625 9.6875 -1.53125 C 7.257812 -2.90625 5.335938 -4.863281 3.921875 -7.40625 C 2.503906 -9.957031 1.796875 -12.910156 1.796875 -16.265625 C 1.796875 -19.609375 2.503906 -22.546875 3.921875 -25.078125 C 5.335938 -27.609375 7.257812 -29.550781 9.6875 -30.90625 C 12.113281 -32.269531 14.804688 -32.953125 17.765625 -32.953125 C 21.628906 -32.953125 24.617188 -31.832031 26.734375 -29.59375 L 26.734375 -44.375 Z M 20.15625 -8.484375 C 22.101562 -8.484375 23.710938 -9.171875 24.984375 -10.546875 C 26.265625 -11.921875 26.90625 -13.828125 26.90625 -16.265625 C 26.90625 -18.660156 26.273438 -20.535156 25.015625 -21.890625 C 23.765625 -23.242188 22.144531 -23.921875 20.15625 -23.921875 C 18.15625 -23.921875 16.515625 -23.242188 15.234375 -21.890625 C 13.960938 -20.535156 13.328125 -18.660156 13.328125 -16.265625 C 13.328125 -13.828125 13.960938 -11.921875 15.234375 -10.546875 C 16.515625 -9.171875 18.15625 -8.484375 20.15625 -8.484375 Z M 20.15625 -8.484375 "/></g></g></g><g fill="#ffffff" fill-opacity="1"><g transform="translate(133.077449, 55.039478)"><g><path d="M 57.34375 -32.40625 L 45.796875 0 L 34.796875 0 L 28.703125 -17.640625 L 22.359375 0 L 11.359375 0 L -0.171875 -32.40625 L 10.578125 -32.40625 L 17.21875 -12.796875 L 24.09375 -32.40625 L 33.78125 -32.40625 L 40.484375 -12.609375 L 47.359375 -32.40625 Z M 57.34375 -32.40625 "/></g></g></g><g fill="#ffffff" fill-opacity="1"><g transform="translate(184.379719, 55.039478)"><g><path d="M 36.78125 -16.140625 C 36.78125 -16.066406 36.71875 -15.128906 36.59375 -13.328125 L 13.03125 -13.328125 C 13.507812 -11.660156 14.4375 -10.375 15.8125 -9.46875 C 17.1875 -8.570312 18.910156 -8.125 20.984375 -8.125 C 22.546875 -8.125 23.894531 -8.34375 25.03125 -8.78125 C 26.164062 -9.226562 27.3125 -9.945312 28.46875 -10.9375 L 34.4375 -4.71875 C 31.289062 -1.21875 26.6875 0.53125 20.625 0.53125 C 16.84375 0.53125 13.515625 -0.179688 10.640625 -1.609375 C 7.773438 -3.046875 5.550781 -5.039062 3.96875 -7.59375 C 2.394531 -10.144531 1.609375 -13.035156 1.609375 -16.265625 C 1.609375 -19.453125 2.375 -22.3125 3.90625 -24.84375 C 5.445312 -27.375 7.570312 -29.359375 10.28125 -30.796875 C 12.988281 -32.234375 16.039062 -32.953125 19.4375 -32.953125 C 22.664062 -32.953125 25.59375 -32.28125 28.21875 -30.9375 C 30.851562 -29.601562 32.9375 -27.671875 34.46875 -25.140625 C 36.007812 -22.609375 36.78125 -19.609375 36.78125 -16.140625 Z M 19.5 -24.875 C 17.738281 -24.875 16.269531 -24.375 15.09375 -23.375 C 13.914062 -22.382812 13.171875 -21.03125 12.859375 -19.3125 L 26.125 -19.3125 C 25.8125 -21.03125 25.066406 -22.382812 23.890625 -23.375 C 22.710938 -24.375 21.25 -24.875 19.5 -24.875 Z M 19.5 -24.875 "/></g></g></g></g></g><g transform="matrix(1, 0, 0, 1, 118, 120)"><g clip-path="url(#13b09ca17e)"><g fill="#ffffff" fill-opacity="1"><g transform="translate(0.636315, 55.301463)"><g><path d="M 14.34375 0.296875 C 11.800781 0.296875 9.363281 -0.0664062 7.03125 -0.796875 C 4.695312 -1.535156 2.875 -2.46875 1.5625 -3.59375 L 3.46875 -6.9375 C 4.78125 -5.894531 6.429688 -5.046875 8.421875 -4.390625 C 10.421875 -3.734375 12.5 -3.40625 14.65625 -3.40625 C 17.519531 -3.40625 19.640625 -3.851562 21.015625 -4.75 C 22.390625 -5.644531 23.078125 -6.910156 23.078125 -8.546875 C 23.078125 -9.703125 22.695312 -10.609375 21.9375 -11.265625 C 21.1875 -11.929688 20.234375 -12.429688 19.078125 -12.765625 C 17.921875 -13.109375 16.382812 -13.4375 14.46875 -13.75 C 11.914062 -14.226562 9.863281 -14.71875 8.3125 -15.21875 C 6.757812 -15.71875 5.429688 -16.5625 4.328125 -17.75 C 3.234375 -18.945312 2.6875 -20.601562 2.6875 -22.71875 C 2.6875 -25.351562 3.78125 -27.503906 5.96875 -29.171875 C 8.164062 -30.847656 11.21875 -31.6875 15.125 -31.6875 C 17.15625 -31.6875 19.1875 -31.414062 21.21875 -30.875 C 23.257812 -30.34375 24.9375 -29.640625 26.25 -28.765625 L 24.390625 -25.359375 C 21.804688 -27.148438 18.71875 -28.046875 15.125 -28.046875 C 12.414062 -28.046875 10.375 -27.566406 9 -26.609375 C 7.625 -25.648438 6.9375 -24.394531 6.9375 -22.84375 C 6.9375 -21.644531 7.320312 -20.6875 8.09375 -19.96875 C 8.875 -19.25 9.84375 -18.71875 11 -18.375 C 12.15625 -18.039062 13.75 -17.695312 15.78125 -17.34375 C 18.289062 -16.863281 20.300781 -16.382812 21.8125 -15.90625 C 23.332031 -15.425781 24.628906 -14.609375 25.703125 -13.453125 C 26.785156 -12.296875 27.328125 -10.703125 27.328125 -8.671875 C 27.328125 -5.921875 26.179688 -3.738281 23.890625 -2.125 C 21.597656 -0.507812 18.414062 0.296875 14.34375 0.296875 Z M 14.34375 0.296875 "/></g></g></g><g fill="#ffffff" fill-opacity="1"><g transform="translate(24.015311, 55.301463)"><g><path d="M 22.484375 -1.90625 C 21.679688 -1.195312 20.691406 -0.648438 19.515625 -0.265625 C 18.347656 0.109375 17.125 0.296875 15.84375 0.296875 C 12.894531 0.296875 10.625 -0.5 9.03125 -2.09375 C 7.4375 -3.6875 6.640625 -5.9375 6.640625 -8.84375 L 6.640625 -27.859375 L 1.015625 -27.859375 L 1.015625 -31.453125 L 6.640625 -31.453125 L 6.640625 -38.328125 L 10.890625 -38.328125 L 10.890625 -31.453125 L 20.453125 -31.453125 L 20.453125 -27.859375 L 10.890625 -27.859375 L 10.890625 -9.09375 C 10.890625 -7.21875 11.351562 -5.789062 12.28125 -4.8125 C 13.21875 -3.832031 14.566406 -3.34375 16.328125 -3.34375 C 17.203125 -3.34375 18.046875 -3.484375 18.859375 -3.765625 C 19.679688 -4.046875 20.390625 -4.445312 20.984375 -4.96875 Z M 22.484375 -1.90625 "/></g></g></g><g fill="#ffffff" fill-opacity="1"><g transform="translate(42.431513, 55.301463)"><g><path d="M 34.265625 -31.453125 L 34.265625 0 L 30.203125 0 L 30.203125 -5.734375 C 29.078125 -3.828125 27.535156 -2.34375 25.578125 -1.28125 C 23.628906 -0.226562 21.398438 0.296875 18.890625 0.296875 C 14.785156 0.296875 11.546875 -0.847656 9.171875 -3.140625 C 6.804688 -5.429688 5.625 -8.789062 5.625 -13.21875 L 5.625 -31.453125 L 9.859375 -31.453125 L 9.859375 -13.640625 C 9.859375 -10.328125 10.675781 -7.8125 12.3125 -6.09375 C 13.945312 -4.382812 16.28125 -3.53125 19.3125 -3.53125 C 22.625 -3.53125 25.234375 -4.535156 27.140625 -6.546875 C 29.054688 -8.554688 30.015625 -11.359375 30.015625 -14.953125 L 30.015625 -31.453125 Z M 34.265625 -31.453125 "/></g></g></g><g fill="#ffffff" fill-opacity="1"><g transform="translate(76.812385, 55.301463)"><g><path d="M 34.625 -44.375 L 34.625 0 L 30.5625 0 L 30.5625 -6.21875 C 29.28125 -4.101562 27.59375 -2.488281 25.5 -1.375 C 23.40625 -0.257812 21.046875 0.296875 18.421875 0.296875 C 15.472656 0.296875 12.800781 -0.378906 10.40625 -1.734375 C 8.007812 -3.085938 6.132812 -4.976562 4.78125 -7.40625 C 3.425781 -9.84375 2.75 -12.613281 2.75 -15.71875 C 2.75 -18.832031 3.425781 -21.601562 4.78125 -24.03125 C 6.132812 -26.46875 8.007812 -28.351562 10.40625 -29.6875 C 12.800781 -31.019531 15.472656 -31.6875 18.421875 -31.6875 C 20.972656 -31.6875 23.273438 -31.15625 25.328125 -30.09375 C 27.378906 -29.039062 29.0625 -27.5 30.375 -25.46875 L 30.375 -44.375 Z M 18.78125 -3.46875 C 20.96875 -3.46875 22.945312 -3.972656 24.71875 -4.984375 C 26.5 -6.003906 27.894531 -7.453125 28.90625 -9.328125 C 29.925781 -11.203125 30.4375 -13.332031 30.4375 -15.71875 C 30.4375 -18.113281 29.925781 -20.25 28.90625 -22.125 C 27.894531 -24 26.5 -25.441406 24.71875 -26.453125 C 22.945312 -27.472656 20.96875 -27.984375 18.78125 -27.984375 C 16.539062 -27.984375 14.535156 -27.472656 12.765625 -26.453125 C 10.992188 -25.441406 9.597656 -24 8.578125 -22.125 C 7.566406 -20.25 7.0625 -18.113281 7.0625 -15.71875 C 7.0625 -13.332031 7.566406 -11.203125 8.578125 -9.328125 C 9.597656 -7.453125 10.992188 -6.003906 12.765625 -4.984375 C 14.535156 -3.972656 16.539062 -3.46875 18.78125 -3.46875 Z M 18.78125 -3.46875 "/></g></g></g><g fill="#ffffff" fill-opacity="1"><g transform="translate(111.492247, 55.301463)"><g><path d="M 5.921875 -31.453125 L 10.171875 -31.453125 L 10.171875 0 L 5.921875 0 Z M 8.078125 -38.328125 C 7.203125 -38.328125 6.460938 -38.625 5.859375 -39.21875 C 5.265625 -39.820312 4.96875 -40.539062 4.96875 -41.375 C 4.96875 -42.175781 5.265625 -42.875 5.859375 -43.46875 C 6.460938 -44.070312 7.203125 -44.375 8.078125 -44.375 C 8.953125 -44.375 9.6875 -44.082031 10.28125 -43.5 C 10.882812 -42.925781 11.1875 -42.238281 11.1875 -41.4375 C 11.1875 -40.5625 10.882812 -39.820312 10.28125 -39.21875 C 9.6875 -38.625 8.953125 -38.328125 8.078125 -38.328125 Z M 8.078125 -38.328125 "/></g></g></g><g fill="#ffffff" fill-opacity="1"><g transform="translate(121.716822, 55.301463)"><g><path d="M 18.78125 0.296875 C 15.75 0.296875 13.015625 -0.390625 10.578125 -1.765625 C 8.148438 -3.140625 6.238281 -5.039062 4.84375 -7.46875 C 3.445312 -9.90625 2.75 -12.65625 2.75 -15.71875 C 2.75 -18.789062 3.445312 -21.539062 4.84375 -23.96875 C 6.238281 -26.40625 8.148438 -28.300781 10.578125 -29.65625 C 13.015625 -31.007812 15.75 -31.6875 18.78125 -31.6875 C 21.8125 -31.6875 24.539062 -31.007812 26.96875 -29.65625 C 29.394531 -28.300781 31.296875 -26.40625 32.671875 -23.96875 C 34.046875 -21.539062 34.734375 -18.789062 34.734375 -15.71875 C 34.734375 -12.65625 34.046875 -9.90625 32.671875 -7.46875 C 31.296875 -5.039062 29.394531 -3.140625 26.96875 -1.765625 C 24.539062 -0.390625 21.8125 0.296875 18.78125 0.296875 Z M 18.78125 -3.46875 C 21.007812 -3.46875 23.007812 -3.972656 24.78125 -4.984375 C 26.5625 -6.003906 27.945312 -7.453125 28.9375 -9.328125 C 29.9375 -11.203125 30.4375 -13.332031 30.4375 -15.71875 C 30.4375 -18.113281 29.9375 -20.25 28.9375 -22.125 C 27.945312 -24 26.5625 -25.441406 24.78125 -26.453125 C 23.007812 -27.472656 21.007812 -27.984375 18.78125 -27.984375 C 16.539062 -27.984375 14.535156 -27.472656 12.765625 -26.453125 C 10.992188 -25.441406 9.597656 -24 8.578125 -22.125 C 7.566406 -20.25 7.0625 -18.113281 7.0625 -15.71875 C 7.0625 -13.332031 7.566406 -11.203125 8.578125 -9.328125 C 9.597656 -7.453125 10.992188 -6.003906 12.765625 -4.984375 C 14.535156 -3.972656 16.539062 -3.46875 18.78125 -3.46875 Z M 18.78125 -3.46875 "/></g></g></g><g fill="#ffffff" fill-opacity="1"><g transform="translate(153.349828, 55.301463)"><g/></g></g></g></g><g transform="matrix(1, 0, 0, 1, 118, 223)"><g clip-path="url(#2a2661aeff)"><g fill="#ffffff" fill-opacity="1"><g transform="translate(0.636315, 15.260424)"><g><path d="M 5.828125 -10.84375 C 7.210938 -10.84375 8.296875 -10.507812 9.078125 -9.84375 C 9.867188 -9.1875 10.265625 -8.28125 10.265625 -7.125 C 10.265625 -5.96875 9.867188 -5.0625 9.078125 -4.40625 C 8.296875 -3.75 7.210938 -3.421875 5.828125 -3.421875 L 2.90625 -3.421875 L 2.90625 0 L 1.765625 0 L 1.765625 -10.84375 Z M 5.796875 -4.4375 C 6.867188 -4.4375 7.6875 -4.671875 8.25 -5.140625 C 8.820312 -5.609375 9.109375 -6.269531 9.109375 -7.125 C 9.109375 -8.007812 8.820312 -8.6875 8.25 -9.15625 C 7.6875 -9.625 6.867188 -9.859375 5.796875 -9.859375 L 2.90625 -9.859375 L 2.90625 -4.4375 Z M 5.796875 -4.4375 "/></g></g></g><g fill="#ffffff" fill-opacity="1"><g transform="translate(21.017663, 15.260424)"><g><path d="M 10.828125 -10.84375 L 10.828125 0 L 9.703125 0 L 9.703125 -5 L 2.90625 -5 L 2.90625 0 L 1.765625 0 L 1.765625 -10.84375 L 2.90625 -10.84375 L 2.90625 -6.015625 L 9.703125 -6.015625 L 9.703125 -10.84375 Z M 10.828125 -10.84375 "/></g></g></g><g fill="#ffffff" fill-opacity="1"><g transform="translate(42.871077, 15.260424)"><g><path d="M 6.515625 0.09375 C 5.429688 0.09375 4.453125 -0.144531 3.578125 -0.625 C 2.710938 -1.101562 2.035156 -1.757812 1.546875 -2.59375 C 1.054688 -3.4375 0.8125 -4.378906 0.8125 -5.421875 C 0.8125 -6.460938 1.054688 -7.398438 1.546875 -8.234375 C 2.035156 -9.078125 2.710938 -9.738281 3.578125 -10.21875 C 4.453125 -10.695312 5.429688 -10.9375 6.515625 -10.9375 C 7.585938 -10.9375 8.550781 -10.695312 9.40625 -10.21875 C 10.269531 -9.75 10.953125 -9.09375 11.453125 -8.25 C 11.953125 -7.40625 12.203125 -6.460938 12.203125 -5.421875 C 12.203125 -4.378906 11.953125 -3.4375 11.453125 -2.59375 C 10.953125 -1.75 10.269531 -1.085938 9.40625 -0.609375 C 8.550781 -0.140625 7.585938 0.09375 6.515625 0.09375 Z M 6.515625 -0.9375 C 7.367188 -0.9375 8.140625 -1.128906 8.828125 -1.515625 C 9.523438 -1.898438 10.066406 -2.4375 10.453125 -3.125 C 10.847656 -3.8125 11.046875 -4.578125 11.046875 -5.421875 C 11.046875 -6.273438 10.847656 -7.039062 10.453125 -7.71875 C 10.066406 -8.40625 9.523438 -8.941406 8.828125 -9.328125 C 8.140625 -9.722656 7.367188 -9.921875 6.515625 -9.921875 C 5.648438 -9.921875 4.867188 -9.722656 4.171875 -9.328125 C 3.472656 -8.941406 2.925781 -8.40625 2.53125 -7.71875 C 2.132812 -7.039062 1.9375 -6.273438 1.9375 -5.421875 C 1.9375 -4.578125 2.132812 -3.8125 2.53125 -3.125 C 2.925781 -2.4375 3.472656 -1.898438 4.171875 -1.515625 C 4.867188 -1.128906 5.648438 -0.9375 6.515625 -0.9375 Z M 6.515625 -0.9375 "/></g></g></g><g fill="#ffffff" fill-opacity="1"><g transform="translate(65.127373, 15.260424)"><g><path d="M 3.875 -9.859375 L 0.0625 -9.859375 L 0.0625 -10.84375 L 8.828125 -10.84375 L 8.828125 -9.859375 L 5.015625 -9.859375 L 5.015625 0 L 3.875 0 Z M 3.875 -9.859375 "/></g></g></g><g fill="#ffffff" fill-opacity="1"><g transform="translate(83.277383, 15.260424)"><g><path d="M 6.515625 0.09375 C 5.429688 0.09375 4.453125 -0.144531 3.578125 -0.625 C 2.710938 -1.101562 2.035156 -1.757812 1.546875 -2.59375 C 1.054688 -3.4375 0.8125 -4.378906 0.8125 -5.421875 C 0.8125 -6.460938 1.054688 -7.398438 1.546875 -8.234375 C 2.035156 -9.078125 2.710938 -9.738281 3.578125 -10.21875 C 4.453125 -10.695312 5.429688 -10.9375 6.515625 -10.9375 C 7.585938 -10.9375 8.550781 -10.695312 9.40625 -10.21875 C 10.269531 -9.75 10.953125 -9.09375 11.453125 -8.25 C 11.953125 -7.40625 12.203125 -6.460938 12.203125 -5.421875 C 12.203125 -4.378906 11.953125 -3.4375 11.453125 -2.59375 C 10.953125 -1.75 10.269531 -1.085938 9.40625 -0.609375 C 8.550781 -0.140625 7.585938 0.09375 6.515625 0.09375 Z M 6.515625 -0.9375 C 7.367188 -0.9375 8.140625 -1.128906 8.828125 -1.515625 C 9.523438 -1.898438 10.066406 -2.4375 10.453125 -3.125 C 10.847656 -3.8125 11.046875 -4.578125 11.046875 -5.421875 C 11.046875 -6.273438 10.847656 -7.039062 10.453125 -7.71875 C 10.066406 -8.40625 9.523438 -8.941406 8.828125 -9.328125 C 8.140625 -9.722656 7.367188 -9.921875 6.515625 -9.921875 C 5.648438 -9.921875 4.867188 -9.722656 4.171875 -9.328125 C 3.472656 -8.941406 2.925781 -8.40625 2.53125 -7.71875 C 2.132812 -7.039062 1.9375 -6.273438 1.9375 -5.421875 C 1.9375 -4.578125 2.132812 -3.8125 2.53125 -3.125 C 2.925781 -2.4375 3.472656 -1.898438 4.171875 -1.515625 C 4.867188 -1.128906 5.648438 -0.9375 6.515625 -0.9375 Z M 6.515625 -0.9375 "/></g></g></g><g fill="#ffffff" fill-opacity="1"><g transform="translate(105.533679, 15.260424)"><g><path d="M 9.40625 -5.421875 L 10.515625 -5.421875 L 10.515625 -1.28125 C 10.003906 -0.84375 9.398438 -0.503906 8.703125 -0.265625 C 8.015625 -0.0234375 7.289062 0.09375 6.53125 0.09375 C 5.4375 0.09375 4.457031 -0.140625 3.59375 -0.609375 C 2.726562 -1.085938 2.046875 -1.75 1.546875 -2.59375 C 1.054688 -3.4375 0.8125 -4.378906 0.8125 -5.421875 C 0.8125 -6.460938 1.054688 -7.40625 1.546875 -8.25 C 2.046875 -9.09375 2.726562 -9.75 3.59375 -10.21875 C 4.457031 -10.695312 5.441406 -10.9375 6.546875 -10.9375 C 7.367188 -10.9375 8.125 -10.804688 8.8125 -10.546875 C 9.507812 -10.285156 10.097656 -9.894531 10.578125 -9.375 L 9.859375 -8.65625 C 9.003906 -9.5 7.914062 -9.921875 6.59375 -9.921875 C 5.707031 -9.921875 4.910156 -9.722656 4.203125 -9.328125 C 3.492188 -8.941406 2.9375 -8.40625 2.53125 -7.71875 C 2.132812 -7.039062 1.9375 -6.273438 1.9375 -5.421875 C 1.9375 -4.578125 2.132812 -3.8125 2.53125 -3.125 C 2.9375 -2.445312 3.488281 -1.910156 4.1875 -1.515625 C 4.894531 -1.128906 5.691406 -0.9375 6.578125 -0.9375 C 7.691406 -0.9375 8.632812 -1.210938 9.40625 -1.765625 Z M 9.40625 -5.421875 "/></g></g></g><g fill="#ffffff" fill-opacity="1"><g transform="translate(126.767277, 15.260424)"><g><path d="M 9.171875 0 L 6.703125 -3.484375 C 6.421875 -3.453125 6.128906 -3.4375 5.828125 -3.4375 L 2.90625 -3.4375 L 2.90625 0 L 1.765625 0 L 1.765625 -10.84375 L 5.828125 -10.84375 C 7.210938 -10.84375 8.296875 -10.507812 9.078125 -9.84375 C 9.867188 -9.1875 10.265625 -8.28125 10.265625 -7.125 C 10.265625 -6.28125 10.046875 -5.566406 9.609375 -4.984375 C 9.179688 -4.398438 8.570312 -3.976562 7.78125 -3.71875 L 10.4375 0 Z M 5.796875 -4.421875 C 6.867188 -4.421875 7.6875 -4.65625 8.25 -5.125 C 8.820312 -5.601562 9.109375 -6.269531 9.109375 -7.125 C 9.109375 -8.007812 8.820312 -8.6875 8.25 -9.15625 C 7.6875 -9.625 6.867188 -9.859375 5.796875 -9.859375 L 2.90625 -9.859375 L 2.90625 -4.421875 Z M 5.796875 -4.421875 "/></g></g></g><g fill="#ffffff" fill-opacity="1"><g transform="translate(147.226111, 15.260424)"><g><path d="M 8.578125 -2.90625 L 2.53125 -2.90625 L 1.21875 0 L 0.03125 0 L 4.984375 -10.84375 L 6.125 -10.84375 L 11.078125 0 L 9.875 0 Z M 8.15625 -3.828125 L 5.546875 -9.65625 L 2.9375 -3.828125 Z M 8.15625 -3.828125 "/></g></g></g><g fill="#ffffff" fill-opacity="1"><g transform="translate(167.59195, 15.260424)"><g><path d="M 5.828125 -10.84375 C 7.210938 -10.84375 8.296875 -10.507812 9.078125 -9.84375 C 9.867188 -9.1875 10.265625 -8.28125 10.265625 -7.125 C 10.265625 -5.96875 9.867188 -5.0625 9.078125 -4.40625 C 8.296875 -3.75 7.210938 -3.421875 5.828125 -3.421875 L 2.90625 -3.421875 L 2.90625 0 L 1.765625 0 L 1.765625 -10.84375 Z M 5.796875 -4.4375 C 6.867188 -4.4375 7.6875 -4.671875 8.25 -5.140625 C 8.820312 -5.609375 9.109375 -6.269531 9.109375 -7.125 C 9.109375 -8.007812 8.820312 -8.6875 8.25 -9.15625 C 7.6875 -9.625 6.867188 -9.859375 5.796875 -9.859375 L 2.90625 -9.859375 L 2.90625 -4.4375 Z M 5.796875 -4.4375 "/></g></g></g><g fill="#ffffff" fill-opacity="1"><g transform="translate(187.973298, 15.260424)"><g><path d="M 10.828125 -10.84375 L 10.828125 0 L 9.703125 0 L 9.703125 -5 L 2.90625 -5 L 2.90625 0 L 1.765625 0 L 1.765625 -10.84375 L 2.90625 -10.84375 L 2.90625 -6.015625 L 9.703125 -6.015625 L 9.703125 -10.84375 Z M 10.828125 -10.84375 "/></g></g></g><g fill="#ffffff" fill-opacity="1"><g transform="translate(209.826728, 15.260424)"><g><path d="M 5.484375 -3.75 L 5.484375 0 L 4.359375 0 L 4.359375 -3.75 L 0.015625 -10.84375 L 1.234375 -10.84375 L 4.953125 -4.765625 L 8.6875 -10.84375 L 9.828125 -10.84375 Z M 5.484375 -3.75 "/></g></g></g></g></g></svg>