<svg xmlns="http://www.w3.org/2000/svg" xmlns:xlink="http://www.w3.org/1999/xlink" width="500" zoomAndPan="magnify" viewBox="0 0 375 374.999991" height="500" preserveAspectRatio="xMidYMid meet" version="1.0"><defs><g/><clipPath id="6899e41d22"><rect x="0" width="348" y="0" height="54"/></clipPath><clipPath id="02ef224c54"><path d="M 123 152 L 181 152 L 181 223.410156 L 123 223.410156 Z M 123 152 " clip-rule="nonzero"/></clipPath><clipPath id="b0a1be8d37"><path d="M 193 152 L 251 152 L 251 223.410156 L 193 223.410156 Z M 193 152 " clip-rule="nonzero"/></clipPath><clipPath id="b46b7e0a65"><path d="M 122.355469 113 L 167 113 L 167 150 L 122.355469 150 Z M 122.355469 113 " clip-rule="nonzero"/></clipPath><clipPath id="9f45c4e1ea"><path d="M 252 152 L 252.855469 152 L 252.855469 153 L 252 153 Z M 252 152 " clip-rule="nonzero"/></clipPath><clipPath id="b62b5ac023"><path d="M 153 58.503906 L 222 58.503906 L 222 107 L 153 107 Z M 153 58.503906 " clip-rule="nonzero"/></clipPath><clipPath id="350cae0c01"><path d="M 2 0.160156 L 22 0.160156 L 22 23 L 2 23 Z M 2 0.160156 " clip-rule="nonzero"/></clipPath><clipPath id="3de927030f"><rect x="0" width="113" y="0" height="32"/></clipPath></defs><g transform="matrix(1, 0, 0, 1, 13, 232)"><g clip-path="url(#6899e41d22)"><g fill="#ffffff" fill-opacity="1"><g transform="translate(1.223636, 42.166671)"><g><path d="M 9.125 -23.25 L 9.125 -7.328125 C 9.125 -5.984375 9.179688 -4.894531 9.296875 -4.0625 C 9.410156 -3.226562 9.71875 -2.5625 10.21875 -2.0625 C 10.71875 -1.5625 11.535156 -1.164062 12.671875 -0.875 L 12.671875 0 L 1.703125 0 L 1.703125 -0.875 C 2.878906 -1.164062 3.703125 -1.566406 4.171875 -2.078125 C 4.640625 -2.585938 4.921875 -3.265625 5.015625 -4.109375 C 5.117188 -4.960938 5.171875 -6.035156 5.171875 -7.328125 L 5.171875 -23.25 C 5.171875 -24.59375 5.113281 -25.679688 5 -26.515625 C 4.882812 -27.347656 4.582031 -28.007812 4.09375 -28.5 C 3.613281 -29 2.789062 -29.394531 1.625 -29.6875 L 1.625 -30.5625 L 12.59375 -30.5625 L 12.59375 -29.6875 C 11.445312 -29.394531 10.632812 -28.992188 10.15625 -28.484375 C 9.675781 -27.972656 9.382812 -27.300781 9.28125 -26.46875 C 9.175781 -25.632812 9.125 -24.5625 9.125 -23.25 Z M 13.375 -17.328125 L 22.328125 -6.796875 C 23.234375 -5.710938 24.125 -4.722656 25 -3.828125 C 25.875 -2.941406 26.78125 -2.226562 27.71875 -1.6875 C 28.65625 -1.144531 29.632812 -0.875 30.65625 -0.875 L 30.65625 0 L 22.1875 0 C 22.1875 -0.207031 22.101562 -0.460938 21.9375 -0.765625 C 21.78125 -1.078125 21.46875 -1.535156 21 -2.140625 C 20.539062 -2.753906 19.859375 -3.617188 18.953125 -4.734375 C 18.046875 -5.847656 16.867188 -7.28125 15.421875 -9.03125 C 13.972656 -10.789062 12.164062 -12.984375 10 -15.609375 L 17.0625 -22.71875 C 18.226562 -23.882812 19.03125 -24.878906 19.46875 -25.703125 C 19.90625 -26.523438 20.085938 -27.203125 20.015625 -27.734375 C 19.941406 -28.273438 19.703125 -28.707031 19.296875 -29.03125 C 18.890625 -29.351562 18.394531 -29.585938 17.8125 -29.734375 L 17.8125 -30.5625 L 28.328125 -30.5625 L 28.328125 -29.734375 C 27.804688 -29.734375 27.171875 -29.5 26.421875 -29.03125 C 25.679688 -28.5625 24.878906 -27.953125 24.015625 -27.203125 C 23.148438 -26.460938 22.265625 -25.671875 21.359375 -24.828125 Z M 13.375 -17.328125 "/></g></g></g><g fill="#ffffff" fill-opacity="1"><g transform="translate(30.773624, 42.166671)"><g><path d="M 5.171875 -7.328125 L 5.171875 -23.25 C 5.171875 -24.59375 5.113281 -25.679688 5 -26.515625 C 4.882812 -27.347656 4.582031 -28.007812 4.09375 -28.5 C 3.613281 -29 2.789062 -29.394531 1.625 -29.6875 L 1.625 -30.5625 L 12.59375 -30.5625 L 12.59375 -29.6875 C 11.445312 -29.394531 10.632812 -28.992188 10.15625 -28.484375 C 9.675781 -27.972656 9.382812 -27.300781 9.28125 -26.46875 C 9.175781 -25.632812 9.125 -24.5625 9.125 -23.25 L 9.125 -7.328125 C 9.125 -5.984375 9.179688 -4.894531 9.296875 -4.0625 C 9.410156 -3.226562 9.71875 -2.5625 10.21875 -2.0625 C 10.71875 -1.5625 11.535156 -1.164062 12.671875 -0.875 L 12.671875 0 L 1.703125 0 L 1.703125 -0.875 C 2.878906 -1.164062 3.703125 -1.566406 4.171875 -2.078125 C 4.640625 -2.585938 4.921875 -3.265625 5.015625 -4.109375 C 5.117188 -4.960938 5.171875 -6.035156 5.171875 -7.328125 Z M 5.171875 -7.328125 "/></g></g></g><g fill="#ffffff" fill-opacity="1"><g transform="translate(45.15404, 42.166671)"><g><path d="M 22.71875 -29.6875 L 22.71875 -30.5625 L 33.203125 -30.5625 L 33.203125 -29.6875 C 32.503906 -29.488281 31.945312 -29.164062 31.53125 -28.71875 C 31.125 -28.28125 30.816406 -27.554688 30.609375 -26.546875 C 30.410156 -25.546875 30.265625 -24.085938 30.171875 -22.171875 C 30.085938 -20.253906 30.03125 -17.71875 30 -14.5625 L 29.90625 -6.015625 C 29.882812 -4.609375 29.894531 -3.367188 29.9375 -2.296875 C 29.976562 -1.234375 30.015625 -0.351562 30.046875 0.34375 L 27.984375 0.34375 C 27.691406 -0.113281 27.296875 -0.632812 26.796875 -1.21875 C 26.296875 -1.8125 25.695312 -2.515625 25 -3.328125 L 5.703125 -26.046875 C 5.703125 -23.210938 5.738281 -20.660156 5.8125 -18.390625 C 5.882812 -16.128906 5.953125 -13.945312 6.015625 -11.84375 C 6.097656 -9.382812 6.335938 -7.394531 6.734375 -5.875 C 7.128906 -4.351562 7.734375 -3.195312 8.546875 -2.40625 C 9.367188 -1.625 10.4375 -1.113281 11.75 -0.875 L 11.75 0 L 1.09375 0 L 1.09375 -0.875 C 1.65625 -0.988281 2.128906 -1.222656 2.515625 -1.578125 C 2.910156 -1.929688 3.234375 -2.515625 3.484375 -3.328125 C 3.734375 -4.148438 3.921875 -5.296875 4.046875 -6.765625 C 4.179688 -8.242188 4.265625 -10.171875 4.296875 -12.546875 L 4.4375 -25.609375 C 4.457031 -26.429688 4.410156 -27.097656 4.296875 -27.609375 C 4.179688 -28.117188 3.914062 -28.539062 3.5 -28.875 C 3.09375 -29.21875 2.4375 -29.488281 1.53125 -29.6875 L 1.53125 -30.5625 L 8.0625 -30.5625 C 8.300781 -30.039062 8.585938 -29.523438 8.921875 -29.015625 C 9.265625 -28.503906 9.65625 -27.984375 10.09375 -27.453125 L 28.640625 -5.53125 L 28.421875 -14.609375 C 28.359375 -17.378906 28.234375 -19.6875 28.046875 -21.53125 C 27.859375 -23.375 27.566406 -24.847656 27.171875 -25.953125 C 26.773438 -27.066406 26.21875 -27.914062 25.5 -28.5 C 24.789062 -29.09375 23.863281 -29.488281 22.71875 -29.6875 Z M 22.71875 -29.6875 "/></g></g></g><g fill="#ffffff" fill-opacity="1"><g transform="translate(79.439049, 42.166671)"><g><path d="M 17.9375 0.703125 C 14.78125 0.703125 12.007812 0.0351562 9.625 -1.296875 C 7.238281 -2.628906 5.375 -4.492188 4.03125 -6.890625 C 2.6875 -9.285156 2.015625 -12.078125 2.015625 -15.265625 C 2.015625 -18.453125 2.726562 -21.234375 4.15625 -23.609375 C 5.59375 -25.992188 7.5625 -27.859375 10.0625 -29.203125 C 12.5625 -30.554688 15.4375 -31.234375 18.6875 -31.234375 C 20.113281 -31.234375 21.625 -31.09375 23.21875 -30.8125 C 24.8125 -30.53125 26.367188 -30.113281 27.890625 -29.5625 L 28.6875 -21.046875 L 27.890625 -20.828125 C 26.785156 -23.546875 25.390625 -25.738281 23.703125 -27.40625 C 22.023438 -29.070312 19.925781 -29.90625 17.40625 -29.90625 C 15.1875 -29.90625 13.269531 -29.347656 11.65625 -28.234375 C 10.050781 -27.128906 8.816406 -25.546875 7.953125 -23.484375 C 7.097656 -21.421875 6.671875 -18.957031 6.671875 -16.09375 C 6.671875 -13.164062 7.164062 -10.519531 8.15625 -8.15625 C 9.15625 -5.789062 10.570312 -3.910156 12.40625 -2.515625 C 14.25 -1.128906 16.457031 -0.4375 19.03125 -0.4375 C 20.320312 -0.4375 21.410156 -0.546875 22.296875 -0.765625 C 23.191406 -0.984375 24.078125 -1.296875 24.953125 -1.703125 L 24.953125 -5.484375 C 24.953125 -7.148438 24.789062 -8.453125 24.46875 -9.390625 C 24.144531 -10.328125 23.550781 -11.039062 22.6875 -11.53125 C 21.832031 -12.03125 20.585938 -12.410156 18.953125 -12.671875 L 18.953125 -13.546875 L 31.625 -13.546875 L 31.625 -12.671875 C 30.976562 -12.492188 30.4375 -12.203125 30 -11.796875 C 29.5625 -11.390625 29.238281 -10.753906 29.03125 -9.890625 C 28.832031 -9.023438 28.734375 -7.789062 28.734375 -6.1875 C 28.734375 -4.988281 28.742188 -3.992188 28.765625 -3.203125 C 28.796875 -2.410156 28.84375 -1.679688 28.90625 -1.015625 C 27.125 -0.628906 25.390625 -0.25 23.703125 0.125 C 22.023438 0.507812 20.101562 0.703125 17.9375 0.703125 Z M 17.9375 0.703125 "/></g></g></g><g fill="#ffffff" fill-opacity="1"><g transform="translate(112.189563, 42.166671)"><g/></g></g><g fill="#ffffff" fill-opacity="1"><g transform="translate(124.377835, 42.166671)"><g><path d="M 15 -30.75 C 18.65625 -30.75 21.753906 -30.117188 24.296875 -28.859375 C 26.835938 -27.597656 28.78125 -25.84375 30.125 -23.59375 C 31.476562 -21.34375 32.15625 -18.710938 32.15625 -15.703125 C 32.15625 -12.628906 31.476562 -9.898438 30.125 -7.515625 C 28.78125 -5.140625 26.847656 -3.265625 24.328125 -1.890625 C 21.816406 -0.515625 18.796875 0.171875 15.265625 0.171875 C 14.003906 0.171875 12.78125 0.140625 11.59375 0.078125 C 10.414062 0.0234375 8.960938 0 7.234375 0 L 1.53125 0 L 1.53125 -0.875 C 2.675781 -1.164062 3.488281 -1.566406 3.96875 -2.078125 C 4.445312 -2.585938 4.738281 -3.265625 4.84375 -4.109375 C 4.945312 -4.960938 5 -6.035156 5 -7.328125 L 5 -23.25 C 5 -24.5625 4.945312 -25.632812 4.84375 -26.46875 C 4.738281 -27.300781 4.445312 -27.972656 3.96875 -28.484375 C 3.488281 -28.992188 2.675781 -29.394531 1.53125 -29.6875 L 1.53125 -30.5625 L 7.234375 -30.5625 C 8.898438 -30.5625 10.410156 -30.59375 11.765625 -30.65625 C 13.128906 -30.71875 14.207031 -30.75 15 -30.75 Z M 15.046875 -1.046875 C 17.765625 -1.046875 20.050781 -1.613281 21.90625 -2.75 C 23.757812 -3.894531 25.160156 -5.488281 26.109375 -7.53125 C 27.066406 -9.582031 27.546875 -11.957031 27.546875 -14.65625 C 27.546875 -17.539062 27.023438 -20.101562 25.984375 -22.34375 C 24.953125 -24.582031 23.460938 -26.335938 21.515625 -27.609375 C 19.566406 -28.878906 17.207031 -29.515625 14.4375 -29.515625 C 13.613281 -29.515625 12.722656 -29.484375 11.765625 -29.421875 C 10.816406 -29.367188 9.878906 -29.269531 8.953125 -29.125 L 8.953125 -1.484375 C 9.972656 -1.316406 10.992188 -1.203125 12.015625 -1.140625 C 13.035156 -1.078125 14.046875 -1.046875 15.046875 -1.046875 Z M 15.046875 -1.046875 "/></g></g></g><g fill="#ffffff" fill-opacity="1"><g transform="translate(158.531309, 42.166671)"><g><path d="M 5.171875 -7.328125 L 5.171875 -23.25 C 5.171875 -24.59375 5.113281 -25.679688 5 -26.515625 C 4.882812 -27.347656 4.582031 -28.007812 4.09375 -28.5 C 3.613281 -29 2.789062 -29.394531 1.625 -29.6875 L 1.625 -30.5625 L 12.59375 -30.5625 L 12.59375 -29.6875 C 11.445312 -29.394531 10.632812 -28.992188 10.15625 -28.484375 C 9.675781 -27.972656 9.382812 -27.300781 9.28125 -26.46875 C 9.175781 -25.632812 9.125 -24.5625 9.125 -23.25 L 9.125 -7.328125 C 9.125 -5.984375 9.179688 -4.894531 9.296875 -4.0625 C 9.410156 -3.226562 9.71875 -2.5625 10.21875 -2.0625 C 10.71875 -1.5625 11.535156 -1.164062 12.671875 -0.875 L 12.671875 0 L 1.703125 0 L 1.703125 -0.875 C 2.878906 -1.164062 3.703125 -1.566406 4.171875 -2.078125 C 4.640625 -2.585938 4.921875 -3.265625 5.015625 -4.109375 C 5.117188 -4.960938 5.171875 -6.035156 5.171875 -7.328125 Z M 5.171875 -7.328125 "/></g></g></g><g fill="#ffffff" fill-opacity="1"><g transform="translate(172.911724, 42.166671)"><g><path d="M 16.140625 -30.75 L 25 -7.328125 C 25.644531 -5.660156 26.171875 -4.414062 26.578125 -3.59375 C 26.984375 -2.78125 27.425781 -2.1875 27.90625 -1.8125 C 28.394531 -1.445312 29.035156 -1.132812 29.828125 -0.875 L 29.828125 0 L 18.953125 0 L 18.953125 -0.875 C 20.410156 -1.195312 21.234375 -1.9375 21.421875 -3.09375 C 21.609375 -4.25 21.410156 -5.601562 20.828125 -7.15625 L 18.515625 -13.421875 L 9.296875 -13.46875 C 8.453125 -10.832031 7.847656 -8.625 7.484375 -6.84375 C 7.117188 -5.0625 7.128906 -3.6875 7.515625 -2.71875 C 7.910156 -1.75 8.8125 -1.132812 10.21875 -0.875 L 10.21875 0 L -0.171875 0 L -0.171875 -0.875 C 0.378906 -0.988281 0.910156 -1.222656 1.421875 -1.578125 C 1.929688 -1.929688 2.472656 -2.550781 3.046875 -3.4375 C 3.617188 -4.332031 4.273438 -5.628906 5.015625 -7.328125 C 5.765625 -9.023438 6.664062 -11.273438 7.71875 -14.078125 L 13.953125 -30.75 Z M 13.59375 -26.53125 L 9.734375 -14.6875 L 18.03125 -14.6875 Z M 13.59375 -26.53125 "/></g></g></g><g fill="#ffffff" fill-opacity="1"><g transform="translate(202.856304, 42.166671)"><g><path d="M 35.796875 -25.171875 L 36.75 -7.40625 C 36.8125 -6.125 36.882812 -5.101562 36.96875 -4.34375 C 37.0625 -3.582031 37.207031 -2.992188 37.40625 -2.578125 C 37.613281 -2.171875 37.9375 -1.84375 38.375 -1.59375 C 38.8125 -1.351562 39.425781 -1.113281 40.21875 -0.875 L 40.21875 0 L 29.078125 0 L 29.078125 -0.921875 C 30.191406 -1.242188 31.023438 -1.601562 31.578125 -2 C 32.128906 -2.394531 32.492188 -3.007812 32.671875 -3.84375 C 32.847656 -4.675781 32.894531 -5.894531 32.8125 -7.5 L 31.96875 -26.359375 L 22.234375 -5.21875 C 22.117188 -4.925781 21.882812 -4.40625 21.53125 -3.65625 C 21.1875 -2.914062 20.835938 -1.859375 20.484375 -0.484375 L 18.859375 -0.484375 C 18.710938 -1.179688 18.5 -1.878906 18.21875 -2.578125 C 17.945312 -3.285156 17.632812 -4.003906 17.28125 -4.734375 L 7.375 -26.234375 L 6.9375 -14.078125 C 6.8125 -11.035156 6.875 -8.578125 7.125 -6.703125 C 7.375 -4.835938 7.867188 -3.453125 8.609375 -2.546875 C 9.359375 -1.640625 10.4375 -1.082031 11.84375 -0.875 L 11.84375 -0.046875 L 0.875 0 L 0.875 -0.875 C 1.582031 -1.019531 2.175781 -1.316406 2.65625 -1.765625 C 3.132812 -2.222656 3.550781 -2.925781 3.90625 -3.875 C 4.257812 -4.832031 4.546875 -6.148438 4.765625 -7.828125 C 4.984375 -9.503906 5.175781 -11.644531 5.34375 -14.25 L 5.5625 -17.84375 C 5.71875 -20.25 5.851562 -22.113281 5.96875 -23.4375 C 6.082031 -24.769531 6.140625 -25.703125 6.140625 -26.234375 C 6.140625 -27.253906 5.867188 -28.019531 5.328125 -28.53125 C 4.785156 -29.039062 3.898438 -29.425781 2.671875 -29.6875 L 2.671875 -30.5625 L 10.5625 -30.5625 C 10.5625 -30.101562 10.640625 -29.484375 10.796875 -28.703125 C 10.960938 -27.929688 11.328125 -26.945312 11.890625 -25.75 L 21.140625 -6.015625 L 30 -25.09375 C 30.175781 -25.46875 30.394531 -25.984375 30.65625 -26.640625 C 30.914062 -27.296875 31.15625 -27.984375 31.375 -28.703125 C 31.59375 -29.421875 31.703125 -30.039062 31.703125 -30.5625 L 39.25 -30.5625 L 39.25 -29.6875 C 37.9375 -29.425781 37.007812 -29.015625 36.46875 -28.453125 C 35.925781 -27.898438 35.703125 -26.804688 35.796875 -25.171875 Z M 35.796875 -25.171875 "/></g></g></g><g fill="#ffffff" fill-opacity="1"><g transform="translate(244.156141, 42.166671)"><g><path d="M 17.546875 0.703125 C 15.265625 0.703125 13.179688 0.285156 11.296875 -0.546875 C 9.410156 -1.378906 7.769531 -2.535156 6.375 -4.015625 C 4.988281 -5.492188 3.914062 -7.203125 3.15625 -9.140625 C 2.394531 -11.085938 2.015625 -13.15625 2.015625 -15.34375 C 2.015625 -17.570312 2.414062 -19.648438 3.21875 -21.578125 C 4.03125 -23.503906 5.148438 -25.191406 6.578125 -26.640625 C 8.015625 -28.085938 9.675781 -29.21875 11.5625 -30.03125 C 13.445312 -30.851562 15.457031 -31.265625 17.59375 -31.265625 C 19.894531 -31.265625 21.992188 -30.863281 23.890625 -30.0625 C 25.796875 -29.257812 27.441406 -28.132812 28.828125 -26.6875 C 30.222656 -25.238281 31.289062 -23.554688 32.03125 -21.640625 C 32.78125 -19.722656 33.15625 -17.640625 33.15625 -15.390625 C 33.15625 -13.140625 32.753906 -11.035156 31.953125 -9.078125 C 31.148438 -7.117188 30.023438 -5.40625 28.578125 -3.9375 C 27.128906 -2.476562 25.46875 -1.335938 23.59375 -0.515625 C 21.726562 0.296875 19.710938 0.703125 17.546875 0.703125 Z M 18.546875 -0.5625 C 20.710938 -0.65625 22.546875 -1.320312 24.046875 -2.5625 C 25.554688 -3.8125 26.691406 -5.507812 27.453125 -7.65625 C 28.210938 -9.800781 28.535156 -12.25 28.421875 -15 C 28.335938 -18.039062 27.78125 -20.703125 26.75 -22.984375 C 25.726562 -25.265625 24.347656 -27.023438 22.609375 -28.265625 C 20.867188 -29.503906 18.859375 -30.082031 16.578125 -30 C 14.441406 -29.9375 12.617188 -29.296875 11.109375 -28.078125 C 9.609375 -26.867188 8.476562 -25.21875 7.71875 -23.125 C 6.957031 -21.039062 6.617188 -18.65625 6.703125 -15.96875 C 6.828125 -12.863281 7.398438 -10.140625 8.421875 -7.796875 C 9.441406 -5.460938 10.820312 -3.660156 12.5625 -2.390625 C 14.300781 -1.117188 16.296875 -0.507812 18.546875 -0.5625 Z M 18.546875 -0.5625 "/></g></g></g><g fill="#ffffff" fill-opacity="1"><g transform="translate(279.317996, 42.166671)"><g><path d="M 22.71875 -29.6875 L 22.71875 -30.5625 L 33.203125 -30.5625 L 33.203125 -29.6875 C 32.503906 -29.488281 31.945312 -29.164062 31.53125 -28.71875 C 31.125 -28.28125 30.816406 -27.554688 30.609375 -26.546875 C 30.410156 -25.546875 30.265625 -24.085938 30.171875 -22.171875 C 30.085938 -20.253906 30.03125 -17.71875 30 -14.5625 L 29.90625 -6.015625 C 29.882812 -4.609375 29.894531 -3.367188 29.9375 -2.296875 C 29.976562 -1.234375 30.015625 -0.351562 30.046875 0.34375 L 27.984375 0.34375 C 27.691406 -0.113281 27.296875 -0.632812 26.796875 -1.21875 C 26.296875 -1.8125 25.695312 -2.515625 25 -3.328125 L 5.703125 -26.046875 C 5.703125 -23.210938 5.738281 -20.660156 5.8125 -18.390625 C 5.882812 -16.128906 5.953125 -13.945312 6.015625 -11.84375 C 6.097656 -9.382812 6.335938 -7.394531 6.734375 -5.875 C 7.128906 -4.351562 7.734375 -3.195312 8.546875 -2.40625 C 9.367188 -1.625 10.4375 -1.113281 11.75 -0.875 L 11.75 0 L 1.09375 0 L 1.09375 -0.875 C 1.65625 -0.988281 2.128906 -1.222656 2.515625 -1.578125 C 2.910156 -1.929688 3.234375 -2.515625 3.484375 -3.328125 C 3.734375 -4.148438 3.921875 -5.296875 4.046875 -6.765625 C 4.179688 -8.242188 4.265625 -10.171875 4.296875 -12.546875 L 4.4375 -25.609375 C 4.457031 -26.429688 4.410156 -27.097656 4.296875 -27.609375 C 4.179688 -28.117188 3.914062 -28.539062 3.5 -28.875 C 3.09375 -29.21875 2.4375 -29.488281 1.53125 -29.6875 L 1.53125 -30.5625 L 8.0625 -30.5625 C 8.300781 -30.039062 8.585938 -29.523438 8.921875 -29.015625 C 9.265625 -28.503906 9.65625 -27.984375 10.09375 -27.453125 L 28.640625 -5.53125 L 28.421875 -14.609375 C 28.359375 -17.378906 28.234375 -19.6875 28.046875 -21.53125 C 27.859375 -23.375 27.566406 -24.847656 27.171875 -25.953125 C 26.773438 -27.066406 26.21875 -27.914062 25.5 -28.5 C 24.789062 -29.09375 23.863281 -29.488281 22.71875 -29.6875 Z M 22.71875 -29.6875 "/></g></g></g><g fill="#ffffff" fill-opacity="1"><g transform="translate(313.603005, 42.166671)"><g><path d="M 15 -30.75 C 18.65625 -30.75 21.753906 -30.117188 24.296875 -28.859375 C 26.835938 -27.597656 28.78125 -25.84375 30.125 -23.59375 C 31.476562 -21.34375 32.15625 -18.710938 32.15625 -15.703125 C 32.15625 -12.628906 31.476562 -9.898438 30.125 -7.515625 C 28.78125 -5.140625 26.847656 -3.265625 24.328125 -1.890625 C 21.816406 -0.515625 18.796875 0.171875 15.265625 0.171875 C 14.003906 0.171875 12.78125 0.140625 11.59375 0.078125 C 10.414062 0.0234375 8.960938 0 7.234375 0 L 1.53125 0 L 1.53125 -0.875 C 2.675781 -1.164062 3.488281 -1.566406 3.96875 -2.078125 C 4.445312 -2.585938 4.738281 -3.265625 4.84375 -4.109375 C 4.945312 -4.960938 5 -6.035156 5 -7.328125 L 5 -23.25 C 5 -24.5625 4.945312 -25.632812 4.84375 -26.46875 C 4.738281 -27.300781 4.445312 -27.972656 3.96875 -28.484375 C 3.488281 -28.992188 2.675781 -29.394531 1.53125 -29.6875 L 1.53125 -30.5625 L 7.234375 -30.5625 C 8.898438 -30.5625 10.410156 -30.59375 11.765625 -30.65625 C 13.128906 -30.71875 14.207031 -30.75 15 -30.75 Z M 15.046875 -1.046875 C 17.765625 -1.046875 20.050781 -1.613281 21.90625 -2.75 C 23.757812 -3.894531 25.160156 -5.488281 26.109375 -7.53125 C 27.066406 -9.582031 27.546875 -11.957031 27.546875 -14.65625 C 27.546875 -17.539062 27.023438 -20.101562 25.984375 -22.34375 C 24.953125 -24.582031 23.460938 -26.335938 21.515625 -27.609375 C 19.566406 -28.878906 17.207031 -29.515625 14.4375 -29.515625 C 13.613281 -29.515625 12.722656 -29.484375 11.765625 -29.421875 C 10.816406 -29.367188 9.878906 -29.269531 8.953125 -29.125 L 8.953125 -1.484375 C 9.972656 -1.316406 10.992188 -1.203125 12.015625 -1.140625 C 13.035156 -1.078125 14.046875 -1.046875 15.046875 -1.046875 Z M 15.046875 -1.046875 "/></g></g></g></g></g><path fill="#ffffff" d="M 173.027344 113.066406 C 176.710938 112.839844 180.402344 112.703125 184.101562 112.652344 L 184.101562 145.898438 C 174.160156 145.949219 164.207031 146.261719 154.269531 146.832031 C 160.613281 135.628906 166.820312 124.347656 173.027344 113.066406 " fill-opacity="1" fill-rule="nonzero"/><path fill="#ffffff" d="M 189.214844 145.882812 L 189.214844 112.636719 C 192.910156 112.652344 196.621094 112.765625 200.304688 112.96875 C 206.523438 124.242188 212.71875 135.539062 219.070312 146.742188 C 209.125 146.195312 199.171875 145.910156 189.214844 145.882812 " fill-opacity="1" fill-rule="nonzero"/><path fill="#ffffff" d="M 184.105469 219.238281 L 184.105469 151.972656 C 174.101562 152.011719 164.101562 152.246094 154.105469 152.664062 C 164.425781 174.707031 174.230469 196.988281 184.105469 219.238281 " fill-opacity="1" fill-rule="nonzero"/><path fill="#ffffff" d="M 189.230469 219.253906 C 199.132812 196.988281 208.945312 174.683594 219.238281 152.597656 C 209.242188 152.195312 199.222656 151.988281 189.230469 151.960938 L 189.230469 219.253906 " fill-opacity="1" fill-rule="nonzero"/><g clip-path="url(#02ef224c54)"><path fill="#ffffff" d="M 123.199219 154.578125 C 144.390625 175.386719 161.902344 199.96875 180.160156 223.273438 C 169.769531 199.734375 159.414062 176.164062 148.363281 152.925781 C 139.960938 153.394531 131.589844 153.9375 123.199219 154.578125 " fill-opacity="1" fill-rule="nonzero"/></g><g clip-path="url(#b0a1be8d37)"><path fill="#ffffff" d="M 224.988281 152.847656 C 213.953125 176.152344 203.597656 199.746094 193.171875 223.328125 C 211.546875 199.96875 229.140625 175.554688 250.183594 154.445312 C 241.777344 153.820312 233.394531 153.289062 224.988281 152.847656 " fill-opacity="1" fill-rule="nonzero"/></g><g clip-path="url(#b46b7e0a65)"><path fill="#ffffff" d="M 148.160156 147.210938 C 154.527344 136.058594 160.707031 124.800781 166.867188 113.53125 C 157.902344 114.328125 148.984375 115.644531 140.171875 117.472656 C 134.511719 128.3125 128.632812 139.039062 122.433594 149.578125 C 131.011719 148.65625 139.558594 147.875 148.160156 147.210938 " fill-opacity="1" fill-rule="nonzero"/></g><path fill="#ffffff" d="M 225.183594 147.105469 C 233.800781 147.746094 242.363281 148.5 250.953125 149.398438 C 244.71875 138.824219 238.886719 128.007812 233.1875 117.140625 C 224.363281 115.375 215.4375 114.125 206.472656 113.390625 C 212.640625 124.664062 218.808594 135.945312 225.183594 147.105469 " fill-opacity="1" fill-rule="nonzero"/><g clip-path="url(#9f45c4e1ea)"><path fill="#ffffff" d="M 252.550781 152.117188 L 252.566406 152.117188 C 252.566406 152.105469 252.566406 152.105469 252.550781 152.105469 L 252.550781 152.117188 " fill-opacity="1" fill-rule="nonzero"/></g><g clip-path="url(#b62b5ac023)"><path fill="#ffffff" d="M 218.847656 75.480469 C 216.855469 74.742188 214.929688 75.667969 214.539062 77.453125 C 214.265625 78.699219 214.800781 80.023438 215.761719 80.945312 C 212.027344 84.875 208.398438 89.316406 205.210938 93.917969 C 204.921875 87.289062 204.492188 80.777344 203.921875 74.175781 C 205.601562 74.175781 207.03125 73.144531 207.265625 71.554688 C 207.550781 69.738281 206.082031 67.871094 203.984375 67.484375 C 201.890625 67.101562 200.042969 68.351562 199.875 70.191406 C 199.730469 71.726562 200.746094 73.164062 202.230469 73.8125 C 200.042969 78.773438 198.011719 83.933594 196.21875 89.128906 C 194.042969 80.644531 191.53125 72.53125 188.578125 64.402344 C 189.058594 64.265625 189.515625 64.046875 189.90625 63.726562 C 191.257812 62.617188 191.324219 60.765625 189.972656 59.589844 C 188.628906 58.410156 186.371094 58.410156 185.023438 59.589844 C 183.675781 60.765625 183.746094 62.617188 185.097656 63.726562 C 185.484375 64.046875 185.933594 64.265625 186.414062 64.398438 C 183.46875 72.53125 180.957031 80.644531 178.785156 89.128906 C 176.988281 83.933594 174.960938 78.773438 172.769531 73.8125 C 174.253906 73.164062 175.269531 71.726562 175.125 70.191406 C 174.953125 68.351562 173.105469 67.101562 171.015625 67.484375 C 168.917969 67.871094 167.449219 69.738281 167.726562 71.554688 C 167.964844 73.144531 169.394531 74.175781 171.070312 74.175781 C 170.5 80.777344 170.078125 87.289062 169.792969 93.917969 C 166.59375 89.316406 162.972656 84.875 159.230469 80.945312 C 160.203125 80.023438 160.726562 78.699219 160.457031 77.453125 C 160.070312 75.667969 158.136719 74.742188 156.148438 75.480469 C 154.160156 76.222656 152.960938 78.320312 153.449219 80.066406 C 153.9375 81.816406 155.84375 82.589844 157.730469 81.886719 C 157.917969 81.816406 158.097656 81.734375 158.265625 81.640625 C 161.792969 89.832031 165.085938 98.183594 168.015625 106.722656 C 181.320312 103.230469 193.679688 103.230469 206.980469 106.722656 C 209.945312 98.207031 213.171875 89.808594 216.726562 81.640625 C 216.894531 81.734375 217.078125 81.816406 217.261719 81.886719 C 219.148438 82.589844 221.058594 81.816406 221.542969 80.066406 C 222.035156 78.320312 220.839844 76.222656 218.847656 75.480469 " fill-opacity="1" fill-rule="nonzero"/></g><g transform="matrix(1, 0, 0, 1, 131, 290)"><g clip-path="url(#3de927030f)"><g clip-path="url(#350cae0c01)"><g fill="#ffffff" fill-opacity="1"><g transform="translate(1.633094, 20.793183)"><g><path d="M 15.796875 -6.78125 C 15.378906 -5.914062 14.890625 -5.054688 14.328125 -4.203125 C 13.773438 -3.347656 13.160156 -2.539062 12.484375 -1.78125 C 11.804688 -1.019531 11.078125 -0.351562 10.296875 0.21875 C 9.515625 0.800781 8.695312 1.257812 7.84375 1.59375 C 6.988281 1.9375 6.097656 2.109375 5.171875 2.109375 C 4.597656 2.109375 4.03125 2.035156 3.46875 1.890625 C 2.90625 1.765625 2.414062 1.515625 2 1.140625 C 1.59375 0.773438 1.289062 0.332031 1.09375 -0.1875 C 0.90625 -0.707031 0.851562 -1.25 0.9375 -1.8125 C 1.007812 -2.5 1.242188 -3.226562 1.640625 -4 C 2.046875 -4.78125 2.628906 -5.5625 3.390625 -6.34375 C 4.160156 -7.132812 5.128906 -7.882812 6.296875 -8.59375 C 7.472656 -9.300781 8.867188 -9.929688 10.484375 -10.484375 C 12.097656 -11.035156 13.941406 -11.460938 16.015625 -11.765625 C 16.203125 -11.796875 16.363281 -11.875 16.5 -12 C 16.632812 -12.125 16.722656 -12.28125 16.765625 -12.46875 C 17.066406 -13.96875 17.125 -15.300781 16.9375 -16.46875 C 16.75 -17.632812 16.3125 -18.484375 15.625 -19.015625 C 15.445312 -19.148438 15.21875 -19.1875 14.9375 -19.125 C 14.65625 -19.0625 14.347656 -18.9375 14.015625 -18.75 C 13.691406 -18.5625 13.367188 -18.359375 13.046875 -18.140625 C 12.515625 -17.804688 12 -17.515625 11.5 -17.265625 C 11.007812 -17.023438 10.539062 -16.976562 10.09375 -17.125 C 9.582031 -17.3125 9.242188 -17.671875 9.078125 -18.203125 C 9.023438 -18.316406 9.023438 -18.429688 9.078125 -18.546875 C 9.128906 -18.671875 9.21875 -18.757812 9.34375 -18.8125 C 9.457031 -18.863281 9.570312 -18.859375 9.6875 -18.796875 C 9.8125 -18.742188 9.898438 -18.660156 9.953125 -18.546875 C 10.035156 -18.328125 10.117188 -18.1875 10.203125 -18.125 C 10.285156 -18.070312 10.347656 -18.035156 10.390625 -18.015625 C 10.617188 -17.953125 10.929688 -18.023438 11.328125 -18.234375 C 11.734375 -18.453125 12.132812 -18.6875 12.53125 -18.9375 C 12.9375 -19.195312 13.351562 -19.441406 13.78125 -19.671875 C 14.207031 -19.898438 14.628906 -20.039062 15.046875 -20.09375 C 15.460938 -20.144531 15.847656 -20.03125 16.203125 -19.75 C 16.773438 -19.3125 17.203125 -18.734375 17.484375 -18.015625 C 17.773438 -17.296875 17.9375 -16.488281 17.96875 -15.59375 C 18 -14.695312 17.929688 -13.75 17.765625 -12.75 C 17.734375 -12.550781 17.789062 -12.378906 17.9375 -12.234375 C 18.0625 -12.085938 18.226562 -12.019531 18.4375 -12.03125 C 18.90625 -12.070312 19.378906 -12.101562 19.859375 -12.125 C 19.984375 -12.132812 20.09375 -12.09375 20.1875 -12 C 20.289062 -11.914062 20.347656 -11.816406 20.359375 -11.703125 C 20.359375 -11.566406 20.316406 -11.453125 20.234375 -11.359375 C 20.148438 -11.265625 20.039062 -11.207031 19.90625 -11.1875 C 19.25 -11.15625 18.601562 -11.109375 17.96875 -11.046875 C 17.570312 -11.015625 17.320312 -10.804688 17.21875 -10.421875 C 16.84375 -9.160156 16.367188 -7.945312 15.796875 -6.78125 Z M 14.953125 -7.1875 C 15.390625 -8.070312 15.769531 -8.988281 16.09375 -9.9375 C 16.164062 -10.15625 16.125 -10.347656 15.96875 -10.515625 C 15.832031 -10.691406 15.648438 -10.753906 15.421875 -10.703125 C 13.554688 -10.390625 11.898438 -9.972656 10.453125 -9.453125 C 9.015625 -8.929688 7.769531 -8.347656 6.71875 -7.703125 C 5.664062 -7.054688 4.789062 -6.382812 4.09375 -5.6875 C 3.394531 -4.988281 2.863281 -4.296875 2.5 -3.609375 C 2.132812 -2.929688 1.929688 -2.300781 1.890625 -1.71875 C 1.804688 -1.300781 1.832031 -0.90625 1.96875 -0.53125 C 2.101562 -0.15625 2.320312 0.164062 2.625 0.4375 C 2.925781 0.707031 3.285156 0.882812 3.703125 0.96875 C 4.648438 1.21875 5.570312 1.238281 6.46875 1.03125 C 7.375 0.832031 8.238281 0.46875 9.0625 -0.0625 C 9.894531 -0.601562 10.671875 -1.253906 11.390625 -2.015625 C 12.117188 -2.773438 12.78125 -3.597656 13.375 -4.484375 C 13.976562 -5.378906 14.503906 -6.28125 14.953125 -7.1875 Z M 14.953125 -7.1875 "/></g></g></g></g><g fill="#ffffff" fill-opacity="1"><g transform="translate(18.927561, 20.793183)"><g><path d="M 15.078125 -4.625 C 15.160156 -4.519531 15.195312 -4.40625 15.1875 -4.28125 C 15.175781 -4.144531 15.113281 -4.035156 15 -3.953125 C 14.957031 -3.921875 14.742188 -3.757812 14.359375 -3.46875 C 13.972656 -3.1875 13.457031 -2.851562 12.8125 -2.46875 C 12.164062 -2.082031 11.414062 -1.695312 10.5625 -1.3125 C 9.71875 -0.925781 8.804688 -0.609375 7.828125 -0.359375 C 6.859375 -0.109375 5.859375 0.015625 4.828125 0.015625 C 3.609375 0.0234375 2.4375 -0.191406 1.3125 -0.640625 C 0.6875 -0.898438 0.25 -1.195312 0 -1.53125 C -0.25 -1.863281 -0.390625 -2.191406 -0.421875 -2.515625 C -0.460938 -2.835938 -0.457031 -3.113281 -0.40625 -3.34375 C -0.300781 -3.78125 -0.09375 -4.207031 0.21875 -4.625 C 0.53125 -5.039062 0.894531 -5.410156 1.3125 -5.734375 C 1.726562 -6.066406 2.15625 -6.320312 2.59375 -6.5 C 3.03125 -6.6875 3.429688 -6.765625 3.796875 -6.734375 C 4.117188 -6.734375 4.394531 -6.617188 4.625 -6.390625 C 4.863281 -6.171875 4.992188 -5.890625 5.015625 -5.546875 C 5.023438 -5.359375 4.972656 -5.125 4.859375 -4.84375 C 4.753906 -4.5625 4.484375 -4.273438 4.046875 -3.984375 C 3.023438 -3.347656 1.910156 -3.066406 0.703125 -3.140625 C 0.640625 -3.148438 0.582031 -3.140625 0.53125 -3.109375 C 0.488281 -3.066406 0.472656 -3.019531 0.484375 -2.96875 C 0.472656 -2.851562 0.484375 -2.710938 0.515625 -2.546875 C 0.554688 -2.378906 0.660156 -2.207031 0.828125 -2.03125 C 0.992188 -1.851562 1.273438 -1.6875 1.671875 -1.53125 C 2.484375 -1.175781 3.316406 -0.972656 4.171875 -0.921875 C 5.035156 -0.878906 5.878906 -0.9375 6.703125 -1.09375 C 7.523438 -1.25 8.316406 -1.46875 9.078125 -1.75 C 9.835938 -2.03125 10.535156 -2.335938 11.171875 -2.671875 C 11.816406 -3.015625 12.378906 -3.332031 12.859375 -3.625 C 13.335938 -3.925781 13.710938 -4.175781 13.984375 -4.375 C 14.265625 -4.582031 14.40625 -4.6875 14.40625 -4.6875 C 14.519531 -4.769531 14.640625 -4.804688 14.765625 -4.796875 C 14.890625 -4.785156 14.992188 -4.726562 15.078125 -4.625 Z M 1.109375 -4.234375 C 0.984375 -4.054688 1 -3.957031 1.15625 -3.9375 C 1.320312 -3.925781 1.550781 -3.960938 1.84375 -4.046875 C 2.144531 -4.140625 2.453125 -4.253906 2.765625 -4.390625 C 3.085938 -4.523438 3.347656 -4.65625 3.546875 -4.78125 C 3.910156 -5.03125 4.082031 -5.257812 4.0625 -5.46875 C 4.050781 -5.59375 4.015625 -5.675781 3.953125 -5.71875 C 3.898438 -5.757812 3.828125 -5.785156 3.734375 -5.796875 C 3.347656 -5.828125 2.90625 -5.691406 2.40625 -5.390625 C 1.90625 -5.097656 1.472656 -4.710938 1.109375 -4.234375 Z M 1.109375 -4.234375 "/></g></g></g><g fill="#ffffff" fill-opacity="1"><g transform="translate(33.312684, 20.793183)"><g><path d="M 17.734375 -4.765625 C 17.816406 -4.671875 17.859375 -4.554688 17.859375 -4.421875 C 17.847656 -4.285156 17.796875 -4.175781 17.703125 -4.09375 C 16.828125 -3.351562 15.867188 -2.769531 14.828125 -2.34375 C 13.785156 -1.914062 12.695312 -1.65625 11.5625 -1.5625 C 10.4375 -1.476562 9.3125 -1.566406 8.1875 -1.828125 C 7.832031 -1.921875 7.472656 -2.039062 7.109375 -2.1875 C 6.929688 -2.28125 6.789062 -2.253906 6.6875 -2.109375 C 6.601562 -2.003906 6.53125 -1.90625 6.46875 -1.8125 C 6.40625 -1.726562 6.351562 -1.65625 6.3125 -1.59375 C 5.882812 -1.101562 5.5 -0.757812 5.15625 -0.5625 C 4.820312 -0.375 4.523438 -0.28125 4.265625 -0.28125 C 4.003906 -0.28125 3.785156 -0.332031 3.609375 -0.4375 C 3.492188 -0.488281 3.394531 -0.570312 3.3125 -0.6875 C 3.164062 -0.8125 2.992188 -0.875 2.796875 -0.875 C 2.597656 -0.882812 2.425781 -0.828125 2.28125 -0.703125 C 2.113281 -0.554688 1.925781 -0.441406 1.71875 -0.359375 C 1.539062 -0.273438 1.359375 -0.234375 1.171875 -0.234375 C 0.953125 -0.234375 0.75 -0.28125 0.5625 -0.375 C 0.175781 -0.550781 -0.0820312 -0.851562 -0.21875 -1.28125 C -0.332031 -1.625 -0.367188 -2.007812 -0.328125 -2.4375 C -0.285156 -2.863281 -0.203125 -3.273438 -0.078125 -3.671875 C 0.046875 -4.078125 0.164062 -4.421875 0.28125 -4.703125 C 0.40625 -4.992188 0.484375 -5.171875 0.515625 -5.234375 C 0.578125 -5.347656 0.664062 -5.425781 0.78125 -5.46875 C 0.90625 -5.507812 1.03125 -5.5 1.15625 -5.4375 C 1.269531 -5.394531 1.347656 -5.3125 1.390625 -5.1875 C 1.429688 -5.0625 1.421875 -4.9375 1.359375 -4.8125 C 1.285156 -4.664062 1.195312 -4.453125 1.09375 -4.171875 C 0.988281 -3.898438 0.890625 -3.609375 0.796875 -3.296875 C 0.710938 -2.984375 0.648438 -2.671875 0.609375 -2.359375 C 0.578125 -2.054688 0.597656 -1.796875 0.671875 -1.578125 C 0.710938 -1.410156 0.8125 -1.289062 0.96875 -1.21875 C 1.101562 -1.15625 1.234375 -1.15625 1.359375 -1.21875 C 1.597656 -1.332031 1.84375 -1.550781 2.09375 -1.875 C 2.34375 -2.207031 2.566406 -2.578125 2.765625 -2.984375 C 2.972656 -3.390625 3.132812 -3.75 3.25 -4.0625 C 3.300781 -4.175781 3.382812 -4.257812 3.5 -4.3125 C 3.613281 -4.375 3.726562 -4.382812 3.84375 -4.34375 C 3.976562 -4.300781 4.070312 -4.21875 4.125 -4.09375 C 4.175781 -3.976562 4.175781 -3.859375 4.125 -3.734375 C 4.03125 -3.453125 3.953125 -3.128906 3.890625 -2.765625 C 3.835938 -2.410156 3.816406 -2.09375 3.828125 -1.8125 C 3.835938 -1.53125 3.914062 -1.351562 4.0625 -1.28125 C 4.21875 -1.175781 4.445312 -1.226562 4.75 -1.4375 C 5.101562 -1.6875 5.40625 -1.976562 5.65625 -2.3125 C 5.894531 -2.601562 5.914062 -2.898438 5.71875 -3.203125 C 5.59375 -3.367188 5.515625 -3.554688 5.484375 -3.765625 C 5.410156 -4.441406 5.910156 -5.039062 6.984375 -5.5625 C 7.128906 -5.664062 7.285156 -5.703125 7.453125 -5.671875 C 7.617188 -5.640625 7.753906 -5.5625 7.859375 -5.4375 C 7.984375 -5.269531 8.019531 -5.046875 7.96875 -4.765625 C 7.925781 -4.484375 7.835938 -4.179688 7.703125 -3.859375 C 7.609375 -3.648438 7.613281 -3.4375 7.71875 -3.21875 C 7.820312 -3.007812 7.988281 -2.878906 8.21875 -2.828125 C 8.28125 -2.796875 8.347656 -2.773438 8.421875 -2.765625 C 9.429688 -2.515625 10.445312 -2.425781 11.46875 -2.5 C 12.5 -2.582031 13.488281 -2.8125 14.4375 -3.1875 C 15.382812 -3.570312 16.257812 -4.101562 17.0625 -4.78125 C 17.164062 -4.875 17.28125 -4.914062 17.40625 -4.90625 C 17.539062 -4.90625 17.648438 -4.859375 17.734375 -4.765625 Z M 6.5625 -3.640625 C 6.6875 -3.910156 6.8125 -4.179688 6.9375 -4.453125 C 6.726562 -4.328125 6.585938 -4.210938 6.515625 -4.109375 C 6.453125 -4.015625 6.425781 -3.9375 6.4375 -3.875 C 6.445312 -3.78125 6.488281 -3.703125 6.5625 -3.640625 Z M 6.5625 -3.640625 "/></g></g></g><g fill="#ffffff" fill-opacity="1"><g transform="translate(50.373692, 20.793183)"><g><path d="M 15.078125 -4.625 C 15.160156 -4.519531 15.195312 -4.40625 15.1875 -4.28125 C 15.175781 -4.144531 15.113281 -4.035156 15 -3.953125 C 14.957031 -3.921875 14.742188 -3.757812 14.359375 -3.46875 C 13.972656 -3.1875 13.457031 -2.851562 12.8125 -2.46875 C 12.164062 -2.082031 11.414062 -1.695312 10.5625 -1.3125 C 9.71875 -0.925781 8.804688 -0.609375 7.828125 -0.359375 C 6.859375 -0.109375 5.859375 0.015625 4.828125 0.015625 C 3.609375 0.0234375 2.4375 -0.191406 1.3125 -0.640625 C 0.6875 -0.898438 0.25 -1.195312 0 -1.53125 C -0.25 -1.863281 -0.390625 -2.191406 -0.421875 -2.515625 C -0.460938 -2.835938 -0.457031 -3.113281 -0.40625 -3.34375 C -0.300781 -3.78125 -0.09375 -4.207031 0.21875 -4.625 C 0.53125 -5.039062 0.894531 -5.410156 1.3125 -5.734375 C 1.726562 -6.066406 2.15625 -6.320312 2.59375 -6.5 C 3.03125 -6.6875 3.429688 -6.765625 3.796875 -6.734375 C 4.117188 -6.734375 4.394531 -6.617188 4.625 -6.390625 C 4.863281 -6.171875 4.992188 -5.890625 5.015625 -5.546875 C 5.023438 -5.359375 4.972656 -5.125 4.859375 -4.84375 C 4.753906 -4.5625 4.484375 -4.273438 4.046875 -3.984375 C 3.023438 -3.347656 1.910156 -3.066406 0.703125 -3.140625 C 0.640625 -3.148438 0.582031 -3.140625 0.53125 -3.109375 C 0.488281 -3.066406 0.472656 -3.019531 0.484375 -2.96875 C 0.472656 -2.851562 0.484375 -2.710938 0.515625 -2.546875 C 0.554688 -2.378906 0.660156 -2.207031 0.828125 -2.03125 C 0.992188 -1.851562 1.273438 -1.6875 1.671875 -1.53125 C 2.484375 -1.175781 3.316406 -0.972656 4.171875 -0.921875 C 5.035156 -0.878906 5.878906 -0.9375 6.703125 -1.09375 C 7.523438 -1.25 8.316406 -1.46875 9.078125 -1.75 C 9.835938 -2.03125 10.535156 -2.335938 11.171875 -2.671875 C 11.816406 -3.015625 12.378906 -3.332031 12.859375 -3.625 C 13.335938 -3.925781 13.710938 -4.175781 13.984375 -4.375 C 14.265625 -4.582031 14.40625 -4.6875 14.40625 -4.6875 C 14.519531 -4.769531 14.640625 -4.804688 14.765625 -4.796875 C 14.890625 -4.785156 14.992188 -4.726562 15.078125 -4.625 Z M 1.109375 -4.234375 C 0.984375 -4.054688 1 -3.957031 1.15625 -3.9375 C 1.320312 -3.925781 1.550781 -3.960938 1.84375 -4.046875 C 2.144531 -4.140625 2.453125 -4.253906 2.765625 -4.390625 C 3.085938 -4.523438 3.347656 -4.65625 3.546875 -4.78125 C 3.910156 -5.03125 4.082031 -5.257812 4.0625 -5.46875 C 4.050781 -5.59375 4.015625 -5.675781 3.953125 -5.71875 C 3.898438 -5.757812 3.828125 -5.785156 3.734375 -5.796875 C 3.347656 -5.828125 2.90625 -5.691406 2.40625 -5.390625 C 1.90625 -5.097656 1.472656 -4.710938 1.109375 -4.234375 Z M 1.109375 -4.234375 "/></g></g></g><g fill="#ffffff" fill-opacity="1"><g transform="translate(64.758814, 20.793183)"><g><path d="M 12.359375 -4.625 C 12.453125 -4.519531 12.5 -4.40625 12.5 -4.28125 C 12.5 -4.144531 12.453125 -4.03125 12.359375 -3.9375 C 12.328125 -3.894531 12.148438 -3.726562 11.828125 -3.4375 C 11.515625 -3.15625 11.097656 -2.816406 10.578125 -2.421875 C 10.066406 -2.023438 9.476562 -1.628906 8.8125 -1.234375 C 8.15625 -0.835938 7.460938 -0.507812 6.734375 -0.25 C 6.015625 0.0078125 5.289062 0.140625 4.5625 0.140625 C 4.125 0.140625 3.691406 0.0820312 3.265625 -0.03125 C 2.492188 -0.257812 1.84375 -0.726562 1.3125 -1.4375 C 0.789062 -2.15625 0.410156 -3.078125 0.171875 -4.203125 C 0.148438 -4.265625 0.140625 -4.328125 0.140625 -4.390625 C 0.0351562 -4.972656 -0.0351562 -5.5625 -0.078125 -6.15625 C -0.109375 -6.9375 -0.0859375 -7.75 -0.015625 -8.59375 C 0.046875 -9.445312 0.148438 -10.285156 0.296875 -11.109375 C 0.453125 -11.929688 0.65625 -12.691406 0.90625 -13.390625 C 1.15625 -14.097656 1.429688 -14.691406 1.734375 -15.171875 C 2.035156 -15.648438 2.375 -15.972656 2.75 -16.140625 C 3 -16.242188 3.257812 -16.257812 3.53125 -16.1875 C 3.8125 -16.113281 4.035156 -15.972656 4.203125 -15.765625 C 4.460938 -15.484375 4.601562 -15.082031 4.625 -14.5625 C 4.644531 -14.039062 4.582031 -13.441406 4.4375 -12.765625 C 4.289062 -12.097656 4.09375 -11.394531 3.84375 -10.65625 C 3.59375 -9.914062 3.316406 -9.1875 3.015625 -8.46875 C 2.710938 -7.75 2.414062 -7.078125 2.125 -6.453125 C 1.84375 -5.828125 1.601562 -5.304688 1.40625 -4.890625 C 1.207031 -4.492188 1.171875 -4.09375 1.296875 -3.6875 C 1.472656 -3.0625 1.738281 -2.492188 2.09375 -1.984375 C 2.445312 -1.472656 2.929688 -1.125 3.546875 -0.9375 C 4.109375 -0.769531 4.695312 -0.738281 5.3125 -0.84375 C 5.925781 -0.945312 6.535156 -1.140625 7.140625 -1.421875 C 7.742188 -1.703125 8.316406 -2.019531 8.859375 -2.375 C 9.410156 -2.726562 9.894531 -3.070312 10.3125 -3.40625 C 10.726562 -3.75 11.054688 -4.03125 11.296875 -4.25 C 11.546875 -4.476562 11.679688 -4.601562 11.703125 -4.625 C 11.796875 -4.707031 11.90625 -4.75 12.03125 -4.75 C 12.15625 -4.75 12.265625 -4.707031 12.359375 -4.625 Z M 0.9375 -6.4375 C 0.945312 -6.351562 0.988281 -6.296875 1.0625 -6.265625 C 1.132812 -6.234375 1.191406 -6.253906 1.234375 -6.328125 C 1.390625 -6.578125 1.566406 -6.945312 1.765625 -7.4375 C 1.972656 -7.925781 2.1875 -8.484375 2.40625 -9.109375 C 2.625 -9.734375 2.820312 -10.367188 3 -11.015625 C 3.175781 -11.660156 3.320312 -12.269531 3.4375 -12.84375 C 3.5625 -13.414062 3.632812 -13.90625 3.65625 -14.3125 C 3.6875 -14.726562 3.640625 -14.992188 3.515625 -15.109375 C 3.410156 -15.234375 3.3125 -15.296875 3.21875 -15.296875 C 3.175781 -15.296875 3.140625 -15.285156 3.109375 -15.265625 C 2.929688 -15.179688 2.722656 -14.925781 2.484375 -14.5 C 2.253906 -14.070312 2.023438 -13.523438 1.796875 -12.859375 C 1.566406 -12.203125 1.363281 -11.488281 1.1875 -10.71875 C 1.019531 -9.957031 0.90625 -9.203125 0.84375 -8.453125 C 0.78125 -7.703125 0.8125 -7.03125 0.9375 -6.4375 Z M 0.9375 -6.4375 "/></g></g></g><g fill="#ffffff" fill-opacity="1"><g transform="translate(76.593764, 20.793183)"><g><path d="M 15.5 -4.71875 C 15.582031 -4.625 15.625 -4.519531 15.625 -4.40625 C 15.625 -4.269531 15.578125 -4.15625 15.484375 -4.0625 C 14.859375 -3.445312 14.160156 -2.921875 13.390625 -2.484375 C 12.628906 -2.046875 11.835938 -1.679688 11.015625 -1.390625 C 10.203125 -1.109375 9.40625 -0.898438 8.625 -0.765625 C 7.851562 -0.628906 7.148438 -0.5625 6.515625 -0.5625 C 5.835938 -0.519531 5.179688 -0.644531 4.546875 -0.9375 C 4.117188 -1.1875 3.828125 -1.457031 3.671875 -1.75 C 3.523438 -2.050781 3.460938 -2.359375 3.484375 -2.671875 C 3.503906 -2.992188 3.570312 -3.296875 3.6875 -3.578125 C 3.800781 -3.859375 3.914062 -4.101562 4.03125 -4.3125 C 4.050781 -4.363281 4.035156 -4.398438 3.984375 -4.421875 C 3.941406 -4.441406 3.859375 -4.421875 3.734375 -4.359375 C 3.078125 -4.003906 2.367188 -3.84375 1.609375 -3.875 C 1.273438 -3.863281 0.945312 -3.929688 0.625 -4.078125 C 0.507812 -4.046875 0.390625 -4.054688 0.265625 -4.109375 C 0.078125 -4.210938 -0.00390625 -4.367188 0.015625 -4.578125 C -0.160156 -4.796875 -0.285156 -5.039062 -0.359375 -5.3125 C -0.503906 -5.8125 -0.492188 -6.300781 -0.328125 -6.78125 C -0.160156 -7.257812 0.132812 -7.648438 0.5625 -7.953125 C 1.0625 -8.253906 1.457031 -8.269531 1.75 -8 C 1.78125 -7.957031 1.820312 -7.890625 1.875 -7.796875 C 1.925781 -7.710938 1.957031 -7.570312 1.96875 -7.375 C 1.988281 -7.1875 1.953125 -6.921875 1.859375 -6.578125 C 1.765625 -6.234375 1.59375 -5.773438 1.34375 -5.203125 C 1.320312 -5.160156 1.335938 -5.082031 1.390625 -4.96875 C 1.453125 -4.863281 1.523438 -4.8125 1.609375 -4.8125 C 2.304688 -4.8125 2.960938 -4.988281 3.578125 -5.34375 C 3.773438 -5.445312 3.988281 -5.535156 4.21875 -5.609375 C 4.445312 -5.679688 4.6875 -5.617188 4.9375 -5.421875 C 5.1875 -5.234375 5.269531 -5 5.1875 -4.71875 C 5.101562 -4.4375 5 -4.164062 4.875 -3.90625 C 4.59375 -3.332031 4.445312 -2.890625 4.4375 -2.578125 C 4.425781 -2.265625 4.625 -1.988281 5.03125 -1.75 C 5.257812 -1.613281 5.644531 -1.53125 6.1875 -1.5 C 6.726562 -1.46875 7.363281 -1.507812 8.09375 -1.625 C 8.820312 -1.738281 9.585938 -1.921875 10.390625 -2.171875 C 11.191406 -2.429688 11.972656 -2.769531 12.734375 -3.1875 C 13.503906 -3.613281 14.203125 -4.132812 14.828125 -4.75 C 14.921875 -4.832031 15.035156 -4.875 15.171875 -4.875 C 15.296875 -4.875 15.40625 -4.820312 15.5 -4.71875 Z M 0.515625 -5.71875 C 0.734375 -6.164062 0.90625 -6.640625 1.03125 -7.140625 C 0.582031 -6.753906 0.410156 -6.28125 0.515625 -5.71875 Z M 0.515625 -5.71875 "/></g></g></g><g fill="#ffffff" fill-opacity="1"><g transform="translate(91.320106, 20.793183)"><g><path d="M 14.21875 -4.953125 C 14.3125 -4.859375 14.359375 -4.75 14.359375 -4.625 C 14.359375 -4.488281 14.316406 -4.378906 14.234375 -4.296875 C 13.703125 -3.796875 13.097656 -3.425781 12.421875 -3.1875 C 11.753906 -2.945312 11.066406 -2.847656 10.359375 -2.890625 C 9.648438 -2.941406 8.96875 -3.132812 8.3125 -3.46875 C 8.113281 -3.570312 7.898438 -3.601562 7.671875 -3.5625 C 7.453125 -3.53125 7.257812 -3.4375 7.09375 -3.28125 C 6.53125 -2.707031 5.96875 -2.066406 5.40625 -1.359375 C 5.34375 -1.304688 5.304688 -1.238281 5.296875 -1.15625 C 5.179688 -0.40625 5.03125 0.351562 4.84375 1.125 C 4.65625 1.894531 4.445312 2.648438 4.21875 3.390625 C 3.988281 4.140625 3.75 4.820312 3.5 5.4375 C 3.25 6.0625 2.992188 6.585938 2.734375 7.015625 C 2.484375 7.453125 2.238281 7.75 2 7.90625 C 1.832031 8.019531 1.648438 8.078125 1.453125 8.078125 C 1.203125 8.078125 0.992188 7.988281 0.828125 7.8125 C 0.429688 7.394531 0.257812 6.898438 0.3125 6.328125 C 0.320312 5.816406 0.4375 5.242188 0.65625 4.609375 C 0.882812 3.984375 1.1875 3.316406 1.5625 2.609375 C 1.945312 1.910156 2.378906 1.203125 2.859375 0.484375 C 3.335938 -0.234375 3.835938 -0.921875 4.359375 -1.578125 C 4.410156 -1.648438 4.441406 -1.726562 4.453125 -1.8125 C 4.523438 -2.15625 4.566406 -2.503906 4.578125 -2.859375 C 4.296875 -2.285156 3.898438 -1.789062 3.390625 -1.375 C 2.890625 -0.957031 2.320312 -0.660156 1.6875 -0.484375 C 1.414062 -0.398438 1.140625 -0.394531 0.859375 -0.46875 C 0.578125 -0.550781 0.335938 -0.703125 0.140625 -0.921875 C -0.015625 -1.085938 -0.132812 -1.335938 -0.21875 -1.671875 C -0.3125 -2.003906 -0.320312 -2.441406 -0.25 -2.984375 C -0.175781 -3.535156 0.0195312 -4.222656 0.34375 -5.046875 C 0.382812 -5.171875 0.46875 -5.257812 0.59375 -5.3125 C 0.726562 -5.363281 0.851562 -5.363281 0.96875 -5.3125 C 1.09375 -5.269531 1.175781 -5.1875 1.21875 -5.0625 C 1.269531 -4.945312 1.269531 -4.828125 1.21875 -4.703125 C 0.90625 -3.941406 0.722656 -3.335938 0.671875 -2.890625 C 0.617188 -2.453125 0.617188 -2.128906 0.671875 -1.921875 C 0.734375 -1.710938 0.789062 -1.582031 0.84375 -1.53125 C 1.019531 -1.363281 1.222656 -1.320312 1.453125 -1.40625 C 1.941406 -1.53125 2.359375 -1.738281 2.703125 -2.03125 C 3.054688 -2.332031 3.347656 -2.660156 3.578125 -3.015625 C 3.804688 -3.378906 3.984375 -3.726562 4.109375 -4.0625 C 4.242188 -4.394531 4.335938 -4.675781 4.390625 -4.90625 C 4.441406 -5.132812 4.46875 -5.25 4.46875 -5.25 C 4.519531 -5.488281 4.660156 -5.617188 4.890625 -5.640625 C 5.128906 -5.660156 5.296875 -5.5625 5.390625 -5.34375 C 5.503906 -4.976562 5.5625 -4.609375 5.5625 -4.234375 C 5.582031 -4.023438 5.691406 -3.882812 5.890625 -3.8125 C 6.085938 -3.726562 6.265625 -3.765625 6.421875 -3.921875 C 6.722656 -4.242188 7.023438 -4.539062 7.328125 -4.8125 C 7.523438 -4.976562 7.722656 -4.984375 7.921875 -4.828125 C 8.554688 -4.359375 9.15625 -4.054688 9.71875 -3.921875 C 10.28125 -3.796875 10.789062 -3.765625 11.25 -3.828125 C 11.707031 -3.898438 12.101562 -4.019531 12.4375 -4.1875 C 12.78125 -4.363281 13.046875 -4.53125 13.234375 -4.6875 C 13.429688 -4.84375 13.535156 -4.925781 13.546875 -4.9375 C 13.640625 -5.03125 13.753906 -5.078125 13.890625 -5.078125 C 14.023438 -5.078125 14.132812 -5.035156 14.21875 -4.953125 Z M 3.953125 0.828125 C 3.972656 0.753906 3.960938 0.710938 3.921875 0.703125 C 3.878906 0.691406 3.84375 0.710938 3.8125 0.765625 C 3.332031 1.472656 2.898438 2.171875 2.515625 2.859375 C 2.128906 3.554688 1.828125 4.203125 1.609375 4.796875 C 1.390625 5.398438 1.269531 5.914062 1.25 6.34375 C 1.25 6.519531 1.265625 6.6875 1.296875 6.84375 C 1.328125 7.007812 1.382812 7.109375 1.46875 7.140625 C 1.550781 7.148438 1.648438 7.066406 1.765625 6.890625 C 1.878906 6.710938 2.039062 6.414062 2.25 6 C 3 4.332031 3.566406 2.609375 3.953125 0.828125 Z M 3.953125 0.828125 "/></g></g></g><g fill="#ffffff" fill-opacity="1"><g transform="translate(104.670197, 20.793183)"><g/></g></g></g></g></svg>