<svg xmlns="http://www.w3.org/2000/svg" xmlns:xlink="http://www.w3.org/1999/xlink" width="500" zoomAndPan="magnify" viewBox="0 0 375 374.999991" height="500" preserveAspectRatio="xMidYMid meet" version="1.0"><defs><g/><clipPath id="51e45636f5"><path d="M 118 61.328125 L 257 61.328125 L 257 233.828125 L 118 233.828125 Z M 118 61.328125 " clip-rule="nonzero"/></clipPath><clipPath id="1e01aaf784"><rect x="0" width="343" y="0" height="57"/></clipPath><clipPath id="d050b48003"><rect x="0" width="194" y="0" height="22"/></clipPath></defs><g clip-path="url(#51e45636f5)"><path fill="#ffffff" d="M 178.699219 114.371094 C 180.765625 116.886719 182.488281 119.777344 183.761719 123.050781 C 179.179688 125.496094 175.289062 128.457031 171.949219 131.765625 C 172.5 129.871094 173.429688 128.078125 174.738281 126.355469 C 172.980469 126.667969 171.257812 126.667969 169.605469 126.355469 C 171.636719 125.738281 173.394531 124.667969 174.875 123.152344 C 170.433594 124.429688 166.816406 123.84375 165.542969 118.710938 C 164.957031 120.535156 165.023438 122.5 165.714844 124.53125 C 162.921875 122.945312 161.203125 119.8125 158.410156 117.746094 C 160.132812 116.472656 161.992188 115.507812 163.992188 114.816406 C 162.75 113.578125 161.269531 112.648438 159.375 112.269531 C 161.582031 109.824219 165.4375 110.890625 172.328125 116.300781 C 176.769531 119.847656 179.871094 120.191406 178.699219 114.371094 Z M 256.953125 108.515625 C 245.761719 122.566406 246.519531 132.625 252.960938 149.917969 C 261.226562 172.234375 250.582031 189.628906 233.429688 201.167969 C 217.65625 211.777344 201.570312 221.523438 187.480469 233.546875 C 173.394531 221.523438 157.34375 211.777344 141.566406 201.167969 C 124.414062 189.628906 113.773438 172.234375 122.039062 149.917969 C 128.445312 132.625 129.203125 122.566406 118.007812 108.515625 C 145.289062 98.386719 152.589844 69.351562 172.257812 68.320312 C 175.804688 64.359375 181.453125 61.328125 187.449219 61.328125 C 193.476562 61.328125 199.125 64.324219 202.671875 68.320312 C 222.339844 69.351562 229.675781 98.386719 256.953125 108.515625 Z M 192.027344 85.265625 C 198.539062 78.652344 206.011719 77.859375 213.96875 80.0625 C 204.945312 73.039062 197.46875 73.863281 192.027344 85.265625 Z M 199.332031 110.375 C 200.121094 106.207031 206.667969 94.601562 199.398438 93.152344 C 195.816406 92.464844 192.371094 96.183594 187.480469 103.417969 C 179.351562 91.429688 175.253906 89.089844 167.847656 100.457031 C 171.328125 103.105469 173.808594 106.484375 175.5625 110.375 C 170.8125 105.414062 165.472656 103.691406 162.234375 105.863281 C 160.582031 107 159.03125 108.34375 157.6875 109.445312 C 155.3125 111.375 155.550781 115.402344 157.101562 118.675781 C 156 123.324219 149.902344 128.941406 155.277344 132.523438 C 157.859375 134.277344 160.789062 135.519531 163.542969 137.035156 C 165.574219 135.242188 168.019531 134.3125 170.671875 133.761719 C 156.308594 152.121094 173.566406 161.765625 183.796875 151.777344 C 191.890625 143.855469 176.460938 132.210938 179.730469 142.648438 C 172.257812 137.308594 174.082031 134.726562 181.144531 127.941406 C 180.730469 129.628906 180.421875 131.144531 180.660156 132.382812 C 181.316406 136.105469 185.3125 134.417969 187.449219 135.933594 C 189.617188 134.417969 193.613281 136.105469 194.234375 132.382812 C 194.714844 129.492188 192.992188 125.289062 191.132812 123.085938 C 192.371094 119.8125 194.09375 116.953125 196.195312 114.40625 C 195.023438 120.226562 198.125 119.847656 202.636719 116.332031 C 209.527344 110.925781 213.382812 109.859375 215.589844 112.304688 C 213.695312 112.683594 212.210938 113.613281 210.972656 114.851562 C 214.761719 115.402344 223.0625 114.234375 217.207031 109.480469 C 215.863281 108.378906 214.347656 107.035156 212.695312 105.898438 C 209.421875 103.691406 204.082031 105.414062 199.332031 110.375 Z M 205.324219 126.355469 C 203.671875 126.667969 201.949219 126.667969 200.191406 126.355469 C 219.6875 149.296875 226.921875 116.851562 212.210938 122.050781 C 211.316406 123.015625 210.351562 123.910156 209.25 124.53125 C 209.90625 122.5 209.972656 120.570312 209.386719 118.710938 C 208.078125 123.808594 204.460938 124.429688 200.054688 123.152344 C 201.570312 124.667969 203.292969 125.738281 205.324219 126.355469 Z M 179.078125 71.730469 C 182.867188 74.828125 185.484375 78.753906 187.449219 83.0625 C 188.101562 78.789062 188 74.484375 193.027344 69.316406 C 191.304688 68.355469 189.375 67.90625 187.449219 67.90625 C 184.417969 67.941406 181.28125 69.042969 179.078125 71.730469 Z M 150.453125 90.8125 C 164.988281 80.683594 175.460938 78.375 184.175781 88.125 C 176.769531 69.179688 164.988281 72.933594 150.453125 90.8125 Z M 127.136719 111.820312 C 129.996094 115.851562 131.578125 119.777344 132.335938 123.53125 C 148.734375 118.710938 152.109375 102.523438 161.71875 101.039062 C 165.953125 92.808594 170.8125 87.023438 177.253906 87.675781 C 162.820312 82.441406 147.457031 105.277344 127.136719 111.820312 Z M 127.238281 154.738281 C 131.132812 151.292969 135.816406 148.367188 143.289062 145.164062 C 147.871094 143.199219 150.832031 139.101562 149.042969 132.144531 C 148.042969 128.148438 148.664062 123.566406 151.96875 118.125 C 146.527344 125.046875 139.949219 130.042969 132.613281 133.796875 C 131.613281 141.476562 128.410156 148.433594 127.238281 154.738281 Z M 156.449219 141.960938 C 151.039062 150.914062 139.15625 152.949219 133.234375 160.835938 C 125.378906 171.304688 130.683594 182.050781 138.984375 191.351562 C 138.984375 173.371094 162.304688 164.417969 156.449219 141.960938 Z M 163.542969 156.152344 C 162.132812 167.34375 155.757812 174.128906 150.28125 181.605469 C 142.464844 192.28125 151.660156 200.101562 162.648438 206.058594 C 159.445312 189.664062 175.011719 176.609375 163.542969 156.152344 Z M 192.167969 183.121094 C 190.546875 184.636719 188.964844 186.1875 187.480469 187.839844 C 183.140625 182.949219 177.976562 179.054688 173.222656 174.648438 C 173.257812 183.015625 168.746094 191.109375 169.949219 198.101562 C 171.601562 207.539062 181.625 213.328125 187.449219 220.972656 C 195.679688 210.398438 191.203125 195.210938 192.167969 183.121094 Z M 198.917969 168.894531 C 200.191406 166.828125 200.949219 164.417969 201.050781 161.558594 C 195.195312 160.9375 191.304688 156.289062 187.449219 156.289062 C 183.554688 156.289062 179.699219 160.9375 173.84375 161.558594 C 174.015625 165.898438 175.703125 169.171875 178.285156 171.855469 C 178.183594 169 178.835938 166.585938 180.488281 164.691406 C 181.109375 171.617188 184.796875 174.785156 187.480469 179.054688 C 190.339844 174.371094 190.683594 165.519531 188.757812 160.351562 C 195.058594 162.765625 199.054688 165.519531 198.917969 168.894531 Z M 201.84375 177.09375 C 198.847656 187.390625 201.777344 198.207031 199.398438 208.503906 C 202.121094 205.441406 204.289062 202.097656 205.015625 198.101562 C 206.082031 191.800781 202.535156 184.636719 201.84375 177.09375 Z M 199.917969 135.792969 C 200.328125 137.964844 198.917969 139.925781 195.195312 142.613281 C 198.46875 132.210938 183.003906 143.855469 191.132812 151.742188 C 193.097656 153.671875 195.335938 154.875 197.574219 155.394531 C 209.148438 156.046875 212.210938 142.304688 199.917969 135.792969 Z M 224.679688 181.605469 C 219.203125 174.128906 212.832031 167.34375 211.421875 156.152344 C 207.148438 171.203125 227.503906 190.59375 214.519531 204.820312 C 224.472656 199.03125 231.949219 191.523438 224.679688 181.605469 Z M 241.695312 160.800781 C 235.773438 152.914062 223.890625 150.878906 218.480469 141.925781 C 221.410156 159.078125 247.621094 168.550781 238.046875 188.871094 C 245.105469 180.15625 248.894531 170.375 241.695312 160.800781 Z M 246.757812 150.605469 C 245.3125 145.4375 243.144531 139.859375 242.351562 133.832031 C 236.082031 130.59375 230.363281 126.460938 225.40625 121.019531 C 229.570312 132.523438 239.628906 140.71875 246.757812 150.605469 Z M 247.792969 111.820312 C 228.574219 105.621094 213.761719 84.816406 199.984375 87.054688 C 216.621094 88.503906 225.679688 112.992188 244.140625 118.398438 C 245.039062 116.265625 246.242188 114.058594 247.792969 111.820312 Z M 247.792969 111.820312 " fill-opacity="1" fill-rule="evenodd"/></g><g transform="matrix(1, 0, 0, 1, 17, 231)"><g clip-path="url(#1e01aaf784)"><g fill="#ffffff" fill-opacity="1"><g transform="translate(1.789526, 44.55746)"><g><path d="M 25.21875 -6.953125 L 10.15625 -6.953125 L 7.28125 0 L -0.421875 0 L 14.046875 -32.4375 L 21.453125 -32.4375 L 35.96875 0 L 28.078125 0 Z M 22.84375 -12.65625 L 17.703125 -25.078125 L 12.5625 -12.65625 Z M 22.84375 -12.65625 "/></g></g></g><g fill="#ffffff" fill-opacity="1"><g transform="translate(38.676536, 44.55746)"><g><path d="M 33.375 0 L 33.328125 -19.46875 L 23.78125 -3.421875 L 20.390625 -3.421875 L 10.890625 -19.046875 L 10.890625 0 L 3.84375 0 L 3.84375 -32.4375 L 10.0625 -32.4375 L 22.203125 -12.28125 L 34.15625 -32.4375 L 40.3125 -32.4375 L 40.40625 0 Z M 33.375 0 "/></g></g></g><g fill="#ffffff" fill-opacity="1"><g transform="translate(84.321843, 44.55746)"><g><path d="M 27.671875 -16.875 C 29.523438 -16.28125 30.972656 -15.296875 32.015625 -13.921875 C 33.066406 -12.546875 33.59375 -10.859375 33.59375 -8.859375 C 33.59375 -6.015625 32.488281 -3.828125 30.28125 -2.296875 C 28.070312 -0.765625 24.851562 0 20.625 0 L 3.84375 0 L 3.84375 -32.4375 L 19.703125 -32.4375 C 23.648438 -32.4375 26.679688 -31.679688 28.796875 -30.171875 C 30.921875 -28.660156 31.984375 -26.601562 31.984375 -24 C 31.984375 -22.425781 31.601562 -21.019531 30.84375 -19.78125 C 30.082031 -18.550781 29.023438 -17.582031 27.671875 -16.875 Z M 11.3125 -26.78125 L 11.3125 -19.140625 L 18.765625 -19.140625 C 20.617188 -19.140625 22.023438 -19.460938 22.984375 -20.109375 C 23.941406 -20.765625 24.421875 -21.722656 24.421875 -22.984375 C 24.421875 -24.253906 23.941406 -25.203125 22.984375 -25.828125 C 22.023438 -26.460938 20.617188 -26.78125 18.765625 -26.78125 Z M 20.0625 -5.65625 C 22.039062 -5.65625 23.53125 -5.976562 24.53125 -6.625 C 25.539062 -7.269531 26.046875 -8.273438 26.046875 -9.640625 C 26.046875 -12.328125 24.050781 -13.671875 20.0625 -13.671875 L 11.3125 -13.671875 L 11.3125 -5.65625 Z M 20.0625 -5.65625 "/></g></g></g><g fill="#ffffff" fill-opacity="1"><g transform="translate(121.162516, 44.55746)"><g><path d="M 28.96875 -6.03125 L 28.96875 0 L 3.84375 0 L 3.84375 -32.4375 L 28.359375 -32.4375 L 28.359375 -26.421875 L 11.3125 -26.421875 L 11.3125 -19.375 L 26.375 -19.375 L 26.375 -13.53125 L 11.3125 -13.53125 L 11.3125 -6.03125 Z M 28.96875 -6.03125 "/></g></g></g><g fill="#ffffff" fill-opacity="1"><g transform="translate(153.647195, 44.55746)"><g><path d="M 24.515625 0 L 18.265625 -9.03125 L 11.359375 -9.03125 L 11.359375 0 L 3.84375 0 L 3.84375 -32.4375 L 17.890625 -32.4375 C 20.765625 -32.4375 23.257812 -31.957031 25.375 -31 C 27.488281 -30.039062 29.117188 -28.679688 30.265625 -26.921875 C 31.410156 -25.160156 31.984375 -23.078125 31.984375 -20.671875 C 31.984375 -18.253906 31.398438 -16.171875 30.234375 -14.421875 C 29.078125 -12.679688 27.429688 -11.347656 25.296875 -10.421875 L 32.578125 0 Z M 24.375 -20.671875 C 24.375 -22.492188 23.785156 -23.890625 22.609375 -24.859375 C 21.441406 -25.835938 19.726562 -26.328125 17.46875 -26.328125 L 11.359375 -26.328125 L 11.359375 -15.015625 L 17.46875 -15.015625 C 19.726562 -15.015625 21.441406 -15.507812 22.609375 -16.5 C 23.785156 -17.488281 24.375 -18.878906 24.375 -20.671875 Z M 24.375 -20.671875 "/></g></g></g><g fill="#ffffff" fill-opacity="1"><g transform="translate(189.097649, 44.55746)"><g><path d="M 3.84375 -32.4375 L 18.578125 -32.4375 C 22.097656 -32.4375 25.210938 -31.765625 27.921875 -30.421875 C 30.628906 -29.078125 32.726562 -27.1875 34.21875 -24.75 C 35.71875 -22.3125 36.46875 -19.46875 36.46875 -16.21875 C 36.46875 -12.976562 35.71875 -10.132812 34.21875 -7.6875 C 32.726562 -5.25 30.628906 -3.359375 27.921875 -2.015625 C 25.210938 -0.671875 22.097656 0 18.578125 0 L 3.84375 0 Z M 18.21875 -6.15625 C 21.457031 -6.15625 24.039062 -7.0625 25.96875 -8.875 C 27.90625 -10.6875 28.875 -13.132812 28.875 -16.21875 C 28.875 -19.3125 27.90625 -21.757812 25.96875 -23.5625 C 24.039062 -25.375 21.457031 -26.28125 18.21875 -26.28125 L 11.359375 -26.28125 L 11.359375 -6.15625 Z M 18.21875 -6.15625 "/></g></g></g><g fill="#ffffff" fill-opacity="1"><g transform="translate(228.765067, 44.55746)"><g><path d="M 19.5625 0.5625 C 16.1875 0.5625 13.144531 -0.160156 10.4375 -1.609375 C 7.738281 -3.066406 5.625 -5.070312 4.09375 -7.625 C 2.570312 -10.175781 1.8125 -13.039062 1.8125 -16.21875 C 1.8125 -19.40625 2.570312 -22.269531 4.09375 -24.8125 C 5.625 -27.363281 7.738281 -29.363281 10.4375 -30.8125 C 13.144531 -32.269531 16.1875 -33 19.5625 -33 C 22.925781 -33 25.953125 -32.269531 28.640625 -30.8125 C 31.328125 -29.363281 33.441406 -27.363281 34.984375 -24.8125 C 36.535156 -22.269531 37.3125 -19.40625 37.3125 -16.21875 C 37.3125 -13.039062 36.535156 -10.175781 34.984375 -7.625 C 33.441406 -5.070312 31.328125 -3.066406 28.640625 -1.609375 C 25.953125 -0.160156 22.925781 0.5625 19.5625 0.5625 Z M 19.5625 -5.84375 C 21.476562 -5.84375 23.207031 -6.28125 24.75 -7.15625 C 26.289062 -8.039062 27.5 -9.269531 28.375 -10.84375 C 29.257812 -12.414062 29.703125 -14.207031 29.703125 -16.21875 C 29.703125 -18.226562 29.257812 -20.019531 28.375 -21.59375 C 27.5 -23.164062 26.289062 -24.390625 24.75 -25.265625 C 23.207031 -26.148438 21.476562 -26.59375 19.5625 -26.59375 C 17.644531 -26.59375 15.910156 -26.148438 14.359375 -25.265625 C 12.816406 -24.390625 11.601562 -23.164062 10.71875 -21.59375 C 9.84375 -20.019531 9.40625 -18.226562 9.40625 -16.21875 C 9.40625 -14.207031 9.84375 -12.414062 10.71875 -10.84375 C 11.601562 -9.269531 12.816406 -8.039062 14.359375 -7.15625 C 15.910156 -6.28125 17.644531 -5.84375 19.5625 -5.84375 Z M 19.5625 -5.84375 "/></g></g></g><g fill="#ffffff" fill-opacity="1"><g transform="translate(269.266617, 44.55746)"><g><path d="M 33.59375 -32.4375 L 33.59375 0 L 27.4375 0 L 11.265625 -19.703125 L 11.265625 0 L 3.84375 0 L 3.84375 -32.4375 L 10.0625 -32.4375 L 26.1875 -12.75 L 26.1875 -32.4375 Z M 33.59375 -32.4375 "/></g></g></g><g fill="#ffffff" fill-opacity="1"><g transform="translate(308.09992, 44.55746)"><g><path d="M 28.96875 -6.03125 L 28.96875 0 L 3.84375 0 L 3.84375 -32.4375 L 28.359375 -32.4375 L 28.359375 -26.421875 L 11.3125 -26.421875 L 11.3125 -19.375 L 26.375 -19.375 L 26.375 -13.53125 L 11.3125 -13.53125 L 11.3125 -6.03125 Z M 28.96875 -6.03125 "/></g></g></g></g></g><g transform="matrix(1, 0, 0, 1, 95, 290)"><g clip-path="url(#d050b48003)"><g fill="#ffffff" fill-opacity="1"><g transform="translate(1.004245, 16.806567)"><g><path d="M 6.703125 -12.15625 C 7.785156 -12.15625 8.722656 -11.972656 9.515625 -11.609375 C 10.304688 -11.253906 10.914062 -10.75 11.34375 -10.09375 C 11.769531 -9.4375 11.984375 -8.65625 11.984375 -7.75 C 11.984375 -6.851562 11.769531 -6.070312 11.34375 -5.40625 C 10.914062 -4.738281 10.304688 -4.226562 9.515625 -3.875 C 8.722656 -3.53125 7.785156 -3.359375 6.703125 -3.359375 L 4.25 -3.359375 L 4.25 0 L 1.4375 0 L 1.4375 -12.15625 Z M 6.546875 -5.640625 C 7.390625 -5.640625 8.03125 -5.820312 8.46875 -6.1875 C 8.914062 -6.550781 9.140625 -7.070312 9.140625 -7.75 C 9.140625 -8.4375 8.914062 -8.960938 8.46875 -9.328125 C 8.03125 -9.691406 7.390625 -9.875 6.546875 -9.875 L 4.25 -9.875 L 4.25 -5.640625 Z M 6.546875 -5.640625 "/></g></g></g><g fill="#ffffff" fill-opacity="1"><g transform="translate(22.411764, 16.806567)"><g><path d="M 9.1875 0 L 6.84375 -3.390625 L 4.25 -3.390625 L 4.25 0 L 1.4375 0 L 1.4375 -12.15625 L 6.703125 -12.15625 C 7.785156 -12.15625 8.722656 -11.972656 9.515625 -11.609375 C 10.304688 -11.253906 10.914062 -10.75 11.34375 -10.09375 C 11.769531 -9.4375 11.984375 -8.65625 11.984375 -7.75 C 11.984375 -6.84375 11.765625 -6.0625 11.328125 -5.40625 C 10.898438 -4.757812 10.285156 -4.257812 9.484375 -3.90625 L 12.21875 0 Z M 9.140625 -7.75 C 9.140625 -8.4375 8.914062 -8.960938 8.46875 -9.328125 C 8.03125 -9.691406 7.390625 -9.875 6.546875 -9.875 L 4.25 -9.875 L 4.25 -5.625 L 6.546875 -5.625 C 7.390625 -5.625 8.03125 -5.804688 8.46875 -6.171875 C 8.914062 -6.546875 9.140625 -7.070312 9.140625 -7.75 Z M 9.140625 -7.75 "/></g></g></g><g fill="#ffffff" fill-opacity="1"><g transform="translate(43.871402, 16.806567)"><g><path d="M 7.328125 0.203125 C 6.066406 0.203125 4.925781 -0.0664062 3.90625 -0.609375 C 2.894531 -1.148438 2.101562 -1.898438 1.53125 -2.859375 C 0.957031 -3.816406 0.671875 -4.890625 0.671875 -6.078125 C 0.671875 -7.273438 0.957031 -8.347656 1.53125 -9.296875 C 2.101562 -10.253906 2.894531 -11.003906 3.90625 -11.546875 C 4.925781 -12.097656 6.066406 -12.375 7.328125 -12.375 C 8.585938 -12.375 9.722656 -12.097656 10.734375 -11.546875 C 11.742188 -11.003906 12.535156 -10.253906 13.109375 -9.296875 C 13.691406 -8.347656 13.984375 -7.273438 13.984375 -6.078125 C 13.984375 -4.890625 13.691406 -3.816406 13.109375 -2.859375 C 12.535156 -1.898438 11.742188 -1.148438 10.734375 -0.609375 C 9.722656 -0.0664062 8.585938 0.203125 7.328125 0.203125 Z M 7.328125 -2.1875 C 8.046875 -2.1875 8.691406 -2.347656 9.265625 -2.671875 C 9.847656 -3.003906 10.304688 -3.46875 10.640625 -4.0625 C 10.972656 -4.65625 11.140625 -5.328125 11.140625 -6.078125 C 11.140625 -6.828125 10.972656 -7.5 10.640625 -8.09375 C 10.304688 -8.6875 9.847656 -9.144531 9.265625 -9.46875 C 8.691406 -9.800781 8.046875 -9.96875 7.328125 -9.96875 C 6.609375 -9.96875 5.957031 -9.800781 5.375 -9.46875 C 4.800781 -9.144531 4.347656 -8.6875 4.015625 -8.09375 C 3.691406 -7.5 3.53125 -6.828125 3.53125 -6.078125 C 3.53125 -5.328125 3.691406 -4.65625 4.015625 -4.0625 C 4.347656 -3.46875 4.800781 -3.003906 5.375 -2.671875 C 5.957031 -2.347656 6.609375 -2.1875 7.328125 -2.1875 Z M 7.328125 -2.1875 "/></g></g></g><g fill="#ffffff" fill-opacity="1"><g transform="translate(67.224791, 16.806567)"><g><path d="M 3.96875 -9.875 L 0.0625 -9.875 L 0.0625 -12.15625 L 10.671875 -12.15625 L 10.671875 -9.875 L 6.78125 -9.875 L 6.78125 0 L 3.96875 0 Z M 3.96875 -9.875 "/></g></g></g><g fill="#ffffff" fill-opacity="1"><g transform="translate(86.65171, 16.806567)"><g><path d="M 10.859375 -2.265625 L 10.859375 0 L 1.4375 0 L 1.4375 -12.15625 L 10.640625 -12.15625 L 10.640625 -9.90625 L 4.234375 -9.90625 L 4.234375 -7.265625 L 9.890625 -7.265625 L 9.890625 -5.078125 L 4.234375 -5.078125 L 4.234375 -2.265625 Z M 10.859375 -2.265625 "/></g></g></g><g fill="#ffffff" fill-opacity="1"><g transform="translate(106.999428, 16.806567)"><g><path d="M 7.265625 0.203125 C 6.023438 0.203125 4.898438 -0.0625 3.890625 -0.59375 C 2.890625 -1.132812 2.101562 -1.882812 1.53125 -2.84375 C 0.957031 -3.800781 0.671875 -4.878906 0.671875 -6.078125 C 0.671875 -7.285156 0.957031 -8.363281 1.53125 -9.3125 C 2.101562 -10.269531 2.890625 -11.019531 3.890625 -11.5625 C 4.898438 -12.101562 6.03125 -12.375 7.28125 -12.375 C 8.332031 -12.375 9.285156 -12.1875 10.140625 -11.8125 C 10.992188 -11.445312 11.707031 -10.914062 12.28125 -10.21875 L 10.484375 -8.546875 C 9.660156 -9.492188 8.640625 -9.96875 7.421875 -9.96875 C 6.671875 -9.96875 6 -9.800781 5.40625 -9.46875 C 4.8125 -9.144531 4.347656 -8.6875 4.015625 -8.09375 C 3.691406 -7.5 3.53125 -6.828125 3.53125 -6.078125 C 3.53125 -5.328125 3.691406 -4.65625 4.015625 -4.0625 C 4.347656 -3.46875 4.8125 -3.003906 5.40625 -2.671875 C 6 -2.347656 6.671875 -2.1875 7.421875 -2.1875 C 8.640625 -2.1875 9.660156 -2.664062 10.484375 -3.625 L 12.28125 -1.96875 C 11.707031 -1.257812 10.988281 -0.71875 10.125 -0.34375 C 9.269531 0.0195312 8.316406 0.203125 7.265625 0.203125 Z M 7.265625 0.203125 "/></g></g></g><g fill="#ffffff" fill-opacity="1"><g transform="translate(128.42432, 16.806567)"><g><path d="M 3.96875 -9.875 L 0.0625 -9.875 L 0.0625 -12.15625 L 10.671875 -12.15625 L 10.671875 -9.875 L 6.78125 -9.875 L 6.78125 0 L 3.96875 0 Z M 3.96875 -9.875 "/></g></g></g><g fill="#ffffff" fill-opacity="1"><g transform="translate(147.851239, 16.806567)"><g><path d="M 7.328125 0.203125 C 6.066406 0.203125 4.925781 -0.0664062 3.90625 -0.609375 C 2.894531 -1.148438 2.101562 -1.898438 1.53125 -2.859375 C 0.957031 -3.816406 0.671875 -4.890625 0.671875 -6.078125 C 0.671875 -7.273438 0.957031 -8.347656 1.53125 -9.296875 C 2.101562 -10.253906 2.894531 -11.003906 3.90625 -11.546875 C 4.925781 -12.097656 6.066406 -12.375 7.328125 -12.375 C 8.585938 -12.375 9.722656 -12.097656 10.734375 -11.546875 C 11.742188 -11.003906 12.535156 -10.253906 13.109375 -9.296875 C 13.691406 -8.347656 13.984375 -7.273438 13.984375 -6.078125 C 13.984375 -4.890625 13.691406 -3.816406 13.109375 -2.859375 C 12.535156 -1.898438 11.742188 -1.148438 10.734375 -0.609375 C 9.722656 -0.0664062 8.585938 0.203125 7.328125 0.203125 Z M 7.328125 -2.1875 C 8.046875 -2.1875 8.691406 -2.347656 9.265625 -2.671875 C 9.847656 -3.003906 10.304688 -3.46875 10.640625 -4.0625 C 10.972656 -4.65625 11.140625 -5.328125 11.140625 -6.078125 C 11.140625 -6.828125 10.972656 -7.5 10.640625 -8.09375 C 10.304688 -8.6875 9.847656 -9.144531 9.265625 -9.46875 C 8.691406 -9.800781 8.046875 -9.96875 7.328125 -9.96875 C 6.609375 -9.96875 5.957031 -9.800781 5.375 -9.46875 C 4.800781 -9.144531 4.347656 -8.6875 4.015625 -8.09375 C 3.691406 -7.5 3.53125 -6.828125 3.53125 -6.078125 C 3.53125 -5.328125 3.691406 -4.65625 4.015625 -4.0625 C 4.347656 -3.46875 4.800781 -3.003906 5.375 -2.671875 C 5.957031 -2.347656 6.609375 -2.1875 7.328125 -2.1875 Z M 7.328125 -2.1875 "/></g></g></g><g fill="#ffffff" fill-opacity="1"><g transform="translate(171.204628, 16.806567)"><g><path d="M 9.1875 0 L 6.84375 -3.390625 L 4.25 -3.390625 L 4.25 0 L 1.4375 0 L 1.4375 -12.15625 L 6.703125 -12.15625 C 7.785156 -12.15625 8.722656 -11.972656 9.515625 -11.609375 C 10.304688 -11.253906 10.914062 -10.75 11.34375 -10.09375 C 11.769531 -9.4375 11.984375 -8.65625 11.984375 -7.75 C 11.984375 -6.84375 11.765625 -6.0625 11.328125 -5.40625 C 10.898438 -4.757812 10.285156 -4.257812 9.484375 -3.90625 L 12.21875 0 Z M 9.140625 -7.75 C 9.140625 -8.4375 8.914062 -8.960938 8.46875 -9.328125 C 8.03125 -9.691406 7.390625 -9.875 6.546875 -9.875 L 4.25 -9.875 L 4.25 -5.625 L 6.546875 -5.625 C 7.390625 -5.625 8.03125 -5.804688 8.46875 -6.171875 C 8.914062 -6.546875 9.140625 -7.070312 9.140625 -7.75 Z M 9.140625 -7.75 "/></g></g></g></g></g></svg>