<svg xmlns="http://www.w3.org/2000/svg" xmlns:xlink="http://www.w3.org/1999/xlink" width="500" zoomAndPan="magnify" viewBox="0 0 375 374.999991" height="500" preserveAspectRatio="xMidYMid meet" version="1.0"><defs><g/><clipPath id="07a714503d"><path d="M 173 160 L 343.179688 160 L 343.179688 200 L 173 200 Z M 173 160 " clip-rule="nonzero"/></clipPath><clipPath id="c22a7c13c9"><rect x="0" width="326" y="0" height="227"/></clipPath><clipPath id="3c5b786f97"><path d="M 48 0.320312 L 66 0.320312 L 66 18 L 48 18 Z M 48 0.320312 " clip-rule="nonzero"/></clipPath><clipPath id="b0b8193534"><path d="M 162 0.320312 L 176 0.320312 L 176 18 L 162 18 Z M 162 0.320312 " clip-rule="nonzero"/></clipPath><clipPath id="8f3432299d"><path d="M 208 0.320312 L 226 0.320312 L 226 18 L 208 18 Z M 208 0.320312 " clip-rule="nonzero"/></clipPath><clipPath id="197452ca0a"><rect x="0" width="236" y="0" height="27"/></clipPath></defs><path fill="#ffffff" d="M 139.324219 182.234375 C 122.898438 161.832031 144.480469 149.339844 158.886719 161.855469 C 164.078125 166.363281 168.09375 172.988281 169.617188 184.121094 C 170.828125 173.316406 169.097656 164.429688 163.046875 158.308594 C 142.027344 137.066406 113.695312 167.554688 139.324219 182.234375 " fill-opacity="1" fill-rule="nonzero"/><path fill="#ffffff" d="M 217.699219 177.703125 C 232.230469 193.460938 238.6875 210.503906 210.570312 202.910156 C 186.28125 196.34375 167.539062 181.296875 136.25 203.183594 C 169.078125 189.753906 190.46875 203.078125 208.878906 208.597656 C 238.261719 217.398438 242.871094 192.921875 217.699219 177.703125 " fill-opacity="1" fill-rule="nonzero"/><g clip-path="url(#07a714503d)"><path fill="#ffffff" d="M 173.503906 170.539062 C 187.441406 159.824219 205.804688 163.351562 227.351562 177.160156 C 242.722656 187.003906 255.324219 195.589844 271.789062 196.621094 C 296.953125 198.191406 317.480469 182.644531 343.015625 199.492188 C 324.542969 178.9375 295.429688 193.527344 272.792969 191.332031 C 256.847656 189.78125 245.074219 181.175781 230.113281 172.515625 C 200.847656 155.566406 183.789062 157.75 173.503906 170.539062 " fill-opacity="1" fill-rule="nonzero"/></g><path fill="#ffffff" d="M 261.242188 142.753906 C 253.945312 155.355469 245.742188 165.679688 236.726562 173.457031 C 250.417969 169.664062 257.726562 158.445312 261.242188 142.753906 " fill-opacity="1" fill-rule="nonzero"/><path fill="#ffffff" d="M 292.527344 186.261719 C 280.171875 175.394531 281.933594 149.515625 281.667969 139.703125 C 281.46875 132.226562 280.253906 125.46875 273.277344 121.4375 C 261.308594 114.523438 260.84375 118.074219 257.414062 103.128906 C 256.425781 98.808594 255.644531 94.199219 254.511719 90.0625 C 248.601562 68.453125 220.855469 80.199219 229.75 102.542969 C 234.320312 114.019531 246.371094 127.847656 255.257812 112.488281 C 251.890625 131.796875 231.488281 120.136719 225.558594 104.253906 C 216.078125 78.898438 250.269531 62.96875 257.824219 89.65625 C 258.980469 93.726562 259.847656 98.03125 260.933594 102.152344 C 263.648438 112.414062 263.910156 111.128906 272.726562 114.976562 C 284.554688 120.132812 286.203125 128.320312 286.601562 139.957031 C 286.964844 150.761719 285.835938 171.550781 292.527344 186.261719 " fill-opacity="1" fill-rule="nonzero"/><path fill="#ffffff" d="M 218.949219 162.507812 C 240.601562 150.835938 230.242188 128.21875 256.734375 122.132812 C 234.402344 132.707031 240.296875 164.765625 218.949219 162.507812 " fill-opacity="1" fill-rule="nonzero"/><path fill="#ffffff" d="M 253.285156 79.832031 C 257.753906 65.683594 240.289062 63.238281 242.007812 75.476562 C 245.25 67.558594 253.4375 70.410156 253.285156 79.832031 " fill-opacity="1" fill-rule="nonzero"/><g transform="matrix(1, 0, 0, 1, 25, 123)"><g clip-path="url(#c22a7c13c9)"><g fill="#ffffff" fill-opacity="1"><g transform="translate(1.235257, 161.822114)"><g><path d="M 31.015625 0 C 23.191406 0 17.082031 -1.066406 12.6875 -3.203125 C 8.300781 -5.347656 5.25 -8.296875 3.53125 -12.046875 C 1.820312 -15.796875 0.96875 -20.132812 0.96875 -25.0625 C 0.96875 -31.164062 1.820312 -37.832031 3.53125 -45.0625 C 5.25 -52.300781 6.910156 -59.722656 8.515625 -67.328125 L 7.234375 -67.171875 C 5.304688 -67.171875 4.234375 -68.082031 4.015625 -69.90625 L 4.015625 -70.21875 C 4.015625 -71.9375 4.925781 -73.0625 6.75 -73.59375 C 7.28125 -73.59375 7.8125 -73.617188 8.34375 -73.671875 C 8.882812 -73.722656 9.425781 -73.804688 9.96875 -73.921875 L 16.234375 -103.484375 L 3.53125 -102.03125 L 3.21875 -102.03125 C 1.289062 -102.03125 0.21875 -102.941406 0 -104.765625 L 0 -105.09375 C 0 -106.800781 0.960938 -107.925781 2.890625 -108.46875 L 17.671875 -110.078125 L 18.15625 -112.796875 C 18.582031 -114.835938 19.867188 -115.695312 22.015625 -115.375 C 22.867188 -115.15625 23.535156 -114.671875 24.015625 -113.921875 C 24.503906 -113.171875 24.640625 -112.367188 24.421875 -111.515625 C 24.421875 -111.085938 24.367188 -110.820312 24.265625 -110.71875 C 36.898438 -112 49.703125 -112.960938 62.671875 -113.609375 L 62.984375 -113.609375 C 64.804688 -113.609375 65.828125 -112.585938 66.046875 -110.546875 L 66.046875 -110.234375 C 66.046875 -108.410156 65.023438 -107.390625 62.984375 -107.171875 C 56.234375 -106.859375 49.566406 -106.429688 42.984375 -105.890625 C 36.398438 -105.359375 29.734375 -104.769531 22.984375 -104.125 L 16.71875 -74.71875 C 18.101562 -74.820312 20.109375 -74.976562 22.734375 -75.1875 C 25.359375 -75.40625 28.171875 -75.59375 31.171875 -75.75 C 34.171875 -75.914062 36.898438 -76.101562 39.359375 -76.3125 C 41.828125 -76.53125 43.597656 -76.695312 44.671875 -76.8125 L 45.15625 -76.8125 C 46.976562 -76.8125 48.046875 -75.898438 48.359375 -74.078125 L 48.359375 -73.75 C 48.359375 -71.820312 47.453125 -70.753906 45.640625 -70.546875 C 44.347656 -70.328125 42.363281 -70.109375 39.6875 -69.890625 C 37.007812 -69.679688 34.085938 -69.46875 30.921875 -69.25 C 27.765625 -69.039062 24.765625 -68.828125 21.921875 -68.609375 C 19.085938 -68.398438 16.867188 -68.1875 15.265625 -67.96875 C 13.441406 -59.394531 11.644531 -51.492188 9.875 -44.265625 C 8.113281 -37.035156 7.234375 -30.691406 7.234375 -25.234375 C 7.234375 -19.117188 8.945312 -14.453125 12.375 -11.234375 C 15.800781 -8.023438 22.175781 -6.421875 31.5 -6.421875 C 46.925781 -6.421875 61.707031 -9.90625 75.84375 -16.875 C 76.164062 -16.976562 76.457031 -17.054688 76.71875 -17.109375 C 76.988281 -17.160156 77.179688 -17.1875 77.296875 -17.1875 C 78.578125 -17.1875 79.539062 -16.597656 80.1875 -15.421875 C 80.289062 -15.097656 80.367188 -14.828125 80.421875 -14.609375 C 80.472656 -14.398438 80.5 -14.191406 80.5 -13.984375 C 80.5 -12.691406 79.910156 -11.726562 78.734375 -11.09375 C 71.347656 -7.34375 63.609375 -4.554688 55.515625 -2.734375 C 47.429688 -0.910156 39.265625 0 31.015625 0 Z M 31.015625 0 "/></g></g></g><g fill="#ffffff" fill-opacity="1"><g transform="translate(67.598139, 161.822114)"><g><path d="M 14.625 -21.375 C 9.695312 -21.375 6.296875 -23.835938 4.421875 -28.765625 C 2.546875 -33.691406 1.609375 -39.957031 1.609375 -47.5625 C 1.609375 -53.988281 2.113281 -61.003906 3.125 -68.609375 C 4.144531 -76.210938 5.351562 -83.84375 6.75 -91.5 C 8.144531 -99.164062 9.484375 -106.210938 10.765625 -112.640625 C 10.984375 -113.492188 11.4375 -114.1875 12.125 -114.71875 C 12.820312 -115.257812 13.601562 -115.425781 14.46875 -115.21875 C 16.5 -114.78125 17.351562 -113.492188 17.03125 -111.359375 C 13.925781 -95.929688 11.648438 -82.859375 10.203125 -72.140625 C 8.753906 -61.429688 8.03125 -52.757812 8.03125 -46.125 C 8.03125 -41.1875 8.351562 -37.515625 9 -35.109375 C 9.644531 -32.703125 10.394531 -31.039062 11.25 -30.125 C 12.101562 -29.21875 12.851562 -28.550781 13.5 -28.125 C 13.707031 -28.007812 13.921875 -27.925781 14.140625 -27.875 C 14.359375 -27.820312 14.570312 -27.796875 14.78125 -27.796875 C 16.382812 -27.796875 18.363281 -28.921875 20.71875 -31.171875 C 23.082031 -33.421875 25.492188 -36.257812 27.953125 -39.6875 C 30.421875 -43.113281 32.617188 -46.597656 34.546875 -50.140625 C 35.191406 -51.316406 36.15625 -51.90625 37.4375 -51.90625 C 37.65625 -51.90625 37.867188 -51.875 38.078125 -51.8125 C 38.296875 -51.757812 38.566406 -51.679688 38.890625 -51.578125 C 39.960938 -50.929688 40.5 -49.96875 40.5 -48.6875 C 40.5 -48.039062 40.390625 -47.503906 40.171875 -47.078125 C 38.992188 -44.941406 37.46875 -42.425781 35.59375 -39.53125 C 33.71875 -36.632812 31.628906 -33.789062 29.328125 -31 C 27.023438 -28.21875 24.613281 -25.914062 22.09375 -24.09375 C 19.570312 -22.28125 17.082031 -21.375 14.625 -21.375 Z M 14.625 -21.375 "/></g></g></g><g fill="#ffffff" fill-opacity="1"><g transform="translate(100.377859, 161.822114)"><g><path d="M 16.875 -21.375 C 10.332031 -21.375 5.695312 -22.953125 2.96875 -26.109375 C 0.238281 -29.273438 -1.125 -33 -1.125 -37.28125 C -1.125 -41.238281 -0.1875 -45.304688 1.6875 -49.484375 C 3.5625 -53.671875 6.050781 -57.257812 9.15625 -60.25 C 11.195312 -62.1875 13.15625 -63.554688 15.03125 -64.359375 C 16.90625 -65.160156 18.644531 -65.5625 20.25 -65.5625 C 22.820312 -65.5625 24.910156 -64.753906 26.515625 -63.140625 C 28.117188 -61.535156 28.921875 -59.554688 28.921875 -57.203125 C 28.921875 -54.421875 27.710938 -51.769531 25.296875 -49.25 C 22.890625 -46.726562 19.890625 -44.640625 16.296875 -42.984375 C 12.710938 -41.328125 9.101562 -40.335938 5.46875 -40.015625 C 5.351562 -39.472656 5.269531 -38.988281 5.21875 -38.5625 C 5.164062 -38.132812 5.140625 -37.707031 5.140625 -37.28125 C 5.140625 -33.851562 6.238281 -31.414062 8.4375 -29.96875 C 10.632812 -28.519531 13.234375 -27.796875 16.234375 -27.796875 C 18.367188 -27.796875 20.507812 -28.085938 22.65625 -28.671875 C 24.800781 -29.265625 26.785156 -30.046875 28.609375 -31.015625 C 31.816406 -32.835938 34.945312 -35.351562 38 -38.5625 C 41.050781 -41.78125 43.972656 -45.742188 46.765625 -50.453125 C 47.398438 -51.421875 48.304688 -51.90625 49.484375 -51.90625 C 50.128906 -51.90625 50.664062 -51.742188 51.09375 -51.421875 C 52.164062 -50.992188 52.703125 -50.082031 52.703125 -48.6875 C 52.703125 -48.15625 52.539062 -47.617188 52.21875 -47.078125 C 46.21875 -37.222656 40.140625 -30.472656 33.984375 -26.828125 C 27.828125 -23.191406 22.125 -21.375 16.875 -21.375 Z M 7.71875 -46.921875 C 10.394531 -47.347656 12.882812 -48.203125 15.1875 -49.484375 C 17.488281 -50.773438 19.332031 -52.222656 20.71875 -53.828125 C 22.113281 -55.429688 22.648438 -56.828125 22.328125 -58.015625 C 22.222656 -58.765625 21.582031 -59.140625 20.40625 -59.140625 C 18.90625 -59.140625 16.945312 -58.226562 14.53125 -56.40625 C 12.125 -54.582031 9.851562 -51.421875 7.71875 -46.921875 Z M 7.71875 -46.921875 "/></g></g></g><g fill="#ffffff" fill-opacity="1"><g transform="translate(145.048263, 161.822114)"><g><path d="M -0.484375 -22.8125 C -3.054688 -24.632812 -4.34375 -27.691406 -4.34375 -31.984375 C -4.34375 -35.191406 -3.5625 -38.722656 -2 -42.578125 C -0.445312 -46.429688 1.769531 -50.097656 4.65625 -53.578125 C 7.550781 -57.066406 11.003906 -59.910156 15.015625 -62.109375 C 19.035156 -64.304688 23.566406 -65.40625 28.609375 -65.40625 C 29.460938 -65.40625 30.207031 -65.082031 30.84375 -64.4375 C 31.488281 -63.789062 31.8125 -63.039062 31.8125 -62.1875 C 31.8125 -61.332031 31.488281 -60.582031 30.84375 -59.9375 C 30.207031 -59.289062 29.460938 -58.96875 28.609375 -58.96875 C 24.316406 -58.96875 20.507812 -57.976562 17.1875 -56 C 13.875 -54.019531 11.09375 -51.554688 8.84375 -48.609375 C 6.59375 -45.660156 4.875 -42.6875 3.6875 -39.6875 C 2.507812 -36.6875 1.921875 -34.117188 1.921875 -31.984375 C 1.921875 -29.296875 2.78125 -27.953125 4.5 -27.953125 C 5.570312 -27.953125 6.800781 -28.488281 8.1875 -29.5625 C 10.4375 -31.175781 12.578125 -33.425781 14.609375 -36.3125 C 16.648438 -39.207031 18.554688 -42.257812 20.328125 -45.46875 C 22.097656 -48.6875 23.625 -51.523438 24.90625 -53.984375 C 25.757812 -55.273438 26.722656 -55.921875 27.796875 -55.921875 C 28.972656 -55.921875 29.882812 -55.460938 30.53125 -54.546875 C 31.175781 -53.640625 31.285156 -52.597656 30.859375 -51.421875 C 30.316406 -49.921875 29.859375 -48.335938 29.484375 -46.671875 C 29.109375 -45.015625 28.816406 -43.332031 28.609375 -41.625 C 28.285156 -40.007812 28.066406 -38.554688 27.953125 -37.265625 C 27.847656 -35.984375 27.796875 -34.8125 27.796875 -33.75 C 27.796875 -31.601562 28.035156 -30.097656 28.515625 -29.234375 C 29.003906 -28.378906 29.675781 -27.953125 30.53125 -27.953125 C 32.132812 -27.953125 34.113281 -29.078125 36.46875 -31.328125 C 38.832031 -33.578125 41.21875 -36.414062 43.625 -39.84375 C 46.03125 -43.28125 48.09375 -46.710938 49.8125 -50.140625 C 50.457031 -51.203125 51.421875 -51.734375 52.703125 -51.734375 C 53.242188 -51.734375 53.726562 -51.628906 54.15625 -51.421875 C 55.332031 -50.773438 55.921875 -49.8125 55.921875 -48.53125 C 55.921875 -48.414062 55.894531 -48.222656 55.84375 -47.953125 C 55.789062 -47.691406 55.707031 -47.398438 55.59375 -47.078125 C 50.457031 -37.648438 45.640625 -31.007812 41.140625 -27.15625 C 36.640625 -23.300781 32.78125 -21.375 29.5625 -21.375 C 26.78125 -21.375 24.582031 -22.578125 22.96875 -24.984375 C 21.363281 -27.398438 20.671875 -30.476562 20.890625 -34.21875 C 19.710938 -32.289062 18.1875 -30.335938 16.3125 -28.359375 C 14.4375 -26.378906 12.476562 -24.71875 10.4375 -23.375 C 8.40625 -22.039062 6.375 -21.375 4.34375 -21.375 C 2.625 -21.375 1.015625 -21.851562 -0.484375 -22.8125 Z M -0.484375 -22.8125 "/></g></g></g><g fill="#ffffff" fill-opacity="1"><g transform="translate(193.093066, 161.822114)"><g><path d="M 3.21875 -21.53125 C 2.25 -21.53125 1.441406 -21.878906 0.796875 -22.578125 C 0.160156 -23.273438 -0.101562 -24.050781 0 -24.90625 C 0.21875 -30.050781 0.617188 -36.101562 1.203125 -43.0625 C 1.796875 -50.03125 2.519531 -56.617188 3.375 -62.828125 C 3.476562 -63.679688 3.878906 -64.398438 4.578125 -64.984375 C 5.273438 -65.578125 6.050781 -65.769531 6.90625 -65.5625 C 7.757812 -65.457031 8.484375 -65.03125 9.078125 -64.28125 C 9.671875 -63.53125 9.859375 -62.722656 9.640625 -61.859375 C 9.316406 -59.609375 9.019531 -57.144531 8.75 -54.46875 C 8.488281 -51.789062 8.195312 -48.898438 7.875 -45.796875 C 10.019531 -50.828125 12.160156 -55.191406 14.296875 -58.890625 C 16.441406 -62.585938 19.175781 -64.4375 22.5 -64.4375 C 24.207031 -64.4375 25.757812 -63.953125 27.15625 -62.984375 C 28.550781 -62.023438 29.625 -60.632812 30.375 -58.8125 C 30.90625 -57.53125 31.25 -56.191406 31.40625 -54.796875 C 31.570312 -53.398438 31.65625 -52.003906 31.65625 -50.609375 C 31.65625 -47.929688 31.679688 -45.46875 31.734375 -43.21875 C 31.785156 -40.96875 32.722656 -39.253906 34.546875 -38.078125 C 35.398438 -37.546875 36.363281 -37.28125 37.4375 -37.28125 C 39.363281 -37.28125 41.34375 -38.003906 43.375 -39.453125 C 45.414062 -40.898438 47.316406 -42.640625 49.078125 -44.671875 C 50.847656 -46.703125 52.21875 -48.578125 53.1875 -50.296875 C 53.613281 -51.367188 54.472656 -51.90625 55.765625 -51.90625 C 56.515625 -51.90625 57.101562 -51.742188 57.53125 -51.421875 C 58.601562 -50.992188 59.140625 -50.082031 59.140625 -48.6875 C 59.140625 -48.15625 58.976562 -47.617188 58.65625 -47.078125 C 57.039062 -44.503906 55.109375 -41.957031 52.859375 -39.4375 C 50.609375 -36.925781 48.144531 -34.867188 45.46875 -33.265625 C 42.789062 -31.660156 40.007812 -30.859375 37.125 -30.859375 C 34.875 -30.859375 32.835938 -31.445312 31.015625 -32.625 C 28.765625 -34.125 27.238281 -35.863281 26.4375 -37.84375 C 25.632812 -39.820312 25.234375 -41.9375 25.234375 -44.1875 C 25.234375 -46.4375 25.234375 -48.523438 25.234375 -50.453125 C 25.234375 -52.703125 24.960938 -54.628906 24.421875 -56.234375 C 23.992188 -57.304688 23.457031 -57.84375 22.8125 -57.84375 C 21.632812 -57.84375 20.109375 -56.15625 18.234375 -52.78125 C 16.359375 -49.40625 14.375 -45.09375 12.28125 -39.84375 C 10.195312 -34.601562 8.140625 -29.195312 6.109375 -23.625 C 5.679688 -22.226562 4.71875 -21.53125 3.21875 -21.53125 Z M 3.21875 -21.53125 "/></g></g></g><g fill="#ffffff" fill-opacity="1"><g transform="translate(244.351566, 161.822114)"><g><path d="M 25.546875 -30.046875 C 21.898438 -24.265625 17.832031 -21.375 13.34375 -21.375 C 9.90625 -21.375 6.875 -22.976562 4.25 -26.1875 C 1.632812 -29.40625 0.328125 -33.742188 0.328125 -39.203125 C 0.328125 -42.628906 0.859375 -46.003906 1.921875 -49.328125 C 2.785156 -52.429688 4.070312 -55.269531 5.78125 -57.84375 C 7.5 -60.414062 9.535156 -62.71875 11.890625 -64.75 C 12.316406 -65.1875 13.015625 -65.40625 13.984375 -65.40625 C 14.734375 -65.40625 15.320312 -65.242188 15.75 -64.921875 C 17.78125 -65.242188 19.679688 -64.65625 21.453125 -63.15625 C 23.222656 -61.65625 24.722656 -59.78125 25.953125 -57.53125 C 27.179688 -55.28125 28.007812 -53.191406 28.4375 -51.265625 C 29.40625 -51.046875 30.453125 -50.828125 31.578125 -50.609375 C 32.703125 -50.398438 33.90625 -50.296875 35.1875 -50.296875 C 38.507812 -50.296875 41.9375 -50.832031 45.46875 -51.90625 C 45.6875 -51.90625 45.820312 -51.929688 45.875 -51.984375 C 45.925781 -52.035156 46.0625 -52.0625 46.28125 -52.0625 C 47.78125 -52.0625 48.847656 -51.257812 49.484375 -49.65625 L 49.484375 -49.015625 C 49.484375 -47.296875 48.679688 -46.171875 47.078125 -45.640625 C 42.578125 -44.460938 38.5625 -43.875 35.03125 -43.875 C 33.101562 -43.875 31.226562 -44.03125 29.40625 -44.34375 C 29.40625 -41.882812 29.054688 -39.421875 28.359375 -36.953125 C 27.660156 -34.492188 26.722656 -32.191406 25.546875 -30.046875 Z M 19.921875 -33.421875 C 20.773438 -34.921875 21.5 -36.609375 22.09375 -38.484375 C 22.6875 -40.359375 22.984375 -42.3125 22.984375 -44.34375 C 22.984375 -44.78125 22.953125 -45.15625 22.890625 -45.46875 C 22.835938 -45.789062 22.8125 -46.113281 22.8125 -46.4375 C 20.132812 -47.613281 17.9375 -49.085938 16.21875 -50.859375 C 14.507812 -52.628906 13.28125 -54.421875 12.53125 -56.234375 C 10.5 -53.671875 9.050781 -50.941406 8.1875 -48.046875 C 7.332031 -45.148438 6.90625 -42.414062 6.90625 -39.84375 C 6.90625 -36.414062 7.492188 -33.523438 8.671875 -31.171875 C 9.847656 -28.816406 11.347656 -27.640625 13.171875 -27.640625 C 15.316406 -27.640625 17.566406 -29.566406 19.921875 -33.421875 Z M 19.921875 -33.421875 "/></g></g></g><g fill="#ffffff" fill-opacity="1"><g transform="translate(286.611697, 161.822114)"><g><path d="M 3.21875 -22.65625 C 2.351562 -22.757812 1.597656 -23.101562 0.953125 -23.6875 C 0.316406 -24.28125 0 -25.007812 0 -25.875 C 0.101562 -32.1875 0.445312 -38.445312 1.03125 -44.65625 C 1.625 -50.875 1.976562 -57.039062 2.09375 -63.15625 C 2.09375 -64.007812 2.410156 -64.753906 3.046875 -65.390625 C 3.691406 -66.035156 4.441406 -66.359375 5.296875 -66.359375 C 6.160156 -66.359375 6.910156 -66.035156 7.546875 -65.390625 C 8.191406 -64.753906 8.515625 -64.007812 8.515625 -63.15625 C 8.515625 -60.6875 8.457031 -58.242188 8.34375 -55.828125 C 8.238281 -53.421875 8.082031 -51.039062 7.875 -48.6875 C 9.476562 -51.257812 11.507812 -53.960938 13.96875 -56.796875 C 16.4375 -59.640625 19.144531 -62.023438 22.09375 -63.953125 C 25.039062 -65.878906 28.015625 -66.84375 31.015625 -66.84375 C 31.335938 -66.84375 31.710938 -66.816406 32.140625 -66.765625 C 32.566406 -66.710938 33.046875 -66.632812 33.578125 -66.53125 C 34.441406 -66.3125 35.113281 -65.828125 35.59375 -65.078125 C 36.070312 -64.328125 36.207031 -63.523438 36 -62.671875 C 35.78125 -61.804688 35.320312 -61.132812 34.625 -60.65625 C 33.925781 -60.175781 33.148438 -60.039062 32.296875 -60.25 C 30.265625 -60.6875 27.828125 -59.9375 24.984375 -58 C 22.148438 -56.070312 19.335938 -53.394531 16.546875 -49.96875 C 13.765625 -46.539062 11.4375 -42.710938 9.5625 -38.484375 C 7.6875 -34.253906 6.640625 -29.992188 6.421875 -25.703125 C 6.421875 -24.847656 6.097656 -24.125 5.453125 -23.53125 C 4.816406 -22.945312 4.070312 -22.65625 3.21875 -22.65625 Z M 3.21875 -22.65625 "/></g></g></g></g></g><g transform="matrix(1, 0, 0, 1, 122, 274)"><g clip-path="url(#197452ca0a)"><g fill="#ffffff" fill-opacity="1"><g transform="translate(0.469423, 17.561624)"><g><path d="M 11.90625 -8.484375 L 11.90625 -8.46875 C 12.257812 -8.320312 12.660156 -8.09375 13.109375 -7.78125 C 13.566406 -7.46875 13.960938 -7.050781 14.296875 -6.53125 C 14.640625 -6.019531 14.8125 -5.363281 14.8125 -4.5625 C 14.8125 -3.4375 14.535156 -2.539062 13.984375 -1.875 C 13.441406 -1.207031 12.722656 -0.726562 11.828125 -0.4375 C 10.929688 -0.144531 9.96875 0 8.9375 0 L 2.515625 0 C 2.328125 0 2.191406 -0.03125 2.109375 -0.09375 C 2.035156 -0.15625 2 -0.289062 2 -0.5 L 2 -15.96875 C 2 -16.15625 2.03125 -16.285156 2.09375 -16.359375 C 2.164062 -16.429688 2.304688 -16.46875 2.515625 -16.46875 L 8.34375 -16.46875 C 9.019531 -16.46875 9.703125 -16.382812 10.390625 -16.21875 C 11.078125 -16.0625 11.710938 -15.8125 12.296875 -15.46875 C 12.878906 -15.125 13.347656 -14.65625 13.703125 -14.0625 C 14.054688 -13.476562 14.234375 -12.757812 14.234375 -11.90625 C 14.234375 -11.269531 14.101562 -10.726562 13.84375 -10.28125 C 13.59375 -9.84375 13.289062 -9.476562 12.9375 -9.1875 C 12.59375 -8.894531 12.25 -8.660156 11.90625 -8.484375 Z M 4.84375 -7.21875 L 4.84375 -2.375 L 8.796875 -2.375 C 9.910156 -2.375 10.71875 -2.582031 11.21875 -3 C 11.71875 -3.414062 11.96875 -4.023438 11.96875 -4.828125 C 11.96875 -5.484375 11.6875 -6.046875 11.125 -6.515625 C 10.570312 -6.984375 9.828125 -7.21875 8.890625 -7.21875 Z M 4.84375 -14.078125 L 4.84375 -9.5 L 8.484375 -9.5 C 9.410156 -9.5 10.125 -9.707031 10.625 -10.125 C 11.125 -10.539062 11.375 -11.035156 11.375 -11.609375 C 11.375 -12.460938 11.101562 -13.085938 10.5625 -13.484375 C 10.03125 -13.878906 9.253906 -14.078125 8.234375 -14.078125 Z M 4.84375 -14.078125 "/></g></g></g><g fill="#ffffff" fill-opacity="1"><g transform="translate(24.832088, 17.561624)"><g><path d="M 13.59375 -1.921875 L 13.59375 -0.5 C 13.59375 -0.3125 13.554688 -0.179688 13.484375 -0.109375 C 13.410156 -0.0351562 13.273438 0 13.078125 0 L 2.515625 0 C 2.304688 0 2.164062 -0.0351562 2.09375 -0.109375 C 2.03125 -0.179688 2 -0.3125 2 -0.5 L 2 -15.96875 C 2 -16.300781 2.171875 -16.46875 2.515625 -16.46875 L 13.078125 -16.46875 C 13.421875 -16.46875 13.59375 -16.300781 13.59375 -15.96875 L 13.59375 -14.53125 C 13.59375 -14.1875 13.421875 -14.015625 13.078125 -14.015625 L 4.84375 -14.015625 L 4.84375 -9.5 L 12.71875 -9.5 C 12.925781 -9.5 13.0625 -9.46875 13.125 -9.40625 C 13.1875 -9.34375 13.21875 -9.207031 13.21875 -9 L 13.21875 -7.578125 C 13.21875 -7.390625 13.1875 -7.257812 13.125 -7.1875 C 13.0625 -7.113281 12.925781 -7.078125 12.71875 -7.078125 L 4.84375 -7.078125 L 4.84375 -2.421875 L 13.078125 -2.421875 C 13.273438 -2.421875 13.410156 -2.390625 13.484375 -2.328125 C 13.554688 -2.265625 13.59375 -2.128906 13.59375 -1.921875 Z M 13.59375 -1.921875 "/></g></g></g><g clip-path="url(#3c5b786f97)"><g fill="#ffffff" fill-opacity="1"><g transform="translate(48.418959, 17.561624)"><g><path d="M 2.734375 0 L 0.546875 0 C 0.398438 0 0.296875 -0.0507812 0.234375 -0.15625 C 0.171875 -0.269531 0.171875 -0.382812 0.234375 -0.5 L 8.1875 -16.34375 C 8.257812 -16.488281 8.320312 -16.601562 8.375 -16.6875 C 8.4375 -16.769531 8.503906 -16.8125 8.578125 -16.8125 L 8.65625 -16.8125 C 8.75 -16.8125 8.816406 -16.769531 8.859375 -16.6875 C 8.910156 -16.601562 8.984375 -16.488281 9.078125 -16.34375 L 17.03125 -0.5 C 17.09375 -0.382812 17.09375 -0.269531 17.03125 -0.15625 C 16.96875 -0.0507812 16.859375 0 16.703125 0 L 14.53125 0 C 14.363281 0 14.234375 -0.0351562 14.140625 -0.109375 C 14.054688 -0.179688 13.96875 -0.3125 13.875 -0.5 L 12.328125 -3.71875 L 4.921875 -3.71875 L 3.390625 -0.5 C 3.273438 -0.3125 3.175781 -0.179688 3.09375 -0.109375 C 3.019531 -0.0351562 2.898438 0 2.734375 0 Z M 8.609375 -12 L 5.875 -6.140625 L 11.375 -6.140625 L 8.65625 -12 Z M 8.609375 -12 "/></g></g></g></g><g fill="#ffffff" fill-opacity="1"><g transform="translate(74.239182, 17.561624)"><g><path d="M 13.03125 -16.46875 L 14.859375 -16.46875 C 15.066406 -16.46875 15.203125 -16.429688 15.265625 -16.359375 C 15.335938 -16.285156 15.375 -16.15625 15.375 -15.96875 L 15.375 -6.765625 C 15.375 -5.210938 15.0625 -3.910156 14.4375 -2.859375 C 13.820312 -1.816406 13 -1.023438 11.96875 -0.484375 C 10.9375 0.046875 9.773438 0.3125 8.484375 0.3125 C 7.210938 0.3125 6.050781 0.046875 5 -0.484375 C 3.957031 -1.023438 3.125 -1.816406 2.5 -2.859375 C 1.882812 -3.910156 1.578125 -5.210938 1.578125 -6.765625 L 1.578125 -15.96875 C 1.578125 -16.300781 1.75 -16.46875 2.09375 -16.46875 L 3.921875 -16.46875 C 4.128906 -16.46875 4.265625 -16.429688 4.328125 -16.359375 C 4.390625 -16.285156 4.421875 -16.15625 4.421875 -15.96875 L 4.421875 -6.890625 C 4.421875 -5.273438 4.78125 -4.085938 5.5 -3.328125 C 6.21875 -2.566406 7.210938 -2.1875 8.484375 -2.1875 C 9.753906 -2.1875 10.742188 -2.566406 11.453125 -3.328125 C 12.171875 -4.085938 12.53125 -5.273438 12.53125 -6.890625 L 12.53125 -15.96875 C 12.53125 -16.15625 12.5625 -16.285156 12.625 -16.359375 C 12.6875 -16.429688 12.820312 -16.46875 13.03125 -16.46875 Z M 13.03125 -16.46875 "/></g></g></g><g fill="#ffffff" fill-opacity="1"><g transform="translate(99.800812, 17.561624)"><g><path d="M 14.34375 -15.96875 L 14.34375 -14.421875 C 14.34375 -14.210938 14.304688 -14.078125 14.234375 -14.015625 C 14.171875 -13.953125 14.039062 -13.921875 13.84375 -13.921875 L 8.71875 -13.921875 L 8.71875 -0.5 C 8.71875 -0.3125 8.679688 -0.179688 8.609375 -0.109375 C 8.546875 -0.0351562 8.410156 0 8.203125 0 L 6.375 0 C 6.164062 0 6.03125 -0.0351562 5.96875 -0.109375 C 5.90625 -0.179688 5.875 -0.3125 5.875 -0.5 L 5.875 -13.921875 L 0.734375 -13.921875 C 0.523438 -13.921875 0.390625 -13.957031 0.328125 -14.03125 C 0.265625 -14.101562 0.234375 -14.234375 0.234375 -14.421875 L 0.234375 -15.96875 C 0.234375 -16.15625 0.269531 -16.285156 0.34375 -16.359375 C 0.414062 -16.429688 0.546875 -16.46875 0.734375 -16.46875 L 13.84375 -16.46875 C 14.050781 -16.46875 14.1875 -16.429688 14.25 -16.359375 C 14.3125 -16.285156 14.34375 -16.15625 14.34375 -15.96875 Z M 14.34375 -15.96875 "/></g></g></g><g fill="#ffffff" fill-opacity="1"><g transform="translate(122.988028, 17.561624)"><g><path d="M 12.703125 -16.46875 L 14.796875 -16.46875 C 14.960938 -16.46875 15.066406 -16.429688 15.109375 -16.359375 C 15.160156 -16.285156 15.132812 -16.15625 15.03125 -15.96875 L 9 -6.203125 L 9 -0.5 C 9 -0.3125 8.96875 -0.179688 8.90625 -0.109375 C 8.84375 -0.0351562 8.710938 0 8.515625 0 L 6.75 0 C 6.5625 0 6.429688 -0.0351562 6.359375 -0.109375 C 6.285156 -0.179688 6.25 -0.3125 6.25 -0.5 L 6.25 -6.203125 L 0.234375 -15.96875 C 0.128906 -16.15625 0.0976562 -16.285156 0.140625 -16.359375 C 0.191406 -16.429688 0.300781 -16.46875 0.46875 -16.46875 L 2.609375 -16.46875 C 2.785156 -16.46875 2.910156 -16.429688 2.984375 -16.359375 C 3.066406 -16.285156 3.160156 -16.15625 3.265625 -15.96875 L 7.640625 -8.703125 L 12.046875 -15.96875 C 12.171875 -16.15625 12.269531 -16.285156 12.34375 -16.359375 C 12.425781 -16.429688 12.546875 -16.46875 12.703125 -16.46875 Z M 12.703125 -16.46875 "/></g></g></g><g fill="#ffffff" fill-opacity="1"><g transform="translate(146.833508, 17.561624)"><g/></g></g><g clip-path="url(#b0b8193534)"><g fill="#ffffff" fill-opacity="1"><g transform="translate(161.392939, 17.561624)"><g><path d="M 13.40625 -14.234375 L 12.703125 -13.078125 C 12.578125 -12.835938 12.441406 -12.71875 12.296875 -12.71875 C 12.234375 -12.71875 12.140625 -12.757812 12.015625 -12.84375 C 11.265625 -13.34375 10.554688 -13.695312 9.890625 -13.90625 C 9.222656 -14.125 8.503906 -14.234375 7.734375 -14.234375 C 6.765625 -14.234375 6.019531 -14.097656 5.5 -13.828125 C 4.988281 -13.554688 4.640625 -13.222656 4.453125 -12.828125 C 4.273438 -12.441406 4.1875 -12.050781 4.1875 -11.65625 C 4.1875 -11.144531 4.359375 -10.742188 4.703125 -10.453125 C 5.046875 -10.160156 5.523438 -9.941406 6.140625 -9.796875 C 6.753906 -9.660156 7.457031 -9.539062 8.25 -9.4375 C 8.96875 -9.332031 9.660156 -9.191406 10.328125 -9.015625 C 10.992188 -8.835938 11.59375 -8.578125 12.125 -8.234375 C 12.664062 -7.890625 13.09375 -7.429688 13.40625 -6.859375 C 13.71875 -6.296875 13.875 -5.578125 13.875 -4.703125 C 13.875 -3.835938 13.644531 -3.03125 13.1875 -2.28125 C 12.738281 -1.53125 12.0625 -0.914062 11.15625 -0.4375 C 10.257812 0.03125 9.132812 0.265625 7.78125 0.265625 C 5.257812 0.265625 3.132812 -0.332031 1.40625 -1.53125 C 1.238281 -1.632812 1.15625 -1.738281 1.15625 -1.84375 C 1.15625 -1.945312 1.191406 -2.078125 1.265625 -2.234375 L 2 -3.40625 C 2.125 -3.625 2.25 -3.734375 2.375 -3.734375 C 2.488281 -3.734375 2.59375 -3.695312 2.6875 -3.625 C 3.4375 -3.132812 4.234375 -2.78125 5.078125 -2.5625 C 5.921875 -2.34375 6.742188 -2.234375 7.546875 -2.234375 C 8.566406 -2.234375 9.414062 -2.410156 10.09375 -2.765625 C 10.78125 -3.117188 11.125 -3.722656 11.125 -4.578125 C 11.125 -5.429688 10.75 -6.015625 10 -6.328125 C 9.257812 -6.648438 8.226562 -6.898438 6.90625 -7.078125 C 6.269531 -7.160156 5.628906 -7.289062 4.984375 -7.46875 C 4.335938 -7.644531 3.742188 -7.894531 3.203125 -8.21875 C 2.671875 -8.550781 2.242188 -8.988281 1.921875 -9.53125 C 1.597656 -10.070312 1.4375 -10.75 1.4375 -11.5625 C 1.4375 -12.070312 1.535156 -12.625 1.734375 -13.21875 C 1.941406 -13.8125 2.28125 -14.375 2.75 -14.90625 C 3.21875 -15.4375 3.835938 -15.867188 4.609375 -16.203125 C 5.390625 -16.546875 6.351562 -16.71875 7.5 -16.71875 C 8.707031 -16.71875 9.742188 -16.554688 10.609375 -16.234375 C 11.484375 -15.910156 12.375 -15.476562 13.28125 -14.9375 C 13.457031 -14.84375 13.539062 -14.742188 13.53125 -14.640625 C 13.519531 -14.535156 13.476562 -14.398438 13.40625 -14.234375 Z M 13.40625 -14.234375 "/></g></g></g></g><g fill="#ffffff" fill-opacity="1"><g transform="translate(185.050342, 17.561624)"><g><path d="M 2.546875 -16.46875 L 8.25 -16.46875 C 8.9375 -16.46875 9.625 -16.382812 10.3125 -16.21875 C 11.007812 -16.0625 11.644531 -15.796875 12.21875 -15.421875 C 12.800781 -15.046875 13.265625 -14.539062 13.609375 -13.90625 C 13.960938 -13.269531 14.140625 -12.472656 14.140625 -11.515625 C 14.140625 -10.566406 13.960938 -9.769531 13.609375 -9.125 C 13.265625 -8.476562 12.800781 -7.960938 12.21875 -7.578125 C 11.644531 -7.191406 11.007812 -6.914062 10.3125 -6.75 C 9.625 -6.59375 8.9375 -6.515625 8.25 -6.515625 L 4.890625 -6.515625 L 4.890625 -0.5 C 4.890625 -0.3125 4.851562 -0.179688 4.78125 -0.109375 C 4.707031 -0.0351562 4.578125 0 4.390625 0 L 2.546875 0 C 2.335938 0 2.203125 -0.0351562 2.140625 -0.109375 C 2.078125 -0.179688 2.046875 -0.3125 2.046875 -0.5 L 2.046875 -15.96875 C 2.046875 -16.164062 2.078125 -16.296875 2.140625 -16.359375 C 2.210938 -16.429688 2.347656 -16.46875 2.546875 -16.46875 Z M 8.140625 -14.078125 L 4.890625 -14.078125 L 4.890625 -8.890625 L 8.140625 -8.890625 C 9.359375 -8.890625 10.203125 -9.144531 10.671875 -9.65625 C 11.140625 -10.164062 11.375 -10.785156 11.375 -11.515625 C 11.375 -12.242188 11.140625 -12.851562 10.671875 -13.34375 C 10.203125 -13.832031 9.359375 -14.078125 8.140625 -14.078125 Z M 8.140625 -14.078125 "/></g></g></g><g clip-path="url(#8f3432299d)"><g fill="#ffffff" fill-opacity="1"><g transform="translate(208.261074, 17.561624)"><g><path d="M 2.734375 0 L 0.546875 0 C 0.398438 0 0.296875 -0.0507812 0.234375 -0.15625 C 0.171875 -0.269531 0.171875 -0.382812 0.234375 -0.5 L 8.1875 -16.34375 C 8.257812 -16.488281 8.320312 -16.601562 8.375 -16.6875 C 8.4375 -16.769531 8.503906 -16.8125 8.578125 -16.8125 L 8.65625 -16.8125 C 8.75 -16.8125 8.816406 -16.769531 8.859375 -16.6875 C 8.910156 -16.601562 8.984375 -16.488281 9.078125 -16.34375 L 17.03125 -0.5 C 17.09375 -0.382812 17.09375 -0.269531 17.03125 -0.15625 C 16.96875 -0.0507812 16.859375 0 16.703125 0 L 14.53125 0 C 14.363281 0 14.234375 -0.0351562 14.140625 -0.109375 C 14.054688 -0.179688 13.96875 -0.3125 13.875 -0.5 L 12.328125 -3.71875 L 4.921875 -3.71875 L 3.390625 -0.5 C 3.273438 -0.3125 3.175781 -0.179688 3.09375 -0.109375 C 3.019531 -0.0351562 2.898438 0 2.734375 0 Z M 8.609375 -12 L 5.875 -6.140625 L 11.375 -6.140625 L 8.65625 -12 Z M 8.609375 -12 "/></g></g></g></g></g></g></svg>