<svg xmlns="http://www.w3.org/2000/svg" xmlns:xlink="http://www.w3.org/1999/xlink" width="500" zoomAndPan="magnify" viewBox="0 0 375 374.999991" height="500" preserveAspectRatio="xMidYMid meet" version="1.0"><defs><g/><clipPath id="32e4949003"><rect x="0" width="351" y="0" height="127"/></clipPath><clipPath id="5ceee663f8"><rect x="0" width="175" y="0" height="20"/></clipPath></defs><g transform="matrix(1, 0, 0, 1, 16, 122)"><g clip-path="url(#32e4949003)"><g fill="#ffffff" fill-opacity="1"><g transform="translate(1.782513, 90.747301)"><g><path d="M 36.828125 -40.546875 C 35.710938 -39.367188 34.441406 -38.5 33.015625 -37.9375 C 39.085938 -37.070312 43.703125 -34.914062 46.859375 -31.46875 C 50.023438 -28.03125 51.609375 -23.832031 51.609375 -18.875 C 51.609375 -12.863281 49.191406 -8 44.359375 -4.28125 C 39.523438 -0.5625 33.171875 1.296875 25.296875 1.296875 C 17.421875 1.296875 11.25 -0.640625 6.78125 -4.515625 C 2.320312 -8.390625 0.09375 -13.859375 0.09375 -20.921875 C 0.09375 -21.296875 0.09375 -21.671875 0.09375 -22.046875 L 1.109375 -22.234375 C 2.359375 -12.992188 6.207031 -7.007812 12.65625 -4.28125 L 12.65625 -58.40625 C 12.53125 -60.082031 11.890625 -61.460938 10.734375 -62.546875 C 9.585938 -63.628906 8.210938 -64.171875 6.609375 -64.171875 L 5.484375 -64.171875 L 5.484375 -65.09375 L 21.109375 -65.09375 C 26.941406 -65.09375 31.609375 -63.757812 35.109375 -61.09375 C 38.609375 -58.4375 40.359375 -54.953125 40.359375 -50.640625 C 40.359375 -46.328125 39.179688 -42.960938 36.828125 -40.546875 Z M 18.6875 -62.125 L 18.6875 -2.609375 C 20.738281 -2.296875 23.097656 -2.140625 25.765625 -2.140625 C 31.710938 -2.140625 36.34375 -3.734375 39.65625 -6.921875 C 42.976562 -10.117188 44.640625 -14.257812 44.640625 -19.34375 C 44.640625 -22.070312 44.128906 -24.488281 43.109375 -26.59375 C 42.085938 -28.707031 40.800781 -30.351562 39.25 -31.53125 C 35.15625 -34.6875 29.390625 -36.265625 21.953125 -36.265625 C 21.890625 -36.265625 21.859375 -36.265625 21.859375 -36.265625 L 21.765625 -37.109375 C 21.828125 -37.109375 21.859375 -37.109375 21.859375 -37.109375 C 25.015625 -37.109375 27.722656 -38.144531 29.984375 -40.21875 C 32.253906 -42.300781 33.390625 -45.507812 33.390625 -49.84375 C 33.390625 -58.03125 28.894531 -62.125 19.90625 -62.125 Z M 18.6875 -62.125 "/></g></g></g><g fill="#ffffff" fill-opacity="1"><g transform="translate(51.806866, 90.747301)"><g><path d="M 23.25 1.765625 C 36.457031 6.359375 46.363281 9.472656 52.96875 11.109375 C 59.570312 12.753906 65.242188 13.578125 69.984375 13.578125 C 74.722656 13.578125 79.945312 12.492188 85.65625 10.328125 L 86.125 11.0625 C 78.550781 16.269531 70.921875 18.875 63.234375 18.875 C 55.359375 18.875 46.398438 16.425781 36.359375 11.53125 C 28.609375 7.6875 23.804688 5.363281 21.953125 4.5625 C 15.316406 1.582031 9.859375 0.0625 5.578125 0 L 5.578125 -0.9375 L 6.78125 -0.9375 C 8.394531 -0.9375 9.773438 -1.492188 10.921875 -2.609375 C 12.066406 -3.722656 12.671875 -5.113281 12.734375 -6.78125 L 12.734375 -58.3125 C 12.671875 -59.925781 12.066406 -61.304688 10.921875 -62.453125 C 9.773438 -63.597656 8.394531 -64.171875 6.78125 -64.171875 L 5.578125 -64.171875 L 5.578125 -65.09375 L 25.953125 -65.09375 L 25.953125 -64.171875 L 24.734375 -64.171875 C 23.117188 -64.171875 21.722656 -63.597656 20.546875 -62.453125 C 19.367188 -61.304688 18.78125 -59.925781 18.78125 -58.3125 L 18.78125 -4.65625 C 18.78125 -3.53125 18.84375 -2.671875 18.96875 -2.078125 C 19.09375 -1.492188 19.492188 -0.832031 20.171875 -0.09375 C 20.859375 0.644531 21.882812 1.265625 23.25 1.765625 Z M 23.25 1.765625 "/></g></g></g><g fill="#ffffff" fill-opacity="1"><g transform="translate(83.885205, 90.747301)"><g><path d="M 25.765625 -43.4375 C 25.515625 -44.238281 25.390625 -44.929688 25.390625 -45.515625 C 25.390625 -46.109375 25.421875 -46.773438 25.484375 -47.515625 C 25.546875 -48.265625 25.679688 -49.289062 25.890625 -50.59375 C 26.109375 -51.894531 26.53125 -53.179688 27.15625 -54.453125 C 27.78125 -55.722656 28.492188 -56.945312 29.296875 -58.125 C 30.097656 -59.300781 31.132812 -60.382812 32.40625 -61.375 C 33.675781 -62.375 35.085938 -63.242188 36.640625 -63.984375 C 39.929688 -65.597656 43.929688 -66.40625 48.640625 -66.40625 C 58.128906 -66.40625 65.863281 -63.253906 71.84375 -56.953125 C 77.820312 -50.660156 80.8125 -42.617188 80.8125 -32.828125 C 80.8125 -23.035156 77.273438 -14.898438 70.203125 -8.421875 C 63.140625 -1.941406 54.179688 1.296875 43.328125 1.296875 C 32.484375 1.296875 23.476562 -1.925781 16.3125 -8.375 C 9.15625 -14.820312 5.578125 -23.191406 5.578125 -33.484375 C 5.578125 -40.117188 7.125 -46.007812 10.21875 -51.15625 C 13.320312 -56.300781 17.757812 -60.328125 23.53125 -63.234375 L 24.09375 -62.40625 C 20.0625 -59.738281 17.160156 -55.894531 15.390625 -50.875 C 13.617188 -45.851562 12.734375 -40.519531 12.734375 -34.875 C 12.734375 -24.394531 15.585938 -16.207031 21.296875 -10.3125 C 27.003906 -4.425781 34.320312 -1.484375 43.25 -1.484375 C 52.175781 -1.484375 59.472656 -4.441406 65.140625 -10.359375 C 70.816406 -16.285156 73.65625 -24.085938 73.65625 -33.765625 C 73.65625 -42.128906 71.40625 -49.191406 66.90625 -54.953125 C 62.414062 -60.722656 56.078125 -63.609375 47.890625 -63.609375 C 44.234375 -63.609375 40.914062 -62.957031 37.9375 -61.65625 C 32.550781 -59.363281 28.988281 -55.582031 27.25 -50.3125 C 26.75 -48.757812 26.5 -47.425781 26.5 -46.3125 C 26.5 -45.195312 26.5625 -44.296875 26.6875 -43.609375 Z M 25.765625 -43.4375 "/></g></g></g><g fill="#ffffff" fill-opacity="1"><g transform="translate(165.059381, 90.747301)"><g><path d="M 25.765625 -43.4375 C 25.515625 -44.238281 25.390625 -44.929688 25.390625 -45.515625 C 25.390625 -46.109375 25.421875 -46.773438 25.484375 -47.515625 C 25.546875 -48.265625 25.679688 -49.289062 25.890625 -50.59375 C 26.109375 -51.894531 26.53125 -53.179688 27.15625 -54.453125 C 27.78125 -55.722656 28.492188 -56.945312 29.296875 -58.125 C 30.097656 -59.300781 31.132812 -60.382812 32.40625 -61.375 C 33.675781 -62.375 35.085938 -63.242188 36.640625 -63.984375 C 39.929688 -65.597656 43.929688 -66.40625 48.640625 -66.40625 C 58.128906 -66.40625 65.863281 -63.253906 71.84375 -56.953125 C 77.820312 -50.660156 80.8125 -42.617188 80.8125 -32.828125 C 80.8125 -23.035156 77.273438 -14.898438 70.203125 -8.421875 C 63.140625 -1.941406 54.179688 1.296875 43.328125 1.296875 C 32.484375 1.296875 23.476562 -1.925781 16.3125 -8.375 C 9.15625 -14.820312 5.578125 -23.191406 5.578125 -33.484375 C 5.578125 -40.117188 7.125 -46.007812 10.21875 -51.15625 C 13.320312 -56.300781 17.757812 -60.328125 23.53125 -63.234375 L 24.09375 -62.40625 C 20.0625 -59.738281 17.160156 -55.894531 15.390625 -50.875 C 13.617188 -45.851562 12.734375 -40.519531 12.734375 -34.875 C 12.734375 -24.394531 15.585938 -16.207031 21.296875 -10.3125 C 27.003906 -4.425781 34.320312 -1.484375 43.25 -1.484375 C 52.175781 -1.484375 59.472656 -4.441406 65.140625 -10.359375 C 70.816406 -16.285156 73.65625 -24.085938 73.65625 -33.765625 C 73.65625 -42.128906 71.40625 -49.191406 66.90625 -54.953125 C 62.414062 -60.722656 56.078125 -63.609375 47.890625 -63.609375 C 44.234375 -63.609375 40.914062 -62.957031 37.9375 -61.65625 C 32.550781 -59.363281 28.988281 -55.582031 27.25 -50.3125 C 26.75 -48.757812 26.5 -47.425781 26.5 -46.3125 C 26.5 -45.195312 26.5625 -44.296875 26.6875 -43.609375 Z M 25.765625 -43.4375 "/></g></g></g><g fill="#ffffff" fill-opacity="1"><g transform="translate(246.233557, 90.747301)"><g><path d="M 102.296875 15.0625 C 102.671875 15.0625 103.046875 15.0625 103.421875 15.0625 L 103.421875 16 C 101.679688 16.25 99.738281 16.375 97.59375 16.375 C 95.457031 16.375 92.820312 15.90625 89.6875 14.96875 C 86.5625 14.039062 83.726562 12.304688 81.1875 9.765625 C 75.976562 4.554688 72.816406 -2.203125 71.703125 -10.515625 L 66.03125 -51.890625 L 46.6875 -8.1875 C 44.945312 -4.40625 43.894531 -1.242188 43.53125 1.296875 L 42.59375 1.296875 L 18.5 -51.0625 L 14.421875 -4.84375 C 14.296875 -3.78125 14.617188 -2.847656 15.390625 -2.046875 C 16.160156 -1.242188 17.015625 -0.84375 17.953125 -0.84375 L 19.4375 -0.84375 L 19.4375 0 L 1.390625 0 L 1.390625 -0.9375 L 2.890625 -0.9375 C 4.554688 -0.9375 6.023438 -1.445312 7.296875 -2.46875 C 8.566406 -3.488281 9.359375 -4.835938 9.671875 -6.515625 L 15.53125 -57.28125 C 10.070312 -68.007812 3.53125 -73.375 -4.09375 -73.375 C -4.769531 -73.375 -5.484375 -73.34375 -6.234375 -73.28125 L -6.234375 -74.21875 C -4.554688 -74.644531 -3.191406 -74.859375 -2.140625 -74.859375 C -1.085938 -74.859375 0.0546875 -74.8125 1.296875 -74.71875 C 2.535156 -74.632812 3.992188 -74.34375 5.671875 -73.84375 C 7.347656 -73.34375 8.925781 -72.613281 10.40625 -71.65625 C 11.894531 -70.695312 13.195312 -69.703125 14.3125 -68.671875 C 15.4375 -67.648438 16.492188 -66.519531 17.484375 -65.28125 C 19.160156 -63.050781 20.492188 -60.914062 21.484375 -58.875 L 43.890625 -10.328125 L 68.90625 -66.40625 L 69.75 -66.40625 L 78.40625 -11.34375 C 79.707031 -2.664062 82.507812 3.898438 86.8125 8.359375 C 91.125 12.828125 96.285156 15.0625 102.296875 15.0625 Z M 102.296875 15.0625 "/></g></g></g></g></g><g transform="matrix(1, 0, 0, 1, 165, 226)"><g clip-path="url(#5ceee663f8)"><g fill="#ffffff" fill-opacity="1"><g transform="translate(1.490082, 13.432923)"><g><path d="M 7.6875 -6.546875 C 7.6875 -6.179688 7.609375 -5.863281 7.453125 -5.59375 C 7.148438 -5.070312 6.695312 -4.785156 6.09375 -4.734375 C 6.738281 -4.691406 7.273438 -4.460938 7.703125 -4.046875 C 8.140625 -3.640625 8.359375 -3.117188 8.359375 -2.484375 C 8.359375 -1.234375 7.613281 -0.445312 6.125 -0.125 C 5.695312 -0.0390625 5.234375 0 4.734375 0 L 0.515625 0 L 0.515625 -0.140625 L 0.6875 -0.140625 C 0.90625 -0.140625 1.085938 -0.210938 1.234375 -0.359375 C 1.390625 -0.503906 1.472656 -0.6875 1.484375 -0.90625 L 1.484375 -7.78125 C 1.472656 -8.132812 1.304688 -8.375 0.984375 -8.5 C 0.890625 -8.539062 0.789062 -8.5625 0.6875 -8.5625 L 0.515625 -8.5625 L 0.515625 -8.703125 L 4.40625 -8.703125 C 6.59375 -8.703125 7.6875 -7.984375 7.6875 -6.546875 Z M 6.015625 -2.609375 C 6.015625 -3.054688 5.921875 -3.425781 5.734375 -3.71875 C 5.398438 -4.300781 4.816406 -4.59375 3.984375 -4.59375 C 3.972656 -4.59375 3.960938 -4.59375 3.953125 -4.59375 L 3.953125 -4.734375 C 4.421875 -4.734375 4.800781 -4.863281 5.09375 -5.125 C 5.382812 -5.394531 5.53125 -5.816406 5.53125 -6.390625 C 5.53125 -7.554688 5 -8.140625 3.9375 -8.140625 L 3.53125 -8.140625 L 3.53125 -0.578125 L 4.125 -0.578125 C 4.675781 -0.578125 5.128906 -0.738281 5.484375 -1.0625 C 5.835938 -1.394531 6.015625 -1.910156 6.015625 -2.609375 Z M 6.015625 -2.609375 "/></g></g></g><g fill="#ffffff" fill-opacity="1"><g transform="translate(15.864698, 13.432923)"><g><path d="M 7.328125 0 L 0.5 0 L 0.5 -0.140625 L 0.671875 -0.140625 C 0.890625 -0.140625 1.070312 -0.210938 1.21875 -0.359375 C 1.375 -0.503906 1.457031 -0.6875 1.46875 -0.90625 L 1.46875 -7.796875 C 1.457031 -8.015625 1.375 -8.195312 1.21875 -8.34375 C 1.070312 -8.488281 0.890625 -8.5625 0.671875 -8.5625 L 0.5 -8.5625 L 0.5 -8.703125 L 5.59375 -8.703125 C 5.851562 -8.703125 6.140625 -8.722656 6.453125 -8.765625 C 6.765625 -8.816406 6.984375 -8.867188 7.109375 -8.921875 L 7.109375 -6.609375 L 6.953125 -6.609375 L 6.953125 -6.75 C 6.953125 -7.164062 6.835938 -7.492188 6.609375 -7.734375 C 6.378906 -7.984375 6.054688 -8.113281 5.640625 -8.125 L 3.546875 -8.125 L 3.546875 -4.59375 L 5.203125 -4.59375 C 5.535156 -4.601562 5.800781 -4.710938 6 -4.921875 C 6.207031 -5.140625 6.3125 -5.410156 6.3125 -5.734375 L 6.3125 -5.84375 L 6.453125 -5.84375 L 6.453125 -2.765625 L 6.3125 -2.765625 L 6.3125 -2.875 C 6.3125 -3.320312 6.140625 -3.648438 5.796875 -3.859375 C 5.617188 -3.960938 5.425781 -4.015625 5.21875 -4.015625 L 3.546875 -4.015625 L 3.546875 -0.578125 L 5.296875 -0.578125 C 5.890625 -0.585938 6.394531 -0.773438 6.8125 -1.140625 C 7.238281 -1.503906 7.550781 -2.015625 7.75 -2.671875 L 7.875 -2.671875 Z M 7.328125 0 "/></g></g></g><g fill="#ffffff" fill-opacity="1"><g transform="translate(29.6446, 13.432923)"><g><path d="M 9.65625 -0.140625 L 9.78125 -0.140625 L 9.78125 0 L 5.515625 0 L 5.515625 -0.140625 L 5.625 -0.140625 C 5.820312 -0.140625 5.960938 -0.195312 6.046875 -0.3125 C 6.128906 -0.4375 6.171875 -0.546875 6.171875 -0.640625 C 6.171875 -0.734375 6.15625 -0.832031 6.125 -0.9375 L 5.546875 -2.28125 L 2.484375 -2.28125 L 1.90625 -0.921875 C 1.863281 -0.828125 1.84375 -0.726562 1.84375 -0.625 C 1.84375 -0.53125 1.890625 -0.425781 1.984375 -0.3125 C 2.078125 -0.195312 2.21875 -0.140625 2.40625 -0.140625 L 2.53125 -0.140625 L 2.53125 0 L -0.375 0 L -0.375 -0.140625 L -0.265625 -0.140625 C -0.0546875 -0.140625 0.144531 -0.203125 0.34375 -0.328125 C 0.550781 -0.453125 0.71875 -0.644531 0.84375 -0.90625 L 3.84375 -7.34375 C 4.269531 -8.289062 4.492188 -8.878906 4.515625 -9.109375 L 4.640625 -9.109375 L 8.53125 -0.953125 C 8.65625 -0.671875 8.820312 -0.460938 9.03125 -0.328125 C 9.238281 -0.203125 9.445312 -0.140625 9.65625 -0.140625 Z M 2.734375 -2.84375 L 5.3125 -2.84375 L 4.03125 -5.875 Z M 2.734375 -2.84375 "/></g></g></g><g fill="#ffffff" fill-opacity="1"><g transform="translate(44.599434, 13.432923)"><g><path d="M 9.9375 -8.5625 L 9.734375 -8.5625 C 9.546875 -8.5625 9.390625 -8.503906 9.265625 -8.390625 C 9.140625 -8.273438 9.070312 -8.128906 9.0625 -7.953125 L 9.0625 -3.15625 C 9.0625 -2.113281 8.742188 -1.296875 8.109375 -0.703125 C 7.472656 -0.109375 6.519531 0.1875 5.25 0.1875 C 3.988281 0.1875 3.007812 -0.0976562 2.3125 -0.671875 C 1.613281 -1.253906 1.265625 -2.070312 1.265625 -3.125 L 1.265625 -7.953125 C 1.265625 -8.117188 1.195312 -8.257812 1.0625 -8.375 C 0.9375 -8.5 0.78125 -8.5625 0.59375 -8.5625 L 0.390625 -8.5625 L 0.390625 -8.703125 L 4.203125 -8.703125 L 4.203125 -8.5625 L 4 -8.5625 C 3.8125 -8.5625 3.65625 -8.5 3.53125 -8.375 C 3.40625 -8.257812 3.34375 -8.117188 3.34375 -7.953125 L 3.34375 -3.234375 C 3.34375 -2.347656 3.546875 -1.648438 3.953125 -1.140625 C 4.367188 -0.640625 4.945312 -0.390625 5.6875 -0.390625 C 6.4375 -0.390625 7.023438 -0.625 7.453125 -1.09375 C 7.890625 -1.570312 8.109375 -2.234375 8.109375 -3.078125 L 8.109375 -7.953125 C 8.097656 -8.128906 8.03125 -8.273438 7.90625 -8.390625 C 7.78125 -8.503906 7.625 -8.5625 7.4375 -8.5625 L 7.25 -8.5625 L 7.25 -8.703125 L 9.9375 -8.703125 Z M 9.9375 -8.5625 "/></g></g></g><g fill="#ffffff" fill-opacity="1"><g transform="translate(60.424576, 13.432923)"><g><path d="M 8.390625 -6.640625 L 8.390625 -6.765625 C 8.390625 -7.179688 8.273438 -7.507812 8.046875 -7.75 C 7.816406 -8 7.492188 -8.128906 7.078125 -8.140625 L 5.390625 -8.140625 L 5.390625 -0.90625 C 5.398438 -0.6875 5.484375 -0.503906 5.640625 -0.359375 C 5.796875 -0.210938 5.976562 -0.140625 6.1875 -0.140625 L 6.34375 -0.140625 L 6.34375 0 L 2.34375 0 L 2.34375 -0.140625 L 2.5 -0.140625 C 2.71875 -0.140625 2.90625 -0.210938 3.0625 -0.359375 C 3.21875 -0.503906 3.296875 -0.6875 3.296875 -0.90625 L 3.296875 -8.140625 L 1.625 -8.140625 C 1.195312 -8.128906 0.867188 -8 0.640625 -7.75 C 0.410156 -7.507812 0.296875 -7.179688 0.296875 -6.765625 L 0.296875 -6.640625 L 0.140625 -6.640625 L 0.140625 -8.9375 C 0.273438 -8.882812 0.5 -8.832031 0.8125 -8.78125 C 1.132812 -8.738281 1.421875 -8.71875 1.671875 -8.71875 L 7.015625 -8.71875 C 7.441406 -8.71875 7.789062 -8.75 8.0625 -8.8125 C 8.34375 -8.875 8.503906 -8.914062 8.546875 -8.9375 L 8.546875 -6.640625 Z M 8.390625 -6.640625 "/></g></g></g><g fill="#ffffff" fill-opacity="1"><g transform="translate(74.72667, 13.432923)"><g><path d="M 9.71875 -8.5625 L 9.53125 -8.5625 C 9.28125 -8.5625 9.039062 -8.492188 8.8125 -8.359375 C 8.582031 -8.222656 8.394531 -8.050781 8.25 -7.84375 L 5.671875 -3.875 L 5.671875 -0.90625 C 5.679688 -0.695312 5.765625 -0.515625 5.921875 -0.359375 C 6.078125 -0.210938 6.269531 -0.140625 6.5 -0.140625 L 6.65625 -0.140625 L 6.65625 0 L 2.59375 0 L 2.59375 -0.140625 L 2.765625 -0.140625 C 2.992188 -0.140625 3.179688 -0.210938 3.328125 -0.359375 C 3.484375 -0.515625 3.566406 -0.695312 3.578125 -0.90625 L 3.578125 -3.875 L 1.015625 -7.84375 C 0.878906 -8.050781 0.695312 -8.222656 0.46875 -8.359375 C 0.238281 -8.492188 -0.00390625 -8.5625 -0.265625 -8.5625 L -0.4375 -8.5625 L -0.4375 -8.703125 L 3.96875 -8.703125 L 3.96875 -8.5625 L 3.8125 -8.5625 C 3.632812 -8.5625 3.503906 -8.5 3.421875 -8.375 C 3.335938 -8.25 3.296875 -8.144531 3.296875 -8.0625 C 3.296875 -7.988281 3.3125 -7.914062 3.34375 -7.84375 L 5.28125 -4.515625 L 7.234375 -7.84375 C 7.265625 -7.914062 7.28125 -7.988281 7.28125 -8.0625 C 7.28125 -8.144531 7.238281 -8.25 7.15625 -8.375 C 7.070312 -8.5 6.941406 -8.5625 6.765625 -8.5625 L 6.609375 -8.5625 L 6.609375 -8.703125 L 9.71875 -8.703125 Z M 9.71875 -8.5625 "/></g></g></g><g fill="#ffffff" fill-opacity="1"><g transform="translate(89.550956, 13.432923)"><g/></g></g><g fill="#ffffff" fill-opacity="1"><g transform="translate(98.790726, 13.432923)"><g><path d="M 0.671875 -1.1875 C 0.671875 -1.8125 0.8125 -2.347656 1.09375 -2.796875 L 1.203125 -2.796875 C 1.191406 -2.734375 1.1875 -2.671875 1.1875 -2.609375 C 1.1875 -2.015625 1.394531 -1.492188 1.8125 -1.046875 C 2.238281 -0.609375 2.828125 -0.390625 3.578125 -0.390625 C 4.117188 -0.390625 4.535156 -0.515625 4.828125 -0.765625 C 5.128906 -1.015625 5.28125 -1.296875 5.28125 -1.609375 C 5.28125 -1.921875 5.191406 -2.171875 5.015625 -2.359375 C 4.847656 -2.546875 4.570312 -2.765625 4.1875 -3.015625 L 2.125 -4.328125 C 1.257812 -4.867188 0.828125 -5.5625 0.828125 -6.40625 C 0.828125 -6.5 0.832031 -6.59375 0.84375 -6.6875 C 0.894531 -7.375 1.15625 -7.910156 1.625 -8.296875 C 2.101562 -8.691406 2.664062 -8.890625 3.3125 -8.890625 C 3.957031 -8.890625 4.632812 -8.847656 5.34375 -8.765625 L 6.140625 -8.765625 L 5.9375 -6.84375 L 5.796875 -6.84375 C 5.796875 -7.300781 5.640625 -7.660156 5.328125 -7.921875 C 5.015625 -8.179688 4.597656 -8.3125 4.078125 -8.3125 C 3.566406 -8.3125 3.160156 -8.203125 2.859375 -7.984375 C 2.554688 -7.765625 2.40625 -7.476562 2.40625 -7.125 C 2.40625 -6.832031 2.550781 -6.578125 2.84375 -6.359375 C 2.957031 -6.273438 3.125 -6.164062 3.34375 -6.03125 L 5.65625 -4.609375 C 6.445312 -4.128906 6.84375 -3.460938 6.84375 -2.609375 C 6.84375 -1.710938 6.523438 -1.019531 5.890625 -0.53125 C 5.253906 -0.0507812 4.4375 0.1875 3.4375 0.1875 C 2.820312 0.1875 2.273438 0.113281 1.796875 -0.03125 C 1.328125 -0.175781 0.976562 -0.359375 0.75 -0.578125 C 0.695312 -0.753906 0.671875 -0.957031 0.671875 -1.1875 Z M 0.671875 -1.1875 "/></g></g></g><g fill="#ffffff" fill-opacity="1"><g transform="translate(111.859881, 13.432923)"><g><path d="M 9.65625 -0.140625 L 9.78125 -0.140625 L 9.78125 0 L 5.515625 0 L 5.515625 -0.140625 L 5.625 -0.140625 C 5.820312 -0.140625 5.960938 -0.195312 6.046875 -0.3125 C 6.128906 -0.4375 6.171875 -0.546875 6.171875 -0.640625 C 6.171875 -0.734375 6.15625 -0.832031 6.125 -0.9375 L 5.546875 -2.28125 L 2.484375 -2.28125 L 1.90625 -0.921875 C 1.863281 -0.828125 1.84375 -0.726562 1.84375 -0.625 C 1.84375 -0.53125 1.890625 -0.425781 1.984375 -0.3125 C 2.078125 -0.195312 2.21875 -0.140625 2.40625 -0.140625 L 2.53125 -0.140625 L 2.53125 0 L -0.375 0 L -0.375 -0.140625 L -0.265625 -0.140625 C -0.0546875 -0.140625 0.144531 -0.203125 0.34375 -0.328125 C 0.550781 -0.453125 0.71875 -0.644531 0.84375 -0.90625 L 3.84375 -7.34375 C 4.269531 -8.289062 4.492188 -8.878906 4.515625 -9.109375 L 4.640625 -9.109375 L 8.53125 -0.953125 C 8.65625 -0.671875 8.820312 -0.460938 9.03125 -0.328125 C 9.238281 -0.203125 9.445312 -0.140625 9.65625 -0.140625 Z M 2.734375 -2.84375 L 5.3125 -2.84375 L 4.03125 -5.875 Z M 2.734375 -2.84375 "/></g></g></g><g fill="#ffffff" fill-opacity="1"><g transform="translate(126.814715, 13.432923)"><g><path d="M 0.5 0 L 0.5 -0.140625 L 0.671875 -0.140625 C 0.890625 -0.140625 1.070312 -0.210938 1.21875 -0.359375 C 1.375 -0.503906 1.453125 -0.6875 1.453125 -0.90625 L 1.453125 -7.78125 C 1.453125 -8 1.375 -8.179688 1.21875 -8.328125 C 1.0625 -8.484375 0.878906 -8.5625 0.671875 -8.5625 L 0.5 -8.5625 L 0.5 -8.703125 L 4.53125 -8.703125 L 4.53125 -8.5625 L 4.34375 -8.5625 C 4.125 -8.5625 3.9375 -8.488281 3.78125 -8.34375 C 3.625 -8.195312 3.546875 -8.007812 3.546875 -7.78125 L 3.546875 -0.578125 L 5.296875 -0.578125 C 5.890625 -0.585938 6.394531 -0.773438 6.8125 -1.140625 C 7.226562 -1.503906 7.535156 -2.015625 7.734375 -2.671875 L 7.890625 -2.671875 L 7.328125 0 Z M 0.5 0 "/></g></g></g><g fill="#ffffff" fill-opacity="1"><g transform="translate(140.377049, 13.432923)"><g><path d="M 0.5 -4.34375 C 0.5 -5.738281 0.96875 -6.84375 1.90625 -7.65625 C 2.84375 -8.476562 4.082031 -8.890625 5.625 -8.890625 C 7.175781 -8.890625 8.421875 -8.476562 9.359375 -7.65625 C 10.296875 -6.84375 10.765625 -5.738281 10.765625 -4.34375 C 10.765625 -2.957031 10.296875 -1.851562 9.359375 -1.03125 C 8.421875 -0.21875 7.179688 0.1875 5.640625 0.1875 C 4.097656 0.1875 2.851562 -0.21875 1.90625 -1.03125 C 0.96875 -1.851562 0.5 -2.957031 0.5 -4.34375 Z M 2.71875 -4.34375 C 2.71875 -3.125 2.984375 -2.160156 3.515625 -1.453125 C 4.046875 -0.742188 4.75 -0.390625 5.625 -0.390625 C 6.507812 -0.390625 7.21875 -0.742188 7.75 -1.453125 C 8.28125 -2.160156 8.546875 -3.125 8.546875 -4.34375 C 8.546875 -5.5625 8.28125 -6.523438 7.75 -7.234375 C 7.21875 -7.953125 6.507812 -8.3125 5.625 -8.3125 C 4.75 -8.3125 4.046875 -7.953125 3.515625 -7.234375 C 2.984375 -6.523438 2.71875 -5.5625 2.71875 -4.34375 Z M 2.71875 -4.34375 "/></g></g></g><g fill="#ffffff" fill-opacity="1"><g transform="translate(157.261073, 13.432923)"><g><path d="M 6.9375 -8.703125 L 11 -8.703125 L 11 -8.5625 L 10.765625 -8.5625 C 10.535156 -8.5625 10.34375 -8.492188 10.1875 -8.359375 C 10.039062 -8.222656 9.96875 -8.046875 9.96875 -7.828125 L 9.96875 -1.5 C 9.96875 -0.894531 10.003906 -0.398438 10.078125 -0.015625 L 10.109375 0.1875 L 9.96875 0.1875 L 3.328125 -5.6875 L 3.328125 -0.890625 C 3.328125 -0.671875 3.398438 -0.488281 3.546875 -0.34375 C 3.703125 -0.207031 3.894531 -0.140625 4.125 -0.140625 L 4.359375 -0.140625 L 4.359375 0 L 0.296875 0 L 0.296875 -0.140625 L 0.53125 -0.140625 C 0.757812 -0.140625 0.945312 -0.207031 1.09375 -0.34375 C 1.25 -0.488281 1.328125 -0.671875 1.328125 -0.890625 L 1.328125 -7.265625 C 1.328125 -7.847656 1.289062 -8.328125 1.21875 -8.703125 L 1.1875 -8.90625 L 1.3125 -8.890625 L 7.953125 -3.046875 L 7.953125 -7.8125 C 7.953125 -8.03125 7.878906 -8.207031 7.734375 -8.34375 C 7.585938 -8.488281 7.398438 -8.5625 7.171875 -8.5625 L 6.9375 -8.5625 Z M 6.9375 -8.703125 "/></g></g></g></g></g></svg>