<svg xmlns="http://www.w3.org/2000/svg" xmlns:xlink="http://www.w3.org/1999/xlink" width="500" zoomAndPan="magnify" viewBox="0 0 375 374.999991" height="500" preserveAspectRatio="xMidYMid meet" version="1.0"><defs><g/><clipPath id="aa24c8cc9e"><rect x="0" width="353" y="0" height="158"/></clipPath><clipPath id="b7522444bb"><path d="M 196.523438 220.316406 L 234.773438 220.316406 L 234.773438 258.566406 L 196.523438 258.566406 Z M 196.523438 220.316406 " clip-rule="nonzero"/></clipPath><clipPath id="022f5c29a9"><rect x="0" width="174" y="0" height="18"/></clipPath><clipPath id="a003bc6e02"><rect x="0" width="67" y="0" height="16"/></clipPath><clipPath id="b6f757db95"><path d="M 77.035156 42 L 298 42 L 298 187.347656 L 77.035156 187.347656 Z M 77.035156 42 " clip-rule="nonzero"/></clipPath></defs><g transform="matrix(1, 0, 0, 1, 11, 156)"><g clip-path="url(#aa24c8cc9e)"><g fill="#ffffff" fill-opacity="1"><g transform="translate(1.726656, 115.019866)"><g><path d="M 14.34375 -0.71875 C 14.34375 -0.238281 14.066406 0 13.515625 0 L 3.796875 0 C 3.242188 0 2.96875 -0.273438 2.96875 -0.828125 C 2.96875 -1.304688 3.082031 -1.78125 3.3125 -2.25 L 4.859375 -6.046875 C 5.960938 -8.734375 7.066406 -11.734375 8.171875 -15.046875 C 9.285156 -18.367188 10.117188 -21.457031 10.671875 -24.3125 L 20.515625 -67.8125 C 20.515625 -68.289062 20.789062 -68.53125 21.34375 -68.53125 L 33.796875 -68.53125 C 34.503906 -68.53125 34.738281 -68.210938 34.5 -67.578125 L 33.078125 -62.484375 C 32.210938 -59.796875 31.78125 -56.734375 31.78125 -53.296875 C 31.78125 -49.859375 32.171875 -46.753906 32.953125 -43.984375 L 38.765625 -24.1875 C 39.554688 -21.414062 40.484375 -18.332031 41.546875 -14.9375 C 42.617188 -11.539062 43.628906 -8.457031 44.578125 -5.6875 L 45.765625 -2.25 C 45.921875 -1.613281 46 -1.101562 46 -0.71875 C 46 -0.238281 45.722656 0 45.171875 0 L 32.375 0 C 31.8125 0 31.53125 -0.273438 31.53125 -0.828125 C 31.53125 -1.304688 31.613281 -1.78125 31.78125 -2.25 L 32.953125 -5.6875 C 33.828125 -8.21875 34.320312 -11.0625 34.4375 -14.21875 C 34.5625 -17.382812 34.304688 -20.3125 33.671875 -23 L 12.6875 -23 C 12.207031 -20.3125 12.023438 -17.382812 12.140625 -14.21875 C 12.265625 -11.0625 12.644531 -8.179688 13.28125 -5.578125 L 14.109375 -2.25 C 14.265625 -1.613281 14.34375 -1.101562 14.34375 -0.71875 Z M 21.703125 -63.671875 L 13.046875 -24.890625 L 33.203125 -24.890625 L 27.625 -44.109375 C 26.832031 -46.867188 25.921875 -49.945312 24.890625 -53.34375 C 23.867188 -56.75 22.921875 -59.832031 22.046875 -62.59375 Z M 21.703125 -63.671875 "/></g></g></g><g fill="#ffffff" fill-opacity="1"><g transform="translate(50.810436, 115.019866)"><g><path d="M 46.71875 -13.875 C 46.71875 -9.132812 45 -5.421875 41.5625 -2.734375 C 38.125 -0.046875 33.597656 1.296875 27.984375 1.296875 C 22.367188 1.296875 17.941406 -0.046875 14.703125 -2.734375 C 11.460938 -5.421875 9.84375 -9.132812 9.84375 -13.875 L 9.953125 -44.34375 C 9.953125 -47.101562 9.65625 -50.101562 9.0625 -53.34375 C 8.476562 -56.59375 7.710938 -59.519531 6.765625 -62.125 L 5.578125 -65.328125 C 5.492188 -65.566406 5.429688 -65.800781 5.390625 -66.03125 C 5.347656 -66.269531 5.328125 -66.507812 5.328125 -66.75 C 5.328125 -67.226562 5.609375 -67.46875 6.171875 -67.46875 L 19.203125 -67.46875 C 19.679688 -67.46875 19.921875 -67.226562 19.921875 -66.75 C 19.921875 -66.507812 19.921875 -66.269531 19.921875 -66.03125 C 19.921875 -65.800781 19.878906 -65.566406 19.796875 -65.328125 L 18.609375 -62.125 C 17.742188 -59.832031 17.035156 -57.242188 16.484375 -54.359375 C 15.929688 -51.472656 15.570312 -48.765625 15.40625 -46.234375 L 15.40625 -14.109375 C 15.40625 -10.078125 16.570312 -6.953125 18.90625 -4.734375 C 21.238281 -2.523438 24.421875 -1.421875 28.453125 -1.421875 C 32.410156 -1.421875 35.535156 -2.523438 37.828125 -4.734375 C 40.117188 -6.953125 41.300781 -10.078125 41.375 -14.109375 L 41.5 -44.453125 C 41.5 -47.222656 41.203125 -50.207031 40.609375 -53.40625 C 40.015625 -56.613281 39.242188 -59.519531 38.296875 -62.125 L 37.109375 -65.328125 C 37.023438 -65.566406 36.960938 -65.800781 36.921875 -66.03125 C 36.890625 -66.269531 36.875 -66.507812 36.875 -66.75 C 36.875 -67.226562 37.148438 -67.46875 37.703125 -67.46875 L 50.5 -67.46875 C 51.0625 -67.46875 51.34375 -67.226562 51.34375 -66.75 C 51.34375 -66.507812 51.320312 -66.269531 51.28125 -66.03125 C 51.238281 -65.800781 51.175781 -65.566406 51.09375 -65.328125 L 49.921875 -62.125 C 49.128906 -59.75 48.453125 -57.117188 47.890625 -54.234375 C 47.335938 -51.359375 46.984375 -48.65625 46.828125 -46.125 Z M 46.71875 -13.875 "/></g></g></g><g fill="#ffffff" fill-opacity="1"><g transform="translate(107.482048, 115.019866)"><g><path d="M 19.203125 -0.71875 C 19.203125 -0.238281 18.925781 0 18.375 0 L 5.6875 0 C 5.0625 0 4.75 -0.273438 4.75 -0.828125 C 4.75 -1.304688 4.863281 -1.78125 5.09375 -2.25 L 6.28125 -5.6875 C 7.15625 -8.300781 7.867188 -11.207031 8.421875 -14.40625 C 8.972656 -17.601562 9.285156 -20.585938 9.359375 -23.359375 L 9.359375 -43.03125 C 9.359375 -45.882812 9.0625 -49.046875 8.46875 -52.515625 C 7.882812 -55.992188 7.117188 -59.078125 6.171875 -61.765625 L 4.984375 -65.203125 C 4.828125 -65.835938 4.75 -66.351562 4.75 -66.75 C 4.75 -67.226562 5.023438 -67.46875 5.578125 -67.46875 L 19.6875 -67.46875 C 19.914062 -67.46875 20.148438 -67.46875 20.390625 -67.46875 C 20.628906 -67.46875 20.828125 -67.46875 20.984375 -67.46875 C 26.671875 -67.46875 31.671875 -66.457031 35.984375 -64.4375 C 40.296875 -62.425781 43.65625 -59.597656 46.0625 -55.953125 C 48.46875 -52.316406 49.671875 -48.09375 49.671875 -43.28125 C 49.671875 -37.351562 47.851562 -32.332031 44.21875 -28.21875 C 40.582031 -24.101562 35.679688 -21.375 29.515625 -20.03125 C 30.460938 -19.957031 31.566406 -19.625 32.828125 -19.03125 C 34.097656 -18.4375 35.484375 -17.390625 36.984375 -15.890625 L 50.5 -2.609375 C 51.375 -1.816406 51.671875 -1.179688 51.390625 -0.703125 C 51.117188 -0.234375 50.429688 0 49.328125 0 L 39.84375 0 C 39.125 0 38.566406 -0.316406 38.171875 -0.953125 C 37.703125 -1.972656 36.929688 -3.488281 35.859375 -5.5 C 34.796875 -7.519531 33.648438 -9.535156 32.421875 -11.546875 C 31.203125 -13.566406 30.117188 -15.015625 29.171875 -15.890625 C 27.898438 -17.078125 26.4375 -17.90625 24.78125 -18.375 C 23.125 -18.851562 21.539062 -19.128906 20.03125 -19.203125 C 19.238281 -19.203125 18.410156 -19.203125 17.546875 -19.203125 C 16.679688 -19.203125 15.8125 -19.203125 14.9375 -19.203125 C 15.414062 -14.304688 16.363281 -9.84375 17.78125 -5.8125 L 18.96875 -2.25 C 19.125 -2.09375 19.203125 -1.851562 19.203125 -1.53125 C 19.203125 -1.21875 19.203125 -0.945312 19.203125 -0.71875 Z M 14.703125 -24.546875 C 14.703125 -24.066406 14.703125 -23.570312 14.703125 -23.0625 C 14.703125 -22.550781 14.738281 -22.054688 14.8125 -21.578125 L 19.328125 -21.578125 C 26.117188 -21.660156 31.609375 -23.535156 35.796875 -27.203125 C 39.992188 -30.878906 42.128906 -36.195312 42.203125 -43.15625 C 42.285156 -47.738281 41.394531 -51.707031 39.53125 -55.0625 C 37.675781 -58.425781 35.085938 -60.976562 31.765625 -62.71875 C 28.453125 -64.457031 24.582031 -65.25 20.15625 -65.09375 C 19.050781 -65.09375 18.101562 -64.476562 17.3125 -63.25 C 16.519531 -62.03125 15.90625 -60.550781 15.46875 -58.8125 C 15.03125 -57.070312 14.773438 -55.367188 14.703125 -53.703125 Z M 14.703125 -24.546875 "/></g></g></g><g fill="#ffffff" fill-opacity="1"><g transform="translate(162.612391, 115.019866)"><g><path d="M 80.265625 -33.671875 C 80.265625 -26.710938 78.679688 -20.601562 75.515625 -15.34375 C 72.359375 -10.09375 67.914062 -6.003906 62.1875 -3.078125 C 56.457031 -0.160156 49.796875 1.296875 42.203125 1.296875 C 34.691406 1.296875 28.070312 -0.160156 22.34375 -3.078125 C 16.613281 -6.003906 12.148438 -10.09375 8.953125 -15.34375 C 5.753906 -20.601562 4.15625 -26.710938 4.15625 -33.671875 C 4.15625 -40.628906 5.753906 -46.753906 8.953125 -52.046875 C 12.148438 -57.347656 16.613281 -61.476562 22.34375 -64.4375 C 28.070312 -67.40625 34.691406 -68.890625 42.203125 -68.890625 C 49.796875 -68.890625 56.457031 -67.40625 62.1875 -64.4375 C 67.914062 -61.476562 72.359375 -57.367188 75.515625 -52.109375 C 78.679688 -46.847656 80.265625 -40.703125 80.265625 -33.671875 Z M 12.453125 -25.734375 C 14.742188 -18.066406 18.59375 -12.078125 24 -7.765625 C 29.414062 -3.453125 35.601562 -1.296875 42.5625 -1.296875 C 45.644531 -1.296875 48.648438 -1.691406 51.578125 -2.484375 C 57.503906 -4.066406 62.304688 -6.753906 65.984375 -10.546875 C 69.660156 -14.347656 72.050781 -18.9375 73.15625 -24.3125 C 74.257812 -29.6875 73.863281 -35.453125 71.96875 -41.609375 C 69.675781 -49.359375 65.820312 -55.382812 60.40625 -59.6875 C 54.988281 -64 48.804688 -66.15625 41.859375 -66.15625 C 38.773438 -66.15625 35.769531 -65.757812 32.84375 -64.96875 C 26.914062 -63.382812 22.113281 -60.675781 18.4375 -56.84375 C 14.757812 -53.007812 12.382812 -48.425781 11.3125 -43.09375 C 10.25 -37.757812 10.628906 -31.972656 12.453125 -25.734375 Z M 12.453125 -25.734375 "/></g></g></g><g fill="#ffffff" fill-opacity="1"><g transform="translate(247.027018, 115.019866)"><g><path d="M 19.203125 -0.71875 C 19.203125 -0.238281 18.925781 0 18.375 0 L 5.6875 0 C 5.0625 0 4.75 -0.273438 4.75 -0.828125 C 4.75 -1.304688 4.863281 -1.78125 5.09375 -2.25 L 6.28125 -5.6875 C 7.15625 -8.300781 7.867188 -11.207031 8.421875 -14.40625 C 8.972656 -17.601562 9.285156 -20.585938 9.359375 -23.359375 L 9.359375 -43.03125 C 9.359375 -45.882812 9.0625 -49.046875 8.46875 -52.515625 C 7.882812 -55.992188 7.117188 -59.078125 6.171875 -61.765625 L 4.984375 -65.203125 C 4.828125 -65.835938 4.75 -66.351562 4.75 -66.75 C 4.75 -67.226562 5.023438 -67.46875 5.578125 -67.46875 L 19.6875 -67.46875 C 19.914062 -67.46875 20.148438 -67.46875 20.390625 -67.46875 C 20.628906 -67.46875 20.828125 -67.46875 20.984375 -67.46875 C 26.671875 -67.46875 31.671875 -66.457031 35.984375 -64.4375 C 40.296875 -62.425781 43.65625 -59.597656 46.0625 -55.953125 C 48.46875 -52.316406 49.671875 -48.09375 49.671875 -43.28125 C 49.671875 -37.351562 47.851562 -32.332031 44.21875 -28.21875 C 40.582031 -24.101562 35.679688 -21.375 29.515625 -20.03125 C 30.460938 -19.957031 31.566406 -19.625 32.828125 -19.03125 C 34.097656 -18.4375 35.484375 -17.390625 36.984375 -15.890625 L 50.5 -2.609375 C 51.375 -1.816406 51.671875 -1.179688 51.390625 -0.703125 C 51.117188 -0.234375 50.429688 0 49.328125 0 L 39.84375 0 C 39.125 0 38.566406 -0.316406 38.171875 -0.953125 C 37.703125 -1.972656 36.929688 -3.488281 35.859375 -5.5 C 34.796875 -7.519531 33.648438 -9.535156 32.421875 -11.546875 C 31.203125 -13.566406 30.117188 -15.015625 29.171875 -15.890625 C 27.898438 -17.078125 26.4375 -17.90625 24.78125 -18.375 C 23.125 -18.851562 21.539062 -19.128906 20.03125 -19.203125 C 19.238281 -19.203125 18.410156 -19.203125 17.546875 -19.203125 C 16.679688 -19.203125 15.8125 -19.203125 14.9375 -19.203125 C 15.414062 -14.304688 16.363281 -9.84375 17.78125 -5.8125 L 18.96875 -2.25 C 19.125 -2.09375 19.203125 -1.851562 19.203125 -1.53125 C 19.203125 -1.21875 19.203125 -0.945312 19.203125 -0.71875 Z M 14.703125 -24.546875 C 14.703125 -24.066406 14.703125 -23.570312 14.703125 -23.0625 C 14.703125 -22.550781 14.738281 -22.054688 14.8125 -21.578125 L 19.328125 -21.578125 C 26.117188 -21.660156 31.609375 -23.535156 35.796875 -27.203125 C 39.992188 -30.878906 42.128906 -36.195312 42.203125 -43.15625 C 42.285156 -47.738281 41.394531 -51.707031 39.53125 -55.0625 C 37.675781 -58.425781 35.085938 -60.976562 31.765625 -62.71875 C 28.453125 -64.457031 24.582031 -65.25 20.15625 -65.09375 C 19.050781 -65.09375 18.101562 -64.476562 17.3125 -63.25 C 16.519531 -62.03125 15.90625 -60.550781 15.46875 -58.8125 C 15.03125 -57.070312 14.773438 -55.367188 14.703125 -53.703125 Z M 14.703125 -24.546875 "/></g></g></g><g fill="#ffffff" fill-opacity="1"><g transform="translate(302.15736, 115.019866)"><g><path d="M 14.34375 -0.71875 C 14.34375 -0.238281 14.066406 0 13.515625 0 L 3.796875 0 C 3.242188 0 2.96875 -0.273438 2.96875 -0.828125 C 2.96875 -1.304688 3.082031 -1.78125 3.3125 -2.25 L 4.859375 -6.046875 C 5.960938 -8.734375 7.066406 -11.734375 8.171875 -15.046875 C 9.285156 -18.367188 10.117188 -21.457031 10.671875 -24.3125 L 20.515625 -67.8125 C 20.515625 -68.289062 20.789062 -68.53125 21.34375 -68.53125 L 33.796875 -68.53125 C 34.503906 -68.53125 34.738281 -68.210938 34.5 -67.578125 L 33.078125 -62.484375 C 32.210938 -59.796875 31.78125 -56.734375 31.78125 -53.296875 C 31.78125 -49.859375 32.171875 -46.753906 32.953125 -43.984375 L 38.765625 -24.1875 C 39.554688 -21.414062 40.484375 -18.332031 41.546875 -14.9375 C 42.617188 -11.539062 43.628906 -8.457031 44.578125 -5.6875 L 45.765625 -2.25 C 45.921875 -1.613281 46 -1.101562 46 -0.71875 C 46 -0.238281 45.722656 0 45.171875 0 L 32.375 0 C 31.8125 0 31.53125 -0.273438 31.53125 -0.828125 C 31.53125 -1.304688 31.613281 -1.78125 31.78125 -2.25 L 32.953125 -5.6875 C 33.828125 -8.21875 34.320312 -11.0625 34.4375 -14.21875 C 34.5625 -17.382812 34.304688 -20.3125 33.671875 -23 L 12.6875 -23 C 12.207031 -20.3125 12.023438 -17.382812 12.140625 -14.21875 C 12.265625 -11.0625 12.644531 -8.179688 13.28125 -5.578125 L 14.109375 -2.25 C 14.265625 -1.613281 14.34375 -1.101562 14.34375 -0.71875 Z M 21.703125 -63.671875 L 13.046875 -24.890625 L 33.203125 -24.890625 L 27.625 -44.109375 C 26.832031 -46.867188 25.921875 -49.945312 24.890625 -53.34375 C 23.867188 -56.75 22.921875 -59.832031 22.046875 -62.59375 Z M 21.703125 -63.671875 "/></g></g></g></g></g><g clip-path="url(#b7522444bb)"><path fill="#ffffff" d="M 235.019531 239.5625 C 220.582031 242.21875 218.429688 244.375 215.773438 258.808594 C 213.113281 244.375 210.960938 242.21875 196.523438 239.5625 C 210.960938 236.90625 213.113281 234.75 215.773438 220.316406 C 218.429688 234.75 220.582031 236.90625 235.019531 239.5625 Z M 235.019531 239.5625 " fill-opacity="1" fill-rule="nonzero"/></g><g transform="matrix(1, 0, 0, 1, 101, 296)"><g clip-path="url(#022f5c29a9)"><g fill="#ffffff" fill-opacity="1"><g transform="translate(1.009266, 13.123046)"><g><path d="M 1.28125 -10.078125 L 4.515625 -10.078125 L 4.515625 -8.71875 L 2.96875 -8.71875 L 2.96875 1.28125 L 4.515625 1.28125 L 4.515625 2.640625 L 1.28125 2.640625 Z M 1.28125 -10.078125 "/></g></g></g><g fill="#ffffff" fill-opacity="1"><g transform="translate(6.397146, 13.123046)"><g/></g></g><g fill="#ffffff" fill-opacity="1"><g transform="translate(10.78074, 13.123046)"><g><path d="M 7.5 0 L 5.546875 -2.78125 C 5.472656 -2.769531 5.351562 -2.765625 5.1875 -2.765625 L 3.046875 -2.765625 L 3.046875 0 L 1.28125 0 L 1.28125 -9.5 L 5.1875 -9.5 C 6.007812 -9.5 6.722656 -9.363281 7.328125 -9.09375 C 7.941406 -8.820312 8.410156 -8.429688 8.734375 -7.921875 C 9.066406 -7.421875 9.234375 -6.820312 9.234375 -6.125 C 9.234375 -5.40625 9.054688 -4.785156 8.703125 -4.265625 C 8.359375 -3.753906 7.859375 -3.375 7.203125 -3.125 L 9.390625 0 Z M 7.453125 -6.125 C 7.453125 -6.726562 7.253906 -7.191406 6.859375 -7.515625 C 6.460938 -7.847656 5.878906 -8.015625 5.109375 -8.015625 L 3.046875 -8.015625 L 3.046875 -4.21875 L 5.109375 -4.21875 C 5.878906 -4.21875 6.460938 -4.382812 6.859375 -4.71875 C 7.253906 -5.050781 7.453125 -5.519531 7.453125 -6.125 Z M 7.453125 -6.125 "/></g></g></g><g fill="#ffffff" fill-opacity="1"><g transform="translate(21.339372, 13.123046)"><g><path d="M 8.40625 -1.484375 L 8.40625 0 L 1.28125 0 L 1.28125 -9.5 L 8.21875 -9.5 L 8.21875 -8.03125 L 3.046875 -8.03125 L 3.046875 -5.546875 L 7.625 -5.546875 L 7.625 -4.09375 L 3.046875 -4.09375 L 3.046875 -1.484375 Z M 8.40625 -1.484375 "/></g></g></g><g fill="#ffffff" fill-opacity="1"><g transform="translate(31.070136, 13.123046)"><g><path d="M 1.28125 -9.5 L 3.046875 -9.5 L 3.046875 -1.5 L 8.015625 -1.5 L 8.015625 0 L 1.28125 0 Z M 1.28125 -9.5 "/></g></g></g><g fill="#ffffff" fill-opacity="1"><g transform="translate(39.837324, 13.123046)"><g><path d="M 7.4375 -2.203125 L 2.6875 -2.203125 L 1.75 0 L -0.0625 0 L 4.203125 -9.5 L 5.953125 -9.5 L 10.234375 0 L 8.390625 0 Z M 6.859375 -3.578125 L 5.0625 -7.734375 L 3.28125 -3.578125 Z M 6.859375 -3.578125 "/></g></g></g><g fill="#ffffff" fill-opacity="1"><g transform="translate(50.640245, 13.123046)"><g><path d="M 7.265625 0 L 4.6875 -3.609375 L 2.125 0 L 0.125 0 L 3.65625 -4.84375 L 0.3125 -9.5 L 2.3125 -9.5 L 4.734375 -6.125 L 7.140625 -9.5 L 9.0625 -9.5 L 5.734375 -4.921875 L 9.296875 0 Z M 7.265625 0 "/></g></g></g><g fill="#ffffff" fill-opacity="1"><g transform="translate(60.683154, 13.123046)"><g/></g></g><g fill="#ffffff" fill-opacity="1"><g transform="translate(65.066747, 13.123046)"><g><path d="M 8.40625 0.15625 L 7.203125 -1 C 6.316406 -0.238281 5.253906 0.140625 4.015625 0.140625 C 3.359375 0.140625 2.765625 0.03125 2.234375 -0.1875 C 1.710938 -0.40625 1.300781 -0.707031 1 -1.09375 C 0.707031 -1.476562 0.5625 -1.914062 0.5625 -2.40625 C 0.5625 -2.988281 0.734375 -3.503906 1.078125 -3.953125 C 1.421875 -4.398438 1.976562 -4.84375 2.75 -5.28125 C 2.375 -5.664062 2.101562 -6.019531 1.9375 -6.34375 C 1.78125 -6.675781 1.703125 -7.019531 1.703125 -7.375 C 1.703125 -8.039062 1.953125 -8.578125 2.453125 -8.984375 C 2.953125 -9.398438 3.617188 -9.609375 4.453125 -9.609375 C 5.222656 -9.609375 5.835938 -9.421875 6.296875 -9.046875 C 6.765625 -8.671875 7 -8.160156 7 -7.515625 C 7 -7.035156 6.84375 -6.601562 6.53125 -6.21875 C 6.226562 -5.84375 5.734375 -5.457031 5.046875 -5.0625 L 7.09375 -3.109375 C 7.320312 -3.554688 7.5 -4.09375 7.625 -4.71875 L 9 -4.265625 C 8.820312 -3.421875 8.535156 -2.695312 8.140625 -2.09375 L 9.34375 -0.953125 Z M 4.453125 -8.40625 C 4.078125 -8.40625 3.78125 -8.3125 3.5625 -8.125 C 3.351562 -7.9375 3.25 -7.695312 3.25 -7.40625 C 3.25 -7.1875 3.304688 -6.976562 3.421875 -6.78125 C 3.535156 -6.582031 3.757812 -6.316406 4.09375 -5.984375 C 4.644531 -6.285156 5.023438 -6.546875 5.234375 -6.765625 C 5.441406 -6.984375 5.546875 -7.226562 5.546875 -7.5 C 5.546875 -7.78125 5.445312 -8 5.25 -8.15625 C 5.0625 -8.320312 4.796875 -8.40625 4.453125 -8.40625 Z M 4.140625 -1.25 C 4.929688 -1.25 5.617188 -1.488281 6.203125 -1.96875 L 3.6875 -4.375 C 3.144531 -4.070312 2.765625 -3.78125 2.546875 -3.5 C 2.328125 -3.226562 2.21875 -2.921875 2.21875 -2.578125 C 2.21875 -2.179688 2.390625 -1.859375 2.734375 -1.609375 C 3.085938 -1.367188 3.554688 -1.25 4.140625 -1.25 Z M 4.140625 -1.25 "/></g></g></g><g fill="#ffffff" fill-opacity="1"><g transform="translate(75.28609, 13.123046)"><g/></g></g><g fill="#ffffff" fill-opacity="1"><g transform="translate(79.669684, 13.123046)"><g><path d="M 15.171875 -9.5 L 12.015625 0 L 10.140625 0 L 7.796875 -7.03125 L 5.40625 0 L 3.515625 0 L 0.359375 -9.5 L 2.203125 -9.5 L 4.5625 -2.28125 L 7.015625 -9.5 L 8.65625 -9.5 L 11.046875 -2.234375 L 13.484375 -9.5 Z M 15.171875 -9.5 "/></g></g></g><g fill="#ffffff" fill-opacity="1"><g transform="translate(95.833357, 13.123046)"><g><path d="M 8.40625 -1.484375 L 8.40625 0 L 1.28125 0 L 1.28125 -9.5 L 8.21875 -9.5 L 8.21875 -8.03125 L 3.046875 -8.03125 L 3.046875 -5.546875 L 7.625 -5.546875 L 7.625 -4.09375 L 3.046875 -4.09375 L 3.046875 -1.484375 Z M 8.40625 -1.484375 "/></g></g></g><g fill="#ffffff" fill-opacity="1"><g transform="translate(105.564122, 13.123046)"><g><path d="M 1.28125 -9.5 L 3.046875 -9.5 L 3.046875 -1.5 L 8.015625 -1.5 L 8.015625 0 L 1.28125 0 Z M 1.28125 -9.5 "/></g></g></g><g fill="#ffffff" fill-opacity="1"><g transform="translate(114.33131, 13.123046)"><g><path d="M 1.28125 -9.5 L 3.046875 -9.5 L 3.046875 -1.5 L 8.015625 -1.5 L 8.015625 0 L 1.28125 0 Z M 1.28125 -9.5 "/></g></g></g><g fill="#ffffff" fill-opacity="1"><g transform="translate(123.098497, 13.123046)"><g><path d="M 9.71875 -9.5 L 9.71875 0 L 8.265625 0 L 3.03125 -6.4375 L 3.03125 0 L 1.28125 0 L 1.28125 -9.5 L 2.734375 -9.5 L 7.96875 -3.0625 L 7.96875 -9.5 Z M 9.71875 -9.5 "/></g></g></g><g fill="#ffffff" fill-opacity="1"><g transform="translate(134.729269, 13.123046)"><g><path d="M 8.40625 -1.484375 L 8.40625 0 L 1.28125 0 L 1.28125 -9.5 L 8.21875 -9.5 L 8.21875 -8.03125 L 3.046875 -8.03125 L 3.046875 -5.546875 L 7.625 -5.546875 L 7.625 -4.09375 L 3.046875 -4.09375 L 3.046875 -1.484375 Z M 8.40625 -1.484375 "/></g></g></g><g fill="#ffffff" fill-opacity="1"><g transform="translate(144.460034, 13.123046)"><g><path d="M 4.21875 0.140625 C 3.488281 0.140625 2.78125 0.0351562 2.09375 -0.171875 C 1.414062 -0.378906 0.875 -0.65625 0.46875 -1 L 1.09375 -2.375 C 1.476562 -2.070312 1.953125 -1.820312 2.515625 -1.625 C 3.085938 -1.425781 3.65625 -1.328125 4.21875 -1.328125 C 4.925781 -1.328125 5.453125 -1.441406 5.796875 -1.671875 C 6.148438 -1.898438 6.328125 -2.195312 6.328125 -2.5625 C 6.328125 -2.832031 6.226562 -3.054688 6.03125 -3.234375 C 5.84375 -3.410156 5.597656 -3.546875 5.296875 -3.640625 C 4.992188 -3.742188 4.585938 -3.859375 4.078125 -3.984375 C 3.347656 -4.160156 2.757812 -4.332031 2.3125 -4.5 C 1.863281 -4.675781 1.476562 -4.945312 1.15625 -5.3125 C 0.832031 -5.675781 0.671875 -6.171875 0.671875 -6.796875 C 0.671875 -7.328125 0.8125 -7.804688 1.09375 -8.234375 C 1.382812 -8.660156 1.816406 -9 2.390625 -9.25 C 2.972656 -9.507812 3.679688 -9.640625 4.515625 -9.640625 C 5.085938 -9.640625 5.65625 -9.566406 6.21875 -9.421875 C 6.78125 -9.273438 7.265625 -9.066406 7.671875 -8.796875 L 7.109375 -7.421875 C 6.691406 -7.671875 6.253906 -7.859375 5.796875 -7.984375 C 5.347656 -8.109375 4.914062 -8.171875 4.5 -8.171875 C 3.800781 -8.171875 3.28125 -8.050781 2.9375 -7.8125 C 2.601562 -7.582031 2.4375 -7.273438 2.4375 -6.890625 C 2.4375 -6.617188 2.53125 -6.394531 2.71875 -6.21875 C 2.914062 -6.039062 3.160156 -5.898438 3.453125 -5.796875 C 3.753906 -5.703125 4.164062 -5.59375 4.6875 -5.46875 C 5.394531 -5.3125 5.972656 -5.144531 6.421875 -4.96875 C 6.867188 -4.789062 7.253906 -4.519531 7.578125 -4.15625 C 7.898438 -3.789062 8.0625 -3.300781 8.0625 -2.6875 C 8.0625 -2.164062 7.914062 -1.691406 7.625 -1.265625 C 7.34375 -0.835938 6.910156 -0.492188 6.328125 -0.234375 C 5.753906 0.015625 5.050781 0.140625 4.21875 0.140625 Z M 4.21875 0.140625 "/></g></g></g><g fill="#ffffff" fill-opacity="1"><g transform="translate(153.634365, 13.123046)"><g><path d="M 4.21875 0.140625 C 3.488281 0.140625 2.78125 0.0351562 2.09375 -0.171875 C 1.414062 -0.378906 0.875 -0.65625 0.46875 -1 L 1.09375 -2.375 C 1.476562 -2.070312 1.953125 -1.820312 2.515625 -1.625 C 3.085938 -1.425781 3.65625 -1.328125 4.21875 -1.328125 C 4.925781 -1.328125 5.453125 -1.441406 5.796875 -1.671875 C 6.148438 -1.898438 6.328125 -2.195312 6.328125 -2.5625 C 6.328125 -2.832031 6.226562 -3.054688 6.03125 -3.234375 C 5.84375 -3.410156 5.597656 -3.546875 5.296875 -3.640625 C 4.992188 -3.742188 4.585938 -3.859375 4.078125 -3.984375 C 3.347656 -4.160156 2.757812 -4.332031 2.3125 -4.5 C 1.863281 -4.675781 1.476562 -4.945312 1.15625 -5.3125 C 0.832031 -5.675781 0.671875 -6.171875 0.671875 -6.796875 C 0.671875 -7.328125 0.8125 -7.804688 1.09375 -8.234375 C 1.382812 -8.660156 1.816406 -9 2.390625 -9.25 C 2.972656 -9.507812 3.679688 -9.640625 4.515625 -9.640625 C 5.085938 -9.640625 5.65625 -9.566406 6.21875 -9.421875 C 6.78125 -9.273438 7.265625 -9.066406 7.671875 -8.796875 L 7.109375 -7.421875 C 6.691406 -7.671875 6.253906 -7.859375 5.796875 -7.984375 C 5.347656 -8.109375 4.914062 -8.171875 4.5 -8.171875 C 3.800781 -8.171875 3.28125 -8.050781 2.9375 -7.8125 C 2.601562 -7.582031 2.4375 -7.273438 2.4375 -6.890625 C 2.4375 -6.617188 2.53125 -6.394531 2.71875 -6.21875 C 2.914062 -6.039062 3.160156 -5.898438 3.453125 -5.796875 C 3.753906 -5.703125 4.164062 -5.59375 4.6875 -5.46875 C 5.394531 -5.3125 5.972656 -5.144531 6.421875 -4.96875 C 6.867188 -4.789062 7.253906 -4.519531 7.578125 -4.15625 C 7.898438 -3.789062 8.0625 -3.300781 8.0625 -2.6875 C 8.0625 -2.164062 7.914062 -1.691406 7.625 -1.265625 C 7.34375 -0.835938 6.910156 -0.492188 6.328125 -0.234375 C 5.753906 0.015625 5.050781 0.140625 4.21875 0.140625 Z M 4.21875 0.140625 "/></g></g></g><g fill="#ffffff" fill-opacity="1"><g transform="translate(162.808696, 13.123046)"><g/></g></g><g fill="#ffffff" fill-opacity="1"><g transform="translate(167.19229, 13.123046)"><g><path d="M 0.234375 2.640625 L 0.234375 1.28125 L 1.765625 1.28125 L 1.765625 -8.71875 L 0.234375 -8.71875 L 0.234375 -10.078125 L 3.46875 -10.078125 L 3.46875 2.640625 Z M 0.234375 2.640625 "/></g></g></g></g></g><g transform="matrix(1, 0, 0, 1, 155, 318)"><g clip-path="url(#a003bc6e02)"><g fill="#ffffff" fill-opacity="1"><g transform="translate(0.447624, 11.332898)"><g><path d="M 7.46875 -1.3125 L 7.46875 0 L 1.140625 0 L 1.140625 -8.4375 L 7.296875 -8.4375 L 7.296875 -7.125 L 2.703125 -7.125 L 2.703125 -4.9375 L 6.78125 -4.9375 L 6.78125 -3.640625 L 2.703125 -3.640625 L 2.703125 -1.3125 Z M 7.46875 -1.3125 "/></g></g></g><g fill="#ffffff" fill-opacity="1"><g transform="translate(9.097381, 11.332898)"><g><path d="M 3.75 0.125 C 3.101562 0.125 2.472656 0.03125 1.859375 -0.15625 C 1.253906 -0.34375 0.773438 -0.585938 0.421875 -0.890625 L 0.96875 -2.109375 C 1.3125 -1.835938 1.734375 -1.613281 2.234375 -1.4375 C 2.734375 -1.269531 3.238281 -1.1875 3.75 -1.1875 C 4.375 -1.1875 4.84375 -1.285156 5.15625 -1.484375 C 5.46875 -1.679688 5.625 -1.945312 5.625 -2.28125 C 5.625 -2.519531 5.535156 -2.71875 5.359375 -2.875 C 5.191406 -3.03125 4.972656 -3.148438 4.703125 -3.234375 C 4.441406 -3.328125 4.082031 -3.429688 3.625 -3.546875 C 2.976562 -3.703125 2.453125 -3.851562 2.046875 -4 C 1.648438 -4.15625 1.3125 -4.394531 1.03125 -4.71875 C 0.75 -5.050781 0.609375 -5.492188 0.609375 -6.046875 C 0.609375 -6.515625 0.734375 -6.9375 0.984375 -7.3125 C 1.234375 -7.695312 1.613281 -8 2.125 -8.21875 C 2.632812 -8.445312 3.257812 -8.5625 4 -8.5625 C 4.519531 -8.5625 5.023438 -8.492188 5.515625 -8.359375 C 6.015625 -8.234375 6.445312 -8.050781 6.8125 -7.8125 L 6.328125 -6.59375 C 5.953125 -6.8125 5.5625 -6.976562 5.15625 -7.09375 C 4.757812 -7.207031 4.375 -7.265625 4 -7.265625 C 3.375 -7.265625 2.910156 -7.160156 2.609375 -6.953125 C 2.304688 -6.742188 2.15625 -6.460938 2.15625 -6.109375 C 2.15625 -5.867188 2.238281 -5.671875 2.40625 -5.515625 C 2.582031 -5.367188 2.800781 -5.25 3.0625 -5.15625 C 3.332031 -5.070312 3.695312 -4.972656 4.15625 -4.859375 C 4.789062 -4.710938 5.304688 -4.5625 5.703125 -4.40625 C 6.109375 -4.25 6.453125 -4.007812 6.734375 -3.6875 C 7.023438 -3.363281 7.171875 -2.929688 7.171875 -2.390625 C 7.171875 -1.921875 7.039062 -1.5 6.78125 -1.125 C 6.53125 -0.75 6.144531 -0.445312 5.625 -0.21875 C 5.113281 0.0078125 4.488281 0.125 3.75 0.125 Z M 3.75 0.125 "/></g></g></g><g fill="#ffffff" fill-opacity="1"><g transform="translate(17.252521, 11.332898)"><g><path d="M 2.84375 -7.109375 L 0.046875 -7.109375 L 0.046875 -8.4375 L 7.21875 -8.4375 L 7.21875 -7.109375 L 4.421875 -7.109375 L 4.421875 0 L 2.84375 0 Z M 2.84375 -7.109375 "/></g></g></g><g fill="#ffffff" fill-opacity="1"><g transform="translate(25.081934, 11.332898)"><g><path d="M 1.46875 0.078125 C 1.195312 0.078125 0.960938 -0.015625 0.765625 -0.203125 C 0.578125 -0.390625 0.484375 -0.628906 0.484375 -0.921875 C 0.484375 -1.210938 0.578125 -1.453125 0.765625 -1.640625 C 0.953125 -1.828125 1.1875 -1.921875 1.46875 -1.921875 C 1.75 -1.921875 1.984375 -1.828125 2.171875 -1.640625 C 2.359375 -1.453125 2.453125 -1.210938 2.453125 -0.921875 C 2.453125 -0.628906 2.351562 -0.390625 2.15625 -0.203125 C 1.96875 -0.015625 1.738281 0.078125 1.46875 0.078125 Z M 1.46875 0.078125 "/></g></g></g><g fill="#ffffff" fill-opacity="1"><g transform="translate(28.592504, 11.332898)"><g/></g></g><g fill="#ffffff" fill-opacity="1"><g transform="translate(32.489118, 11.332898)"><g><path d="M 6.640625 -1.328125 L 6.640625 0 L 0.421875 0 L 0.421875 -1.046875 L 3.78125 -4.234375 C 4.15625 -4.597656 4.40625 -4.910156 4.53125 -5.171875 C 4.664062 -5.441406 4.734375 -5.710938 4.734375 -5.984375 C 4.734375 -6.378906 4.597656 -6.679688 4.328125 -6.890625 C 4.066406 -7.097656 3.679688 -7.203125 3.171875 -7.203125 C 2.304688 -7.203125 1.644531 -6.910156 1.1875 -6.328125 L 0.09375 -7.171875 C 0.425781 -7.609375 0.867188 -7.945312 1.421875 -8.1875 C 1.984375 -8.4375 2.613281 -8.5625 3.3125 -8.5625 C 4.226562 -8.5625 4.957031 -8.34375 5.5 -7.90625 C 6.050781 -7.476562 6.328125 -6.890625 6.328125 -6.140625 C 6.328125 -5.679688 6.226562 -5.25 6.03125 -4.84375 C 5.832031 -4.445312 5.460938 -3.988281 4.921875 -3.46875 L 2.671875 -1.328125 Z M 6.640625 -1.328125 "/></g></g></g><g fill="#ffffff" fill-opacity="1"><g transform="translate(40.077265, 11.332898)"><g><path d="M 4.046875 0.125 C 3.378906 0.125 2.78125 -0.046875 2.25 -0.390625 C 1.71875 -0.734375 1.296875 -1.234375 0.984375 -1.890625 C 0.679688 -2.546875 0.53125 -3.320312 0.53125 -4.21875 C 0.53125 -5.125 0.679688 -5.90625 0.984375 -6.5625 C 1.296875 -7.21875 1.71875 -7.710938 2.25 -8.046875 C 2.78125 -8.390625 3.378906 -8.5625 4.046875 -8.5625 C 4.722656 -8.5625 5.328125 -8.390625 5.859375 -8.046875 C 6.398438 -7.710938 6.820312 -7.21875 7.125 -6.5625 C 7.4375 -5.90625 7.59375 -5.125 7.59375 -4.21875 C 7.59375 -3.320312 7.4375 -2.546875 7.125 -1.890625 C 6.820312 -1.234375 6.398438 -0.734375 5.859375 -0.390625 C 5.328125 -0.046875 4.722656 0.125 4.046875 0.125 Z M 4.046875 -1.25 C 4.648438 -1.25 5.125 -1.492188 5.46875 -1.984375 C 5.820312 -2.484375 6 -3.226562 6 -4.21875 C 6 -5.207031 5.820312 -5.953125 5.46875 -6.453125 C 5.125 -6.953125 4.648438 -7.203125 4.046875 -7.203125 C 3.453125 -7.203125 2.976562 -6.953125 2.625 -6.453125 C 2.28125 -5.953125 2.109375 -5.207031 2.109375 -4.21875 C 2.109375 -3.226562 2.28125 -2.484375 2.625 -1.984375 C 2.976562 -1.492188 3.453125 -1.25 4.046875 -1.25 Z M 4.046875 -1.25 "/></g></g></g><g fill="#ffffff" fill-opacity="1"><g transform="translate(48.76321, 11.332898)"><g><path d="M 6.640625 -1.328125 L 6.640625 0 L 0.421875 0 L 0.421875 -1.046875 L 3.78125 -4.234375 C 4.15625 -4.597656 4.40625 -4.910156 4.53125 -5.171875 C 4.664062 -5.441406 4.734375 -5.710938 4.734375 -5.984375 C 4.734375 -6.378906 4.597656 -6.679688 4.328125 -6.890625 C 4.066406 -7.097656 3.679688 -7.203125 3.171875 -7.203125 C 2.304688 -7.203125 1.644531 -6.910156 1.1875 -6.328125 L 0.09375 -7.171875 C 0.425781 -7.609375 0.867188 -7.945312 1.421875 -8.1875 C 1.984375 -8.4375 2.613281 -8.5625 3.3125 -8.5625 C 4.226562 -8.5625 4.957031 -8.34375 5.5 -7.90625 C 6.050781 -7.476562 6.328125 -6.890625 6.328125 -6.140625 C 6.328125 -5.679688 6.226562 -5.25 6.03125 -4.84375 C 5.832031 -4.445312 5.460938 -3.988281 4.921875 -3.46875 L 2.671875 -1.328125 Z M 6.640625 -1.328125 "/></g></g></g><g fill="#ffffff" fill-opacity="1"><g transform="translate(56.351358, 11.332898)"><g><path d="M 8.0625 -1.921875 L 6.5625 -1.921875 L 6.5625 0 L 5.046875 0 L 5.046875 -1.921875 L 0.40625 -1.921875 L 0.40625 -3 L 4.578125 -8.4375 L 6.25 -8.4375 L 2.328125 -3.25 L 5.09375 -3.25 L 5.09375 -4.953125 L 6.5625 -4.953125 L 6.5625 -3.25 L 8.0625 -3.25 Z M 8.0625 -1.921875 "/></g></g></g></g></g><g clip-path="url(#b6f757db95)"><path fill="#ffffff" d="M 185.234375 138.011719 C 186.0625 142.328125 186.496094 146.679688 186.527344 151.070312 C 185.453125 146.851562 184.222656 142.71875 182.699219 138.730469 C 182.34375 137.726562 181.910156 136.753906 181.511719 135.769531 L 181.363281 135.402344 L 181.199219 135.039062 L 180.871094 134.316406 L 180.546875 133.589844 C 180.441406 133.351562 180.335938 133.109375 180.214844 132.875 C 179.742188 131.925781 179.308594 130.972656 178.796875 130.050781 L 178.425781 129.355469 C 178.304688 129.125 178.1875 128.890625 178.050781 128.664062 L 177.273438 127.304688 C 176.203125 125.511719 175.089844 123.75 173.863281 122.085938 L 173.410156 121.453125 L 172.9375 120.832031 L 172.46875 120.21875 C 172.308594 120.015625 172.15625 119.808594 171.988281 119.613281 L 171.007812 118.421875 C 170.847656 118.222656 170.671875 118.03125 170.503906 117.839844 L 169.996094 117.261719 C 167.269531 114.207031 164.265625 111.457031 160.980469 109.011719 C 159.347656 107.804688 157.660156 106.679688 155.917969 105.632812 C 154.179688 104.582031 152.390625 103.621094 150.5625 102.734375 C 148.734375 101.847656 146.859375 101.050781 144.957031 100.320312 C 144.484375 100.132812 144.003906 99.96875 143.523438 99.789062 C 143.046875 99.613281 142.5625 99.453125 142.082031 99.289062 C 141.601562 99.121094 141.113281 98.964844 140.628906 98.8125 C 140.140625 98.65625 139.652344 98.507812 139.164062 98.367188 C 137.203125 97.792969 135.226562 97.277344 133.226562 96.847656 C 131.230469 96.414062 129.210938 96.046875 127.1875 95.75 C 125.800781 95.542969 124.410156 95.375 123.015625 95.238281 C 123.234375 95.675781 123.453125 96.117188 123.664062 96.5625 C 123.902344 97.058594 124.148438 97.550781 124.382812 98.050781 L 125.070312 99.554688 C 125.304688 100.054688 125.511719 100.570312 125.738281 101.078125 C 125.964844 101.585938 126.179688 102.09375 126.390625 102.613281 C 126.597656 103.132812 126.8125 103.640625 127.019531 104.160156 L 127.613281 105.730469 C 128.382812 107.832031 129.085938 109.976562 129.679688 112.140625 C 129.832031 112.679688 129.96875 113.222656 130.113281 113.761719 C 130.257812 114.300781 130.386719 114.839844 130.511719 115.378906 C 130.640625 115.914062 130.761719 116.453125 130.878906 116.976562 L 131.222656 118.554688 C 131.679688 120.640625 132.101562 122.59375 132.636719 124.464844 C 132.914062 125.394531 133.1875 126.320312 133.527344 127.222656 C 133.609375 127.449219 133.6875 127.679688 133.773438 127.90625 L 134.039062 128.578125 C 134.210938 129.03125 134.414062 129.476562 134.605469 129.925781 C 135.414062 131.75 136.316406 133.527344 137.304688 135.257812 L 137.550781 135.691406 C 137.617188 135.691406 137.683594 135.691406 137.746094 135.699219 L 139.460938 135.804688 L 141.167969 135.964844 L 141.589844 136.007812 L 142.015625 136.0625 L 143.710938 136.289062 C 143.992188 136.332031 144.273438 136.382812 144.554688 136.429688 C 146.796875 136.796875 149.007812 137.296875 151.191406 137.929688 C 153.371094 138.539062 155.492188 139.3125 157.570312 140.152344 L 159.113281 140.8125 C 159.375 140.917969 159.625 141.039062 159.878906 141.160156 L 160.636719 141.515625 C 161.652344 141.980469 162.632812 142.507812 163.621094 143.019531 C 163.867188 143.144531 164.105469 143.285156 164.347656 143.425781 L 165.792969 144.253906 L 166.152344 144.460938 L 166.507812 144.679688 C 167.445312 145.269531 168.390625 145.839844 169.292969 146.472656 C 172.929688 148.9375 176.3125 151.710938 179.441406 154.796875 C 175.699219 152.566406 171.90625 150.515625 168.011719 148.769531 C 167.050781 148.316406 166.054688 147.929688 165.082031 147.519531 L 164.714844 147.363281 L 164.339844 147.222656 L 163.597656 146.941406 L 162.859375 146.660156 C 162.609375 146.566406 162.363281 146.46875 162.113281 146.386719 C 161.113281 146.054688 160.125 145.683594 159.117188 145.394531 L 158.363281 145.164062 C 158.113281 145.085938 157.863281 145.007812 157.609375 144.941406 L 156.09375 144.53125 C 154.070312 144.019531 152.042969 143.558594 149.996094 143.25 L 149.230469 143.125 L 148.460938 143.023438 L 147.695312 142.925781 C 147.4375 142.890625 147.183594 142.851562 146.929688 142.835938 L 145.390625 142.6875 C 145.136719 142.660156 144.878906 142.648438 144.625 142.632812 L 143.855469 142.585938 C 143.371094 142.554688 142.886719 142.53125 142.402344 142.515625 C 139.511719 142.417969 136.628906 142.53125 133.753906 142.855469 C 133.050781 142.933594 132.347656 143.019531 131.648438 143.121094 C 129.640625 143.421875 127.652344 143.820312 125.675781 144.3125 C 123.707031 144.800781 121.761719 145.386719 119.839844 146.050781 C 117.921875 146.714844 116.03125 147.480469 114.171875 148.304688 C 113.703125 148.507812 113.246094 148.730469 112.78125 148.945312 C 112.320312 149.160156 111.867188 149.386719 111.40625 149.609375 C 110.949219 149.835938 110.496094 150.066406 110.042969 150.300781 C 109.589844 150.535156 109.140625 150.777344 108.691406 151.019531 C 106.898438 152 105.136719 153.035156 103.414062 154.144531 C 101.695312 155.257812 100.007812 156.417969 98.367188 157.640625 C 97.238281 158.476562 96.136719 159.339844 95.054688 160.230469 C 95.519531 160.382812 95.984375 160.542969 96.449219 160.707031 C 96.96875 160.886719 97.488281 161.058594 98.007812 161.25 L 99.5625 161.832031 C 100.082031 162.019531 100.59375 162.230469 101.113281 162.433594 C 101.628906 162.636719 102.144531 162.835938 102.65625 163.058594 C 103.167969 163.277344 103.683594 163.488281 104.195312 163.710938 L 105.722656 164.398438 C 107.757812 165.335938 109.769531 166.359375 111.722656 167.46875 C 112.210938 167.742188 112.6875 168.027344 113.171875 168.308594 C 113.65625 168.589844 114.128906 168.878906 114.597656 169.167969 C 115.066406 169.457031 115.53125 169.75 115.984375 170.042969 L 117.34375 170.910156 C 119.144531 172.0625 120.820312 173.148438 122.523438 174.09375 C 123.378906 174.554688 124.226562 175.015625 125.105469 175.414062 C 125.324219 175.515625 125.539062 175.625 125.761719 175.71875 L 126.429688 176.007812 C 126.871094 176.207031 127.328125 176.378906 127.78125 176.5625 C 129.640625 177.277344 131.535156 177.898438 133.460938 178.421875 L 134.191406 178.625 L 134.933594 178.8125 L 135.675781 179.003906 L 136.046875 179.097656 C 136.171875 179.128906 136.277344 179.152344 136.394531 179.179688 C 137.316406 179.402344 138.25 179.574219 139.191406 179.699219 C 140.140625 179.832031 141.09375 179.917969 142.054688 179.953125 C 142.539062 179.976562 143.019531 179.980469 143.507812 179.988281 L 144.238281 179.980469 C 144.480469 179.980469 144.726562 179.960938 144.96875 179.953125 L 145.335938 179.941406 L 145.703125 179.914062 C 145.949219 179.898438 146.195312 179.886719 146.4375 179.863281 L 147.175781 179.796875 L 147.914062 179.714844 C 148.898438 179.59375 149.882812 179.4375 150.871094 179.253906 C 152.859375 178.867188 154.824219 178.367188 156.757812 177.75 C 158.707031 177.136719 160.640625 176.410156 162.550781 175.601562 C 164.464844 174.792969 166.351562 173.898438 168.214844 172.929688 C 170.074219 171.960938 171.921875 170.933594 173.726562 169.828125 C 174.636719 169.285156 175.53125 168.710938 176.421875 168.132812 C 176.871094 167.84375 177.3125 167.546875 177.753906 167.246094 C 178.191406 166.945312 178.628906 166.640625 179.066406 166.328125 C 178.378906 167.152344 177.648438 167.9375 176.894531 168.707031 C 176.140625 169.476562 175.367188 170.222656 174.578125 170.957031 C 172.992188 172.417969 171.339844 173.816406 169.617188 175.132812 C 167.898438 176.453125 166.105469 177.703125 164.242188 178.855469 C 162.371094 180.019531 160.441406 181.078125 158.453125 182.027344 C 156.433594 182.992188 154.359375 183.816406 152.230469 184.507812 C 150.058594 185.210938 147.84375 185.734375 145.585938 186.082031 C 144.449219 186.257812 143.296875 186.382812 142.128906 186.449219 C 140.964844 186.511719 139.796875 186.535156 138.625 186.484375 C 137.441406 186.441406 136.265625 186.332031 135.097656 186.164062 C 134.953125 186.140625 134.796875 186.121094 134.664062 186.101562 L 133.433594 185.902344 L 132.613281 185.761719 L 131.792969 185.605469 C 131.246094 185.5 130.695312 185.402344 130.148438 185.273438 L 129.324219 185.097656 L 128.914062 185.007812 L 128.5 184.90625 L 127.675781 184.699219 C 127.398438 184.628906 127.125 184.5625 126.851562 184.480469 L 126.027344 184.246094 L 125.613281 184.128906 C 125.476562 184.089844 125.339844 184.039062 125.203125 184 C 122.984375 183.3125 120.828125 182.46875 118.734375 181.46875 C 116.660156 180.460938 114.691406 179.351562 112.863281 178.289062 L 111.492188 177.507812 C 111.039062 177.242188 110.59375 176.996094 110.144531 176.746094 L 108.808594 176.007812 C 108.363281 175.773438 107.921875 175.53125 107.46875 175.300781 C 105.683594 174.382812 103.875 173.527344 102.019531 172.742188 C 100.167969 171.953125 98.273438 171.226562 96.351562 170.539062 L 94.90625 170.03125 C 94.421875 169.863281 93.929688 169.707031 93.445312 169.542969 C 92.476562 169.214844 91.488281 168.914062 90.507812 168.605469 C 89.527344 168.296875 88.527344 168.011719 87.539062 167.710938 L 84.546875 166.867188 L 77.085938 164.773438 L 82.339844 159.160156 L 82.53125 158.957031 L 82.695312 158.777344 L 83.015625 158.453125 C 83.230469 158.238281 83.4375 158.03125 83.648438 157.824219 C 84.070312 157.417969 84.488281 157.019531 84.914062 156.625 C 85.761719 155.839844 86.617188 155.085938 87.488281 154.34375 C 88.359375 153.605469 89.25 152.890625 90.148438 152.191406 C 91.046875 151.496094 91.957031 150.808594 92.882812 150.144531 C 94.734375 148.824219 96.628906 147.5625 98.578125 146.390625 C 100.53125 145.214844 102.523438 144.109375 104.570312 143.097656 C 105.082031 142.847656 105.59375 142.59375 106.113281 142.355469 C 106.632812 142.117188 107.144531 141.867188 107.667969 141.648438 C 108.195312 141.425781 108.714844 141.183594 109.242188 140.96875 C 109.773438 140.753906 110.296875 140.527344 110.835938 140.328125 C 112.964844 139.492188 115.132812 138.761719 117.34375 138.128906 C 121.152344 137.042969 125.03125 136.304688 128.972656 135.914062 L 128.789062 135.609375 C 128.644531 135.363281 128.496094 135.121094 128.359375 134.871094 L 127.941406 134.121094 L 127.734375 133.746094 C 127.664062 133.621094 127.601562 133.492188 127.535156 133.363281 C 126.453125 131.308594 125.523438 129.1875 124.75 127 C 123.992188 124.820312 123.386719 122.644531 122.84375 120.597656 L 122.429688 119.074219 C 122.292969 118.566406 122.152344 118.082031 122.011719 117.585938 L 121.589844 116.117188 C 121.4375 115.636719 121.296875 115.152344 121.144531 114.675781 C 120.523438 112.761719 119.851562 110.878906 119.101562 109.011719 C 118.347656 107.144531 117.523438 105.289062 116.648438 103.449219 L 115.984375 102.070312 C 115.765625 101.605469 115.527344 101.148438 115.300781 100.691406 C 114.851562 99.769531 114.363281 98.863281 113.882812 97.945312 C 113.40625 97.027344 112.910156 96.125 112.417969 95.214844 L 110.898438 92.5 L 107.109375 85.730469 L 114.789062 85.484375 L 115.070312 85.476562 L 115.308594 85.472656 L 115.765625 85.464844 C 116.066406 85.464844 116.363281 85.464844 116.652344 85.464844 C 117.238281 85.476562 117.820312 85.492188 118.394531 85.511719 C 119.546875 85.558594 120.691406 85.628906 121.832031 85.722656 C 122.96875 85.816406 124.105469 85.9375 125.234375 86.078125 C 126.363281 86.21875 127.488281 86.378906 128.613281 86.5625 C 130.855469 86.941406 133.089844 87.386719 135.300781 87.9375 C 137.507812 88.484375 139.699219 89.113281 141.859375 89.847656 C 142.402344 90.03125 142.941406 90.210938 143.476562 90.410156 C 144.011719 90.609375 144.550781 90.796875 145.082031 91.007812 C 145.613281 91.21875 146.144531 91.417969 146.675781 91.640625 C 147.207031 91.867188 147.734375 92.074219 148.253906 92.3125 C 150.351562 93.226562 152.402344 94.242188 154.410156 95.359375 C 158.433594 97.597656 162.183594 100.230469 165.65625 103.257812 C 167.375 104.773438 169.007812 106.378906 170.554688 108.074219 L 171.691406 109.359375 L 172.78125 110.679688 L 173.054688 111.007812 L 173.320312 111.347656 L 173.839844 112.027344 L 174.355469 112.707031 C 174.523438 112.9375 174.6875 113.171875 174.851562 113.402344 C 176.179688 115.25 177.390625 117.167969 178.484375 119.160156 C 179.597656 121.128906 180.550781 123.179688 181.425781 125.242188 L 182.050781 126.800781 C 182.160156 127.058594 182.25 127.324219 182.347656 127.585938 L 182.628906 128.375 C 183.015625 129.421875 183.335938 130.492188 183.667969 131.554688 C 183.757812 131.820312 183.828125 132.085938 183.898438 132.351562 L 184.117188 133.152344 L 184.335938 133.957031 L 184.441406 134.359375 L 184.535156 134.761719 C 184.777344 135.855469 185.042969 136.925781 185.234375 138.011719 Z M 290.4375 156.109375 L 287.441406 155.265625 C 286.453125 154.96875 285.457031 154.679688 284.472656 154.371094 C 283.492188 154.066406 282.503906 153.765625 281.535156 153.433594 C 281.050781 153.269531 280.5625 153.113281 280.078125 152.945312 L 278.632812 152.4375 C 276.710938 151.753906 274.816406 151.019531 272.960938 150.238281 C 271.105469 149.453125 269.300781 148.597656 267.511719 147.679688 C 267.066406 147.449219 266.621094 147.207031 266.175781 146.96875 L 264.839844 146.234375 C 264.390625 145.980469 263.945312 145.734375 263.488281 145.472656 L 262.121094 144.6875 C 260.292969 143.625 258.324219 142.515625 256.246094 141.511719 C 254.152344 140.507812 251.996094 139.664062 249.777344 138.976562 C 249.640625 138.933594 249.503906 138.890625 249.367188 138.847656 L 248.953125 138.730469 L 248.128906 138.5 C 247.855469 138.417969 247.578125 138.347656 247.304688 138.28125 L 246.957031 138.191406 C 249.46875 135.128906 251.6875 131.863281 253.617188 128.40625 C 254.730469 126.398438 255.746094 124.347656 256.664062 122.25 C 256.902344 121.726562 257.109375 121.199219 257.335938 120.671875 C 257.558594 120.148438 257.761719 119.609375 257.96875 119.078125 C 258.175781 118.546875 258.371094 118.007812 258.566406 117.472656 C 258.761719 116.9375 258.945312 116.398438 259.128906 115.855469 C 259.863281 113.695312 260.488281 111.503906 261.039062 109.292969 C 261.59375 107.085938 262.035156 104.851562 262.414062 102.609375 C 262.601562 101.488281 262.757812 100.359375 262.898438 99.230469 C 263.039062 98.097656 263.160156 96.964844 263.253906 95.828125 C 263.347656 94.691406 263.417969 93.546875 263.460938 92.390625 C 263.484375 91.816406 263.5 91.234375 263.507812 90.648438 C 263.507812 90.355469 263.515625 90.058594 263.511719 89.757812 L 263.507812 89.300781 L 263.503906 89.0625 L 263.492188 88.78125 L 263.242188 81.101562 L 256.476562 84.890625 L 253.757812 86.410156 C 252.847656 86.898438 251.941406 87.394531 251.027344 87.875 C 250.117188 88.355469 249.207031 88.839844 248.289062 89.292969 C 247.828125 89.519531 247.371094 89.757812 246.910156 89.980469 L 245.53125 90.644531 C 243.6875 91.515625 241.832031 92.339844 239.96875 93.09375 C 238.101562 93.851562 236.21875 94.519531 234.304688 95.136719 C 233.824219 95.292969 233.339844 95.433594 232.859375 95.582031 L 231.394531 96.003906 C 230.898438 96.144531 230.410156 96.285156 229.902344 96.421875 L 228.378906 96.832031 C 226.332031 97.375 224.15625 97.984375 221.980469 98.738281 C 219.789062 99.515625 217.667969 100.441406 215.613281 101.523438 C 215.484375 101.59375 215.355469 101.65625 215.230469 101.726562 L 214.855469 101.933594 L 214.109375 102.351562 C 213.855469 102.488281 213.613281 102.632812 213.371094 102.78125 L 212.640625 103.214844 L 212.277344 103.433594 L 211.921875 103.660156 L 211.210938 104.117188 C 210.734375 104.417969 210.277344 104.738281 209.816406 105.046875 L 209.125 105.515625 L 207.773438 106.484375 L 207.4375 106.726562 C 207.324219 106.804688 207.203125 106.90625 207.082031 106.992188 C 206.136719 107.699219 205.230469 108.457031 204.363281 109.257812 C 203.5 110.050781 202.683594 110.886719 201.910156 111.765625 C 201.132812 112.632812 200.402344 113.535156 199.726562 114.464844 C 198.375 116.304688 197.183594 118.238281 196.144531 120.273438 C 195.125 122.265625 194.246094 124.316406 193.5 126.429688 C 192.765625 128.507812 192.144531 130.621094 191.648438 132.769531 C 191.144531 134.894531 190.761719 137.046875 190.476562 139.195312 C 190.1875 141.347656 190.011719 143.503906 189.921875 145.65625 C 189.882812 146.734375 189.859375 147.8125 189.875 148.886719 C 189.890625 149.960938 189.925781 151.035156 190.023438 152.101562 C 190.105469 151.570312 190.199219 151.046875 190.300781 150.523438 C 190.402344 150 190.503906 149.476562 190.613281 148.957031 C 190.835938 147.917969 191.0625 146.878906 191.324219 145.859375 C 191.820312 143.796875 192.394531 141.765625 193.027344 139.765625 C 193.660156 137.765625 194.367188 135.796875 195.144531 133.871094 C 195.921875 131.949219 196.777344 130.066406 197.722656 128.253906 C 198.652344 126.453125 199.6875 124.710938 200.824219 123.027344 C 201.390625 122.199219 201.980469 121.394531 202.589844 120.613281 L 203.050781 120.03125 L 203.527344 119.464844 C 203.683594 119.273438 203.851562 119.09375 204.007812 118.910156 L 204.253906 118.632812 L 204.5 118.363281 C 204.667969 118.183594 204.832031 118 205 117.832031 L 205.511719 117.308594 C 205.859375 116.96875 206.203125 116.628906 206.5625 116.304688 C 207.265625 115.652344 208.003906 115.039062 208.769531 114.460938 C 209.523438 113.882812 210.300781 113.347656 211.109375 112.851562 C 211.214844 112.785156 211.304688 112.726562 211.417969 112.660156 L 211.746094 112.464844 L 212.40625 112.074219 L 213.0625 111.683594 L 213.722656 111.308594 C 215.453125 110.320312 217.230469 109.417969 219.050781 108.609375 C 219.503906 108.417969 219.949219 108.214844 220.402344 108.042969 L 221.074219 107.777344 C 221.300781 107.6875 221.527344 107.613281 221.753906 107.527344 C 222.660156 107.191406 223.585938 106.917969 224.511719 106.644531 C 226.386719 106.113281 228.339844 105.6875 230.425781 105.234375 L 232 104.882812 C 232.527344 104.769531 233.066406 104.640625 233.601562 104.519531 C 234.140625 104.398438 234.679688 104.253906 235.21875 104.121094 C 235.757812 103.988281 236.296875 103.839844 236.839844 103.691406 C 239.003906 103.09375 241.148438 102.394531 243.25 101.621094 L 244.816406 101.027344 C 245.335938 100.820312 245.851562 100.605469 246.367188 100.398438 C 246.886719 100.1875 247.390625 99.964844 247.902344 99.746094 C 248.414062 99.527344 248.921875 99.3125 249.421875 99.078125 L 250.929688 98.386719 C 251.429688 98.15625 251.921875 97.910156 252.417969 97.671875 C 252.859375 97.460938 253.304688 97.246094 253.742188 97.023438 C 253.605469 98.414062 253.433594 99.804688 253.226562 101.191406 C 252.9375 103.21875 252.570312 105.234375 252.132812 107.234375 C 251.699219 109.234375 251.183594 111.214844 250.613281 113.171875 C 250.464844 113.660156 250.324219 114.152344 250.167969 114.636719 C 250.011719 115.117188 249.863281 115.609375 249.691406 116.089844 C 249.523438 116.566406 249.367188 117.054688 249.191406 117.53125 C 249.011719 118.007812 248.851562 118.492188 248.660156 118.964844 C 247.925781 120.867188 247.128906 122.738281 246.246094 124.570312 C 245.359375 126.398438 244.394531 128.1875 243.347656 129.925781 C 242.296875 131.660156 241.175781 133.355469 239.96875 134.988281 C 239.542969 135.554688 239.109375 136.117188 238.667969 136.671875 C 236.863281 138.933594 234.902344 141.050781 232.792969 143.027344 C 232.4375 143.359375 232.085938 143.683594 231.71875 144.003906 L 231.140625 144.511719 C 230.945312 144.679688 230.757812 144.855469 230.558594 145.015625 L 229.367188 145.992188 C 229.171875 146.160156 228.964844 146.3125 228.761719 146.46875 L 228.148438 146.941406 L 227.539062 147.410156 L 226.90625 147.863281 C 225.242188 149.089844 223.480469 150.203125 221.6875 151.269531 L 220.328125 152.050781 C 220.101562 152.183594 219.867188 152.304688 219.636719 152.425781 L 218.941406 152.792969 C 218.019531 153.304688 217.066406 153.742188 216.121094 154.210938 C 215.882812 154.332031 215.644531 154.4375 215.402344 154.546875 L 214.679688 154.871094 L 213.953125 155.199219 L 213.59375 155.359375 L 213.222656 155.511719 C 212.242188 155.910156 211.265625 156.339844 210.261719 156.699219 C 206.273438 158.222656 202.140625 159.453125 197.921875 160.523438 C 202.3125 160.492188 206.667969 160.0625 210.980469 159.230469 C 212.066406 159.042969 213.140625 158.777344 214.21875 158.53125 L 214.625 158.4375 L 215.023438 158.328125 L 215.828125 158.113281 L 216.632812 157.890625 C 216.898438 157.820312 217.171875 157.75 217.433594 157.660156 C 218.496094 157.332031 219.558594 157.011719 220.609375 156.621094 L 221.398438 156.339844 C 221.664062 156.246094 221.933594 156.152344 222.183594 156.046875 L 223.746094 155.417969 C 225.808594 154.542969 227.855469 153.59375 229.824219 152.480469 C 231.816406 151.386719 233.738281 150.175781 235.582031 148.847656 C 235.816406 148.683594 236.050781 148.519531 236.28125 148.351562 L 236.960938 147.835938 L 237.640625 147.316406 L 237.976562 147.050781 L 238.308594 146.777344 L 239.628906 145.6875 L 240.914062 144.546875 L 241.058594 144.414062 L 241.539062 144.550781 C 243.464844 145.074219 245.355469 145.691406 247.21875 146.410156 C 247.667969 146.59375 248.128906 146.765625 248.570312 146.964844 L 249.238281 147.25 C 249.460938 147.347656 249.675781 147.453125 249.894531 147.554688 C 250.769531 147.957031 251.621094 148.414062 252.476562 148.875 C 254.175781 149.820312 255.855469 150.90625 257.652344 152.058594 L 259.011719 152.929688 C 259.464844 153.21875 259.9375 153.511719 260.402344 153.800781 C 260.867188 154.09375 261.351562 154.375 261.828125 154.664062 C 262.304688 154.949219 262.789062 155.230469 263.277344 155.503906 C 265.226562 156.613281 267.242188 157.632812 269.273438 158.574219 L 270.804688 159.261719 C 271.316406 159.484375 271.828125 159.695312 272.34375 159.914062 C 272.855469 160.128906 273.375 160.332031 273.890625 160.539062 C 274.40625 160.742188 274.917969 160.953125 275.4375 161.140625 L 276.992188 161.71875 C 277.507812 161.90625 278.03125 162.082031 278.550781 162.265625 C 279.011719 162.429688 279.480469 162.585938 279.945312 162.742188 C 278.863281 163.632812 277.761719 164.492188 276.632812 165.328125 C 274.992188 166.554688 273.308594 167.722656 271.582031 168.824219 C 269.863281 169.933594 268.097656 170.96875 266.308594 171.949219 C 265.859375 172.195312 265.410156 172.441406 264.957031 172.667969 C 264.5 172.898438 264.050781 173.140625 263.589844 173.359375 C 263.132812 173.578125 262.679688 173.816406 262.214844 174.027344 C 261.75 174.238281 261.292969 174.464844 260.828125 174.664062 C 258.964844 175.492188 257.078125 176.253906 255.15625 176.921875 C 253.234375 177.589844 251.289062 178.171875 249.320312 178.65625 C 247.347656 179.140625 245.359375 179.546875 243.347656 179.851562 C 239.296875 180.445312 235.230469 180.625 231.140625 180.390625 L 230.375 180.339844 C 230.117188 180.324219 229.859375 180.3125 229.605469 180.285156 L 228.070312 180.136719 C 227.8125 180.117188 227.558594 180.078125 227.300781 180.046875 L 226.535156 179.945312 L 225.769531 179.847656 L 225.003906 179.722656 C 222.957031 179.410156 220.925781 178.953125 218.902344 178.4375 L 217.386719 178.027344 C 217.132812 177.964844 216.882812 177.882812 216.632812 177.804688 L 215.882812 177.574219 C 214.871094 177.285156 213.886719 176.917969 212.882812 176.582031 C 212.632812 176.5 212.386719 176.40625 212.140625 176.3125 L 211.398438 176.027344 L 210.65625 175.746094 L 210.28125 175.605469 L 209.917969 175.453125 C 208.941406 175.039062 207.945312 174.65625 206.984375 174.199219 C 203.085938 172.457031 199.292969 170.40625 195.554688 168.175781 C 198.683594 171.257812 202.066406 174.03125 205.703125 176.496094 C 206.605469 177.128906 207.554688 177.699219 208.492188 178.289062 L 208.84375 178.511719 L 209.203125 178.71875 L 210.648438 179.546875 C 210.890625 179.683594 211.132812 179.824219 211.378906 179.949219 C 212.363281 180.464844 213.34375 180.992188 214.359375 181.457031 L 215.117188 181.816406 C 215.371094 181.933594 215.625 182.054688 215.882812 182.160156 L 217.429688 182.824219 C 219.507812 183.660156 221.628906 184.4375 223.804688 185.042969 C 225.988281 185.675781 228.199219 186.175781 230.441406 186.542969 C 230.722656 186.589844 231.003906 186.640625 231.285156 186.6875 L 232.980469 186.914062 L 233.40625 186.96875 L 233.832031 187.007812 L 235.539062 187.171875 L 237.25 187.277344 C 239.539062 187.382812 241.832031 187.363281 244.121094 187.21875 C 248.714844 186.902344 253.226562 186.113281 257.65625 184.851562 C 259.859375 184.21875 262.027344 183.488281 264.160156 182.652344 C 264.691406 182.453125 265.222656 182.226562 265.75 182.011719 C 266.277344 181.796875 266.800781 181.566406 267.324219 181.335938 C 267.847656 181.101562 268.363281 180.863281 268.882812 180.621094 C 269.398438 180.378906 269.910156 180.128906 270.425781 179.875 C 272.46875 178.867188 274.460938 177.757812 276.414062 176.589844 C 278.367188 175.417969 280.25 174.15625 282.109375 172.835938 C 283.035156 172.175781 283.945312 171.488281 284.84375 170.789062 C 285.742188 170.09375 286.628906 169.375 287.5 168.636719 C 288.375 167.902344 289.230469 167.140625 290.078125 166.355469 C 290.503906 165.964844 290.921875 165.5625 291.34375 165.15625 C 291.554688 164.949219 291.761719 164.746094 291.976562 164.53125 L 292.296875 164.203125 L 292.460938 164.03125 L 292.652344 163.824219 L 297.90625 158.21875 Z M 193.742188 54.214844 L 194.214844 54.671875 L 194.671875 55.160156 L 195.113281 55.679688 C 195.191406 55.761719 195.261719 55.863281 195.339844 55.957031 L 195.5625 56.242188 C 195.710938 56.433594 195.851562 56.636719 195.996094 56.832031 C 196.140625 57.027344 196.269531 57.238281 196.410156 57.441406 C 196.683594 57.847656 196.949219 58.269531 197.199219 58.699219 C 197.707031 59.574219 198.164062 60.46875 198.570312 61.394531 C 199.40625 63.296875 200.042969 65.265625 200.476562 67.296875 C 201.386719 71.566406 201.5 75.859375 200.816406 80.171875 C 200.472656 82.394531 199.902344 84.558594 199.117188 86.664062 C 198.292969 88.863281 197.222656 90.933594 195.90625 92.878906 C 197.984375 91.640625 199.816406 89.921875 201.378906 87.976562 C 202.953125 85.984375 204.234375 83.820312 205.226562 81.484375 C 206.238281 79.117188 206.953125 76.664062 207.382812 74.125 C 207.820312 71.546875 207.957031 68.953125 207.792969 66.34375 C 207.628906 63.679688 207.148438 61.074219 206.34375 58.527344 C 205.9375 57.234375 205.445312 55.972656 204.871094 54.746094 C 204.585938 54.125 204.273438 53.519531 203.941406 52.914062 C 203.765625 52.617188 203.605469 52.3125 203.421875 52.019531 C 203.242188 51.726562 203.0625 51.429688 202.867188 51.140625 L 202.578125 50.707031 C 202.480469 50.5625 202.390625 50.417969 202.277344 50.273438 C 202.0625 49.980469 201.851562 49.6875 201.625 49.398438 L 200.925781 48.554688 L 200.171875 47.734375 C 199.90625 47.46875 199.640625 47.203125 199.371094 46.945312 C 199.097656 46.6875 198.800781 46.445312 198.511719 46.195312 C 198.226562 45.949219 197.910156 45.722656 197.605469 45.488281 C 197.300781 45.253906 196.96875 45.046875 196.644531 44.828125 C 195.296875 43.964844 193.855469 43.296875 192.328125 42.824219 C 190.753906 42.335938 189.144531 42.089844 187.496094 42.089844 C 185.847656 42.089844 184.234375 42.335938 182.660156 42.824219 C 181.132812 43.300781 179.691406 43.96875 178.339844 44.828125 C 177.054688 45.65625 175.878906 46.625 174.8125 47.726562 L 174.058594 48.546875 L 173.359375 49.394531 C 173.136719 49.683594 172.914062 49.976562 172.707031 50.265625 C 172.59375 50.414062 172.503906 50.558594 172.402344 50.703125 L 172.113281 51.136719 C 171.921875 51.425781 171.742188 51.722656 171.558594 52.015625 C 171.375 52.308594 171.210938 52.613281 171.039062 52.910156 C 170.707031 53.511719 170.398438 54.125 170.109375 54.742188 C 169.535156 55.96875 169.042969 57.230469 168.636719 58.523438 C 167.828125 61.070312 167.347656 63.675781 167.1875 66.339844 C 167.019531 68.953125 167.15625 71.546875 167.59375 74.125 C 168.023438 76.664062 168.742188 79.117188 169.753906 81.488281 C 170.746094 83.824219 172.03125 85.988281 173.605469 87.976562 C 175.171875 89.925781 177.003906 91.636719 179.082031 92.878906 C 177.769531 90.933594 176.703125 88.859375 175.882812 86.660156 C 175.09375 84.554688 174.53125 82.390625 174.183594 80.167969 C 173.503906 75.855469 173.617188 71.566406 174.527344 67.300781 C 174.964844 65.265625 175.597656 63.300781 176.433594 61.398438 C 176.839844 60.472656 177.296875 59.574219 177.800781 58.703125 C 178.050781 58.269531 178.316406 57.851562 178.585938 57.441406 C 178.726562 57.238281 178.851562 57.03125 179.003906 56.832031 C 179.152344 56.636719 179.285156 56.4375 179.4375 56.246094 L 179.660156 55.960938 C 179.734375 55.867188 179.808594 55.765625 179.882812 55.683594 L 180.328125 55.164062 L 180.78125 54.671875 L 181.253906 54.214844 C 181.867188 53.644531 182.53125 53.144531 183.25 52.71875 C 183.914062 52.324219 184.613281 52.019531 185.355469 51.808594 C 186.785156 51.386719 188.210938 51.386719 189.636719 51.808594 C 190.378906 52.019531 191.082031 52.320312 191.746094 52.714844 C 192.464844 53.140625 193.132812 53.640625 193.742188 54.214844 Z M 193.742188 54.214844 " fill-opacity="1" fill-rule="nonzero"/></g></svg>