<svg xmlns="http://www.w3.org/2000/svg" xmlns:xlink="http://www.w3.org/1999/xlink" width="500" zoomAndPan="magnify" viewBox="0 0 375 374.999991" height="500" preserveAspectRatio="xMidYMid meet" version="1.0"><defs><g/><clipPath id="6d067b9ae3"><path d="M 113 165 L 260 165 L 260 224.480469 L 113 224.480469 Z M 113 165 " clip-rule="nonzero"/></clipPath><clipPath id="b44e87cd6c"><rect x="0" width="350" y="0" height="91"/></clipPath><clipPath id="ab3fd096d1"><rect x="0" width="199" y="0" height="28"/></clipPath></defs><path fill="#ffffff" d="M 159.121094 88.078125 C 198.265625 84.878906 251.90625 79.589844 261.597656 43.054688 C 261.59375 43.058594 245.0625 62.585938 215.300781 60.578125 C 206.652344 57.292969 197.273438 55.488281 187.476562 55.488281 C 155.488281 55.488281 127.980469 74.648438 115.796875 102.117188 C 123.234375 95.304688 137.097656 89.878906 159.121094 88.078125 " fill-opacity="1" fill-rule="nonzero"/><g clip-path="url(#6d067b9ae3)"><path fill="#ffffff" d="M 215.828125 179.671875 C 176.683594 182.871094 123.042969 188.164062 113.351562 224.695312 L 113.351562 224.699219 C 113.351562 224.699219 129.886719 205.167969 159.652344 207.171875 C 168.296875 210.457031 177.675781 212.261719 187.476562 212.261719 C 219.460938 212.261719 246.96875 193.101562 259.15625 165.632812 C 251.714844 172.449219 237.851562 177.875 215.828125 179.671875 " fill-opacity="1" fill-rule="nonzero"/></g><path fill="#ffffff" d="M 199.425781 155.726562 C 282.648438 137.484375 202.273438 122.09375 202.273438 122.09375 C 202.273438 122.09375 228.558594 120.402344 246.214844 128.109375 C 255.808594 132.300781 262.515625 138.800781 264.957031 145.808594 C 265.550781 141.917969 265.859375 137.933594 265.859375 133.875 C 265.859375 113.960938 258.429688 95.789062 246.195312 81.960938 C 233.761719 92.886719 212.277344 103.972656 175.523438 112.027344 C 92.300781 130.265625 172.675781 145.65625 172.675781 145.65625 C 172.675781 145.65625 146.390625 147.347656 128.734375 139.640625 C 119.140625 135.453125 112.433594 128.953125 109.992188 121.945312 C 109.398438 125.832031 109.089844 129.820312 109.089844 133.875 C 109.089844 153.789062 116.519531 171.964844 128.757812 185.792969 C 141.1875 174.863281 162.671875 163.78125 199.425781 155.726562 " fill-opacity="1" fill-rule="nonzero"/><g transform="matrix(1, 0, 0, 1, 11, 216)"><g clip-path="url(#b44e87cd6c)"><g fill="#ffffff" fill-opacity="1"><g transform="translate(1.493321, 67.462236)"><g><path d="M 27.640625 0.75 C 19.941406 0.75 14.035156 -0.660156 9.921875 -3.484375 C 5.804688 -6.304688 3.75 -10.507812 3.75 -16.09375 L 3.75 -17.96875 L 16.09375 -17.96875 L 16.09375 -15.875 C 16.09375 -14.476562 16.378906 -13.328125 16.953125 -12.421875 C 17.535156 -11.523438 18.335938 -10.816406 19.359375 -10.296875 C 20.378906 -9.773438 21.585938 -9.398438 22.984375 -9.171875 C 24.390625 -8.953125 25.941406 -8.84375 27.640625 -8.84375 C 31.179688 -8.84375 33.972656 -9.316406 36.015625 -10.265625 C 38.066406 -11.210938 39.09375 -12.882812 39.09375 -15.28125 C 39.09375 -16.820312 38.253906 -17.96875 36.578125 -18.71875 C 34.910156 -19.46875 32.816406 -20.101562 30.296875 -20.625 C 27.773438 -21.15625 25.039062 -21.691406 22.09375 -22.234375 C 19.144531 -22.785156 16.410156 -23.632812 13.890625 -24.78125 C 11.367188 -25.9375 9.269531 -27.523438 7.59375 -29.546875 C 5.925781 -31.566406 5.09375 -34.300781 5.09375 -37.75 C 5.09375 -42.488281 7.015625 -46.242188 10.859375 -49.015625 C 14.703125 -51.785156 20.144531 -53.171875 27.1875 -53.171875 C 34.226562 -53.171875 39.671875 -51.820312 43.515625 -49.125 C 47.359375 -46.425781 49.28125 -42.507812 49.28125 -37.375 L 49.28125 -36.015625 L 36.921875 -36.015625 L 36.921875 -37.375 C 36.921875 -39.269531 36.117188 -40.78125 34.515625 -41.90625 C 32.921875 -43.03125 30.476562 -43.59375 27.1875 -43.59375 C 25.832031 -43.59375 24.566406 -43.476562 23.390625 -43.25 C 22.222656 -43.019531 21.191406 -42.664062 20.296875 -42.1875 C 19.398438 -41.71875 18.703125 -41.117188 18.203125 -40.390625 C 17.703125 -39.671875 17.453125 -38.8125 17.453125 -37.8125 C 17.453125 -36.519531 17.9375 -35.5 18.90625 -34.75 C 19.882812 -34 21.171875 -33.382812 22.765625 -32.90625 C 24.359375 -32.4375 26.164062 -32.039062 28.1875 -31.71875 C 30.21875 -31.394531 32.304688 -31.019531 34.453125 -30.59375 C 36.597656 -30.164062 38.679688 -29.613281 40.703125 -28.9375 C 42.722656 -28.269531 44.53125 -27.375 46.125 -26.25 C 47.726562 -25.125 49.015625 -23.675781 49.984375 -21.90625 C 50.960938 -20.132812 51.453125 -17.953125 51.453125 -15.359375 C 51.453125 -12.804688 50.898438 -10.53125 49.796875 -8.53125 C 48.703125 -6.539062 47.128906 -4.859375 45.078125 -3.484375 C 43.035156 -2.109375 40.539062 -1.054688 37.59375 -0.328125 C 34.644531 0.390625 31.328125 0.75 27.640625 0.75 Z M 27.640625 0.75 "/></g></g></g><g fill="#ffffff" fill-opacity="1"><g transform="translate(53.696015, 67.462236)"><g><path d="M 5.25 -37.4375 L 16.03125 -37.4375 L 16.03125 0 L 5.25 0 Z M 10.640625 -43.28125 C 8.785156 -43.28125 7.320312 -43.726562 6.25 -44.625 C 5.175781 -45.53125 4.640625 -46.734375 4.640625 -48.234375 C 4.640625 -49.722656 5.175781 -50.914062 6.25 -51.8125 C 7.320312 -52.71875 8.785156 -53.171875 10.640625 -53.171875 C 12.484375 -53.171875 13.941406 -52.71875 15.015625 -51.8125 C 16.085938 -50.914062 16.625 -49.722656 16.625 -48.234375 C 16.625 -46.734375 16.085938 -45.53125 15.015625 -44.625 C 13.941406 -43.726562 12.484375 -43.28125 10.640625 -43.28125 Z M 10.640625 -43.28125 "/></g></g></g><g fill="#ffffff" fill-opacity="1"><g transform="translate(71.970695, 67.462236)"><g><path d="M 23.0625 15.734375 C 20.019531 15.734375 17.210938 15.53125 14.640625 15.125 C 12.066406 14.726562 9.832031 14.078125 7.9375 13.171875 C 6.039062 12.273438 4.554688 11.078125 3.484375 9.578125 C 2.410156 8.085938 1.875 6.242188 1.875 4.046875 C 1.875 2.191406 2.25 0.644531 3 -0.59375 C 3.75 -1.84375 4.597656 -2.84375 5.546875 -3.59375 C 6.585938 -4.488281 7.8125 -5.1875 9.21875 -5.6875 L 9.21875 -5.984375 C 8.664062 -6.285156 8.1875 -6.660156 7.78125 -7.109375 C 7.382812 -7.515625 7.046875 -7.976562 6.765625 -8.5 C 6.492188 -9.019531 6.359375 -9.679688 6.359375 -10.484375 C 6.359375 -11.429688 6.582031 -12.253906 7.03125 -12.953125 C 7.488281 -13.648438 7.988281 -14.203125 8.53125 -14.609375 C 9.1875 -15.109375 9.9375 -15.503906 10.78125 -15.796875 L 10.78125 -16.03125 C 9.738281 -16.53125 8.816406 -17.226562 8.015625 -18.125 C 7.316406 -18.875 6.679688 -19.859375 6.109375 -21.078125 C 5.535156 -22.304688 5.25 -23.84375 5.25 -25.6875 C 5.25 -27.6875 5.671875 -29.457031 6.515625 -31 C 7.359375 -32.550781 8.566406 -33.863281 10.140625 -34.9375 C 11.710938 -36.007812 13.582031 -36.816406 15.75 -37.359375 C 17.925781 -37.910156 20.363281 -38.1875 23.0625 -38.1875 L 46.28125 -38.1875 L 46.28125 -30.703125 L 39.390625 -30.703125 C 39.691406 -30.398438 39.941406 -30 40.140625 -29.5 C 40.335938 -29.101562 40.523438 -28.554688 40.703125 -27.859375 C 40.878906 -27.160156 40.96875 -26.3125 40.96875 -25.3125 C 40.96875 -23.3125 40.539062 -21.5625 39.6875 -20.0625 C 38.84375 -18.570312 37.632812 -17.3125 36.0625 -16.28125 C 34.488281 -15.257812 32.601562 -14.488281 30.40625 -13.96875 C 28.207031 -13.445312 25.757812 -13.1875 23.0625 -13.1875 C 20.320312 -13.1875 18.289062 -12.984375 16.96875 -12.578125 C 15.644531 -12.179688 14.984375 -11.484375 14.984375 -10.484375 C 14.984375 -9.484375 15.664062 -8.78125 17.03125 -8.375 C 18.40625 -7.976562 20.414062 -7.78125 23.0625 -7.78125 C 26.113281 -7.78125 28.9375 -7.566406 31.53125 -7.140625 C 34.125 -6.722656 36.367188 -6.050781 38.265625 -5.125 C 40.160156 -4.207031 41.644531 -2.984375 42.71875 -1.453125 C 43.789062 0.0664062 44.328125 1.898438 44.328125 4.046875 C 44.328125 6.242188 43.789062 8.085938 42.71875 9.578125 C 41.644531 11.078125 40.160156 12.273438 38.265625 13.171875 C 36.367188 14.078125 34.125 14.726562 31.53125 15.125 C 28.9375 15.53125 26.113281 15.734375 23.0625 15.734375 Z M 23.0625 8.015625 C 26.207031 8.015625 28.675781 7.710938 30.46875 7.109375 C 32.269531 6.515625 33.171875 5.492188 33.171875 4.046875 C 33.171875 2.597656 32.269531 1.570312 30.46875 0.96875 C 28.675781 0.375 26.207031 0.078125 23.0625 0.078125 C 19.914062 0.078125 17.441406 0.375 15.640625 0.96875 C 13.847656 1.570312 12.953125 2.597656 12.953125 4.046875 C 12.953125 5.492188 13.847656 6.515625 15.640625 7.109375 C 17.441406 7.710938 19.914062 8.015625 23.0625 8.015625 Z M 23.0625 -20.515625 C 25.414062 -20.515625 27.128906 -20.976562 28.203125 -21.90625 C 29.273438 -22.832031 29.8125 -24.066406 29.8125 -25.609375 C 29.8125 -27.160156 29.273438 -28.394531 28.203125 -29.3125 C 27.128906 -30.238281 25.414062 -30.703125 23.0625 -30.703125 C 20.71875 -30.703125 19.007812 -30.238281 17.9375 -29.3125 C 16.863281 -28.394531 16.328125 -27.160156 16.328125 -25.609375 C 16.328125 -24.066406 16.863281 -22.832031 17.9375 -21.90625 C 19.007812 -20.976562 20.71875 -20.515625 23.0625 -20.515625 Z M 23.0625 -20.515625 "/></g></g></g><g fill="#ffffff" fill-opacity="1"><g transform="translate(116.009685, 67.462236)"><g><path d="M 5.25 -37.4375 L 16.03125 -37.4375 L 16.03125 -30.5625 L 16.625 -30.5625 C 17.226562 -31.957031 18.128906 -33.226562 19.328125 -34.375 C 20.316406 -35.320312 21.648438 -36.191406 23.328125 -36.984375 C 25.003906 -37.785156 27.113281 -38.1875 29.65625 -38.1875 C 30.101562 -38.1875 30.539062 -38.160156 30.96875 -38.109375 C 31.394531 -38.066406 31.804688 -38.019531 32.203125 -37.96875 C 32.597656 -37.914062 33 -37.863281 33.40625 -37.8125 L 33.40625 -25.90625 C 32.90625 -26.0625 32.328125 -26.238281 31.671875 -26.4375 C 31.128906 -26.582031 30.445312 -26.71875 29.625 -26.84375 C 28.800781 -26.96875 27.890625 -27.03125 26.890625 -27.03125 C 25.085938 -27.03125 23.5 -26.753906 22.125 -26.203125 C 20.757812 -25.660156 19.625 -24.914062 18.71875 -23.96875 C 17.820312 -23.019531 17.148438 -21.90625 16.703125 -20.625 C 16.253906 -19.351562 16.03125 -17.992188 16.03125 -16.546875 L 16.03125 0 L 5.25 0 Z M 5.25 -37.4375 "/></g></g></g><g fill="#ffffff" fill-opacity="1"><g transform="translate(149.038937, 67.462236)"><g><path d="M 19.25 0.75 C 17.144531 0.75 15.15625 0.523438 13.28125 0.078125 C 11.414062 -0.367188 9.769531 -1.054688 8.34375 -1.984375 C 6.925781 -2.910156 5.804688 -4.082031 4.984375 -5.5 C 4.160156 -6.925781 3.75 -8.613281 3.75 -10.5625 C 3.75 -12.601562 4.195312 -14.347656 5.09375 -15.796875 C 5.988281 -17.242188 7.207031 -18.441406 8.75 -19.390625 C 10.300781 -20.335938 12.085938 -21.023438 14.109375 -21.453125 C 16.140625 -21.878906 18.273438 -22.09375 20.515625 -22.09375 C 22.617188 -22.09375 24.429688 -21.929688 25.953125 -21.609375 C 27.472656 -21.285156 28.734375 -20.921875 29.734375 -20.515625 C 30.878906 -20.015625 31.851562 -19.492188 32.65625 -18.953125 L 32.65625 -24.421875 C 32.65625 -25.117188 32.53125 -25.800781 32.28125 -26.46875 C 32.03125 -27.144531 31.601562 -27.753906 31 -28.296875 C 30.40625 -28.847656 29.59375 -29.285156 28.5625 -29.609375 C 27.539062 -29.941406 26.257812 -30.109375 24.71875 -30.109375 C 23.914062 -30.109375 23.039062 -30.03125 22.09375 -29.875 C 21.144531 -29.726562 20.269531 -29.46875 19.46875 -29.09375 C 18.664062 -28.71875 18.003906 -28.226562 17.484375 -27.625 C 16.960938 -27.03125 16.703125 -26.285156 16.703125 -25.390625 L 5.609375 -25.390625 C 5.609375 -27.585938 6.082031 -29.492188 7.03125 -31.109375 C 7.988281 -32.734375 9.300781 -34.070312 10.96875 -35.125 C 12.644531 -36.175781 14.65625 -36.945312 17 -37.4375 C 19.34375 -37.9375 21.914062 -38.1875 24.71875 -38.1875 C 30.457031 -38.1875 35.007812 -37.0625 38.375 -34.8125 C 41.75 -32.570312 43.4375 -29.109375 43.4375 -24.421875 L 43.4375 -12.734375 C 43.4375 -11.128906 43.632812 -10.050781 44.03125 -9.5 C 44.4375 -8.957031 45.0625 -8.6875 45.90625 -8.6875 C 46.300781 -8.6875 46.703125 -8.738281 47.109375 -8.84375 C 47.253906 -8.882812 47.378906 -8.929688 47.484375 -8.984375 L 47.484375 0 C 47.179688 0.144531 46.804688 0.269531 46.359375 0.375 C 45.960938 0.476562 45.488281 0.566406 44.9375 0.640625 C 44.382812 0.710938 43.6875 0.75 42.84375 0.75 C 40.988281 0.75 39.488281 0.488281 38.34375 -0.03125 C 37.195312 -0.5625 36.273438 -1.175781 35.578125 -1.875 C 34.773438 -2.625 34.175781 -3.5 33.78125 -4.5 L 33.25 -4.5 C 33.25 -4.445312 33.035156 -4.144531 32.609375 -3.59375 C 32.191406 -3.039062 31.457031 -2.441406 30.40625 -1.796875 C 29.351562 -1.148438 27.914062 -0.5625 26.09375 -0.03125 C 24.269531 0.488281 21.988281 0.75 19.25 0.75 Z M 23.671875 -7.421875 C 25.316406 -7.421875 26.710938 -7.554688 27.859375 -7.828125 C 29.003906 -8.097656 29.925781 -8.4375 30.625 -8.84375 C 31.476562 -9.238281 32.15625 -9.710938 32.65625 -10.265625 L 32.65625 -12.5 C 32.207031 -12.90625 31.554688 -13.28125 30.703125 -13.625 C 30.003906 -13.875 29.082031 -14.125 27.9375 -14.375 C 26.789062 -14.625 25.367188 -14.75 23.671875 -14.75 C 22.472656 -14.75 21.332031 -14.695312 20.25 -14.59375 C 19.175781 -14.5 18.238281 -14.3125 17.4375 -14.03125 C 16.644531 -13.757812 16.007812 -13.382812 15.53125 -12.90625 C 15.0625 -12.4375 14.828125 -11.828125 14.828125 -11.078125 C 14.828125 -10.328125 15.0625 -9.710938 15.53125 -9.234375 C 16.007812 -8.765625 16.644531 -8.394531 17.4375 -8.125 C 18.238281 -7.851562 19.175781 -7.664062 20.25 -7.5625 C 21.332031 -7.46875 22.472656 -7.421875 23.671875 -7.421875 Z M 23.671875 -7.421875 "/></g></g></g><g fill="#ffffff" fill-opacity="1"><g transform="translate(195.774198, 67.462236)"><g><path d="M 5.25 -52.421875 L 16.03125 -52.421875 L 16.03125 0 L 5.25 0 Z M 5.25 -52.421875 "/></g></g></g><g fill="#ffffff" fill-opacity="1"><g transform="translate(214.048878, 67.462236)"><g><path d="M 5.25 -37.4375 L 16.03125 -37.4375 L 16.03125 0 L 5.25 0 Z M 10.640625 -43.28125 C 8.785156 -43.28125 7.320312 -43.726562 6.25 -44.625 C 5.175781 -45.53125 4.640625 -46.734375 4.640625 -48.234375 C 4.640625 -49.722656 5.175781 -50.914062 6.25 -51.8125 C 7.320312 -52.71875 8.785156 -53.171875 10.640625 -53.171875 C 12.484375 -53.171875 13.941406 -52.71875 15.015625 -51.8125 C 16.085938 -50.914062 16.625 -49.722656 16.625 -48.234375 C 16.625 -46.734375 16.085938 -45.53125 15.015625 -44.625 C 13.941406 -43.726562 12.484375 -43.28125 10.640625 -43.28125 Z M 10.640625 -43.28125 "/></g></g></g><g fill="#ffffff" fill-opacity="1"><g transform="translate(232.323558, 67.462236)"><g><path d="M 20.96875 0.75 C 18.769531 0.75 16.707031 0.4375 14.78125 -0.1875 C 12.863281 -0.8125 11.191406 -1.796875 9.765625 -3.140625 C 8.347656 -4.492188 7.238281 -6.191406 6.4375 -8.234375 C 5.644531 -10.285156 5.25 -12.734375 5.25 -15.578125 L 5.25 -37.4375 L 16.03125 -37.4375 L 16.03125 -18.578125 C 16.03125 -15.273438 16.898438 -12.828125 18.640625 -11.234375 C 20.390625 -9.640625 22.6875 -8.84375 25.53125 -8.84375 C 28.675781 -8.84375 31.046875 -9.75 32.640625 -11.5625 C 34.242188 -13.382812 35.046875 -15.722656 35.046875 -18.578125 L 35.046875 -37.4375 L 45.828125 -37.4375 L 45.828125 0 L 35.046875 0 L 35.046875 -6.21875 L 34.453125 -6.21875 C 33.796875 -4.863281 32.867188 -3.691406 31.671875 -2.703125 C 30.679688 -1.847656 29.3125 -1.054688 27.5625 -0.328125 C 25.8125 0.390625 23.613281 0.75 20.96875 0.75 Z M 20.96875 0.75 "/></g></g></g><g fill="#ffffff" fill-opacity="1"><g transform="translate(280.406946, 67.462236)"><g><path d="M 5.25 -37.4375 L 16.03125 -37.4375 L 16.03125 -31.234375 L 16.546875 -31.234375 C 17.046875 -32.523438 17.769531 -33.671875 18.71875 -34.671875 C 19.570312 -35.523438 20.707031 -36.320312 22.125 -37.0625 C 23.550781 -37.8125 25.4375 -38.1875 27.78125 -38.1875 C 30.175781 -38.1875 32.132812 -37.8125 33.65625 -37.0625 C 35.1875 -36.320312 36.398438 -35.523438 37.296875 -34.671875 C 38.347656 -33.671875 39.144531 -32.523438 39.6875 -31.234375 L 40.21875 -31.234375 C 40.71875 -32.523438 41.441406 -33.671875 42.390625 -34.671875 C 43.234375 -35.523438 44.378906 -36.320312 45.828125 -37.0625 C 47.273438 -37.8125 49.125 -38.1875 51.375 -38.1875 C 56.070312 -38.1875 59.71875 -36.875 62.3125 -34.25 C 64.90625 -31.632812 66.203125 -27.484375 66.203125 -21.796875 L 66.203125 0 L 55.421875 0 L 55.421875 -19.390625 C 55.421875 -20.640625 55.304688 -21.828125 55.078125 -22.953125 C 54.859375 -24.078125 54.457031 -25.0625 53.875 -25.90625 C 53.300781 -26.757812 52.566406 -27.421875 51.671875 -27.890625 C 50.773438 -28.367188 49.648438 -28.609375 48.296875 -28.609375 C 45.648438 -28.609375 43.789062 -27.796875 42.71875 -26.171875 C 41.644531 -24.546875 41.109375 -22.390625 41.109375 -19.703125 L 41.109375 0 L 30.328125 0 L 30.328125 -19.390625 C 30.328125 -20.640625 30.210938 -21.828125 29.984375 -22.953125 C 29.765625 -24.078125 29.390625 -25.050781 28.859375 -25.875 C 28.335938 -26.695312 27.613281 -27.359375 26.6875 -27.859375 C 25.769531 -28.359375 24.613281 -28.609375 23.21875 -28.609375 C 20.570312 -28.609375 18.710938 -27.757812 17.640625 -26.0625 C 16.566406 -24.363281 16.03125 -22.140625 16.03125 -19.390625 L 16.03125 0 L 5.25 0 Z M 5.25 -37.4375 "/></g></g></g></g></g><g transform="matrix(1, 0, 0, 1, 89, 300)"><g clip-path="url(#ab3fd096d1)"><g fill="#ffffff" fill-opacity="1"><g transform="translate(1.503082, 19.745893)"><g><path d="M 8.265625 0.21875 C 5.960938 0.21875 4.195312 -0.203125 2.96875 -1.046875 C 1.738281 -1.890625 1.125 -3.144531 1.125 -4.8125 L 1.125 -5.375 L 4.8125 -5.375 L 4.8125 -4.75 C 4.8125 -4.332031 4.894531 -3.988281 5.0625 -3.71875 C 5.238281 -3.445312 5.476562 -3.234375 5.78125 -3.078125 C 6.09375 -2.921875 6.457031 -2.804688 6.875 -2.734375 C 7.289062 -2.671875 7.753906 -2.640625 8.265625 -2.640625 C 9.328125 -2.640625 10.160156 -2.78125 10.765625 -3.0625 C 11.378906 -3.351562 11.6875 -3.851562 11.6875 -4.5625 C 11.6875 -5.03125 11.4375 -5.375 10.9375 -5.59375 C 10.4375 -5.820312 9.804688 -6.015625 9.046875 -6.171875 C 8.296875 -6.328125 7.476562 -6.484375 6.59375 -6.640625 C 5.71875 -6.804688 4.898438 -7.0625 4.140625 -7.40625 C 3.390625 -7.75 2.765625 -8.222656 2.265625 -8.828125 C 1.765625 -9.429688 1.515625 -10.25 1.515625 -11.28125 C 1.515625 -12.695312 2.085938 -13.816406 3.234375 -14.640625 C 4.390625 -15.472656 6.019531 -15.890625 8.125 -15.890625 C 10.226562 -15.890625 11.851562 -15.488281 13 -14.6875 C 14.15625 -13.882812 14.734375 -12.710938 14.734375 -11.171875 L 14.734375 -10.765625 L 11.03125 -10.765625 L 11.03125 -11.171875 C 11.03125 -11.742188 10.789062 -12.195312 10.3125 -12.53125 C 9.84375 -12.863281 9.113281 -13.03125 8.125 -13.03125 C 7.71875 -13.03125 7.335938 -12.992188 6.984375 -12.921875 C 6.640625 -12.859375 6.332031 -12.753906 6.0625 -12.609375 C 5.800781 -12.472656 5.59375 -12.296875 5.4375 -12.078125 C 5.289062 -11.859375 5.21875 -11.601562 5.21875 -11.3125 C 5.21875 -10.914062 5.363281 -10.601562 5.65625 -10.375 C 5.945312 -10.15625 6.328125 -9.972656 6.796875 -9.828125 C 7.273438 -9.691406 7.816406 -9.578125 8.421875 -9.484375 C 9.035156 -9.390625 9.660156 -9.273438 10.296875 -9.140625 C 10.941406 -9.015625 11.566406 -8.851562 12.171875 -8.65625 C 12.773438 -8.457031 13.316406 -8.1875 13.796875 -7.84375 C 14.273438 -7.507812 14.65625 -7.078125 14.9375 -6.546875 C 15.226562 -6.015625 15.375 -5.363281 15.375 -4.59375 C 15.375 -3.832031 15.207031 -3.148438 14.875 -2.546875 C 14.550781 -1.953125 14.082031 -1.445312 13.46875 -1.03125 C 12.863281 -0.625 12.117188 -0.3125 11.234375 -0.09375 C 10.359375 0.113281 9.367188 0.21875 8.265625 0.21875 Z M 8.265625 0.21875 "/></g></g></g><g fill="#ffffff" fill-opacity="1"><g transform="translate(20.240602, 19.745893)"><g><path d="M 1.796875 -15.671875 L 8.375 -15.671875 C 10.71875 -15.671875 12.429688 -15.171875 13.515625 -14.171875 C 14.597656 -13.171875 15.140625 -11.734375 15.140625 -9.859375 C 15.140625 -7.984375 14.597656 -6.546875 13.515625 -5.546875 C 12.429688 -4.546875 10.71875 -4.046875 8.375 -4.046875 L 5.328125 -4.046875 L 5.328125 0 L 1.796875 0 Z M 8.375 -7.03125 C 9.375 -7.03125 10.132812 -7.257812 10.65625 -7.71875 C 11.175781 -8.1875 11.4375 -8.898438 11.4375 -9.859375 C 11.4375 -10.804688 11.175781 -11.515625 10.65625 -11.984375 C 10.132812 -12.460938 9.375 -12.703125 8.375 -12.703125 L 5.328125 -12.703125 L 5.328125 -7.03125 Z M 8.375 -7.03125 "/></g></g></g><g fill="#ffffff" fill-opacity="1"><g transform="translate(38.843806, 19.745893)"><g><path d="M 9.46875 0.21875 C 8.21875 0.21875 7.09375 0.0351562 6.09375 -0.328125 C 5.09375 -0.703125 4.238281 -1.238281 3.53125 -1.9375 C 2.832031 -2.644531 2.289062 -3.492188 1.90625 -4.484375 C 1.53125 -5.484375 1.34375 -6.601562 1.34375 -7.84375 C 1.34375 -9.070312 1.53125 -10.179688 1.90625 -11.171875 C 2.289062 -12.171875 2.832031 -13.019531 3.53125 -13.71875 C 4.238281 -14.425781 5.09375 -14.960938 6.09375 -15.328125 C 7.09375 -15.703125 8.21875 -15.890625 9.46875 -15.890625 C 10.726562 -15.890625 11.859375 -15.703125 12.859375 -15.328125 C 13.859375 -14.960938 14.707031 -14.425781 15.40625 -13.71875 C 16.101562 -13.019531 16.640625 -12.171875 17.015625 -11.171875 C 17.398438 -10.179688 17.59375 -9.070312 17.59375 -7.84375 C 17.59375 -6.601562 17.398438 -5.484375 17.015625 -4.484375 C 16.640625 -3.492188 16.101562 -2.644531 15.40625 -1.9375 C 14.707031 -1.238281 13.859375 -0.703125 12.859375 -0.328125 C 11.859375 0.0351562 10.726562 0.21875 9.46875 0.21875 Z M 9.46875 -2.90625 C 10.195312 -2.90625 10.835938 -3.03125 11.390625 -3.28125 C 11.941406 -3.539062 12.40625 -3.894531 12.78125 -4.34375 C 13.15625 -4.789062 13.4375 -5.3125 13.625 -5.90625 C 13.8125 -6.507812 13.90625 -7.15625 13.90625 -7.84375 C 13.90625 -8.519531 13.8125 -9.15625 13.625 -9.75 C 13.4375 -10.351562 13.15625 -10.878906 12.78125 -11.328125 C 12.40625 -11.773438 11.941406 -12.125 11.390625 -12.375 C 10.835938 -12.632812 10.195312 -12.765625 9.46875 -12.765625 C 8.738281 -12.765625 8.097656 -12.632812 7.546875 -12.375 C 6.992188 -12.125 6.53125 -11.773438 6.15625 -11.328125 C 5.78125 -10.878906 5.5 -10.351562 5.3125 -9.75 C 5.125 -9.15625 5.03125 -8.519531 5.03125 -7.84375 C 5.03125 -7.15625 5.125 -6.507812 5.3125 -5.90625 C 5.5 -5.3125 5.78125 -4.789062 6.15625 -4.34375 C 6.53125 -3.894531 6.992188 -3.539062 7.546875 -3.28125 C 8.097656 -3.03125 8.738281 -2.90625 9.46875 -2.90625 Z M 9.46875 -2.90625 "/></g></g></g><g fill="#ffffff" fill-opacity="1"><g transform="translate(60.021463, 19.745893)"><g><path d="M 1.796875 -15.671875 L 8.515625 -15.671875 C 10.765625 -15.671875 12.394531 -15.253906 13.40625 -14.421875 C 14.425781 -13.585938 14.9375 -12.3125 14.9375 -10.59375 C 14.9375 -9.65625 14.785156 -8.894531 14.484375 -8.3125 C 14.179688 -7.726562 13.863281 -7.269531 13.53125 -6.9375 C 13.125 -6.550781 12.660156 -6.269531 12.140625 -6.09375 L 16.03125 0 L 12.046875 0 L 8.59375 -5.390625 L 5.328125 -5.390625 L 5.328125 0 L 1.796875 0 Z M 8.515625 -8.375 C 9.421875 -8.375 10.097656 -8.539062 10.546875 -8.875 C 11.003906 -9.207031 11.234375 -9.757812 11.234375 -10.53125 C 11.234375 -11.300781 11.003906 -11.851562 10.546875 -12.1875 C 10.085938 -12.53125 9.410156 -12.703125 8.515625 -12.703125 L 5.328125 -12.703125 L 5.328125 -8.375 Z M 8.515625 -8.375 "/></g></g></g><g fill="#ffffff" fill-opacity="1"><g transform="translate(78.848538, 19.745893)"><g><path d="M 5.6875 -12.578125 L 0.328125 -12.578125 L 0.328125 -15.671875 L 14.578125 -15.671875 L 14.578125 -12.578125 L 9.21875 -12.578125 L 9.21875 0 L 5.6875 0 Z M 5.6875 -12.578125 "/></g></g></g><g fill="#ffffff" fill-opacity="1"><g transform="translate(95.996616, 19.745893)"><g/></g></g><g fill="#ffffff" fill-opacity="1"><g transform="translate(103.719976, 19.745893)"><g><path d="M 8.265625 0.21875 C 5.960938 0.21875 4.195312 -0.203125 2.96875 -1.046875 C 1.738281 -1.890625 1.125 -3.144531 1.125 -4.8125 L 1.125 -5.375 L 4.8125 -5.375 L 4.8125 -4.75 C 4.8125 -4.332031 4.894531 -3.988281 5.0625 -3.71875 C 5.238281 -3.445312 5.476562 -3.234375 5.78125 -3.078125 C 6.09375 -2.921875 6.457031 -2.804688 6.875 -2.734375 C 7.289062 -2.671875 7.753906 -2.640625 8.265625 -2.640625 C 9.328125 -2.640625 10.160156 -2.78125 10.765625 -3.0625 C 11.378906 -3.351562 11.6875 -3.851562 11.6875 -4.5625 C 11.6875 -5.03125 11.4375 -5.375 10.9375 -5.59375 C 10.4375 -5.820312 9.804688 -6.015625 9.046875 -6.171875 C 8.296875 -6.328125 7.476562 -6.484375 6.59375 -6.640625 C 5.71875 -6.804688 4.898438 -7.0625 4.140625 -7.40625 C 3.390625 -7.75 2.765625 -8.222656 2.265625 -8.828125 C 1.765625 -9.429688 1.515625 -10.25 1.515625 -11.28125 C 1.515625 -12.695312 2.085938 -13.816406 3.234375 -14.640625 C 4.390625 -15.472656 6.019531 -15.890625 8.125 -15.890625 C 10.226562 -15.890625 11.851562 -15.488281 13 -14.6875 C 14.15625 -13.882812 14.734375 -12.710938 14.734375 -11.171875 L 14.734375 -10.765625 L 11.03125 -10.765625 L 11.03125 -11.171875 C 11.03125 -11.742188 10.789062 -12.195312 10.3125 -12.53125 C 9.84375 -12.863281 9.113281 -13.03125 8.125 -13.03125 C 7.71875 -13.03125 7.335938 -12.992188 6.984375 -12.921875 C 6.640625 -12.859375 6.332031 -12.753906 6.0625 -12.609375 C 5.800781 -12.472656 5.59375 -12.296875 5.4375 -12.078125 C 5.289062 -11.859375 5.21875 -11.601562 5.21875 -11.3125 C 5.21875 -10.914062 5.363281 -10.601562 5.65625 -10.375 C 5.945312 -10.15625 6.328125 -9.972656 6.796875 -9.828125 C 7.273438 -9.691406 7.816406 -9.578125 8.421875 -9.484375 C 9.035156 -9.390625 9.660156 -9.273438 10.296875 -9.140625 C 10.941406 -9.015625 11.566406 -8.851562 12.171875 -8.65625 C 12.773438 -8.457031 13.316406 -8.1875 13.796875 -7.84375 C 14.273438 -7.507812 14.65625 -7.078125 14.9375 -6.546875 C 15.226562 -6.015625 15.375 -5.363281 15.375 -4.59375 C 15.375 -3.832031 15.207031 -3.148438 14.875 -2.546875 C 14.550781 -1.953125 14.082031 -1.445312 13.46875 -1.03125 C 12.863281 -0.625 12.117188 -0.3125 11.234375 -0.09375 C 10.359375 0.113281 9.367188 0.21875 8.265625 0.21875 Z M 8.265625 0.21875 "/></g></g></g><g fill="#ffffff" fill-opacity="1"><g transform="translate(122.457496, 19.745893)"><g><path d="M 5.6875 -12.578125 L 0.328125 -12.578125 L 0.328125 -15.671875 L 14.578125 -15.671875 L 14.578125 -12.578125 L 9.21875 -12.578125 L 9.21875 0 L 5.6875 0 Z M 5.6875 -12.578125 "/></g></g></g><g fill="#ffffff" fill-opacity="1"><g transform="translate(139.605574, 19.745893)"><g><path d="M 9.46875 0.21875 C 8.21875 0.21875 7.09375 0.0351562 6.09375 -0.328125 C 5.09375 -0.703125 4.238281 -1.238281 3.53125 -1.9375 C 2.832031 -2.644531 2.289062 -3.492188 1.90625 -4.484375 C 1.53125 -5.484375 1.34375 -6.601562 1.34375 -7.84375 C 1.34375 -9.070312 1.53125 -10.179688 1.90625 -11.171875 C 2.289062 -12.171875 2.832031 -13.019531 3.53125 -13.71875 C 4.238281 -14.425781 5.09375 -14.960938 6.09375 -15.328125 C 7.09375 -15.703125 8.21875 -15.890625 9.46875 -15.890625 C 10.726562 -15.890625 11.859375 -15.703125 12.859375 -15.328125 C 13.859375 -14.960938 14.707031 -14.425781 15.40625 -13.71875 C 16.101562 -13.019531 16.640625 -12.171875 17.015625 -11.171875 C 17.398438 -10.179688 17.59375 -9.070312 17.59375 -7.84375 C 17.59375 -6.601562 17.398438 -5.484375 17.015625 -4.484375 C 16.640625 -3.492188 16.101562 -2.644531 15.40625 -1.9375 C 14.707031 -1.238281 13.859375 -0.703125 12.859375 -0.328125 C 11.859375 0.0351562 10.726562 0.21875 9.46875 0.21875 Z M 9.46875 -2.90625 C 10.195312 -2.90625 10.835938 -3.03125 11.390625 -3.28125 C 11.941406 -3.539062 12.40625 -3.894531 12.78125 -4.34375 C 13.15625 -4.789062 13.4375 -5.3125 13.625 -5.90625 C 13.8125 -6.507812 13.90625 -7.15625 13.90625 -7.84375 C 13.90625 -8.519531 13.8125 -9.15625 13.625 -9.75 C 13.4375 -10.351562 13.15625 -10.878906 12.78125 -11.328125 C 12.40625 -11.773438 11.941406 -12.125 11.390625 -12.375 C 10.835938 -12.632812 10.195312 -12.765625 9.46875 -12.765625 C 8.738281 -12.765625 8.097656 -12.632812 7.546875 -12.375 C 6.992188 -12.125 6.53125 -11.773438 6.15625 -11.328125 C 5.78125 -10.878906 5.5 -10.351562 5.3125 -9.75 C 5.125 -9.15625 5.03125 -8.519531 5.03125 -7.84375 C 5.03125 -7.15625 5.125 -6.507812 5.3125 -5.90625 C 5.5 -5.3125 5.78125 -4.789062 6.15625 -4.34375 C 6.53125 -3.894531 6.992188 -3.539062 7.546875 -3.28125 C 8.097656 -3.03125 8.738281 -2.90625 9.46875 -2.90625 Z M 9.46875 -2.90625 "/></g></g></g><g fill="#ffffff" fill-opacity="1"><g transform="translate(160.783231, 19.745893)"><g><path d="M 1.796875 -15.671875 L 8.515625 -15.671875 C 10.765625 -15.671875 12.394531 -15.253906 13.40625 -14.421875 C 14.425781 -13.585938 14.9375 -12.3125 14.9375 -10.59375 C 14.9375 -9.65625 14.785156 -8.894531 14.484375 -8.3125 C 14.179688 -7.726562 13.863281 -7.269531 13.53125 -6.9375 C 13.125 -6.550781 12.660156 -6.269531 12.140625 -6.09375 L 16.03125 0 L 12.046875 0 L 8.59375 -5.390625 L 5.328125 -5.390625 L 5.328125 0 L 1.796875 0 Z M 8.515625 -8.375 C 9.421875 -8.375 10.097656 -8.539062 10.546875 -8.875 C 11.003906 -9.207031 11.234375 -9.757812 11.234375 -10.53125 C 11.234375 -11.300781 11.003906 -11.851562 10.546875 -12.1875 C 10.085938 -12.53125 9.410156 -12.703125 8.515625 -12.703125 L 5.328125 -12.703125 L 5.328125 -8.375 Z M 8.515625 -8.375 "/></g></g></g><g fill="#ffffff" fill-opacity="1"><g transform="translate(179.610307, 19.745893)"><g><path d="M 1.796875 -15.671875 L 14.640625 -15.671875 L 14.640625 -12.703125 L 5.328125 -12.703125 L 5.328125 -9.46875 L 13.1875 -9.46875 L 13.1875 -6.609375 L 5.328125 -6.609375 L 5.328125 -2.984375 L 14.640625 -2.984375 L 14.640625 0 L 1.796875 0 Z M 1.796875 -15.671875 "/></g></g></g></g></g></svg>