<svg xmlns="http://www.w3.org/2000/svg" xmlns:xlink="http://www.w3.org/1999/xlink" width="500" zoomAndPan="magnify" viewBox="0 0 375 374.999991" height="500" preserveAspectRatio="xMidYMid meet" version="1.0"><defs><g/><clipPath id="dc22492ca3"><path d="M 18 141.445312 L 46 141.445312 L 46 169 L 18 169 Z M 18 141.445312 " clip-rule="nonzero"/></clipPath><clipPath id="b0caf1b935"><path d="M 64 206 L 92 206 L 92 233.695312 L 64 233.695312 Z M 64 206 " clip-rule="nonzero"/></clipPath><clipPath id="f227609260"><path d="M 16.601562 142 L 93.101562 142 L 93.101562 205 L 16.601562 205 Z M 16.601562 142 " clip-rule="nonzero"/></clipPath><clipPath id="ab447422a0"><path d="M 16.601562 170 L 93.101562 170 L 93.101562 233.695312 L 16.601562 233.695312 Z M 16.601562 170 " clip-rule="nonzero"/></clipPath><clipPath id="7e085b231f"><rect x="0" width="254" y="0" height="117"/></clipPath></defs><g clip-path="url(#dc22492ca3)"><path fill="#ffffff" d="M 45.558594 155 C 45.558594 155.890625 45.472656 156.769531 45.296875 157.644531 C 45.125 158.515625 44.867188 159.363281 44.527344 160.1875 C 44.183594 161.007812 43.765625 161.789062 43.273438 162.53125 C 42.777344 163.269531 42.214844 163.957031 41.585938 164.585938 C 40.957031 165.214844 40.273438 165.777344 39.53125 166.269531 C 38.792969 166.765625 38.011719 167.183594 37.191406 167.523438 C 36.367188 167.863281 35.519531 168.121094 34.648438 168.292969 C 33.773438 168.46875 32.890625 168.554688 32.003906 168.554688 C 31.113281 168.554688 30.230469 168.46875 29.359375 168.292969 C 28.484375 168.121094 27.636719 167.863281 26.816406 167.523438 C 25.992188 167.183594 25.210938 166.765625 24.472656 166.269531 C 23.730469 165.777344 23.046875 165.214844 22.417969 164.585938 C 21.789062 163.957031 21.226562 163.269531 20.730469 162.53125 C 20.238281 161.789062 19.820312 161.007812 19.480469 160.1875 C 19.136719 159.363281 18.878906 158.515625 18.707031 157.644531 C 18.535156 156.769531 18.445312 155.890625 18.445312 155 C 18.445312 154.109375 18.535156 153.226562 18.707031 152.355469 C 18.878906 151.480469 19.136719 150.632812 19.480469 149.8125 C 19.820312 148.988281 20.238281 148.207031 20.730469 147.46875 C 21.226562 146.726562 21.789062 146.042969 22.417969 145.414062 C 23.046875 144.785156 23.730469 144.222656 24.472656 143.726562 C 25.210938 143.234375 25.992188 142.816406 26.816406 142.476562 C 27.636719 142.136719 28.484375 141.878906 29.359375 141.703125 C 30.230469 141.53125 31.113281 141.445312 32.003906 141.445312 C 32.890625 141.445312 33.773438 141.53125 34.648438 141.703125 C 35.519531 141.878906 36.367188 142.136719 37.191406 142.476562 C 38.011719 142.816406 38.792969 143.234375 39.53125 143.726562 C 40.273438 144.222656 40.957031 144.785156 41.585938 145.414062 C 42.214844 146.042969 42.777344 146.726562 43.273438 147.46875 C 43.765625 148.207031 44.183594 148.988281 44.527344 149.8125 C 44.867188 150.632812 45.125 151.480469 45.296875 152.355469 C 45.472656 153.226562 45.558594 154.109375 45.558594 155 Z M 45.558594 155 " fill-opacity="1" fill-rule="nonzero"/></g><g clip-path="url(#b0caf1b935)"><path fill="#ffffff" d="M 91.546875 219.996094 C 91.546875 220.886719 91.457031 221.769531 91.285156 222.640625 C 91.113281 223.515625 90.855469 224.363281 90.515625 225.183594 C 90.171875 226.007812 89.753906 226.789062 89.261719 227.527344 C 88.765625 228.269531 88.203125 228.953125 87.574219 229.582031 C 86.945312 230.210938 86.261719 230.773438 85.519531 231.269531 C 84.78125 231.761719 84 232.179688 83.175781 232.519531 C 82.355469 232.863281 81.507812 233.121094 80.636719 233.292969 C 79.761719 233.464844 78.878906 233.554688 77.992188 233.554688 C 77.101562 233.554688 76.21875 233.464844 75.347656 233.292969 C 74.472656 233.121094 73.625 232.863281 72.804688 232.519531 C 71.980469 232.179688 71.199219 231.761719 70.460938 231.269531 C 69.71875 230.773438 69.035156 230.210938 68.40625 229.582031 C 67.777344 228.953125 67.214844 228.269531 66.71875 227.527344 C 66.226562 226.789062 65.808594 226.007812 65.464844 225.183594 C 65.125 224.363281 64.867188 223.515625 64.695312 222.640625 C 64.523438 221.769531 64.433594 220.886719 64.433594 219.996094 C 64.433594 219.109375 64.523438 218.226562 64.695312 217.351562 C 64.867188 216.480469 65.125 215.632812 65.464844 214.808594 C 65.808594 213.988281 66.226562 213.207031 66.71875 212.46875 C 67.214844 211.726562 67.777344 211.042969 68.40625 210.414062 C 69.035156 209.785156 69.71875 209.222656 70.460938 208.726562 C 71.199219 208.230469 71.980469 207.816406 72.804688 207.472656 C 73.625 207.132812 74.472656 206.875 75.347656 206.703125 C 76.21875 206.527344 77.101562 206.441406 77.992188 206.441406 C 78.878906 206.441406 79.761719 206.527344 80.636719 206.703125 C 81.507812 206.875 82.355469 207.132812 83.175781 207.472656 C 84 207.816406 84.78125 208.230469 85.519531 208.726562 C 86.261719 209.222656 86.945312 209.785156 87.574219 210.414062 C 88.203125 211.042969 88.765625 211.726562 89.261719 212.46875 C 89.753906 213.207031 90.171875 213.988281 90.515625 214.808594 C 90.855469 215.632812 91.113281 216.480469 91.285156 217.351562 C 91.457031 218.226562 91.546875 219.109375 91.546875 219.996094 Z M 91.546875 219.996094 " fill-opacity="1" fill-rule="nonzero"/></g><g clip-path="url(#f227609260)"><path fill="#ffffff" d="M 16.621094 186.816406 L 16.621094 204.789062 L 93.378906 159.976562 L 93.378906 142.015625 Z M 16.621094 186.816406 " fill-opacity="1" fill-rule="nonzero"/></g><g clip-path="url(#ab447422a0)"><path fill="#ffffff" d="M 16.621094 233.003906 L 93.378906 188.195312 L 93.378906 170.242188 L 16.621094 215.042969 Z M 16.621094 233.003906 " fill-opacity="1" fill-rule="nonzero"/></g><g transform="matrix(1, 0, 0, 1, 105, 129)"><g clip-path="url(#7e085b231f)"><g fill="#ffffff" fill-opacity="1"><g transform="translate(0.428772, 49.969714)"><g><path d="M 3.421875 0 L 3.421875 -35.296875 L 16.484375 -35.296875 C 19.304688 -35.296875 21.640625 -34.820312 23.484375 -33.875 C 25.335938 -32.9375 26.71875 -31.644531 27.625 -30 C 28.539062 -28.351562 29 -26.503906 29 -24.453125 C 29 -22.503906 28.5625 -20.710938 27.6875 -19.078125 C 26.8125 -17.453125 25.445312 -16.144531 23.59375 -15.15625 C 21.75 -14.164062 19.378906 -13.671875 16.484375 -13.671875 L 9.875 -13.671875 L 9.875 0 Z M 9.875 -18.90625 L 16.078125 -18.90625 C 18.335938 -18.90625 19.960938 -19.398438 20.953125 -20.390625 C 21.941406 -21.390625 22.4375 -22.742188 22.4375 -24.453125 C 22.4375 -26.203125 21.941406 -27.570312 20.953125 -28.5625 C 19.960938 -29.550781 18.335938 -30.046875 16.078125 -30.046875 L 9.875 -30.046875 Z M 9.875 -18.90625 "/></g></g></g><g fill="#ffffff" fill-opacity="1"><g transform="translate(28.009229, 49.969714)"><g><path d="M 11.90625 0.609375 C 9.75 0.609375 7.976562 0.265625 6.59375 -0.421875 C 5.21875 -1.117188 4.191406 -2.035156 3.515625 -3.171875 C 2.847656 -4.316406 2.515625 -5.578125 2.515625 -6.953125 C 2.515625 -9.273438 3.421875 -11.160156 5.234375 -12.609375 C 7.054688 -14.054688 9.78125 -14.78125 13.40625 -14.78125 L 19.765625 -14.78125 L 19.765625 -15.375 C 19.765625 -17.09375 19.273438 -18.351562 18.296875 -19.15625 C 17.328125 -19.96875 16.117188 -20.375 14.671875 -20.375 C 13.359375 -20.375 12.210938 -20.0625 11.234375 -19.4375 C 10.265625 -18.8125 9.660156 -17.894531 9.421875 -16.6875 L 3.125 -16.6875 C 3.289062 -18.5 3.90625 -20.078125 4.96875 -21.421875 C 6.03125 -22.773438 7.398438 -23.8125 9.078125 -24.53125 C 10.753906 -25.25 12.632812 -25.609375 14.71875 -25.609375 C 18.28125 -25.609375 21.085938 -24.71875 23.140625 -22.9375 C 25.191406 -21.15625 26.21875 -18.632812 26.21875 -15.375 L 26.21875 0 L 20.71875 0 L 20.125 -4.03125 C 19.382812 -2.6875 18.347656 -1.578125 17.015625 -0.703125 C 15.691406 0.171875 13.988281 0.609375 11.90625 0.609375 Z M 13.359375 -4.4375 C 15.210938 -4.4375 16.648438 -5.039062 17.671875 -6.25 C 18.691406 -7.457031 19.335938 -8.953125 19.609375 -10.734375 L 14.125 -10.734375 C 12.40625 -10.734375 11.175781 -10.421875 10.4375 -9.796875 C 9.695312 -9.179688 9.328125 -8.421875 9.328125 -7.515625 C 9.328125 -6.535156 9.695312 -5.773438 10.4375 -5.234375 C 11.175781 -4.703125 12.148438 -4.4375 13.359375 -4.4375 Z M 13.359375 -4.4375 "/></g></g></g><g fill="#ffffff" fill-opacity="1"><g transform="translate(54.077028, 49.969714)"><g><path d="M 3.28125 0 L 3.28125 -25.015625 L 9.03125 -25.015625 L 9.625 -20.3125 C 10.53125 -21.925781 11.765625 -23.210938 13.328125 -24.171875 C 14.898438 -25.128906 16.742188 -25.609375 18.859375 -25.609375 L 18.859375 -18.8125 L 17.046875 -18.8125 C 15.628906 -18.8125 14.363281 -18.59375 13.25 -18.15625 C 12.144531 -17.71875 11.28125 -16.957031 10.65625 -15.875 C 10.039062 -14.800781 9.734375 -13.304688 9.734375 -11.390625 L 9.734375 0 Z M 3.28125 0 "/></g></g></g><g fill="#ffffff" fill-opacity="1"><g transform="translate(71.018475, 49.969714)"><g><path d="M 14.421875 0 C 11.796875 0 9.691406 -0.632812 8.109375 -1.90625 C 6.535156 -3.1875 5.75 -5.457031 5.75 -8.71875 L 5.75 -19.609375 L 1.46875 -19.609375 L 1.46875 -25.015625 L 5.75 -25.015625 L 6.5 -31.71875 L 12.203125 -31.71875 L 12.203125 -25.015625 L 18.953125 -25.015625 L 18.953125 -19.609375 L 12.203125 -19.609375 L 12.203125 -8.671875 C 12.203125 -7.460938 12.460938 -6.628906 12.984375 -6.171875 C 13.503906 -5.722656 14.40625 -5.5 15.6875 -5.5 L 18.8125 -5.5 L 18.8125 0 Z M 14.421875 0 "/></g></g></g><g fill="#ffffff" fill-opacity="1"><g transform="translate(89.220457, 49.969714)"><g><path d="M 3.28125 0 L 3.28125 -25.015625 L 8.96875 -25.015625 L 9.484375 -20.78125 C 10.253906 -22.257812 11.367188 -23.429688 12.828125 -24.296875 C 14.296875 -25.171875 16.019531 -25.609375 18 -25.609375 C 21.09375 -25.609375 23.492188 -24.632812 25.203125 -22.6875 C 26.921875 -20.738281 27.78125 -17.882812 27.78125 -14.125 L 27.78125 0 L 21.328125 0 L 21.328125 -13.515625 C 21.328125 -15.660156 20.890625 -17.304688 20.015625 -18.453125 C 19.140625 -19.597656 17.78125 -20.171875 15.9375 -20.171875 C 14.113281 -20.171875 12.625 -19.53125 11.46875 -18.25 C 10.3125 -16.976562 9.734375 -15.195312 9.734375 -12.90625 L 9.734375 0 Z M 3.28125 0 "/></g></g></g><g fill="#ffffff" fill-opacity="1"><g transform="translate(116.851337, 49.969714)"><g><path d="M 15.421875 0.609375 C 12.898438 0.609375 10.664062 0.0703125 8.71875 -1 C 6.769531 -2.082031 5.238281 -3.597656 4.125 -5.546875 C 3.019531 -7.492188 2.46875 -9.742188 2.46875 -12.296875 C 2.46875 -14.890625 3.015625 -17.191406 4.109375 -19.203125 C 5.203125 -21.222656 6.710938 -22.796875 8.640625 -23.921875 C 10.578125 -25.046875 12.859375 -25.609375 15.484375 -25.609375 C 17.929688 -25.609375 20.097656 -25.070312 21.984375 -24 C 23.867188 -22.925781 25.335938 -21.457031 26.390625 -19.59375 C 27.453125 -17.726562 27.984375 -15.648438 27.984375 -13.359375 C 27.984375 -12.992188 27.972656 -12.609375 27.953125 -12.203125 C 27.941406 -11.796875 27.921875 -11.375 27.890625 -10.9375 L 8.875 -10.9375 C 9.007812 -8.988281 9.6875 -7.457031 10.90625 -6.34375 C 12.132812 -5.238281 13.625 -4.6875 15.375 -4.6875 C 16.6875 -4.6875 17.785156 -4.976562 18.671875 -5.5625 C 19.566406 -6.15625 20.234375 -6.921875 20.671875 -7.859375 L 27.234375 -7.859375 C 26.753906 -6.285156 25.96875 -4.847656 24.875 -3.546875 C 23.789062 -2.253906 22.445312 -1.238281 20.84375 -0.5 C 19.25 0.238281 17.441406 0.609375 15.421875 0.609375 Z M 15.484375 -20.375 C 13.898438 -20.375 12.503906 -19.925781 11.296875 -19.03125 C 10.085938 -18.144531 9.3125 -16.789062 8.96875 -14.96875 L 21.421875 -14.96875 C 21.328125 -16.625 20.722656 -17.9375 19.609375 -18.90625 C 18.503906 -19.882812 17.128906 -20.375 15.484375 -20.375 Z M 15.484375 -20.375 "/></g></g></g><g fill="#ffffff" fill-opacity="1"><g transform="translate(143.977999, 49.969714)"><g><path d="M 3.28125 0 L 3.28125 -25.015625 L 9.03125 -25.015625 L 9.625 -20.3125 C 10.53125 -21.925781 11.765625 -23.210938 13.328125 -24.171875 C 14.898438 -25.128906 16.742188 -25.609375 18.859375 -25.609375 L 18.859375 -18.8125 L 17.046875 -18.8125 C 15.628906 -18.8125 14.363281 -18.59375 13.25 -18.15625 C 12.144531 -17.71875 11.28125 -16.957031 10.65625 -15.875 C 10.039062 -14.800781 9.734375 -13.304688 9.734375 -11.390625 L 9.734375 0 Z M 3.28125 0 "/></g></g></g><g fill="#ffffff" fill-opacity="1"><g transform="translate(160.919446, 49.969714)"><g><path d="M 13.609375 0.609375 C 11.390625 0.609375 9.441406 0.25 7.765625 -0.46875 C 6.085938 -1.195312 4.742188 -2.195312 3.734375 -3.46875 C 2.722656 -4.75 2.117188 -6.234375 1.921875 -7.921875 L 8.421875 -7.921875 C 8.617188 -6.941406 9.160156 -6.109375 10.046875 -5.421875 C 10.941406 -4.734375 12.097656 -4.390625 13.515625 -4.390625 C 14.921875 -4.390625 15.953125 -4.671875 16.609375 -5.234375 C 17.265625 -5.804688 17.59375 -6.460938 17.59375 -7.203125 C 17.59375 -8.285156 17.125 -9.019531 16.1875 -9.40625 C 15.25 -9.789062 13.9375 -10.164062 12.25 -10.53125 C 11.175781 -10.769531 10.082031 -11.054688 8.96875 -11.390625 C 7.863281 -11.734375 6.847656 -12.164062 5.921875 -12.6875 C 4.992188 -13.207031 4.242188 -13.878906 3.671875 -14.703125 C 3.109375 -15.523438 2.828125 -16.539062 2.828125 -17.75 C 2.828125 -19.96875 3.707031 -21.832031 5.46875 -23.34375 C 7.238281 -24.851562 9.71875 -25.609375 12.90625 -25.609375 C 15.863281 -25.609375 18.222656 -24.921875 19.984375 -23.546875 C 21.753906 -22.171875 22.804688 -20.269531 23.140625 -17.84375 L 17.046875 -17.84375 C 16.671875 -19.695312 15.273438 -20.625 12.859375 -20.625 C 11.648438 -20.625 10.71875 -20.382812 10.0625 -19.90625 C 9.40625 -19.4375 9.078125 -18.851562 9.078125 -18.15625 C 9.078125 -17.414062 9.5625 -16.828125 10.53125 -16.390625 C 11.507812 -15.953125 12.804688 -15.546875 14.421875 -15.171875 C 16.171875 -14.773438 17.773438 -14.332031 19.234375 -13.84375 C 20.691406 -13.351562 21.859375 -12.628906 22.734375 -11.671875 C 23.609375 -10.710938 24.046875 -9.34375 24.046875 -7.5625 C 24.085938 -6.019531 23.6875 -4.625 22.84375 -3.375 C 22 -2.132812 20.785156 -1.160156 19.203125 -0.453125 C 17.628906 0.253906 15.765625 0.609375 13.609375 0.609375 Z M 13.609375 0.609375 "/></g></g></g><g fill="#ffffff" fill-opacity="1"><g transform="translate(184.365302, 49.969714)"><g><path d="M 3.28125 0 L 3.28125 -36.296875 L 9.734375 -36.296875 L 9.734375 -21.171875 C 10.566406 -22.554688 11.695312 -23.640625 13.125 -24.421875 C 14.5625 -25.210938 16.203125 -25.609375 18.046875 -25.609375 C 21.140625 -25.609375 23.535156 -24.632812 25.234375 -22.6875 C 26.929688 -20.738281 27.78125 -17.882812 27.78125 -14.125 L 27.78125 0 L 21.375 0 L 21.375 -13.515625 C 21.375 -15.660156 20.945312 -17.304688 20.09375 -18.453125 C 19.238281 -19.597656 17.882812 -20.171875 16.03125 -20.171875 C 14.21875 -20.171875 12.710938 -19.53125 11.515625 -18.25 C 10.328125 -16.976562 9.734375 -15.195312 9.734375 -12.90625 L 9.734375 0 Z M 3.28125 0 "/></g></g></g><g fill="#ffffff" fill-opacity="1"><g transform="translate(211.996183, 49.969714)"><g><path d="M 6.75 -28.890625 C 5.570312 -28.890625 4.601562 -29.242188 3.84375 -29.953125 C 3.09375 -30.660156 2.71875 -31.550781 2.71875 -32.625 C 2.71875 -33.695312 3.09375 -34.578125 3.84375 -35.265625 C 4.601562 -35.953125 5.570312 -36.296875 6.75 -36.296875 C 7.925781 -36.296875 8.894531 -35.953125 9.65625 -35.265625 C 10.414062 -34.578125 10.796875 -33.695312 10.796875 -32.625 C 10.796875 -31.550781 10.414062 -30.660156 9.65625 -29.953125 C 8.894531 -29.242188 7.925781 -28.890625 6.75 -28.890625 Z M 3.53125 0 L 3.53125 -25.015625 L 9.984375 -25.015625 L 9.984375 0 Z M 3.53125 0 "/></g></g></g><g fill="#ffffff" fill-opacity="1"><g transform="translate(222.433208, 49.969714)"><g><path d="M 3.28125 11.09375 L 3.28125 -25.015625 L 9.03125 -25.015625 L 9.734375 -21.421875 C 10.535156 -22.535156 11.597656 -23.507812 12.921875 -24.34375 C 14.253906 -25.1875 15.976562 -25.609375 18.09375 -25.609375 C 20.445312 -25.609375 22.546875 -25.035156 24.390625 -23.890625 C 26.242188 -22.753906 27.707031 -21.191406 28.78125 -19.203125 C 29.863281 -17.222656 30.40625 -14.972656 30.40625 -12.453125 C 30.40625 -9.929688 29.863281 -7.6875 28.78125 -5.71875 C 27.707031 -3.75 26.242188 -2.203125 24.390625 -1.078125 C 22.546875 0.046875 20.445312 0.609375 18.09375 0.609375 C 16.21875 0.609375 14.570312 0.253906 13.15625 -0.453125 C 11.75 -1.160156 10.609375 -2.148438 9.734375 -3.421875 L 9.734375 11.09375 Z M 16.734375 -5.046875 C 18.785156 -5.046875 20.484375 -5.734375 21.828125 -7.109375 C 23.171875 -8.484375 23.84375 -10.265625 23.84375 -12.453125 C 23.84375 -14.640625 23.171875 -16.4375 21.828125 -17.84375 C 20.484375 -19.257812 18.785156 -19.96875 16.734375 -19.96875 C 14.648438 -19.96875 12.941406 -19.269531 11.609375 -17.875 C 10.285156 -16.476562 9.625 -14.6875 9.625 -12.5 C 9.625 -10.320312 10.285156 -8.535156 11.609375 -7.140625 C 12.941406 -5.742188 14.648438 -5.046875 16.734375 -5.046875 Z M 16.734375 -5.046875 "/></g></g></g><g fill="#ffffff" fill-opacity="1"><g transform="translate(0.428772, 100.298205)"><g><path d="M 1.15625 0 L 14.0625 -35.296875 L 21.328125 -35.296875 L 34.234375 0 L 27.375 0 L 24.5625 -8.171875 L 10.796875 -8.171875 L 7.921875 0 Z M 12.5625 -13.203125 L 22.796875 -13.203125 L 17.640625 -27.890625 Z M 12.5625 -13.203125 "/></g></g></g><g fill="#ffffff" fill-opacity="1"><g transform="translate(32.748884, 100.298205)"><g><path d="M 14.78125 0.609375 C 12.425781 0.609375 10.320312 0.0351562 8.46875 -1.109375 C 6.625 -2.253906 5.160156 -3.816406 4.078125 -5.796875 C 3.003906 -7.773438 2.46875 -10.03125 2.46875 -12.5625 C 2.46875 -15.082031 3.003906 -17.320312 4.078125 -19.28125 C 5.160156 -21.25 6.625 -22.796875 8.46875 -23.921875 C 10.320312 -25.046875 12.425781 -25.609375 14.78125 -25.609375 C 16.65625 -25.609375 18.296875 -25.253906 19.703125 -24.546875 C 21.117188 -23.847656 22.265625 -22.859375 23.140625 -21.578125 L 23.140625 -36.296875 L 29.59375 -36.296875 L 29.59375 0 L 23.84375 0 L 23.140625 -3.578125 C 22.335938 -2.472656 21.269531 -1.5 19.9375 -0.65625 C 18.613281 0.1875 16.894531 0.609375 14.78125 0.609375 Z M 16.140625 -5.046875 C 18.222656 -5.046875 19.925781 -5.742188 21.25 -7.140625 C 22.582031 -8.535156 23.25 -10.320312 23.25 -12.5 C 23.25 -14.6875 22.582031 -16.476562 21.25 -17.875 C 19.925781 -19.269531 18.222656 -19.96875 16.140625 -19.96875 C 14.085938 -19.96875 12.390625 -19.273438 11.046875 -17.890625 C 9.703125 -16.515625 9.03125 -14.738281 9.03125 -12.5625 C 9.03125 -10.375 9.703125 -8.570312 11.046875 -7.15625 C 12.390625 -5.75 14.085938 -5.046875 16.140625 -5.046875 Z M 16.140625 -5.046875 "/></g></g></g><g fill="#ffffff" fill-opacity="1"><g transform="translate(62.598325, 100.298205)"><g><path d="M 10.03125 0 L 0.859375 -25.015625 L 7.609375 -25.015625 L 13.96875 -6.09375 L 20.3125 -25.015625 L 27.078125 -25.015625 L 17.84375 0 Z M 10.03125 0 "/></g></g></g><g fill="#ffffff" fill-opacity="1"><g transform="translate(87.456002, 100.298205)"><g><path d="M 6.75 -28.890625 C 5.570312 -28.890625 4.601562 -29.242188 3.84375 -29.953125 C 3.09375 -30.660156 2.71875 -31.550781 2.71875 -32.625 C 2.71875 -33.695312 3.09375 -34.578125 3.84375 -35.265625 C 4.601562 -35.953125 5.570312 -36.296875 6.75 -36.296875 C 7.925781 -36.296875 8.894531 -35.953125 9.65625 -35.265625 C 10.414062 -34.578125 10.796875 -33.695312 10.796875 -32.625 C 10.796875 -31.550781 10.414062 -30.660156 9.65625 -29.953125 C 8.894531 -29.242188 7.925781 -28.890625 6.75 -28.890625 Z M 3.53125 0 L 3.53125 -25.015625 L 9.984375 -25.015625 L 9.984375 0 Z M 3.53125 0 "/></g></g></g><g fill="#ffffff" fill-opacity="1"><g transform="translate(97.893027, 100.298205)"><g><path d="M 13.609375 0.609375 C 11.390625 0.609375 9.441406 0.25 7.765625 -0.46875 C 6.085938 -1.195312 4.742188 -2.195312 3.734375 -3.46875 C 2.722656 -4.75 2.117188 -6.234375 1.921875 -7.921875 L 8.421875 -7.921875 C 8.617188 -6.941406 9.160156 -6.109375 10.046875 -5.421875 C 10.941406 -4.734375 12.097656 -4.390625 13.515625 -4.390625 C 14.921875 -4.390625 15.953125 -4.671875 16.609375 -5.234375 C 17.265625 -5.804688 17.59375 -6.460938 17.59375 -7.203125 C 17.59375 -8.285156 17.125 -9.019531 16.1875 -9.40625 C 15.25 -9.789062 13.9375 -10.164062 12.25 -10.53125 C 11.175781 -10.769531 10.082031 -11.054688 8.96875 -11.390625 C 7.863281 -11.734375 6.847656 -12.164062 5.921875 -12.6875 C 4.992188 -13.207031 4.242188 -13.878906 3.671875 -14.703125 C 3.109375 -15.523438 2.828125 -16.539062 2.828125 -17.75 C 2.828125 -19.96875 3.707031 -21.832031 5.46875 -23.34375 C 7.238281 -24.851562 9.71875 -25.609375 12.90625 -25.609375 C 15.863281 -25.609375 18.222656 -24.921875 19.984375 -23.546875 C 21.753906 -22.171875 22.804688 -20.269531 23.140625 -17.84375 L 17.046875 -17.84375 C 16.671875 -19.695312 15.273438 -20.625 12.859375 -20.625 C 11.648438 -20.625 10.71875 -20.382812 10.0625 -19.90625 C 9.40625 -19.4375 9.078125 -18.851562 9.078125 -18.15625 C 9.078125 -17.414062 9.5625 -16.828125 10.53125 -16.390625 C 11.507812 -15.953125 12.804688 -15.546875 14.421875 -15.171875 C 16.171875 -14.773438 17.773438 -14.332031 19.234375 -13.84375 C 20.691406 -13.351562 21.859375 -12.628906 22.734375 -11.671875 C 23.609375 -10.710938 24.046875 -9.34375 24.046875 -7.5625 C 24.085938 -6.019531 23.6875 -4.625 22.84375 -3.375 C 22 -2.132812 20.785156 -1.160156 19.203125 -0.453125 C 17.628906 0.253906 15.765625 0.609375 13.609375 0.609375 Z M 13.609375 0.609375 "/></g></g></g><g fill="#ffffff" fill-opacity="1"><g transform="translate(121.338883, 100.298205)"><g><path d="M 15.28125 0.609375 C 12.851562 0.609375 10.671875 0.0546875 8.734375 -1.046875 C 6.804688 -2.160156 5.28125 -3.703125 4.15625 -5.671875 C 3.03125 -7.640625 2.46875 -9.914062 2.46875 -12.5 C 2.46875 -15.09375 3.039062 -17.367188 4.1875 -19.328125 C 5.332031 -21.296875 6.867188 -22.832031 8.796875 -23.9375 C 10.734375 -25.050781 12.910156 -25.609375 15.328125 -25.609375 C 17.710938 -25.609375 19.867188 -25.050781 21.796875 -23.9375 C 23.734375 -22.832031 25.265625 -21.296875 26.390625 -19.328125 C 27.515625 -17.367188 28.078125 -15.09375 28.078125 -12.5 C 28.078125 -9.914062 27.515625 -7.640625 26.390625 -5.671875 C 25.265625 -3.703125 23.726562 -2.160156 21.78125 -1.046875 C 19.832031 0.0546875 17.664062 0.609375 15.28125 0.609375 Z M 15.28125 -4.984375 C 16.957031 -4.984375 18.414062 -5.613281 19.65625 -6.875 C 20.90625 -8.132812 21.53125 -10.007812 21.53125 -12.5 C 21.53125 -14.988281 20.90625 -16.863281 19.65625 -18.125 C 18.414062 -19.382812 16.972656 -20.015625 15.328125 -20.015625 C 13.609375 -20.015625 12.132812 -19.382812 10.90625 -18.125 C 9.6875 -16.863281 9.078125 -14.988281 9.078125 -12.5 C 9.078125 -10.007812 9.6875 -8.132812 10.90625 -6.875 C 12.132812 -5.613281 13.59375 -4.984375 15.28125 -4.984375 Z M 15.28125 -4.984375 "/></g></g></g><g fill="#ffffff" fill-opacity="1"><g transform="translate(148.868915, 100.298205)"><g><path d="M 3.28125 0 L 3.28125 -25.015625 L 9.03125 -25.015625 L 9.625 -20.3125 C 10.53125 -21.925781 11.765625 -23.210938 13.328125 -24.171875 C 14.898438 -25.128906 16.742188 -25.609375 18.859375 -25.609375 L 18.859375 -18.8125 L 17.046875 -18.8125 C 15.628906 -18.8125 14.363281 -18.59375 13.25 -18.15625 C 12.144531 -17.71875 11.28125 -16.957031 10.65625 -15.875 C 10.039062 -14.800781 9.734375 -13.304688 9.734375 -11.390625 L 9.734375 0 Z M 3.28125 0 "/></g></g></g><g fill="#ffffff" fill-opacity="1"><g transform="translate(165.810362, 100.298205)"><g><path d="M 6.046875 0.359375 C 4.867188 0.359375 3.898438 -0.0078125 3.140625 -0.75 C 2.390625 -1.488281 2.015625 -2.378906 2.015625 -3.421875 C 2.015625 -4.503906 2.390625 -5.414062 3.140625 -6.15625 C 3.898438 -6.894531 4.867188 -7.265625 6.046875 -7.265625 C 7.222656 -7.265625 8.1875 -6.894531 8.9375 -6.15625 C 9.695312 -5.414062 10.078125 -4.503906 10.078125 -3.421875 C 10.078125 -2.378906 9.695312 -1.488281 8.9375 -0.75 C 8.1875 -0.0078125 7.222656 0.359375 6.046875 0.359375 Z M 6.046875 0.359375 "/></g></g></g></g></g></svg>