<svg xmlns="http://www.w3.org/2000/svg" xmlns:xlink="http://www.w3.org/1999/xlink" width="500" zoomAndPan="magnify" viewBox="0 0 375 374.999991" height="500" preserveAspectRatio="xMidYMid meet" version="1.0"><defs><g/><clipPath id="d1d0c5fecc"><rect x="0" width="258" y="0" height="95"/></clipPath><clipPath id="701ce986a9"><rect x="0" width="149" y="0" height="95"/></clipPath><clipPath id="e682f007a0"><rect x="0" width="124" y="0" height="198"/></clipPath><clipPath id="692fd93059"><path d="M 310.28125 108.375 L 347.78125 108.375 L 347.78125 145.875 L 310.28125 145.875 Z M 310.28125 108.375 " clip-rule="nonzero"/></clipPath><clipPath id="fdd8c432ff"><path d="M 22.835938 179.609375 L 60.335938 179.609375 L 60.335938 217 L 22.835938 217 Z M 22.835938 179.609375 " clip-rule="nonzero"/></clipPath><clipPath id="1aeaf8f1e3"><rect x="0" width="145" y="0" height="19"/></clipPath></defs><g transform="matrix(1, 0, 0, 1, 65, 177)"><g clip-path="url(#d1d0c5fecc)"><g fill="#ffffff" fill-opacity="1"><g transform="translate(1.365101, 73.322666)"><g><path d="M 1.203125 -2.28125 C 1.203125 -3.164062 1.398438 -3.828125 1.796875 -4.265625 C 2.203125 -4.703125 2.6875 -5.257812 3.25 -5.9375 C 3.8125 -6.625 4.289062 -7.6875 4.6875 -9.125 C 5.09375 -10.570312 5.296875 -12.703125 5.296875 -15.515625 C 5.296875 -19.203125 5.3125 -21.863281 5.34375 -23.5 C 5.382812 -25.144531 5.40625 -26.347656 5.40625 -27.109375 C 5.40625 -27.867188 5.40625 -28.734375 5.40625 -29.703125 C 5.40625 -31.859375 5.0625 -33.359375 4.375 -34.203125 C 3.695312 -35.046875 3.019531 -35.707031 2.34375 -36.1875 C 1.664062 -36.664062 1.328125 -37.425781 1.328125 -38.46875 C 1.328125 -39.675781 1.726562 -40.5 2.53125 -40.9375 C 3.332031 -41.375 4.472656 -41.753906 5.953125 -42.078125 C 7.429688 -42.398438 9.210938 -42.921875 11.296875 -43.640625 C 13.867188 -44.609375 15.632812 -45.472656 16.59375 -46.234375 C 17.550781 -46.992188 18.269531 -47.613281 18.75 -48.09375 C 19.238281 -48.570312 20.003906 -48.8125 21.046875 -48.8125 C 22.484375 -48.8125 23.441406 -48.171875 23.921875 -46.890625 C 24.398438 -45.609375 24.640625 -44.085938 24.640625 -42.328125 L 24.640625 -41.84375 C 24.640625 -39.832031 24.679688 -38.847656 24.765625 -38.890625 C 24.847656 -38.929688 25.410156 -39.832031 26.453125 -41.59375 C 27.816406 -43.925781 29.71875 -45.710938 32.15625 -46.953125 C 34.601562 -48.191406 36.953125 -48.8125 39.203125 -48.8125 C 43.609375 -48.8125 46.453125 -47.867188 47.734375 -45.984375 C 49.015625 -44.109375 49.054688 -41.363281 47.859375 -37.75 C 46.890625 -34.863281 46.023438 -32.878906 45.265625 -31.796875 C 44.503906 -30.710938 43.765625 -30.171875 43.046875 -30.171875 C 42.242188 -30.171875 41.359375 -30.648438 40.390625 -31.609375 C 39.429688 -32.578125 38.367188 -33.519531 37.203125 -34.4375 C 36.046875 -35.363281 34.625 -35.828125 32.9375 -35.828125 C 31.976562 -35.828125 30.835938 -35.503906 29.515625 -34.859375 C 28.191406 -34.222656 27.046875 -33.0625 26.078125 -31.375 C 25.117188 -29.695312 24.640625 -27.332031 24.640625 -24.28125 L 24.640625 -15.515625 C 24.640625 -12.703125 24.835938 -10.570312 25.234375 -9.125 C 25.640625 -7.6875 26.125 -6.625 26.6875 -5.9375 C 27.25 -5.257812 27.726562 -4.703125 28.125 -4.265625 C 28.53125 -3.828125 28.734375 -3.164062 28.734375 -2.28125 C 28.734375 -1.082031 28.269531 -0.285156 27.34375 0.109375 C 26.425781 0.515625 25.285156 0.71875 23.921875 0.71875 C 22.398438 0.71875 20.816406 0.597656 19.171875 0.359375 C 17.535156 0.117188 16.113281 0 14.90625 0 C 13.707031 0 12.285156 0.117188 10.640625 0.359375 C 8.992188 0.597656 7.453125 0.71875 6.015625 0.71875 C 4.648438 0.71875 3.503906 0.515625 2.578125 0.109375 C 1.660156 -0.285156 1.203125 -1.082031 1.203125 -2.28125 Z M 1.203125 -2.28125 "/></g></g></g><g fill="#ffffff" fill-opacity="1"><g transform="translate(51.374442, 73.322666)"><g><path d="M 28.5 0.71875 C 20.476562 0.71875 14.125 -1.460938 9.4375 -5.828125 C 4.75 -10.203125 2.40625 -16.273438 2.40625 -24.046875 C 2.40625 -31.898438 4.75 -37.988281 9.4375 -42.3125 C 14.125 -46.644531 20.476562 -48.8125 28.5 -48.8125 C 36.507812 -48.8125 42.859375 -46.644531 47.546875 -42.3125 C 52.242188 -37.988281 54.59375 -31.898438 54.59375 -24.046875 C 54.59375 -16.273438 52.242188 -10.203125 47.546875 -5.828125 C 42.859375 -1.460938 36.507812 0.71875 28.5 0.71875 Z M 22.25 -24.046875 C 22.25 -20.765625 22.425781 -17.738281 22.78125 -14.96875 C 23.144531 -12.207031 23.785156 -10.023438 24.703125 -8.421875 C 25.628906 -6.816406 26.894531 -6.015625 28.5 -6.015625 C 30.175781 -6.015625 31.472656 -6.816406 32.390625 -8.421875 C 33.316406 -10.023438 33.941406 -12.207031 34.265625 -14.96875 C 34.585938 -17.738281 34.75 -20.765625 34.75 -24.046875 C 34.75 -27.410156 34.585938 -30.453125 34.265625 -33.171875 C 33.941406 -35.898438 33.316406 -38.066406 32.390625 -39.671875 C 31.472656 -41.273438 30.175781 -42.078125 28.5 -42.078125 C 26.894531 -42.078125 25.628906 -41.273438 24.703125 -39.671875 C 23.785156 -38.066406 23.144531 -35.898438 22.78125 -33.171875 C 22.425781 -30.453125 22.25 -27.410156 22.25 -24.046875 Z M 22.25 -24.046875 "/></g></g></g><g fill="#ffffff" fill-opacity="1"><g transform="translate(107.875392, 73.322666)"><g><path d="M 28.5 0.71875 C 20.476562 0.71875 14.125 -1.460938 9.4375 -5.828125 C 4.75 -10.203125 2.40625 -16.273438 2.40625 -24.046875 C 2.40625 -31.898438 4.75 -37.988281 9.4375 -42.3125 C 14.125 -46.644531 20.476562 -48.8125 28.5 -48.8125 C 36.507812 -48.8125 42.859375 -46.644531 47.546875 -42.3125 C 52.242188 -37.988281 54.59375 -31.898438 54.59375 -24.046875 C 54.59375 -16.273438 52.242188 -10.203125 47.546875 -5.828125 C 42.859375 -1.460938 36.507812 0.71875 28.5 0.71875 Z M 22.25 -24.046875 C 22.25 -20.765625 22.425781 -17.738281 22.78125 -14.96875 C 23.144531 -12.207031 23.785156 -10.023438 24.703125 -8.421875 C 25.628906 -6.816406 26.894531 -6.015625 28.5 -6.015625 C 30.175781 -6.015625 31.472656 -6.816406 32.390625 -8.421875 C 33.316406 -10.023438 33.941406 -12.207031 34.265625 -14.96875 C 34.585938 -17.738281 34.75 -20.765625 34.75 -24.046875 C 34.75 -27.410156 34.585938 -30.453125 34.265625 -33.171875 C 33.941406 -35.898438 33.316406 -38.066406 32.390625 -39.671875 C 31.472656 -41.273438 30.175781 -42.078125 28.5 -42.078125 C 26.894531 -42.078125 25.628906 -41.273438 24.703125 -39.671875 C 23.785156 -38.066406 23.144531 -35.898438 22.78125 -33.171875 C 22.425781 -30.453125 22.25 -27.410156 22.25 -24.046875 Z M 22.25 -24.046875 "/></g></g></g><g fill="#ffffff" fill-opacity="1"><g transform="translate(164.376343, 73.322666)"><g><path d="M 15.515625 0 C 14.304688 0 12.878906 0.117188 11.234375 0.359375 C 9.597656 0.597656 8.054688 0.71875 6.609375 0.71875 C 5.242188 0.71875 4.097656 0.515625 3.171875 0.109375 C 2.253906 -0.285156 1.796875 -1.082031 1.796875 -2.28125 C 1.796875 -3.164062 1.992188 -3.828125 2.390625 -4.265625 C 2.796875 -4.703125 3.28125 -5.257812 3.84375 -5.9375 C 4.40625 -6.625 4.882812 -7.6875 5.28125 -9.125 C 5.6875 -10.570312 5.890625 -12.703125 5.890625 -15.515625 C 5.890625 -19.203125 5.910156 -21.863281 5.953125 -23.5 C 5.992188 -25.144531 6.015625 -26.347656 6.015625 -27.109375 C 6.015625 -27.867188 6.015625 -28.734375 6.015625 -29.703125 C 6.015625 -31.859375 5.671875 -33.359375 4.984375 -34.203125 C 4.304688 -35.046875 3.625 -35.707031 2.9375 -36.1875 C 2.257812 -36.664062 1.921875 -37.425781 1.921875 -38.46875 C 1.921875 -39.675781 2.320312 -40.5 3.125 -40.9375 C 3.925781 -41.375 5.066406 -41.753906 6.546875 -42.078125 C 8.035156 -42.398438 9.820312 -42.921875 11.90625 -43.640625 C 14.46875 -44.609375 16.226562 -45.472656 17.1875 -46.234375 C 18.15625 -46.992188 18.878906 -47.613281 19.359375 -48.09375 C 19.835938 -48.570312 20.597656 -48.8125 21.640625 -48.8125 C 23.085938 -48.8125 24.050781 -48.171875 24.53125 -46.890625 C 25.007812 -45.609375 25.25 -44.085938 25.25 -42.328125 L 25.25 -41.359375 C 25.25 -40.234375 25.445312 -39.671875 25.84375 -39.671875 C 26.25 -39.671875 26.890625 -40.128906 27.765625 -41.046875 C 28.648438 -41.972656 29.796875 -43.035156 31.203125 -44.234375 C 32.609375 -45.441406 34.289062 -46.503906 36.25 -47.421875 C 38.21875 -48.347656 40.441406 -48.8125 42.921875 -48.8125 C 45.410156 -48.8125 47.453125 -48.347656 49.046875 -47.421875 C 50.648438 -46.503906 51.910156 -45.441406 52.828125 -44.234375 C 53.753906 -43.035156 54.5 -41.972656 55.0625 -41.046875 C 55.625 -40.128906 56.066406 -39.671875 56.390625 -39.671875 C 56.953125 -39.671875 57.671875 -40.113281 58.546875 -41 C 59.429688 -41.882812 60.554688 -42.945312 61.921875 -44.1875 C 63.285156 -45.425781 64.945312 -46.503906 66.90625 -47.421875 C 68.875 -48.347656 71.21875 -48.8125 73.9375 -48.8125 C 77.707031 -48.8125 80.550781 -48.007812 82.46875 -46.40625 C 84.394531 -44.800781 85.695312 -42.796875 86.375 -40.390625 C 87.0625 -37.992188 87.40625 -35.550781 87.40625 -33.0625 L 87.40625 -15.515625 C 87.40625 -12.703125 87.601562 -10.570312 88 -9.125 C 88.40625 -7.6875 88.867188 -6.625 89.390625 -5.9375 C 89.910156 -5.257812 90.390625 -4.703125 90.828125 -4.265625 C 91.273438 -3.828125 91.5 -3.164062 91.5 -2.28125 C 91.5 -1.082031 91.15625 -0.285156 90.46875 0.109375 C 89.789062 0.515625 88.890625 0.71875 87.765625 0.71875 C 86.648438 0.71875 85.347656 0.597656 83.859375 0.359375 C 82.378906 0.117188 80.957031 0 79.59375 0 C 78.3125 0 77.207031 0.0546875 76.28125 0.171875 C 75.363281 0.296875 74.382812 0.4375 73.34375 0.59375 C 71.738281 0.757812 70.4375 0.40625 69.4375 -0.46875 C 68.4375 -1.351562 67.9375 -2.597656 67.9375 -4.203125 L 67.9375 -23.921875 C 67.9375 -27.773438 67.550781 -30.703125 66.78125 -32.703125 C 66.019531 -34.703125 64.597656 -35.703125 62.515625 -35.703125 C 60.835938 -35.703125 59.394531 -34.960938 58.1875 -33.484375 C 56.988281 -32.003906 56.390625 -29.019531 56.390625 -24.53125 L 56.390625 -15.515625 C 56.390625 -12.703125 56.585938 -10.570312 56.984375 -9.125 C 57.390625 -7.6875 57.875 -6.625 58.4375 -5.9375 C 59 -5.257812 59.476562 -4.703125 59.875 -4.265625 C 60.28125 -3.828125 60.484375 -3.164062 60.484375 -2.28125 C 60.484375 -1.082031 60.140625 -0.285156 59.453125 0.109375 C 58.773438 0.515625 57.875 0.71875 56.75 0.71875 C 55.625 0.71875 54.320312 0.597656 52.84375 0.359375 C 51.363281 0.117188 49.941406 0 48.578125 0 C 47.296875 0 46.191406 0.0546875 45.265625 0.171875 C 44.347656 0.296875 43.367188 0.4375 42.328125 0.59375 C 40.722656 0.757812 39.414062 0.40625 38.40625 -0.46875 C 37.40625 -1.351562 36.90625 -2.597656 36.90625 -4.203125 L 36.90625 -23.921875 C 36.90625 -27.773438 36.503906 -30.703125 35.703125 -32.703125 C 34.898438 -34.703125 33.457031 -35.703125 31.375 -35.703125 C 29.53125 -35.703125 28.046875 -34.757812 26.921875 -32.875 C 25.804688 -31 25.25 -27.132812 25.25 -21.28125 L 25.25 -15.515625 C 25.25 -12.703125 25.445312 -10.570312 25.84375 -9.125 C 26.25 -7.6875 26.734375 -6.625 27.296875 -5.9375 C 27.859375 -5.257812 28.335938 -4.703125 28.734375 -4.265625 C 29.140625 -3.828125 29.34375 -3.164062 29.34375 -2.28125 C 29.34375 -1.082031 28.878906 -0.285156 27.953125 0.109375 C 27.035156 0.515625 25.894531 0.71875 24.53125 0.71875 C 23.007812 0.71875 21.425781 0.597656 19.78125 0.359375 C 18.132812 0.117188 16.710938 0 15.515625 0 Z M 15.515625 0 "/></g></g></g></g></g><g transform="matrix(1, 0, 0, 1, 63, 118)"><g clip-path="url(#701ce986a9)"><g fill="#ffffff" fill-opacity="1"><g transform="translate(1.204756, 73.381391)"><g><path d="M 15.3125 0 C 14.125 0 12.71875 0.117188 11.09375 0.359375 C 9.476562 0.597656 7.957031 0.71875 6.53125 0.71875 C 5.1875 0.71875 4.054688 0.519531 3.140625 0.125 C 2.234375 -0.269531 1.78125 -1.0625 1.78125 -2.25 C 1.78125 -3.125 1.976562 -3.78125 2.375 -4.21875 C 2.769531 -4.65625 3.242188 -5.207031 3.796875 -5.875 C 4.347656 -6.550781 4.820312 -7.597656 5.21875 -9.015625 C 5.613281 -10.441406 5.8125 -12.539062 5.8125 -15.3125 C 5.8125 -18.957031 5.832031 -21.585938 5.875 -23.203125 C 5.914062 -24.828125 5.9375 -26.015625 5.9375 -26.765625 C 5.9375 -27.523438 5.9375 -28.378906 5.9375 -29.328125 C 5.9375 -31.460938 5.597656 -32.945312 4.921875 -33.78125 C 4.253906 -34.613281 3.582031 -35.265625 2.90625 -35.734375 C 2.238281 -36.210938 1.90625 -36.96875 1.90625 -38 C 1.90625 -39.1875 2.300781 -39.992188 3.09375 -40.421875 C 3.882812 -40.859375 5.007812 -41.234375 6.46875 -41.546875 C 7.9375 -41.867188 9.695312 -42.382812 11.75 -43.09375 C 14.28125 -44.050781 16.019531 -44.90625 16.96875 -45.65625 C 17.925781 -46.40625 18.640625 -47.015625 19.109375 -47.484375 C 19.585938 -47.960938 20.34375 -48.203125 21.375 -48.203125 C 22.800781 -48.203125 23.75 -47.566406 24.21875 -46.296875 C 24.695312 -45.035156 24.9375 -43.535156 24.9375 -41.796875 L 24.9375 -40.84375 C 24.9375 -39.738281 25.132812 -39.1875 25.53125 -39.1875 C 25.925781 -39.1875 26.554688 -39.640625 27.421875 -40.546875 C 28.296875 -41.453125 29.425781 -42.5 30.8125 -43.6875 C 32.195312 -44.875 33.859375 -45.921875 35.796875 -46.828125 C 37.734375 -47.742188 39.929688 -48.203125 42.390625 -48.203125 C 44.835938 -48.203125 46.851562 -47.742188 48.4375 -46.828125 C 50.019531 -45.921875 51.265625 -44.875 52.171875 -43.6875 C 53.085938 -42.5 53.820312 -41.453125 54.375 -40.546875 C 54.9375 -39.640625 55.375 -39.1875 55.6875 -39.1875 C 56.238281 -39.1875 56.945312 -39.617188 57.8125 -40.484375 C 58.6875 -41.359375 59.796875 -42.40625 61.140625 -43.625 C 62.492188 -44.851562 64.140625 -45.921875 66.078125 -46.828125 C 68.015625 -47.742188 70.328125 -48.203125 73.015625 -48.203125 C 76.742188 -48.203125 79.554688 -47.410156 81.453125 -45.828125 C 83.347656 -44.242188 84.628906 -42.265625 85.296875 -39.890625 C 85.972656 -37.515625 86.3125 -35.101562 86.3125 -32.65625 L 86.3125 -15.3125 C 86.3125 -12.539062 86.507812 -10.441406 86.90625 -9.015625 C 87.300781 -7.597656 87.753906 -6.550781 88.265625 -5.875 C 88.785156 -5.207031 89.265625 -4.65625 89.703125 -4.21875 C 90.140625 -3.78125 90.359375 -3.125 90.359375 -2.25 C 90.359375 -1.0625 90.019531 -0.269531 89.34375 0.125 C 88.675781 0.519531 87.785156 0.71875 86.671875 0.71875 C 85.566406 0.71875 84.28125 0.597656 82.8125 0.359375 C 81.351562 0.117188 79.953125 0 78.609375 0 C 77.335938 0 76.242188 0.0546875 75.328125 0.171875 C 74.421875 0.296875 73.453125 0.4375 72.421875 0.59375 C 70.835938 0.75 69.550781 0.394531 68.5625 -0.46875 C 67.570312 -1.34375 67.078125 -2.570312 67.078125 -4.15625 L 67.078125 -23.625 C 67.078125 -27.425781 66.703125 -30.316406 65.953125 -32.296875 C 65.203125 -34.273438 63.796875 -35.265625 61.734375 -35.265625 C 60.078125 -35.265625 58.65625 -34.53125 57.46875 -33.0625 C 56.28125 -31.601562 55.6875 -28.65625 55.6875 -24.21875 L 55.6875 -15.3125 C 55.6875 -12.539062 55.882812 -10.441406 56.28125 -9.015625 C 56.675781 -7.597656 57.148438 -6.550781 57.703125 -5.875 C 58.253906 -5.207031 58.726562 -4.65625 59.125 -4.21875 C 59.519531 -3.78125 59.71875 -3.125 59.71875 -2.25 C 59.71875 -1.0625 59.378906 -0.269531 58.703125 0.125 C 58.035156 0.519531 57.148438 0.71875 56.046875 0.71875 C 54.929688 0.71875 53.640625 0.597656 52.171875 0.359375 C 50.710938 0.117188 49.3125 0 47.96875 0 C 46.695312 0 45.609375 0.0546875 44.703125 0.171875 C 43.796875 0.296875 42.828125 0.4375 41.796875 0.59375 C 40.210938 0.75 38.925781 0.394531 37.9375 -0.46875 C 36.945312 -1.34375 36.453125 -2.570312 36.453125 -4.15625 L 36.453125 -23.625 C 36.453125 -27.425781 36.054688 -30.316406 35.265625 -32.296875 C 34.472656 -34.273438 33.046875 -35.265625 30.984375 -35.265625 C 29.171875 -35.265625 27.707031 -34.332031 26.59375 -32.46875 C 25.488281 -30.613281 24.9375 -26.796875 24.9375 -21.015625 L 24.9375 -15.3125 C 24.9375 -12.539062 25.132812 -10.441406 25.53125 -9.015625 C 25.925781 -7.597656 26.398438 -6.550781 26.953125 -5.875 C 27.503906 -5.207031 27.976562 -4.65625 28.375 -4.21875 C 28.769531 -3.78125 28.96875 -3.125 28.96875 -2.25 C 28.96875 -1.0625 28.507812 -0.269531 27.59375 0.125 C 26.6875 0.519531 25.5625 0.71875 24.21875 0.71875 C 22.71875 0.71875 21.15625 0.597656 19.53125 0.359375 C 17.90625 0.117188 16.5 0 15.3125 0 Z M 15.3125 0 "/></g></g></g><g fill="#ffffff" fill-opacity="1"><g transform="translate(88.470185, 73.381391)"><g><path d="M 1.1875 -38 C 1.1875 -39.1875 1.582031 -39.992188 2.375 -40.421875 C 3.164062 -40.859375 4.289062 -41.234375 5.75 -41.546875 C 7.21875 -41.867188 8.984375 -42.382812 11.046875 -43.09375 C 13.578125 -44.050781 15.316406 -44.90625 16.265625 -45.65625 C 17.210938 -46.40625 17.921875 -47.015625 18.390625 -47.484375 C 18.867188 -47.960938 19.625 -48.203125 20.65625 -48.203125 C 22.082031 -48.203125 23.03125 -47.566406 23.5 -46.296875 C 23.976562 -45.035156 24.21875 -43.535156 24.21875 -41.796875 C 24.300781 -39.335938 24.359375 -37.335938 24.390625 -35.796875 C 24.429688 -34.253906 24.453125 -32.253906 24.453125 -29.796875 L 24.453125 -23.984375 C 24.453125 -18.992188 24.890625 -15.609375 25.765625 -13.828125 C 26.640625 -12.046875 27.984375 -11.15625 29.796875 -11.15625 C 31.617188 -11.15625 32.925781 -12.046875 33.71875 -13.828125 C 34.507812 -15.609375 34.90625 -19.035156 34.90625 -24.109375 L 34.90625 -29.796875 C 34.90625 -31.773438 34.566406 -33.160156 33.890625 -33.953125 C 33.222656 -34.742188 32.550781 -35.375 31.875 -35.84375 C 31.207031 -36.320312 30.875 -37.039062 30.875 -38 C 30.875 -39.1875 31.269531 -39.992188 32.0625 -40.421875 C 32.851562 -40.859375 33.976562 -41.234375 35.4375 -41.546875 C 36.90625 -41.867188 38.664062 -42.382812 40.71875 -43.09375 C 43.257812 -44.050781 45.003906 -44.90625 45.953125 -45.65625 C 46.898438 -46.40625 47.609375 -47.015625 48.078125 -47.484375 C 48.554688 -47.960938 49.3125 -48.203125 50.34375 -48.203125 C 51.769531 -48.203125 52.71875 -47.566406 53.1875 -46.296875 C 53.664062 -45.035156 53.90625 -43.535156 53.90625 -41.796875 L 54.03125 -32.171875 C 54.03125 -28.609375 54.046875 -25.757812 54.078125 -23.625 C 54.117188 -21.488281 54.140625 -19.785156 54.140625 -18.515625 C 54.140625 -17.253906 54.140625 -16.148438 54.140625 -15.203125 C 54.140625 -12.429688 54.335938 -10.332031 54.734375 -8.90625 C 55.128906 -7.476562 55.601562 -6.425781 56.15625 -5.75 C 56.71875 -5.082031 57.195312 -4.53125 57.59375 -4.09375 C 57.988281 -3.65625 58.1875 -3.003906 58.1875 -2.140625 C 58.1875 -0.953125 57.847656 -0.160156 57.171875 0.234375 C 56.492188 0.628906 55.601562 0.828125 54.5 0.828125 C 53.394531 0.828125 52.109375 0.707031 50.640625 0.46875 C 49.171875 0.238281 47.765625 0.125 46.421875 0.125 C 45.160156 0.125 44.070312 0.179688 43.15625 0.296875 C 42.25 0.410156 41.28125 0.550781 40.25 0.71875 C 38.75 0.875 37.519531 0.597656 36.5625 -0.109375 C 35.613281 -0.828125 35.0625 -1.859375 34.90625 -3.203125 C 34.59375 -5.578125 34.238281 -6.765625 33.84375 -6.765625 C 33.445312 -6.765625 32.457031 -5.9375 30.875 -4.28125 C 29.601562 -2.925781 27.757812 -1.753906 25.34375 -0.765625 C 22.9375 0.222656 20.660156 0.71875 18.515625 0.71875 C 14.878906 0.71875 12.09375 -0.0703125 10.15625 -1.65625 C 8.21875 -3.238281 6.910156 -5.21875 6.234375 -7.59375 C 5.554688 -9.96875 5.21875 -12.382812 5.21875 -14.84375 L 5.21875 -29.328125 C 5.21875 -31.460938 4.878906 -32.945312 4.203125 -33.78125 C 3.535156 -34.613281 2.863281 -35.265625 2.1875 -35.734375 C 1.519531 -36.210938 1.1875 -36.96875 1.1875 -38 Z M 1.1875 -38 "/></g></g></g></g></g><g transform="matrix(1, 0, 0, 1, 197, 47)"><g clip-path="url(#e682f007a0)"><g fill="#ffffff" fill-opacity="1"><g transform="translate(2.981355, 145.816803)"><g><path d="M 26.3125 3.03125 C 22.414062 3.03125 19.4375 2.128906 17.375 0.328125 C 15.3125 -1.460938 14.28125 -3.484375 14.28125 -5.734375 C 14.28125 -7.679688 14.988281 -9.367188 16.40625 -10.796875 C 17.832031 -12.222656 19.9375 -12.9375 22.71875 -12.9375 C 23.6875 -12.9375 24.828125 -12.84375 26.140625 -12.65625 C 27.453125 -12.46875 28.445312 -12.332031 29.125 -12.25 C 29.050781 -14.195312 28.617188 -16.03125 27.828125 -17.75 C 27.035156 -19.476562 26.039062 -21.148438 24.84375 -22.765625 C 23.644531 -24.378906 22.519531 -25.785156 21.46875 -26.984375 C 19.144531 -22.554688 16.835938 -18.878906 14.546875 -15.953125 C 12.265625 -13.035156 9.773438 -10.265625 7.078125 -7.640625 C 5.734375 -6.296875 4.3125 -5.625 2.8125 -5.625 C 1.613281 -5.625 0.640625 -6.050781 -0.109375 -6.90625 C -0.859375 -7.769531 -1.234375 -8.84375 -1.234375 -10.125 C -1.234375 -11.625 -0.707031 -13.007812 0.34375 -14.28125 L 1.796875 -16.078125 C 5.921875 -21.171875 9.03125 -25.367188 11.125 -28.671875 C 12.40625 -30.847656 13.90625 -33.753906 15.625 -37.390625 C 17.351562 -41.023438 19.039062 -44.789062 20.6875 -48.6875 C 22.113281 -51.976562 25.078125 -53.625 29.578125 -53.625 C 31.671875 -53.625 33.128906 -53.4375 33.953125 -53.0625 C 34.773438 -52.695312 35.1875 -52.097656 35.1875 -51.265625 C 35.1875 -50.816406 35.035156 -50.101562 34.734375 -49.125 C 34.441406 -48.15625 34.03125 -47.1875 33.5 -46.21875 C 32.15625 -43.507812 31.484375 -41.222656 31.484375 -39.359375 C 31.484375 -38.234375 31.875 -36.992188 32.65625 -35.640625 C 33.445312 -34.296875 34.664062 -32.609375 36.3125 -30.578125 C 38.71875 -27.429688 40.535156 -24.753906 41.765625 -22.546875 C 43.003906 -20.335938 43.625 -17.921875 43.625 -15.296875 C 43.625 -14.546875 43.550781 -13.492188 43.40625 -12.140625 C 47.070312 -13.566406 51.378906 -17.351562 56.328125 -23.5 C 57.234375 -24.550781 58.242188 -25.078125 59.359375 -25.078125 C 60.335938 -25.078125 61.109375 -24.625 61.671875 -23.71875 C 62.234375 -22.820312 62.515625 -21.585938 62.515625 -20.015625 C 62.515625 -17.160156 61.800781 -14.835938 60.375 -13.046875 C 56.625 -8.398438 53.046875 -5.234375 49.640625 -3.546875 C 46.234375 -1.859375 42.015625 -0.9375 36.984375 -0.78125 C 33.992188 1.757812 30.4375 3.03125 26.3125 3.03125 Z M 26.3125 3.03125 "/></g></g></g><g fill="#ffffff" fill-opacity="1"><g transform="translate(51.891192, 145.816803)"><g><path d="M 67.796875 -25.078125 C 68.773438 -25.078125 69.546875 -24.625 70.109375 -23.71875 C 70.671875 -22.820312 70.953125 -21.585938 70.953125 -20.015625 C 70.953125 -17.015625 70.238281 -14.691406 68.8125 -13.046875 C 65.363281 -9.066406 61.820312 -5.800781 58.1875 -3.25 C 54.550781 -0.707031 50.410156 0.5625 45.765625 0.5625 C 41.941406 0.5625 39.054688 -0.539062 37.109375 -2.75 C 35.160156 -4.96875 34.1875 -8.175781 34.1875 -12.375 C 34.1875 -14.46875 34.707031 -18.210938 35.75 -23.609375 C 36.726562 -28.335938 37.21875 -31.597656 37.21875 -33.390625 C 37.21875 -34.585938 36.804688 -35.1875 35.984375 -35.1875 C 35.003906 -35.1875 33.613281 -33.929688 31.8125 -31.421875 C 30.019531 -28.910156 28.222656 -25.59375 26.421875 -21.46875 C 24.617188 -17.351562 23.15625 -13.007812 22.03125 -8.4375 C 20.613281 -2.4375 17.09375 0.5625 11.46875 0.5625 C 9.21875 0.5625 7.734375 -0.238281 7.015625 -1.84375 C 6.304688 -3.457031 5.953125 -6.363281 5.953125 -10.5625 C 5.953125 -12.96875 5.992188 -14.878906 6.078125 -16.296875 L 6.1875 -25.296875 C 6.1875 -36.835938 7.363281 -48.867188 9.71875 -61.390625 C 12.082031 -73.910156 15.566406 -84.421875 20.171875 -92.921875 C 24.785156 -101.429688 30.316406 -105.6875 36.765625 -105.6875 C 40.210938 -105.6875 43.003906 -104.207031 45.140625 -101.25 C 47.273438 -98.289062 48.34375 -94.445312 48.34375 -89.71875 C 48.34375 -82.15625 46.128906 -74.304688 41.703125 -66.171875 C 37.285156 -58.035156 30.09375 -48.535156 20.125 -37.671875 C 19.894531 -33.765625 19.78125 -29.753906 19.78125 -25.640625 C 22.257812 -32.003906 25.015625 -37.191406 28.046875 -41.203125 C 31.085938 -45.210938 34.085938 -48.078125 37.046875 -49.796875 C 40.003906 -51.523438 42.722656 -52.390625 45.203125 -52.390625 C 50.078125 -52.390625 52.515625 -49.957031 52.515625 -45.09375 C 52.515625 -42.164062 51.6875 -36.878906 50.03125 -29.234375 C 48.601562 -22.710938 47.890625 -18.398438 47.890625 -16.296875 C 47.890625 -13.304688 48.976562 -11.8125 51.15625 -11.8125 C 52.65625 -11.8125 54.4375 -12.726562 56.5 -14.5625 C 58.5625 -16.394531 61.316406 -19.375 64.765625 -23.5 C 65.660156 -24.550781 66.671875 -25.078125 67.796875 -25.078125 Z M 34.40625 -94.5625 C 33.050781 -94.5625 31.550781 -92.628906 29.90625 -88.765625 C 28.257812 -84.910156 26.664062 -79.703125 25.125 -73.140625 C 23.59375 -66.578125 22.335938 -59.4375 21.359375 -51.71875 C 26.003906 -57.1875 29.84375 -63.144531 32.875 -69.59375 C 35.914062 -76.039062 37.4375 -81.890625 37.4375 -87.140625 C 37.4375 -89.535156 37.175781 -91.367188 36.65625 -92.640625 C 36.132812 -93.921875 35.382812 -94.5625 34.40625 -94.5625 Z M 34.40625 -94.5625 "/></g></g></g></g></g><g clip-path="url(#692fd93059)"><path fill="#ffffff" d="M 347.566406 127.015625 C 333.582031 129.589844 331.496094 131.675781 328.921875 145.660156 C 326.347656 131.675781 324.261719 129.589844 310.28125 127.015625 C 324.261719 124.441406 326.347656 122.355469 328.921875 108.375 C 331.496094 122.355469 333.582031 124.441406 347.566406 127.015625 Z M 347.566406 127.015625 " fill-opacity="1" fill-rule="nonzero"/></g><g clip-path="url(#fdd8c432ff)"><path fill="#ffffff" d="M 60.125 198.25 C 46.140625 200.824219 44.054688 202.914062 41.480469 216.894531 C 38.90625 202.914062 36.820312 200.824219 22.835938 198.25 C 36.820312 195.679688 38.90625 193.589844 41.480469 179.609375 C 44.054688 193.589844 46.140625 195.679688 60.125 198.25 Z M 60.125 198.25 " fill-opacity="1" fill-rule="nonzero"/></g><g transform="matrix(1, 0, 0, 1, 120, 265)"><g clip-path="url(#1aeaf8f1e3)"><g fill="#ffffff" fill-opacity="1"><g transform="translate(1.77303, 14.410076)"><g><path d="M 6.625 0 L 4.078125 0 L 0.46875 -10.1875 L 2.6875 -10.1875 L 5.390625 -1.5625 L 8.140625 -10.1875 L 10.3125 -10.1875 Z M 6.625 0 "/></g></g></g><g fill="#ffffff" fill-opacity="1"><g transform="translate(16.956021, 14.410076)"><g><path d="M 8.671875 -1.609375 L 8.671875 0 L 1.3125 0 L 1.3125 -10.1875 L 8.515625 -10.1875 L 8.515625 -8.59375 L 3.359375 -8.59375 L 3.359375 -5.90625 L 8.15625 -5.90625 L 8.15625 -4.296875 L 3.359375 -4.296875 L 3.359375 -1.609375 Z M 8.671875 -1.609375 "/></g></g></g><g fill="#ffffff" fill-opacity="1"><g transform="translate(31.075749, 14.410076)"><g><path d="M 5.984375 -5.203125 L 10.078125 -5.203125 L 10.078125 0 L 8.453125 0 L 8.3125 -1.65625 L 7.859375 -0.625 C 7.296875 -0.0703125 6.46875 0.203125 5.375 0.203125 C 3.957031 0.203125 2.832031 -0.265625 2 -1.203125 C 1.164062 -2.140625 0.75 -3.414062 0.75 -5.03125 C 0.75 -6.664062 1.222656 -7.96875 2.171875 -8.9375 C 3.117188 -9.90625 4.316406 -10.390625 5.765625 -10.390625 C 7.097656 -10.390625 8.140625 -10.066406 8.890625 -9.421875 C 9.640625 -8.773438 10.066406 -7.925781 10.171875 -6.875 L 10.1875 -6.734375 L 8.15625 -6.734375 L 8.125 -6.875 C 7.851562 -8.207031 7.0625 -8.875 5.75 -8.875 C 4.90625 -8.875 4.21875 -8.535156 3.6875 -7.859375 C 3.164062 -7.191406 2.90625 -6.289062 2.90625 -5.15625 C 2.90625 -3.925781 3.160156 -2.976562 3.671875 -2.3125 C 4.179688 -1.644531 4.851562 -1.3125 5.6875 -1.3125 C 6.34375 -1.3125 6.890625 -1.515625 7.328125 -1.921875 C 7.765625 -2.328125 8.035156 -2.890625 8.140625 -3.609375 L 5.984375 -3.609375 Z M 5.984375 -5.203125 "/></g></g></g><g fill="#ffffff" fill-opacity="1"><g transform="translate(46.98233, 14.410076)"><g><path d="M 6.84375 -3.078125 L 3.40625 -3.078125 L 2.390625 0 L 0.21875 0 L 3.890625 -10.1875 L 6.453125 -10.1875 L 10.0625 0 L 7.84375 0 Z M 5.140625 -8.453125 L 3.921875 -4.6875 L 6.3125 -4.6875 Z M 5.140625 -8.453125 "/></g></g></g><g fill="#ffffff" fill-opacity="1"><g transform="translate(61.988104, 14.410076)"><g><path d="M 10.265625 0 L 7.46875 0 L 3.28125 -7.734375 C 3.332031 -6.804688 3.359375 -5.765625 3.359375 -4.609375 L 3.359375 0 L 1.3125 0 L 1.3125 -10.1875 L 4.015625 -10.1875 L 8.296875 -2.296875 C 8.242188 -3.210938 8.21875 -4.28125 8.21875 -5.5 L 8.21875 -10.1875 L 10.25 -10.1875 Z M 10.265625 0 "/></g></g></g><g fill="#ffffff" fill-opacity="1"><g transform="translate(78.234342, 14.410076)"><g/></g></g><g fill="#ffffff" fill-opacity="1"><g transform="translate(86.122186, 14.410076)"><g><path d="M 5.6875 -10.390625 C 7.007812 -10.390625 8.046875 -10.066406 8.796875 -9.421875 C 9.546875 -8.773438 9.972656 -7.925781 10.078125 -6.875 L 10.09375 -6.734375 L 8.0625 -6.734375 L 8.03125 -6.875 C 7.769531 -8.207031 6.976562 -8.875 5.65625 -8.875 C 4.832031 -8.875 4.164062 -8.539062 3.65625 -7.875 C 3.15625 -7.207031 2.90625 -6.300781 2.90625 -5.15625 C 2.90625 -3.925781 3.15625 -2.976562 3.65625 -2.3125 C 4.164062 -1.644531 4.820312 -1.3125 5.625 -1.3125 C 6.269531 -1.3125 6.789062 -1.492188 7.1875 -1.859375 C 7.582031 -2.222656 7.847656 -2.726562 7.984375 -3.375 L 8.015625 -3.53125 L 10.046875 -3.53125 L 10.03125 -3.375 C 9.914062 -2.28125 9.457031 -1.410156 8.65625 -0.765625 C 7.863281 -0.117188 6.820312 0.203125 5.53125 0.203125 C 4.09375 0.203125 2.9375 -0.265625 2.0625 -1.203125 C 1.1875 -2.148438 0.75 -3.425781 0.75 -5.03125 C 0.75 -6.664062 1.210938 -7.96875 2.140625 -8.9375 C 3.066406 -9.90625 4.25 -10.390625 5.6875 -10.390625 Z M 5.6875 -10.390625 "/></g></g></g><g fill="#ffffff" fill-opacity="1"><g transform="translate(101.748201, 14.410076)"><g><path d="M 6.84375 -3.078125 L 3.40625 -3.078125 L 2.390625 0 L 0.21875 0 L 3.890625 -10.1875 L 6.453125 -10.1875 L 10.0625 0 L 7.84375 0 Z M 5.140625 -8.453125 L 3.921875 -4.6875 L 6.3125 -4.6875 Z M 5.140625 -8.453125 "/></g></g></g><g fill="#ffffff" fill-opacity="1"><g transform="translate(116.753975, 14.410076)"><g><path d="M 3.359375 -8.59375 L 3.359375 -5.90625 L 8 -5.90625 L 8 -4.296875 L 3.359375 -4.296875 L 3.359375 0 L 1.3125 0 L 1.3125 -10.1875 L 8.515625 -10.1875 L 8.515625 -8.59375 Z M 3.359375 -8.59375 "/></g></g></g><g fill="#ffffff" fill-opacity="1"><g transform="translate(130.534047, 14.410076)"><g><path d="M 8.671875 -1.609375 L 8.671875 0 L 1.3125 0 L 1.3125 -10.1875 L 8.515625 -10.1875 L 8.515625 -8.59375 L 3.359375 -8.59375 L 3.359375 -5.90625 L 8.15625 -5.90625 L 8.15625 -4.296875 L 3.359375 -4.296875 L 3.359375 -1.609375 Z M 8.671875 -1.609375 "/></g></g></g></g></g></svg>