<svg xmlns="http://www.w3.org/2000/svg" xmlns:xlink="http://www.w3.org/1999/xlink" width="500" zoomAndPan="magnify" viewBox="0 0 375 374.999991" height="500" preserveAspectRatio="xMidYMid meet" version="1.0"><defs><g/><clipPath id="6d0e05627d"><path d="M 90.648438 74.574219 L 284.148438 74.574219 L 284.148438 211.824219 L 90.648438 211.824219 Z M 90.648438 74.574219 " clip-rule="nonzero"/></clipPath><clipPath id="6bd950b340"><rect x="0" width="328" y="0" height="51"/></clipPath><clipPath id="c6f154589f"><rect x="0" width="227" y="0" height="30"/></clipPath></defs><g clip-path="url(#6d0e05627d)"><path fill="#ffffff" d="M 147.65625 109.054688 L 171.417969 109.054688 L 171.417969 92.105469 C 171.417969 90.636719 172.886719 89.125 174.398438 89.125 L 198.15625 89.125 L 198.15625 77.246094 C 198.15625 75.773438 199.355469 74.574219 200.828125 74.574219 L 227.566406 74.574219 C 229.039062 74.574219 230.238281 75.773438 230.238281 77.246094 L 230.238281 167.605469 C 235.578125 165.515625 240.648438 164.046875 245.410156 162.535156 L 244.207031 158.976562 C 244.207031 158.667969 244.207031 158.394531 244.207031 158.085938 C 244.519531 156.886719 245.410156 155.996094 246.878906 155.996094 L 260.847656 158.359375 C 261.429688 158.359375 262.046875 158.667969 262.320312 158.9375 C 263.210938 159.828125 262.898438 161.296875 262.011719 162.1875 L 251.601562 171.707031 C 251.289062 172.019531 251.019531 172.289062 250.710938 172.289062 C 249.511719 172.597656 248.347656 171.980469 248.039062 170.816406 L 246.839844 167.839844 C 239.410156 169.929688 230.78125 172.90625 221.570312 177.046875 C 211.160156 181.808594 200.167969 188.347656 189.179688 197.25 C 188.289062 198.140625 186.820312 198.140625 185.929688 197.25 C 174.9375 188.347656 163.949219 181.808594 153.539062 177.046875 C 150.558594 175.578125 147.578125 174.378906 144.910156 173.179688 L 144.910156 111.726562 C 144.984375 110.253906 146.1875 109.054688 147.65625 109.054688 Z M 111.085938 172.675781 L 111.394531 172.675781 C 129.546875 175.347656 158.957031 182.777344 187.785156 205.375 C 216.308594 182.777344 245.757812 175.347656 263.867188 172.675781 L 264.175781 172.675781 C 269.515625 171.785156 273.695312 171.476562 276.949219 171.476562 L 241.886719 113.507812 C 241.304688 113.507812 240.417969 113.507812 239.527344 113.507812 C 238.328125 113.507812 236.855469 113.507812 235.347656 113.816406 C 233.875 113.816406 232.675781 112.617188 232.367188 111.144531 C 232.367188 109.675781 233.566406 108.476562 235.035156 108.164062 C 236.238281 108.164062 237.707031 108.164062 239.488281 108.164062 C 240.6875 107.855469 242.15625 107.855469 243.355469 107.855469 C 244.558594 107.855469 245.445312 108.4375 246.027344 109.328125 L 284.066406 172.636719 C 284.378906 173.21875 284.378906 173.835938 284.378906 174.109375 C 284.378906 175.886719 283.179688 177.085938 281.707031 176.777344 C 281.398438 176.777344 276.636719 176.777344 268.316406 177.667969 L 273.96875 191.636719 C 274.546875 193.109375 273.96875 194.617188 272.496094 195.199219 C 271.917969 195.507812 271.027344 195.507812 270.40625 195.199219 C 268.316406 194.617188 237.125 186.296875 188.984375 211.257812 L 188.675781 211.257812 L 188.675781 211.566406 C 188.367188 211.566406 188.097656 211.566406 188.097656 211.566406 L 187.476562 211.566406 C 187.167969 211.566406 186.894531 211.566406 186.585938 211.566406 L 186.585938 211.257812 L 186.277344 211.257812 C 138.136719 186.296875 106.90625 194.617188 104.855469 195.199219 C 104.273438 195.507812 103.386719 195.507812 102.765625 195.199219 C 101.296875 194.617188 100.675781 193.109375 101.296875 191.636719 L 106.945312 177.667969 C 99.207031 176.777344 94.175781 176.777344 93.867188 176.777344 C 93.285156 176.777344 92.664062 176.777344 92.085938 176.46875 C 90.886719 175.578125 90.613281 174.109375 91.195312 172.597656 L 129.507812 109.367188 C 129.816406 108.476562 130.707031 107.894531 131.597656 107.894531 C 133.066406 107.894531 134.574219 107.894531 136.046875 108.203125 C 137.515625 108.203125 139.027344 108.203125 140.226562 108.203125 C 142.007812 108.515625 142.894531 109.675781 142.894531 111.183594 C 142.894531 112.695312 141.425781 113.855469 139.917969 113.855469 C 138.445312 113.542969 136.9375 113.542969 135.738281 113.542969 C 134.847656 113.542969 133.957031 113.542969 133.375 113.542969 L 98.316406 171.476562 C 101.566406 171.476562 105.746094 171.785156 111.085938 172.675781 Z M 112.59375 178.289062 L 108.417969 188.96875 C 117.046875 187.496094 135.777344 186.296875 161.625 194.925781 C 142.894531 184.828125 125.054688 180.375 112.59375 178.289062 Z M 213.636719 194.964844 C 239.488281 186.335938 258.21875 187.535156 266.847656 189.007812 L 262.667969 178.289062 C 250.207031 180.375 232.367188 184.828125 213.636719 194.964844 Z M 203.847656 92.105469 L 203.847656 180.066406 C 205.316406 179.175781 207.097656 178.289062 208.914062 177.398438 C 211.894531 175.617188 215.144531 173.835938 218.433594 172.328125 C 219.90625 171.746094 221.105469 171.128906 222.613281 170.546875 C 223.195312 170.238281 224.085938 169.96875 224.976562 169.65625 L 224.976562 79.878906 L 203.886719 79.878906 L 203.886719 92.105469 Z M 177.066406 111.726562 L 177.066406 183.667969 C 178.847656 184.867188 180.628906 186.027344 182.40625 187.226562 C 184.1875 188.425781 185.96875 189.898438 187.746094 191.097656 C 189.21875 189.898438 191 188.425781 192.816406 187.226562 C 194.597656 186.027344 196.378906 184.867188 198.15625 183.667969 L 198.15625 94.777344 L 177.066406 94.777344 Z M 171.417969 114.394531 L 150.328125 114.394531 L 150.328125 169.695312 C 151.214844 170.003906 152.105469 170.277344 152.6875 170.585938 C 154.15625 171.167969 155.355469 171.785156 156.867188 172.367188 C 160.117188 173.835938 163.40625 175.617188 166.65625 177.4375 C 168.128906 178.324219 169.90625 179.214844 171.417969 180.105469 Z M 171.417969 114.394531 " fill-opacity="1" fill-rule="nonzero"/></g><g transform="matrix(1, 0, 0, 1, 24, 215)"><g clip-path="url(#6bd950b340)"><g fill="#ffffff" fill-opacity="1"><g transform="translate(1.211717, 39.31247)"><g><path d="M 25.09375 -15.296875 C 26.769531 -14.765625 28.082031 -13.875 29.03125 -12.625 C 29.988281 -11.382812 30.46875 -9.851562 30.46875 -8.03125 C 30.46875 -5.445312 29.46875 -3.460938 27.46875 -2.078125 C 25.46875 -0.691406 22.546875 0 18.703125 0 L 3.484375 0 L 3.484375 -29.421875 L 17.859375 -29.421875 C 21.453125 -29.421875 24.207031 -28.734375 26.125 -27.359375 C 28.039062 -25.984375 29 -24.117188 29 -21.765625 C 29 -20.335938 28.65625 -19.0625 27.96875 -17.9375 C 27.28125 -16.820312 26.320312 -15.941406 25.09375 -15.296875 Z M 10.25 -24.296875 L 10.25 -17.359375 L 17.015625 -17.359375 C 18.703125 -17.359375 19.976562 -17.648438 20.84375 -18.234375 C 21.71875 -18.828125 22.15625 -19.695312 22.15625 -20.84375 C 22.15625 -22 21.71875 -22.863281 20.84375 -23.4375 C 19.976562 -24.007812 18.703125 -24.296875 17.015625 -24.296875 Z M 18.203125 -5.125 C 19.992188 -5.125 21.34375 -5.414062 22.25 -6 C 23.164062 -6.59375 23.625 -7.507812 23.625 -8.75 C 23.625 -11.1875 21.816406 -12.40625 18.203125 -12.40625 L 10.25 -12.40625 L 10.25 -5.125 Z M 18.203125 -5.125 "/></g></g></g><g fill="#ffffff" fill-opacity="1"><g transform="translate(30.92168, 39.31247)"><g><path d="M 16.5625 0.5 C 12.351562 0.5 9.078125 -0.660156 6.734375 -2.984375 C 4.398438 -5.304688 3.234375 -8.628906 3.234375 -12.953125 L 3.234375 -29.421875 L 10.046875 -29.421875 L 10.046875 -13.203125 C 10.046875 -7.929688 12.234375 -5.296875 16.609375 -5.296875 C 18.734375 -5.296875 20.351562 -5.929688 21.46875 -7.203125 C 22.59375 -8.484375 23.15625 -10.484375 23.15625 -13.203125 L 23.15625 -29.421875 L 29.890625 -29.421875 L 29.890625 -12.953125 C 29.890625 -8.628906 28.71875 -5.304688 26.375 -2.984375 C 24.03125 -0.660156 20.757812 0.5 16.5625 0.5 Z M 16.5625 0.5 "/></g></g></g><g fill="#ffffff" fill-opacity="1"><g transform="translate(61.598192, 39.31247)"><g><path d="M 3.484375 -29.421875 L 10.296875 -29.421875 L 10.296875 0 L 3.484375 0 Z M 3.484375 -29.421875 "/></g></g></g><g fill="#ffffff" fill-opacity="1"><g transform="translate(72.943812, 39.31247)"><g><path d="M 3.484375 -29.421875 L 10.296875 -29.421875 L 10.296875 -5.546875 L 25.046875 -5.546875 L 25.046875 0 L 3.484375 0 Z M 3.484375 -29.421875 "/></g></g></g><g fill="#ffffff" fill-opacity="1"><g transform="translate(95.88797, 39.31247)"><g><path d="M 3.484375 -29.421875 L 16.859375 -29.421875 C 20.046875 -29.421875 22.863281 -28.8125 25.3125 -27.59375 C 27.769531 -26.375 29.675781 -24.65625 31.03125 -22.4375 C 32.394531 -20.226562 33.078125 -17.65625 33.078125 -14.71875 C 33.078125 -11.769531 32.394531 -9.1875 31.03125 -6.96875 C 29.675781 -4.757812 27.769531 -3.046875 25.3125 -1.828125 C 22.863281 -0.609375 20.046875 0 16.859375 0 L 3.484375 0 Z M 16.515625 -5.59375 C 19.460938 -5.59375 21.8125 -6.410156 23.5625 -8.046875 C 25.3125 -9.691406 26.1875 -11.914062 26.1875 -14.71875 C 26.1875 -17.519531 25.3125 -19.738281 23.5625 -21.375 C 21.8125 -23.007812 19.460938 -23.828125 16.515625 -23.828125 L 10.296875 -23.828125 L 10.296875 -5.59375 Z M 16.515625 -5.59375 "/></g></g></g><g fill="#ffffff" fill-opacity="1"><g transform="translate(128.161375, 39.31247)"><g><path d="M 3.484375 -29.421875 L 10.296875 -29.421875 L 10.296875 0 L 3.484375 0 Z M 3.484375 -29.421875 "/></g></g></g><g fill="#ffffff" fill-opacity="1"><g transform="translate(139.506995, 39.31247)"><g><path d="M 30.46875 -29.421875 L 30.46875 0 L 24.875 0 L 10.21875 -17.859375 L 10.21875 0 L 3.484375 0 L 3.484375 -29.421875 L 9.125 -29.421875 L 23.75 -11.5625 L 23.75 -29.421875 Z M 30.46875 -29.421875 "/></g></g></g><g fill="#ffffff" fill-opacity="1"><g transform="translate(171.023984, 39.31247)"><g><path d="M 23.375 -15.171875 L 29.59375 -15.171875 L 29.59375 -3.234375 C 27.988281 -2.023438 26.132812 -1.097656 24.03125 -0.453125 C 21.9375 0.179688 19.820312 0.5 17.6875 0.5 C 14.632812 0.5 11.890625 -0.148438 9.453125 -1.453125 C 7.015625 -2.753906 5.101562 -4.5625 3.71875 -6.875 C 2.332031 -9.1875 1.640625 -11.800781 1.640625 -14.71875 C 1.640625 -17.625 2.332031 -20.234375 3.71875 -22.546875 C 5.101562 -24.859375 7.03125 -26.664062 9.5 -27.96875 C 11.96875 -29.269531 14.742188 -29.921875 17.828125 -29.921875 C 20.398438 -29.921875 22.738281 -29.488281 24.84375 -28.625 C 26.945312 -27.757812 28.710938 -26.5 30.140625 -24.84375 L 25.765625 -20.8125 C 23.660156 -23.019531 21.125 -24.125 18.15625 -24.125 C 16.28125 -24.125 14.613281 -23.726562 13.15625 -22.9375 C 11.695312 -22.15625 10.5625 -21.050781 9.75 -19.625 C 8.9375 -18.195312 8.53125 -16.5625 8.53125 -14.71875 C 8.53125 -12.894531 8.9375 -11.265625 9.75 -9.828125 C 10.5625 -8.398438 11.6875 -7.285156 13.125 -6.484375 C 14.570312 -5.691406 16.222656 -5.296875 18.078125 -5.296875 C 20.035156 -5.296875 21.800781 -5.71875 23.375 -6.5625 Z M 23.375 -15.171875 "/></g></g></g><g fill="#ffffff" fill-opacity="1"><g transform="translate(201.001348, 39.31247)"><g><path d="M 23.328125 -15.171875 C 25.265625 -14.753906 26.753906 -13.921875 27.796875 -12.671875 C 28.847656 -11.421875 29.375 -9.816406 29.375 -7.859375 C 29.375 -5.335938 28.441406 -3.394531 26.578125 -2.03125 C 24.722656 -0.675781 21.972656 0 18.328125 0 L 4.796875 0 L 4.796875 -29.421875 L 17.484375 -29.421875 C 20.765625 -29.421875 23.304688 -28.757812 25.109375 -27.4375 C 26.921875 -26.125 27.828125 -24.265625 27.828125 -21.859375 C 27.828125 -20.234375 27.425781 -18.851562 26.625 -17.71875 C 25.820312 -16.582031 24.722656 -15.734375 23.328125 -15.171875 Z M 7.90625 -26.859375 L 7.90625 -16.1875 L 17.28125 -16.1875 C 19.65625 -16.1875 21.488281 -16.640625 22.78125 -17.546875 C 24.070312 -18.460938 24.71875 -19.785156 24.71875 -21.515625 C 24.71875 -23.253906 24.070312 -24.578125 22.78125 -25.484375 C 21.488281 -26.398438 19.65625 -26.859375 17.28125 -26.859375 Z M 18.28125 -2.5625 C 20.914062 -2.5625 22.90625 -3.007812 24.25 -3.90625 C 25.59375 -4.800781 26.265625 -6.203125 26.265625 -8.109375 C 26.265625 -11.785156 23.601562 -13.625 18.28125 -13.625 L 7.90625 -13.625 L 7.90625 -2.5625 Z M 18.28125 -2.5625 "/></g></g></g><g fill="#ffffff" fill-opacity="1"><g transform="translate(230.249059, 39.31247)"><g><path d="M 17.65625 0.25 C 14.738281 0.25 12.09375 -0.398438 9.71875 -1.703125 C 7.351562 -3.003906 5.503906 -4.789062 4.171875 -7.0625 C 2.847656 -9.332031 2.1875 -11.882812 2.1875 -14.71875 C 2.1875 -17.539062 2.847656 -20.085938 4.171875 -22.359375 C 5.503906 -24.628906 7.351562 -26.414062 9.71875 -27.71875 C 12.09375 -29.019531 14.738281 -29.671875 17.65625 -29.671875 C 20.570312 -29.671875 23.195312 -29.023438 25.53125 -27.734375 C 27.875 -26.453125 29.71875 -24.664062 31.0625 -22.375 C 32.40625 -20.09375 33.078125 -17.539062 33.078125 -14.71875 C 33.078125 -11.882812 32.40625 -9.320312 31.0625 -7.03125 C 29.71875 -4.75 27.875 -2.960938 25.53125 -1.671875 C 23.195312 -0.390625 20.570312 0.25 17.65625 0.25 Z M 17.65625 -2.515625 C 19.976562 -2.515625 22.078125 -3.039062 23.953125 -4.09375 C 25.835938 -5.144531 27.3125 -6.601562 28.375 -8.46875 C 29.4375 -10.332031 29.96875 -12.414062 29.96875 -14.71875 C 29.96875 -17.007812 29.4375 -19.085938 28.375 -20.953125 C 27.3125 -22.816406 25.835938 -24.273438 23.953125 -25.328125 C 22.078125 -26.378906 19.976562 -26.90625 17.65625 -26.90625 C 15.332031 -26.90625 13.222656 -26.378906 11.328125 -25.328125 C 9.429688 -24.273438 7.941406 -22.816406 6.859375 -20.953125 C 5.785156 -19.085938 5.25 -17.007812 5.25 -14.71875 C 5.25 -12.414062 5.785156 -10.332031 6.859375 -8.46875 C 7.941406 -6.601562 9.429688 -5.144531 11.328125 -4.09375 C 13.222656 -3.039062 15.332031 -2.515625 17.65625 -2.515625 Z M 17.65625 -2.515625 "/></g></g></g><g fill="#ffffff" fill-opacity="1"><g transform="translate(263.068775, 39.31247)"><g><path d="M 17.65625 0.25 C 14.738281 0.25 12.09375 -0.398438 9.71875 -1.703125 C 7.351562 -3.003906 5.503906 -4.789062 4.171875 -7.0625 C 2.847656 -9.332031 2.1875 -11.882812 2.1875 -14.71875 C 2.1875 -17.539062 2.847656 -20.085938 4.171875 -22.359375 C 5.503906 -24.628906 7.351562 -26.414062 9.71875 -27.71875 C 12.09375 -29.019531 14.738281 -29.671875 17.65625 -29.671875 C 20.570312 -29.671875 23.195312 -29.023438 25.53125 -27.734375 C 27.875 -26.453125 29.71875 -24.664062 31.0625 -22.375 C 32.40625 -20.09375 33.078125 -17.539062 33.078125 -14.71875 C 33.078125 -11.882812 32.40625 -9.320312 31.0625 -7.03125 C 29.71875 -4.75 27.875 -2.960938 25.53125 -1.671875 C 23.195312 -0.390625 20.570312 0.25 17.65625 0.25 Z M 17.65625 -2.515625 C 19.976562 -2.515625 22.078125 -3.039062 23.953125 -4.09375 C 25.835938 -5.144531 27.3125 -6.601562 28.375 -8.46875 C 29.4375 -10.332031 29.96875 -12.414062 29.96875 -14.71875 C 29.96875 -17.007812 29.4375 -19.085938 28.375 -20.953125 C 27.3125 -22.816406 25.835938 -24.273438 23.953125 -25.328125 C 22.078125 -26.378906 19.976562 -26.90625 17.65625 -26.90625 C 15.332031 -26.90625 13.222656 -26.378906 11.328125 -25.328125 C 9.429688 -24.273438 7.941406 -22.816406 6.859375 -20.953125 C 5.785156 -19.085938 5.25 -17.007812 5.25 -14.71875 C 5.25 -12.414062 5.785156 -10.332031 6.859375 -8.46875 C 7.941406 -6.601562 9.429688 -5.144531 11.328125 -4.09375 C 13.222656 -3.039062 15.332031 -2.515625 17.65625 -2.515625 Z M 17.65625 -2.515625 "/></g></g></g><g fill="#ffffff" fill-opacity="1"><g transform="translate(295.888491, 39.31247)"><g><path d="M 13.90625 -13.828125 L 7.90625 -7.734375 L 7.90625 0 L 4.796875 0 L 4.796875 -29.421875 L 7.90625 -29.421875 L 7.90625 -11.640625 L 25.171875 -29.421875 L 28.75 -29.421875 L 16.015625 -16.09375 L 29.625 0 L 25.9375 0 Z M 13.90625 -13.828125 "/></g></g></g></g></g><g transform="matrix(1, 0, 0, 1, 82, 264)"><g clip-path="url(#c6f154589f)"><g fill="#ffffff" fill-opacity="1"><g transform="translate(0.797115, 22.956963)"><g><path d="M 5.734375 -13.328125 L 5.734375 -9 L 13.3125 -9 L 13.3125 -5.96875 L 5.734375 -5.96875 L 5.734375 0 L 1.9375 0 L 1.9375 -16.375 L 14.3125 -16.375 L 14.3125 -13.328125 Z M 5.734375 -13.328125 "/></g></g></g><g fill="#ffffff" fill-opacity="1"><g transform="translate(32.113678, 22.956963)"><g><path d="M 1.9375 -16.375 L 5.734375 -16.375 L 5.734375 0 L 1.9375 0 Z M 1.9375 -16.375 "/></g></g></g><g fill="#ffffff" fill-opacity="1"><g transform="translate(56.158896, 22.956963)"><g><path d="M 16.953125 -16.375 L 16.953125 0 L 13.84375 0 L 5.6875 -9.9375 L 5.6875 0 L 1.9375 0 L 1.9375 -16.375 L 5.078125 -16.375 L 13.21875 -6.4375 L 13.21875 -16.375 Z M 16.953125 -16.375 "/></g></g></g><g fill="#ffffff" fill-opacity="1"><g transform="translate(91.426774, 22.956963)"><g><path d="M 12.71875 -3.515625 L 5.125 -3.515625 L 3.671875 0 L -0.203125 0 L 7.09375 -16.375 L 10.828125 -16.375 L 18.15625 0 L 14.171875 0 Z M 11.53125 -6.390625 L 8.9375 -12.65625 L 6.34375 -6.390625 Z M 11.53125 -6.390625 "/></g></g></g><g fill="#ffffff" fill-opacity="1"><g transform="translate(125.712666, 22.956963)"><g><path d="M 16.953125 -16.375 L 16.953125 0 L 13.84375 0 L 5.6875 -9.9375 L 5.6875 0 L 1.9375 0 L 1.9375 -16.375 L 5.078125 -16.375 L 13.21875 -6.4375 L 13.21875 -16.375 Z M 16.953125 -16.375 "/></g></g></g><g fill="#ffffff" fill-opacity="1"><g transform="translate(160.980544, 22.956963)"><g><path d="M 9.78125 0.28125 C 8.113281 0.28125 6.601562 -0.078125 5.25 -0.796875 C 3.90625 -1.523438 2.84375 -2.53125 2.0625 -3.8125 C 1.289062 -5.101562 0.90625 -6.5625 0.90625 -8.1875 C 0.90625 -9.8125 1.289062 -11.265625 2.0625 -12.546875 C 2.84375 -13.835938 3.90625 -14.84375 5.25 -15.5625 C 6.601562 -16.289062 8.117188 -16.65625 9.796875 -16.65625 C 11.210938 -16.65625 12.492188 -16.40625 13.640625 -15.90625 C 14.796875 -15.40625 15.757812 -14.6875 16.53125 -13.75 L 14.109375 -11.515625 C 12.992188 -12.785156 11.617188 -13.421875 9.984375 -13.421875 C 8.972656 -13.421875 8.066406 -13.195312 7.265625 -12.75 C 6.472656 -12.3125 5.851562 -11.691406 5.40625 -10.890625 C 4.96875 -10.097656 4.75 -9.195312 4.75 -8.1875 C 4.75 -7.175781 4.96875 -6.269531 5.40625 -5.46875 C 5.851562 -4.675781 6.472656 -4.054688 7.265625 -3.609375 C 8.066406 -3.171875 8.972656 -2.953125 9.984375 -2.953125 C 11.617188 -2.953125 12.992188 -3.597656 14.109375 -4.890625 L 16.53125 -2.640625 C 15.757812 -1.691406 14.796875 -0.96875 13.640625 -0.46875 C 12.484375 0.03125 11.195312 0.28125 9.78125 0.28125 Z M 9.78125 0.28125 "/></g></g></g><g fill="#ffffff" fill-opacity="1"><g transform="translate(194.494882, 22.956963)"><g><path d="M 14.625 -3.046875 L 14.625 0 L 1.9375 0 L 1.9375 -16.375 L 14.3125 -16.375 L 14.3125 -13.328125 L 5.703125 -13.328125 L 5.703125 -9.78125 L 13.3125 -9.78125 L 13.3125 -6.828125 L 5.703125 -6.828125 L 5.703125 -3.046875 Z M 14.625 -3.046875 "/></g></g></g></g></g></svg>