<svg xmlns="http://www.w3.org/2000/svg" xmlns:xlink="http://www.w3.org/1999/xlink" width="500" zoomAndPan="magnify" viewBox="0 0 375 374.999991" height="500" preserveAspectRatio="xMidYMid meet" version="1.0"><defs><g/><clipPath id="ad2fe0a62e"><path d="M 36.011719 99.132812 L 339 99.132812 L 339 198.132812 L 36.011719 198.132812 Z M 36.011719 99.132812 " clip-rule="nonzero"/></clipPath><clipPath id="3b5c677be7"><rect x="0" width="365" y="0" height="54"/></clipPath><clipPath id="fb07a9f500"><rect x="0" width="249" y="0" height="16"/></clipPath></defs><g clip-path="url(#ad2fe0a62e)"><path fill="#ffffff" d="M 336.132812 183.75 L 335.984375 183.683594 C 328.429688 180.183594 321.234375 175.910156 314.441406 171.015625 C 312.769531 169.75 311.054688 168.550781 309.417969 167.234375 L 304.539062 163.238281 L 299.808594 159.039062 C 299.011719 158.347656 298.246094 157.617188 297.484375 156.882812 L 295.1875 154.691406 C 289.074219 148.820312 283.222656 142.609375 277.378906 136.300781 C 271.519531 129.996094 265.707031 123.589844 259.339844 117.433594 L 256.886719 115.125 L 255.660156 113.96875 C 255.25 113.582031 254.84375 113.253906 254.4375 112.894531 L 251.988281 110.78125 L 251.378906 110.253906 L 251.070312 109.992188 L 250.664062 109.652344 C 250.210938 109.28125 249.75 108.921875 249.28125 108.566406 C 245.53125 105.742188 241.445312 103.386719 236.933594 101.695312 C 232.425781 100.007812 227.535156 99.191406 222.6875 99.265625 C 217.824219 99.335938 213.011719 100.4375 208.542969 102.261719 C 207.976562 102.472656 207.441406 102.761719 206.890625 103.007812 C 206.351562 103.273438 205.789062 103.503906 205.265625 103.804688 C 204.21875 104.40625 203.140625 104.953125 202.152344 105.644531 L 200.644531 106.644531 L 199.210938 107.738281 C 198.257812 108.425781 197.308594 109.332031 196.371094 110.160156 L 196.019531 110.476562 L 195.738281 110.765625 L 194.605469 111.917969 L 194.320312 112.207031 L 194.179688 112.351562 C 194.179688 112.351562 193.933594 112.609375 194.003906 112.539062 L 193.929688 112.625 C 193.140625 113.523438 192.355469 114.421875 191.632812 115.386719 C 190.183594 117.292969 188.847656 119.3125 187.753906 121.460938 C 186.644531 123.601562 185.722656 125.832031 184.988281 128.109375 C 184.25 130.390625 183.738281 132.714844 183.363281 135.042969 C 183.167969 136.210938 183.050781 137.375 182.925781 138.539062 C 182.84375 139.703125 182.75 140.855469 182.726562 142.070312 C 182.675781 143.359375 182.707031 144.207031 182.710938 145.480469 L 182.808594 148.765625 C 182.96875 153.09375 183.144531 157.230469 182.78125 161.121094 C 182.699219 162.085938 182.5625 163.082031 182.417969 163.921875 C 182.394531 164.121094 182.335938 164.394531 182.28125 164.660156 L 182.125 165.453125 L 181.792969 166.726562 C 181.28125 168.515625 180.664062 170.28125 179.792969 171.933594 C 176.449219 178.625 170.347656 183.96875 163.257812 186.910156 C 156.179688 189.882812 148.085938 190.507812 140.910156 188.265625 C 140.003906 188.007812 139.140625 187.652344 138.265625 187.3125 L 137.082031 186.773438 C 136.871094 186.671875 136.710938 186.621094 136.464844 186.480469 L 135.757812 186.09375 C 134.082031 185.214844 132.414062 184.085938 130.851562 182.921875 L 130.269531 182.472656 L 129.691406 182.015625 C 129.304688 181.703125 128.90625 181.34375 128.511719 181.011719 L 126.152344 178.984375 C 125.355469 178.324219 124.59375 177.601562 123.828125 176.882812 L 121.535156 174.726562 C 115.464844 168.890625 109.683594 162.5625 103.796875 156.253906 C 97.910156 149.941406 91.9375 143.601562 85.589844 137.566406 L 83.191406 135.316406 C 82.398438 134.5625 81.601562 133.8125 80.761719 133.097656 L 75.796875 128.753906 L 70.644531 124.597656 C 68.914062 123.226562 67.089844 121.964844 65.316406 120.644531 C 62.660156 118.757812 59.933594 116.960938 57.148438 115.253906 C 57.914062 115.363281 58.683594 115.472656 59.445312 115.609375 C 61.488281 115.96875 63.53125 116.382812 65.546875 116.898438 C 66.558594 117.152344 67.570312 117.398438 68.570312 117.703125 C 69.570312 117.996094 70.578125 118.273438 71.566406 118.617188 C 73.558594 119.246094 75.523438 119.976562 77.472656 120.730469 L 80.382812 121.929688 L 83.25 123.230469 C 84.214844 123.644531 85.136719 124.152344 86.082031 124.613281 C 87.023438 125.078125 87.960938 125.550781 88.878906 126.074219 C 89.800781 126.582031 90.726562 127.078125 91.640625 127.601562 L 94.355469 129.226562 C 95.269531 129.75 96.140625 130.351562 97.027344 130.921875 C 97.90625 131.507812 98.8125 132.050781 99.667969 132.671875 C 101.390625 133.898438 103.144531 135.082031 104.808594 136.398438 C 105.644531 137.042969 106.496094 137.671875 107.328125 138.332031 L 109.78125 140.355469 C 111.445312 141.671875 112.996094 143.125 114.601562 144.519531 C 116.191406 145.925781 117.699219 147.433594 119.25 148.886719 C 120.765625 150.382812 122.238281 151.921875 123.738281 153.4375 L 128.058594 158.160156 L 128.167969 158.28125 C 129.390625 159.605469 131.445312 159.8125 132.910156 158.699219 C 134.46875 157.519531 134.773438 155.296875 133.589844 153.738281 L 130.726562 149.960938 C 129.742188 148.726562 128.777344 147.472656 127.777344 146.246094 C 126.765625 145.03125 125.78125 143.792969 124.746094 142.597656 C 123.707031 141.402344 122.699219 140.183594 121.632812 139.015625 C 120.5625 137.847656 119.535156 136.648438 118.433594 135.507812 C 117.339844 134.363281 116.277344 133.191406 115.152344 132.078125 C 114.03125 130.957031 112.9375 129.8125 111.785156 128.726562 C 110.636719 127.636719 109.519531 126.515625 108.335938 125.464844 C 107.160156 124.402344 106.011719 123.308594 104.804688 122.285156 C 103.601562 121.257812 102.425781 120.191406 101.1875 119.203125 C 99.957031 118.207031 98.757812 117.167969 97.492188 116.214844 C 96.230469 115.253906 95.007812 114.25 93.71875 113.328125 C 92.429688 112.402344 91.171875 111.4375 89.863281 110.542969 C 89.523438 110.3125 89.1875 110.082031 88.847656 109.847656 C 90.527344 110.183594 92.199219 110.582031 93.859375 111.03125 C 95.785156 111.558594 97.699219 112.140625 99.589844 112.808594 C 101.480469 113.464844 103.351562 114.195312 105.199219 114.984375 C 107.054688 115.757812 108.871094 116.625 110.675781 117.507812 L 113.359375 118.902344 L 115.996094 120.382812 C 116.882812 120.863281 117.730469 121.414062 118.59375 121.9375 C 119.453125 122.464844 120.320312 122.988281 121.152344 123.558594 L 123.675781 125.246094 L 126.136719 127.019531 C 126.96875 127.597656 127.761719 128.226562 128.5625 128.847656 C 129.359375 129.476562 130.175781 130.078125 130.953125 130.726562 C 132.5 132.042969 134.089844 133.304688 135.574219 134.691406 L 137.835938 136.734375 L 140.023438 138.859375 C 141.507812 140.25 142.882812 141.753906 144.300781 143.21875 C 145.714844 144.683594 147.03125 146.242188 148.402344 147.75 C 149.734375 149.296875 151.015625 150.882812 152.328125 152.449219 L 156.085938 157.292969 L 156.152344 157.378906 C 156.867188 158.292969 158.175781 158.53125 159.171875 157.890625 C 160.226562 157.214844 160.53125 155.808594 159.855469 154.753906 L 157.835938 151.609375 L 155.761719 148.503906 C 154.355469 146.445312 152.90625 144.421875 151.421875 142.421875 C 148.453125 138.425781 145.320312 134.546875 142.035156 130.800781 C 141.203125 129.875 140.394531 128.929688 139.542969 128.023438 C 138.691406 127.113281 137.863281 126.1875 136.992188 125.296875 C 136.121094 124.40625 135.269531 123.496094 134.382812 122.625 C 133.492188 121.753906 132.621094 120.863281 131.714844 120.011719 C 130.804688 119.160156 129.910156 118.292969 128.992188 117.457031 L 126.210938 114.964844 L 125.425781 114.289062 C 125.960938 114.421875 126.5 114.558594 127.027344 114.730469 L 128.957031 115.304688 C 129.597656 115.503906 130.226562 115.742188 130.863281 115.960938 C 131.496094 116.1875 132.140625 116.386719 132.765625 116.636719 L 134.640625 117.394531 C 135.898438 117.875 137.117188 118.457031 138.339844 119.027344 L 140.171875 119.886719 L 141.964844 120.839844 C 143.15625 121.476562 144.371094 122.074219 145.519531 122.796875 C 146.675781 123.5 147.84375 124.179688 148.996094 124.898438 L 152.359375 127.179688 C 153.503906 127.914062 154.554688 128.773438 155.636719 129.59375 C 156.703125 130.433594 157.816406 131.214844 158.847656 132.101562 L 161.933594 134.765625 C 162.441406 135.21875 162.972656 135.644531 163.46875 136.109375 L 164.929688 137.535156 L 167.859375 140.382812 C 168.835938 141.335938 169.710938 142.378906 170.644531 143.375 L 173.402344 146.398438 L 173.441406 146.441406 C 173.714844 146.738281 174.167969 146.808594 174.515625 146.585938 C 174.910156 146.335938 175.027344 145.816406 174.78125 145.421875 L 173.617188 143.582031 L 172.410156 141.78125 C 172.007812 141.179688 171.585938 140.597656 171.175781 140.003906 C 170.765625 139.410156 170.339844 138.828125 169.917969 138.246094 C 168.238281 135.90625 166.5 133.617188 164.738281 131.347656 C 161.4375 127.082031 158.058594 122.886719 154.625 118.738281 C 157.660156 119.609375 160.625 120.734375 163.484375 122.097656 C 166.667969 123.613281 169.71875 125.414062 172.617188 127.433594 C 169.78125 125.320312 166.785156 123.421875 163.632812 121.800781 C 160.484375 120.171875 157.183594 118.828125 153.777344 117.800781 C 153.679688 117.773438 153.566406 117.792969 153.476562 117.859375 C 153.332031 117.972656 153.304688 118.179688 153.417969 118.328125 L 153.425781 118.339844 C 156.945312 122.859375 160.40625 127.4375 163.765625 132.074219 C 164.980469 133.75 166.171875 135.4375 167.351562 137.128906 L 166.34375 136.089844 L 164.890625 134.605469 C 164.398438 134.117188 163.871094 133.667969 163.363281 133.195312 L 160.289062 130.394531 C 159.265625 129.460938 158.148438 128.632812 157.082031 127.746094 C 155.996094 126.878906 154.941406 125.972656 153.789062 125.191406 L 150.402344 122.761719 C 149.242188 121.992188 148.058594 121.261719 146.886719 120.511719 C 145.730469 119.734375 144.496094 119.082031 143.285156 118.398438 L 141.460938 117.378906 L 139.582031 116.449219 C 138.332031 115.832031 137.085938 115.203125 135.789062 114.675781 L 133.863281 113.847656 C 133.21875 113.570312 132.554688 113.351562 131.902344 113.097656 C 131.242188 112.855469 130.59375 112.597656 129.925781 112.371094 L 127.921875 111.726562 C 127.261719 111.5 126.578125 111.320312 125.898438 111.132812 C 125.21875 110.949219 124.542969 110.75 123.851562 110.601562 C 123.160156 110.445312 122.476562 110.277344 121.765625 110.15625 C 121.054688 110.015625 120.382812 109.902344 119.585938 109.804688 C 119.066406 109.75 118.515625 109.941406 118.148438 110.367188 C 117.5625 111.058594 117.640625 112.089844 118.328125 112.679688 L 118.394531 112.738281 L 121.171875 115.113281 L 123.898438 117.554688 L 126.5625 120.050781 C 127.449219 120.886719 128.304688 121.753906 129.175781 122.605469 C 129.273438 122.707031 129.371094 122.808594 129.472656 122.910156 C 129.417969 122.867188 129.359375 122.820312 129.300781 122.78125 L 126.757812 120.882812 L 124.144531 119.074219 C 123.28125 118.457031 122.382812 117.894531 121.488281 117.324219 C 120.589844 116.761719 119.710938 116.167969 118.785156 115.644531 L 116.035156 114.039062 L 113.230469 112.519531 C 111.339844 111.550781 109.433594 110.601562 107.480469 109.746094 C 105.535156 108.875 103.558594 108.066406 101.550781 107.335938 C 99.550781 106.589844 97.511719 105.933594 95.457031 105.324219 C 93.398438 104.738281 91.316406 104.199219 89.207031 103.777344 C 87.101562 103.339844 84.964844 103 82.804688 102.757812 C 81.726562 102.632812 80.636719 102.546875 79.539062 102.480469 C 78.984375 102.453125 78.4375 102.425781 77.871094 102.417969 L 77.019531 102.414062 C 76.722656 102.414062 76.46875 102.417969 76.082031 102.4375 C 75.113281 102.492188 74.171875 103.003906 73.625 103.890625 C 72.730469 105.332031 73.179688 107.222656 74.621094 108.113281 L 74.722656 108.175781 L 78.613281 110.582031 L 82.441406 113.097656 C 83.707031 113.945312 84.941406 114.847656 86.191406 115.71875 C 86.792969 116.136719 87.378906 116.574219 87.960938 117.011719 C 87.484375 116.769531 87.007812 116.53125 86.519531 116.3125 L 83.453125 114.894531 L 80.332031 113.585938 C 78.234375 112.753906 76.125 111.953125 73.972656 111.253906 C 72.90625 110.878906 71.816406 110.566406 70.730469 110.242188 C 69.652344 109.90625 68.550781 109.625 67.453125 109.339844 C 65.261719 108.765625 63.039062 108.296875 60.800781 107.886719 C 59.679688 107.675781 58.550781 107.519531 57.425781 107.34375 C 56.292969 107.210938 55.164062 107.039062 54.023438 106.949219 C 51.746094 106.714844 49.453125 106.601562 47.136719 106.589844 C 45.980469 106.582031 44.816406 106.617188 43.640625 106.675781 C 43.050781 106.714844 42.464844 106.746094 41.863281 106.808594 L 40.949219 106.902344 L 40.476562 106.964844 L 39.925781 107.046875 C 38.667969 107.246094 37.5 108.054688 36.925781 109.296875 C 36.007812 111.285156 36.871094 113.636719 38.851562 114.554688 L 39 114.621094 C 46.558594 118.121094 53.75 122.390625 60.542969 127.289062 C 62.214844 128.554688 63.933594 129.753906 65.570312 131.070312 L 70.449219 135.066406 L 75.179688 139.265625 C 75.976562 139.957031 76.742188 140.691406 77.503906 141.421875 L 79.800781 143.613281 C 85.902344 149.496094 91.761719 155.699219 97.605469 162.007812 C 103.457031 168.308594 109.289062 174.734375 115.628906 180.863281 L 118.039062 183.136719 C 118.839844 183.898438 119.644531 184.660156 120.503906 185.375 L 123.039062 187.566406 C 123.46875 187.929688 123.871094 188.289062 124.320312 188.660156 L 125.003906 189.207031 L 125.703125 189.742188 C 127.589844 191.15625 129.496094 192.457031 131.632812 193.597656 L 132.339844 193.988281 C 132.5625 194.117188 132.902344 194.265625 133.175781 194.398438 C 133.757812 194.671875 134.351562 194.960938 134.925781 195.210938 C 136.058594 195.65625 137.1875 196.117188 138.355469 196.457031 C 140.675781 197.179688 143.058594 197.703125 145.460938 197.957031 C 147.859375 198.21875 150.277344 198.316406 152.671875 198.140625 C 157.46875 197.84375 162.171875 196.707031 166.585938 194.886719 C 168.785156 193.957031 170.917969 192.867188 172.953125 191.609375 C 174.976562 190.328125 176.90625 188.890625 178.710938 187.300781 C 180.507812 185.695312 182.15625 183.917969 183.660156 182.015625 C 185.164062 180.113281 186.445312 178.027344 187.566406 175.863281 C 188.699219 173.699219 189.535156 171.382812 190.207031 169.035156 L 190.679688 167.179688 L 190.839844 166.386719 C 190.890625 166.125 190.945312 165.875 191 165.539062 C 191.222656 164.257812 191.375 163.117188 191.480469 161.9375 C 191.925781 157.238281 191.714844 152.734375 191.574219 148.460938 L 191.480469 145.285156 C 191.476562 144.410156 191.445312 143.09375 191.492188 142.234375 C 191.503906 141.292969 191.582031 140.296875 191.648438 139.3125 C 191.753906 138.335938 191.847656 137.359375 192.007812 136.398438 C 192.589844 132.539062 193.746094 128.855469 195.488281 125.480469 C 196.34375 123.785156 197.398438 122.195312 198.546875 120.675781 C 199.109375 119.90625 199.746094 119.1875 200.375 118.460938 L 200.433594 118.394531 C 200.441406 118.378906 200.449219 118.375 200.453125 118.367188 L 200.53125 118.289062 L 201.378906 117.421875 L 201.945312 116.84375 L 202.226562 116.554688 L 202.476562 116.335938 C 203.167969 115.753906 203.761719 115.144531 204.558594 114.574219 L 205.6875 113.699219 L 206.875 112.917969 C 207.648438 112.359375 208.5 111.941406 209.316406 111.460938 C 209.726562 111.21875 210.167969 111.046875 210.59375 110.835938 C 211.023438 110.640625 211.4375 110.40625 211.882812 110.246094 C 215.375 108.820312 219.105469 107.941406 222.871094 107.886719 C 226.628906 107.828125 230.382812 108.429688 233.957031 109.753906 C 237.523438 111.074219 240.992188 113.042969 244.125 115.394531 C 244.515625 115.691406 244.902344 115.992188 245.289062 116.300781 L 245.40625 116.398438 C 245.417969 116.410156 245.425781 116.417969 245.421875 116.414062 L 245.5 116.480469 L 246.421875 117.269531 L 248.871094 119.375 C 249.269531 119.726562 249.703125 120.074219 250.078125 120.425781 L 251.203125 121.488281 L 253.457031 123.601562 C 259.496094 129.414062 265.296875 135.757812 271.179688 142.0625 C 277.0625 148.378906 283.046875 154.710938 289.382812 160.757812 L 291.78125 163.007812 C 292.574219 163.757812 293.371094 164.511719 294.210938 165.226562 L 299.175781 169.570312 L 304.328125 173.726562 C 306.058594 175.09375 307.882812 176.359375 309.660156 177.675781 C 312.300781 179.554688 315.011719 181.34375 317.78125 183.042969 C 317.03125 182.9375 316.285156 182.828125 315.539062 182.695312 C 313.492188 182.335938 311.453125 181.921875 309.433594 181.40625 C 308.425781 181.152344 307.414062 180.90625 306.414062 180.601562 C 305.410156 180.308594 304.40625 180.03125 303.417969 179.6875 C 301.425781 179.058594 299.460938 178.328125 297.507812 177.574219 L 294.601562 176.378906 L 291.734375 175.074219 C 290.773438 174.660156 289.847656 174.152344 288.90625 173.691406 C 287.960938 173.226562 287.023438 172.753906 286.105469 172.234375 C 285.1875 171.722656 284.257812 171.230469 283.34375 170.703125 L 280.632812 169.082031 C 279.714844 168.554688 278.84375 167.957031 277.957031 167.382812 C 277.078125 166.800781 276.175781 166.253906 275.316406 165.636719 C 273.59375 164.410156 271.84375 163.226562 270.179688 161.910156 C 269.339844 161.265625 268.488281 160.632812 267.660156 159.976562 L 265.207031 157.953125 C 263.546875 156.632812 261.996094 155.175781 260.390625 153.785156 C 258.796875 152.378906 257.292969 150.871094 255.738281 149.417969 C 254.226562 147.921875 252.75 146.382812 251.25 144.863281 L 246.929688 140.144531 L 246.820312 140.023438 C 245.59375 138.691406 243.535156 138.484375 242.0625 139.601562 C 240.496094 140.789062 240.191406 143.019531 241.378906 144.582031 L 244.246094 148.359375 C 245.226562 149.597656 246.191406 150.851562 247.191406 152.078125 C 248.203125 153.292969 249.191406 154.527344 250.226562 155.726562 C 251.265625 156.917969 252.269531 158.136719 253.339844 159.304688 C 254.40625 160.476562 255.4375 161.675781 256.539062 162.816406 C 257.628906 163.957031 258.695312 165.132812 259.820312 166.246094 C 260.941406 167.363281 262.03125 168.507812 263.1875 169.597656 C 264.332031 170.6875 265.453125 171.808594 266.636719 172.859375 C 267.8125 173.921875 268.960938 175.015625 270.167969 176.039062 C 271.371094 177.066406 272.546875 178.132812 273.785156 179.121094 C 275.015625 180.117188 276.214844 181.15625 277.480469 182.109375 C 278.742188 183.070312 279.964844 184.074219 281.253906 184.996094 C 282.542969 185.921875 283.800781 186.886719 285.113281 187.78125 C 285.4375 188 285.757812 188.222656 286.078125 188.445312 C 284.421875 188.109375 282.769531 187.710938 281.125 187.273438 C 279.199219 186.738281 277.285156 186.160156 275.398438 185.488281 C 273.503906 184.835938 271.632812 184.105469 269.785156 183.320312 C 267.933594 182.542969 266.117188 181.675781 264.308594 180.792969 L 261.625 179.402344 L 258.988281 177.917969 C 258.101562 177.4375 257.257812 176.886719 256.394531 176.363281 C 255.53125 175.835938 254.667969 175.316406 253.835938 174.742188 L 251.3125 173.058594 L 248.847656 171.285156 C 248.019531 170.707031 247.222656 170.078125 246.425781 169.457031 C 245.628906 168.828125 244.8125 168.226562 244.035156 167.578125 C 242.488281 166.261719 240.898438 165.003906 239.414062 163.613281 L 237.152344 161.570312 L 234.964844 159.445312 C 233.480469 158.054688 232.105469 156.550781 230.6875 155.089844 C 229.273438 153.625 227.957031 152.0625 226.585938 150.554688 C 225.257812 149.011719 223.972656 147.421875 222.660156 145.859375 L 218.902344 141.015625 L 218.835938 140.929688 C 218.117188 140.007812 216.804688 139.769531 215.804688 140.414062 C 214.746094 141.09375 214.4375 142.507812 215.117188 143.566406 L 217.136719 146.710938 L 219.210938 149.816406 C 220.617188 151.871094 222.0625 153.902344 223.546875 155.898438 C 226.519531 159.894531 229.652344 163.777344 232.933594 167.519531 C 233.769531 168.445312 234.578125 169.390625 235.429688 170.296875 C 236.28125 171.207031 237.109375 172.136719 237.980469 173.023438 C 238.855469 173.914062 239.703125 174.824219 240.589844 175.695312 C 241.480469 176.566406 242.351562 177.457031 243.257812 178.308594 C 244.167969 179.160156 245.0625 180.027344 245.984375 180.863281 L 248.761719 183.355469 L 249.523438 184.007812 C 248.996094 183.875 248.472656 183.742188 247.953125 183.578125 L 246.023438 183.003906 C 245.386719 182.800781 244.753906 182.566406 244.117188 182.347656 C 243.484375 182.121094 242.84375 181.921875 242.21875 181.667969 L 240.347656 180.910156 C 239.085938 180.429688 237.867188 179.851562 236.644531 179.277344 L 234.808594 178.421875 L 233.019531 177.46875 C 231.828125 176.832031 230.613281 176.234375 229.46875 175.507812 C 228.308594 174.808594 227.136719 174.128906 225.988281 173.410156 L 222.625 171.128906 C 221.480469 170.394531 220.429688 169.535156 219.347656 168.714844 C 218.28125 167.875 217.167969 167.09375 216.136719 166.207031 L 213.050781 163.542969 C 212.539062 163.09375 212.011719 162.664062 211.515625 162.199219 L 210.050781 160.773438 L 207.125 157.925781 C 206.152344 156.976562 205.273438 155.929688 204.339844 154.933594 L 201.582031 151.914062 L 201.542969 151.867188 C 201.269531 151.570312 200.8125 151.5 200.460938 151.722656 C 200.0625 151.972656 199.945312 152.5 200.195312 152.894531 L 201.359375 154.734375 L 202.566406 156.535156 C 202.96875 157.136719 203.390625 157.71875 203.800781 158.3125 C 204.210938 158.90625 204.636719 159.488281 205.058594 160.070312 C 206.738281 162.410156 208.476562 164.699219 210.238281 166.96875 C 213.539062 171.230469 216.917969 175.425781 220.351562 179.574219 C 217.316406 178.703125 214.351562 177.574219 211.496094 176.214844 C 208.3125 174.699219 205.261719 172.898438 202.363281 170.878906 C 205.195312 172.992188 208.195312 174.890625 211.347656 176.515625 C 214.496094 178.140625 217.796875 179.492188 221.203125 180.511719 C 221.300781 180.542969 221.417969 180.527344 221.503906 180.457031 C 221.652344 180.34375 221.675781 180.128906 221.566406 179.984375 L 221.554688 179.976562 C 218.035156 175.453125 214.578125 170.875 211.21875 166.238281 C 210.015625 164.578125 208.835938 162.90625 207.664062 161.230469 L 208.636719 162.226562 L 210.085938 163.714844 C 210.578125 164.199219 211.101562 164.652344 211.609375 165.121094 L 214.6875 167.925781 C 215.710938 168.855469 216.828125 169.6875 217.898438 170.574219 C 218.980469 171.4375 220.035156 172.34375 221.183594 173.128906 L 224.574219 175.558594 C 225.730469 176.328125 226.914062 177.058594 228.089844 177.808594 C 229.246094 178.585938 230.480469 179.238281 231.691406 179.921875 L 233.519531 180.941406 L 235.394531 181.871094 C 236.644531 182.488281 237.894531 183.117188 239.1875 183.644531 L 241.117188 184.472656 C 241.757812 184.75 242.421875 184.972656 243.078125 185.226562 C 243.734375 185.464844 244.386719 185.722656 245.050781 185.949219 L 247.054688 186.59375 C 247.71875 186.820312 248.398438 187.003906 249.078125 187.1875 C 249.757812 187.371094 250.433594 187.570312 251.128906 187.71875 C 251.820312 187.875 252.503906 188.046875 253.210938 188.167969 C 253.925781 188.308594 254.59375 188.421875 255.394531 188.515625 C 255.917969 188.574219 256.46875 188.378906 256.839844 187.949219 C 257.429688 187.257812 257.347656 186.21875 256.65625 185.628906 L 256.589844 185.570312 L 253.8125 183.195312 L 251.089844 180.753906 L 248.421875 178.257812 C 247.539062 177.417969 246.683594 176.550781 245.8125 175.699219 C 245.746094 175.636719 245.683594 175.570312 245.617188 175.503906 C 245.636719 175.515625 245.652344 175.53125 245.671875 175.542969 L 248.21875 177.441406 L 250.828125 179.253906 C 251.691406 179.867188 252.589844 180.429688 253.484375 181 C 254.382812 181.566406 255.261719 182.15625 256.1875 182.679688 L 258.9375 184.289062 L 261.742188 185.804688 C 263.636719 186.773438 265.542969 187.722656 267.496094 188.582031 C 269.441406 189.449219 271.417969 190.257812 273.421875 190.992188 C 275.425781 191.738281 277.464844 192.394531 279.519531 193.003906 C 280.546875 193.300781 281.585938 193.566406 282.625 193.839844 C 283.671875 194.078125 284.714844 194.347656 285.773438 194.546875 C 287.878906 194.984375 290.011719 195.324219 292.171875 195.566406 C 293.253906 195.691406 294.34375 195.78125 295.441406 195.847656 C 295.996094 195.871094 296.542969 195.902344 297.105469 195.90625 L 297.960938 195.910156 C 298.261719 195.910156 298.511719 195.90625 298.898438 195.886719 C 299.871094 195.832031 300.816406 195.320312 301.367188 194.429688 C 302.261719 192.984375 301.8125 191.082031 300.363281 190.191406 L 300.265625 190.128906 L 296.371094 187.722656 L 292.546875 185.207031 C 291.28125 184.359375 290.046875 183.457031 288.796875 182.585938 C 288.230469 182.191406 287.675781 181.78125 287.125 181.363281 C 287.5625 181.589844 288.007812 181.808594 288.457031 182.007812 L 291.523438 183.429688 L 294.644531 184.738281 C 296.742188 185.570312 298.855469 186.371094 301.003906 187.070312 C 302.070312 187.445312 303.160156 187.757812 304.246094 188.082031 C 305.328125 188.417969 306.425781 188.699219 307.523438 188.984375 C 309.71875 189.558594 311.941406 190.03125 314.179688 190.4375 C 315.296875 190.648438 316.429688 190.804688 317.554688 190.980469 C 318.6875 191.113281 319.816406 191.285156 320.957031 191.375 C 323.230469 191.609375 325.53125 191.722656 327.84375 191.734375 C 329 191.742188 330.164062 191.710938 331.339844 191.648438 C 331.929688 191.613281 332.515625 191.578125 333.117188 191.515625 L 334.03125 191.421875 L 334.507812 191.359375 L 335.054688 191.277344 C 336.320312 191.078125 337.488281 190.265625 338.066406 189.019531 C 338.988281 187.03125 338.121094 184.671875 336.132812 183.75 " fill-opacity="1" fill-rule="nonzero"/></g><g transform="matrix(1, 0, 0, 1, 9, 210)"><g clip-path="url(#3b5c677be7)"><g fill="#ffffff" fill-opacity="1"><g transform="translate(1.447132, 36.452063)"><g><path d="M 20.65625 0 L 2 0 L 2 -29.4375 L 20.03125 -29.4375 C 23.351562 -29.4375 25.78125 -28.769531 27.3125 -27.4375 C 28.851562 -26.101562 29.625 -24.363281 29.625 -22.21875 L 29.625 -22.171875 C 29.625 -20.773438 29.257812 -19.5 28.53125 -18.34375 C 27.800781 -17.195312 26.796875 -16.320312 25.515625 -15.71875 C 27.234375 -15.207031 28.570312 -14.320312 29.53125 -13.0625 C 30.488281 -11.800781 30.96875 -10.335938 30.96875 -8.671875 L 30.96875 -8.640625 C 30.96875 -5.804688 30.109375 -3.65625 28.390625 -2.1875 C 26.671875 -0.726562 24.09375 0 20.65625 0 Z M 7.6875 -24.09375 L 7.6875 -17.234375 L 19.453125 -17.234375 C 20.953125 -17.234375 22.066406 -17.535156 22.796875 -18.140625 C 23.523438 -18.753906 23.890625 -19.578125 23.890625 -20.609375 L 23.890625 -20.65625 C 23.890625 -21.644531 23.523438 -22.460938 22.796875 -23.109375 C 22.066406 -23.765625 20.953125 -24.09375 19.453125 -24.09375 Z M 7.6875 -12.890625 L 7.6875 -5.328125 L 20.1875 -5.328125 C 21.832031 -5.328125 23.070312 -5.6875 23.90625 -6.40625 C 24.738281 -7.125 25.15625 -8.097656 25.15625 -9.328125 L 25.15625 -9.359375 C 25.15625 -10.503906 24.710938 -11.378906 23.828125 -11.984375 C 22.941406 -12.585938 21.675781 -12.890625 20.03125 -12.890625 Z M 7.6875 -12.890625 "/></g></g></g><g fill="#ffffff" fill-opacity="1"><g transform="translate(42.136618, 36.452063)"><g><path d="M 7.6875 0 L 1.953125 0 L 1.953125 -29.4375 L 7.6875 -29.4375 Z M 7.6875 0 "/></g></g></g><g fill="#ffffff" fill-opacity="1"><g transform="translate(60.176468, 36.452063)"><g><path d="M 24.9375 -11.546875 L 32.484375 0 L 26.0625 0 L 19.28125 -10.59375 L 7.65625 -10.59375 L 7.65625 0 L 2 0 L 2 -29.4375 L 19.890625 -29.4375 C 22.046875 -29.4375 23.925781 -29.066406 25.53125 -28.328125 C 27.144531 -27.585938 28.398438 -26.523438 29.296875 -25.140625 C 30.191406 -23.765625 30.640625 -22.132812 30.640625 -20.25 L 30.640625 -20.21875 C 30.640625 -18.15625 30.132812 -16.375 29.125 -14.875 C 28.125 -13.375 26.726562 -12.265625 24.9375 -11.546875 Z M 19.203125 -24.140625 L 7.65625 -24.140625 L 7.65625 -15.5 L 19.203125 -15.5 C 20.867188 -15.5 22.207031 -15.851562 23.21875 -16.5625 C 24.238281 -17.28125 24.75 -18.378906 24.75 -19.859375 L 24.75 -19.890625 C 24.75 -21.390625 24.242188 -22.472656 23.234375 -23.140625 C 22.234375 -23.804688 20.890625 -24.140625 19.203125 -24.140625 Z M 19.203125 -24.140625 "/></g></g></g><g fill="#ffffff" fill-opacity="1"><g transform="translate(101.519313, 36.452063)"><g><path d="M 16.875 0 L 1.953125 0 L 1.953125 -29.4375 L 16.875 -29.4375 C 22.65625 -29.4375 26.875 -28.203125 29.53125 -25.734375 C 32.195312 -23.265625 33.53125 -19.660156 33.53125 -14.921875 L 33.53125 -14.84375 C 33.53125 -9.976562 32.128906 -6.285156 29.328125 -3.765625 C 26.523438 -1.253906 22.375 0 16.875 0 Z M 7.6875 -24.09375 L 7.6875 -5.328125 L 17.09375 -5.328125 C 20.550781 -5.328125 23.179688 -6.144531 24.984375 -7.78125 C 26.785156 -9.414062 27.6875 -11.769531 27.6875 -14.84375 L 27.6875 -14.921875 C 27.6875 -17.890625 26.789062 -20.160156 25 -21.734375 C 23.21875 -23.304688 20.582031 -24.09375 17.09375 -24.09375 Z M 7.6875 -24.09375 "/></g></g></g><g fill="#ffffff" fill-opacity="1"><g transform="translate(144.931116, 36.452063)"><g/></g></g><g fill="#ffffff" fill-opacity="1"><g transform="translate(161.264972, 36.452063)"><g><path d="M 35.9375 -5.875 L 42.828125 -29.4375 L 49.078125 -29.4375 L 40 0 L 32.265625 0 L 24.859375 -23.484375 L 18.109375 0 L 10.34375 0 L 0.578125 -29.4375 L 6.828125 -29.4375 L 14.34375 -5.875 L 21.15625 -29.4375 L 28.5 -29.4375 Z M 35.9375 -5.875 "/></g></g></g><g fill="#ffffff" fill-opacity="1"><g transform="translate(219.304672, 36.452063)"><g><path d="M 7.6875 0 L 1.953125 0 L 1.953125 -29.4375 L 7.6875 -29.4375 Z M 7.6875 0 "/></g></g></g><g fill="#ffffff" fill-opacity="1"><g transform="translate(237.344522, 36.452063)"><g><path d="M 27.21875 -5.625 L 27.21875 -29.4375 L 32.953125 -29.4375 L 32.953125 0 L 25.015625 0 L 7.65625 -24.53125 L 7.65625 0 L 2 0 L 2 -29.4375 L 10.203125 -29.4375 Z M 27.21875 -5.625 "/></g></g></g><g fill="#ffffff" fill-opacity="1"><g transform="translate(280.647424, 36.452063)"><g><path d="M 18.765625 -11.609375 L 18.765625 -16.1875 L 32.921875 -16.1875 L 32.921875 -2.21875 C 32.023438 -1.832031 30.984375 -1.46875 29.796875 -1.125 C 28.609375 -0.78125 27.375 -0.492188 26.09375 -0.265625 C 24.8125 -0.0351562 23.550781 0.140625 22.3125 0.265625 C 21.082031 0.398438 19.945312 0.46875 18.90625 0.46875 C 15.257812 0.46875 12.132812 -0.140625 9.53125 -1.359375 C 6.925781 -2.578125 4.929688 -4.3125 3.546875 -6.5625 C 2.171875 -8.820312 1.484375 -11.5 1.484375 -14.59375 L 1.484375 -14.65625 C 1.484375 -17.832031 2.195312 -20.554688 3.625 -22.828125 C 5.050781 -25.109375 7.113281 -26.863281 9.8125 -28.09375 C 12.507812 -29.320312 15.769531 -29.9375 19.59375 -29.9375 C 21.070312 -29.9375 22.59375 -29.828125 24.15625 -29.609375 C 25.71875 -29.398438 27.242188 -29.09375 28.734375 -28.6875 C 30.222656 -28.289062 31.570312 -27.789062 32.78125 -27.1875 L 30.375 -22.21875 C 29.050781 -22.9375 27.460938 -23.515625 25.609375 -23.953125 C 23.753906 -24.390625 21.859375 -24.609375 19.921875 -24.609375 C 15.929688 -24.609375 12.828125 -23.742188 10.609375 -22.015625 C 8.398438 -20.285156 7.296875 -17.832031 7.296875 -14.65625 L 7.296875 -14.59375 C 7.296875 -11.519531 8.347656 -9.128906 10.453125 -7.421875 C 12.554688 -5.710938 15.472656 -4.859375 19.203125 -4.859375 C 20.335938 -4.859375 21.617188 -4.96875 23.046875 -5.1875 C 24.472656 -5.40625 25.851562 -5.707031 27.1875 -6.09375 L 27.1875 -11.609375 Z M 18.765625 -11.609375 "/></g></g></g><g fill="#ffffff" fill-opacity="1"><g transform="translate(324.022951, 36.452063)"><g><path d="M 15.6875 0.46875 C 12.707031 0.46875 9.96875 0.222656 7.46875 -0.265625 C 4.976562 -0.765625 2.9375 -1.425781 1.34375 -2.25 L 3.921875 -7.109375 C 5.585938 -6.285156 7.398438 -5.703125 9.359375 -5.359375 C 11.316406 -5.023438 13.328125 -4.859375 15.390625 -4.859375 C 18.078125 -4.859375 20.175781 -5.109375 21.6875 -5.609375 C 23.195312 -6.109375 23.953125 -6.925781 23.953125 -8.0625 L 23.953125 -8.125 C 23.953125 -9.164062 23.207031 -9.984375 21.71875 -10.578125 C 20.226562 -11.171875 17.863281 -11.796875 14.625 -12.453125 C 11.988281 -12.984375 9.769531 -13.609375 7.96875 -14.328125 C 6.164062 -15.054688 4.800781 -16 3.875 -17.15625 C 2.957031 -18.320312 2.5 -19.816406 2.5 -21.640625 L 2.5 -21.703125 C 2.5 -24.335938 3.640625 -26.367188 5.921875 -27.796875 C 8.210938 -29.222656 11.476562 -29.9375 15.71875 -29.9375 C 17.40625 -29.9375 19.082031 -29.8125 20.75 -29.5625 C 22.425781 -29.3125 23.988281 -28.976562 25.4375 -28.5625 C 26.894531 -28.15625 28.117188 -27.6875 29.109375 -27.15625 L 26.5 -22.390625 C 25.675781 -22.847656 24.632812 -23.238281 23.375 -23.5625 C 22.113281 -23.894531 20.785156 -24.148438 19.390625 -24.328125 C 18.003906 -24.515625 16.671875 -24.609375 15.390625 -24.609375 C 10.691406 -24.609375 8.34375 -23.648438 8.34375 -21.734375 L 8.34375 -21.671875 C 8.34375 -21.160156 8.5625 -20.691406 9 -20.265625 C 9.4375 -19.847656 10.238281 -19.441406 11.40625 -19.046875 C 12.582031 -18.660156 14.25 -18.238281 16.40625 -17.78125 C 19.039062 -17.25 21.226562 -16.675781 22.96875 -16.0625 C 24.71875 -15.445312 26.09375 -14.765625 27.09375 -14.015625 C 28.101562 -13.265625 28.816406 -12.410156 29.234375 -11.453125 C 29.660156 -10.492188 29.875 -9.398438 29.875 -8.171875 L 29.875 -8.09375 C 29.875 -5.257812 28.640625 -3.125 26.171875 -1.6875 C 23.703125 -0.25 20.207031 0.46875 15.6875 0.46875 Z M 15.6875 0.46875 "/></g></g></g></g></g><g transform="matrix(1, 0, 0, 1, 67, 261)"><g clip-path="url(#fb07a9f500)"><g fill="#ffffff" fill-opacity="1"><g transform="translate(1.575852, 10.630593)"><g><path d="M 2.234375 0 L 0.578125 0 L 0.578125 -8.59375 L 8.078125 -8.59375 L 8.078125 -7.03125 L 2.234375 -7.03125 L 2.234375 -5.125 L 7.71875 -5.125 L 7.71875 -3.65625 L 2.234375 -3.65625 Z M 2.234375 0 "/></g></g></g><g fill="#ffffff" fill-opacity="1"><g transform="translate(18.5147, 10.630593)"><g><path d="M 7.28125 -3.375 L 9.484375 0 L 7.609375 0 L 5.625 -3.09375 L 2.234375 -3.09375 L 2.234375 0 L 0.578125 0 L 0.578125 -8.59375 L 5.8125 -8.59375 C 6.4375 -8.59375 6.984375 -8.484375 7.453125 -8.265625 C 7.921875 -8.046875 8.285156 -7.734375 8.546875 -7.328125 C 8.804688 -6.929688 8.9375 -6.457031 8.9375 -5.90625 C 8.9375 -5.300781 8.789062 -4.78125 8.5 -4.34375 C 8.207031 -3.90625 7.800781 -3.582031 7.28125 -3.375 Z M 5.609375 -7.046875 L 2.234375 -7.046875 L 2.234375 -4.53125 L 5.609375 -4.53125 C 6.085938 -4.53125 6.472656 -4.632812 6.765625 -4.84375 C 7.066406 -5.050781 7.21875 -5.367188 7.21875 -5.796875 L 7.21875 -5.8125 C 7.21875 -6.25 7.070312 -6.5625 6.78125 -6.75 C 6.488281 -6.945312 6.097656 -7.046875 5.609375 -7.046875 Z M 5.609375 -7.046875 "/></g></g></g><g fill="#ffffff" fill-opacity="1"><g transform="translate(36.59692, 10.630593)"><g><path d="M 8.03125 0 L 0.578125 0 L 0.578125 -8.59375 L 8 -8.59375 L 8 -7.03125 L 2.234375 -7.03125 L 2.234375 -5.125 L 7.640625 -5.125 L 7.640625 -3.65625 L 2.234375 -3.65625 L 2.234375 -1.5625 L 8.03125 -1.5625 Z M 8.03125 0 "/></g></g></g><g fill="#ffffff" fill-opacity="1"><g transform="translate(53.514592, 10.630593)"><g><path d="M 8.03125 0 L 0.578125 0 L 0.578125 -8.59375 L 8 -8.59375 L 8 -7.03125 L 2.234375 -7.03125 L 2.234375 -5.125 L 7.640625 -5.125 L 7.640625 -3.65625 L 2.234375 -3.65625 L 2.234375 -1.5625 L 8.03125 -1.5625 Z M 8.03125 0 "/></g></g></g><g fill="#ffffff" fill-opacity="1"><g transform="translate(70.432265, 10.630593)"><g><path d="M 4.921875 0 L 0.578125 0 L 0.578125 -8.59375 L 4.921875 -8.59375 C 6.609375 -8.59375 7.835938 -8.234375 8.609375 -7.515625 C 9.390625 -6.796875 9.78125 -5.742188 9.78125 -4.359375 L 9.78125 -4.328125 C 9.78125 -2.910156 9.367188 -1.832031 8.546875 -1.09375 C 7.734375 -0.363281 6.523438 0 4.921875 0 Z M 2.25 -7.03125 L 2.25 -1.5625 L 4.984375 -1.5625 C 5.992188 -1.5625 6.757812 -1.796875 7.28125 -2.265625 C 7.8125 -2.742188 8.078125 -3.429688 8.078125 -4.328125 L 8.078125 -4.359375 C 8.078125 -5.222656 7.816406 -5.882812 7.296875 -6.34375 C 6.773438 -6.800781 6.003906 -7.03125 4.984375 -7.03125 Z M 2.25 -7.03125 "/></g></g></g><g fill="#ffffff" fill-opacity="1"><g transform="translate(89.117935, 10.630593)"><g><path d="M 5.703125 0.140625 C 4.617188 0.140625 3.679688 -0.0390625 2.890625 -0.40625 C 2.109375 -0.78125 1.503906 -1.300781 1.078125 -1.96875 C 0.648438 -2.644531 0.4375 -3.421875 0.4375 -4.296875 L 0.4375 -4.3125 C 0.4375 -5.195312 0.648438 -5.972656 1.078125 -6.640625 C 1.503906 -7.304688 2.109375 -7.820312 2.890625 -8.1875 C 3.679688 -8.550781 4.617188 -8.734375 5.703125 -8.734375 C 6.785156 -8.734375 7.71875 -8.550781 8.5 -8.1875 C 9.289062 -7.820312 9.898438 -7.304688 10.328125 -6.640625 C 10.753906 -5.972656 10.96875 -5.195312 10.96875 -4.3125 L 10.96875 -4.296875 C 10.96875 -3.421875 10.753906 -2.644531 10.328125 -1.96875 C 9.898438 -1.300781 9.289062 -0.78125 8.5 -0.40625 C 7.71875 -0.0390625 6.785156 0.140625 5.703125 0.140625 Z M 5.703125 -1.421875 C 6.429688 -1.421875 7.0625 -1.535156 7.59375 -1.765625 C 8.125 -2.003906 8.535156 -2.335938 8.828125 -2.765625 C 9.117188 -3.203125 9.265625 -3.710938 9.265625 -4.296875 C 9.265625 -4.890625 9.117188 -5.398438 8.828125 -5.828125 C 8.535156 -6.253906 8.125 -6.585938 7.59375 -6.828125 C 7.0625 -7.066406 6.429688 -7.1875 5.703125 -7.1875 C 4.960938 -7.1875 4.320312 -7.066406 3.78125 -6.828125 C 3.25 -6.597656 2.835938 -6.265625 2.546875 -5.828125 C 2.265625 -5.398438 2.125 -4.890625 2.125 -4.296875 C 2.125 -3.710938 2.269531 -3.203125 2.5625 -2.765625 C 2.863281 -2.335938 3.28125 -2.003906 3.8125 -1.765625 C 4.351562 -1.535156 4.984375 -1.421875 5.703125 -1.421875 Z M 5.703125 -1.421875 "/></g></g></g><g fill="#ffffff" fill-opacity="1"><g transform="translate(108.989329, 10.630593)"><g><path d="M 6.4375 -1.359375 L 9.546875 -8.59375 L 12.28125 -8.59375 L 12.28125 0 L 10.625 0 L 10.625 -7.375 L 7.40625 0 L 5.46875 0 L 2.234375 -7.40625 L 2.234375 0 L 0.578125 0 L 0.578125 -8.59375 L 3.328125 -8.59375 Z M 6.4375 -1.359375 "/></g></g></g><g fill="#ffffff" fill-opacity="1"><g transform="translate(130.321713, 10.630593)"><g/></g></g><g fill="#ffffff" fill-opacity="1"><g transform="translate(141.10962, 10.630593)"><g><path d="M 10.796875 0 L 9.015625 0 L 7.921875 -2.1875 L 3.015625 -2.1875 L 1.921875 0 L 0.140625 0 L 4.484375 -8.59375 L 6.4375 -8.59375 Z M 7.21875 -3.609375 L 5.453125 -7.15625 L 3.71875 -3.609375 Z M 7.21875 -3.609375 "/></g></g></g><g fill="#ffffff" fill-opacity="1"><g transform="translate(160.504617, 10.630593)"><g><path d="M 7.9375 -1.640625 L 7.9375 -8.59375 L 9.625 -8.59375 L 9.625 0 L 7.296875 0 L 2.234375 -7.15625 L 2.234375 0 L 0.578125 0 L 0.578125 -8.59375 L 2.984375 -8.59375 Z M 7.9375 -1.640625 "/></g></g></g><g fill="#ffffff" fill-opacity="1"><g transform="translate(179.158531, 10.630593)"><g><path d="M 2.25 0 L 0.578125 0 L 0.578125 -8.59375 L 2.25 -8.59375 Z M 2.25 0 "/></g></g></g><g fill="#ffffff" fill-opacity="1"><g transform="translate(190.44401, 10.630593)"><g><path d="M 6.4375 -1.359375 L 9.546875 -8.59375 L 12.28125 -8.59375 L 12.28125 0 L 10.625 0 L 10.625 -7.375 L 7.40625 0 L 5.46875 0 L 2.234375 -7.40625 L 2.234375 0 L 0.578125 0 L 0.578125 -8.59375 L 3.328125 -8.59375 Z M 6.4375 -1.359375 "/></g></g></g><g fill="#ffffff" fill-opacity="1"><g transform="translate(211.776394, 10.630593)"><g><path d="M 10.796875 0 L 9.015625 0 L 7.921875 -2.1875 L 3.015625 -2.1875 L 1.921875 0 L 0.140625 0 L 4.484375 -8.59375 L 6.4375 -8.59375 Z M 7.21875 -3.609375 L 5.453125 -7.15625 L 3.71875 -3.609375 Z M 7.21875 -3.609375 "/></g></g></g><g fill="#ffffff" fill-opacity="1"><g transform="translate(231.171391, 10.630593)"><g><path d="M 8.03125 0 L 0.578125 0 L 0.578125 -8.59375 L 2.25 -8.59375 L 2.25 -1.5625 L 8.03125 -1.5625 Z M 8.03125 0 "/></g></g></g></g></g></svg>