<svg xmlns="http://www.w3.org/2000/svg" xmlns:xlink="http://www.w3.org/1999/xlink" width="500" zoomAndPan="magnify" viewBox="0 0 375 374.999991" height="500" preserveAspectRatio="xMidYMid meet" version="1.0"><defs><g/><clipPath id="31b6b6f062"><rect x="0" width="320" y="0" height="112"/></clipPath><clipPath id="2e86e91ad4"><rect x="0" width="103" y="0" height="149"/></clipPath></defs><g transform="matrix(1, 0, 0, 1, 27, 163)"><g clip-path="url(#31b6b6f062)"><g fill="#ffffff" fill-opacity="1"><g transform="translate(1.82096, 83.260693)"><g><path d="M 1.28125 0 C 1.8125 -1 2.367188 -2.328125 2.953125 -3.984375 C 3.535156 -5.648438 4.09375 -8.101562 4.625 -11.34375 C 5.476562 -16.0625 6.40625 -21.175781 7.40625 -26.6875 C 8.414062 -32.207031 9.421875 -37.75 10.421875 -43.3125 C 11.421875 -48.875 12.363281 -54.085938 13.25 -58.953125 C 14.144531 -63.816406 14.863281 -67.90625 15.40625 -71.21875 C 15.789062 -73.539062 15.960938 -75.550781 15.921875 -77.25 C 15.878906 -78.945312 15.550781 -80.21875 14.9375 -81.0625 L 31.265625 -81.0625 C 30.648438 -80.21875 30.320312 -78.945312 30.28125 -77.25 C 30.25 -75.550781 30.425781 -73.539062 30.8125 -71.21875 C 31.425781 -67.90625 32.175781 -63.816406 33.0625 -58.953125 C 33.945312 -54.085938 34.875 -48.875 35.84375 -43.3125 C 36.8125 -37.75 37.796875 -32.207031 38.796875 -26.6875 C 39.796875 -21.175781 40.722656 -16.0625 41.578125 -11.34375 C 42.191406 -8.101562 42.804688 -5.648438 43.421875 -3.984375 C 44.046875 -2.328125 44.628906 -1 45.171875 0 L 26.296875 0 C 27.140625 -1.625 27.640625 -3.34375 27.796875 -5.15625 C 27.953125 -6.96875 27.875 -8.800781 27.5625 -10.65625 C 27.40625 -11.8125 27.210938 -12.988281 26.984375 -14.1875 C 26.753906 -15.382812 26.5625 -16.597656 26.40625 -17.828125 L 11.125 -17.828125 C 10.882812 -16.597656 10.664062 -15.382812 10.46875 -14.1875 C 10.28125 -12.988281 10.109375 -11.8125 9.953125 -10.65625 C 9.648438 -8.800781 9.59375 -6.96875 9.78125 -5.15625 C 9.976562 -3.34375 10.460938 -1.625 11.234375 0 Z M 11.8125 -22.46875 L 25.703125 -22.46875 C 24.859375 -27.71875 24.007812 -32.910156 23.15625 -38.046875 C 22.3125 -43.179688 21.519531 -47.988281 20.78125 -52.46875 C 20.050781 -56.945312 19.378906 -60.726562 18.765625 -63.8125 C 18.222656 -60.726562 17.566406 -56.945312 16.796875 -52.46875 C 16.023438 -47.988281 15.210938 -43.179688 14.359375 -38.046875 C 13.515625 -32.910156 12.664062 -27.71875 11.8125 -22.46875 Z M 11.8125 -22.46875 "/></g></g></g><g fill="#ffffff" fill-opacity="1"><g transform="translate(42.241057, 83.260693)"><g><path d="M 31.15625 -14.703125 C 31.15625 -17.640625 30.457031 -20.242188 29.0625 -22.515625 C 27.675781 -24.796875 25.882812 -26.957031 23.6875 -29 C 21.488281 -31.050781 19.171875 -33.117188 16.734375 -35.203125 C 14.304688 -37.285156 12.007812 -39.5625 9.84375 -42.03125 C 7.675781 -44.507812 5.898438 -47.332031 4.515625 -50.5 C 3.128906 -53.664062 2.4375 -57.332031 2.4375 -61.5 C 2.4375 -65.28125 3.285156 -68.695312 4.984375 -71.75 C 6.679688 -74.800781 8.976562 -77.234375 11.875 -79.046875 C 14.769531 -80.859375 17.914062 -81.765625 21.3125 -81.765625 C 23.238281 -81.765625 24.992188 -81.707031 26.578125 -81.59375 C 28.160156 -81.476562 29.6875 -81.421875 31.15625 -81.421875 C 32.851562 -81.421875 34.046875 -81.4375 34.734375 -81.46875 C 35.429688 -81.507812 36.320312 -81.609375 37.40625 -81.765625 L 37.40625 -54.890625 L 36.015625 -54.890625 C 35.316406 -61.296875 34.195312 -66.117188 32.65625 -69.359375 C 31.113281 -72.609375 29.472656 -74.789062 27.734375 -75.90625 C 25.992188 -77.03125 24.429688 -77.59375 23.046875 -77.59375 C 20.109375 -77.59375 17.613281 -76.585938 15.5625 -74.578125 C 13.519531 -72.578125 12.5 -69.757812 12.5 -66.125 C 12.5 -63.195312 13.191406 -60.59375 14.578125 -58.3125 C 15.972656 -56.03125 17.769531 -53.882812 19.96875 -51.875 C 22.175781 -49.875 24.535156 -47.867188 27.046875 -45.859375 C 29.554688 -43.847656 31.910156 -41.644531 34.109375 -39.25 C 36.304688 -36.863281 38.097656 -34.125 39.484375 -31.03125 C 40.878906 -27.945312 41.578125 -24.320312 41.578125 -20.15625 C 41.578125 -16.519531 40.820312 -13.097656 39.3125 -9.890625 C 37.8125 -6.691406 35.75 -4.109375 33.125 -2.140625 C 30.5 -0.171875 27.488281 0.8125 24.09375 0.8125 C 21.695312 0.8125 19.785156 0.675781 18.359375 0.40625 C 16.929688 0.132812 15.597656 -0.113281 14.359375 -0.34375 C 13.117188 -0.570312 11.457031 -0.6875 9.375 -0.6875 C 7.832031 -0.6875 6.484375 -0.457031 5.328125 0 C 4.171875 0.457031 3.59375 0.726562 3.59375 0.8125 L 3.46875 -29.0625 L 4.859375 -29.0625 C 4.859375 -26.289062 5.242188 -23.414062 6.015625 -20.4375 C 6.796875 -17.46875 7.914062 -14.671875 9.375 -12.046875 C 10.84375 -9.421875 12.640625 -7.296875 14.765625 -5.671875 C 16.890625 -4.054688 19.265625 -3.25 21.890625 -3.25 C 24.585938 -3.25 26.804688 -4.328125 28.546875 -6.484375 C 30.285156 -8.648438 31.15625 -11.390625 31.15625 -14.703125 Z M 31.15625 -14.703125 "/></g></g></g><g fill="#ffffff" fill-opacity="1"><g transform="translate(79.070803, 83.260693)"><g><path d="M 1.859375 -54.890625 L 1.859375 -81.0625 L 43.3125 -81.0625 L 43.3125 -54.890625 L 41.921875 -54.890625 C 41.921875 -58.910156 41.535156 -62.617188 40.765625 -66.015625 C 39.992188 -69.410156 38.796875 -72.171875 37.171875 -74.296875 C 35.554688 -76.421875 33.507812 -77.484375 31.03125 -77.484375 L 29.421875 -77.59375 L 29.421875 -14.25 C 29.421875 -10.382812 29.570312 -7.503906 29.875 -5.609375 C 30.1875 -3.722656 30.882812 -1.851562 31.96875 0 L 13.203125 0 C 14.285156 -1.851562 14.976562 -3.722656 15.28125 -5.609375 C 15.59375 -7.503906 15.75 -10.382812 15.75 -14.25 L 15.75 -77.59375 L 14.015625 -77.484375 C 11.546875 -77.484375 9.5 -76.421875 7.875 -74.296875 C 6.25 -72.171875 5.050781 -69.410156 4.28125 -66.015625 C 3.507812 -62.617188 3.125 -58.910156 3.125 -54.890625 Z M 1.859375 -54.890625 "/></g></g></g><g fill="#ffffff" fill-opacity="1"><g transform="translate(118.332724, 83.260693)"><g><path d="M 2.78125 0 C 3.863281 -1.851562 4.554688 -3.722656 4.859375 -5.609375 C 5.171875 -7.503906 5.328125 -10.382812 5.328125 -14.25 L 5.328125 -66.25 C 5.328125 -70.101562 5.171875 -73.09375 4.859375 -75.21875 C 4.554688 -77.34375 3.863281 -79.332031 2.78125 -81.1875 C 4.789062 -81.1875 7.144531 -81.1875 9.84375 -81.1875 C 12.539062 -81.1875 15.257812 -81.1875 18 -81.1875 C 20.75 -81.1875 23.164062 -81.1875 25.25 -81.1875 C 28.644531 -81.1875 31.804688 -80.78125 34.734375 -79.96875 C 37.671875 -79.15625 40.046875 -77.628906 41.859375 -75.390625 C 43.679688 -73.148438 44.59375 -69.832031 44.59375 -65.4375 C 44.59375 -61.5 43.609375 -57.890625 41.640625 -54.609375 C 39.671875 -51.328125 37.445312 -48.410156 34.96875 -45.859375 C 36.132812 -41.222656 37.21875 -36.992188 38.21875 -33.171875 C 39.21875 -29.359375 40.101562 -25.90625 40.875 -22.8125 C 42.582031 -16.476562 44.050781 -11.59375 45.28125 -8.15625 C 46.519531 -4.726562 47.910156 -2.007812 49.453125 0 L 29.875 0 C 30.34375 -0.851562 30.613281 -2.28125 30.6875 -4.28125 C 30.769531 -6.289062 30.578125 -8.492188 30.109375 -10.890625 C 29.953125 -11.734375 29.71875 -12.8125 29.40625 -14.125 C 29.101562 -15.4375 28.757812 -16.90625 28.375 -18.53125 C 27.832031 -20.925781 27.132812 -23.507812 26.28125 -26.28125 C 25.4375 -29.0625 24.515625 -32.269531 23.515625 -35.90625 C 22.203125 -34.664062 21.117188 -33.3125 20.265625 -31.84375 C 19.421875 -30.375 19 -28.753906 19 -26.984375 L 19 -14.25 C 19 -10.382812 19.148438 -7.503906 19.453125 -5.609375 C 19.765625 -3.722656 20.460938 -1.851562 21.546875 0 Z M 23.15625 -76.203125 L 19 -76.203125 L 19 -36.359375 C 20.539062 -37.984375 22.238281 -40.164062 24.09375 -42.90625 C 25.945312 -45.644531 27.566406 -48.925781 28.953125 -52.75 C 30.335938 -56.570312 31.03125 -60.914062 31.03125 -65.78125 C 31.03125 -68.5625 30.351562 -70.992188 29 -73.078125 C 27.65625 -75.160156 25.707031 -76.203125 23.15625 -76.203125 Z M 23.15625 -76.203125 "/></g></g></g><g fill="#ffffff" fill-opacity="1"><g transform="translate(163.038065, 83.260693)"><g><path d="M 27.09375 0.8125 C 22.3125 0.8125 18.203125 -0.90625 14.765625 -4.34375 C 11.328125 -7.78125 8.703125 -12.585938 6.890625 -18.765625 C 5.078125 -24.941406 4.171875 -32.160156 4.171875 -40.421875 C 4.171875 -48.679688 5.078125 -55.914062 6.890625 -62.125 C 8.703125 -68.34375 11.328125 -73.171875 14.765625 -76.609375 C 18.203125 -80.046875 22.3125 -81.765625 27.09375 -81.765625 C 31.957031 -81.765625 36.085938 -80.046875 39.484375 -76.609375 C 42.890625 -73.171875 45.5 -68.34375 47.3125 -62.125 C 49.125 -55.914062 50.03125 -48.679688 50.03125 -40.421875 C 50.03125 -32.160156 49.125 -24.941406 47.3125 -18.765625 C 45.5 -12.585938 42.890625 -7.78125 39.484375 -4.34375 C 36.085938 -0.90625 31.957031 0.8125 27.09375 0.8125 Z M 18.296875 -40.421875 C 18.296875 -28.765625 18.894531 -19.710938 20.09375 -13.265625 C 21.289062 -6.816406 23.664062 -3.59375 27.21875 -3.59375 C 30.84375 -3.59375 33.210938 -6.816406 34.328125 -13.265625 C 35.453125 -19.710938 36.015625 -28.765625 36.015625 -40.421875 C 36.015625 -52.148438 35.453125 -61.238281 34.328125 -67.6875 C 33.210938 -74.132812 30.84375 -77.359375 27.21875 -77.359375 C 23.664062 -77.359375 21.289062 -74.132812 20.09375 -67.6875 C 18.894531 -61.238281 18.296875 -52.148438 18.296875 -40.421875 Z M 18.296875 -40.421875 "/></g></g></g><g fill="#ffffff" fill-opacity="1"><g transform="translate(211.333755, 83.260693)"><g><path d="M 2.65625 0 C 3.738281 -1.851562 4.453125 -3.722656 4.796875 -5.609375 C 5.148438 -7.503906 5.328125 -10.382812 5.328125 -14.25 L 5.328125 -66.9375 C 5.328125 -69.5625 5.25 -71.679688 5.09375 -73.296875 C 4.9375 -74.921875 4.6875 -76.3125 4.34375 -77.46875 C 4 -78.632812 3.4375 -79.832031 2.65625 -81.0625 L 19.6875 -81.0625 L 39.140625 -21.1875 C 39.140625 -21.1875 39.140625 -22.148438 39.140625 -24.078125 C 39.140625 -26.015625 39.140625 -28.566406 39.140625 -31.734375 C 39.140625 -34.898438 39.117188 -38.332031 39.078125 -42.03125 C 39.046875 -45.738281 39.03125 -49.390625 39.03125 -52.984375 C 39.03125 -56.578125 39.03125 -59.757812 39.03125 -62.53125 C 39.03125 -65.3125 39.03125 -67.359375 39.03125 -68.671875 C 39.03125 -71.296875 38.972656 -73.265625 38.859375 -74.578125 C 38.742188 -75.890625 38.488281 -76.988281 38.09375 -77.875 C 37.707031 -78.769531 37.171875 -79.832031 36.484375 -81.0625 L 46.5625 -81.0625 C 45.550781 -79.21875 44.851562 -77.347656 44.46875 -75.453125 C 44.082031 -73.554688 43.890625 -70.679688 43.890625 -66.828125 C 43.890625 -65.742188 43.890625 -63.710938 43.890625 -60.734375 C 43.890625 -57.765625 43.867188 -54.253906 43.828125 -50.203125 C 43.796875 -46.148438 43.78125 -41.84375 43.78125 -37.28125 C 43.78125 -32.726562 43.78125 -28.25 43.78125 -23.84375 C 43.78125 -19.445312 43.757812 -15.453125 43.71875 -11.859375 C 43.675781 -8.273438 43.65625 -5.398438 43.65625 -3.234375 C 43.65625 -1.078125 43.65625 0 43.65625 0 L 31.15625 0 L 9.953125 -65.203125 C 9.953125 -65.203125 9.953125 -64.140625 9.953125 -62.015625 C 9.953125 -59.890625 9.972656 -57.128906 10.015625 -53.734375 C 10.054688 -50.335938 10.078125 -46.628906 10.078125 -42.609375 C 10.078125 -38.597656 10.09375 -34.679688 10.125 -30.859375 C 10.164062 -27.035156 10.1875 -23.640625 10.1875 -20.671875 C 10.1875 -17.703125 10.1875 -15.5625 10.1875 -14.25 C 10.1875 -10.382812 10.359375 -7.503906 10.703125 -5.609375 C 11.054688 -3.722656 11.734375 -1.851562 12.734375 0 Z M 2.65625 0 "/></g></g></g><g fill="#ffffff" fill-opacity="1"><g transform="translate(254.649289, 83.260693)"><g><path d="M 2.65625 0 C 3.738281 -1.851562 4.4375 -3.722656 4.75 -5.609375 C 5.0625 -7.503906 5.21875 -10.382812 5.21875 -14.25 L 5.21875 -66.9375 C 5.21875 -70.800781 5.0625 -73.660156 4.75 -75.515625 C 4.4375 -77.367188 3.738281 -79.21875 2.65625 -81.0625 L 21.421875 -81.0625 C 20.734375 -79.832031 20.191406 -78.632812 19.796875 -77.46875 C 19.410156 -76.3125 19.160156 -74.921875 19.046875 -73.296875 C 18.929688 -71.679688 18.875 -69.5625 18.875 -66.9375 L 18.875 -14.25 C 18.875 -10.382812 19.023438 -7.503906 19.328125 -5.609375 C 19.640625 -3.722656 20.335938 -1.851562 21.421875 0 Z M 2.65625 0 "/></g></g></g><g fill="#ffffff" fill-opacity="1"><g transform="translate(272.832392, 83.260693)"><g><path d="M 1.28125 0 C 1.8125 -1 2.367188 -2.328125 2.953125 -3.984375 C 3.535156 -5.648438 4.09375 -8.101562 4.625 -11.34375 C 5.476562 -16.0625 6.40625 -21.175781 7.40625 -26.6875 C 8.414062 -32.207031 9.421875 -37.75 10.421875 -43.3125 C 11.421875 -48.875 12.363281 -54.085938 13.25 -58.953125 C 14.144531 -63.816406 14.863281 -67.90625 15.40625 -71.21875 C 15.789062 -73.539062 15.960938 -75.550781 15.921875 -77.25 C 15.878906 -78.945312 15.550781 -80.21875 14.9375 -81.0625 L 31.265625 -81.0625 C 30.648438 -80.21875 30.320312 -78.945312 30.28125 -77.25 C 30.25 -75.550781 30.425781 -73.539062 30.8125 -71.21875 C 31.425781 -67.90625 32.175781 -63.816406 33.0625 -58.953125 C 33.945312 -54.085938 34.875 -48.875 35.84375 -43.3125 C 36.8125 -37.75 37.796875 -32.207031 38.796875 -26.6875 C 39.796875 -21.175781 40.722656 -16.0625 41.578125 -11.34375 C 42.191406 -8.101562 42.804688 -5.648438 43.421875 -3.984375 C 44.046875 -2.328125 44.628906 -1 45.171875 0 L 26.296875 0 C 27.140625 -1.625 27.640625 -3.34375 27.796875 -5.15625 C 27.953125 -6.96875 27.875 -8.800781 27.5625 -10.65625 C 27.40625 -11.8125 27.210938 -12.988281 26.984375 -14.1875 C 26.753906 -15.382812 26.5625 -16.597656 26.40625 -17.828125 L 11.125 -17.828125 C 10.882812 -16.597656 10.664062 -15.382812 10.46875 -14.1875 C 10.28125 -12.988281 10.109375 -11.8125 9.953125 -10.65625 C 9.648438 -8.800781 9.59375 -6.96875 9.78125 -5.15625 C 9.976562 -3.34375 10.460938 -1.625 11.234375 0 Z M 11.8125 -22.46875 L 25.703125 -22.46875 C 24.859375 -27.71875 24.007812 -32.910156 23.15625 -38.046875 C 22.3125 -43.179688 21.519531 -47.988281 20.78125 -52.46875 C 20.050781 -56.945312 19.378906 -60.726562 18.765625 -63.8125 C 18.222656 -60.726562 17.566406 -56.945312 16.796875 -52.46875 C 16.023438 -47.988281 15.210938 -43.179688 14.359375 -38.046875 C 13.515625 -32.910156 12.664062 -27.71875 11.8125 -22.46875 Z M 11.8125 -22.46875 "/></g></g></g></g></g><g transform="matrix(1, 0, 0, 1, 138, 60)"><g clip-path="url(#2e86e91ad4)"><g fill="#ffffff" fill-opacity="1"><g transform="translate(1.597376, 96.982972)"><g><path d="M 53.734375 -39.296875 C 56.285156 -39.296875 58.410156 -39.21875 60.109375 -39.0625 C 61.816406 -38.914062 63.171875 -38.65625 64.171875 -38.28125 C 65.171875 -37.914062 65.882812 -37.414062 66.3125 -36.78125 C 66.75 -36.144531 66.96875 -35.351562 66.96875 -34.40625 C 66.96875 -34.132812 66.875 -33.90625 66.6875 -33.71875 C 66.5 -33.53125 66.269531 -33.4375 66 -33.4375 C 65.726562 -33.4375 65.5 -33.53125 65.3125 -33.71875 C 65.125 -33.90625 65.03125 -34.132812 65.03125 -34.40625 C 65.03125 -34.976562 64.859375 -35.457031 64.515625 -35.84375 C 64.179688 -36.226562 63.59375 -36.53125 62.75 -36.75 C 61.90625 -36.976562 60.75 -37.132812 59.28125 -37.21875 C 57.820312 -37.3125 55.972656 -37.359375 53.734375 -37.359375 C 52.066406 -37.359375 50.117188 -37.300781 47.890625 -37.1875 C 45.660156 -37.070312 43.210938 -36.894531 40.546875 -36.65625 C 40.367188 -36.65625 40.226562 -36.578125 40.125 -36.421875 C 39.070312 -34.972656 37.800781 -33.332031 36.3125 -31.5 C 34.820312 -29.675781 33.203125 -27.738281 31.453125 -25.6875 C 29.703125 -23.644531 27.894531 -21.550781 26.03125 -19.40625 C 24.300781 -17.382812 22.5625 -15.351562 20.8125 -13.3125 C 19.070312 -11.269531 17.394531 -9.273438 15.78125 -7.328125 C 14.164062 -5.390625 12.675781 -3.539062 11.3125 -1.78125 C 9.945312 -0.0195312 8.753906 1.601562 7.734375 3.09375 C 6.710938 4.59375 5.929688 5.894531 5.390625 7 C 5.554688 7.175781 5.59375 7.484375 5.5 7.921875 C 5.226562 9.242188 4.851562 10.082031 4.375 10.4375 C 4.03125 10.65625 3.679688 10.679688 3.328125 10.515625 C 2.972656 10.359375 2.773438 10.082031 2.734375 9.6875 C 2.710938 9.53125 2.710938 9.328125 2.734375 9.078125 C 2.753906 8.835938 2.789062 8.601562 2.84375 8.375 C 3.070312 7.332031 3.65625 6.03125 4.59375 4.46875 C 5.539062 2.90625 6.738281 1.148438 8.1875 -0.796875 C 9.632812 -2.753906 11.253906 -4.832031 13.046875 -7.03125 C 14.835938 -9.226562 16.71875 -11.476562 18.6875 -13.78125 C 20.664062 -16.09375 22.628906 -18.390625 24.578125 -20.671875 C 26.242188 -22.617188 27.863281 -24.507812 29.4375 -26.34375 C 31.007812 -28.175781 32.488281 -29.921875 33.875 -31.578125 C 35.269531 -33.242188 36.492188 -34.773438 37.546875 -36.171875 C 37.671875 -36.335938 37.625 -36.410156 37.40625 -36.390625 C 34.300781 -36.085938 30.972656 -35.71875 27.421875 -35.28125 C 23.878906 -34.84375 20.203125 -34.335938 16.390625 -33.765625 C 12.585938 -33.191406 8.695312 -32.546875 4.71875 -31.828125 L 4.5625 -31.796875 C 4.289062 -31.796875 4.0625 -31.890625 3.875 -32.078125 C 3.6875 -32.273438 3.59375 -32.503906 3.59375 -32.765625 C 3.59375 -33.015625 3.664062 -33.226562 3.8125 -33.40625 C 3.96875 -33.59375 4.164062 -33.703125 4.40625 -33.734375 C 8.601562 -34.484375 12.734375 -35.160156 16.796875 -35.765625 C 20.859375 -36.378906 24.753906 -36.910156 28.484375 -37.359375 C 32.210938 -37.804688 35.695312 -38.171875 38.9375 -38.453125 C 39.132812 -38.472656 39.289062 -38.566406 39.40625 -38.734375 C 39.738281 -39.210938 40.023438 -39.660156 40.265625 -40.078125 C 40.441406 -40.378906 40.71875 -40.53125 41.09375 -40.53125 C 41.363281 -40.53125 41.59375 -40.4375 41.78125 -40.25 C 41.96875 -40.0625 42.0625 -39.832031 42.0625 -39.5625 C 42.0625 -39.394531 42.015625 -39.222656 41.921875 -39.046875 L 41.875 -38.9375 C 41.800781 -38.832031 41.765625 -38.765625 41.765625 -38.734375 C 41.773438 -38.710938 41.84375 -38.710938 41.96875 -38.734375 C 44.28125 -38.929688 46.425781 -39.070312 48.40625 -39.15625 C 50.394531 -39.25 52.171875 -39.296875 53.734375 -39.296875 Z M 53.734375 -39.296875 "/></g></g></g><g fill="#ffffff" fill-opacity="1"><g transform="translate(33.989586, 96.982972)"><g><path d="M 41.203125 -10.890625 C 41.453125 -10.890625 41.675781 -10.789062 41.875 -10.59375 C 42.070312 -10.40625 42.171875 -10.1875 42.171875 -9.9375 C 42.171875 -9.59375 42.023438 -9.320312 41.734375 -9.125 C 40.660156 -8.445312 39.453125 -7.726562 38.109375 -6.96875 C 36.765625 -6.207031 35.347656 -5.453125 33.859375 -4.703125 C 32.378906 -3.960938 30.878906 -3.253906 29.359375 -2.578125 C 27.835938 -1.910156 26.351562 -1.316406 24.90625 -0.796875 C 23.457031 -0.285156 22.101562 0.113281 20.84375 0.40625 C 19.582031 0.707031 18.476562 0.859375 17.53125 0.859375 C 16.164062 0.859375 15.101562 0.53125 14.34375 -0.125 C 13.582031 -0.789062 13.203125 -1.71875 13.203125 -2.90625 C 13.203125 -3.582031 13.335938 -4.3125 13.609375 -5.09375 C 13.878906 -5.882812 14.15625 -6.640625 14.4375 -7.359375 C 14.664062 -7.929688 14.867188 -8.46875 15.046875 -8.96875 C 15.234375 -9.46875 15.363281 -9.941406 15.4375 -10.390625 C 15.46875 -10.585938 15.429688 -10.726562 15.328125 -10.8125 C 15.234375 -10.90625 15.097656 -10.929688 14.921875 -10.890625 C 13.796875 -10.628906 12.144531 -9.675781 9.96875 -8.03125 C 7.789062 -6.382812 5.226562 -4.164062 2.28125 -1.375 C 1.4375 -0.5625 0.625 0.21875 -0.15625 0.96875 C -0.945312 1.71875 -1.679688 2.429688 -2.359375 3.109375 C -2.535156 3.285156 -2.710938 3.453125 -2.890625 3.609375 C -3.078125 3.773438 -3.25 3.941406 -3.40625 4.109375 C -4.375 5.078125 -5.117188 5.804688 -5.640625 6.296875 C -6.160156 6.785156 -6.539062 7.113281 -6.78125 7.28125 C -7.019531 7.457031 -7.238281 7.546875 -7.4375 7.546875 C -7.769531 7.546875 -8.054688 7.421875 -8.296875 7.171875 C -8.546875 6.929688 -8.671875 6.644531 -8.671875 6.3125 C -8.671875 5.664062 -8.320312 4.679688 -7.625 3.359375 C -6.925781 2.035156 -5.945312 0.441406 -4.6875 -1.421875 C -3.425781 -3.285156 -1.9375 -5.347656 -0.21875 -7.609375 C 1.5 -9.867188 3.382812 -12.269531 5.4375 -14.8125 C 7.5 -17.351562 9.664062 -19.960938 11.9375 -22.640625 C 14.21875 -25.328125 16.546875 -28.015625 18.921875 -30.703125 C 21.296875 -33.398438 23.671875 -36.035156 26.046875 -38.609375 C 28.421875 -41.191406 30.726562 -43.644531 32.96875 -45.96875 C 35.21875 -48.300781 37.34375 -50.4375 39.34375 -52.375 C 41.351562 -54.3125 43.179688 -55.992188 44.828125 -57.421875 C 46.472656 -58.859375 47.878906 -59.96875 49.046875 -60.75 C 50.222656 -61.539062 51.097656 -61.9375 51.671875 -61.9375 C 52.421875 -61.9375 53 -61.742188 53.40625 -61.359375 C 53.820312 -60.984375 54.03125 -60.4375 54.03125 -59.71875 C 54.03125 -58.925781 53.664062 -57.828125 52.9375 -56.421875 C 52.21875 -55.023438 51.175781 -53.382812 49.8125 -51.5 C 48.457031 -49.625 46.828125 -47.566406 44.921875 -45.328125 C 43.015625 -43.085938 40.882812 -40.742188 38.53125 -38.296875 C 36.175781 -35.847656 33.640625 -33.347656 30.921875 -30.796875 C 28.210938 -28.242188 25.367188 -25.710938 22.390625 -23.203125 C 19.410156 -20.691406 16.335938 -18.257812 13.171875 -15.90625 C 10.003906 -13.550781 6.796875 -11.34375 3.546875 -9.28125 C 1.597656 -6.800781 -0.0976562 -4.566406 -1.546875 -2.578125 C -3.003906 -0.585938 -4.160156 1.109375 -5.015625 2.515625 C -5.191406 2.804688 -5.234375 2.957031 -5.140625 2.96875 C -5.054688 2.988281 -4.925781 2.910156 -4.75 2.734375 C -3.957031 1.960938 -3.070312 1.101562 -2.09375 0.15625 C -1.125 -0.789062 -0.113281 -1.765625 0.9375 -2.765625 C 4.570312 -6.179688 7.582031 -8.722656 9.96875 -10.390625 C 12.351562 -12.066406 14.179688 -12.90625 15.453125 -12.90625 C 16.066406 -12.90625 16.546875 -12.722656 16.890625 -12.359375 C 17.242188 -11.992188 17.421875 -11.5 17.421875 -10.875 C 17.421875 -10.226562 17.289062 -9.53125 17.03125 -8.78125 C 16.769531 -8.039062 16.492188 -7.316406 16.203125 -6.609375 C 15.921875 -5.890625 15.671875 -5.21875 15.453125 -4.59375 C 15.242188 -3.96875 15.140625 -3.40625 15.140625 -2.90625 C 15.140625 -2.269531 15.332031 -1.804688 15.71875 -1.515625 C 16.101562 -1.222656 16.707031 -1.078125 17.53125 -1.078125 C 18.40625 -1.078125 19.4375 -1.21875 20.625 -1.5 C 21.8125 -1.789062 23.09375 -2.1875 24.46875 -2.6875 C 25.851562 -3.1875 27.273438 -3.757812 28.734375 -4.40625 C 30.191406 -5.050781 31.632812 -5.734375 33.0625 -6.453125 C 34.5 -7.179688 35.867188 -7.910156 37.171875 -8.640625 C 38.472656 -9.378906 39.644531 -10.085938 40.6875 -10.765625 C 40.90625 -10.847656 41.078125 -10.890625 41.203125 -10.890625 Z M 51.671875 -60.015625 C 51.179688 -60.015625 50.335938 -59.566406 49.140625 -58.671875 C 47.941406 -57.773438 46.445312 -56.503906 44.65625 -54.859375 C 42.863281 -53.210938 40.851562 -51.269531 38.625 -49.03125 C 36.40625 -46.800781 34.03125 -44.332031 31.5 -41.625 C 28.96875 -38.925781 26.347656 -36.066406 23.640625 -33.046875 C 20.941406 -30.035156 18.226562 -26.941406 15.5 -23.765625 C 12.769531 -20.585938 10.097656 -17.398438 7.484375 -14.203125 C 10.890625 -16.546875 14.207031 -19.015625 17.4375 -21.609375 C 20.664062 -24.203125 23.757812 -26.832031 26.71875 -29.5 C 29.675781 -32.164062 32.441406 -34.796875 35.015625 -37.390625 C 37.597656 -39.984375 39.9375 -42.457031 42.03125 -44.8125 C 44.125 -47.164062 45.921875 -49.320312 47.421875 -51.28125 C 48.921875 -53.25 50.070312 -54.953125 50.875 -56.390625 C 51.6875 -57.835938 52.09375 -58.921875 52.09375 -59.640625 C 52.09375 -59.890625 51.953125 -60.015625 51.671875 -60.015625 Z M 51.671875 -60.015625 "/></g></g></g><g fill="#ffffff" fill-opacity="1"><g transform="translate(72.420105, 96.982972)"><g><path d="M 27.703125 -10.890625 C 27.960938 -10.890625 28.1875 -10.796875 28.375 -10.609375 C 28.570312 -10.421875 28.671875 -10.195312 28.671875 -9.9375 C 28.671875 -9.59375 28.535156 -9.332031 28.265625 -9.15625 C 26.546875 -7.894531 24.726562 -6.742188 22.8125 -5.703125 C 20.894531 -4.671875 18.988281 -3.757812 17.09375 -2.96875 C 15.195312 -2.1875 13.398438 -1.53125 11.703125 -1 C 10.003906 -0.476562 8.492188 -0.078125 7.171875 0.203125 C 5.847656 0.484375 4.804688 0.625 4.046875 0.625 C 2.148438 0.625 0.679688 0.273438 -0.359375 -0.421875 C -1.410156 -1.117188 -1.9375 -2.101562 -1.9375 -3.375 C -1.9375 -4.21875 -1.71875 -5.113281 -1.28125 -6.0625 C -0.84375 -7.007812 -0.257812 -7.9375 0.46875 -8.84375 C 1.207031 -9.75 2.03125 -10.570312 2.9375 -11.3125 C 3.84375 -12.050781 4.765625 -12.640625 5.703125 -13.078125 C 6.640625 -13.515625 7.53125 -13.734375 8.375 -13.734375 C 9.125 -13.734375 9.726562 -13.535156 10.1875 -13.140625 C 10.644531 -12.753906 10.875 -12.238281 10.875 -11.59375 C 10.875 -11.144531 10.71875 -10.703125 10.40625 -10.265625 C 10.09375 -9.828125 9.671875 -9.425781 9.140625 -9.0625 C 8.609375 -8.695312 8.035156 -8.398438 7.421875 -8.171875 C 6.804688 -7.953125 6.1875 -7.84375 5.5625 -7.84375 C 4.320312 -7.84375 3.328125 -8 2.578125 -8.3125 C 1.773438 -7.4375 1.144531 -6.5625 0.6875 -5.6875 C 0.226562 -4.8125 0 -4.039062 0 -3.375 C 0 -2 1.347656 -1.3125 4.046875 -1.3125 C 4.742188 -1.3125 5.71875 -1.441406 6.96875 -1.703125 C 8.226562 -1.960938 9.660156 -2.347656 11.265625 -2.859375 C 12.878906 -3.367188 14.59375 -4.003906 16.40625 -4.765625 C 18.226562 -5.523438 20.054688 -6.398438 21.890625 -7.390625 C 23.722656 -8.390625 25.472656 -9.492188 27.140625 -10.703125 C 27.273438 -10.828125 27.460938 -10.890625 27.703125 -10.890625 Z M 8.9375 -11.59375 C 8.9375 -11.664062 8.90625 -11.71875 8.84375 -11.75 C 8.78125 -11.789062 8.625 -11.8125 8.375 -11.8125 C 7.820312 -11.8125 7.175781 -11.640625 6.4375 -11.296875 C 5.707031 -10.960938 4.957031 -10.476562 4.1875 -9.84375 C 4.5625 -9.789062 5.019531 -9.765625 5.5625 -9.765625 C 6.238281 -9.765625 6.828125 -9.875 7.328125 -10.09375 C 7.828125 -10.320312 8.21875 -10.578125 8.5 -10.859375 C 8.789062 -11.148438 8.9375 -11.394531 8.9375 -11.59375 Z M 8.9375 -11.59375 "/></g></g></g></g></g></svg>