<svg xmlns="http://www.w3.org/2000/svg" xmlns:xlink="http://www.w3.org/1999/xlink" width="500" zoomAndPan="magnify" viewBox="0 0 375 374.999991" height="500" preserveAspectRatio="xMidYMid meet" version="1.0"><defs><g/><clipPath id="a84c628a42"><rect x="0" width="75" y="0" height="191"/></clipPath><clipPath id="6db70bde06"><rect x="0" width="72" y="0" height="192"/></clipPath><clipPath id="a73414fe46"><rect x="0" width="98" y="0" height="191"/></clipPath></defs><g transform="matrix(1, 0, 0, 1, 140, 170)"><g clip-path="url(#a84c628a42)"><g fill="#ffffff" fill-opacity="1"><g transform="translate(2.095783, 156.349946)"><g><path d="M 7.9375 -112.328125 C 7.9375 -113.472656 7.578125 -114.398438 6.859375 -115.109375 C 6.140625 -115.828125 5.28125 -116.1875 4.28125 -116.1875 L 4.28125 -117.046875 L 22.71875 -117.046875 L 22.71875 -116.1875 C 21.71875 -116.1875 20.863281 -115.828125 20.15625 -115.109375 C 19.4375 -114.398438 19.078125 -113.472656 19.078125 -112.328125 L 19.078125 -27.4375 C 19.078125 -20.144531 20.679688 -13.890625 23.890625 -8.671875 C 27.109375 -3.460938 31.003906 -0.859375 35.578125 -0.859375 C 40.441406 -0.859375 44.875 -2.070312 48.875 -4.5 C 52.875 -6.925781 56.085938 -10.140625 58.515625 -14.140625 C 60.953125 -18.148438 62.171875 -22.582031 62.171875 -27.4375 L 62.171875 -112.328125 C 62.171875 -113.472656 61.738281 -114.398438 60.875 -115.109375 C 60.164062 -115.828125 59.3125 -116.1875 58.3125 -116.1875 L 58.3125 -117.046875 L 66.671875 -117.046875 L 66.671875 -116.1875 C 65.671875 -116.1875 64.8125 -115.828125 64.09375 -115.109375 C 63.375 -114.398438 63.015625 -113.472656 63.015625 -112.328125 L 63.015625 -27.4375 C 63.015625 -22.4375 61.765625 -17.863281 59.265625 -13.71875 C 56.765625 -9.570312 53.441406 -6.25 49.296875 -3.75 C 45.160156 -1.25 40.585938 0 35.578125 0 C 30.429688 0 25.785156 -1.25 21.640625 -3.75 C 17.503906 -6.25 14.1875 -9.570312 11.6875 -13.71875 C 9.1875 -17.863281 7.9375 -22.4375 7.9375 -27.4375 Z M 7.9375 -112.328125 "/></g></g></g></g></g><g transform="matrix(1, 0, 0, 1, 196, 54)"><g clip-path="url(#6db70bde06)"><g fill="#ffffff" fill-opacity="1"><g transform="translate(0.327008, 156.252184)"><g><path d="M 9.640625 -112.328125 C 9.503906 -112.609375 9.289062 -112.960938 9 -113.390625 L 9 -4.71875 C 9 -3.570312 9.359375 -2.640625 10.078125 -1.921875 C 10.785156 -1.210938 11.640625 -0.859375 12.640625 -0.859375 L 12.640625 0 L 4.28125 0 L 4.28125 -0.859375 C 5.28125 -0.859375 6.140625 -1.210938 6.859375 -1.921875 C 7.578125 -2.640625 7.9375 -3.570312 7.9375 -4.71875 L 7.9375 -114.46875 C 7.789062 -114.75 7.644531 -114.890625 7.5 -114.890625 C 6.351562 -115.753906 5.28125 -116.1875 4.28125 -116.1875 L 4.28125 -117.046875 L 23.359375 -117.046875 L 23.359375 -116.1875 C 22.503906 -116.1875 21.863281 -115.828125 21.4375 -115.109375 C 20.863281 -114.398438 20.789062 -113.539062 21.21875 -112.53125 L 61.3125 -4.71875 C 61.445312 -4.425781 61.734375 -4 62.171875 -3.4375 L 62.171875 -112.328125 C 62.171875 -113.472656 61.738281 -114.398438 60.875 -115.109375 C 60.164062 -115.828125 59.3125 -116.1875 58.3125 -116.1875 L 58.3125 -117.046875 L 66.671875 -117.046875 L 66.671875 -116.1875 C 65.671875 -116.1875 64.8125 -115.828125 64.09375 -115.109375 C 63.375 -114.398438 63.015625 -113.472656 63.015625 -112.328125 L 63.015625 -2.578125 C 63.160156 -2.285156 63.304688 -2.066406 63.453125 -1.921875 C 64.597656 -1.210938 65.671875 -0.859375 66.671875 -0.859375 L 66.671875 0 L 47.59375 0 L 47.59375 -0.859375 C 48.59375 -0.859375 49.304688 -1.210938 49.734375 -1.921875 C 50.160156 -2.640625 50.160156 -3.5 49.734375 -4.5 Z M 9.640625 -112.328125 "/></g></g></g></g></g><g transform="matrix(1, 0, 0, 1, 106, 23)"><g clip-path="url(#a73414fe46)"><g fill="#ffffff" fill-opacity="1"><g transform="translate(2.480479, 155.608485)"><g><path d="M 89.171875 -150.046875 L 90.03125 -150.046875 L 90.03125 -107.171875 C 90.03125 -95.316406 85.816406 -85.242188 77.390625 -76.953125 C 76.390625 -75.804688 75.101562 -75.234375 73.53125 -75.234375 C 71.957031 -75.234375 70.671875 -75.804688 69.671875 -76.953125 C 68.523438 -77.953125 67.953125 -79.238281 67.953125 -80.8125 C 67.953125 -82.382812 68.523438 -83.671875 69.671875 -84.671875 C 70.671875 -85.816406 71.957031 -86.390625 73.53125 -86.390625 C 75.101562 -86.390625 76.390625 -85.816406 77.390625 -84.671875 C 78.523438 -83.671875 79.09375 -82.382812 79.09375 -80.8125 C 79.09375 -80.53125 79.023438 -80.242188 78.890625 -79.953125 C 85.742188 -87.816406 89.171875 -96.890625 89.171875 -107.171875 C 89.171875 -118.753906 85.023438 -128.6875 76.734375 -136.96875 C 75.453125 -138.257812 74.097656 -139.476562 72.671875 -140.625 C 72.523438 -140.625 72.3125 -140.765625 72.03125 -141.046875 C 68.3125 -143.765625 64.378906 -145.765625 60.234375 -147.046875 C 55.941406 -148.472656 51.582031 -149.1875 47.15625 -149.1875 C 35.582031 -149.1875 25.722656 -145.046875 17.578125 -136.765625 C 17.429688 -136.765625 17.359375 -136.765625 17.359375 -136.765625 C 11.210938 -130.617188 8.859375 -122.472656 10.296875 -112.328125 C 11.578125 -102.035156 16.363281 -92.816406 24.65625 -84.671875 L 77.390625 -40.078125 C 82.960938 -34.503906 86.675781 -28.070312 88.53125 -20.78125 C 90.382812 -13.5 90.382812 -6.179688 88.53125 1.171875 C 86.675781 8.535156 82.960938 15.003906 77.390625 20.578125 C 69.097656 28.867188 59.09375 33.015625 47.375 33.015625 L 47.15625 33.015625 C 37.726562 33.015625 29.296875 30.296875 21.859375 24.859375 L 21.859375 24.65625 L 21.65625 24.65625 C 21.507812 24.507812 21.289062 24.363281 21 24.21875 C 19.289062 23.070312 17.4375 22.5 15.4375 22.5 C 12.570312 22.5 10.140625 23.503906 8.140625 25.515625 C 6.140625 27.367188 5.140625 29.722656 5.140625 32.578125 L 5.140625 33.015625 L 4.28125 33.015625 L 4.28125 -9.859375 L 5.140625 -9.859375 C 5.140625 1.710938 9.285156 11.644531 17.578125 19.9375 C 18.859375 21.21875 20.21875 22.429688 21.65625 23.578125 C 21.789062 23.722656 22.003906 23.867188 22.296875 24.015625 C 29.722656 29.441406 38.007812 32.15625 47.15625 32.15625 L 47.375 32.15625 C 52.945312 32.15625 58.234375 31.082031 63.234375 28.9375 C 68.378906 26.789062 72.878906 23.789062 76.734375 19.9375 C 80.878906 15.789062 83.34375 10.679688 84.125 4.609375 C 84.914062 -1.460938 84.0625 -7.785156 81.5625 -14.359375 C 79.0625 -20.929688 75.097656 -26.9375 69.671875 -32.375 L 16.9375 -76.953125 C 8.5 -85.242188 4.28125 -95.316406 4.28125 -107.171875 C 4.28125 -119.035156 8.5 -129.113281 16.9375 -137.40625 C 20.9375 -141.550781 25.507812 -144.695312 30.65625 -146.84375 C 35.9375 -148.976562 41.4375 -150.046875 47.15625 -150.046875 C 56.59375 -150.046875 65.023438 -147.257812 72.453125 -141.6875 C 72.597656 -141.6875 72.738281 -141.617188 72.875 -141.484375 C 72.875 -141.484375 72.910156 -141.445312 72.984375 -141.375 C 73.054688 -141.300781 73.09375 -141.265625 73.09375 -141.265625 C 74.957031 -140.117188 76.890625 -139.546875 78.890625 -139.546875 C 81.742188 -139.546875 84.171875 -140.472656 86.171875 -142.328125 C 88.171875 -144.328125 89.171875 -146.757812 89.171875 -149.625 Z M 89.171875 -150.046875 "/></g></g></g></g></g></svg>