<svg xmlns="http://www.w3.org/2000/svg" xmlns:xlink="http://www.w3.org/1999/xlink" width="500" zoomAndPan="magnify" viewBox="0 0 375 374.999991" height="500" preserveAspectRatio="xMidYMid meet" version="1.0"><defs><g/><clipPath id="df7d55cf0b"><rect x="0" width="157" y="0" height="197"/></clipPath><clipPath id="97e4917497"><rect x="0" width="266" y="0" height="224"/></clipPath></defs><g transform="matrix(1, 0, 0, 1, 95, 11)"><g clip-path="url(#df7d55cf0b)"><g fill="#ffffff" fill-opacity="1"><g transform="translate(0.914669, 180.355977)"><g><path d="M 116.328125 -167.53125 C 116.328125 -168.007812 116.570312 -168.25 117.0625 -168.25 L 149.015625 -168.25 C 149.503906 -168.25 149.75 -168.007812 149.75 -167.53125 C 149.75 -167.207031 149.503906 -167.046875 149.015625 -167.046875 C 144.847656 -167.046875 140.800781 -165.5625 136.875 -162.59375 C 132.957031 -159.632812 130.273438 -156.070312 128.828125 -151.90625 L 91.578125 -32.453125 L 81.484375 0.234375 C 81.484375 0.234375 81.484375 0.316406 81.484375 0.484375 C 81.484375 0.316406 81.484375 0.316406 81.484375 0.484375 C 81.484375 0.484375 81.398438 0.484375 81.234375 0.484375 C 81.234375 0.484375 81.15625 0.5625 81 0.71875 C 81.15625 0.5625 81.15625 0.5625 81 0.71875 C 81 0.71875 80.921875 0.71875 80.765625 0.71875 C 80.597656 0.71875 80.515625 0.71875 80.515625 0.71875 C 80.515625 0.5625 80.515625 0.484375 80.515625 0.484375 C 80.359375 0.484375 80.28125 0.484375 80.28125 0.484375 C 80.28125 0.316406 80.28125 0.316406 80.28125 0.484375 C 80.28125 0.484375 80.28125 0.398438 80.28125 0.234375 L 32.921875 -151.421875 C 31.640625 -155.753906 28.992188 -159.441406 24.984375 -162.484375 C 20.984375 -165.523438 16.898438 -167.046875 12.734375 -167.046875 C 12.253906 -167.046875 12.015625 -167.207031 12.015625 -167.53125 C 12.015625 -168.007812 12.253906 -168.25 12.734375 -168.25 L 65.140625 -168.25 C 65.460938 -168.25 65.625 -168.007812 65.625 -167.53125 C 65.625 -167.207031 65.460938 -167.046875 65.140625 -167.046875 C 60.972656 -167.046875 57.925781 -165.601562 56 -162.71875 C 53.757812 -159.832031 53.28125 -156.226562 54.5625 -151.90625 L 91.09375 -34.859375 L 127.390625 -151.671875 C 127.390625 -151.828125 127.390625 -151.90625 127.390625 -151.90625 C 128.828125 -156.226562 128.425781 -159.832031 126.1875 -162.71875 C 124.101562 -165.601562 121.0625 -167.046875 117.0625 -167.046875 C 116.570312 -167.046875 116.328125 -167.207031 116.328125 -167.53125 Z M 116.328125 -167.53125 "/></g></g></g></g></g><g transform="matrix(1, 0, 0, 1, 48, 135)"><g clip-path="url(#97e4917497)"><g fill="#ffffff" fill-opacity="1"><g transform="translate(0.891472, 162.082785)"><g><path d="M 219.609375 -77.625 L 219.171875 -78.0625 C 215.628906 -74.53125 211.535156 -70.585938 206.890625 -66.234375 C 202.242188 -61.890625 197.265625 -57.800781 191.953125 -53.96875 C 186.648438 -50.132812 181.234375 -46.960938 175.703125 -44.453125 C 170.179688 -41.941406 164.691406 -40.6875 159.234375 -40.6875 C 151.566406 -40.6875 145.554688 -43.414062 141.203125 -48.875 C 136.859375 -54.332031 134.6875 -60.671875 134.6875 -67.890625 C 134.6875 -68.773438 134.796875 -69.769531 135.015625 -70.875 C 135.234375 -71.988281 135.414062 -72.984375 135.5625 -73.859375 C 129.96875 -73.859375 124.253906 -74.816406 118.421875 -76.734375 C 112.597656 -78.648438 107.253906 -81.378906 102.390625 -84.921875 C 97.523438 -88.460938 93.582031 -92.738281 90.5625 -97.75 C 87.539062 -102.757812 86.03125 -108.363281 86.03125 -114.5625 C 86.03125 -124.144531 88.460938 -132.398438 93.328125 -139.328125 C 98.191406 -146.253906 104.566406 -151.597656 112.453125 -155.359375 C 120.347656 -159.117188 128.863281 -161 138 -161 C 148.03125 -161 157.757812 -158.820312 167.1875 -154.46875 C 176.625 -150.125 184.660156 -144.191406 191.296875 -136.671875 C 195.867188 -139.179688 201.398438 -141.796875 207.890625 -144.515625 C 214.378906 -147.242188 221.015625 -149.566406 227.796875 -151.484375 C 234.578125 -153.398438 240.617188 -154.359375 245.921875 -154.359375 C 251.378906 -154.359375 255.617188 -153.066406 258.640625 -150.484375 C 261.660156 -147.910156 262.953125 -144.632812 262.515625 -140.65625 C 262.515625 -135.5 260.300781 -130.082031 255.875 -124.40625 C 251.457031 -118.726562 245.414062 -113.160156 237.75 -107.703125 C 230.082031 -102.242188 221.414062 -97.191406 211.75 -92.546875 C 202.09375 -87.910156 191.992188 -83.96875 181.453125 -80.71875 C 170.910156 -77.476562 160.484375 -75.34375 150.171875 -74.3125 C 148.398438 -70.769531 147.515625 -66.863281 147.515625 -62.59375 C 147.515625 -55.363281 148.617188 -50.492188 150.828125 -47.984375 C 153.035156 -45.484375 155.984375 -44.234375 159.671875 -44.234375 C 166.015625 -44.234375 172.28125 -45.78125 178.46875 -48.875 C 184.664062 -51.96875 190.601562 -55.765625 196.28125 -60.265625 C 201.957031 -64.765625 207.113281 -69.296875 211.75 -73.859375 C 216.394531 -78.429688 220.265625 -82.265625 223.359375 -85.359375 C 226.460938 -88.460938 228.53125 -90.015625 229.5625 -90.015625 C 230.59375 -90.015625 231.109375 -89.71875 231.109375 -89.125 C 231.109375 -88.382812 230.664062 -87.425781 229.78125 -86.25 C 228.894531 -85.070312 227.382812 -82.75 225.25 -79.28125 C 223.113281 -75.820312 220.128906 -70.367188 216.296875 -62.921875 C 212.460938 -55.472656 207.671875 -45.113281 201.921875 -31.84375 C 195.285156 -16.65625 186.546875 -3.71875 175.703125 6.96875 C 164.867188 17.65625 152.78125 25.800781 139.4375 31.40625 C 126.09375 37.007812 112.269531 39.8125 97.96875 39.8125 C 86.914062 39.8125 77.039062 37.96875 68.34375 34.28125 C 59.644531 30.59375 52.75 25.539062 47.65625 19.125 C 42.570312 12.71875 40.03125 5.3125 40.03125 -3.09375 C 40.03125 -10.613281 41.875 -17.503906 45.5625 -23.765625 C 49.25 -30.035156 54.113281 -35.457031 60.15625 -40.03125 C 66.195312 -44.601562 72.753906 -48.140625 79.828125 -50.640625 C 86.910156 -53.148438 93.769531 -54.40625 100.40625 -54.40625 C 107.925781 -54.40625 114.925781 -53.113281 121.40625 -50.53125 C 127.894531 -47.945312 133.128906 -44.1875 137.109375 -39.25 C 141.097656 -34.3125 143.09375 -28.304688 143.09375 -21.234375 C 143.09375 -13.859375 140.878906 -7.40625 136.453125 -1.875 C 132.023438 3.644531 126.421875 7.914062 119.640625 10.9375 C 112.859375 13.96875 105.929688 15.484375 98.859375 15.484375 C 93.691406 15.484375 88.859375 14.96875 84.359375 13.9375 C 79.867188 12.90625 76.222656 11.757812 73.421875 10.5 C 70.617188 9.25 69.21875 8.328125 69.21875 7.734375 C 69.21875 7.003906 69.660156 6.640625 70.546875 6.640625 C 71.285156 6.640625 72.6875 7.15625 74.75 8.1875 C 76.8125 9.21875 79.722656 10.25 83.484375 11.28125 C 87.242188 12.3125 92 12.828125 97.75 12.828125 C 104.382812 12.828125 110.984375 11.535156 117.546875 8.953125 C 124.109375 6.378906 129.5625 2.515625 133.90625 -2.640625 C 138.257812 -7.804688 140.4375 -14.078125 140.4375 -21.453125 C 140.4375 -27.054688 138.847656 -31.8125 135.671875 -35.71875 C 132.503906 -39.625 128.265625 -42.609375 122.953125 -44.671875 C 117.648438 -46.734375 111.828125 -47.765625 105.484375 -47.765625 C 98.703125 -47.765625 91.8125 -46.617188 84.8125 -44.328125 C 77.8125 -42.046875 71.359375 -38.769531 65.453125 -34.5 C 59.554688 -30.226562 54.800781 -25.066406 51.1875 -19.015625 C 47.582031 -12.972656 45.78125 -6.191406 45.78125 1.328125 C 45.78125 7.671875 47.953125 13.566406 52.296875 19.015625 C 56.648438 24.472656 62.734375 28.859375 70.546875 32.171875 C 78.359375 35.492188 87.5 37.15625 97.96875 37.15625 C 109.613281 37.15625 120.003906 35.203125 129.140625 31.296875 C 138.285156 27.390625 146.617188 21.710938 154.140625 14.265625 C 161.660156 6.816406 168.882812 -2.140625 175.8125 -12.609375 C 182.601562 -22.773438 188.910156 -32.390625 194.734375 -41.453125 C 200.554688 -50.523438 205.601562 -58.269531 209.875 -64.6875 C 214.15625 -71.101562 217.398438 -75.414062 219.609375 -77.625 Z M 89.5625 -118.546875 C 89.5625 -112.796875 91 -107.707031 93.875 -103.28125 C 96.75 -98.851562 100.582031 -95.09375 105.375 -92 C 110.164062 -88.90625 115.363281 -86.582031 120.96875 -85.03125 C 126.570312 -83.488281 132.03125 -82.71875 137.34375 -82.71875 C 140.4375 -90.675781 144.707031 -97.785156 150.15625 -104.046875 C 155.613281 -110.316406 161.734375 -116.03125 168.515625 -121.1875 C 175.296875 -126.351562 182.15625 -131.070312 189.09375 -135.34375 C 182.894531 -142.570312 175.222656 -148.210938 166.078125 -152.265625 C 156.941406 -156.316406 147.066406 -158.34375 136.453125 -158.34375 C 127.015625 -158.34375 118.796875 -156.390625 111.796875 -152.484375 C 104.796875 -148.578125 99.335938 -143.5625 95.421875 -137.4375 C 91.515625 -131.320312 89.5625 -125.023438 89.5625 -118.546875 Z M 259.859375 -141.09375 C 259.859375 -144.925781 258.785156 -147.65625 256.640625 -149.28125 C 254.503906 -150.90625 251.003906 -151.71875 246.140625 -151.71875 C 240.691406 -151.71875 234.796875 -150.796875 228.453125 -148.953125 C 222.109375 -147.109375 216.023438 -144.75 210.203125 -141.875 C 204.378906 -139 199.257812 -135.9375 194.84375 -132.6875 C 198.226562 -127.675781 201.132812 -123.144531 203.5625 -119.09375 C 206 -115.039062 207.21875 -112.421875 207.21875 -111.234375 C 207.21875 -110.503906 206.628906 -110.140625 205.453125 -110.140625 C 205.015625 -110.140625 203.757812 -112.273438 201.6875 -116.546875 C 199.625 -120.828125 196.601562 -125.617188 192.625 -130.921875 C 183.925781 -124.734375 175.925781 -117.582031 168.625 -109.46875 C 161.332031 -101.363281 155.914062 -92.148438 152.375 -81.828125 C 162.25 -81.972656 172.238281 -83.296875 182.34375 -85.796875 C 192.445312 -88.304688 202.140625 -91.625 211.421875 -95.75 C 220.710938 -99.882812 228.96875 -104.53125 236.1875 -109.6875 C 243.414062 -114.851562 249.164062 -120.125 253.4375 -125.5 C 257.71875 -130.882812 259.859375 -136.082031 259.859375 -141.09375 Z M 259.859375 -141.09375 "/></g></g></g></g></g></svg>