<svg xmlns="http://www.w3.org/2000/svg" xmlns:xlink="http://www.w3.org/1999/xlink" width="500" zoomAndPan="magnify" viewBox="0 0 375 374.999991" height="500" preserveAspectRatio="xMidYMid meet" version="1.0"><defs><g/><clipPath id="cbac9c2736"><rect x="0" width="312" y="0" height="274"/></clipPath></defs><g transform="matrix(1, 0, 0, 1, 32, 50)"><g clip-path="url(#cbac9c2736)"><g fill="#ffffff" fill-opacity="1"><g transform="translate(0.636007, 185.645954)"><g><path d="M 100.078125 -0.890625 C 97.566406 -1.847656 95.742188 -3.460938 94.609375 -5.734375 C 93.472656 -8.003906 92.722656 -10.515625 92.359375 -13.265625 C 92.003906 -16.015625 91.765625 -18.46875 91.640625 -20.625 C 91.160156 -27.320312 90.953125 -34.015625 91.015625 -40.703125 C 91.078125 -47.398438 90.628906 -54.097656 89.671875 -60.796875 C 87.398438 -58.523438 84.796875 -55.773438 81.859375 -52.546875 C 78.929688 -49.316406 75.765625 -46.476562 72.359375 -44.03125 C 68.953125 -41.582031 65.457031 -40.476562 61.875 -40.71875 C 59 -40.945312 56.457031 -42.019531 54.25 -43.9375 C 52.039062 -45.851562 50.007812 -48.242188 48.15625 -51.109375 C 46.300781 -53.984375 44.65625 -56.882812 43.21875 -59.8125 C 41.78125 -62.738281 40.40625 -65.21875 39.09375 -67.25 C 37.0625 -62.707031 35.835938 -57.804688 35.421875 -52.546875 C 35.003906 -47.285156 34.734375 -41.960938 34.609375 -36.578125 C 34.492188 -31.203125 33.957031 -25.941406 33 -20.796875 C 32.039062 -15.660156 29.945312 -10.941406 26.71875 -6.640625 C 23.851562 -2.804688 20.503906 -0.890625 16.671875 -0.890625 C 12.847656 -0.890625 9.5625 -2.863281 6.8125 -6.8125 C 4.78125 -9.925781 3.554688 -13.332031 3.140625 -17.03125 C 2.722656 -20.738281 2.722656 -24.535156 3.140625 -28.421875 C 3.554688 -32.304688 3.941406 -35.925781 4.296875 -39.28125 C 5.015625 -46.445312 5.878906 -53.617188 6.890625 -60.796875 C 7.910156 -67.972656 8.960938 -75.085938 10.046875 -82.140625 C 10.640625 -86.328125 11.296875 -90.8125 12.015625 -95.59375 C 12.734375 -100.375 14.46875 -104.5 17.21875 -107.96875 C 20.320312 -111.789062 23.609375 -113.96875 27.078125 -114.5 C 30.546875 -115.039062 34.039062 -114.441406 37.5625 -112.703125 C 41.09375 -110.972656 44.441406 -108.613281 47.609375 -105.625 C 50.785156 -102.644531 53.6875 -99.507812 56.3125 -96.21875 C 58.945312 -92.925781 61.097656 -90.023438 62.765625 -87.515625 C 64.328125 -90.023438 66.300781 -92.984375 68.6875 -96.390625 C 71.082031 -99.804688 73.742188 -103.125 76.671875 -106.34375 C 79.597656 -109.570312 82.703125 -112.265625 85.984375 -114.421875 C 89.273438 -116.578125 92.6875 -117.679688 96.21875 -117.734375 C 99.75 -117.796875 103.304688 -116.273438 106.890625 -113.171875 C 109.160156 -111.253906 110.800781 -108.890625 111.8125 -106.078125 C 112.832031 -103.273438 113.582031 -100.378906 114.0625 -97.390625 C 114.539062 -94.398438 115.019531 -91.53125 115.5 -88.78125 C 116.695312 -82.195312 117.710938 -75.585938 118.546875 -68.953125 C 119.378906 -62.316406 119.914062 -55.648438 120.15625 -48.953125 C 120.28125 -47.285156 120.367188 -44.773438 120.421875 -41.421875 C 120.484375 -38.078125 120.394531 -34.375 120.15625 -30.3125 C 119.914062 -26.25 119.4375 -22.210938 118.71875 -18.203125 C 118.007812 -14.203125 116.90625 -10.644531 115.40625 -7.53125 C 113.914062 -4.425781 111.941406 -2.210938 109.484375 -0.890625 C 107.035156 0.421875 103.898438 0.421875 100.078125 -0.890625 Z M 100.078125 -0.890625 "/></g></g></g><g fill="#ffffff" fill-opacity="1"><g transform="translate(118.457168, 185.645954)"><g><path d="M 3.234375 -113.171875 C 2.273438 -116.753906 2.453125 -120.335938 3.765625 -123.921875 C 5.078125 -127.515625 7.140625 -130.710938 9.953125 -133.515625 C 12.765625 -136.328125 15.90625 -138.210938 19.375 -139.171875 C 20.800781 -139.523438 22.648438 -139.613281 24.921875 -139.4375 C 27.203125 -139.257812 29.476562 -138.722656 31.75 -137.828125 C 34.019531 -136.929688 35.78125 -135.703125 37.03125 -134.140625 C 38.289062 -132.585938 38.5625 -130.675781 37.84375 -128.40625 C 39.039062 -124.820312 38.859375 -121.207031 37.296875 -117.5625 C 35.742188 -113.914062 33.410156 -110.742188 30.296875 -108.046875 C 27.191406 -105.359375 23.816406 -103.535156 20.171875 -102.578125 C 16.523438 -101.628906 13.144531 -101.929688 10.03125 -103.484375 C 6.925781 -105.035156 4.660156 -108.265625 3.234375 -113.171875 Z M 26.71875 -2.515625 C 22.769531 0.234375 18.941406 0.773438 15.234375 -0.890625 C 11.535156 -2.566406 8.726562 -5.378906 6.8125 -9.328125 C 5.019531 -13.148438 3.851562 -17.539062 3.3125 -22.5 C 2.78125 -27.46875 2.601562 -32.640625 2.78125 -38.015625 C 2.957031 -43.398438 3.285156 -48.660156 3.765625 -53.796875 C 4.242188 -58.941406 4.660156 -63.488281 5.015625 -67.4375 C 5.253906 -69.945312 5.492188 -72.84375 5.734375 -76.125 C 5.972656 -79.414062 6.507812 -82.675781 7.34375 -85.90625 C 8.1875 -89.132812 9.503906 -91.707031 11.296875 -93.625 C 13.929688 -96.375 16.679688 -97.65625 19.546875 -97.46875 C 22.421875 -97.289062 25.140625 -96.210938 27.703125 -94.234375 C 30.273438 -92.265625 32.21875 -89.785156 33.53125 -86.796875 C 36.519531 -80.347656 38.222656 -73.144531 38.640625 -65.1875 C 39.066406 -57.238281 38.738281 -49.257812 37.65625 -41.25 C 36.582031 -33.238281 35.390625 -25.882812 34.078125 -19.1875 C 33.472656 -16.195312 32.78125 -13.175781 32 -10.125 C 31.226562 -7.082031 29.46875 -4.546875 26.71875 -2.515625 Z M 26.71875 -2.515625 "/></g></g></g><g fill="#ffffff" fill-opacity="1"><g transform="translate(154.502558, 185.645954)"><g><path d="M 69.40625 -2.875 C 66.0625 -1.070312 62.113281 -0.113281 57.5625 0 C 53.019531 0.113281 48.414062 -0.210938 43.75 -0.984375 C 39.09375 -1.765625 34.972656 -2.453125 31.390625 -3.046875 C 23.617188 -4.359375 17.25 -6.925781 12.28125 -10.75 C 7.320312 -14.582031 4.425781 -20.625 3.59375 -28.875 C 2.875 -36.289062 2.570312 -43.941406 2.6875 -51.828125 C 2.8125 -59.722656 2.929688 -67.375 3.046875 -74.78125 C 3.046875 -78.96875 3.101562 -83.601562 3.21875 -88.6875 C 3.34375 -93.769531 3.972656 -98.703125 5.109375 -103.484375 C 6.242188 -108.265625 8.25 -112.390625 11.125 -115.859375 C 14.226562 -119.566406 17.601562 -121.597656 21.25 -121.953125 C 24.894531 -122.304688 28.242188 -121.378906 31.296875 -119.171875 C 34.347656 -116.960938 36.53125 -113.707031 37.84375 -109.40625 C 39.632812 -104.257812 40.648438 -98.726562 40.890625 -92.8125 C 41.128906 -86.894531 41.066406 -80.972656 40.703125 -75.046875 C 40.347656 -69.128906 40.050781 -63.484375 39.8125 -58.109375 C 39.695312 -56.191406 39.488281 -54.128906 39.1875 -51.921875 C 38.882812 -49.710938 38.851562 -47.585938 39.09375 -45.546875 C 39.457031 -43.035156 39.695312 -41.484375 39.8125 -40.890625 C 39.9375 -40.296875 40.382812 -40.085938 41.15625 -40.265625 C 41.9375 -40.441406 43.398438 -40.289062 45.546875 -39.8125 C 48.535156 -39.332031 51.4375 -39.03125 54.25 -38.90625 C 57.0625 -38.789062 59.8125 -38.523438 62.5 -38.109375 C 65.1875 -37.691406 67.847656 -36.585938 70.484375 -34.796875 C 74.191406 -32.398438 76.613281 -29.078125 77.75 -24.828125 C 78.882812 -20.585938 78.765625 -16.40625 77.390625 -12.28125 C 76.015625 -8.15625 73.351562 -5.019531 69.40625 -2.875 Z M 69.40625 -2.875 "/></g></g></g><g fill="#ffffff" fill-opacity="1"><g transform="translate(230.180503, 185.645954)"><g><path d="M 50.9375 -5.015625 C 49.5 -2.265625 47.164062 -0.535156 43.9375 0.171875 C 40.707031 0.890625 37.359375 0.5625 33.890625 -0.8125 C 30.421875 -2.1875 27.550781 -4.546875 25.28125 -7.890625 C 23.132812 -11.117188 21.820312 -15.035156 21.34375 -19.640625 C 20.863281 -24.242188 20.769531 -29.082031 21.0625 -34.15625 C 21.363281 -39.238281 21.691406 -44.171875 22.046875 -48.953125 C 22.410156 -53.742188 22.414062 -57.929688 22.0625 -61.515625 C 21.457031 -66.296875 19.867188 -70.867188 17.296875 -75.234375 C 14.734375 -79.597656 12.078125 -83.960938 9.328125 -88.328125 C 6.578125 -92.691406 4.601562 -97.320312 3.40625 -102.21875 C 2.332031 -106.644531 2.484375 -110.710938 3.859375 -114.421875 C 5.234375 -118.128906 7.625 -120.695312 11.03125 -122.125 C 14.4375 -123.5625 18.53125 -123.085938 23.3125 -120.703125 C 27.5 -118.671875 30.664062 -115.679688 32.8125 -111.734375 C 34.96875 -107.785156 36.734375 -103.566406 38.109375 -99.078125 C 39.484375 -94.597656 41.007812 -90.445312 42.6875 -86.625 C 43.882812 -88.65625 45.257812 -91.222656 46.8125 -94.328125 C 48.363281 -97.441406 50.066406 -100.671875 51.921875 -104.015625 C 53.773438 -107.367188 55.835938 -110.328125 58.109375 -112.890625 C 60.378906 -115.460938 62.859375 -117.253906 65.546875 -118.265625 C 68.234375 -119.285156 71.191406 -119.019531 74.421875 -117.46875 C 77.054688 -116.269531 78.734375 -114.535156 79.453125 -112.265625 C 80.171875 -109.992188 80.316406 -107.484375 79.890625 -104.734375 C 79.472656 -101.984375 78.753906 -99.289062 77.734375 -96.65625 C 76.722656 -94.03125 75.800781 -91.820312 74.96875 -90.03125 C 73.414062 -86.6875 71.617188 -83.425781 69.578125 -80.25 C 67.546875 -77.082031 65.515625 -73.945312 63.484375 -70.84375 C 61.335938 -67.726562 59.8125 -65.125 58.90625 -63.03125 C 58.007812 -60.945312 57.53125 -58.738281 57.46875 -56.40625 C 57.414062 -54.070312 57.628906 -50.992188 58.109375 -47.171875 C 58.585938 -41.066406 58.882812 -35.414062 59 -30.21875 C 59.125 -25.019531 58.617188 -20.296875 57.484375 -16.046875 C 56.347656 -11.804688 54.164062 -8.128906 50.9375 -5.015625 Z M 50.9375 -5.015625 "/></g></g></g></g></g></svg>