<?xml version="1.0" encoding="utf-8"?>
<!-- Generator: Adobe Illustrator 25.4.1, SVG Export Plug-In . SVG Version: 6.00 Build 0)  -->
<svg version="1.0" id="Layer_1" xmlns="http://www.w3.org/2000/svg" xmlns:xlink="http://www.w3.org/1999/xlink" x="0px" y="0px"
	 viewBox="0 0 1000 1000" style="enable-background:new 0 0 1000 1000;" xml:space="preserve">
<style type="text/css">
	.st0{fill:#FFFFFF;}
</style>
<g>
	<path class="st0" d="M901.1,234.7H98.9c-28.3,0-51.3,23-51.3,51.3V714c0,28.3,23,51.3,51.3,51.3h802.2c28.3,0,51.3-23,51.3-51.3
		V286C952.3,257.6,929.4,234.7,901.1,234.7z M319,608.9c-1.8,4.4-4.4,6.3-9.2,6.2c-16.4-0.2-32.9-0.3-49.3,0
		c-5.6,0.1-8.1-1.9-9.5-7.3c-12.7-49.7-25.6-99.3-38.5-148.9c-2.4-9.4-5.1-18.7-7.3-28.1c-2.1-9.2-7.3-15.4-15.8-19.4
		c-15.8-7.6-32.5-12.3-49.4-16.8c-2.9-0.8-6.9-0.4-6.1-5.2c0.6-4.3,4.1-4.2,7.3-4.2c31.5,0,62.9-0.2,94.4,0.1
		c14.9,0.1,25.4,9.7,28.4,25.2c7.4,38.2,14.5,76.5,21.8,114.7c0.7,3.5,1.4,7,2.1,10.4c0.7,0,1.3,0.1,2,0.1
		c7.6-19.3,15.2-38.6,22.9-57.8c11.1-28.1,22.4-56.2,33.3-84.4c2.3-6.1,5.5-8.7,12.2-8.5c15.2,0.5,30.5,0.1,45.7,0.2
		c8.1,0,8.6,0.8,5.5,8.3c-24.5,58.7-49.1,117.3-73.8,176C330,582.6,324.3,595.7,319,608.9z M439.9,615.2c-7.2-0.5-14.5-0.1-21.8-0.1
		c-7,0-14,0-21.1,0c-9,0-9.3-0.2-7.4-8.9c6.5-30.8,13.2-61.5,19.7-92.2c8.4-39,16.7-78,25.1-117.1c2.5-11.6,2.4-11.6,13.9-11.6
		c13.5,0,27.1,0.2,40.6-0.1c6.4-0.1,7.8,2.1,6.5,8.3C480.2,464.6,465,535.8,450,607C448.7,613.2,446.2,615.6,439.9,615.2z
		 M628.9,597.8c-19,13.6-45.5,21.4-77.3,21.3c-16.9-1-36.8-3.1-56-9.5c-6-2-7.8-4.8-6.2-11.2c3-11.7,5.3-23.6,7.6-35.4
		c1.1-5.6,3.2-7.2,8.9-4.5c21.6,9.9,44.1,14,67.8,9.6c4.6-0.9,8.8-2.9,12.6-5.3c9.4-6,10.8-18,3.3-26.3
		c-5.7-6.2-12.9-10.1-20.3-13.8c-12.3-6.2-24.5-12.6-35.3-21.4c-31.8-26-25.1-65.5-4.7-88.3c16.7-18.7,38.6-26.9,62.6-30.5
		c23.6-3.6,46.7-0.7,69.5,6.3c5.7,1.8,7.8,4.3,6.2,10.4c-2.8,11-5.2,22.1-7.2,33.3c-1.2,6.6-3.6,8.2-10.2,5.6
		c-17.8-7.1-36.4-9.7-55.5-6.2c-2.8,0.5-5.6,1.5-8.2,2.7c-14,6.8-15.3,19-3,28.4c9.1,7,19.7,11.3,29.5,17c5.4,3.2,10.8,6.4,16.1,9.8
		C672.9,517.8,661.9,574.1,628.9,597.8z M859.3,615.2c-6.7-0.4-13.5-0.1-20.3-0.1c-7,0-14-0.2-21,0.1c-4.7,0.2-7.2-1.5-8-6.3
		c-1.2-6.9-2.9-13.7-4.1-20.6c-0.8-4.8-3-7-8.2-6.9c-20.8,0.2-41.6,0.2-62.4,0c-4.6,0-7.1,1.7-8.4,6.1c-2.2,6.9-5.1,13.6-7.2,20.5
		c-1.6,5.1-4.3,7.4-9.9,7.2c-16-0.3-31.9-0.1-47.9-0.1c-7.8,0-8.1-0.5-5.1-7.8c23.6-56.4,47.3-112.8,71-169.2
		c4.5-10.7,9-21.4,13.4-32.1c6.1-14.5,15.2-20.7,30.7-20.8c12.8-0.1,25.6,0.4,38.4-0.2c7.1-0.3,9.7,2.4,11,9.1
		c10.5,51.1,21.2,102.2,31.9,153.3c4.2,19.9,8.2,39.8,12.6,59.6C867.2,613,865.9,615.6,859.3,615.2z"/>
	<path class="st0" d="M790.1,513.9c-4.3-20.3-8.5-40.6-12.8-60.8c-0.5,0.1-1,0.1-1.5,0.2c-1.3,3.6-2.7,7.2-4,10.8
		c-7.5,20.7-15,41.3-22.4,62c-1.3,3.6-2.8,7.2,3.6,7.1c11.6-0.1,23.2-0.1,34.8,0c4.7,0,6-2.2,5-6.4
		C791.8,522.4,791,518.2,790.1,513.9z"/>
</g>
</svg>
