<?xml version="1.0" encoding="utf-8"?>
<!-- Generator: Adobe Illustrator 25.4.1, SVG Export Plug-In . SVG Version: 6.00 Build 0)  -->
<svg version="1.0" id="Layer_1" xmlns="http://www.w3.org/2000/svg" xmlns:xlink="http://www.w3.org/1999/xlink" x="0px" y="0px"
	 viewBox="0 0 1000 1000" style="enable-background:new 0 0 1000 1000;" xml:space="preserve">
<style type="text/css">
	.st0{fill:#FFFFFF;}
</style>
<g>
	<path class="st0" d="M646.5,691.1c-8.6,0-14.7,6-14.8,14.3c0,8.3,6.5,14.8,14.9,14.9c7.4,0.1,12.7-6.1,12.7-14.8
		C659.3,696.3,654.7,691.1,646.5,691.1z"/>
	<path class="st0" d="M501.8,689.9c-4.5,0.2-8.5,3.3-10.4,7.8c-0.8,2-0.3,2.6,1.6,2.6c2.9,0,5.9,0,8.8,0c0,0,0,0,0,0
		c2.9,0,5.9,0,8.8,0c2.3,0,2.9-0.9,1.9-3.2C510.5,692.8,506.1,689.7,501.8,689.9z"/>
	<path class="st0" d="M744.8,691.1c-8.3,0-13.8,5.8-13.7,14.5c0,8.5,5.9,14.7,13.9,14.7c7.8,0,13.7-6.5,13.8-14.9
		C758.9,698.2,753.4,690.2,744.8,691.1z"/>
	<path class="st0" d="M345.2,691.1c-8.2,0-13.8,5.9-13.8,14.5c0,8.5,5.9,14.7,14,14.7c8.7-0.1,14-7,14-14.8
		C359.4,699,354.9,690.3,345.2,691.1z"/>
	<path class="st0" d="M901.1,234.7H98.9c-28.3,0-51.3,23-51.3,51.3V714c0,28.3,23,51.3,51.3,51.3h802.2c28.3,0,51.3-23,51.3-51.3
		V286C952.3,257.6,929.4,234.7,901.1,234.7z M502.6,308.5c11.5,9.3,21.8,19.9,30.8,31.7c10.1,13.2,18.3,27.6,24.5,43
		c4.5,11.2,7.8,22.7,10,34.6c2.5,13.6,4,27.1,3.4,40.9c-1.5,35.6-11.9,68.3-32,97.8c-9.9,14.5-21.5,27.5-35,38.7
		c-4.2,3.5-4.6,3.5-8.8,0c-24-20.1-42.1-44.6-53.7-73.6c-5.5-13.6-9.4-27.9-11.4-42.6c-1.2-9.1-1.4-18.1-2.1-25.9
		c0.1-16.3,2.4-31.1,5.9-45.7c6.8-28.1,20-53,38.5-75c7.3-8.7,15.4-16.9,24.5-23.9C499.2,307,500.7,306.9,502.6,308.5z M310.8,727
		c0,2.6-0.9,3.7-3.6,3.8c-9,0.4-9.1,0.4-9.1-8.6c0-7.3,0.1-14.7-0.1-22c-0.2-6.2-3.1-9-9.1-9.1c-6.8-0.1-10.8,2.9-11,9
		c-0.4,8.6-0.5,17.2-0.3,25.8c0,3.7-1.3,4.9-4.9,4.8c-7.8-0.1-7.8,0-7.8-7.8c0-6.9,0.1-13.9,0-20.8c-0.1-7.3-3.6-11.1-9.9-11.1
		c-7.1,0-10.6,3.5-10.7,11.1c-0.1,7.8,0,15.7,0,23.5c0,4.7-0.4,4.9-5.1,5c-7.5,0.1-7.5,0.1-7.5-7.5c0-12.5,0-24.9,0-37.4
		c0-2.4-0.9-5.4,3-6.1c5.6-1,8.1,0,9.7,4.4c3.1-4,7.6-5.1,12-5.3c5.1-0.3,10.2,1.1,14.1,4.8c2.3,2.2,3.7,2.2,6.2,0
		c9.3-8.4,28-5.1,32.5,6.4c1.6,4.3,2.1,8.8,2.1,13.2C311.2,711.1,310.9,719,310.8,727z M370.9,724.7c-0.1,6,0,6.2-5.9,6
		c-2.4-0.1-5.5,1.4-7-2.3c-0.5-1.2-1.8,0.2-2.6,0.7c-10.2,6.7-24.9,2.3-31.1-6.2c-6.5-8.8-7.3-18.4-3.5-28.4
		c3.5-8.9,10.2-13.6,19.6-15.3c5.5-1,10.3,0.2,14.9,2.9c1.5,0.9,2.3,1.7,3.4-0.6c1-2.1,9.6-2.8,11.5-1.2c1,0.9,0.9,2,0.9,3.2
		c-0.1,2.3,0,4.6,0,6.9C372.1,701.8,371,713.3,370.9,724.7z M343.3,633.2c-15.6-3.5-30.3-9.4-44.5-16.8
		c-16.4-8.6-31.2-19.4-44.2-32.5c-15.5-15.6-28-33.4-37.1-53.5c-6-13.1-10.2-26.8-13.3-40.9c-3.8-17.1-4.4-34.4-3.2-51.7
		c1-15,4.1-29.8,9.1-44.3c5.1-14.9,11.8-29,20.4-42.2c7.3-11.2,15.9-21.4,25.4-30.9c18.3-18.1,39.5-31.9,63.5-41.1
		c9.3-3.6,18.9-6.6,28.8-8.4c12.6-2.3,25.3-4.2,34.4-3.8c34.8,0,63.9,7.4,91.2,22.1c4.2,2.2,8.2,4.8,12.4,7.1
		c2.6,1.4,2.8,2.9,0.4,4.9c-12.1,10.3-22.9,21.7-32.3,34.5c-7.6,10.4-14.1,21.5-19.4,33.2c-5.1,11.2-9.6,22.7-12.6,34.7
		c-2.4,9.8-4.6,19.8-5.2,29.8c-0.8,13.7-1.3,27.4,0.4,41.1c1.6,13.3,4.5,26.2,8.4,39c4.1,13.4,10,26.1,17,38.2
		c5.1,8.8,10.7,17.3,17.2,25.1c7.1,8.6,14.4,17.1,23.3,24.1c6.7,5.2,6.3,5.5-0.8,10c-18.2,11.6-38.1,19.1-59,23.5
		c-16.9,3.6-34.3,4.6-51.7,3.1C362.2,636.7,352.7,635.3,343.3,633.2z M417,728.6c-5.6,2.8-8.6,3.5-17.5,3.5c-4.3-0.1-11-1.2-17.1-5
		c-2.1-1.3-2.4-2.8-1.2-4.8c0.6-1,1.3-2,1.7-3c1.4-3.1,3.4-3.3,6.2-1.8c5.5,2.9,11.2,4.4,17.4,2.9c0.4-0.1,0.8-0.1,1.1-0.2
		c2-0.9,4.5-1.6,4.3-4.3c-0.2-2.4-2.6-3.1-4.5-3.5c-4.2-1-8.6-1.6-12.8-2.5c-9.1-2.1-14.2-8.7-13-16.7c1-6.6,6.1-11.8,13.6-13.4
		c9-1.9,17.7-0.9,26,3.3c2.4,1.2,2.7,2.4,1.3,4.4c-0.4,0.6-0.8,1.3-1.2,2c-2.9,4.9-2.8,4.6-8.2,2.8c-4.8-1.7-9.8-4.1-15.1-1.1
		c-1.7,0.9-3.2,1.8-3.2,3.9c0.1,2.3,1.9,2.8,3.7,3.2c4,0.7,8.1,1.5,12.1,2.1c6.8,1,12.1,5.7,13.8,12.2
		C426.1,718.5,422.7,725.8,417,728.6z M469.7,729.3c-6.9,3.8-14.1,3.8-21.2,0.8c-5.2-2.2-7.5-6.9-7.8-12.3c-0.2-3.8,0-7.7,0-11.6
		c0,0,0,0-0.1,0c0-3.7-0.1-7.5,0-11.2c0.1-2.9-1-3.8-3.8-3.8c-1.9,0.1-4.7,1-5.7-1.1c-1.2-2.8-0.9-6.1-0.2-9.1
		c0.5-1.8,2.5-1.5,4-1.5c5.6-0.2,5.6-0.2,5.6-5.8c0-1.2,0-2.3,0-3.5c0-5,0.2-5.2,5.2-5.3c6.8-0.2,6.7-0.2,6.8,6.7
		c0.1,8.5-1.2,8,8.2,8c1,0,2.1,0,3.1,0c6.3,0,6.5,0.2,6.5,6.4c-0.1,5.2-0.2,5.3-5.5,5.3c-3,0-5.9,0.1-8.9,0
		c-2.2-0.1-3.3,0.8-3.3,3.1c0.1,5.9-0.2,11.8,0,17.7c0.3,6.8,4.5,9.3,11.1,7.1c1.7-0.6,3.8-2.7,5.2-0.8c1.7,2.4,2.9,5.4,2.8,8.6
		C471.7,728.4,470.6,728.8,469.7,729.3z M517.4,710.5c-3.1,0-6.2,0-9.3,0c0,0,0,0,0,0.1c-4.6,0-9.3,0-13.9,0c-1.1,0-2.5-0.4-3.2,0.8
		c-0.8,1.4,0.5,2.4,1.1,3.4c3.4,5.5,8.7,6.4,14.5,5.5c2.9-0.5,5.8-1.3,8.3-2.9c2.4-1.5,4.3-1.3,5.7,1.4c0.6,1.3,1.5,2.4,2.3,3.6
		c1.1,1.8,0.7,3.2-0.9,4.3c-11.1,7.6-34.7,10-42.3-9.4c-5.1-12.9-2.4-30.8,13.3-36.7c15.1-5.7,32.2,3,33.1,21
		C526.5,710.5,526.4,710.5,517.4,710.5z M565.7,689.7c-0.6,2-2.2,1.7-3.8,1.6c-10.5-0.6-13.6,2.4-13.6,12.9c0,3.3,0,6.7,0,10
		c0,0,0,0,0,0c0,4.4,0,8.7,0,13.1c0,2.2-0.9,3.3-3.2,3.4c-10.6,0.1-8.7,0.8-9.5-8.4c-1.1-13.1,0.8-26.2-0.2-39.2
		c-0.1-1.1,0.2-2,1.1-2.7c2.3-1.8,10.3-0.7,11.7,1.8c1,1.8,1.5,0.6,2.2,0c4.7-3.9,10-4,15.5-2.7c0.7,0.2,1.8,0.6,1.9,1.1
		C568.7,684,566.6,686.7,565.7,689.7z M584.7,712.9c3.7,7.4,11.6,9.5,20.2,5.5c1.8-0.8,3.7-2.9,5.6-1.3c2.3,2,3.9,4.9,4.5,7.9
		c0.4,2-1.8,3-3.3,3.8c-4.7,2.5-9.9,3.6-15.2,3.4c-11.3,0.8-24.2-9.2-25.9-21.2c-2-14.3,4.8-27,17-30.6c9-2.7,17.6-1.9,25.8,3.1
		c2,1.2,2.2,2.7,1.3,4.5c-0.8,1.5-1.7,2.9-2.5,4.3c-1.2,2.3-2.7,3.1-5.3,1.6c-2.6-1.6-5.5-2.4-8.7-2.7
		C584.5,689.8,580.1,704,584.7,712.9z M667.1,730.7c-2.8-0.5-6.6,1.9-8.2-2.7c-0.3-0.9-1.3,0-2,0.4c-10.5,5.5-20.6,4.8-28.5-2.1
		c-8.4-7.3-11.5-19.3-7.7-29.8c4.8-13.2,16.4-19.6,30.2-16.9c2.3,0.5,4.3,1.6,6.2,3c0.9,0.7,1.5,1.1,2.2-0.5
		c1.1-2.4,5.8-3.2,9.5-2.3c2.9,0.8,2.2,3.1,2.2,5c0.1,6.9,0,13.9,0,20.8c0,6.9-0.1,13.9,0,20.8C671.3,729.4,670.4,731.2,667.1,730.7
		z M716.1,683.4c0,0.1-0.1,0.2-0.1,0.4c-2.2,7.3-2.2,7.3-9.9,7.4c-5.7,0.1-7.9,1.8-9,7.4c-1.1,5.1-0.9,10.2-0.3,15.3
		c0.5,4.4,0.3,8.7,0.3,13.1c0,2.5-1.3,3.6-3.8,3.8c-9.3,0.7-9.3,0.7-9.3-8.4c0-5.6,0-11.3,0-16.9c0-7.1,0.1-14.1,0-21.2
		c-0.1-3.3,1.2-5,4.5-4.6c2.9,0.3,6.7-1.6,7.8,3.3c0.2,0.9,1.3,0.1,1.9-0.3c4.6-3.9,10-4.1,15.6-3.1
		C716.1,679.8,717,681,716.1,683.4z M766,730.7c-2.9-0.5-6.5,1.8-8.4-2.5c-0.3-0.8-1.5,0.4-2.3,0.8c-15.3,7.7-32.1,0.6-36-15.9
		c-3.3-13.7,1.5-27.8,16.7-32.9c6.5-2.2,13.1-2.1,19.1,1.9c0.7,0.5,1.3,1.6,2.3,1c1.1-0.6,0.6-1.9,0.6-2.8c0-5.1,0.1-10.3-0.1-15.4
		c-0.1-3.2,1-4.6,4.4-4.7c8.3-0.1,8.3-0.2,8.3,8.1c0,9.1,0,18.2,0,27.4c0,0,0,0,0,0c0,10.1-0.1,20.3,0.1,30.4
		C770.7,729.6,769.4,731.2,766,730.7z M787.2,733.1c-3.3,0-5.5-2-5.6-5c-0.1-3.3,2.4-5.5,6-5.5c3.7,0,5.4,1.6,5.4,5
		C793.1,731.1,791,733.1,787.2,733.1z M790.7,508.9c-8.4,26.1-21.9,49.3-40.6,69.6c-21.5,23.3-47.4,39.5-77,50
		c-10.4,3.7-21.2,5.8-32.1,7.5c-11.7,1.9-23.5,2.4-35.3,1.8c-32.9-1.6-63.5-10.9-91.3-29c-3.7-2.4-3.9-2.9-0.6-5.5
		c9.1-7.2,16.9-15.8,24.4-24.6c6.1-7.1,11.5-14.8,16.3-22.8c7.3-12.1,13.8-24.7,18.1-38.2c4.3-13.4,7.8-27,9.6-41.1
		c1.8-13.9,1.6-27.7,0.8-41.5c-0.5-9.2-2.6-18.2-4.5-27.2c-2.1-10.1-5.4-19.8-9.3-29.3c-7.5-18.3-17.1-35.3-29.7-50.6
		c-8-9.8-16.9-18.6-26.3-27c-2.5-2.2-1.8-3.4,0.6-4.9c18.5-11.3,38.2-19.8,59.4-24.7c18.6-4.2,37.4-5.5,56.2-3.9
		c32.4,2.8,62.4,13.1,89.2,31.8c29.6,20.7,52,47.4,66.1,80.9c5.2,12.4,9.4,25,11.6,38.1c1.9,11.4,3.9,23.1,2.7,33.7
		C799.8,472.4,796.5,490.9,790.7,508.9z"/>
</g>
</svg>
