<svg xmlns="http://www.w3.org/2000/svg" xmlns:xlink="http://www.w3.org/1999/xlink" width="150" zoomAndPan="magnify" viewBox="0 0 112.5 112.499997" height="150" preserveAspectRatio="xMidYMid meet" version="1.0"><defs><clipPath id="8b005d4364"><path d="M 0 0 L 112.003906 0 L 112.003906 112.003906 L 0 112.003906 Z M 0 0 " clip-rule="nonzero"/></clipPath><clipPath id="6a650abb98"><path d="M 56 0 C 25.070312 0 0 25.070312 0 56 C 0 86.929688 25.070312 112.003906 56 112.003906 C 86.929688 112.003906 112.003906 86.929688 112.003906 56 C 112.003906 25.070312 86.929688 0 56 0 Z M 56 0 " clip-rule="nonzero"/></clipPath><clipPath id="ad180264a1"><path d="M 56 0 C 25.070312 0 0 25.070312 0 56 C 0 86.929688 25.070312 112.003906 56 112.003906 C 86.929688 112.003906 112.003906 86.929688 112.003906 56 C 112.003906 25.070312 86.929688 0 56 0 Z M 56 0 " clip-rule="nonzero"/></clipPath><clipPath id="ea30d5297c"><path d="M 31.691406 28.917969 L 80.300781 28.917969 L 80.300781 83.125 L 31.691406 83.125 Z M 31.691406 28.917969 " clip-rule="nonzero"/></clipPath></defs><g clip-path="url(#8b005d4364)"><g clip-path="url(#6a650abb98)"><g clip-path="url(#ad180264a1)"><rect x="-11.25" width="135" fill="#cd9a51" y="-11.25" height="134.999996" fill-opacity="1"/></g></g></g><g clip-path="url(#ea30d5297c)"><path fill="#171717" d="M 80.300781 48.679688 L 80.300781 53.332031 C 80.300781 55.46875 78.570312 57.207031 76.445312 57.207031 C 74.316406 57.207031 72.585938 55.46875 72.585938 53.332031 L 72.585938 49.945312 C 72.582031 49.90625 72.5625 49.871094 72.5625 49.832031 C 72.5625 40.4375 65.121094 32.789062 55.972656 32.789062 C 47.039062 32.789062 39.746094 40.09375 39.414062 49.191406 L 39.414062 54.109375 C 39.414062 56.671875 41.492188 58.757812 44.046875 58.757812 C 44.898438 58.757812 45.589844 59.453125 45.589844 60.308594 C 45.589844 61.164062 44.898438 61.859375 44.046875 61.859375 C 40.792969 61.859375 38.019531 59.820312 36.886719 56.957031 C 36.46875 57.109375 36.027344 57.207031 35.558594 57.207031 C 33.429688 57.207031 31.699219 55.46875 31.699219 53.332031 L 31.699219 48.679688 C 31.699219 46.546875 33.429688 44.808594 35.558594 44.808594 C 35.753906 44.808594 35.945312 44.835938 36.132812 44.863281 C 38.320312 35.726562 46.375 28.917969 55.972656 28.917969 C 65.574219 28.917969 73.628906 35.730469 75.816406 44.871094 C 76.019531 44.835938 76.226562 44.808594 76.445312 44.808594 C 78.570312 44.808594 80.300781 46.546875 80.300781 48.679688 Z M 68.695312 49.835938 C 68.695312 42.777344 63 37.054688 55.972656 37.054688 C 48.949219 37.054688 43.253906 42.777344 43.253906 49.835938 C 43.253906 56.890625 48.949219 62.613281 55.972656 62.613281 C 63 62.613281 68.695312 56.890625 68.695312 49.835938 Z M 68.640625 66.488281 L 64.109375 66.488281 C 63.101562 66.488281 62.15625 66.984375 61.578125 67.816406 L 58.410156 72.367188 C 57.171875 74.148438 54.542969 74.132812 53.328125 72.332031 L 50.296875 67.847656 C 49.722656 67 48.765625 66.488281 47.742188 66.488281 L 43.296875 66.488281 C 37.566406 66.488281 32.925781 71.152344 32.925781 76.910156 L 32.925781 81.53125 C 32.925781 82.390625 33.613281 83.082031 34.46875 83.082031 L 77.46875 83.082031 C 78.320312 83.082031 79.011719 82.390625 79.011719 81.53125 L 79.011719 76.910156 C 79.011719 71.15625 74.367188 66.488281 68.640625 66.488281 Z M 68.640625 66.488281 " fill-opacity="1" fill-rule="nonzero"/></g></svg>