<svg xmlns="http://www.w3.org/2000/svg" xmlns:xlink="http://www.w3.org/1999/xlink" width="150" zoomAndPan="magnify" viewBox="0 0 112.5 112.499997" height="150" preserveAspectRatio="xMidYMid meet" version="1.0"><defs><clipPath id="4f97605b07"><path d="M 0 0 L 112.003906 0 L 112.003906 112.003906 L 0 112.003906 Z M 0 0 " clip-rule="nonzero"/></clipPath><clipPath id="d0d93525ab"><path d="M 56 0 C 25.070312 0 0 25.070312 0 56 C 0 86.929688 25.070312 112.003906 56 112.003906 C 86.929688 112.003906 112.003906 86.929688 112.003906 56 C 112.003906 25.070312 86.929688 0 56 0 Z M 56 0 " clip-rule="nonzero"/></clipPath><clipPath id="7fed0c269f"><path d="M 56 0 C 25.070312 0 0 25.070312 0 56 C 0 86.929688 25.070312 112.003906 56 112.003906 C 86.929688 112.003906 112.003906 86.929688 112.003906 56 C 112.003906 25.070312 86.929688 0 56 0 Z M 56 0 " clip-rule="nonzero"/></clipPath><clipPath id="eabd3b155c"><path d="M 26.125 25.679688 L 85.933594 25.679688 L 85.933594 85.492188 L 26.125 85.492188 Z M 26.125 25.679688 " clip-rule="nonzero"/></clipPath></defs><g clip-path="url(#4f97605b07)"><g clip-path="url(#d0d93525ab)"><g clip-path="url(#7fed0c269f)"><rect x="-11.25" width="135" fill="#cd9a51" y="-11.25" height="134.999996" fill-opacity="1"/></g></g></g><g clip-path="url(#eabd3b155c)"><path fill="#171717" d="M 56 25.679688 C 39.566406 25.679688 26.125 39.125 26.125 55.558594 C 26.125 71.988281 39.566406 85.433594 56 85.433594 C 72.429688 85.433594 85.875 71.988281 85.875 55.558594 C 85.875 39.125 72.429688 25.679688 56 25.679688 Z M 56 79.457031 C 42.855469 79.457031 32.097656 68.703125 32.097656 55.558594 C 32.097656 42.410156 42.855469 31.65625 56 31.65625 C 69.144531 31.65625 79.902344 42.410156 79.902344 55.558594 C 79.902344 68.703125 69.144531 79.457031 56 79.457031 Z M 56 79.457031 " fill-opacity="1" fill-rule="nonzero"/></g><path fill="#171717" d="M 65.859375 56.453125 L 58.988281 63.324219 L 58.988281 40.621094 C 58.988281 38.828125 57.792969 37.632812 56 37.632812 C 54.207031 37.632812 53.011719 38.828125 53.011719 40.621094 L 53.011719 63.324219 L 46.140625 56.453125 C 44.945312 55.257812 43.152344 55.257812 41.957031 56.453125 C 40.761719 57.648438 40.761719 59.441406 41.957031 60.636719 L 53.90625 72.585938 C 55.402344 74.082031 57.492188 73.183594 58.09375 72.585938 L 70.042969 60.636719 C 71.238281 59.441406 71.238281 57.648438 70.042969 56.453125 C 68.847656 55.257812 66.753906 55.257812 65.859375 56.453125 Z M 65.859375 56.453125 " fill-opacity="1" fill-rule="nonzero"/></svg>