<svg xmlns="http://www.w3.org/2000/svg" xmlns:xlink="http://www.w3.org/1999/xlink" width="150" zoomAndPan="magnify" viewBox="0 0 112.5 112.499997" height="150" preserveAspectRatio="xMidYMid meet" version="1.0"><defs><clipPath id="5580d6f6fb"><path d="M 0 0 L 112.003906 0 L 112.003906 112.003906 L 0 112.003906 Z M 0 0 " clip-rule="nonzero"/></clipPath><clipPath id="4cde5d8091"><path d="M 56 0 C 25.070312 0 0 25.070312 0 56 C 0 86.929688 25.070312 112.003906 56 112.003906 C 86.929688 112.003906 112.003906 86.929688 112.003906 56 C 112.003906 25.070312 86.929688 0 56 0 Z M 56 0 " clip-rule="nonzero"/></clipPath><clipPath id="771b8ad1be"><path d="M 56 0 C 25.070312 0 0 25.070312 0 56 C 0 86.929688 25.070312 112.003906 56 112.003906 C 86.929688 112.003906 112.003906 86.929688 112.003906 56 C 112.003906 25.070312 86.929688 0 56 0 Z M 56 0 " clip-rule="nonzero"/></clipPath><clipPath id="b93ad79705"><path d="M 44.503906 37.570312 L 82.382812 37.570312 L 82.382812 46.890625 L 44.503906 46.890625 Z M 44.503906 37.570312 " clip-rule="nonzero"/></clipPath><clipPath id="83e4eedd11"><path d="M 32.429688 37.632812 L 41.515625 37.632812 L 41.515625 46.890625 L 32.429688 46.890625 Z M 32.429688 37.632812 " clip-rule="nonzero"/></clipPath><clipPath id="76edc087f8"><path d="M 44.503906 51.371094 L 82.382812 51.371094 L 82.382812 60.929688 L 44.503906 60.929688 Z M 44.503906 51.371094 " clip-rule="nonzero"/></clipPath><clipPath id="cb0dfec862"><path d="M 32.429688 51.371094 L 41.515625 51.371094 L 41.515625 60.929688 L 32.429688 60.929688 Z M 32.429688 51.371094 " clip-rule="nonzero"/></clipPath><clipPath id="7209ef025a"><path d="M 44.503906 65.410156 L 82.382812 65.410156 L 82.382812 74.753906 L 44.503906 74.753906 Z M 44.503906 65.410156 " clip-rule="nonzero"/></clipPath><clipPath id="e15d3d41dc"><path d="M 32.429688 65.410156 L 41.515625 65.410156 L 41.515625 74.667969 L 32.429688 74.667969 Z M 32.429688 65.410156 " clip-rule="nonzero"/></clipPath></defs><g clip-path="url(#5580d6f6fb)"><g clip-path="url(#4cde5d8091)"><g clip-path="url(#771b8ad1be)"><rect x="-11.25" width="135" fill="#cd9a51" y="-11.25" height="134.999996" fill-opacity="1"/></g></g></g><g clip-path="url(#b93ad79705)"><path fill="#171717" d="M 49.339844 37.570312 L 77.691406 37.570312 C 77.996094 37.570312 78.296875 37.601562 78.597656 37.660156 C 78.894531 37.722656 79.1875 37.808594 79.46875 37.925781 C 79.75 38.042969 80.019531 38.1875 80.273438 38.355469 C 80.527344 38.523438 80.761719 38.71875 80.976562 38.933594 C 81.191406 39.148438 81.386719 39.382812 81.554688 39.636719 C 81.722656 39.890625 81.867188 40.160156 81.984375 40.441406 C 82.101562 40.722656 82.1875 41.015625 82.25 41.3125 C 82.308594 41.613281 82.339844 41.914062 82.339844 42.21875 C 82.339844 42.523438 82.308594 42.828125 82.25 43.125 C 82.1875 43.425781 82.101562 43.714844 81.984375 44 C 81.867188 44.28125 81.722656 44.546875 81.554688 44.800781 C 81.386719 45.054688 81.191406 45.289062 80.976562 45.503906 C 80.761719 45.722656 80.527344 45.914062 80.273438 46.085938 C 80.019531 46.253906 79.75 46.398438 79.46875 46.511719 C 79.1875 46.628906 78.894531 46.71875 78.597656 46.777344 C 78.296875 46.835938 77.996094 46.867188 77.691406 46.867188 L 49.339844 46.867188 C 49.035156 46.867188 48.734375 46.835938 48.433594 46.777344 C 48.136719 46.71875 47.84375 46.628906 47.5625 46.511719 C 47.28125 46.398438 47.011719 46.253906 46.757812 46.085938 C 46.503906 45.914062 46.269531 45.722656 46.054688 45.503906 C 45.839844 45.289062 45.648438 45.054688 45.476562 44.800781 C 45.308594 44.546875 45.164062 44.28125 45.046875 44 C 44.929688 43.714844 44.84375 43.425781 44.785156 43.125 C 44.722656 42.828125 44.695312 42.523438 44.695312 42.21875 C 44.695312 41.914062 44.722656 41.613281 44.785156 41.3125 C 44.84375 41.015625 44.929688 40.722656 45.046875 40.441406 C 45.164062 40.160156 45.308594 39.890625 45.476562 39.636719 C 45.648438 39.382812 45.839844 39.148438 46.054688 38.933594 C 46.269531 38.71875 46.503906 38.523438 46.757812 38.355469 C 47.011719 38.1875 47.28125 38.042969 47.5625 37.925781 C 47.84375 37.808594 48.136719 37.722656 48.433594 37.660156 C 48.734375 37.601562 49.035156 37.570312 49.339844 37.570312 Z M 49.339844 37.570312 " fill-opacity="1" fill-rule="nonzero"/></g><g clip-path="url(#83e4eedd11)"><path fill="#171717" d="M 36.960938 37.6875 C 37.257812 37.6875 37.554688 37.71875 37.84375 37.773438 C 38.136719 37.832031 38.421875 37.917969 38.695312 38.03125 C 38.96875 38.148438 39.230469 38.289062 39.476562 38.453125 C 39.726562 38.617188 39.953125 38.804688 40.164062 39.015625 C 40.375 39.226562 40.5625 39.457031 40.730469 39.703125 C 40.894531 39.949219 41.035156 40.210938 41.148438 40.484375 C 41.261719 40.761719 41.347656 41.042969 41.40625 41.335938 C 41.464844 41.628906 41.492188 41.921875 41.492188 42.21875 C 41.492188 42.519531 41.464844 42.8125 41.40625 43.101562 C 41.347656 43.394531 41.261719 43.679688 41.148438 43.953125 C 41.035156 44.226562 40.894531 44.488281 40.730469 44.738281 C 40.5625 44.984375 40.375 45.214844 40.164062 45.425781 C 39.953125 45.632812 39.726562 45.820312 39.476562 45.988281 C 39.230469 46.152344 38.96875 46.292969 38.695312 46.40625 C 38.421875 46.519531 38.136719 46.605469 37.84375 46.664062 C 37.554688 46.722656 37.257812 46.75 36.960938 46.75 C 36.664062 46.75 36.371094 46.722656 36.078125 46.664062 C 35.785156 46.605469 35.503906 46.519531 35.226562 46.40625 C 34.953125 46.292969 34.691406 46.152344 34.445312 45.988281 C 34.195312 45.820312 33.96875 45.632812 33.757812 45.425781 C 33.546875 45.214844 33.359375 44.984375 33.195312 44.738281 C 33.027344 44.488281 32.890625 44.226562 32.773438 43.953125 C 32.660156 43.679688 32.574219 43.394531 32.515625 43.101562 C 32.460938 42.8125 32.429688 42.519531 32.429688 42.21875 C 32.429688 41.921875 32.460938 41.628906 32.515625 41.335938 C 32.574219 41.042969 32.660156 40.761719 32.773438 40.484375 C 32.890625 40.210938 33.027344 39.949219 33.195312 39.703125 C 33.359375 39.457031 33.546875 39.226562 33.757812 39.015625 C 33.96875 38.804688 34.195312 38.617188 34.445312 38.453125 C 34.691406 38.289062 34.953125 38.148438 35.226562 38.03125 C 35.503906 37.917969 35.785156 37.832031 36.078125 37.773438 C 36.371094 37.71875 36.664062 37.6875 36.960938 37.6875 Z M 36.960938 37.6875 " fill-opacity="1" fill-rule="nonzero"/></g><g clip-path="url(#76edc087f8)"><path fill="#171717" d="M 49.339844 51.515625 L 77.691406 51.515625 C 77.996094 51.515625 78.296875 51.542969 78.597656 51.605469 C 78.894531 51.664062 79.1875 51.75 79.46875 51.867188 C 79.75 51.984375 80.019531 52.128906 80.273438 52.296875 C 80.527344 52.46875 80.761719 52.660156 80.976562 52.875 C 81.191406 53.089844 81.386719 53.324219 81.554688 53.582031 C 81.722656 53.832031 81.867188 54.101562 81.984375 54.382812 C 82.101562 54.664062 82.1875 54.957031 82.25 55.253906 C 82.308594 55.554688 82.339844 55.855469 82.339844 56.160156 C 82.339844 56.464844 82.308594 56.769531 82.25 57.070312 C 82.1875 57.367188 82.101562 57.65625 81.984375 57.941406 C 81.867188 58.222656 81.722656 58.488281 81.554688 58.742188 C 81.386719 58.996094 81.191406 59.230469 80.976562 59.449219 C 80.761719 59.664062 80.527344 59.855469 80.273438 60.027344 C 80.019531 60.195312 79.75 60.339844 79.46875 60.457031 C 79.1875 60.570312 78.894531 60.660156 78.597656 60.71875 C 78.296875 60.78125 77.996094 60.808594 77.691406 60.808594 L 49.339844 60.808594 C 49.035156 60.808594 48.734375 60.78125 48.433594 60.71875 C 48.136719 60.660156 47.84375 60.570312 47.5625 60.457031 C 47.28125 60.339844 47.011719 60.195312 46.757812 60.027344 C 46.503906 59.855469 46.269531 59.664062 46.054688 59.449219 C 45.839844 59.230469 45.648438 58.996094 45.476562 58.742188 C 45.308594 58.488281 45.164062 58.222656 45.046875 57.941406 C 44.929688 57.65625 44.84375 57.367188 44.785156 57.070312 C 44.722656 56.769531 44.695312 56.464844 44.695312 56.160156 C 44.695312 55.855469 44.722656 55.554688 44.785156 55.253906 C 44.84375 54.957031 44.929688 54.664062 45.046875 54.382812 C 45.164062 54.101562 45.308594 53.832031 45.476562 53.582031 C 45.648438 53.324219 45.839844 53.089844 46.054688 52.875 C 46.269531 52.660156 46.503906 52.46875 46.757812 52.296875 C 47.011719 52.128906 47.28125 51.984375 47.5625 51.867188 C 47.84375 51.75 48.136719 51.664062 48.433594 51.605469 C 48.734375 51.542969 49.035156 51.515625 49.339844 51.515625 Z M 49.339844 51.515625 " fill-opacity="1" fill-rule="nonzero"/></g><g clip-path="url(#cb0dfec862)"><path fill="#171717" d="M 36.960938 51.628906 C 37.257812 51.628906 37.554688 51.660156 37.84375 51.71875 C 38.136719 51.773438 38.421875 51.863281 38.695312 51.976562 C 38.96875 52.089844 39.230469 52.230469 39.476562 52.394531 C 39.726562 52.558594 39.953125 52.746094 40.164062 52.957031 C 40.375 53.167969 40.5625 53.398438 40.730469 53.644531 C 40.894531 53.890625 41.035156 54.152344 41.148438 54.425781 C 41.261719 54.703125 41.347656 54.984375 41.40625 55.277344 C 41.464844 55.570312 41.492188 55.863281 41.492188 56.160156 C 41.492188 56.460938 41.464844 56.753906 41.40625 57.046875 C 41.347656 57.339844 41.261719 57.621094 41.148438 57.894531 C 41.035156 58.171875 40.894531 58.429688 40.730469 58.679688 C 40.5625 58.925781 40.375 59.15625 40.164062 59.367188 C 39.953125 59.574219 39.726562 59.765625 39.476562 59.929688 C 39.230469 60.09375 38.96875 60.234375 38.695312 60.347656 C 38.421875 60.460938 38.136719 60.546875 37.84375 60.605469 C 37.554688 60.664062 37.257812 60.695312 36.960938 60.695312 C 36.664062 60.695312 36.371094 60.664062 36.078125 60.605469 C 35.785156 60.546875 35.503906 60.460938 35.226562 60.347656 C 34.953125 60.234375 34.691406 60.09375 34.445312 59.929688 C 34.195312 59.765625 33.96875 59.574219 33.757812 59.367188 C 33.546875 59.15625 33.359375 58.925781 33.195312 58.679688 C 33.027344 58.429688 32.890625 58.171875 32.773438 57.894531 C 32.660156 57.621094 32.574219 57.339844 32.515625 57.046875 C 32.460938 56.753906 32.429688 56.460938 32.429688 56.160156 C 32.429688 55.863281 32.460938 55.570312 32.515625 55.277344 C 32.574219 54.984375 32.660156 54.703125 32.773438 54.425781 C 32.890625 54.152344 33.027344 53.890625 33.195312 53.644531 C 33.359375 53.398438 33.546875 53.167969 33.757812 52.957031 C 33.96875 52.746094 34.195312 52.558594 34.445312 52.394531 C 34.691406 52.230469 34.953125 52.089844 35.226562 51.976562 C 35.503906 51.863281 35.785156 51.773438 36.078125 51.71875 C 36.371094 51.660156 36.664062 51.628906 36.960938 51.628906 Z M 36.960938 51.628906 " fill-opacity="1" fill-rule="nonzero"/></g><g clip-path="url(#7209ef025a)"><path fill="#171717" d="M 49.339844 65.457031 L 77.691406 65.457031 C 77.996094 65.457031 78.296875 65.484375 78.597656 65.546875 C 78.894531 65.605469 79.1875 65.695312 79.46875 65.8125 C 79.75 65.925781 80.019531 66.070312 80.273438 66.238281 C 80.527344 66.410156 80.761719 66.601562 80.976562 66.816406 C 81.191406 67.035156 81.386719 67.269531 81.554688 67.523438 C 81.722656 67.773438 81.867188 68.042969 81.984375 68.324219 C 82.101562 68.605469 82.1875 68.898438 82.25 69.199219 C 82.308594 69.496094 82.339844 69.796875 82.339844 70.105469 C 82.339844 70.410156 82.308594 70.710938 82.25 71.011719 C 82.1875 71.308594 82.101562 71.601562 81.984375 71.882812 C 81.867188 72.164062 81.722656 72.429688 81.554688 72.6875 C 81.386719 72.9375 81.191406 73.175781 80.976562 73.390625 C 80.761719 73.605469 80.527344 73.800781 80.273438 73.96875 C 80.019531 74.136719 79.75 74.28125 79.46875 74.398438 C 79.1875 74.515625 78.894531 74.601562 78.597656 74.664062 C 78.296875 74.722656 77.996094 74.75 77.691406 74.75 L 49.339844 74.75 C 49.035156 74.75 48.734375 74.722656 48.433594 74.664062 C 48.136719 74.601562 47.84375 74.515625 47.5625 74.398438 C 47.28125 74.28125 47.011719 74.136719 46.757812 73.96875 C 46.503906 73.800781 46.269531 73.605469 46.054688 73.390625 C 45.839844 73.175781 45.648438 72.9375 45.476562 72.6875 C 45.308594 72.429688 45.164062 72.164062 45.046875 71.882812 C 44.929688 71.601562 44.84375 71.308594 44.785156 71.011719 C 44.722656 70.710938 44.695312 70.410156 44.695312 70.105469 C 44.695312 69.796875 44.722656 69.496094 44.785156 69.199219 C 44.84375 68.898438 44.929688 68.605469 45.046875 68.324219 C 45.164062 68.042969 45.308594 67.773438 45.476562 67.523438 C 45.648438 67.269531 45.839844 67.035156 46.054688 66.816406 C 46.269531 66.601562 46.503906 66.410156 46.757812 66.238281 C 47.011719 66.070312 47.28125 65.925781 47.5625 65.8125 C 47.84375 65.695312 48.136719 65.605469 48.433594 65.546875 C 48.734375 65.484375 49.035156 65.457031 49.339844 65.457031 Z M 49.339844 65.457031 " fill-opacity="1" fill-rule="nonzero"/></g><g clip-path="url(#e15d3d41dc)"><path fill="#171717" d="M 36.960938 65.574219 C 37.257812 65.574219 37.554688 65.601562 37.84375 65.660156 C 38.136719 65.71875 38.421875 65.804688 38.695312 65.917969 C 38.96875 66.03125 39.230469 66.171875 39.476562 66.335938 C 39.726562 66.5 39.953125 66.6875 40.164062 66.898438 C 40.375 67.109375 40.5625 67.339844 40.730469 67.585938 C 40.894531 67.832031 41.035156 68.09375 41.148438 68.371094 C 41.261719 68.644531 41.347656 68.929688 41.40625 69.21875 C 41.464844 69.511719 41.492188 69.804688 41.492188 70.105469 C 41.492188 70.402344 41.464844 70.695312 41.40625 70.988281 C 41.347656 71.28125 41.261719 71.5625 41.148438 71.835938 C 41.035156 72.113281 40.894531 72.375 40.730469 72.621094 C 40.5625 72.867188 40.375 73.097656 40.164062 73.308594 C 39.953125 73.519531 39.726562 73.707031 39.476562 73.871094 C 39.230469 74.035156 38.96875 74.175781 38.695312 74.289062 C 38.421875 74.40625 38.136719 74.488281 37.84375 74.546875 C 37.554688 74.605469 37.257812 74.636719 36.960938 74.636719 C 36.664062 74.636719 36.371094 74.605469 36.078125 74.546875 C 35.785156 74.488281 35.503906 74.40625 35.226562 74.289062 C 34.953125 74.175781 34.691406 74.035156 34.445312 73.871094 C 34.195312 73.707031 33.96875 73.519531 33.757812 73.308594 C 33.546875 73.097656 33.359375 72.867188 33.195312 72.621094 C 33.027344 72.375 32.890625 72.113281 32.773438 71.835938 C 32.660156 71.5625 32.574219 71.28125 32.515625 70.988281 C 32.460938 70.695312 32.429688 70.402344 32.429688 70.105469 C 32.429688 69.804688 32.460938 69.511719 32.515625 69.21875 C 32.574219 68.929688 32.660156 68.644531 32.773438 68.371094 C 32.890625 68.09375 33.027344 67.832031 33.195312 67.585938 C 33.359375 67.339844 33.546875 67.109375 33.757812 66.898438 C 33.96875 66.6875 34.195312 66.5 34.445312 66.335938 C 34.691406 66.171875 34.953125 66.03125 35.226562 65.917969 C 35.503906 65.804688 35.785156 65.71875 36.078125 65.660156 C 36.371094 65.601562 36.664062 65.574219 36.960938 65.574219 Z M 36.960938 65.574219 " fill-opacity="1" fill-rule="nonzero"/></g></svg>