<svg xmlns="http://www.w3.org/2000/svg" xmlns:xlink="http://www.w3.org/1999/xlink" width="150" zoomAndPan="magnify" viewBox="0 0 112.5 112.499997" height="150" preserveAspectRatio="xMidYMid meet" version="1.0"><defs><clipPath id="97c7dcde65"><path d="M 0 0 L 112.003906 0 L 112.003906 112.003906 L 0 112.003906 Z M 0 0 " clip-rule="nonzero"/></clipPath><clipPath id="cd28ef1bfe"><path d="M 56 0 C 25.070312 0 0 25.070312 0 56 C 0 86.929688 25.070312 112.003906 56 112.003906 C 86.929688 112.003906 112.003906 86.929688 112.003906 56 C 112.003906 25.070312 86.929688 0 56 0 Z M 56 0 " clip-rule="nonzero"/></clipPath><clipPath id="bf6fd46384"><path d="M 56 0 C 25.070312 0 0 25.070312 0 56 C 0 86.929688 25.070312 112.003906 56 112.003906 C 86.929688 112.003906 112.003906 86.929688 112.003906 56 C 112.003906 25.070312 86.929688 0 56 0 Z M 56 0 " clip-rule="nonzero"/></clipPath><clipPath id="571b954771"><path d="M 30.582031 36.046875 L 81.429688 36.046875 L 81.429688 68 L 30.582031 68 Z M 30.582031 36.046875 " clip-rule="nonzero"/></clipPath><clipPath id="f734dc3418"><path d="M 33.75 72 L 78.253906 72 L 78.253906 76.371094 L 33.75 76.371094 Z M 33.75 72 " clip-rule="nonzero"/></clipPath></defs><g clip-path="url(#97c7dcde65)"><g clip-path="url(#cd28ef1bfe)"><g clip-path="url(#bf6fd46384)"><rect x="-11.25" width="135" fill="#cd9a51" y="-11.25" height="134.999996" fill-opacity="1"/></g></g></g><g clip-path="url(#571b954771)"><path fill="#171717" d="M 33.769531 67.804688 L 30.59375 36.046875 L 45.414062 49.621094 L 56 36.046875 L 66.585938 49.621094 L 81.40625 36.046875 L 78.230469 67.804688 Z M 45.933594 55.835938 L 56 42.933594 L 66.066406 55.835938 L 76.089844 46.660156 L 74.398438 63.570312 L 37.601562 63.570312 L 35.910156 46.660156 Z M 45.933594 55.835938 " fill-opacity="1" fill-rule="evenodd"/></g><g clip-path="url(#f734dc3418)"><path fill="#171717" d="M 78.230469 76.273438 L 78.230469 72.039062 L 33.769531 72.039062 L 33.769531 76.273438 Z M 78.230469 76.273438 " fill-opacity="1" fill-rule="nonzero"/></g></svg>