<svg xmlns="http://www.w3.org/2000/svg" xmlns:xlink="http://www.w3.org/1999/xlink" width="150" zoomAndPan="magnify" viewBox="0 0 112.5 112.499997" height="150" preserveAspectRatio="xMidYMid meet" version="1.0"><defs><clipPath id="d6e96cdb0b"><path d="M 0 0 L 112.003906 0 L 112.003906 112.003906 L 0 112.003906 Z M 0 0 " clip-rule="nonzero"/></clipPath><clipPath id="5f6596584d"><path d="M 56 0 C 25.070312 0 0 25.070312 0 56 C 0 86.929688 25.070312 112.003906 56 112.003906 C 86.929688 112.003906 112.003906 86.929688 112.003906 56 C 112.003906 25.070312 86.929688 0 56 0 Z M 56 0 " clip-rule="nonzero"/></clipPath><clipPath id="96840011ce"><path d="M 56 0 C 25.070312 0 0 25.070312 0 56 C 0 86.929688 25.070312 112.003906 56 112.003906 C 86.929688 112.003906 112.003906 86.929688 112.003906 56 C 112.003906 25.070312 86.929688 0 56 0 Z M 56 0 " clip-rule="nonzero"/></clipPath><clipPath id="838aaff8eb"><path d="M 30.070312 26.28125 L 81.835938 26.28125 L 81.835938 85.71875 L 30.070312 85.71875 Z M 30.070312 26.28125 " clip-rule="nonzero"/></clipPath></defs><g clip-path="url(#d6e96cdb0b)"><g clip-path="url(#5f6596584d)"><g clip-path="url(#96840011ce)"><rect x="-11.25" width="135" fill="#cd9a51" y="-11.25" height="134.999996" fill-opacity="1"/></g></g></g><g clip-path="url(#838aaff8eb)"><path fill="#171717" d="M 56.09375 31.539062 C 56.242188 31.539062 56.375 31.609375 56.542969 31.734375 C 59.433594 33.925781 62.636719 35.652344 66.066406 36.867188 C 69.265625 38.003906 72.78125 38.734375 76.515625 39.042969 L 76.523438 39.042969 C 76.769531 39.066406 76.964844 39.273438 76.964844 39.53125 C 77.046875 45.128906 76.261719 50.773438 74.628906 56.308594 C 71.710938 66.195312 65.96875 74.042969 57.5625 79.628906 C 56.339844 80.441406 55.519531 80.488281 54.308594 79.816406 C 43.289062 73.703125 37.078125 64.011719 35.316406 50.183594 C 34.894531 46.882812 34.757812 43.496094 34.894531 39.832031 C 34.910156 39.410156 35.226562 39.0625 35.644531 39.007812 C 39.667969 38.460938 43.933594 37.78125 47.992188 36 C 50.519531 34.890625 52.941406 33.535156 55.1875 31.980469 C 55.625 31.675781 55.875 31.539062 56.09375 31.539062 Z M 81.683594 39.234375 C 81.65625 38.289062 81.589844 37.289062 81.148438 36.410156 C 80.632812 35.382812 79.742188 34.6875 78.429688 34.273438 C 77.367188 33.945312 76.191406 33.851562 75.15625 33.765625 L 75.136719 33.765625 C 70.125 33.363281 65.238281 31.621094 61.007812 28.722656 C 60.875 28.632812 60.742188 28.542969 60.609375 28.449219 C 59.316406 27.554688 57.976562 26.621094 56.34375 26.542969 C 54.511719 26.453125 52.898438 27.503906 51.472656 28.429688 C 51.355469 28.503906 51.238281 28.578125 51.121094 28.65625 C 47.828125 30.773438 44.238281 32.304688 40.445312 33.199219 C 38.777344 33.59375 36.992188 33.859375 34.816406 34.035156 C 32.761719 34.203125 31.316406 35.136719 30.644531 36.734375 C 30.171875 37.847656 30.109375 39.042969 30.082031 40.273438 C 30.058594 41.210938 30.054688 42.152344 30.066406 43.070312 C 30.199219 53.652344 32.417969 62.585938 36.664062 69.625 C 38.34375 72.410156 40.4375 75.035156 42.882812 77.4375 C 45.167969 79.679688 47.769531 81.734375 50.617188 83.539062 C 52.195312 84.542969 53.914062 85.460938 55.765625 85.460938 C 55.875 85.460938 55.984375 85.457031 56.09375 85.453125 C 57.71875 85.355469 59.175781 84.542969 60.507812 83.675781 C 63.949219 81.433594 67.101562 78.621094 69.882812 75.304688 C 72.597656 72.066406 74.898438 68.429688 76.710938 64.496094 C 80.214844 56.894531 81.933594 48.160156 81.683594 39.234375 " fill-opacity="1" fill-rule="nonzero"/></g><path fill="#171717" d="M 67 50.914062 C 66.957031 51.199219 66.742188 51.417969 66.542969 51.621094 C 62.363281 55.796875 58.195312 59.980469 54.019531 64.160156 C 53.664062 64.515625 53.21875 64.898438 52.730469 64.789062 C 52.460938 64.726562 52.246094 64.519531 52.054688 64.324219 C 49.800781 62.070312 47.550781 59.820312 45.296875 57.566406 C 45.035156 57.304688 44.757812 57 44.757812 56.628906 C 44.761719 56.265625 45.03125 55.96875 45.285156 55.714844 C 45.964844 55.023438 46.648438 54.339844 47.328125 53.648438 C 47.597656 53.375 47.910156 53.082031 48.296875 53.066406 C 48.722656 53.046875 49.078125 53.371094 49.378906 53.675781 C 50.570312 54.871094 51.765625 56.066406 52.957031 57.257812 C 56.113281 54.09375 59.269531 50.929688 62.425781 47.765625 C 62.699219 47.492188 63.007812 47.207031 63.386719 47.191406 C 63.808594 47.175781 64.15625 47.5 64.453125 47.796875 C 65.113281 48.464844 65.773438 49.132812 66.4375 49.800781 C 66.742188 50.109375 67.070312 50.488281 67 50.914062 Z M 73.152344 42.976562 C 73.144531 42.503906 72.785156 42.101562 72.308594 42.0625 C 72.308594 42.058594 72.308594 42.058594 72.304688 42.058594 C 66.644531 41.59375 61.378906 39.898438 56.714844 36.363281 C 56.050781 35.863281 55.566406 36.15625 55.003906 36.542969 C 53.222656 37.777344 51.351562 38.824219 49.375 39.691406 C 46.230469 41.066406 42.917969 41.605469 39.472656 42.070312 C 39.019531 42.128906 38.679688 42.503906 38.660156 42.957031 C 38.539062 45.925781 38.636719 48.726562 38.988281 51.515625 C 40.351562 62.226562 45.210938 70.394531 54.347656 75.464844 C 55.496094 76.101562 56.375 76.039062 57.496094 75.292969 C 64.261719 70.800781 68.890625 64.550781 71.273438 56.46875 C 72.566406 52.082031 73.222656 47.585938 73.152344 42.976562 " fill-opacity="1" fill-rule="nonzero"/></svg>