<svg xmlns="http://www.w3.org/2000/svg" xmlns:xlink="http://www.w3.org/1999/xlink" width="500" zoomAndPan="magnify" viewBox="0 0 375 374.999991" height="500" preserveAspectRatio="xMidYMid meet" version="1.0"><defs><clipPath id="4b77f5d82e"><path d="M 187.5 0 C 83.945312 0 0 83.945312 0 187.5 C 0 291.054688 83.945312 375 187.5 375 C 291.054688 375 375 291.054688 375 187.5 C 375 83.945312 291.054688 0 187.5 0 Z M 187.5 0 " clip-rule="nonzero"/></clipPath><clipPath id="4d46a073f9"><path d="M 0 0 L 375 0 L 375 375 L 0 375 Z M 0 0 " clip-rule="nonzero"/></clipPath><clipPath id="e6625e7bcf"><path d="M 187.5 0 C 83.945312 0 0 83.945312 0 187.5 C 0 291.054688 83.945312 375 187.5 375 C 291.054688 375 375 291.054688 375 187.5 C 375 83.945312 291.054688 0 187.5 0 Z M 187.5 0 " clip-rule="nonzero"/></clipPath><clipPath id="c8467a0b8f"><rect x="0" width="375" y="0" height="375"/></clipPath><clipPath id="8c3252ace0"><path d="M 106.109375 96.816406 L 268.859375 96.816406 L 268.859375 278.316406 L 106.109375 278.316406 Z M 106.109375 96.816406 " clip-rule="nonzero"/></clipPath></defs><g clip-path="url(#4b77f5d82e)"><g transform="matrix(1, 0, 0, 1, 0, 0)"><g clip-path="url(#c8467a0b8f)"><g clip-path="url(#4d46a073f9)"><g clip-path="url(#e6625e7bcf)"><rect x="-82.5" width="540" fill="#f47253" height="539.999987" y="-82.499998" fill-opacity="1"/></g></g></g></g></g><g clip-path="url(#8c3252ace0)"><path fill="#171717" d="M 268.859375 162.992188 L 268.859375 178.5625 C 268.859375 185.71875 263.066406 191.539062 255.945312 191.539062 C 248.820312 191.539062 243.027344 185.71875 243.027344 178.5625 L 243.027344 167.21875 C 243.019531 167.089844 242.953125 166.980469 242.953125 166.851562 C 242.953125 135.386719 218.035156 109.789062 187.410156 109.789062 C 157.488281 109.789062 133.082031 134.238281 131.96875 164.703125 L 131.96875 181.160156 C 131.96875 189.746094 138.921875 196.730469 147.472656 196.730469 C 150.324219 196.730469 152.636719 199.054688 152.636719 201.921875 C 152.636719 204.789062 150.324219 207.109375 147.472656 207.109375 C 136.585938 207.109375 127.296875 200.292969 123.496094 190.699219 C 122.105469 191.214844 120.621094 191.539062 119.050781 191.539062 C 111.929688 191.542969 106.132812 185.71875 106.132812 178.566406 L 106.132812 162.992188 C 106.132812 155.839844 111.929688 150.019531 119.050781 150.019531 C 119.710938 150.019531 120.347656 150.117188 120.980469 150.214844 C 128.308594 119.617188 155.269531 96.816406 187.410156 96.816406 C 219.550781 96.816406 246.519531 119.625 253.839844 150.230469 C 254.527344 150.117188 255.222656 150.019531 255.945312 150.019531 C 263.066406 150.019531 268.859375 155.839844 268.859375 162.992188 Z M 230.003906 166.855469 C 230.003906 143.222656 210.933594 124.066406 187.40625 124.066406 C 163.882812 124.066406 144.816406 143.222656 144.816406 166.855469 C 144.816406 190.484375 163.882812 209.640625 187.40625 209.640625 C 210.933594 209.644531 230.003906 190.484375 230.003906 166.855469 Z M 229.8125 222.617188 L 214.644531 222.617188 C 211.269531 222.617188 208.105469 224.273438 206.175781 227.054688 L 195.570312 242.296875 C 191.425781 248.261719 182.617188 248.203125 178.550781 242.183594 L 168.402344 227.167969 C 166.480469 224.320312 163.277344 222.617188 159.851562 222.617188 L 144.960938 222.617188 C 125.78125 222.617188 110.234375 238.234375 110.234375 257.503906 L 110.234375 272.984375 C 110.234375 275.851562 112.546875 278.175781 115.402344 278.175781 L 259.371094 278.175781 C 262.222656 278.175781 264.539062 275.851562 264.539062 272.984375 L 264.539062 257.503906 C 264.539062 238.238281 248.988281 222.617188 229.8125 222.617188 Z M 229.8125 222.617188 " fill-opacity="1" fill-rule="nonzero"/></g></svg>