<svg xmlns="http://www.w3.org/2000/svg" xmlns:xlink="http://www.w3.org/1999/xlink" width="500" zoomAndPan="magnify" viewBox="0 0 375 374.999991" height="500" preserveAspectRatio="xMidYMid meet" version="1.0"><defs><clipPath id="beddd54600"><path d="M 187.5 0 C 83.945312 0 0 83.945312 0 187.5 C 0 291.054688 83.945312 375 187.5 375 C 291.054688 375 375 291.054688 375 187.5 C 375 83.945312 291.054688 0 187.5 0 Z M 187.5 0 " clip-rule="nonzero"/></clipPath><clipPath id="4897926ec0"><path d="M 0 0 L 375 0 L 375 375 L 0 375 Z M 0 0 " clip-rule="nonzero"/></clipPath><clipPath id="e297cfaa1a"><path d="M 187.5 0 C 83.945312 0 0 83.945312 0 187.5 C 0 291.054688 83.945312 375 187.5 375 C 291.054688 375 375 291.054688 375 187.5 C 375 83.945312 291.054688 0 187.5 0 Z M 187.5 0 " clip-rule="nonzero"/></clipPath><clipPath id="6ba24af59f"><rect x="0" width="375" y="0" height="375"/></clipPath><clipPath id="39d0900fd1"><path d="M 87.464844 85.984375 L 287.714844 85.984375 L 287.714844 286.234375 L 87.464844 286.234375 Z M 87.464844 85.984375 " clip-rule="nonzero"/></clipPath></defs><g clip-path="url(#beddd54600)"><g transform="matrix(1, 0, 0, 1, 0, 0)"><g clip-path="url(#6ba24af59f)"><g clip-path="url(#4897926ec0)"><g clip-path="url(#e297cfaa1a)"><rect x="-82.5" width="540" fill="#f47253" height="539.999987" y="-82.499998" fill-opacity="1"/></g></g></g></g></g><g clip-path="url(#39d0900fd1)"><path fill="#171717" d="M 187.496094 85.984375 C 132.480469 85.984375 87.464844 130.996094 87.464844 186.015625 C 87.464844 241.03125 132.480469 286.046875 187.496094 286.046875 C 242.511719 286.046875 287.527344 241.03125 287.527344 186.015625 C 287.527344 130.996094 242.511719 85.984375 187.496094 85.984375 Z M 187.496094 266.039062 C 143.484375 266.039062 107.472656 230.027344 107.472656 186.015625 C 107.472656 142 143.484375 105.988281 187.496094 105.988281 C 231.511719 105.988281 267.519531 142 267.519531 186.015625 C 267.519531 230.027344 231.511719 266.039062 187.496094 266.039062 Z M 187.496094 266.039062 " fill-opacity="1" fill-rule="nonzero"/></g><path fill="#171717" d="M 220.507812 189.015625 L 197.5 212.023438 L 197.5 136 C 197.5 129.996094 193.5 125.996094 187.496094 125.996094 C 181.496094 125.996094 177.492188 129.996094 177.492188 136 L 177.492188 212.023438 L 154.484375 189.015625 C 150.484375 185.015625 144.484375 185.015625 140.480469 189.015625 C 136.480469 193.015625 136.480469 199.019531 140.480469 203.019531 L 180.492188 243.03125 C 185.496094 248.035156 192.496094 245.035156 194.5 243.03125 L 234.511719 203.019531 C 238.511719 199.019531 238.511719 193.015625 234.511719 189.015625 C 230.507812 185.015625 223.507812 185.015625 220.507812 189.015625 Z M 220.507812 189.015625 " fill-opacity="1" fill-rule="nonzero"/></svg>