<svg xmlns="http://www.w3.org/2000/svg" xmlns:xlink="http://www.w3.org/1999/xlink" width="500" zoomAndPan="magnify" viewBox="0 0 375 374.999991" height="500" preserveAspectRatio="xMidYMid meet" version="1.0"><defs><clipPath id="2306d20903"><path d="M 187.5 0 C 83.945312 0 0 83.945312 0 187.5 C 0 291.054688 83.945312 375 187.5 375 C 291.054688 375 375 291.054688 375 187.5 C 375 83.945312 291.054688 0 187.5 0 Z M 187.5 0 " clip-rule="nonzero"/></clipPath><clipPath id="06f0dfabcf"><path d="M 0 0 L 375 0 L 375 375 L 0 375 Z M 0 0 " clip-rule="nonzero"/></clipPath><clipPath id="c1079f9293"><path d="M 187.5 0 C 83.945312 0 0 83.945312 0 187.5 C 0 291.054688 83.945312 375 187.5 375 C 291.054688 375 375 291.054688 375 187.5 C 375 83.945312 291.054688 0 187.5 0 Z M 187.5 0 " clip-rule="nonzero"/></clipPath><clipPath id="8b2adcedf0"><rect x="0" width="375" y="0" height="375"/></clipPath><clipPath id="3f70bdb5e5"><path d="M 149 125.792969 L 275.832031 125.792969 L 275.832031 157 L 149 157 Z M 149 125.792969 " clip-rule="nonzero"/></clipPath><clipPath id="2efdf907f6"><path d="M 108.582031 126 L 139 126 L 139 157 L 108.582031 157 Z M 108.582031 126 " clip-rule="nonzero"/></clipPath><clipPath id="3edc8c20be"><path d="M 149 172 L 275.832031 172 L 275.832031 204 L 149 204 Z M 149 172 " clip-rule="nonzero"/></clipPath><clipPath id="753627516b"><path d="M 108.582031 172 L 139 172 L 139 204 L 108.582031 204 Z M 108.582031 172 " clip-rule="nonzero"/></clipPath><clipPath id="222c88fcee"><path d="M 149 219 L 275.832031 219 L 275.832031 250.292969 L 149 250.292969 Z M 149 219 " clip-rule="nonzero"/></clipPath><clipPath id="231f8650e8"><path d="M 108.582031 219 L 139 219 L 139 250 L 108.582031 250 Z M 108.582031 219 " clip-rule="nonzero"/></clipPath></defs><g clip-path="url(#2306d20903)"><g transform="matrix(1, 0, 0, 1, 0, 0)"><g clip-path="url(#8b2adcedf0)"><g clip-path="url(#06f0dfabcf)"><g clip-path="url(#c1079f9293)"><rect x="-82.5" width="540" fill="#f47253" height="539.999987" y="-82.499998" fill-opacity="1"/></g></g></g></g></g><g clip-path="url(#3f70bdb5e5)"><path fill="#171717" d="M 165.203125 125.796875 L 260.117188 125.796875 C 261.140625 125.796875 262.152344 125.898438 263.152344 126.097656 C 264.15625 126.296875 265.128906 126.589844 266.074219 126.980469 C 267.015625 127.375 267.914062 127.851562 268.761719 128.421875 C 269.613281 128.988281 270.398438 129.632812 271.121094 130.355469 C 271.84375 131.078125 272.488281 131.863281 273.054688 132.714844 C 273.625 133.5625 274.101562 134.460938 274.492188 135.402344 C 274.886719 136.347656 275.179688 137.320312 275.378906 138.320312 C 275.578125 139.324219 275.679688 140.335938 275.679688 141.359375 C 275.679688 142.378906 275.578125 143.390625 275.378906 144.394531 C 275.179688 145.394531 274.886719 146.367188 274.492188 147.3125 C 274.101562 148.257812 273.625 149.152344 273.054688 150.003906 C 272.488281 150.851562 271.84375 151.636719 271.121094 152.359375 C 270.398438 153.082031 269.613281 153.726562 268.761719 154.296875 C 267.914062 154.863281 267.015625 155.34375 266.074219 155.734375 C 265.128906 156.125 264.15625 156.417969 263.152344 156.617188 C 262.152344 156.816406 261.140625 156.917969 260.117188 156.917969 L 165.203125 156.917969 C 164.179688 156.917969 163.167969 156.816406 162.167969 156.617188 C 161.164062 156.417969 160.191406 156.125 159.246094 155.734375 C 158.304688 155.34375 157.40625 154.863281 156.558594 154.296875 C 155.707031 153.726562 154.921875 153.082031 154.199219 152.359375 C 153.476562 151.636719 152.832031 150.851562 152.265625 150.003906 C 151.695312 149.152344 151.21875 148.257812 150.828125 147.3125 C 150.4375 146.367188 150.140625 145.394531 149.941406 144.394531 C 149.742188 143.390625 149.640625 142.378906 149.640625 141.359375 C 149.640625 140.335938 149.742188 139.324219 149.941406 138.320312 C 150.140625 137.320312 150.4375 136.347656 150.828125 135.402344 C 151.21875 134.460938 151.695312 133.5625 152.265625 132.714844 C 152.832031 131.863281 153.476562 131.078125 154.199219 130.355469 C 154.921875 129.632812 155.707031 128.988281 156.558594 128.421875 C 157.40625 127.851562 158.304688 127.375 159.246094 126.980469 C 160.191406 126.589844 161.164062 126.296875 162.167969 126.097656 C 163.167969 125.898438 164.179688 125.796875 165.203125 125.796875 Z M 165.203125 125.796875 " fill-opacity="1" fill-rule="nonzero"/></g><g clip-path="url(#2efdf907f6)"><path fill="#171717" d="M 123.75 126.1875 C 124.75 126.1875 125.734375 126.285156 126.710938 126.476562 C 127.6875 126.671875 128.636719 126.960938 129.558594 127.339844 C 130.476562 127.722656 131.351562 128.191406 132.179688 128.742188 C 133.007812 129.296875 133.773438 129.925781 134.480469 130.628906 C 135.183594 131.335938 135.8125 132.101562 136.367188 132.929688 C 136.917969 133.757812 137.386719 134.632812 137.769531 135.550781 C 138.148438 136.472656 138.4375 137.421875 138.632812 138.398438 C 138.824219 139.375 138.921875 140.363281 138.921875 141.359375 C 138.921875 142.355469 138.824219 143.339844 138.632812 144.316406 C 138.4375 145.292969 138.148438 146.242188 137.769531 147.164062 C 137.386719 148.082031 136.917969 148.957031 136.367188 149.785156 C 135.8125 150.613281 135.183594 151.382812 134.480469 152.085938 C 133.773438 152.789062 133.007812 153.417969 132.179688 153.972656 C 131.351562 154.527344 130.476562 154.992188 129.558594 155.375 C 128.636719 155.753906 127.6875 156.042969 126.710938 156.238281 C 125.734375 156.433594 124.75 156.527344 123.75 156.527344 C 122.753906 156.527344 121.769531 156.433594 120.792969 156.238281 C 119.816406 156.042969 118.867188 155.753906 117.945312 155.375 C 117.027344 154.992188 116.152344 154.527344 115.324219 153.972656 C 114.496094 153.417969 113.730469 152.789062 113.023438 152.085938 C 112.320312 151.382812 111.691406 150.613281 111.136719 149.785156 C 110.585938 148.957031 110.117188 148.082031 109.734375 147.164062 C 109.355469 146.242188 109.066406 145.292969 108.871094 144.316406 C 108.679688 143.339844 108.582031 142.355469 108.582031 141.359375 C 108.582031 140.363281 108.679688 139.375 108.871094 138.398438 C 109.066406 137.421875 109.355469 136.472656 109.734375 135.550781 C 110.117188 134.632812 110.585938 133.757812 111.136719 132.929688 C 111.691406 132.101562 112.320312 131.335938 113.023438 130.628906 C 113.730469 129.925781 114.496094 129.296875 115.324219 128.742188 C 116.152344 128.191406 117.027344 127.722656 117.945312 127.339844 C 118.867188 126.960938 119.816406 126.671875 120.792969 126.476562 C 121.769531 126.285156 122.753906 126.1875 123.75 126.1875 Z M 123.75 126.1875 " fill-opacity="1" fill-rule="nonzero"/></g><g clip-path="url(#3edc8c20be)"><path fill="#171717" d="M 165.203125 172.476562 L 260.117188 172.476562 C 261.140625 172.476562 262.152344 172.578125 263.152344 172.777344 C 264.15625 172.976562 265.128906 173.269531 266.074219 173.664062 C 267.015625 174.054688 267.914062 174.53125 268.761719 175.101562 C 269.613281 175.667969 270.398438 176.3125 271.121094 177.035156 C 271.84375 177.757812 272.488281 178.542969 273.054688 179.394531 C 273.625 180.242188 274.101562 181.140625 274.492188 182.082031 C 274.886719 183.027344 275.179688 184 275.378906 185.003906 C 275.578125 186.003906 275.679688 187.015625 275.679688 188.039062 C 275.679688 189.058594 275.578125 190.070312 275.378906 191.074219 C 275.179688 192.074219 274.886719 193.046875 274.492188 193.992188 C 274.101562 194.9375 273.625 195.832031 273.054688 196.683594 C 272.488281 197.53125 271.84375 198.316406 271.121094 199.039062 C 270.398438 199.761719 269.613281 200.40625 268.761719 200.976562 C 267.914062 201.542969 267.015625 202.023438 266.074219 202.414062 C 265.128906 202.804688 264.15625 203.101562 263.152344 203.300781 C 262.152344 203.5 261.140625 203.597656 260.117188 203.597656 L 165.203125 203.597656 C 164.179688 203.597656 163.167969 203.5 162.167969 203.300781 C 161.164062 203.101562 160.191406 202.804688 159.246094 202.414062 C 158.304688 202.023438 157.40625 201.542969 156.558594 200.976562 C 155.707031 200.40625 154.921875 199.761719 154.199219 199.039062 C 153.476562 198.316406 152.832031 197.53125 152.265625 196.683594 C 151.695312 195.832031 151.21875 194.9375 150.828125 193.992188 C 150.4375 193.046875 150.140625 192.074219 149.941406 191.074219 C 149.742188 190.070312 149.640625 189.058594 149.640625 188.039062 C 149.640625 187.015625 149.742188 186.003906 149.941406 185.003906 C 150.140625 184 150.4375 183.027344 150.828125 182.082031 C 151.21875 181.140625 151.695312 180.242188 152.265625 179.394531 C 152.832031 178.542969 153.476562 177.757812 154.199219 177.035156 C 154.921875 176.3125 155.707031 175.667969 156.558594 175.101562 C 157.40625 174.53125 158.304688 174.054688 159.246094 173.664062 C 160.191406 173.269531 161.164062 172.976562 162.167969 172.777344 C 163.167969 172.578125 164.179688 172.476562 165.203125 172.476562 Z M 165.203125 172.476562 " fill-opacity="1" fill-rule="nonzero"/></g><g clip-path="url(#753627516b)"><path fill="#171717" d="M 123.75 172.867188 C 124.75 172.867188 125.734375 172.964844 126.710938 173.160156 C 127.6875 173.351562 128.636719 173.640625 129.558594 174.023438 C 130.476562 174.402344 131.351562 174.871094 132.179688 175.421875 C 133.007812 175.976562 133.773438 176.605469 134.480469 177.308594 C 135.183594 178.015625 135.8125 178.78125 136.367188 179.609375 C 136.917969 180.4375 137.386719 181.3125 137.769531 182.230469 C 138.148438 183.152344 138.4375 184.101562 138.632812 185.078125 C 138.824219 186.054688 138.921875 187.042969 138.921875 188.039062 C 138.921875 189.035156 138.824219 190.019531 138.632812 190.996094 C 138.4375 191.976562 138.148438 192.921875 137.769531 193.84375 C 137.386719 194.765625 136.917969 195.636719 136.367188 196.464844 C 135.8125 197.292969 135.183594 198.0625 134.480469 198.765625 C 133.773438 199.46875 133.007812 200.097656 132.179688 200.652344 C 131.351562 201.207031 130.476562 201.671875 129.558594 202.054688 C 128.636719 202.433594 127.6875 202.722656 126.710938 202.917969 C 125.734375 203.113281 124.75 203.210938 123.75 203.210938 C 122.753906 203.210938 121.769531 203.113281 120.792969 202.917969 C 119.816406 202.722656 118.867188 202.433594 117.945312 202.054688 C 117.027344 201.671875 116.152344 201.207031 115.324219 200.652344 C 114.496094 200.097656 113.730469 199.46875 113.023438 198.765625 C 112.320312 198.0625 111.691406 197.292969 111.136719 196.464844 C 110.585938 195.636719 110.117188 194.765625 109.734375 193.84375 C 109.355469 192.921875 109.066406 191.976562 108.871094 190.996094 C 108.679688 190.019531 108.582031 189.035156 108.582031 188.039062 C 108.582031 187.042969 108.679688 186.054688 108.871094 185.078125 C 109.066406 184.101562 109.355469 183.152344 109.734375 182.230469 C 110.117188 181.3125 110.585938 180.4375 111.136719 179.609375 C 111.691406 178.78125 112.320312 178.015625 113.023438 177.308594 C 113.730469 176.605469 114.496094 175.976562 115.324219 175.421875 C 116.152344 174.871094 117.027344 174.402344 117.945312 174.023438 C 118.867188 173.640625 119.816406 173.351562 120.792969 173.160156 C 121.769531 172.964844 122.753906 172.867188 123.75 172.867188 Z M 123.75 172.867188 " fill-opacity="1" fill-rule="nonzero"/></g><g clip-path="url(#222c88fcee)"><path fill="#171717" d="M 165.203125 219.15625 L 260.117188 219.15625 C 261.140625 219.15625 262.152344 219.257812 263.152344 219.457031 C 264.15625 219.65625 265.128906 219.953125 266.074219 220.34375 C 267.015625 220.734375 267.914062 221.210938 268.761719 221.78125 C 269.613281 222.347656 270.398438 222.992188 271.121094 223.714844 C 271.84375 224.4375 272.488281 225.222656 273.054688 226.074219 C 273.625 226.921875 274.101562 227.820312 274.492188 228.761719 C 274.886719 229.707031 275.179688 230.679688 275.378906 231.683594 C 275.578125 232.683594 275.679688 233.695312 275.679688 234.71875 C 275.679688 235.738281 275.578125 236.75 275.378906 237.753906 C 275.179688 238.753906 274.886719 239.730469 274.492188 240.671875 C 274.101562 241.617188 273.625 242.511719 273.054688 243.363281 C 272.488281 244.210938 271.84375 245 271.121094 245.722656 C 270.398438 246.441406 269.613281 247.089844 268.761719 247.65625 C 267.914062 248.222656 267.015625 248.703125 266.074219 249.09375 C 265.128906 249.484375 264.15625 249.78125 263.152344 249.980469 C 262.152344 250.179688 261.140625 250.277344 260.117188 250.277344 L 165.203125 250.277344 C 164.179688 250.277344 163.167969 250.179688 162.167969 249.980469 C 161.164062 249.78125 160.191406 249.484375 159.246094 249.09375 C 158.304688 248.703125 157.40625 248.222656 156.558594 247.65625 C 155.707031 247.089844 154.921875 246.441406 154.199219 245.722656 C 153.476562 245 152.832031 244.210938 152.265625 243.363281 C 151.695312 242.511719 151.21875 241.617188 150.828125 240.671875 C 150.4375 239.730469 150.140625 238.753906 149.941406 237.753906 C 149.742188 236.75 149.640625 235.738281 149.640625 234.71875 C 149.640625 233.695312 149.742188 232.683594 149.941406 231.683594 C 150.140625 230.679688 150.4375 229.707031 150.828125 228.761719 C 151.21875 227.820312 151.695312 226.921875 152.265625 226.074219 C 152.832031 225.222656 153.476562 224.4375 154.199219 223.714844 C 154.921875 222.992188 155.707031 222.347656 156.558594 221.78125 C 157.40625 221.210938 158.304688 220.734375 159.246094 220.34375 C 160.191406 219.953125 161.164062 219.65625 162.167969 219.457031 C 163.167969 219.257812 164.179688 219.15625 165.203125 219.15625 Z M 165.203125 219.15625 " fill-opacity="1" fill-rule="nonzero"/></g><g clip-path="url(#231f8650e8)"><path fill="#171717" d="M 123.75 219.546875 C 124.75 219.546875 125.734375 219.644531 126.710938 219.839844 C 127.6875 220.03125 128.636719 220.320312 129.558594 220.703125 C 130.476562 221.082031 131.351562 221.550781 132.179688 222.105469 C 133.007812 222.65625 133.773438 223.285156 134.480469 223.992188 C 135.183594 224.695312 135.8125 225.460938 136.367188 226.289062 C 136.917969 227.117188 137.386719 227.992188 137.769531 228.914062 C 138.148438 229.832031 138.4375 230.78125 138.632812 231.757812 C 138.824219 232.734375 138.921875 233.722656 138.921875 234.71875 C 138.921875 235.714844 138.824219 236.699219 138.632812 237.679688 C 138.4375 238.65625 138.148438 239.601562 137.769531 240.523438 C 137.386719 241.445312 136.917969 242.320312 136.367188 243.148438 C 135.8125 243.976562 135.183594 244.742188 134.480469 245.445312 C 133.773438 246.148438 133.007812 246.777344 132.179688 247.332031 C 131.351562 247.886719 130.476562 248.351562 129.558594 248.734375 C 128.636719 249.117188 127.6875 249.402344 126.710938 249.597656 C 125.734375 249.792969 124.75 249.890625 123.75 249.890625 C 122.753906 249.890625 121.769531 249.792969 120.792969 249.597656 C 119.816406 249.402344 118.867188 249.117188 117.945312 248.734375 C 117.027344 248.351562 116.152344 247.886719 115.324219 247.332031 C 114.496094 246.777344 113.730469 246.148438 113.023438 245.445312 C 112.320312 244.742188 111.691406 243.976562 111.136719 243.148438 C 110.585938 242.320312 110.117188 241.445312 109.734375 240.523438 C 109.355469 239.601562 109.066406 238.65625 108.871094 237.679688 C 108.679688 236.699219 108.582031 235.714844 108.582031 234.71875 C 108.582031 233.722656 108.679688 232.734375 108.871094 231.757812 C 109.066406 230.78125 109.355469 229.832031 109.734375 228.914062 C 110.117188 227.992188 110.585938 227.117188 111.136719 226.289062 C 111.691406 225.460938 112.320312 224.695312 113.023438 223.992188 C 113.730469 223.285156 114.496094 222.65625 115.324219 222.105469 C 116.152344 221.550781 117.027344 221.082031 117.945312 220.703125 C 118.867188 220.320312 119.816406 220.03125 120.792969 219.839844 C 121.769531 219.644531 122.753906 219.546875 123.75 219.546875 Z M 123.75 219.546875 " fill-opacity="1" fill-rule="nonzero"/></g></svg>