<svg xmlns="http://www.w3.org/2000/svg" xmlns:xlink="http://www.w3.org/1999/xlink" width="500" zoomAndPan="magnify" viewBox="0 0 375 374.999991" height="500" preserveAspectRatio="xMidYMid meet" version="1.0"><defs><clipPath id="dafdd981e8"><path d="M 187.5 0 C 83.945312 0 0 83.945312 0 187.5 C 0 291.054688 83.945312 375 187.5 375 C 291.054688 375 375 291.054688 375 187.5 C 375 83.945312 291.054688 0 187.5 0 Z M 187.5 0 " clip-rule="nonzero"/></clipPath><clipPath id="8afc2d052c"><path d="M 0 0 L 375 0 L 375 375 L 0 375 Z M 0 0 " clip-rule="nonzero"/></clipPath><clipPath id="4b472ab3ab"><path d="M 187.5 0 C 83.945312 0 0 83.945312 0 187.5 C 0 291.054688 83.945312 375 187.5 375 C 291.054688 375 375 291.054688 375 187.5 C 375 83.945312 291.054688 0 187.5 0 Z M 187.5 0 " clip-rule="nonzero"/></clipPath><clipPath id="b8fb062a20"><rect x="0" width="375" y="0" height="375"/></clipPath><clipPath id="69156747b3"><path d="M 100.683594 88 L 274 88 L 274 287 L 100.683594 287 Z M 100.683594 88 " clip-rule="nonzero"/></clipPath></defs><g clip-path="url(#dafdd981e8)"><g transform="matrix(1, 0, 0, 1, 0, 0)"><g clip-path="url(#b8fb062a20)"><g clip-path="url(#8afc2d052c)"><g clip-path="url(#4b472ab3ab)"><rect x="-82.5" width="540" fill="#f47253" height="539.999987" y="-82.499998" fill-opacity="1"/></g></g></g></g></g><g clip-path="url(#69156747b3)"><path fill="#171717" d="M 187.804688 105.59375 C 188.308594 105.59375 188.75 105.828125 189.316406 106.25 C 198.988281 113.585938 209.722656 119.371094 221.199219 123.441406 C 231.914062 127.242188 243.683594 129.691406 256.179688 130.71875 L 256.210938 130.71875 C 257.035156 130.800781 257.683594 131.496094 257.691406 132.351562 C 257.964844 151.09375 255.332031 169.992188 249.863281 188.535156 C 240.097656 221.628906 220.878906 247.902344 192.730469 266.605469 C 188.640625 269.324219 185.890625 269.488281 181.828125 267.238281 C 144.933594 246.773438 124.144531 214.320312 118.25 168.027344 C 116.835938 156.96875 116.375 145.632812 116.835938 133.367188 C 116.886719 131.957031 117.945312 130.789062 119.347656 130.605469 C 132.808594 128.773438 147.089844 126.496094 160.683594 120.53125 C 169.140625 116.820312 177.253906 112.285156 184.78125 107.074219 C 186.242188 106.058594 187.078125 105.59375 187.804688 105.59375 Z M 273.484375 131.363281 C 273.402344 128.199219 273.179688 124.851562 271.699219 121.910156 C 269.964844 118.472656 266.992188 116.136719 262.589844 114.753906 C 259.042969 113.648438 255.101562 113.335938 251.636719 113.050781 L 251.574219 113.050781 C 234.785156 111.703125 218.429688 105.867188 204.261719 96.171875 C 203.816406 95.871094 203.375 95.566406 202.929688 95.253906 C 198.597656 92.253906 194.113281 89.136719 188.648438 88.875 C 182.511719 88.574219 177.113281 92.082031 172.34375 95.183594 C 171.941406 95.4375 171.546875 95.6875 171.164062 95.949219 C 160.140625 103.035156 148.117188 108.15625 135.421875 111.15625 C 129.835938 112.476562 123.851562 113.363281 116.574219 113.960938 C 109.691406 114.511719 104.855469 117.636719 102.597656 122.988281 C 101.015625 126.71875 100.804688 130.71875 100.714844 134.839844 C 100.644531 137.984375 100.632812 141.136719 100.671875 144.203125 C 101.105469 179.636719 108.535156 209.546875 122.761719 233.117188 C 128.386719 242.4375 135.390625 251.234375 143.574219 259.269531 C 151.230469 266.785156 159.9375 273.660156 169.472656 279.707031 C 174.761719 283.0625 180.507812 286.136719 186.714844 286.136719 C 187.078125 286.136719 187.441406 286.125 187.804688 286.105469 C 193.253906 285.78125 198.132812 283.0625 202.585938 280.160156 C 214.105469 272.652344 224.667969 263.230469 233.980469 252.132812 C 243.070312 241.289062 250.769531 229.117188 256.835938 215.945312 C 268.574219 190.488281 274.332031 161.242188 273.484375 131.363281 " fill-opacity="1" fill-rule="nonzero"/></g><path fill="#171717" d="M 224.324219 170.472656 C 224.175781 171.421875 223.46875 172.15625 222.792969 172.832031 C 208.804688 186.820312 194.847656 200.828125 180.871094 214.816406 C 179.679688 216.003906 178.179688 217.292969 176.546875 216.921875 C 175.640625 216.710938 174.933594 216.023438 174.28125 215.371094 C 166.742188 207.820312 159.203125 200.285156 151.664062 192.734375 C 150.789062 191.859375 149.851562 190.839844 149.851562 189.601562 C 149.863281 188.390625 150.769531 187.394531 151.625 186.539062 C 153.902344 184.230469 156.179688 181.933594 158.457031 179.625 C 159.363281 178.707031 160.414062 177.730469 161.703125 177.679688 C 163.132812 177.609375 164.324219 178.699219 165.332031 179.714844 C 169.320312 183.714844 173.3125 187.71875 177.304688 191.707031 C 187.875 181.117188 198.445312 170.515625 209.015625 159.921875 C 209.925781 159.015625 210.953125 158.058594 212.230469 158.007812 C 213.644531 157.957031 214.800781 159.035156 215.800781 160.035156 C 218.007812 162.261719 220.222656 164.5 222.441406 166.734375 C 223.457031 167.773438 224.566406 169.042969 224.324219 170.472656 Z M 244.921875 143.898438 C 244.902344 142.308594 243.695312 140.96875 242.101562 140.835938 C 242.101562 140.824219 242.09375 140.824219 242.082031 140.824219 C 223.136719 139.265625 205.511719 133.582031 189.890625 121.75 C 187.671875 120.078125 186.039062 121.0625 184.164062 122.355469 C 178.199219 126.484375 171.929688 129.984375 165.320312 132.886719 C 154.789062 137.5 143.695312 139.304688 132.15625 140.855469 C 130.644531 141.058594 129.503906 142.308594 129.445312 143.828125 C 129.03125 153.765625 129.355469 163.148438 130.542969 172.488281 C 135.109375 208.347656 151.375 235.6875 181.96875 252.667969 C 185.808594 254.792969 188.75 254.59375 192.511719 252.09375 C 215.15625 237.046875 230.652344 216.125 238.636719 189.066406 C 242.96875 174.382812 245.15625 159.328125 244.921875 143.898438 " fill-opacity="1" fill-rule="nonzero"/></svg>