<svg xmlns="http://www.w3.org/2000/svg" xmlns:xlink="http://www.w3.org/1999/xlink" width="500" zoomAndPan="magnify" viewBox="0 0 375 374.999991" height="500" preserveAspectRatio="xMidYMid meet" version="1.0"><defs><clipPath id="a76ec9b70d"><path d="M 187.5 0 C 83.945312 0 0 83.945312 0 187.5 C 0 291.054688 83.945312 375 187.5 375 C 291.054688 375 375 291.054688 375 187.5 C 375 83.945312 291.054688 0 187.5 0 Z M 187.5 0 " clip-rule="nonzero"/></clipPath><clipPath id="5c0572f08e"><path d="M 0 0 L 375 0 L 375 375 L 0 375 Z M 0 0 " clip-rule="nonzero"/></clipPath><clipPath id="c9010c5f06"><path d="M 187.5 0 C 83.945312 0 0 83.945312 0 187.5 C 0 291.054688 83.945312 375 187.5 375 C 291.054688 375 375 291.054688 375 187.5 C 375 83.945312 291.054688 0 187.5 0 Z M 187.5 0 " clip-rule="nonzero"/></clipPath><clipPath id="dc02a9f7f1"><rect x="0" width="375" y="0" height="375"/></clipPath><clipPath id="69ca33d71d"><path d="M 102.390625 120.695312 L 272.640625 120.695312 L 272.640625 228 L 102.390625 228 Z M 102.390625 120.695312 " clip-rule="nonzero"/></clipPath><clipPath id="e1522344f6"><path d="M 113 241 L 262 241 L 262 255.695312 L 113 255.695312 Z M 113 241 " clip-rule="nonzero"/></clipPath></defs><g clip-path="url(#a76ec9b70d)"><g transform="matrix(1, 0, 0, 1, 0, 0)"><g clip-path="url(#dc02a9f7f1)"><g clip-path="url(#5c0572f08e)"><g clip-path="url(#c9010c5f06)"><rect x="-82.5" width="540" fill="#f47253" height="539.999987" y="-82.499998" fill-opacity="1"/></g></g></g></g></g><g clip-path="url(#69ca33d71d)"><path fill="#171717" d="M 113.066406 227.023438 L 102.433594 120.695312 L 152.054688 166.136719 L 187.496094 120.695312 L 222.941406 166.136719 L 272.5625 120.695312 L 261.929688 227.023438 Z M 153.796875 186.953125 L 187.496094 143.746094 L 221.199219 186.953125 L 254.761719 156.21875 L 249.097656 212.847656 L 125.898438 212.847656 L 120.234375 156.21875 Z M 153.796875 186.953125 " fill-opacity="1" fill-rule="evenodd"/></g><g clip-path="url(#e1522344f6)"><path fill="#171717" d="M 261.929688 255.378906 L 261.929688 241.203125 L 113.066406 241.203125 L 113.066406 255.378906 Z M 261.929688 255.378906 " fill-opacity="1" fill-rule="nonzero"/></g></svg>