<?xml version="1.0" encoding="UTF-8"?>
<!DOCTYPE svg PUBLIC "-//W3C//DTD SVG 1.1//EN" "http://www.w3.org/Graphics/SVG/1.1/DTD/svg11.dtd">
<!-- Creator: CorelDRAW X7 -->
<svg xmlns="http://www.w3.org/2000/svg" xml:space="preserve" width="256.707mm" height="256.707mm" version="1.1" style="shape-rendering:geometricPrecision; text-rendering:geometricPrecision; image-rendering:optimizeQuality; fill-rule:evenodd; clip-rule:evenodd"
viewBox="0 0 2304 2304"
 xmlns:xlink="http://www.w3.org/1999/xlink">
 <defs>
  <style type="text/css">
   <![CDATA[
    .fil0 {fill:#131313}
    .fil1 {fill:#CD9A51}
    .fil2 {fill:white}
   ]]>
  </style>
 </defs>
 <g id="Layer_x0020_1">
  <metadata id="CorelCorpID_0Corel-Layer"/>
  <rect class="fil0" width="2304" height="2304" rx="614" ry="614"/>
  <path class="fil1" d="M778 604c3,-7 7,-14 10,-21 4,-8 6,-15 6,-21 -1,-10 -6,-19 -17,-28 -7,-6 -16,-9 -25,-11 -2,-1 -3,-2 -5,-1 -4,0 -8,2 -10,7 -8,13 -19,24 -31,34 -34,27 -68,54 -103,82 -3,2 -5,4 -9,6 -2,1 -4,1 -6,1 -7,0 -11,-4 -11,-12l0 -1c-1,-9 2,-17 6,-25 15,-34 36,-65 60,-93 6,-8 12,-15 17,-22 5,-5 6,-9 6,-13 0,-4 -2,-7 -5,-12 -10,-15 -25,-24 -42,-28 -3,0 -5,0 -7,0 -6,0 -11,2 -15,7 -11,11 -19,24 -27,37 -3,3 -4,5 -7,6 -2,0 -4,-1 -6,-3 -9,-6 -18,-8 -27,-8 -7,0 -15,2 -22,5 -17,7 -32,16 -47,25 -59,37 -115,79 -167,126 -18,17 -34,35 -48,55 -7,10 -10,19 -10,30 0,9 4,18 10,28 17,27 43,42 74,48 18,3 36,6 54,10 5,0 10,1 14,6 -17,15 -33,29 -50,44 -45,42 -89,85 -129,131 -15,17 -30,34 -41,56 -3,6 -4,11 -4,16 1,9 5,15 14,22 14,11 30,16 48,16 4,0 9,-1 13,-2 20,-3 39,-8 57,-16 47,-19 89,-46 128,-78 24,-19 46,-40 61,-68 8,-16 13,-33 12,-49 0,-16 -5,-31 -15,-46 -11,-16 -24,-29 -40,-40 -4,-3 -8,-5 -11,-11 1,-1 3,-2 4,-3 46,-39 92,-75 140,-110 5,-4 10,-5 17,-5 3,0 7,0 10,0 13,0 26,-2 39,-5 3,0 4,-1 7,-1 1,0 2,0 4,1 -1,8 -6,16 -10,23 -36,71 -73,141 -105,215 -12,30 -24,59 -28,92 -1,4 -1,7 -1,11 1,34 25,62 60,67 4,-1 7,0 10,0 3,0 6,-1 10,-2 2,0 5,-1 6,-3 4,-2 7,-5 7,-10 -1,-4 -5,-6 -8,-8 -3,-1 -6,-1 -9,-1l-3 0c-7,0 -10,-4 -10,-10 0,-9 0,-17 2,-26 5,-32 16,-63 29,-92 39,-88 87,-171 134,-254 16,-27 17,-27 48,-29 23,-2 45,-5 67,-7 7,-1 12,-1 19,-1 6,0 12,0 18,0 11,0 22,1 31,11 1,1 5,3 6,4 3,1 6,2 8,2 3,0 5,-1 6,-3 4,-2 5,-6 5,-10l-1 -3c-2,-8 -5,-16 -10,-22 -14,-19 -32,-33 -56,-32 -2,0 -5,1 -7,1 -27,4 -53,10 -79,19 -2,1 -5,3 -9,3 -1,0 -3,0 -4,-1zm-212 67c-2,6 -7,8 -10,11 -42,33 -84,66 -125,100 -5,3 -8,5 -13,5 -2,0 -6,0 -9,-2 -32,-15 -65,-22 -99,-30 -11,-3 -17,-4 -17,-8 0,-3 3,-7 8,-14 14,-21 32,-39 51,-54 53,-45 110,-84 172,-115 2,-2 5,-3 8,-3l2 -1c0,6 -3,11 -4,17 -4,12 -7,24 -7,37 1,18 9,33 24,44 6,5 13,8 19,13zm-121 183l1 2c-1,11 -4,22 -8,32 -9,21 -23,38 -38,55 -42,46 -91,84 -147,112 -15,8 -30,14 -47,17 -2,1 -4,1 -5,1 -4,0 -5,-2 -5,-7l-1 -3c0,-8 3,-16 7,-23 10,-24 25,-44 41,-63 46,-55 97,-104 150,-150 3,-4 7,-6 11,-6 2,0 5,1 8,2 8,4 17,7 24,13 6,4 9,10 9,18zm240 -250c1,7 -2,8 -2,11 -9,30 -34,32 -59,32 19,-15 40,-29 61,-43zm519 399c-1,-3 -1,-4 -1,-6 0,-2 0,-3 1,-5 3,-22 10,-42 19,-62 22,-50 50,-97 83,-140 14,-18 29,-35 42,-52 5,-5 6,-9 6,-14 0,-4 -2,-7 -5,-13 -11,-14 -25,-22 -42,-25 -2,-1 -5,-2 -7,-1 -5,0 -11,2 -15,8 -5,5 -9,11 -14,18 -35,51 -67,106 -93,164 -15,32 -28,65 -33,101 -1,5 -1,9 -1,13 0,24 14,41 41,50 5,2 10,3 15,3 10,-1 19,-5 27,-13 8,-7 16,-16 23,-25 25,-34 47,-71 72,-105 3,-6 7,-12 13,-18 8,13 13,27 24,37 4,5 6,9 6,14 0,3 -1,8 -3,12 -2,4 -5,7 -7,11 -18,24 -40,42 -66,56 -5,3 -11,5 -17,5 -7,0 -9,2 -9,5 0,2 1,4 2,7 10,14 23,20 39,20l3 -1c10,0 22,-3 33,-5 30,-8 58,-23 78,-49 7,-9 10,-19 10,-29 -1,-7 -3,-16 -8,-24 -6,-10 -13,-19 -22,-27 -6,-6 -8,-13 -9,-20 0,-3 0,-5 1,-7 1,-14 5,-27 11,-39 12,-28 30,-54 47,-79 2,-3 4,-6 8,-8 -1,5 -2,10 -3,14 -2,13 -4,26 -4,40 0,3 1,5 1,9 2,16 16,26 31,26 4,0 9,-2 14,-4 4,-3 7,-5 6,-8 0,-2 -2,-4 -5,-7 -1,0 -2,-1 -3,-1 -4,-1 -5,-3 -5,-6 0,-1 0,-3 1,-5 3,-8 6,-16 11,-23 24,-42 50,-83 82,-121 4,-4 5,-8 5,-11 0,-3 -1,-6 -4,-10 -10,-14 -24,-22 -41,-24 -1,0 -3,-1 -4,-1 -7,1 -13,4 -19,9 -3,3 -7,10 -12,11l-1 0c-5,0 -9,-6 -15,-9 -6,-3 -12,-6 -17,-6 -6,0 -11,4 -18,10 -7,8 -13,15 -19,23 -10,15 -20,30 -30,45 -24,37 -49,73 -63,115 -8,21 -19,39 -32,58 -2,2 -3,3 -5,6 -23,31 -48,61 -75,88 -9,9 -17,18 -28,25zm226 -419c-1,-10 -5,-18 -14,-24 -7,-5 -15,-8 -24,-11 -4,-2 -8,-2 -12,-2 -7,0 -13,3 -19,9 -16,15 -28,32 -37,53 -2,6 -3,11 -3,17 0,10 4,18 13,26 4,4 8,7 13,10 7,5 15,7 22,7 9,0 18,-5 25,-15 14,-17 25,-36 33,-56 2,-4 3,-9 3,-14zm140 395c-1,0 -2,-1 -2,-2 3,-11 7,-22 11,-33 47,-123 113,-235 197,-335 13,-15 25,-30 45,-36 8,-2 13,-9 12,-16 0,-4 -1,-9 -4,-13 -6,-8 -12,-15 -21,-20 -11,-6 -19,-9 -27,-8 -10,0 -19,4 -29,12 -15,13 -26,28 -38,43 -45,59 -83,122 -118,188 -32,61 -62,124 -83,191 -7,19 -12,39 -12,59l0 2c1,12 6,20 16,26 12,6 22,8 30,8 14,0 22,-8 32,-20 2,-3 5,-6 7,-9l33 -48c41,-62 85,-121 137,-174 10,-9 20,-19 32,-27 -6,14 -12,27 -19,40 -27,56 -50,112 -61,173 -3,19 -6,37 -5,56 0,8 1,17 3,25 4,20 12,39 27,51 26,21 56,32 88,31l8 0c20,-2 34,-13 43,-30 1,-3 2,-4 2,-6 0,-4 -2,-6 -7,-8 -3,-2 -7,-3 -11,-3 -5,0 -10,2 -15,5 -3,3 -7,6 -11,9 -5,4 -9,6 -14,6 -4,0 -8,-1 -13,-4 -14,-7 -24,-19 -29,-34 -5,-11 -7,-23 -8,-35 0,-3 1,-7 1,-11 2,-35 10,-69 22,-103 15,-41 36,-79 56,-118 11,-19 22,-39 28,-61 2,-7 3,-14 3,-20 0,-15 -7,-26 -22,-36 -9,-7 -19,-10 -29,-10 -9,0 -19,4 -27,11 -9,8 -17,16 -25,24 -26,27 -49,56 -72,86 -32,43 -62,85 -94,127 -12,16 -23,32 -37,47zm-826 4c-1,-2 -2,-5 -2,-7 0,-4 1,-6 2,-9 5,-23 13,-45 23,-66 25,-50 57,-95 94,-135 5,-5 7,-8 6,-11 0,-3 -1,-6 -3,-9 -7,-14 -18,-23 -32,-28 -8,-3 -14,-5 -18,-5 -9,1 -14,5 -23,16l-6 7c-31,42 -57,87 -78,135 -13,29 -23,59 -27,91 -1,5 -1,10 -1,15 0,23 11,39 35,51 3,1 6,3 9,4 9,4 17,5 25,5 12,0 23,-5 34,-14 14,-12 26,-27 37,-42 32,-41 59,-85 88,-129 8,-12 16,-24 25,-37 1,2 2,2 2,3l-4 11c-14,49 -32,97 -53,143 -19,40 -39,79 -64,115 -4,7 -10,11 -19,13 -29,5 -58,14 -86,24 -29,11 -56,25 -79,46 -8,8 -15,16 -19,26 -3,5 -4,10 -4,14 1,7 3,12 9,18 19,21 42,31 69,30 5,0 10,0 16,-1 21,-5 39,-14 56,-26 35,-23 65,-52 91,-85 6,-8 13,-11 22,-11l13 -1c20,0 40,0 60,2 19,0 36,3 54,7 11,4 23,6 28,19 1,4 4,8 8,7 1,0 2,0 3,0 6,-3 8,-6 7,-12l0 -2c0,-7 -3,-12 -7,-18 -9,-12 -22,-20 -35,-28 -25,-13 -52,-16 -79,-18 -11,-1 -22,0 -32,-3l0 -2c0,-2 1,-4 2,-5 41,-67 71,-138 97,-211 11,-30 21,-62 26,-94 1,-4 1,-7 1,-11 -1,-27 -22,-49 -46,-55 -4,-2 -7,-2 -10,-2 -8,0 -13,4 -18,11 -9,13 -18,27 -26,40 -21,37 -43,74 -67,110 -19,28 -39,55 -63,79 -12,13 -25,25 -41,35zm11 177c-17,17 -35,32 -55,45 -9,7 -19,12 -30,16 -1,0 -2,0 -3,0 -1,0 -2,1 -3,-1 -1,0 -1,-1 -1,-2 0,-1 1,-2 1,-3 3,-6 6,-11 11,-15 15,-15 35,-25 54,-34 8,-4 16,-6 24,-9 1,1 1,2 2,3zm249 -127l0 3c0,5 2,12 3,19 4,13 21,25 34,25l1 0c6,-1 9,-3 9,-7 0,-1 0,-3 -1,-4 -2,-4 -3,-7 -3,-10 0,-3 1,-6 1,-8 1,-15 5,-29 9,-43 26,-86 60,-170 103,-250 29,-56 62,-112 100,-163 5,-6 10,-12 18,-15 10,-4 15,-12 14,-21 0,-5 -1,-9 -4,-14 -12,-18 -29,-26 -49,-29 -2,0 -3,0 -4,0 -7,0 -13,3 -18,8 -8,10 -16,20 -22,31 -26,40 -48,82 -69,124 -38,74 -72,150 -99,228 -14,40 -23,80 -23,126z"/>
  <path class="fil2" d="M1115 1173l0 1c0,5 -2,7 -4,10 -20,32 -38,65 -56,97 -52,94 -103,188 -142,288 -15,37 -29,75 -35,115 -1,11 -3,22 -3,34 0,2 1,5 1,7 1,16 11,24 24,29 3,1 6,2 10,2 7,-1 14,-4 19,-10 4,-5 7,-9 7,-12 0,-4 -4,-7 -11,-10 -5,-2 -7,-4 -7,-8 0,-2 1,-4 1,-6 4,-11 7,-23 11,-34 23,-59 49,-116 77,-172 38,-74 79,-145 125,-214 22,-35 46,-68 71,-101 4,-5 7,-10 7,-16 0,-3 -1,-5 -3,-9 -1,-3 -2,-5 -2,-6 0,-3 3,-4 10,-5 19,-1 38,-3 57,-4 12,0 25,0 37,1 29,2 58,6 85,14 13,3 24,7 35,15 6,4 11,8 11,13 0,3 -1,7 -4,11 -2,5 -3,9 -3,14l0 3c0,4 2,7 5,9 1,0 2,1 2,1 2,0 5,-3 7,-4 5,-4 8,-9 11,-16 3,-9 5,-19 5,-29 -1,-27 -16,-55 -42,-66 -9,-4 -20,-9 -30,-12 -27,-6 -54,-9 -81,-10 -18,-1 -36,-1 -54,0 -25,0 -50,2 -75,6 -61,9 -121,23 -179,46 -51,19 -99,43 -141,77 -19,15 -36,32 -49,54 -9,14 -14,29 -13,46 0,2 0,6 0,8 7,50 47,91 96,100 6,0 10,1 15,0 5,0 10,0 15,-1 5,-1 8,-4 8,-7 0,-2 -1,-4 -2,-6 -4,-5 -9,-6 -15,-7 -24,-7 -45,-20 -64,-37 -5,-4 -7,-9 -7,-15 0,-2 0,-6 1,-9 3,-7 6,-14 10,-21 14,-24 34,-43 56,-60 40,-32 85,-54 133,-72 22,-9 45,-16 70,-22zm722 488c43,-1 77,-15 108,-33 75,-42 131,-102 171,-176 11,-21 19,-43 22,-66 1,-6 2,-12 1,-18 -1,-38 -24,-68 -62,-79 -5,-1 -10,-2 -15,-2 -4,0 -7,1 -11,1 -3,0 -6,2 -6,6 0,3 2,5 5,7 3,2 5,2 8,2l4 0c26,2 39,15 40,42 0,6 0,12 -1,18 -4,19 -10,37 -19,54 -20,37 -45,70 -76,100 -39,38 -85,68 -136,87 -19,8 -40,13 -61,14l-7 0c-18,-1 -23,-7 -26,-24l0 -6c0,-11 1,-22 4,-33 7,-23 18,-43 31,-63 3,-5 6,-8 8,-8 2,0 4,4 8,8 3,3 6,6 10,9 16,14 34,21 52,20 14,0 29,-5 42,-14 16,-11 29,-25 40,-40 18,-24 33,-49 39,-79 1,-4 1,-8 1,-13 -1,-10 -3,-19 -8,-28 -8,-14 -19,-24 -33,-32 -13,-8 -26,-12 -40,-12 -10,0 -21,3 -31,10 -10,6 -20,12 -30,19 -43,34 -79,74 -108,119 -22,3 -43,16 -66,21 8,-14 15,-26 22,-38 9,-17 15,-33 20,-52 1,-5 1,-9 1,-15 -1,-28 -22,-55 -50,-62 -4,0 -7,-1 -11,-1 -3,1 -8,1 -12,3 -12,6 -21,13 -31,21 -28,23 -53,50 -78,76 -3,3 -5,7 -10,8 5,-16 11,-31 13,-47 1,-3 1,-5 0,-8 0,-31 -28,-50 -49,-52 -2,0 -3,-1 -5,-1 -8,0 -15,3 -22,8 -18,15 -35,31 -52,46 -11,11 -22,21 -35,33 1,-14 2,-25 2,-36 -1,-7 -1,-13 -5,-19 -13,-16 -30,-24 -51,-24 -7,0 -11,3 -13,10 -2,9 -4,16 -7,24 -13,33 -31,65 -50,96 -27,49 -56,97 -92,140 -16,22 -35,41 -58,56 -2,1 -4,4 -7,4 -1,0 -2,-1 -3,-1 -1,-1 -2,-3 -2,-5 0,-2 1,-3 1,-5 1,-11 3,-23 6,-34 8,-33 21,-64 38,-95 24,-44 51,-87 88,-122 3,-3 5,-6 4,-9 0,-3 0,-6 -3,-9 -7,-9 -16,-16 -28,-19 -11,-3 -19,-6 -26,-5 -12,0 -21,7 -33,22 -6,6 -11,13 -16,20 -37,53 -64,111 -84,172 -5,16 -9,31 -11,47 0,5 0,11 0,15 1,30 15,46 40,57 9,3 17,5 25,5 10,-1 20,-4 29,-11 7,-6 13,-11 18,-17 20,-20 35,-43 50,-66 30,-46 57,-94 86,-141 3,-5 7,-10 11,-17l0 6c-9,31 -19,61 -31,90 -2,4 -4,8 -7,12 -16,19 -31,38 -46,57 -48,60 -91,122 -130,188 -8,14 -17,29 -21,46 -2,4 -2,8 -2,11 0,7 4,11 14,16 12,5 23,8 35,8 16,-1 33,-8 46,-21 6,-4 10,-9 15,-14 33,-36 60,-77 83,-120 50,-88 91,-179 124,-275 2,-6 5,-12 10,-17 24,-21 49,-42 77,-59 4,-3 8,-5 13,-5l2 0c-3,5 -4,10 -6,14 -13,34 -29,68 -45,101 -41,85 -83,171 -115,261 -7,21 -15,43 -19,65 -1,4 -1,7 -1,11 0,10 5,19 14,25 12,9 26,16 41,19 3,0 6,0 9,0l4 0c7,-1 12,-6 12,-12 0,-2 -1,-4 -2,-6 -2,-6 -3,-13 -3,-20 0,-3 0,-7 0,-11 2,-22 8,-43 16,-64 27,-74 61,-146 99,-215 7,-11 12,-23 21,-33 20,-21 40,-43 63,-62 27,-23 55,-46 88,-62 3,-2 6,-4 10,-4l2 0c1,1 1,3 1,4 0,4 -3,7 -4,11 -21,50 -51,95 -82,139 -8,11 -17,19 -29,25 -27,14 -55,29 -80,46 -13,9 -24,19 -32,33 -3,5 -5,10 -5,15 1,5 3,11 9,16 13,15 31,22 49,21 9,0 20,-2 29,-7 7,-4 14,-8 21,-13 16,-13 31,-28 46,-43 26,-30 52,-62 74,-95 5,-8 11,-13 19,-16 21,-8 41,-16 61,-24 -2,4 -4,7 -6,10 -11,20 -20,41 -25,63 -2,9 -3,17 -3,25 1,25 12,46 32,63 27,24 57,34 87,34zm108 -290c0,7 -2,10 -4,14 -15,32 -36,58 -64,80 -6,5 -15,10 -23,13 -2,1 -4,1 -6,1 -5,0 -8,-2 -12,-8 -1,-2 -2,-4 -2,-5 0,-3 2,-6 4,-9 26,-31 55,-57 90,-78 5,-3 10,-7 17,-8zm-690 195c-35,83 -74,162 -133,231l0 -2c-1,-6 1,-12 3,-17 13,-40 33,-76 55,-111 21,-34 45,-67 70,-98 0,-2 2,-3 5,-3zm238 43c7,-15 27,-32 47,-42 -10,16 -34,37 -47,42z"/>
 </g>
</svg>
