<svg xmlns="http://www.w3.org/2000/svg" xmlns:xlink="http://www.w3.org/1999/xlink" width="500" zoomAndPan="magnify" viewBox="0 0 375 374.999991" height="500" preserveAspectRatio="xMidYMid meet" version="1.0"><defs><g/><clipPath id="c68495b06c"><rect x="0" width="217" y="0" height="302"/></clipPath><clipPath id="dc78b7dd82"><path d="M 37.5 37.5 L 337.5 37.5 L 337.5 337.5 L 37.5 337.5 Z M 37.5 37.5 " clip-rule="nonzero"/></clipPath><clipPath id="6a3ed59fea"><path d="M 60.75 37.5 L 314.25 37.5 C 327.089844 37.5 337.5 47.910156 337.5 60.75 L 337.5 314.25 C 337.5 327.089844 327.089844 337.5 314.25 337.5 L 60.75 337.5 C 47.910156 337.5 37.5 327.089844 37.5 314.25 L 37.5 60.75 C 37.5 47.910156 47.910156 37.5 60.75 37.5 Z M 60.75 37.5 " clip-rule="nonzero"/></clipPath></defs><g transform="matrix(1, 0, 0, 1, 72, 36)"><g clip-path="url(#c68495b06c)"><g fill="#ffffff" fill-opacity="1"><g transform="translate(1.078044, 226.162424)"><g><path d="M 131.5 0 L 113.015625 -18.484375 C 105.847656 -11.316406 98.039062 -5.976562 89.59375 -2.46875 C 81.144531 1.039062 71.691406 2.796875 61.234375 2.796875 C 50.628906 2.796875 41.242188 0.9375 33.078125 -2.78125 C 24.921875 -6.507812 18.617188 -11.847656 14.171875 -18.796875 C 9.734375 -25.742188 7.515625 -33.800781 7.515625 -42.96875 C 7.515625 -53.28125 10.453125 -62.484375 16.328125 -70.578125 C 22.203125 -78.671875 30.941406 -85.082031 42.546875 -89.8125 C 38.390625 -94.820312 35.453125 -99.507812 33.734375 -103.875 C 32.015625 -108.25 31.15625 -113.085938 31.15625 -118.390625 C 31.15625 -124.972656 32.835938 -130.84375 36.203125 -136 C 39.566406 -141.15625 44.398438 -145.238281 50.703125 -148.25 C 57.003906 -151.257812 64.3125 -152.765625 72.625 -152.765625 C 81.070312 -152.765625 88.265625 -151.148438 94.203125 -147.921875 C 100.148438 -144.703125 104.59375 -140.300781 107.53125 -134.71875 C 110.46875 -129.132812 111.648438 -122.90625 111.078125 -116.03125 L 86.59375 -116.03125 C 86.726562 -121.320312 85.4375 -125.4375 82.71875 -128.375 C 80 -131.3125 76.273438 -132.78125 71.546875 -132.78125 C 66.816406 -132.78125 62.984375 -131.382812 60.046875 -128.59375 C 57.117188 -125.800781 55.65625 -122.398438 55.65625 -118.390625 C 55.65625 -114.523438 56.765625 -110.691406 58.984375 -106.890625 C 61.203125 -103.097656 65.101562 -98.191406 70.6875 -92.171875 L 110.21875 -52.859375 L 125.484375 -78 L 151.90625 -78 L 132.5625 -44.90625 L 127.203125 -36.09375 L 163.515625 0 Z M 61.234375 -18.046875 C 74.703125 -18.046875 86.59375 -23.5625 96.90625 -34.59375 L 57.375 -74.34375 C 40.46875 -67.613281 32.015625 -57.441406 32.015625 -43.828125 C 32.015625 -36.523438 34.734375 -30.398438 40.171875 -25.453125 C 45.617188 -20.515625 52.640625 -18.046875 61.234375 -18.046875 Z M 61.234375 -18.046875 "/></g></g></g><g fill="#ffffff" fill-opacity="1"><g transform="translate(121.616735, 226.162424)"><g><path d="M 84.21875 -145.890625 L 93.890625 -128.703125 L 64.453125 -117.75 L 93.890625 -106.78125 L 84.015625 -89.171875 L 59.515625 -108.5 L 64.03125 -77.34375 L 44.265625 -77.34375 L 48.34375 -108.5 L 23.84375 -88.734375 L 13.53125 -107 L 42.75 -117.953125 L 13.53125 -128.484375 L 23.421875 -146.109375 L 48.5625 -126.765625 L 44.265625 -158.140625 L 64.25 -158.140625 L 59.515625 -126.765625 Z M 84.21875 -145.890625 "/></g></g></g></g></g><g clip-path="url(#dc78b7dd82)"><g clip-path="url(#6a3ed59fea)"><path stroke-linecap="butt" transform="matrix(0.75, 0, 0, 0.75, 37.500002, 37.499998)" fill="none" stroke-linejoin="miter" d="M 30.999999 0.00000328333 L 369.000022 0.00000328333 C 386.119814 0.00000328333 400.000024 13.880213 400.000024 31.000005 L 400.000024 369.000028 C 400.000024 386.11982 386.119814 400.00003 369.000022 400.00003 L 30.999999 400.00003 C 13.880207 400.00003 -0.00000271667 386.11982 -0.00000271667 369.000028 L -0.00000271667 31.000005 C -0.00000271667 13.880213 13.880207 0.00000328333 30.999999 0.00000328333 Z M 30.999999 0.00000328333 " stroke="#ffffff" stroke-width="26" stroke-opacity="1" stroke-miterlimit="4"/></g></g></svg>