<svg xmlns="http://www.w3.org/2000/svg" xmlns:xlink="http://www.w3.org/1999/xlink" width="500" zoomAndPan="magnify" viewBox="0 0 375 374.999991" height="500" preserveAspectRatio="xMidYMid meet" version="1.0"><defs><g/><clipPath id="34691d0b69"><path d="M 37.5 37.5 L 337.5 37.5 L 337.5 337.5 L 37.5 337.5 Z M 37.5 37.5 " clip-rule="nonzero"/></clipPath><clipPath id="35c4a19cc7"><path d="M 60.75 37.5 L 314.25 37.5 C 327.089844 37.5 337.5 47.910156 337.5 60.75 L 337.5 314.25 C 337.5 327.089844 327.089844 337.5 314.25 337.5 L 60.75 337.5 C 47.910156 337.5 37.5 327.089844 37.5 314.25 L 37.5 60.75 C 37.5 47.910156 47.910156 37.5 60.75 37.5 Z M 60.75 37.5 " clip-rule="nonzero"/></clipPath></defs><g fill="#ffffff" fill-opacity="1"><g transform="translate(72.45015, 242.624984)"><g><path d="M 132.796875 -89 C 135.867188 -89 137.40625 -87.066406 137.40625 -83.203125 C 137.40625 -79.066406 135.738281 -75.195312 132.40625 -71.59375 C 126.53125 -65.0625 121.128906 -56.863281 116.203125 -47 C 108.734375 -32.0625 105 -18.59375 105 -6.59375 C 105 -1.925781 105.832031 1.46875 107.5 3.59375 C 109.164062 5.726562 111.066406 6.796875 113.203125 6.796875 C 119.597656 6.796875 127.0625 1.597656 135.59375 -8.796875 C 143.195312 -18.535156 149 -28.003906 153 -37.203125 C 154.0625 -39.335938 155.125 -40.269531 156.1875 -40 C 157.257812 -39.726562 157.332031 -38.53125 156.40625 -36.40625 C 150.9375 -24.269531 144.734375 -13.601562 137.796875 -4.40625 C 134.203125 0.53125 129.738281 4.628906 124.40625 7.890625 C 119.070312 11.160156 113.769531 12.796875 108.5 12.796875 C 103.226562 12.796875 99.257812 10.695312 96.59375 6.5 C 93.925781 2.300781 92.59375 -2.660156 92.59375 -8.390625 C 92.59375 -14.128906 93.289062 -19.796875 94.6875 -25.390625 C 96.09375 -30.992188 97.929688 -35.332031 100.203125 -38.40625 C 86.734375 -22.269531 72.398438 -9.332031 57.203125 0.40625 C 49.203125 5.332031 40.332031 8.265625 30.59375 9.203125 C 29.664062 9.335938 28.097656 9.40625 25.890625 9.40625 C 23.691406 9.40625 21.0625 8.601562 18 7 C 8.394531 3 3.59375 -6.765625 3.59375 -22.296875 C 3.59375 -37.828125 8.660156 -54.660156 18.796875 -72.796875 C 24.128906 -82.398438 30 -90.867188 36.40625 -98.203125 C 27.46875 -102.460938 20.800781 -107.0625 16.40625 -112 C 13.195312 -115.601562 11.59375 -119.9375 11.59375 -125 C 11.59375 -130.0625 12.59375 -133.257812 14.59375 -134.59375 C 15.925781 -136.332031 17.128906 -136.664062 18.203125 -135.59375 C 19.003906 -134.394531 19.035156 -132.925781 18.296875 -131.1875 C 17.566406 -129.457031 17.203125 -127.796875 17.203125 -126.203125 C 17.203125 -122.597656 19.132812 -118.59375 23 -114.1875 C 26.863281 -109.789062 32.53125 -105.863281 40 -102.40625 C 71.332031 -137.195312 103.863281 -154.59375 137.59375 -154.59375 C 148.132812 -154.59375 156.503906 -152.226562 162.703125 -147.5 C 168.898438 -142.769531 172 -136.671875 172 -129.203125 C 172 -121.066406 167.46875 -113.195312 158.40625 -105.59375 C 153.863281 -101.59375 147.394531 -98.128906 139 -95.203125 C 126.195312 -90.671875 110.960938 -88.40625 93.296875 -88.40625 C 75.628906 -88.40625 61 -90.269531 49.40625 -94 C 35.9375 -74.9375 26.664062 -59.101562 21.59375 -46.5 C 16.53125 -33.894531 14 -24.128906 14 -17.203125 C 14 -15.734375 14.066406 -14.398438 14.203125 -13.203125 C 15.796875 -2.128906 21.394531 3.40625 31 3.40625 C 41.800781 3.40625 54.332031 -2.460938 68.59375 -14.203125 C 78.726562 -22.734375 88.660156 -32.863281 98.390625 -44.59375 C 108.128906 -56.332031 115.363281 -66.664062 120.09375 -75.59375 C 124.832031 -84.53125 129.066406 -89 132.796875 -89 Z M 163.796875 -131.59375 C 163.796875 -137.332031 161.425781 -141.734375 156.6875 -144.796875 C 151.957031 -147.867188 145.457031 -149.40625 137.1875 -149.40625 C 128.925781 -149.40625 120.695312 -148.070312 112.5 -145.40625 C 104.300781 -142.738281 96.632812 -138.800781 89.5 -133.59375 C 82.363281 -128.394531 76.03125 -123.0625 70.5 -117.59375 C 64.96875 -112.132812 59 -105.601562 52.59375 -98 C 62.59375 -94.800781 74.863281 -93.203125 89.40625 -93.203125 C 116.738281 -93.203125 136.671875 -97.601562 149.203125 -106.40625 C 158.929688 -113.195312 163.796875 -121.59375 163.796875 -131.59375 Z M 163.796875 -131.59375 "/></g></g></g><g fill="#ffffff" fill-opacity="1"><g transform="translate(214.846318, 242.624984)"><g><path d="M 72.203125 -54.203125 C 69.796875 -51.796875 66.394531 -46.359375 62 -37.890625 C 57.601562 -29.429688 54.96875 -23.097656 54.09375 -18.890625 C 53.226562 -14.691406 52.796875 -11.289062 52.796875 -8.6875 C 52.796875 -6.09375 53.796875 -4.796875 55.796875 -4.796875 C 58.328125 -4.796875 61.460938 -7.128906 65.203125 -11.796875 C 70.671875 -18.597656 76.070312 -27.46875 81.40625 -38.40625 C 81.9375 -39.601562 82.535156 -40.269531 83.203125 -40.40625 C 84.265625 -40.800781 84.796875 -40.398438 84.796875 -39.203125 C 84.796875 -38.535156 84.597656 -37.734375 84.203125 -36.796875 C 71.929688 -11.992188 61.597656 0.40625 53.203125 0.40625 C 49.335938 0.40625 46.203125 -1.460938 43.796875 -5.203125 C 42.597656 -7.203125 42 -9.867188 42 -13.203125 C 42 -16.535156 42.664062 -20.601562 44 -25.40625 C 33.332031 -8.195312 24.132812 0.40625 16.40625 0.40625 C 14.269531 0.40625 12.332031 -0.257812 10.59375 -1.59375 C 6.59375 -4.394531 4.59375 -9.195312 4.59375 -16 C 4.59375 -29.0625 10.257812 -42.328125 21.59375 -55.796875 C 28 -63.265625 35.867188 -68.132812 45.203125 -70.40625 C 47.734375 -71.070312 50.132812 -71.40625 52.40625 -71.40625 C 58.53125 -71.40625 63.726562 -69.269531 68 -65 C 69.332031 -63.53125 69.734375 -62.128906 69.203125 -60.796875 C 68.671875 -59.460938 67.535156 -58.929688 65.796875 -59.203125 C 64.328125 -64.003906 61.128906 -66.40625 56.203125 -66.40625 C 50.460938 -66.40625 43.394531 -61.867188 35 -52.796875 C 30.195312 -47.460938 25.726562 -41.195312 21.59375 -34 C 16.394531 -25.332031 13.796875 -18.398438 13.796875 -13.203125 C 13.796875 -8.003906 15.460938 -5.40625 18.796875 -5.40625 C 26.796875 -5.40625 37.265625 -17.671875 50.203125 -42.203125 C 52.734375 -47.128906 54.863281 -50.492188 56.59375 -52.296875 C 58.332031 -54.097656 60.535156 -55 63.203125 -55 C 63.734375 -55 65.097656 -54.796875 67.296875 -54.390625 C 69.492188 -53.992188 71.128906 -53.929688 72.203125 -54.203125 Z M 72.203125 -54.203125 "/></g></g></g><g clip-path="url(#34691d0b69)"><g clip-path="url(#35c4a19cc7)"><path stroke-linecap="butt" transform="matrix(0.75, 0, 0, 0.75, 37.500002, 37.499998)" fill="none" stroke-linejoin="miter" d="M 30.999999 0.00000328333 L 369.000022 0.00000328333 C 386.119814 0.00000328333 400.000024 13.880213 400.000024 31.000005 L 400.000024 369.000028 C 400.000024 386.11982 386.119814 400.00003 369.000022 400.00003 L 30.999999 400.00003 C 13.880207 400.00003 -0.00000271667 386.11982 -0.00000271667 369.000028 L -0.00000271667 31.000005 C -0.00000271667 13.880213 13.880207 0.00000328333 30.999999 0.00000328333 Z M 30.999999 0.00000328333 " stroke="#ffffff" stroke-width="26" stroke-opacity="1" stroke-miterlimit="4"/></g></g></svg>