<svg xmlns="http://www.w3.org/2000/svg" xmlns:xlink="http://www.w3.org/1999/xlink" width="500" zoomAndPan="magnify" viewBox="0 0 375 374.999991" height="500" preserveAspectRatio="xMidYMid meet" version="1.0"><defs><g/><clipPath id="3a1a93b5d5"><rect x="0" width="249" y="0" height="273"/></clipPath><clipPath id="310f7746bf"><path d="M 37.5 37.5 L 337.5 37.5 L 337.5 337.5 L 37.5 337.5 Z M 37.5 37.5 " clip-rule="nonzero"/></clipPath><clipPath id="d79e92e78b"><path d="M 60.75 37.5 L 314.25 37.5 C 327.089844 37.5 337.5 47.910156 337.5 60.75 L 337.5 314.25 C 337.5 327.089844 327.089844 337.5 314.25 337.5 L 60.75 337.5 C 47.910156 337.5 37.5 327.089844 37.5 314.25 L 37.5 60.75 C 37.5 47.910156 47.910156 37.5 60.75 37.5 Z M 60.75 37.5 " clip-rule="nonzero"/></clipPath></defs><g transform="matrix(1, 0, 0, 1, 64, 29)"><g clip-path="url(#3a1a93b5d5)"><g fill="#ffffff" fill-opacity="1"><g transform="translate(0.417266, 215.293361)"><g><path d="M 13.625 -22.4375 L 45.859375 -115.75 L 33.25 -116.953125 L 33.25 -133.171875 L 79.109375 -133.171875 L 119.953125 -17.625 L 120.15625 -17.625 L 131.578125 -17.015625 L 131.578125 0 L 79.90625 0 L 79.90625 -16.21875 L 87.515625 -16.828125 C 89.785156 -17.085938 91.320312 -17.617188 92.125 -18.421875 C 92.925781 -19.222656 92.992188 -20.691406 92.328125 -22.828125 L 88.109375 -35.25 L 41.25 -35.25 L 35.25 -17.625 L 47.265625 -17.015625 L 47.265625 0 L 1 0 L 1 -16.21875 L 7.609375 -16.828125 C 10.410156 -17.085938 12.414062 -18.957031 13.625 -22.4375 Z M 64.6875 -110.75 L 46.0625 -53.671875 L 83.3125 -53.671875 L 65.28125 -110.75 Z M 64.6875 -110.75 "/></g></g></g><g fill="#ffffff" fill-opacity="1"><g transform="translate(132.996295, 215.293361)"><g><path d="M 96.53125 -96.734375 L 96.53125 -22.234375 C 96.53125 -20.097656 96.894531 -18.628906 97.625 -17.828125 C 98.363281 -17.023438 99.664062 -16.554688 101.53125 -16.421875 L 107.9375 -16.015625 L 107.9375 0 L 76.09375 0 L 76.09375 -11.609375 L 75.5 -11.8125 C 68.820312 -2.195312 59.675781 2.609375 48.0625 2.609375 C 34.445312 2.609375 24.367188 -1.726562 17.828125 -10.40625 C 11.285156 -19.09375 8.015625 -30.976562 8.015625 -46.0625 C 8.015625 -64.21875 12.421875 -78.367188 21.234375 -88.515625 C 30.046875 -98.660156 43.257812 -103.734375 60.875 -103.734375 C 72.226562 -103.734375 84.113281 -101.398438 96.53125 -96.734375 Z M 73.296875 -31.84375 L 73.296875 -83.71875 C 69.554688 -85.445312 64.414062 -86.3125 57.875 -86.3125 C 48.925781 -86.3125 42.445312 -82.707031 38.4375 -75.5 C 34.4375 -68.289062 32.4375 -58.742188 32.4375 -46.859375 C 32.4375 -25.234375 39.378906 -14.421875 53.265625 -14.421875 C 59.140625 -14.421875 63.945312 -16.1875 67.6875 -19.71875 C 71.425781 -23.257812 73.296875 -27.300781 73.296875 -31.84375 Z M 73.296875 -31.84375 "/></g></g></g></g></g><g clip-path="url(#310f7746bf)"><g clip-path="url(#d79e92e78b)"><path stroke-linecap="butt" transform="matrix(0.75, 0, 0, 0.75, 37.500002, 37.499998)" fill="none" stroke-linejoin="miter" d="M 30.999999 0.00000328333 L 369.000022 0.00000328333 C 386.119814 0.00000328333 400.000024 13.880213 400.000024 31.000005 L 400.000024 369.000028 C 400.000024 386.11982 386.119814 400.00003 369.000022 400.00003 L 30.999999 400.00003 C 13.880207 400.00003 -0.00000271667 386.11982 -0.00000271667 369.000028 L -0.00000271667 31.000005 C -0.00000271667 13.880213 13.880207 0.00000328333 30.999999 0.00000328333 Z M 30.999999 0.00000328333 " stroke="#ffffff" stroke-width="26" stroke-opacity="1" stroke-miterlimit="4"/></g></g></svg>