<svg xmlns="http://www.w3.org/2000/svg" xmlns:xlink="http://www.w3.org/1999/xlink" width="500" zoomAndPan="magnify" viewBox="0 0 375 374.999991" height="500" preserveAspectRatio="xMidYMid meet" version="1.0"><defs><g/><clipPath id="6b1d4e6e10"><rect x="0" width="258" y="0" height="172"/></clipPath><clipPath id="98c5992caa"><path d="M 37.5 37.5 L 337.5 37.5 L 337.5 337.5 L 37.5 337.5 Z M 37.5 37.5 " clip-rule="nonzero"/></clipPath><clipPath id="dc492614d2"><path d="M 60.75 37.5 L 314.25 37.5 C 327.089844 37.5 337.5 47.910156 337.5 60.75 L 337.5 314.25 C 337.5 327.089844 327.089844 337.5 314.25 337.5 L 60.75 337.5 C 47.910156 337.5 37.5 327.089844 37.5 314.25 L 37.5 60.75 C 37.5 47.910156 47.910156 37.5 60.75 37.5 Z M 60.75 37.5 " clip-rule="nonzero"/></clipPath></defs><g transform="matrix(1, 0, 0, 1, 54, 92)"><g clip-path="url(#6b1d4e6e10)"><g fill="#ffffff" fill-opacity="1"><g transform="translate(1.277822, 135.288475)"><g><path d="M 120.765625 0 L 73.203125 0 L 78.78125 -15.484375 L 67.75 -15.484375 L 60.640625 -22.578125 L 49.609375 0 L 1.78125 0 L 32.21875 -62.28125 C 33.0625 -64.226562 34.179688 -66.023438 35.578125 -67.671875 C 36.972656 -69.328125 38.601562 -70.703125 40.46875 -71.796875 L 58.484375 -80.6875 C 60.597656 -81.945312 62.878906 -82.578125 65.328125 -82.578125 L 121.03125 -82.578125 C 122.207031 -82.578125 123.28125 -82.429688 124.25 -82.140625 C 125.226562 -81.847656 126.015625 -81.363281 126.609375 -80.6875 L 140.4375 -67.875 C 141.613281 -66.769531 142.328125 -65.390625 142.578125 -63.734375 C 142.835938 -62.085938 142.628906 -60.335938 141.953125 -58.484375 Z M 77.765625 -56.453125 L 66.34375 -33.625 L 85.375 -33.625 L 93.625 -56.453125 C 94.300781 -58.140625 94.210938 -59.597656 93.359375 -60.828125 C 92.515625 -62.054688 91.207031 -62.671875 89.4375 -62.671875 L 86.640625 -62.671875 C 84.867188 -62.671875 83.175781 -62.054688 81.5625 -60.828125 C 79.957031 -59.597656 78.691406 -58.140625 77.765625 -56.453125 Z M 77.765625 -56.453125 "/></g></g></g><g fill="#ffffff" fill-opacity="1"><g transform="translate(126.494261, 135.288475)"><g><path d="M 118.234375 -71.421875 C 122.035156 -71.421875 124.800781 -70.085938 126.53125 -67.421875 C 128.269531 -64.765625 128.421875 -61.53125 126.984375 -57.71875 L 106.046875 0 L 64.703125 0 L 65.203125 -9 L 49.734375 0 L 26.140625 0 C 24.109375 0 22.414062 -0.550781 21.0625 -1.65625 L 11.421875 -9.390625 C 10.398438 -10.316406 9.804688 -11.519531 9.640625 -13 C 9.472656 -14.476562 9.6875 -16.023438 10.28125 -17.640625 L 16.109375 -33.75 C 17.128906 -36.28125 18.90625 -38.222656 21.4375 -39.578125 L 30.453125 -44.28125 C 31.128906 -44.695312 31.828125 -44.988281 32.546875 -45.15625 C 33.265625 -45.332031 33.957031 -45.421875 34.625 -45.421875 L 77.890625 -45.421875 L 79.15625 -48.84375 C 79.664062 -50.363281 79.601562 -51.628906 78.96875 -52.640625 C 78.332031 -53.660156 77.210938 -54.171875 75.609375 -54.171875 L 29.4375 -54.171875 L 35.640625 -71.421875 Z M 56.078125 -22.578125 C 55.566406 -21.054688 55.628906 -19.785156 56.265625 -18.765625 C 56.898438 -17.753906 57.976562 -17.25 59.5 -17.25 L 67.609375 -17.25 L 72.1875 -29.8125 L 58.734375 -29.8125 Z M 56.078125 -22.578125 "/></g></g></g></g></g><g clip-path="url(#98c5992caa)"><g clip-path="url(#dc492614d2)"><path stroke-linecap="butt" transform="matrix(0.75, 0, 0, 0.75, 37.500002, 37.499998)" fill="none" stroke-linejoin="miter" d="M 30.999999 0.00000328333 L 369.000022 0.00000328333 C 386.119814 0.00000328333 400.000024 13.880213 400.000024 31.000005 L 400.000024 369.000028 C 400.000024 386.11982 386.119814 400.00003 369.000022 400.00003 L 30.999999 400.00003 C 13.880207 400.00003 -0.00000271667 386.11982 -0.00000271667 369.000028 L -0.00000271667 31.000005 C -0.00000271667 13.880213 13.880207 0.00000328333 30.999999 0.00000328333 Z M 30.999999 0.00000328333 " stroke="#ffffff" stroke-width="26" stroke-opacity="1" stroke-miterlimit="4"/></g></g></svg>